g ButtonPressed
v 0.00622254 -0.00622254 0
v 1.192093E-11 -0.0088 0
v 1.192093E-11 -0.0088 0.002
v 0.00622254 -0.00622254 0.002
v 0.0088 0 0
v 0.0088 0 0.002
v 0.00622254 0.00622254 0
v 0.00622254 0.00622254 0.002
v 1.192093E-11 0.0088 0
v 1.192093E-11 0.0088 0.002
v -0.00622254 0.00622254 0
v -0.00622254 0.00622254 0.002
v -0.0088 0 0
v -0.0088 0 0.002
v -0.00622254 -0.00622254 0
v -0.00622254 -0.00622254 0.002
v 1.192093E-11 -0.0088 0
v 1.192093E-11 -0.0088 0.002
v 0.00622254 0.00622254 0.002
v 0.0088 0 0.002
v 0.00622254 -0.00622254 0.002
v 1.192093E-11 0.0088 0.002
v 1.192093E-11 -0.0088 0.002
v -0.00622254 0.00622254 0.002
v -0.00622254 -0.00622254 0.002
v -0.0088 0 0.002
v -0.00622254 0.00622254 0
v 3.57628E-11 0.0096 0
v 1.192093E-11 0.0088 0
v -0.006788225 0.006788225 0
v -0.0088 0 0
v -0.0096 0 0
v -0.00622254 -0.00622254 0
v -0.006788225 -0.006788225 0
v 1.192093E-11 -0.0088 0
v 3.57628E-11 -0.0096 0
v 0.00622254 -0.00622254 0
v 0.006788225 -0.006788225 0
v 0.0088 0 0
v 0.0096 0 0
v 0.00622254 0.00622254 0
v 0.006788225 0.006788225 0
v 1.192093E-11 0.0088 0
v 3.57628E-11 0.0096 0
v -0.006788225 -0.006788225 0
v -0.0096 0 0.004
v -0.0096 0 0
v -0.006788225 -0.006788225 0.004
v 3.57628E-11 -0.0096 0
v 3.57628E-11 -0.0096 0.004
v 0.006788225 -0.006788225 0
v 0.006788225 -0.006788225 0.004
v 0.0096 0 0
v 0.0096 0 0.004
v 0.006788225 0.006788225 0
v 0.006788225 0.006788225 0.004
v 3.57628E-11 0.0096 0
v 3.57628E-11 0.0096 0.004
v -0.006788225 0.006788225 0
v -0.006788225 0.006788225 0.004
v -0.0096 0 0
v -0.0096 0 0.004
v 2.622605E-10 0.0144 0.004
v 2.622605E-10 0.0144 -0.02047
v 0.01018234 0.01018234 -0.02047
v 0.01018234 0.01018234 0.004
v 0.0144 0 -0.02047
v 0.0144 0 0.004
v 0.01018234 -0.01018234 -0.02047
v 0.01018234 -0.01018234 0.004
v 2.622605E-10 -0.0144 -0.02047
v 2.622605E-10 -0.0144 0.004
v -0.01018234 -0.01018234 -0.02047
v -0.01018234 -0.01018234 0.004
v -0.0144 0 -0.02047
v -0.0144 0 0.004
v -0.01018234 0.01018234 -0.02047
v -0.01018234 0.01018234 0.004
v 2.622605E-10 0.0144 -0.02047
v 2.622605E-10 0.0144 0.004
v 0.0001275635 0.001963354 0.00348691
v 0.0001275634 0.003270087 0.00348691
v 0.003394397 3.254303E-06 0.003486911
v 0.002087664 3.254127E-06 0.003486911
v -0.001832537 3.253601E-06 0.00348691
v 0.0001275643 -0.00326358 0.003486912
v -0.003139269 3.253536E-06 0.00348691
v 0.0001275641 -0.001956846 0.003486912
v 3.57628E-11 0.0096 0.004
v 0.01018234 0.01018234 0.004
v 0.006788225 0.006788225 0.004
v 2.622605E-10 0.0144 0.004
v 0.0144 0 0.004
v -0.006788225 0.006788225 0.004
v 0.0096 0 0.004
v -0.01018234 0.01018234 0.004
v 0.01018234 -0.01018234 0.004
v -0.0096 0 0.004
v 0.006788225 -0.006788225 0.004
v -0.0144 0 0.004
v 2.622605E-10 -0.0144 0.004
v -0.006788225 -0.006788225 0.004
v 3.57628E-11 -0.0096 0.004
v -0.01018234 -0.01018234 0.004
v -0.003139269 3.253536E-06 0.00348691
v -0.003139265 3.247379E-06 -0.008069089
v 0.0001275668 0.003270081 -0.008069089
v 0.0001275634 0.003270087 0.00348691
v 0.0001275643 -0.00326358 0.003486912
v 0.0033944 3.248256E-06 -0.008069087
v 0.0001275677 -0.003263586 -0.008069087
v 0.003394397 3.254303E-06 0.003486911
v 0.0001275635 0.001963354 0.00348691
v 0.0001275636 3.254562E-06 0.00478051
v -0.001832537 3.253601E-06 0.00348691
v 0.002087664 3.254127E-06 0.003486911
v 0.0001275641 -0.001956846 0.003486912
vt -0.2855622 0.4287728
vt -0.405495 0.4287728
vt -0.405495 0.5712272
vt -0.2855622 0.5712272
vt -0.1656293 0.4287728
vt -0.1656293 0.5712272
vt -0.04569638 0.4287727
vt -0.04569639 0.5712272
vt 0.07423652 0.4287727
vt 0.07423652 0.5712272
vt 0.1941694 0.4287727
vt 0.1941694 0.5712272
vt 0.3141023 0.4287727
vt 0.3141023 0.5712272
vt 0.4340352 0.4287727
vt 0.4340352 0.5712271
vt 0.5539681 0.4287727
vt 0.5539681 0.5712271
vt 0.3458858 0.1595301
vt 0.2538297 0.1182266
vt 0.1595301 0.1541142
vt 0.3817734 0.2538297
vt 0.1182266 0.2461703
vt 0.3404698 0.3458858
vt 0.1541142 0.3404698
vt 0.2461703 0.3817734
vt 0.125 0.5
vt 0 0.5
vt 0 0.5
vt 0.125 0.5
vt 0.25 0.5
vt 0.25 0.5
vt 0.375 0.5
vt 0.375 0.5
vt 0.5 0.5
vt 0.5 0.5
vt 0.625 0.5
vt 0.625 0.5
vt 0.75 0.5
vt 0.75 0.5
vt 0.875 0.5
vt 0.875 0.5
vt 1 0.5
vt 1 0.5
vt -0.3409749 0.4715251
vt -0.4659749 0.403475
vt -0.4659749 0.4715251
vt -0.3409749 0.403475
vt -0.2159749 0.4715251
vt -0.2159749 0.403475
vt -0.0909749 0.4715251
vt -0.0909749 0.4034749
vt 0.0340251 0.4715251
vt 0.0340251 0.4034749
vt 0.1590251 0.4715251
vt 0.1590251 0.4034749
vt 0.2840251 0.4715251
vt 0.2840251 0.4034749
vt 0.4090251 0.4715251
vt 0.4090251 0.4034749
vt 0.5340251 0.471525
vt 0.5340251 0.4034749
vt -0.5612344 0.3057282
vt -0.5612344 0.6942719
vt -0.3862343 0.6942719
vt -0.3862343 0.3057282
vt -0.2112344 0.6942719
vt -0.2112344 0.3057282
vt -0.03623436 0.6942718
vt -0.03623436 0.3057282
vt 0.1387656 0.6942718
vt 0.1387656 0.3057282
vt 0.3137656 0.6942718
vt 0.3137656 0.3057281
vt 0.4887656 0.6942718
vt 0.4887656 0.3057281
vt 0.6637656 0.6942718
vt 0.6637656 0.3057281
vt 0.8387656 0.6942718
vt 0.8387656 0.3057281
vt 0.5 0.6
vt 0.5 0.6
vt 0.5 0.6
vt 0.5 0.6
vt 0.5 0.6
vt 0.5 0.6
vt 0.5 0.6
vt 0.5 0.6
vt 0.6626605 0.567376
vt 0.7439906 0.3989357
vt 0.6626604 0.4326238
vt 0.7439907 0.6010641
vt 0.6010642 0.2560094
vt 0.567376 0.6626605
vt 0.5673761 0.3373396
vt 0.6010641 0.7439906
vt 0.3989358 0.2560095
vt 0.4326238 0.6626604
vt 0.4326239 0.3373396
vt 0.3989357 0.7439906
vt 0.2560095 0.3989358
vt 0.3373396 0.5673761
vt 0.3373396 0.4326239
vt 0.2560095 0.6010641
vt 0.5 0.6
vt 0.5 0.6
vt 0.5 0.6
vt 0.5 0.6
vt 0.5 0.6
vt 0.5 0.6
vt 0.5 0.6
vt 0.5 0.6
vt 0.5 0.6
vt 0.5 0.6
vt 0.5 0.6
vt 0.5 0.6
vt 0.5 0.6
vn 0.7071068 -0.7071068 0
vn 0 -1 0
vn 0 -1 0
vn 0.7071068 -0.7071068 0
vn 1 0 0
vn 1 0 0
vn 0.7071068 0.7071068 0
vn 0.7071068 0.7071068 0
vn 0 1 0
vn 0 1 0
vn -0.7071068 0.7071068 0
vn -0.7071068 0.7071068 0
vn -1 0 0
vn -1 0 0
vn -0.7071068 -0.7071068 0
vn -0.7071068 -0.7071068 0
vn 0 -1 0
vn 0 -1 0
vn 0 0 1
vn 0 0 1
vn 0 0 1
vn 0 0 1
vn 0 0 1
vn 0 0 1
vn 0 0 1
vn 0 0 1
vn 0 0 1
vn 0 0 1
vn 0 0 1
vn 0 0 1
vn 0 0 1
vn 0 0 1
vn 0 0 1
vn 0 0 1
vn 0 0 1
vn 0 0 1
vn 0 0 1
vn 0 0 1
vn 0 0 1
vn 0 0 1
vn 0 0 1
vn 0 0 1
vn 0 0 1
vn 0 0 1
vn 0.7071068 0.7071068 0
vn 1 0 0
vn 1 0 0
vn 0.7071068 0.7071068 0
vn 0 1 0
vn 0 1 0
vn -0.7071068 0.7071068 0
vn -0.7071068 0.7071068 0
vn -1 0 0
vn -1 0 0
vn -0.7071068 -0.7071068 0
vn -0.7071068 -0.7071068 0
vn 0 -1 0
vn 0 -1 0
vn 0.7071068 -0.7071068 0
vn 0.7071068 -0.7071068 0
vn 1 0 0
vn 1 0 0
vn 0 1 0
vn 0 1 0
vn 0.7071068 0.7071068 0
vn 0.7071068 0.7071068 0
vn 1 0 0
vn 1 0 0
vn 0.7071068 -0.7071068 0
vn 0.7071068 -0.7071068 0
vn 0 -1 0
vn 0 -1 0
vn -0.7071066 -0.7071068 0
vn -0.7071066 -0.7071068 0
vn -1 0 0
vn -1 0 0
vn -0.7071066 0.7071068 0
vn -0.7071066 0.7071068 0
vn 0 1 0
vn 0 1 0
vn -1.090828E-07 2.565758E-07 1
vn -1.090829E-07 2.565758E-07 1
vn -1.090829E-07 1.710505E-07 1
vn -1.090828E-07 1.710505E-07 1
vn -2.181656E-07 1.710504E-07 1
vn -2.181656E-07 0 1
vn -2.181656E-07 1.710504E-07 1
vn -2.181656E-07 0 1
vn 0 0 1
vn 0 0 1
vn 0 0 1
vn 0 0 1
vn 0 0 1
vn 0 0 1
vn 0 0 1
vn 0 0 1
vn 0 0 1
vn 0 0 1
vn 0 0 1
vn 0 0 1
vn 0 0 1
vn 0 0 1
vn 0 0 1
vn 0 0 1
vn -1 1.073261E-07 -3.157735E-07
vn -1 -1.609891E-07 -3.157735E-07
vn 0 1 -5.427357E-07
vn -1.609891E-07 1 -5.427357E-07
vn 0 -1 5.279338E-07
vn 1 0 3.009716E-07
vn 2.146522E-07 -1 5.279339E-07
vn 1 3.219782E-07 3.009715E-07
vn -2.897086E-07 0.5508227 0.8346223
vn -2.26031E-07 4.520621E-07 1
vn -0.5508226 2.172814E-07 0.8346223
vn 0.5508222 4.526697E-07 0.8346227
vn 0 -0.550822 0.8346227
g ButtonPressed_0
f 3/3/3 2/2/2 1/1/1
f 4/4/4 3/3/3 1/1/1
f 4/4/4 1/1/1 5/5/5
f 6/6/6 4/4/4 5/5/5
f 6/6/6 5/5/5 7/7/7
f 8/8/8 6/6/6 7/7/7
f 8/8/8 7/7/7 9/9/9
f 10/10/10 8/8/8 9/9/9
f 10/10/10 9/9/9 11/11/11
f 12/12/12 10/10/10 11/11/11
f 12/12/12 11/11/11 13/13/13
f 14/14/14 12/12/12 13/13/13
f 14/14/14 13/13/13 15/15/15
f 16/16/16 14/14/14 15/15/15
f 16/16/16 15/15/15 17/17/17
f 18/18/18 16/16/16 17/17/17
f 21/21/21 20/20/20 19/19/19
f 19/19/19 22/22/22 21/21/21
f 22/22/22 23/23/23 21/21/21
f 22/22/22 24/24/24 23/23/23
f 24/24/24 25/25/25 23/23/23
f 24/24/24 26/26/26 25/25/25
g ButtonPressed_1
f 29/29/29 28/28/28 27/27/27
f 28/28/28 30/30/30 27/27/27
f 27/27/27 30/30/30 31/31/31
f 30/30/30 32/32/32 31/31/31
f 31/31/31 32/32/32 33/33/33
f 32/32/32 34/34/34 33/33/33
f 33/33/33 34/34/34 35/35/35
f 34/34/34 36/36/36 35/35/35
f 35/35/35 36/36/36 37/37/37
f 36/36/36 38/38/38 37/37/37
f 37/37/37 38/38/38 39/39/39
f 38/38/38 40/40/40 39/39/39
f 39/39/39 40/40/40 41/41/41
f 40/40/40 42/42/42 41/41/41
f 41/41/41 42/42/42 43/43/43
f 42/42/42 44/44/44 43/43/43
f 47/47/47 46/46/46 45/45/45
f 46/46/46 48/48/48 45/45/45
f 45/45/45 48/48/48 49/49/49
f 48/48/48 50/50/50 49/49/49
f 49/49/49 50/50/50 51/51/51
f 50/50/50 52/52/52 51/51/51
f 51/51/51 52/52/52 53/53/53
f 52/52/52 54/54/54 53/53/53
f 53/53/53 54/54/54 55/55/55
f 54/54/54 56/56/56 55/55/55
f 55/55/55 56/56/56 57/57/57
f 56/56/56 58/58/58 57/57/57
f 57/57/57 58/58/58 59/59/59
f 58/58/58 60/60/60 59/59/59
f 59/59/59 60/60/60 61/61/61
f 60/60/60 62/62/62 61/61/61
f 65/65/65 64/64/64 63/63/63
f 66/66/66 65/65/65 63/63/63
f 67/67/67 65/65/65 66/66/66
f 68/68/68 67/67/67 66/66/66
f 69/69/69 67/67/67 68/68/68
f 70/70/70 69/69/69 68/68/68
f 71/71/71 69/69/69 70/70/70
f 72/72/72 71/71/71 70/70/70
f 73/73/73 71/71/71 72/72/72
f 74/74/74 73/73/73 72/72/72
f 75/75/75 73/73/73 74/74/74
f 76/76/76 75/75/75 74/74/74
f 77/77/77 75/75/75 76/76/76
f 78/78/78 77/77/77 76/76/76
f 79/79/79 77/77/77 78/78/78
f 80/80/80 79/79/79 78/78/78
f 83/83/83 82/82/82 81/81/81
f 84/84/84 83/83/83 81/81/81
f 81/81/81 82/82/82 85/85/85
f 86/86/86 83/83/83 84/84/84
f 82/82/82 87/87/87 85/85/85
f 88/88/88 86/86/86 84/84/84
f 85/85/85 87/87/87 88/88/88
f 87/87/87 86/86/86 88/88/88
f 91/91/91 90/90/90 89/89/89
f 90/90/90 92/92/92 89/89/89
f 93/93/93 90/90/90 91/91/91
f 89/89/89 92/92/92 94/94/94
f 95/95/95 93/93/93 91/91/91
f 92/92/92 96/96/96 94/94/94
f 97/97/97 93/93/93 95/95/95
f 94/94/94 96/96/96 98/98/98
f 99/99/99 97/97/97 95/95/95
f 96/96/96 100/100/100 98/98/98
f 101/101/101 97/97/97 99/99/99
f 98/98/98 100/100/100 102/102/102
f 103/103/103 101/101/101 99/99/99
f 100/100/100 104/104/104 102/102/102
f 104/104/104 101/101/101 103/103/103
f 102/102/102 104/104/104 103/103/103
f 107/107/107 106/106/106 105/105/105
f 108/108/108 107/107/107 105/105/105
f 105/105/105 106/106/106 109/109/109
f 110/110/110 107/107/107 108/108/108
f 106/106/106 111/111/111 109/109/109
f 112/112/112 110/110/110 108/108/108
f 112/112/112 109/109/109 111/111/111
f 110/110/110 112/112/112 111/111/111
g ButtonPressed_2
f 115/115/115 114/114/114 113/113/113
f 113/113/113 114/114/114 116/116/116
f 117/117/117 114/114/114 115/115/115
f 116/116/116 114/114/114 117/117/117
