g Circle
v -0.00424264 0.00424264 -2.384186E-10
v -0.004799999 0 0.003
v -0.006 0 -2.384186E-10
v -0.003394112 0.003394112 0.003
v 0 0.006 -2.384186E-10
v -0.003394112 -0.003394112 0.003
v -0.00424264 -0.00424264 -2.384186E-10
v 9.536743E-10 0.0048 0.003
v 0.00424264 0.00424264 -2.384186E-10
v 9.536743E-10 -0.0048 0.003
v 0 -0.006 -2.384186E-10
v 0.003394113 0.003394112 0.003
v 0.006 0 -2.384186E-10
v 0.003394113 -0.003394112 0.003
v 0.00424264 -0.00424264 -2.384186E-10
v 0.004800001 0 0.003
v -0.00083919 -0.00249237 0.007216915
v -0.001871563 0 0.007216915
v -0.00083919 0.00249237 0.007216915
v 0.00165318 -0.003524743 0.007216915
v 0.00165318 0.003524743 0.007216915
v 0.004145549 -0.00249237 0.007216915
v 0.005177922 0 0.007216915
v 0.004145549 0.00249237 0.007216915
v -0.00215128 -0.001716233 0.009740191
v -0.002862167 -2.012503E-10 0.009740191
v -0.0007395792 0 0.012568
v -0.0004350476 -0.002427119 0.009740191
v -0.00215128 0.001716232 0.009740191
v 0.001281184 -0.001716233 0.009740191
v -0.0004350476 0.002427119 0.009740191
v 0.001992071 -2.012503E-10 0.009740191
v 0.001281184 0.001716232 0.009740191
v 0.007071068 0.007071068 0
v 0.00424264 0.00424264 -2.384186E-10
v 0 0.006 -2.384186E-10
v 0 0.01 0
v -0.00424264 0.00424264 -2.384186E-10
v 0.01 0 0
v 0.006 0 -2.384186E-10
v -0.007071068 0.007071068 0
v -0.006 0 -2.384186E-10
v 0.007071068 -0.007071068 0
v 0.00424264 -0.00424264 -2.384186E-10
v -0.01 0 0
v -0.00424264 -0.00424264 -2.384186E-10
v 0 -0.01 0
v 0 -0.006 -2.384186E-10
v -0.007071068 -0.007071068 0
v 0.007071068 0.007071068 -0.001029551
v 0.01 0 -0.001029551
v 0 0 -0.001029552
v 0 0.01 -0.001029551
v 0.007071068 -0.007071068 -0.001029551
v -0.007071068 0.007071068 -0.001029551
v 0 -0.01 -0.001029551
v -0.01 0 -0.001029551
v -0.007071068 -0.007071068 -0.001029551
vt 0 0
vt 0 0
vt 0 0
vt 0 0
vt 0 0
vt 0 0
vt 0 0
vt 0 0
vt 0 0
vt 0 0
vt 0 0
vt 0 0
vt 0 0
vt 0 0
vt 0 0
vt 0 0
vt 0 0
vt 0 0
vt 0 0
vt 0 0
vt 0 0
vt 0 0
vt 0 0
vt 0 0
vt 0 0
vt 0 0
vt 0 0
vt 0 0
vt 0 0
vt 0 0
vt 0 0
vt 0 0
vt 0 0
vt 0 0
vt 0 0
vt 0 0
vt 0 0
vt 0 0
vt 0 0
vt 0 0
vt 0 0
vt 0 0
vt 0 0
vt 0 0
vt 0 0
vt 0 0
vt 0 0
vt 0 0
vt 0 0
vt 0 0
vt 0 0
vt 0 0
vt 0 0
vt 0 0
vt 0 0
vt 0 0
vt 0 0
vt 0 0
vn -0.6565321 0.6565321 0.3713908
vn -0.8864925 0 0.4627431
vn -0.9284765 0 0.3713909
vn -0.6499609 0.6233947 0.4346607
vn 0 0.9284768 0.3713907
vn -0.6499609 -0.6233947 0.4346606
vn -0.6565321 -0.6565321 0.3713908
vn -0.03435797 0.9375445 0.3461645
vn 0.6565322 0.6565322 0.3713905
vn -0.03435796 -0.9375445 0.3461644
vn 0 -0.9284768 0.3713906
vn 0.6674849 0.7116292 0.2191985
vn 0.9284768 0 0.3713904
vn 0.667485 -0.711629 0.2191985
vn 0.6565322 -0.6565322 0.3713905
vn 0.9880833 0 0.1539201
vn -0.6142538 -0.7537703 0.2335006
vn -0.9912357 0 0.1321044
vn -0.6142538 0.7537704 0.2335006
vn 0.106544 -0.9270979 0.3593575
vn 0.106544 0.9270979 0.3593575
vn 0.7016773 -0.6100894 0.3680218
vn 0.9337144 0 0.3580186
vn 0.7016772 0.6100894 0.3680218
vn -0.7354386 -0.6466875 0.2023005
vn -0.9926572 0 0.1209615
vn -0.06478857 0 0.9978991
vn -0.09189361 -0.8870152 0.4525038
vn -0.7354386 0.6466875 0.2023003
vn 0.4786119 -0.5496719 0.6846834
vn -0.09189365 0.8870152 0.4525036
vn 0.662331 0 0.7492114
vn 0.4786119 0.549672 0.6846834
vn 0.5489933 0.5489933 0.6302481
vn 0 0 1
vn 0 0 1
vn 0 0.7763938 0.6302481
vn 0 0 1
vn 0.7763938 0 0.6302481
vn 0 0 1
vn -0.5489934 0.5489933 0.6302481
vn 0 0 1
vn 0.5489934 -0.5489933 0.6302481
vn 0 0 1
vn -0.7763938 0 0.6302481
vn 0 0 1
vn 0 -0.7763938 0.6302481
vn 0 0 1
vn -0.5489933 -0.5489934 0.6302481
vn 0.5489933 0.5489933 -0.6302481
vn 0.7763938 0 -0.630248
vn 0 0 -1
vn 0 0.7763938 -0.630248
vn 0.5489933 -0.5489933 -0.6302481
vn -0.5489933 0.5489933 -0.6302481
vn 0 -0.7763938 -0.630248
vn -0.7763938 0 -0.630248
vn -0.5489933 -0.5489933 -0.6302481
g Circle_0
f 3/3/3 2/2/2 1/1/1
f 2/2/2 4/4/4 1/1/1
f 1/1/1 4/4/4 5/5/5
f 6/6/6 2/2/2 3/3/3
f 7/7/7 6/6/6 3/3/3
f 4/4/4 8/8/8 5/5/5
f 5/5/5 8/8/8 9/9/9
f 10/10/10 6/6/6 7/7/7
f 11/11/11 10/10/10 7/7/7
f 8/8/8 12/12/12 9/9/9
f 9/9/9 12/12/12 13/13/13
f 14/14/14 10/10/10 11/11/11
f 15/15/15 14/14/14 11/11/11
f 13/13/13 16/16/16 15/15/15
f 12/12/12 16/16/16 13/13/13
f 16/16/16 14/14/14 15/15/15
f 6/6/6 17/17/17 2/2/2
f 2/2/2 18/18/18 4/4/4
f 17/17/17 18/18/18 2/2/2
f 4/4/4 19/19/19 8/8/8
f 18/18/18 19/19/19 4/4/4
f 10/10/10 20/20/20 6/6/6
f 20/20/20 17/17/17 6/6/6
f 8/8/8 21/21/21 12/12/12
f 19/19/19 21/21/21 8/8/8
f 14/14/14 22/22/22 10/10/10
f 22/22/22 20/20/20 10/10/10
f 16/16/16 23/23/23 14/14/14
f 23/23/23 22/22/22 14/14/14
f 12/12/12 24/24/24 16/16/16
f 21/21/21 24/24/24 12/12/12
f 24/24/24 23/23/23 16/16/16
f 17/17/17 25/25/25 18/18/18
f 18/18/18 26/26/26 19/19/19
f 25/25/25 26/26/26 18/18/18
f 25/25/25 27/27/27 26/26/26
f 28/28/28 25/25/25 17/17/17
f 20/20/20 28/28/28 17/17/17
f 28/28/28 27/27/27 25/25/25
f 26/26/26 29/29/29 19/19/19
f 19/19/19 29/29/29 21/21/21
f 26/26/26 27/27/27 29/29/29
f 30/30/30 28/28/28 20/20/20
f 22/22/22 30/30/30 20/20/20
f 30/30/30 27/27/27 28/28/28
f 29/29/29 31/31/31 21/21/21
f 21/21/21 31/31/31 24/24/24
f 29/29/29 27/27/27 31/31/31
f 32/32/32 30/30/30 22/22/22
f 23/23/23 32/32/32 22/22/22
f 32/32/32 27/27/27 30/30/30
f 24/24/24 33/33/33 23/23/23
f 31/31/31 33/33/33 24/24/24
f 31/31/31 27/27/27 33/33/33
f 33/33/33 32/32/32 23/23/23
f 33/33/33 27/27/27 32/32/32
f 36/36/36 35/35/35 34/34/34
f 37/37/37 36/36/36 34/34/34
f 38/38/38 36/36/36 37/37/37
f 34/34/34 35/35/35 39/39/39
f 35/35/35 40/40/40 39/39/39
f 41/41/41 38/38/38 37/37/37
f 42/42/42 38/38/38 41/41/41
f 39/39/39 40/40/40 43/43/43
f 40/40/40 44/44/44 43/43/43
f 45/45/45 42/42/42 41/41/41
f 46/46/46 42/42/42 45/45/45
f 43/43/43 44/44/44 47/47/47
f 44/44/44 48/48/48 47/47/47
f 48/48/48 46/46/46 49/49/49
f 49/49/49 46/46/46 45/45/45
f 47/47/47 48/48/48 49/49/49
f 34/34/34 50/50/50 37/37/37
f 39/39/39 51/51/51 34/34/34
f 51/51/51 50/50/50 34/34/34
f 51/51/51 52/52/52 50/50/50
f 50/50/50 53/53/53 37/37/37
f 37/37/37 53/53/53 41/41/41
f 50/50/50 52/52/52 53/53/53
f 54/54/54 51/51/51 39/39/39
f 43/43/43 54/54/54 39/39/39
f 54/54/54 52/52/52 51/51/51
f 53/53/53 55/55/55 41/41/41
f 41/41/41 55/55/55 45/45/45
f 53/53/53 52/52/52 55/55/55
f 56/56/56 54/54/54 43/43/43
f 47/47/47 56/56/56 43/43/43
f 56/56/56 52/52/52 54/54/54
f 55/55/55 57/57/57 45/45/45
f 55/55/55 52/52/52 57/57/57
f 45/45/45 57/57/57 49/49/49
f 58/58/58 56/56/56 47/47/47
f 58/58/58 52/52/52 56/56/56
f 49/49/49 58/58/58 47/47/47
f 57/57/57 58/58/58 49/49/49
f 57/57/57 52/52/52 58/58/58
