g Cube.002
v -0.02417532 0.001551023 0
v -0.02417532 -0.001551023 0
v -0.0192323 -4.279368E-12 -0.007253211
v 0.05923228 -2.937439E-10 -0.007253211
v 0.05 0.01 0
v 0.04930857 0.007071068 -0.007071068
v 0.06417532 0.001551023 0
v 0.06417532 -0.001551023 0
v 0.06430733 0.001593982 0.004
v 0.06430733 -0.001593982 0.004
v 0.05013565 0.01004521 0.004
v 0.05013565 -0.01004521 0.004
v -0.01 0.01 0
v 0.04930857 0.007071068 -0.007071068
v -0.009308573 0.007071068 -0.007071068
v -0.01013564 0.01004521 0.004
v -0.02417532 0.001551023 0
v -0.009308573 0.007071068 -0.007071068
v -0.0192323 -4.279368E-12 -0.007253211
v -0.02430734 0.001593981 0.004
v -0.02417532 -0.001551023 0
v -0.02430734 -0.001593981 0.004
v -0.01 -0.01 0
v -0.01013564 -0.01004521 0.004
v -0.0192323 -4.279368E-12 -0.007253211
v -0.009308573 -0.007071067 -0.007071068
v -0.009308573 -0.007071067 -0.007071068
v 0.05 -0.01 0
v 0.04930857 -0.007071068 -0.007071068
v -0.01 -0.01 0
v -0.01013564 -0.01004521 0.004
v 0.04930857 -0.007071068 -0.007071068
v 0.05923228 -2.937439E-10 -0.007253211
v 0.04955735 -0.0075955 0.004
v 0.06174614 -0.001525318 -0.0004721198
v 0.06159646 -0.001575939 0.004
v 0.04958934 -0.00760372 -0.0004721198
v 0.05707657 -1.419182E-10 -0.005286197
v -0.009557345 -0.0075955 0.004
v 0.04785484 -0.007158 -0.005156935
v -0.009589331 -0.00760372 -0.0004721198
v -0.02159647 -0.001575939 0.004
v -0.007854841 -0.007158 -0.005156935
v -0.02174614 -0.001525317 -0.0004721198
v -0.01707659 1.121158E-10 -0.005286197
v 0.06174614 0.001525318 -0.0004721198
v 0.05707657 -1.419182E-10 -0.005286197
v 0.04785484 0.007158 -0.005156935
v 0.04958934 0.00760372 -0.0004721198
v 0.06159646 0.001575939 0.004
v -0.007854841 0.007158 -0.005156935
v 0.04955735 0.0075955 0.004
v -0.009589331 0.00760372 -0.0004721198
v -0.01707659 1.121158E-10 -0.005286197
v -0.009557345 0.0075955 0.004
v -0.02174614 0.001525317 -0.0004721198
v -0.02159647 0.001575939 0.004
v 0.06174614 0.001525318 -0.0004721198
v 0.06174614 -0.001525318 -0.0004721198
v 0.05707657 -1.419182E-10 -0.005286197
v 0.06159646 0.001575939 0.004
v 0.06159646 -0.001575939 0.004
v -0.02174614 0.001525317 -0.0004721198
v -0.02159647 -0.001575939 0.004
v -0.02159647 0.001575939 0.004
v -0.02174614 -0.001525317 -0.0004721198
v -0.01707659 1.121158E-10 -0.005286197
v 0.04955735 0.0075955 0.004
v 0.06430733 0.001593982 0.004
v 0.06159646 0.001575939 0.004
v 0.06159646 -0.001575939 0.004
v 0.05013565 0.01004521 0.004
v 0.06430733 -0.001593982 0.004
v -0.009557345 0.0075955 0.004
v 0.05013565 -0.01004521 0.004
v -0.01013564 0.01004521 0.004
v 0.04955735 -0.0075955 0.004
v -0.01013564 -0.01004521 0.004
v -0.009557345 -0.0075955 0.004
v -0.02159647 0.001575939 0.004
v -0.02430734 0.001593981 0.004
v -0.02430734 -0.001593981 0.004
v -0.02159647 -0.001575939 0.004
v -0.007854841 0.007158 -0.005156935
v -0.008288124 0 -0.00696663
v -0.01707659 1.121158E-10 -0.005286197
v 0.04785484 0.007158 -0.005156935
v -0.007854841 -0.007158 -0.005156935
v 0.0482881 0 -0.00696663
v 0.05707657 -1.419182E-10 -0.005286197
v 0.04785484 -0.007158 -0.005156935
v -0.00763932 0 -0.01
v -0.009308573 -0.007071067 -0.007071068
v 0.04930857 -0.007071068 -0.007071068
v -0.0192323 -4.279368E-12 -0.007253211
v -0.009308573 0.007071068 -0.007071068
v 0.04763932 0 -0.01
v 0.05923228 -2.937439E-10 -0.007253211
v 0.04930857 0.007071068 -0.007071068
vt 0.4638808 -0.5275726
vt 0.4627026 -0.5994368
vt 0.2723266 -0.3545719
vt 0.2 0.7360115
vt 0.5 0.5
vt 0.2 0.5092764
vt 0.5 0.7534693
vt 0.5 0.8465308
vt 0.8 0.7523957
vt 0.8 0.8476043
vt 0.8 0.5
vt 0.8 1.1
vt 0.5 -0.1
vt 0.2 0.4930858
vt 0.2 -0.09308577
vt 0.8 -0.1
vt 0.5 -0.3534694
vt 0.1999999 -0.1092765
vt 0.1999999 -0.274718
vt 0.8 -0.3523958
vt 0.5 -0.4465307
vt 0.8 -0.4476042
vt 0.5 -0.7
vt 0.8 -0.7
vt 0.1999999 -0.525282
vt 0.2 -0.6907235
vt 0.2 1.693086
vt 0.5 1.1
vt 0.2 1.106914
vt 0.5 1.7
vt 0.8 1.7
vt 0.2 1.090724
vt 0.2 0.8639885
vt 0.3479483 1.944193
vt 0.1134666 2.612304
vt 0.3356257 2.608993
vt 0.1278027 1.943439
vt -0.1763936 2.432112
vt 0.3479485 -0.949151
vt -0.1041982 1.860442
vt 0.1294724 -0.9484872
vt 0.3362107 -1.608848
vt -0.1008944 -0.8663956
vt 0.1157617 -1.612304
vt -0.1720065 -1.433746
vt 0.06080123 2.033564
vt 0.320498 1.872546
vt 0.2564623 1.360233
vt 0.04815219 1.434543
vt -0.1380852 2.030428
vt 0.2556581 -1.091741
vt -0.1486464 1.435202
vt 0.04820252 -1.165897
vt 0.3204983 -1.603673
vt -0.1494132 -1.166499
vt 0.06077107 -1.765256
vt -0.1383502 -1.762305
vt 0.5358202 0.5577752
vt 0.5293775 0.4233169
vt 0.2369959 0.5047101
vt 0.7331486 0.5505563
vt 0.726492 0.4116355
vt 0.2879675 0.5795166
vt 0.06098995 0.4326535
vt 0.06596217 0.5890879
vt 0.283155 0.428107
vt 0.6184298 0.4932316
vt 0.6941929 0.625
vt 0.6941929 0.625
vt 0.6941929 0.625
vt 0.6941929 0.625
vt 0.6941929 0.625
vt 0.6941929 0.625
vt 0.6941929 0.625
vt 0.6941929 0.625
vt 0.6941929 0.625
vt 0.6941929 0.625
vt 0.6941929 0.625
vt 0.6941929 0.625
vt 0.6941929 0.625
vt 0.6941929 0.625
vt 0.6941929 0.625
vt 0.6941929 0.625
vt -0.2759444 -1.00127
vt 0.1279367 -1.01492
vt 0.1268841 -1.50328
vt -0.2629559 2.01164
vt 0.531873 -1.003011
vt 0.1344843 2.022753
vt 0.1355201 2.50328
vt 0.5318728 2.009927
vt 0.1224386 0.8256034
vt 0.4053992 0.8496017
vt 0.4053991 0.1500019
vt 0.1241887 0.9699479
vt -0.1561424 0.8499978
vt 0.1268181 0.1743963
vt 0.125068 0.03005213
vt -0.1561425 0.1503981
vn -0.8410118 0.4613882 -0.2825244
vn -0.8410118 -0.4613882 -0.2825244
vn -0.623991 0 -0.7814316
vn 0.6239907 0 -0.7814318
vn 0.2608216 0.9405863 -0.2174151
vn 0.2039219 0.694791 -0.6896966
vn 0.8410115 0.4613881 -0.2825254
vn 0.8410115 -0.4613881 -0.2825254
vn 0.8700591 0.4917547 -0.03426952
vn 0.8700591 -0.4917547 -0.03426957
vn 0.2703352 0.9625627 -0.01979775
vn 0.2703353 -0.9625627 -0.01979784
vn -0.2608216 0.9405864 -0.2174148
vn 0.2039219 0.694791 -0.6896966
vn -0.2039218 0.6947911 -0.6896966
vn -0.270335 0.9625627 -0.01979745
vn -0.8410118 0.4613882 -0.2825244
vn -0.2039218 0.6947911 -0.6896966
vn -0.623991 0 -0.7814316
vn -0.870059 0.4917549 -0.03426851
vn -0.8410118 -0.4613882 -0.2825244
vn -0.870059 -0.4917549 -0.03426848
vn -0.2608216 -0.9405864 -0.2174149
vn -0.270335 -0.9625627 -0.01979747
vn -0.623991 0 -0.7814316
vn -0.2039218 -0.6947911 -0.6896964
vn -0.2039218 -0.6947911 -0.6896964
vn 0.2608216 -0.9405863 -0.2174151
vn 0.2039219 -0.694791 -0.6896965
vn -0.2608216 -0.9405864 -0.2174149
vn -0.270335 -0.9625627 -0.01979747
vn 0.2039219 -0.694791 -0.6896965
vn 0.6239907 0 -0.7814318
vn -0.2288211 0.9734625 -0.00342598
vn -0.8245157 0.4781265 0.3026036
vn -0.8455689 0.5334021 -0.02226203
vn -0.2656597 0.9498364 0.1650326
vn -0.5692049 0 0.8221957
vn 0.2288211 0.9734625 -0.003425678
vn -0.1620115 0.7307128 0.6631826
vn 0.2656595 0.9498366 0.1650322
vn 0.845569 0.5334019 -0.02226076
vn 0.1620114 0.730713 0.6631824
vn 0.8245156 0.4781269 0.3026032
vn 0.569206 0 0.822195
vn -0.8245157 -0.4781266 0.3026036
vn -0.5692049 0 0.8221957
vn -0.1620115 -0.7307128 0.6631826
vn -0.2656597 -0.9498364 0.1650326
vn -0.8455689 -0.5334021 -0.02226203
vn 0.1620115 -0.730713 0.6631824
vn -0.2288211 -0.9734625 -0.00342598
vn 0.2656595 -0.9498366 0.1650322
vn 0.569206 0 0.822195
vn 0.2288211 -0.9734625 -0.003425678
vn 0.8245156 -0.4781269 0.3026032
vn 0.845569 -0.5334019 -0.02226076
vn -0.8245157 -0.4781266 0.3026036
vn -0.8245157 0.4781265 0.3026036
vn -0.5692049 0 0.8221957
vn -0.8455689 -0.5334021 -0.02226203
vn -0.8455689 0.5334021 -0.02226203
vn 0.8245156 -0.4781269 0.3026032
vn 0.845569 0.5334019 -0.02226076
vn 0.845569 -0.5334019 -0.02226076
vn 0.8245156 0.4781269 0.3026032
vn 0.569206 0 0.822195
vn 0 0 1
vn 0 0 1
vn 0 0 1
vn 0 0 1
vn 0 0 1
vn 0 0 1
vn 0 0 1
vn 0 0 1
vn 0 0 1
vn 0 0 1
vn 0 0 1
vn 0 0 1
vn 0 0 1
vn 0 0 1
vn 0 0 1
vn 0 0 1
vn 0.1620115 -0.730713 0.6631824
vn 0.09638391 0 0.9953442
vn 0.569206 0 0.822195
vn -0.1620115 -0.7307128 0.6631826
vn 0.1620114 0.730713 0.6631824
vn -0.09638365 0 0.9953442
vn -0.5692049 0 0.8221957
vn -0.1620115 0.7307128 0.6631826
vn -0.09782024 0 -0.9952041
vn -0.2039218 -0.6947911 -0.6896964
vn 0.2039219 -0.694791 -0.6896965
vn -0.623991 0 -0.7814316
vn -0.2039218 0.6947911 -0.6896966
vn 0.09782048 0 -0.9952041
vn 0.6239907 0 -0.7814318
vn 0.2039219 0.694791 -0.6896966
g Cube.002_0
f 3/3/3 2/2/2 1/1/1
f 6/6/6 5/5/5 4/4/4
f 5/5/5 7/7/7 4/4/4
f 4/4/4 7/7/7 8/8/8
f 9/9/9 7/7/7 5/5/5
f 9/9/9 10/10/10 7/7/7
f 10/10/10 8/8/8 7/7/7
f 11/11/11 9/9/9 5/5/5
f 10/10/10 12/12/12 8/8/8
f 11/11/11 5/5/5 13/13/13
f 13/13/13 5/5/5 14/14/14
f 15/15/15 13/13/13 14/14/14
f 16/16/16 11/11/11 13/13/13
f 16/16/16 13/13/13 17/17/17
f 17/17/17 13/13/13 18/18/18
f 19/19/19 17/17/17 18/18/18
f 20/20/20 16/16/16 17/17/17
f 17/17/17 21/21/21 20/20/20
f 21/21/21 22/22/22 20/20/20
f 22/22/22 21/21/21 23/23/23
f 24/24/24 22/22/22 23/23/23
f 23/23/23 21/21/21 25/25/25
f 26/26/26 23/23/23 25/25/25
f 29/29/29 28/28/28 27/27/27
f 28/28/28 30/30/30 27/27/27
f 31/31/31 30/30/30 28/28/28
f 12/12/12 31/31/31 28/28/28
f 12/12/12 28/28/28 8/8/8
f 8/8/8 28/28/28 32/32/32
f 33/33/33 8/8/8 32/32/32
f 36/36/36 35/35/35 34/34/34
f 35/35/35 37/37/37 34/34/34
f 35/35/35 38/38/38 37/37/37
f 34/34/34 37/37/37 39/39/39
f 38/38/38 40/40/40 37/37/37
f 37/37/37 41/41/41 39/39/39
f 37/37/37 40/40/40 41/41/41
f 39/39/39 41/41/41 42/42/42
f 40/40/40 43/43/43 41/41/41
f 41/41/41 44/44/44 42/42/42
f 41/41/41 43/43/43 44/44/44
f 43/43/43 45/45/45 44/44/44
f 48/48/48 47/47/47 46/46/46
f 49/49/49 48/48/48 46/46/46
f 49/49/49 46/46/46 50/50/50
f 51/51/51 48/48/48 49/49/49
f 52/52/52 49/49/49 50/50/50
f 53/53/53 51/51/51 49/49/49
f 53/53/53 49/49/49 52/52/52
f 54/54/54 51/51/51 53/53/53
f 55/55/55 53/53/53 52/52/52
f 56/56/56 54/54/54 53/53/53
f 56/56/56 53/53/53 55/55/55
f 57/57/57 56/56/56 55/55/55
f 60/60/60 59/59/59 58/58/58
f 58/58/58 59/59/59 61/61/61
f 59/59/59 62/62/62 61/61/61
f 65/65/65 64/64/64 63/63/63
f 64/64/64 66/66/66 63/63/63
f 67/67/67 63/63/63 66/66/66
f 70/70/70 69/69/69 68/68/68
f 70/70/70 71/71/71 69/69/69
f 69/69/69 72/72/72 68/68/68
f 71/71/71 73/73/73 69/69/69
f 68/68/68 72/72/72 74/74/74
f 75/75/75 73/73/73 71/71/71
f 72/72/72 76/76/76 74/74/74
f 77/77/77 75/75/75 71/71/71
f 78/78/78 75/75/75 77/77/77
f 79/79/79 78/78/78 77/77/77
f 74/74/74 76/76/76 80/80/80
f 76/76/76 81/81/81 80/80/80
f 82/82/82 78/78/78 79/79/79
f 80/80/80 81/81/81 82/82/82
f 83/83/83 82/82/82 79/79/79
f 83/83/83 80/80/80 82/82/82
f 86/86/86 85/85/85 84/84/84
f 84/84/84 85/85/85 87/87/87
f 88/88/88 85/85/85 86/86/86
f 85/85/85 89/89/89 87/87/87
f 89/89/89 85/85/85 88/88/88
f 87/87/87 89/89/89 90/90/90
f 91/91/91 89/89/89 88/88/88
f 90/90/90 89/89/89 91/91/91
f 94/94/94 93/93/93 92/92/92
f 93/93/93 95/95/95 92/92/92
f 95/95/95 96/96/96 92/92/92
f 97/97/97 94/94/94 92/92/92
f 92/92/92 96/96/96 97/97/97
f 98/98/98 94/94/94 97/97/97
f 96/96/96 99/99/99 97/97/97
f 99/99/99 98/98/98 97/97/97
