g Cube.004
v -0.006754942 0.005618443 0.009860354
v -0.008501196 0.001328289 0.01184551
v -0.01284289 0.003050274 0.02397533
v -0.01109663 0.007340429 0.02199017
v -0.0008669209 0.009582438 -0.002013369
v -0.004228995 0.01091589 0.007379598
v -0.01854518 0.00272596 0.02338163
v -0.01564871 0.008164273 0.01973816
v -0.01275572 0.0008895071 0.008023491
v -0.008501196 0.001328289 0.01184551
v -0.01562255 0.001835936 0.002200746
v -0.01996424 0.003557922 0.01433057
v -0.00686489 0.01244135 0.004353828
v -0.0008669209 0.009582438 -0.002013369
v -0.01821798 0.007848077 0.01234542
v -0.01562255 0.001835936 0.002200746
v -0.01387629 0.00612609 0.0002156067
v -0.009743551 0.011309 -8.901596E-05
v -0.006381478 0.009975543 -0.009481973
v -0.002381713 0.01101926 -0.007539043
v -0.006754942 0.005618443 0.009860354
v -0.006381478 0.009975543 -0.009481973
v -0.009859249 0.00632782 0.004380007
v -0.008501196 0.001328289 0.01184551
v -0.01387629 0.00612609 0.0002156067
v -0.01275572 0.0008895071 0.008023491
v -0.01562255 0.001835936 0.002200746
v -0.007492342 -0.004429637 0.009815016
v -0.01319261 -0.001715104 0.02395384
v -0.008606254 -0.0001032725 0.01183905
v -0.01207869 -0.006041469 0.0219298
v -0.002196377 -0.008533233 -0.002095098
v -0.005747908 -0.009781386 0.007286215
v -0.01883644 -0.001242963 0.02336372
v -0.01674281 -0.006744366 0.01967089
v -0.01278818 0.0004470821 0.008021488
v -0.008606254 -0.0001032725 0.01183905
v -0.01578812 -0.0004202044 0.002190571
v -0.02037447 -0.002032037 0.01430535
v -0.008602353 -0.01123397 0.004247017
v -0.002196377 -0.008533233 -0.002095098
v -0.01926055 -0.0063584 0.01228131
v -0.01578812 -0.0004202044 0.002190571
v -0.01467421 -0.004746568 0.0001665497
v -0.01130932 -0.01002681 -0.0001852798
v -0.007757794 -0.008778653 -0.009566593
v -0.00391877 -0.009925247 -0.007633543
v -0.007492342 -0.004429637 0.009815016
v -0.007757794 -0.008778653 -0.009566593
v -0.01069455 -0.005054321 0.004328661
v -0.008606254 -0.0001032725 0.01183905
v -0.01467421 -0.004746568 0.0001665497
v -0.01278818 0.0004470821 0.008021488
v -0.01578812 -0.0004202044 0.002190571
vt 0.125 0.6248875
vt 0.125 0.75
vt 0.375 0.75
vt 0.375 0.6248877
vt 0.125 0.5
vt 0.375 0.5
vt 0.5 0.75
vt 0.5 0.6248876
vt 0.5 1
vt 0.375 1
vt 0.625 1
vt 0.625 0.75
vt 0.5 0.5
vt 0.375 0.25
vt 0.6249999 0.6248876
vt 0.875 0.75
vt 0.8749999 0.6248875
vt 0.625 0.5
vt 0.875 0.5
vt 0.5 0.25
vt 0.375 0.1251124
vt 0.625 0.25
vt 0.5 0.1251124
vt 0.375 0
vt 0.625 0.1251124
vt 0.5 0
vt 0.625 0
vt 0.125 0.6248875
vt 0.375 0.75
vt 0.125 0.75
vt 0.375 0.6248877
vt 0.125 0.5
vt 0.375 0.5
vt 0.5 0.75
vt 0.5 0.6248876
vt 0.5 1
vt 0.375 1
vt 0.625 1
vt 0.625 0.75
vt 0.5 0.5
vt 0.375 0.25
vt 0.6249999 0.6248876
vt 0.875 0.75
vt 0.8749999 0.6248875
vt 0.625 0.5
vt 0.875 0.5
vt 0.5 0.25
vt 0.375 0.1251124
vt 0.625 0.25
vt 0.5 0.1251124
vt 0.375 0
vt 0.625 0.1251124
vt 0.5 0
vt 0.625 0
vn 0.8511034 -0.5237458 0.03623985
vn 0.6483841 -0.7607684 0.02880123
vn 0.2918111 -0.3763985 0.8793011
vn 0.5261881 0.4959834 0.6907436
vn 0.9755852 -0.1602925 -0.1501332
vn 0.7594219 0.5188911 0.3924671
vn -0.6487567 -0.3259936 0.6876357
vn -0.3971401 0.8131216 0.4255739
vn 0.1805231 -0.9544914 -0.2373975
vn 0.6483841 -0.7607684 0.02880123
vn -0.3600339 -0.6337761 -0.6846192
vn -0.9542952 -0.2988352 -0.00425097
vn 0.04571913 0.9963516 0.07206456
vn 0.9755852 -0.1602925 -0.1501332
vn -0.7574099 0.6471223 -0.08696506
vn -0.3600339 -0.6337761 -0.6846192
vn -0.5223487 -0.2657396 -0.810268
vn -0.4792102 0.8490025 -0.2226036
vn -0.1122175 -0.02969981 -0.9932398
vn 0.6558284 0.1961153 -0.7289909
vn 0.8511034 -0.5237458 0.03623985
vn -0.1122175 -0.02969981 -0.9932398
vn 0.4250987 -0.8273677 -0.3670879
vn 0.6483841 -0.7607684 0.02880123
vn -0.5223487 -0.2657396 -0.810268
vn 0.1805231 -0.9544914 -0.2373975
vn -0.3600339 -0.6337761 -0.6846192
vn 0.9082534 0.4172906 0.03072993
vn 0.3272374 0.3585938 0.8742574
vn 0.7091786 0.70418 0.03458535
vn 0.4832999 -0.5552211 0.6768682
vn 0.9792519 0.1162493 -0.165987
vn 0.7168743 -0.5877172 0.3750729
vn -0.6221854 0.3621491 0.6940702
vn -0.4500675 -0.7818113 0.4315208
vn 0.2330082 0.9386258 -0.25434
vn 0.7091786 0.70418 0.03458535
vn -0.2899478 0.6783216 -0.6751371
vn -0.9272445 0.3744562 0.000318735
vn 0.0002823345 -0.9975423 0.07006712
vn 0.9792519 0.1162493 -0.165987
vn -0.8132445 -0.5749428 -0.08985563
vn -0.2899478 0.6783216 -0.6751371
vn -0.5263855 0.3274154 -0.7846766
vn -0.5328209 -0.8119552 -0.2383918
vn -0.1142218 0.03537865 -0.9928252
vn 0.6494916 -0.2187537 -0.7282221
vn 0.9082534 0.4172906 0.03072993
vn -0.1142218 0.03537865 -0.9928252
vn 0.467523 0.7961195 -0.3842082
vn 0.7091786 0.70418 0.03458535
vn -0.5263855 0.3274154 -0.7846766
vn 0.2330082 0.9386258 -0.25434
vn -0.2899478 0.6783216 -0.6751371
g Cube.004_0
f 3/3/3 2/2/2 1/1/1
f 4/4/4 3/3/3 1/1/1
f 4/4/4 1/1/1 5/5/5
f 6/6/6 4/4/4 5/5/5
f 7/7/7 3/3/3 4/4/4
f 8/8/8 4/4/4 6/6/6
f 8/8/8 7/7/7 4/4/4
f 7/7/7 9/9/9 3/3/3
f 9/9/9 10/10/10 3/3/3
f 11/11/11 9/9/9 7/7/7
f 12/12/12 11/11/11 7/7/7
f 12/12/12 7/7/7 8/8/8
f 13/13/13 8/8/8 6/6/6
f 13/13/13 6/6/6 14/14/14
f 15/15/15 12/12/12 8/8/8
f 15/15/15 8/8/8 13/13/13
f 16/16/16 12/12/12 15/15/15
f 17/17/17 16/16/16 15/15/15
f 17/17/17 15/15/15 18/18/18
f 18/18/18 15/15/15 13/13/13
f 19/19/19 17/17/17 18/18/18
f 20/20/20 13/13/13 14/14/14
f 18/18/18 13/13/13 20/20/20
f 20/20/20 14/14/14 21/21/21
f 22/22/22 18/18/18 20/20/20
f 23/23/23 20/20/20 21/21/21
f 22/22/22 20/20/20 23/23/23
f 23/23/23 21/21/21 24/24/24
f 25/25/25 22/22/22 23/23/23
f 26/26/26 23/23/23 24/24/24
f 25/25/25 23/23/23 26/26/26
f 27/27/27 25/25/25 26/26/26
f 30/30/30 29/29/29 28/28/28
f 29/29/29 31/31/31 28/28/28
f 28/28/28 31/31/31 32/32/32
f 31/31/31 33/33/33 32/32/32
f 29/29/29 34/34/34 31/31/31
f 31/31/31 35/35/35 33/33/33
f 34/34/34 35/35/35 31/31/31
f 36/36/36 34/34/34 29/29/29
f 37/37/37 36/36/36 29/29/29
f 36/36/36 38/38/38 34/34/34
f 38/38/38 39/39/39 34/34/34
f 34/34/34 39/39/39 35/35/35
f 35/35/35 40/40/40 33/33/33
f 33/33/33 40/40/40 41/41/41
f 39/39/39 42/42/42 35/35/35
f 35/35/35 42/42/42 40/40/40
f 39/39/39 43/43/43 42/42/42
f 43/43/43 44/44/44 42/42/42
f 42/42/42 44/44/44 45/45/45
f 42/42/42 45/45/45 40/40/40
f 44/44/44 46/46/46 45/45/45
f 40/40/40 47/47/47 41/41/41
f 40/40/40 45/45/45 47/47/47
f 41/41/41 47/47/47 48/48/48
f 45/45/45 49/49/49 47/47/47
f 47/47/47 50/50/50 48/48/48
f 47/47/47 49/49/49 50/50/50
f 48/48/48 50/50/50 51/51/51
f 49/49/49 52/52/52 50/50/50
f 50/50/50 53/53/53 51/51/51
f 50/50/50 52/52/52 53/53/53
f 52/52/52 54/54/54 53/53/53
