g Cube.001
v 0.116 0 0.014
v 0.14 0 -9.536743E-09
v 0.116 -0.014 -9.536743E-09
v 0.116 -0.014 -9.536743E-09
v 0.14 0 -9.536743E-09
v 0.116 0 -0.014
v 0.116 0.014 -9.536743E-09
v 0.14 0 -9.536743E-09
v 0.116 0 0.014
v 0.116 0 -0.014
v 0.14 0 -9.536743E-09
v 0.116 0.014 -9.536743E-09
v -0.01 0 -0.01
v -0.01 0.01 -9.536743E-09
v -0.01 0 0.01
v -0.01 -0.01 -9.536743E-09
v -0.01 0 -0.01
v -0.01 -0.01 -9.536743E-09
v 0.116 -0.014 -9.536743E-09
v 0.116 0 -0.014
v 0.116 0 0.014
v 0.116 -0.014 -9.536743E-09
v -0.01 -0.01 -9.536743E-09
v -0.01 0 0.01
v 0.116 0.014 -9.536743E-09
v 0.116 0 0.014
v -0.01 0 0.01
v -0.01 0.01 -9.536743E-09
v -0.01 0.01 -9.536743E-09
v -0.01 0 -0.01
v 0.116 0 -0.014
v 0.116 0.014 -9.536743E-09
v -0.06400001 0.007999999 -3.115315E-09
v -0.01600001 0.003200001 -0.01108512
v -0.01600001 0.006400001 4.361442E-09
v -0.06400001 0.003999999 -0.01385641
v -0.01600001 -0.003199999 -0.01108512
v -0.06400001 -0.004000001 -0.01385641
v -0.06821647 0.002399998 -0.00831385
v -0.06821647 0.004799998 -7.249515E-09
v -0.06400001 -0.004000001 -0.01385641
v -0.01600001 -0.006399999 4.361443E-09
v -0.01600001 -0.003199999 -0.01108512
v -0.06400001 -0.008 -3.115314E-09
v -0.06821647 -0.004800001 -7.249515E-09
v -0.06821647 -0.002400002 -0.00831385
v -0.06400001 -0.008 -3.115314E-09
v -0.01600001 -0.003199999 0.01108513
v -0.01600001 -0.006399999 4.361443E-09
v -0.06400001 -0.004000001 0.0138564
v -0.06821647 -0.002400002 0.008313837
v -0.06821647 -0.004800001 -7.249515E-09
v -0.01600001 -0.003199999 -0.01108512
v -0.01600001 -0.006399999 4.361443E-09
v -0.01600001 -0.003199999 0.01108513
v -0.01600001 0.003200001 -0.01108512
v -0.01600002 0.003200001 0.01108513
v -0.01600001 0.006400001 4.361442E-09
v -0.06400001 -0.004000001 0.0138564
v -0.01600002 0.003200001 0.01108513
v -0.01600001 -0.003199999 0.01108513
v -0.06400002 0.003999999 0.0138564
v -0.01600001 0.006400001 4.361442E-09
v -0.06400001 0.007999999 -3.115315E-09
v -0.06821647 0.004799998 -7.249515E-09
v -0.06821647 0.002399998 0.008313837
v -0.06400001 -0.004000001 0.0138564
v -0.06821647 0.002399998 0.008313837
v -0.06400002 0.003999999 0.0138564
v -0.06821647 -0.002400002 0.008313837
v -0.06821647 -0.002400002 -0.00831385
v -0.06821647 -0.004800001 -7.249515E-09
v -0.06821647 0.002399998 -0.00831385
v -0.06821647 0.004799998 -7.249515E-09
v -0.06400001 0.003999999 -0.01385641
v -0.06400001 -0.004000001 -0.01385641
v -0.01599999 -0.028 3.847235E-09
v -0.01599999 0.02 0.01600001
v -0.01599999 -0.02 0.01600001
v -0.01599999 0.028 3.847235E-09
v -0.01599999 -0.02 -0.016
v -0.01599999 0.02 -0.016
v -0.01599999 0.028 3.847235E-09
v -0.007999992 0.028 3.847236E-09
v -0.007999992 0.02 0.01600001
v -0.01599999 0.02 0.01600001
v -0.007999992 0.028 3.847236E-09
v -0.00799999 -0.02 0.01600001
v -0.007999992 0.02 0.01600001
v -0.00799999 -0.028 3.847236E-09
v -0.00799999 0.02 -0.016
v -0.00799999 -0.02 -0.016
v -0.00799999 -0.028 3.847236E-09
v -0.01599999 -0.028 3.847235E-09
v -0.01599999 -0.02 0.01600001
v -0.00799999 -0.02 0.01600001
v -0.007999992 0.02 0.01600001
v -0.01599999 0.02 0.01600001
v -0.01599999 0.02 -0.016
v -0.01599999 -0.02 -0.016
v -0.00799999 -0.02 -0.016
v -0.00799999 0.02 -0.016
v -0.007999992 0.028 3.847236E-09
v -0.01599999 0.028 3.847235E-09
v -0.00799999 -0.02 -0.016
v -0.01599999 -0.02 -0.016
v -0.01599999 -0.028 3.847235E-09
v -0.00799999 -0.028 3.847236E-09
vt -0.5999999 1.224165
vt -0.4355081 1.585401
vt -0.3184526 1.222975
vt 0.2446421 -0.2320993
vt 0.1275865 -0.5945252
vt -0.03690496 -0.2332896
vt -0.3184524 1.222975
vt -0.201397 1.585401
vt -0.03690502 1.224165
vt 0.5261892 -0.2332896
vt 0.3616977 -0.5945252
vt 0.2446421 -0.2320994
vt 1.6 1.119692
vt 1.6 0.914111
vt 1.394419 0.9141109
vt 1.394419 1.119692
vt 0.04353705 1.584551
vt 0.2446421 1.585401
vt 0.2446421 -0.2320993
vt -0.03690496 -0.2332896
vt -0.5999999 1.224165
vt -0.3184526 1.222975
vt -0.3184525 -0.5945253
vt -0.5195577 -0.5936751
vt -0.3184524 1.222975
vt -0.03690502 1.224165
vt -0.1173472 -0.5936751
vt -0.3184525 -0.5945253
vt 0.2446422 1.585401
vt 0.4457472 1.584551
vt 0.5261892 -0.2332896
vt 0.2446421 -0.2320994
vt 0.9913651 0.1013684
vt 1.174285 -0.5873208
vt 1.013859 -0.5945253
vt 1.191898 0.1103743
vt 1.225011 -0.5945253
vt 1.255305 0.1013685
vt 1.136186 0.1641408
vt 1.015866 0.1587373
vt 1.255306 0.8585725
vt 1.456025 0.1597926
vt 1.295449 0.1618105
vt 1.456025 0.8560499
vt 1.429683 0.9125974
vt 1.309252 0.9141109
vt 1.456025 -0.5364646
vt 1.295449 0.1577747
vt 1.456025 0.1597927
vt 1.255306 -0.538987
vt 1.309252 -0.5945255
vt 1.429683 -0.593012
vt 0.6657421 1.355873
vt 0.7122596 1.194732
vt 0.6657421 1.03359
vt 0.5727069 1.355873
vt 0.5727069 1.03359
vt 0.5261892 1.194732
vt 1.255305 0.226913
vt 1.174285 0.9156022
vt 1.225011 0.9228069
vt 1.191898 0.2179072
vt 1.013859 0.9228069
vt 0.9913651 0.2269131
vt 1.015866 0.1695442
vt 1.136186 0.1641407
vt 0.7238889 1.03359
vt 0.816924 1.114161
vt 0.8401828 1.03359
vt 0.7471476 1.114161
vt 0.7471476 1.355873
vt 0.7122595 1.235017
vt 0.816924 1.355873
vt 0.8518122 1.235017
vt 0.8401828 1.436444
vt 0.7238889 1.436444
vt 0.7587771 0.2195323
vt 0.5261892 -0.4782315
vt 0.5261891 0.1032383
vt 0.7587771 -0.5945253
vt 0.9913651 0.1032383
vt 0.9913651 -0.4782315
vt 0.8518122 1.292029
vt 0.9674984 1.293345
vt 0.9674984 1.034906
vt 0.8518122 1.03359
vt 0.7587771 1.03359
vt 0.5261892 0.3358262
vt 0.5261892 0.9172961
vt 0.7587773 0.2195323
vt 0.9913652 0.9172961
vt 0.9913652 0.3358263
vt 1.255306 1.490785
vt 1.370622 1.500127
vt 1.394419 1.242786
vt 1.279103 1.233444
vt 1.255306 0.9141107
vt 1.370621 0.9234529
vt 0.9913652 1.180148
vt 1.015163 1.499481
vt 1.130479 1.508824
vt 1.106681 1.18949
vt 1.130479 0.9321492
vt 1.015163 0.922807
vt 1.130479 1.181246
vt 1.246165 1.182562
vt 1.246165 0.9241232
vt 1.130479 0.922807
vn 0.3813139 -0.6536821 0.6536813
vn 0.3813139 -0.6536821 0.6536813
vn 0.3813139 -0.6536821 0.6536813
vn 0.3813137 -0.6536814 -0.6536822
vn 0.3813137 -0.6536814 -0.6536822
vn 0.3813137 -0.6536814 -0.6536822
vn 0.3813139 0.6536821 0.6536813
vn 0.3813139 0.6536821 0.6536813
vn 0.3813139 0.6536821 0.6536813
vn 0.3813137 0.6536814 -0.6536822
vn 0.3813137 0.6536814 -0.6536822
vn 0.3813137 0.6536814 -0.6536822
vn -1 0 0
vn -1 0 0
vn -1 0 0
vn -1 0 0
vn -0.02244217 -0.7069284 -0.706929
vn -0.02244217 -0.7069284 -0.706929
vn -0.02244217 -0.7069284 -0.706929
vn -0.02244217 -0.7069284 -0.706929
vn -0.02244219 -0.706929 0.7069284
vn -0.02244219 -0.706929 0.7069284
vn -0.02244219 -0.706929 0.7069284
vn -0.02244219 -0.706929 0.7069284
vn -0.02244219 0.706929 0.7069284
vn -0.02244219 0.706929 0.7069284
vn -0.02244219 0.706929 0.7069284
vn -0.02244219 0.706929 0.7069284
vn -0.02244217 0.7069284 -0.706929
vn -0.02244217 0.7069284 -0.706929
vn -0.02244217 0.7069284 -0.706929
vn -0.02244217 0.7069284 -0.706929
vn -0.2872711 0.9578493 0
vn 0.6144656 0.4795348 -0.6264811
vn 0.6620578 0.7494528 0
vn -0.3626326 0.5371384 -0.7615642
vn 0.6144657 -0.4795346 -0.6264809
vn -0.3626325 -0.5371384 -0.7615641
vn -0.8873637 0.3440895 -0.3069009
vn -0.8637635 0.5038972 0
vn -0.3626325 -0.5371384 -0.7615641
vn 0.6620578 -0.7494527 0
vn 0.6144657 -0.4795346 -0.6264809
vn -0.287271 -0.9578493 0
vn -0.8637635 -0.5038974 0
vn -0.8873636 -0.3440896 -0.306901
vn -0.287271 -0.9578493 0
vn 0.6144655 -0.4795346 0.6264811
vn 0.6620578 -0.7494527 0
vn -0.362633 -0.5371382 0.7615641
vn -0.8873639 -0.3440892 0.3069007
vn -0.8637635 -0.5038974 0
vn 0.6144657 -0.4795346 -0.6264809
vn 0.6620578 -0.7494527 0
vn 0.6144655 -0.4795346 0.6264811
vn 0.6144656 0.4795348 -0.6264811
vn 0.6144654 0.4795347 0.6264812
vn 0.6620578 0.7494528 0
vn -0.362633 -0.5371382 0.7615641
vn 0.6144654 0.4795347 0.6264812
vn 0.6144655 -0.4795346 0.6264811
vn -0.3626332 0.5371382 0.761564
vn 0.6620578 0.7494528 0
vn -0.2872711 0.9578493 0
vn -0.8637635 0.5038972 0
vn -0.8873639 0.344089 0.3069006
vn -0.362633 -0.5371382 0.7615641
vn -0.8873639 0.344089 0.3069006
vn -0.3626332 0.5371382 0.761564
vn -0.8873639 -0.3440892 0.3069007
vn -0.8873636 -0.3440896 -0.306901
vn -0.8637635 -0.5038974 0
vn -0.8873637 0.3440895 -0.3069009
vn -0.8637635 0.5038972 0
vn -0.3626326 0.5371384 -0.7615642
vn -0.3626325 -0.5371384 -0.7615641
vn -0.6189322 -0.7854444 0
vn -0.6057351 0.4183066 0.6768343
vn -0.6057352 -0.4183065 0.6768343
vn -0.6189321 0.7854444 0
vn -0.6057352 -0.4183064 -0.6768342
vn -0.6057351 0.4183067 -0.6768342
vn -0.6189321 0.7854444 0
vn 0.6189324 0.7854444 0
vn 0.6057352 0.4183065 0.6768342
vn -0.6057351 0.4183066 0.6768343
vn 0.6189324 0.7854444 0
vn 0.6057352 -0.4183066 0.6768342
vn 0.6057352 0.4183065 0.6768342
vn 0.6189322 -0.7854444 0
vn 0.6057352 0.4183065 -0.6768343
vn 0.6057352 -0.4183066 -0.6768343
vn 0.6189322 -0.7854444 0
vn -0.6189322 -0.7854444 0
vn -0.6057352 -0.4183065 0.6768343
vn 0.6057352 -0.4183066 0.6768342
vn 0.6057352 0.4183065 0.6768342
vn -0.6057351 0.4183066 0.6768343
vn -0.6057351 0.4183067 -0.6768342
vn -0.6057352 -0.4183064 -0.6768342
vn 0.6057352 -0.4183066 -0.6768343
vn 0.6057352 0.4183065 -0.6768343
vn 0.6189324 0.7854444 0
vn -0.6189321 0.7854444 0
vn 0.6057352 -0.4183066 -0.6768343
vn -0.6057352 -0.4183064 -0.6768342
vn -0.6189322 -0.7854444 0
vn 0.6189322 -0.7854444 0
g Cube.001_0
f 3/3/3 2/2/2 1/1/1
f 6/6/6 5/5/5 4/4/4
f 9/9/9 8/8/8 7/7/7
f 12/12/12 11/11/11 10/10/10
f 15/15/15 14/14/14 13/13/13
f 15/15/15 13/13/13 16/16/16
f 19/19/19 18/18/18 17/17/17
f 20/20/20 19/19/19 17/17/17
f 23/23/23 22/22/22 21/21/21
f 24/24/24 23/23/23 21/21/21
f 27/27/27 26/26/26 25/25/25
f 28/28/28 27/27/27 25/25/25
f 31/31/31 30/30/30 29/29/29
f 32/32/32 31/31/31 29/29/29
g Cube.001_1
f 35/35/35 34/34/34 33/33/33
f 34/34/34 36/36/36 33/33/33
f 34/34/34 37/37/37 36/36/36
f 37/37/37 38/38/38 36/36/36
f 36/36/36 39/39/39 33/33/33
f 39/39/39 40/40/40 33/33/33
f 43/43/43 42/42/42 41/41/41
f 42/42/42 44/44/44 41/41/41
f 44/44/44 45/45/45 41/41/41
f 45/45/45 46/46/46 41/41/41
f 49/49/49 48/48/48 47/47/47
f 48/48/48 50/50/50 47/47/47
f 50/50/50 51/51/51 47/47/47
f 51/51/51 52/52/52 47/47/47
f 55/55/55 54/54/54 53/53/53
f 53/53/53 56/56/56 55/55/55
f 56/56/56 57/57/57 55/55/55
f 56/56/56 58/58/58 57/57/57
f 61/61/61 60/60/60 59/59/59
f 60/60/60 62/62/62 59/59/59
f 60/60/60 63/63/63 62/62/62
f 63/63/63 64/64/64 62/62/62
f 64/64/64 65/65/65 62/62/62
f 65/65/65 66/66/66 62/62/62
f 69/69/69 68/68/68 67/67/67
f 68/68/68 70/70/70 67/67/67
f 70/70/70 68/68/68 71/71/71
f 71/71/71 72/72/72 70/70/70
f 68/68/68 73/73/73 71/71/71
f 68/68/68 74/74/74 73/73/73
f 71/71/71 73/73/73 75/75/75
f 76/76/76 71/71/71 75/75/75
f 79/79/79 78/78/78 77/77/77
f 78/78/78 80/80/80 77/77/77
f 77/77/77 80/80/80 81/81/81
f 80/80/80 82/82/82 81/81/81
f 85/85/85 84/84/84 83/83/83
f 86/86/86 85/85/85 83/83/83
f 89/89/89 88/88/88 87/87/87
f 88/88/88 90/90/90 87/87/87
f 87/87/87 90/90/90 91/91/91
f 90/90/90 92/92/92 91/91/91
f 95/95/95 94/94/94 93/93/93
f 96/96/96 95/95/95 93/93/93
f 95/95/95 96/96/96 97/97/97
f 98/98/98 95/95/95 97/97/97
f 101/101/101 100/100/100 99/99/99
f 102/102/102 101/101/101 99/99/99
f 103/103/103 102/102/102 99/99/99
f 104/104/104 103/103/103 99/99/99
f 107/107/107 106/106/106 105/105/105
f 108/108/108 107/107/107 105/105/105
