g Cube.024
v -0.15 -0.03 -0.01
v -0.15 0.03 -0.01
v -0.15 0.03 0
v -0.15 -0.03 0
v 0.15 0.03 0
v 0.15 -0.03 0
v 0.1101894 -0.03 0.01857826
v 0.1101894 0.03 0.01857826
v 0.05963409 0.03 0.03434226
v 0.05963409 -0.03 0.03434226
v 0 0.03 0.03987784
v 0 -0.03 0.03987784
v -0.05963409 0.03 0.03434226
v -0.05963409 -0.03 0.03434226
v -0.1101894 0.03 0.01857826
v -0.1101894 -0.03 0.01857826
v -0.15 -0.03 0
v -0.15 0.03 0
v 0.15 0.03 -0.01
v 0.15 -0.03 -0.01
v 0.15 -0.03 0
v 0.15 0.03 0
v -0.15 0.03 -0.01
v -0.15 -0.03 -0.01
v -0.1101895 -0.03 0.00857825
v -0.1101895 0.03 0.008578253
v -0.0596341 0.03 0.02434226
v -0.0596341 -0.03 0.02434226
v 0 0.03 0.02987783
v 0 -0.03 0.02987783
v 0.0596341 0.03 0.02434226
v 0.0596341 -0.03 0.02434226
v 0.1101895 0.03 0.00857825
v 0.1101895 -0.03 0.008578253
v 0.15 -0.03 -0.01
v 0.15 0.03 -0.01
v 0.15 -0.03 -0.01
v 0.1101894 -0.03 0.01857826
v 0.15 -0.03 0
v 0.1101895 -0.03 0.008578253
v 0.05963409 -0.03 0.03434226
v 0.0596341 -0.03 0.02434226
v 0 -0.03 0.03987784
v 0 -0.03 0.02987783
v -0.05963409 -0.03 0.03434226
v -0.0596341 -0.03 0.02434226
v -0.1101894 -0.03 0.01857826
v -0.1101895 -0.03 0.00857825
v -0.15 -0.03 0
v -0.15 -0.03 -0.01
v 0.1101895 0.03 0.00857825
v 0.15 0.03 -0.01
v 0.15 0.03 0
v 0.1101894 0.03 0.01857826
v 0.0596341 0.03 0.02434226
v 0.05963409 0.03 0.03434226
v 0 0.03 0.02987783
v 0 0.03 0.03987784
v -0.0596341 0.03 0.02434226
v -0.05963409 0.03 0.03434226
v -0.1101895 0.03 0.008578253
v -0.1101894 0.03 0.01857826
v -0.15 0.03 -0.01
v -0.15 0.03 0
vt 1.225364 -0.16
vt 1.225364 -0.6000001
vt 1.152031 -0.6000001
vt 1.152031 -0.1600001
vt -0.01951131 -0.6000001
vt -0.4595113 -0.6000001
vt -0.4595114 -0.3080561
vt -0.01951134 -0.3080559
vt -0.01951137 0.06268331
vt -0.4595114 0.06268325
vt -0.0195114 0.5000001
vt -0.4595115 0.4999999
vt -0.01951143 0.9373167
vt -0.4595115 0.9373167
vt -0.01951146 1.308056
vt -0.4595115 1.308056
vt -0.4595115 1.6
vt -0.01951146 1.6
vt 1.225364 0.2799999
vt 1.225364 -0.1600001
vt 1.152031 -0.1600001
vt 1.152031 0.2799999
vt 0.4204889 -0.6000001
vt -0.01951113 -0.6000001
vt -0.01951119 -0.3080561
vt 0.4204888 -0.3080561
vt 0.4204888 0.06268319
vt -0.01951119 0.06268319
vt 0.4204888 0.4999999
vt -0.01951122 0.4999999
vt 0.4204888 0.9373167
vt -0.01951125 0.9373167
vt 0.4204888 1.308056
vt -0.01951128 1.308056
vt -0.01951131 1.6
vt 0.4204887 1.6
vt 0.4204889 -0.6000001
vt 0.6300628 -0.3080561
vt 0.4938222 -0.6000001
vt 0.5567294 -0.3080561
vt 0.7456656 0.06268325
vt 0.6723322 0.06268319
vt 0.7862598 0.4999999
vt 0.7129264 0.4999999
vt 0.7456656 0.9373167
vt 0.6723323 0.9373167
vt 0.6300629 1.308056
vt 0.5567296 1.308056
vt 0.4938224 1.6
vt 0.420489 1.6
vt 0.9225004 1.308056
vt 0.7862599 1.6
vt 0.8595933 1.6
vt 0.9958339 1.308056
vt 1.038103 0.9373167
vt 1.111436 0.9373167
vt 1.078697 0.4999999
vt 1.152031 0.4999999
vt 1.038103 0.06268319
vt 1.111436 0.06268319
vt 0.9225003 -0.3080561
vt 0.9958338 -0.3080561
vt 0.7862598 -0.6000001
vt 0.859593 -0.6000001
vn -1 0 0
vn -1 0 0
vn -1 0 0
vn -1 0 0
vn 0.4228854 0 0.9061831
vn 0.4228854 0 0.9061831
vn 0.3610976 0 0.932528
vn 0.3610976 0 0.932528
vn 0.1961316 0 0.9805776
vn 0.1961316 0 0.9805776
vn 0 0 1
vn 0 0 1
vn -0.1961316 0 0.9805776
vn -0.1961316 0 0.9805776
vn -0.3610976 0 0.932528
vn -0.3610976 0 0.932528
vn -0.4228854 0 0.9061831
vn -0.4228854 0 0.9061831
vn 1 0 0
vn 1 0 0
vn 1 0 0
vn 1 0 0
vn 0.4228854 0 -0.9061831
vn 0.4228854 0 -0.9061831
vn 0.3610976 0 -0.932528
vn 0.3610976 0 -0.932528
vn 0.1961316 0 -0.9805776
vn 0.1961316 0 -0.9805776
vn 0 0 -1
vn 0 0 -1
vn -0.1961316 0 -0.9805776
vn -0.1961316 0 -0.9805776
vn -0.3610976 0 -0.932528
vn -0.3610976 0 -0.932528
vn -0.4228854 0 -0.9061831
vn -0.4228854 0 -0.9061831
vn 0 -1 0
vn 0 -1 -1.17497E-07
vn 0 -1 0
vn 0 -1 0
vn 0 -1 0
vn 0 -1 0
vn 0 -1 0
vn 0 -1 0
vn 0 -1 0
vn 0 -1 0
vn 0 -1 0
vn 0 -1 0
vn 0 -1 0
vn 0 -1 0
vn 0 1 0
vn 0 1 0
vn 0 1 0
vn 0 1 0
vn 0 1 0
vn 0 1 0
vn 0 1 0
vn 0 1 0
vn 0 1 0
vn 0 1 0
vn 0 1 0
vn 0 1 -1.17497E-07
vn 0 1 0
vn 0 1 0
g Cube.024_0
f 3/3/3 2/2/2 1/1/1
f 4/4/4 3/3/3 1/1/1
f 7/7/7 6/6/6 5/5/5
f 8/8/8 7/7/7 5/5/5
f 7/7/7 8/8/8 9/9/9
f 10/10/10 7/7/7 9/9/9
f 10/10/10 9/9/9 11/11/11
f 12/12/12 10/10/10 11/11/11
f 12/12/12 11/11/11 13/13/13
f 14/14/14 12/12/12 13/13/13
f 14/14/14 13/13/13 15/15/15
f 16/16/16 14/14/14 15/15/15
f 17/17/17 16/16/16 15/15/15
f 18/18/18 17/17/17 15/15/15
f 21/21/21 20/20/20 19/19/19
f 22/22/22 21/21/21 19/19/19
f 25/25/25 24/24/24 23/23/23
f 26/26/26 25/25/25 23/23/23
f 25/25/25 26/26/26 27/27/27
f 28/28/28 25/25/25 27/27/27
f 28/28/28 27/27/27 29/29/29
f 30/30/30 28/28/28 29/29/29
f 30/30/30 29/29/29 31/31/31
f 32/32/32 30/30/30 31/31/31
f 32/32/32 31/31/31 33/33/33
f 34/34/34 32/32/32 33/33/33
f 35/35/35 34/34/34 33/33/33
f 36/36/36 35/35/35 33/33/33
f 39/39/39 38/38/38 37/37/37
f 38/38/38 40/40/40 37/37/37
f 40/40/40 38/38/38 41/41/41
f 42/42/42 40/40/40 41/41/41
f 42/42/42 41/41/41 43/43/43
f 44/44/44 42/42/42 43/43/43
f 44/44/44 43/43/43 45/45/45
f 46/46/46 44/44/44 45/45/45
f 46/46/46 45/45/45 47/47/47
f 48/48/48 46/46/46 47/47/47
f 47/47/47 49/49/49 48/48/48
f 49/49/49 50/50/50 48/48/48
f 53/53/53 52/52/52 51/51/51
f 54/54/54 53/53/53 51/51/51
f 51/51/51 55/55/55 54/54/54
f 55/55/55 56/56/56 54/54/54
f 55/55/55 57/57/57 56/56/56
f 57/57/57 58/58/58 56/56/56
f 57/57/57 59/59/59 58/58/58
f 59/59/59 60/60/60 58/58/58
f 59/59/59 61/61/61 60/60/60
f 61/61/61 62/62/62 60/60/60
f 62/62/62 61/61/61 63/63/63
f 64/64/64 62/62/62 63/63/63
