g Cube.008
v 0.02861081 0.09287845 0.015
v 0.03142989 0.0918524 0.04
v 0.02861081 0.09287845 0.04
v 0.03142989 0.0918524 0.015
v 0.03195084 0.08889797 0.04
v 0.03195084 0.08889797 0.015
v 0.0296527 0.0869696 0.04
v 0.0296527 0.0869696 0.015
v 0.02683362 0.08799566 0.04
v 0.02683362 0.08799566 0.015
v 0.02631268 0.09095009 0.04
v 0.02631268 0.09095009 0.015
v 0.02861081 0.09287845 0.04
v 0.02861081 0.09287845 0.015
v 0.03142989 0.0918524 0.04
v 0.03195084 0.08889797 0.04
v 0.0296527 0.0869696 0.04
v 0.02861081 0.09287845 0.04
v 0.02683362 0.08799566 0.04
v 0.02631268 0.09095009 0.04
v 0.0296527 0.0869696 0.015
v 0.03195084 0.08889797 0.015
v 0.03142989 0.0918524 0.015
v 0.02861081 0.09287845 0.015
v 0.02683362 0.08799566 0.015
v 0.02631268 0.09095009 0.015
v 0.03208378 0.07318228 0.015
v 0.03490286 0.07215622 0.04
v 0.03208378 0.07318228 0.04
v 0.03490286 0.07215622 0.015
v 0.0354238 0.0692018 0.04
v 0.0354238 0.0692018 0.015
v 0.03312567 0.06727343 0.04
v 0.03312567 0.06727343 0.015
v 0.03030659 0.06829949 0.04
v 0.03030659 0.06829949 0.015
v 0.02978565 0.07125392 0.04
v 0.02978565 0.07125392 0.015
v 0.03208378 0.07318228 0.04
v 0.03208378 0.07318228 0.015
v 0.03490286 0.07215622 0.04
v 0.0354238 0.0692018 0.04
v 0.03312567 0.06727343 0.04
v 0.03208378 0.07318228 0.04
v 0.03030659 0.06829949 0.04
v 0.02978565 0.07125392 0.04
v 0.03312567 0.06727343 0.015
v 0.0354238 0.0692018 0.015
v 0.03490286 0.07215622 0.015
v 0.03208378 0.07318228 0.015
v 0.03030659 0.06829949 0.015
v 0.02978565 0.07125392 0.015
v 0.03031515 0.06017762 0.04
v 0.02354287 0.09858513 0.04
v 0.02354287 0.09858513 0.09999999
v 0.03031515 0.06017762 0.09999999
v 0.02354287 0.09858513 0.04
v 0.03142133 0.0999743 0.04
v 0.03142133 0.0999743 0.09999999
v 0.02354287 0.09858513 0.09999999
v 0.03142133 0.0999743 0.04
v 0.03819361 0.06156681 0.04
v 0.03819361 0.06156681 0.09999999
v 0.03142133 0.0999743 0.09999999
v 0.03819361 0.06156681 0.04
v 0.03031515 0.06017762 0.04
v 0.03031515 0.06017762 0.09999999
v 0.03819361 0.06156681 0.09999999
v 0.02354287 0.09858513 0.04
v 0.03031515 0.06017762 0.04
v 0.03819361 0.06156681 0.04
v 0.03142133 0.0999743 0.04
v 0.03142133 0.0999743 0.09999999
v 0.03819361 0.06156681 0.09999999
v 0.03031515 0.06017762 0.09999999
v 0.02354287 0.09858513 0.09999999
vt 1 0.5
vt 0.8333333 1
vt 1 1
vt 0.8333333 0.5
vt 0.6666666 1
vt 0.6666666 0.5
vt 0.4999999 1
vt 0.4999999 0.5
vt 0.3333333 1
vt 0.3333333 0.5
vt 0.1666666 1
vt 0.1666666 0.5
vt -8.940697E-08 1
vt -8.940697E-08 0.5
vt 0.4578461 0.37
vt 0.4578461 0.13
vt 0.25 0.01000001
vt 0.25 0.49
vt 0.04215391 0.13
vt 0.04215391 0.37
vt 0.75 0.01000001
vt 0.9578461 0.13
vt 0.9578461 0.37
vt 0.75 0.49
vt 0.5421539 0.13
vt 0.5421539 0.37
vt 1 0.5
vt 0.8333333 1
vt 1 1
vt 0.8333333 0.5
vt 0.6666666 1
vt 0.6666666 0.5
vt 0.4999999 1
vt 0.4999999 0.5
vt 0.3333333 1
vt 0.3333333 0.5
vt 0.1666666 1
vt 0.1666666 0.5
vt -8.940697E-08 1
vt -8.940697E-08 0.5
vt 0.4578461 0.37
vt 0.4578461 0.13
vt 0.25 0.01000001
vt 0.25 0.49
vt 0.04215391 0.13
vt 0.04215391 0.37
vt 0.75 0.01000001
vt 0.9578461 0.13
vt 0.9578461 0.37
vt 0.75 0.49
vt 0.5421539 0.13
vt 0.5421539 0.37
vt -0.65 0.7875
vt -0.07499999 0.7875
vt -0.07499999 0.2125
vt -0.65 0.2125001
vt 0.7875 0.5
vt 0.7875 0.5
vt 0.7875 0.5
vt 0.7875 0.5
vt 0.5 0.6355947
vt 1.075 0.6355947
vt 1.075 0.3644053
vt 0.5 0.3644053
vt 0.7875 0.5
vt 0.7875 0.5
vt 0.7875 0.5
vt 0.7875 0.5
vt 0.5 0.9067839
vt 1.075 0.9067839
vt 1.075 0.6355947
vt 0.5 0.6355947
vt 0.5 0.3644053
vt 1.075 0.3644053
vt 1.075 0.09321609
vt 0.4999999 0.09321609
vn -0.1376001 0.7803648 -0.6099975
vn 0.607016 0.5093473 0.6099974
vn -0.1376001 0.7803648 0.6099975
vn 0.6070161 0.5093473 -0.6099975
vn 0.7446156 -0.2710174 0.6099976
vn 0.7446156 -0.2710174 -0.6099977
vn 0.1376 -0.7803648 0.6099975
vn 0.1376 -0.7803648 -0.6099975
vn -0.607016 -0.5093474 0.6099973
vn -0.607016 -0.5093474 -0.6099973
vn -0.7446157 0.2710173 0.6099977
vn -0.7446156 0.2710172 -0.6099977
vn -0.1376001 0.7803648 0.6099975
vn -0.1376001 0.7803648 -0.6099975
vn 0.607016 0.5093473 0.6099974
vn 0.7446156 -0.2710174 0.6099976
vn 0.1376 -0.7803648 0.6099975
vn -0.1376001 0.7803648 0.6099975
vn -0.607016 -0.5093474 0.6099973
vn -0.7446157 0.2710173 0.6099977
vn 0.1376 -0.7803648 -0.6099975
vn 0.7446156 -0.2710174 -0.6099977
vn 0.6070161 0.5093473 -0.6099975
vn -0.1376001 0.7803648 -0.6099975
vn -0.607016 -0.5093474 -0.6099973
vn -0.7446156 0.2710172 -0.6099977
vn -0.137599 0.7803651 -0.6099975
vn 0.607016 0.509347 0.6099975
vn -0.137599 0.7803651 0.6099975
vn 0.607016 0.509347 -0.6099975
vn 0.7446157 -0.271017 0.6099977
vn 0.7446157 -0.271017 -0.6099977
vn 0.1376002 -0.7803648 0.6099975
vn 0.1376002 -0.7803648 -0.6099975
vn -0.607016 -0.509347 0.6099975
vn -0.607016 -0.509347 -0.6099975
vn -0.7446155 0.2710182 0.6099975
vn -0.7446155 0.2710182 -0.6099975
vn -0.137599 0.7803651 0.6099975
vn -0.137599 0.7803651 -0.6099975
vn 0.607016 0.509347 0.6099975
vn 0.7446157 -0.271017 0.6099977
vn 0.1376002 -0.7803648 0.6099975
vn -0.137599 0.7803651 0.6099975
vn -0.607016 -0.509347 0.6099975
vn -0.7446155 0.2710182 0.6099975
vn 0.1376002 -0.7803648 -0.6099975
vn 0.7446157 -0.271017 -0.6099977
vn 0.607016 0.509347 -0.6099975
vn -0.137599 0.7803651 -0.6099975
vn -0.607016 -0.509347 -0.6099975
vn -0.7446155 0.2710182 -0.6099975
vn -0.9848077 -0.1736482 0
vn -0.9848077 -0.1736482 0
vn -0.9848077 -0.1736482 0
vn -0.9848077 -0.1736482 0
vn -0.1736475 0.9848078 0
vn -0.1736475 0.9848078 0
vn -0.1736475 0.9848078 0
vn -0.1736475 0.9848078 0
vn 0.9848077 0.1736483 0
vn 0.9848077 0.1736483 0
vn 0.9848077 0.1736483 0
vn 0.9848077 0.1736483 0
vn 0.173648 -0.9848078 0
vn 0.173648 -0.9848078 0
vn 0.173648 -0.9848078 0
vn 0.173648 -0.9848078 0
vn 0 0 -1
vn 0 0 -1
vn 0 0 -1
vn 0 0 -1
vn -3.05665E-07 0 1
vn -3.05665E-07 0 1
vn -3.05665E-07 0 1
vn -3.05665E-07 0 1
g Cube.008_0
f 3/3/3 2/2/2 1/1/1
f 2/2/2 4/4/4 1/1/1
f 2/2/2 5/5/5 4/4/4
f 5/5/5 6/6/6 4/4/4
f 5/5/5 7/7/7 6/6/6
f 7/7/7 8/8/8 6/6/6
f 7/7/7 9/9/9 8/8/8
f 9/9/9 10/10/10 8/8/8
f 9/9/9 11/11/11 10/10/10
f 11/11/11 12/12/12 10/10/10
f 11/11/11 13/13/13 12/12/12
f 13/13/13 14/14/14 12/12/12
f 17/17/17 16/16/16 15/15/15
f 15/15/15 18/18/18 17/17/17
f 18/18/18 19/19/19 17/17/17
f 18/18/18 20/20/20 19/19/19
f 23/23/23 22/22/22 21/21/21
f 21/21/21 24/24/24 23/23/23
f 21/21/21 25/25/25 24/24/24
f 25/25/25 26/26/26 24/24/24
f 29/29/29 28/28/28 27/27/27
f 28/28/28 30/30/30 27/27/27
f 28/28/28 31/31/31 30/30/30
f 31/31/31 32/32/32 30/30/30
f 31/31/31 33/33/33 32/32/32
f 33/33/33 34/34/34 32/32/32
f 33/33/33 35/35/35 34/34/34
f 35/35/35 36/36/36 34/34/34
f 35/35/35 37/37/37 36/36/36
f 37/37/37 38/38/38 36/36/36
f 37/37/37 39/39/39 38/38/38
f 39/39/39 40/40/40 38/38/38
f 43/43/43 42/42/42 41/41/41
f 41/41/41 44/44/44 43/43/43
f 44/44/44 45/45/45 43/43/43
f 44/44/44 46/46/46 45/45/45
f 49/49/49 48/48/48 47/47/47
f 47/47/47 50/50/50 49/49/49
f 47/47/47 51/51/51 50/50/50
f 51/51/51 52/52/52 50/50/50
g Cube.008_1
f 55/55/55 54/54/54 53/53/53
f 56/56/56 55/55/55 53/53/53
f 59/59/59 58/58/58 57/57/57
f 60/60/60 59/59/59 57/57/57
f 63/63/63 62/62/62 61/61/61
f 64/64/64 63/63/63 61/61/61
f 67/67/67 66/66/66 65/65/65
f 68/68/68 67/67/67 65/65/65
f 71/71/71 70/70/70 69/69/69
f 72/72/72 71/71/71 69/69/69
f 75/75/75 74/74/74 73/73/73
f 76/76/76 75/75/75 73/73/73
