g Cube.026
v 0.0001384849 -0.003671343 -0.001504498
v -0.001969956 -0.003671343 -0.001997985
v -0.002605348 -0.003671343 -0.0005204443
v -0.000352483 -0.003671343 -0.0003628013
v -0.0007685815 -0.003671343 -9.054376E-05
v -0.001190988 -0.002206675 0.0008900097
v -0.003027086 -0.002206675 0.0004602659
v -0.000352483 -0.003671343 -0.0003628013
v 6.13555E-05 -0.002021124 -0.0001052205
v 0.0001384849 -0.003671343 -0.001504498
v 0.001083154 -3.773631E-11 -0.0009605342
v -0.0003378108 2.234976E-11 -0.00140774
v -0.001969956 -0.003671343 -0.001997985
v -0.001969956 0.003671343 -0.001997985
v 0.0001384852 0.003671343 -0.001504498
v 6.135565E-05 0.002021124 -0.0001052204
v -0.0003524827 0.003671343 -0.0003628013
v -0.0007685812 0.003671343 -9.054374E-05
v -0.001190988 0.002206675 0.0008900098
v -0.003027086 0.002206675 0.0004602659
v -0.002605348 0.003671343 -0.0005204443
v -0.0003524827 0.003671343 -0.0003628013
v 0.0001384852 0.003671343 -0.001504498
v -0.001969956 0.003671343 -0.001997985
v 0.0004010812 -2.365588E-11 3.57943E-05
v 6.135565E-05 0.002021124 -0.0001052204
v -0.001190988 0.002206675 0.0008900098
v -0.0006655374 -1.100618E-11 0.001075595
v -0.001190988 -0.002206675 0.0008900097
v -0.0006655374 -1.100618E-11 0.001075595
v -0.001083154 3.773631E-11 0.0009605342
v -0.003027086 0.002206675 0.0004602659
v -0.003027086 -0.002206675 0.0004602659
v -0.001190988 -0.002206675 0.0008900097
vt 0.375 0.75
vt 0.375 1
vt 0.5252634 1
vt 0.4911087 0.75
vt 0.5252634 0.7822127
vt 0.625 0.782292
vt 0.625 1
vt 0.4911087 0.7500001
vt 0.6039786 0.7394893
vt 0.375 0.75
vt 0.375 0.625
vt 0.125 0.625
vt 0.125 0.75
vt 0.125 0.5
vt 0.375 0.5
vt 0.6039785 0.5105107
vt 0.4911087 0.5
vt 0.5252634 0.4677873
vt 0.625 0.4677081
vt 0.625 0.25
vt 0.5252634 0.25
vt 0.4911087 0.5
vt 0.375 0.5
vt 0.375 0.25
vt 0.6037781 0.625
vt 0.6039785 0.5561858
vt 0.657292 0.5498683
vt 0.625 0.6320518
vt 0.625 0.75
vt 0.6721972 0.625
vt 0.875 0.625
vt 0.875 0.5498683
vt 0.875 0.7001317
vt 0.6572919 0.7001317
vn 0.6576834 -0.6186141 -0.4298478
vn 0.1437486 -0.8297324 -0.5393335
vn -0.1134163 -0.8673659 0.4845753
vn 0.5215905 -0.7525785 0.4019563
vn 0.2045944 -0.7967172 0.5686674
vn 0.1557354 -0.3061821 0.939148
vn -0.2119926 -0.395438 0.8936934
vn 0.5215905 -0.7525785 0.4019563
vn 0.7672794 -0.2559025 0.5880443
vn 0.6576834 -0.6186141 -0.4298478
vn 0.9607476 0 -0.2774242
vn 0.2575395 0 -0.9662678
vn 0.1437486 -0.8297324 -0.5393335
vn 0.1437486 0.8297324 -0.5393333
vn 0.6576834 0.6186141 -0.4298478
vn 0.7672794 0.2559025 0.5880443
vn 0.5215905 0.7525784 0.4019565
vn 0.2045944 0.7967173 0.5686675
vn 0.1557354 0.3061821 0.939148
vn -0.2119926 0.3954381 0.8936933
vn -0.1134162 0.8673659 0.4845753
vn 0.5215905 0.7525784 0.4019565
vn 0.6576834 0.6186141 -0.4298478
vn 0.1437486 0.8297324 -0.5393333
vn 0.7549217 0 0.655815
vn 0.7672794 0.2559025 0.5880443
vn 0.1557354 0.3061821 0.939148
vn 0.3001432 0 0.9538941
vn 0.1557354 -0.3061821 0.939148
vn 0.3001432 0 0.9538941
vn -0.2349685 0 0.9720029
vn -0.2119926 0.3954381 0.8936933
vn -0.2119926 -0.395438 0.8936934
vn 0.1557354 -0.3061821 0.939148
g Cube.026_0
f 3/3/3 2/2/2 1/1/1
f 1/1/1 4/4/4 3/3/3
f 4/4/4 5/5/5 3/3/3
f 3/3/3 5/5/5 6/6/6
f 7/7/7 3/3/3 6/6/6
f 6/6/6 5/5/5 8/8/8
f 9/9/9 6/6/6 8/8/8
f 8/8/8 10/10/10 9/9/9
f 10/10/10 11/11/11 9/9/9
f 11/11/11 10/10/10 12/12/12
f 10/10/10 13/13/13 12/12/12
f 11/11/11 12/12/12 14/14/14
f 15/15/15 11/11/11 14/14/14
f 16/16/16 11/11/11 15/15/15
f 17/17/17 16/16/16 15/15/15
f 17/17/17 18/18/18 16/16/16
f 18/18/18 19/19/19 16/16/16
f 19/19/19 18/18/18 20/20/20
f 18/18/18 21/21/21 20/20/20
f 21/21/21 18/18/18 22/22/22
f 21/21/21 22/22/22 23/23/23
f 23/23/23 24/24/24 21/21/21
f 9/9/9 11/11/11 25/25/25
f 25/25/25 11/11/11 26/26/26
f 26/26/26 27/27/27 25/25/25
f 25/25/25 28/28/28 9/9/9
f 28/28/28 29/29/29 9/9/9
f 27/27/27 30/30/30 25/25/25
f 31/31/31 30/30/30 27/27/27
f 32/32/32 31/31/31 27/27/27
f 31/31/31 33/33/33 30/30/30
f 33/33/33 34/34/34 30/30/30
