g Cube.007
v 0.008 -0.02 -0.02363108
v 0.008 -0.01171321 0.01636892
v 0.008 -0.01171321 -0.02363108
v 0.008 -0.02 0.01636892
v 0.008 -0.008517388 0.02170559
v 0.008 -0.01359583 0.02703224
v 0.008 0 0.02517393
v 0.008 -9.536744E-10 0.03292334
v 0.008 0.008517387 0.02170559
v 0.008 0.01359583 0.02703224
v 0.008 0.01171321 0.01636892
v 0.008 0.02 0.01636892
v 0.008 0.01171321 -0.02363108
v 0.008 0.02 -0.02363108
v -0.024 0.02 -0.03163108
v 0.024 0.02 -0.03163108
v 0.008 0.02 -0.02363108
v -0.008 0.02 -0.02363108
v -0.008 0.02 0.01636892
v 0.008 0.02 0.01636892
v -0.008 0.01359583 0.02703224
v 0.008 0.01359583 0.02703224
v 0.008 -9.536744E-10 0.03292334
v -0.008 -9.536744E-10 0.03292334
v 0.008 -0.01359583 0.02703224
v -0.008 -0.01359583 0.02703224
v -0.008 -0.02 0.01636892
v 0.008 -0.02 0.01636892
v -0.008 -0.02 -0.02363108
v 0.008 -0.02 -0.02363108
v 0.024 -0.02 -0.03163108
v -0.024 -0.02 -0.03163108
v -0.024 0.01171321 -0.03163108
v -0.024 0.02 -0.03163108
v -0.008 0.02 -0.02363108
v -0.008 0.01171321 -0.02363108
v -0.024 -0.01171321 -0.03163108
v -0.008 -0.01171321 -0.02363108
v -0.024 -0.02 -0.03163108
v -0.008 -0.02 -0.02363108
v 0.008 0.01171321 -0.02363108
v 0.008 -0.01171321 -0.02363108
v 0.024 0.01171321 -0.03163108
v 0.024 0.02 -0.03163108
v 0.008 0.02 -0.02363108
v 0.024 -0.01171321 -0.03163108
v 0.008 -0.02 -0.02363108
v 0.024 -0.02 -0.03163108
v -0.024 -0.01171321 -0.03163108
v -0.024 -0.02 -0.03163108
v 0.024 -0.02 -0.03163108
v 0.024 -0.01171321 -0.03163108
v -0.024 0.01171321 -0.03163108
v 0.024 0.01171321 -0.03163108
v -0.024 0.02 -0.03163108
v 0.024 0.02 -0.03163108
v -0.008 0.02 -0.02363108
v -0.008 0.01171321 0.01636892
v -0.008 0.01171321 -0.02363108
v -0.008 0.02 0.01636892
v -0.008 0.008517387 0.02170559
v -0.008 0.01359583 0.02703224
v -0.008 -9.536744E-10 0.03292334
v -0.008 0 0.02517393
v -0.008 -0.01359583 0.02703224
v -0.008 -0.008517388 0.02170559
v -0.008 -0.01171321 0.01636892
v -0.008 -0.02 0.01636892
v -0.008 -0.01171321 -0.02363108
v -0.008 -0.02 -0.02363108
v -0.008 0.01171321 -0.02363108
v -0.008 0.01171321 0.01636892
v 0.008 0.01171321 0.01636892
v 0.008 0.01171321 -0.02363108
v 0.008 -0.01171321 -0.02363108
v 0.008 -0.01171321 0.01636892
v -0.008 -0.01171321 0.01636892
v -0.008 -0.01171321 -0.02363108
v 0.008 -0.01171321 0.01636892
v -0.008 -0.008517388 0.02170559
v -0.008 -0.01171321 0.01636892
v 0.008 -0.008517388 0.02170559
v 0.008 0 0.02517393
v -0.008 0 0.02517393
v -0.008 0.01171321 0.01636892
v 0.008 0.008517387 0.02170559
v 0.008 0.01171321 0.01636892
v -0.008 0.008517387 0.02170559
v -0.008 0 0.02517393
v 0.008 0 0.02517393
vt 0.1684687 0.1215594
vt 0.2880265 0.6986603
vt 0.2880265 0.1215594
vt 0.1684687 0.6986603
vt 0.3341343 0.7756554
vt 0.260865 0.8525056
vt 0.4570192 0.8256947
vt 0.4570192 0.9374996
vt 0.579904 0.7756553
vt 0.6531733 0.8525056
vt 0.6260119 0.6986603
vt 0.7455698 0.6986603
vt 0.6260121 0.1215592
vt 0.7455701 0.1215592
vt -0.1919797 1.602105
vt 0.5109687 1.602105
vt 0.2766525 1.484947
vt 0.04233641 1.484947
vt 0.04233638 0.8991563
vt 0.2766525 0.8991563
vt 0.04233638 0.7169955
vt 0.2766525 0.7169955
vt 0.2766525 0.5000001
vt 0.04233635 0.5000001
vt 0.2766525 0.2830048
vt 0.04233638 0.2830047
vt 0.04233638 0.1008438
vt 0.2766525 0.1008438
vt 0.04233638 -0.4849465
vt 0.2766525 -0.4849465
vt 0.5109686 -0.6021045
vt -0.1919799 -0.6021045
vt 0.5860275 0.9430957
vt 0.7119814 0.9430957
vt 0.7119814 0.6712012
vt 0.5860275 0.6712012
vt 0.2299606 0.9430959
vt 0.2299605 0.6712012
vt 0.1040066 0.9430959
vt 0.1040066 0.6712012
vt 0.5860274 0.4280112
vt 0.2299605 0.4280113
vt 0.5860274 0.1561166
vt 0.7119813 0.1561166
vt 0.7119814 0.4280112
vt 0.2299605 0.1561166
vt 0.1040066 0.4280113
vt 0.1040065 0.1561167
vt 0.125 0.7068397
vt 0.125 0.75
vt 0.375 0.75
vt 0.375 0.7068397
vt 0.125 0.5431603
vt 0.375 0.5431604
vt 0.125 0.5
vt 0.375 0.5
vt 0.06127459 0.117849
vt 0.182424 0.7026323
vt 0.182424 0.117849
vt 0.06127465 0.7026324
vt 0.2291457 0.7806522
vt 0.154901 0.8585256
vt 0.3536664 0.9446511
vt 0.3536664 0.831358
vt 0.5524317 0.8585258
vt 0.478187 0.7806522
vt 0.5249087 0.7026324
vt 0.6460582 0.7026324
vt 0.5249089 0.117849
vt 0.6460583 0.117849
vt 0.248833 1.284832
vt 0.248833 0.6970246
vt 0.01371001 0.6970246
vt 0.01371 1.284832
vt 0.01370997 -0.2897537
vt 0.01371001 0.2980538
vt 0.248833 0.2980538
vt 0.2488329 -0.2897537
vt 0.08060493 0.5950898
vt 0.1720148 0.3999886
vt 0.08060493 0.3999886
vt 0.1720149 0.5950898
vt 0.3071589 0.5950898
vt 0.3071589 0.3999886
vt 0.4795757 0.3999886
vt 0.3881655 0.5950898
vt 0.4795758 0.5950898
vt 0.3881655 0.3999886
vt 0.2530217 0.3999886
vt 0.2530217 0.5950898
vn 1 0 0
vn 1 0 0
vn 1 0 0
vn 1 0 0
vn 1 0 0
vn 1 0 0
vn 1 0 0
vn 1 0 0
vn 1 0 0
vn 1 0 0
vn 1 0 0
vn 1 0 0
vn 1 0 0
vn 1 0 0
vn 0 1 0
vn 0 1 0
vn 0 1 0
vn 0 1 0
vn 0 0.9636581 0.2671389
vn 0 0.9636581 0.2671389
vn 0 0.6589456 0.7521907
vn 0 0.6589456 0.7521907
vn 0 0 1
vn 0 0 1
vn 0 -0.6589456 0.7521906
vn 0 -0.6589456 0.7521906
vn 0 -0.9636581 0.2671388
vn 0 -0.9636581 0.2671388
vn 0 -1 0
vn 0 -1 0
vn 0 -1 0
vn 0 -1 0
vn -0.4472135 0 0.8944273
vn -0.4472135 0 0.8944273
vn -0.4472135 0 0.8944273
vn -0.3053931 0 0.9522264
vn -0.4472135 0 0.8944273
vn -0.3053931 0 0.9522264
vn -0.4472135 0 0.8944273
vn -0.4472135 0 0.8944273
vn 0.3053931 0 0.9522264
vn 0.3053931 0 0.9522264
vn 0.4472135 0 0.8944273
vn 0.4472135 0 0.8944273
vn 0.4472135 0 0.8944273
vn 0.4472135 0 0.8944273
vn 0.4472135 0 0.8944273
vn 0.4472135 0 0.8944273
vn 0 0 -1
vn 0 0 -1
vn 0 0 -1
vn 0 0 -1
vn 0 0 -1
vn 0 0 -1
vn 0 0 -1
vn 0 0 -1
vn -1 0 0
vn -1 0 0
vn -1 0 0
vn -1 0 0
vn -1 0 0
vn -1 0 0
vn -1 0 0
vn -1 0 0
vn -1 0 0
vn -1 0 0
vn -1 0 0
vn -1 0 0
vn -1 0 0
vn -1 0 0
vn 0 -1 0
vn 0 -0.9638285 -0.2665231
vn 0 -0.9638285 -0.2665231
vn 0 -1 0
vn 0 1 0
vn 0 0.9638286 -0.266523
vn 0 0.9638286 -0.266523
vn 0 1 0
vn 0 0.9638286 -0.266523
vn 0 0.6510495 -0.7590353
vn 0 0.9638286 -0.266523
vn 0 0.6510495 -0.7590353
vn 0 0 -1
vn 0 0 -1
vn 0 -0.9638285 -0.2665231
vn 0 -0.6510493 -0.7590354
vn 0 -0.9638285 -0.2665231
vn 0 -0.6510493 -0.7590354
vn 0 0 -1
vn 0 0 -1
g Cube.007_0
f 3/3/3 2/2/2 1/1/1
f 2/2/2 4/4/4 1/1/1
f 2/2/2 5/5/5 4/4/4
f 5/5/5 6/6/6 4/4/4
f 6/6/6 5/5/5 7/7/7
f 8/8/8 6/6/6 7/7/7
f 8/8/8 7/7/7 9/9/9
f 10/10/10 8/8/8 9/9/9
f 10/10/10 9/9/9 11/11/11
f 12/12/12 10/10/10 11/11/11
f 12/12/12 11/11/11 13/13/13
f 14/14/14 12/12/12 13/13/13
f 17/17/17 16/16/16 15/15/15
f 18/18/18 17/17/17 15/15/15
f 18/18/18 19/19/19 17/17/17
f 19/19/19 20/20/20 17/17/17
f 19/19/19 21/21/21 20/20/20
f 21/21/21 22/22/22 20/20/20
f 23/23/23 22/22/22 21/21/21
f 24/24/24 23/23/23 21/21/21
f 25/25/25 23/23/23 24/24/24
f 26/26/26 25/25/25 24/24/24
f 25/25/25 26/26/26 27/27/27
f 28/28/28 25/25/25 27/27/27
f 28/28/28 27/27/27 29/29/29
f 30/30/30 28/28/28 29/29/29
f 30/30/30 29/29/29 31/31/31
f 29/29/29 32/32/32 31/31/31
f 35/35/35 34/34/34 33/33/33
f 36/36/36 35/35/35 33/33/33
f 33/33/33 37/37/37 36/36/36
f 37/37/37 38/38/38 36/36/36
f 38/38/38 37/37/37 39/39/39
f 40/40/40 38/38/38 39/39/39
f 41/41/41 36/36/36 38/38/38
f 42/42/42 41/41/41 38/38/38
f 43/43/43 41/41/41 42/42/42
f 41/41/41 43/43/43 44/44/44
f 45/45/45 41/41/41 44/44/44
f 46/46/46 43/43/43 42/42/42
f 42/42/42 47/47/47 46/46/46
f 47/47/47 48/48/48 46/46/46
f 51/51/51 50/50/50 49/49/49
f 52/52/52 51/51/51 49/49/49
f 49/49/49 53/53/53 52/52/52
f 53/53/53 54/54/54 52/52/52
f 54/54/54 53/53/53 55/55/55
f 56/56/56 54/54/54 55/55/55
f 59/59/59 58/58/58 57/57/57
f 58/58/58 60/60/60 57/57/57
f 58/58/58 61/61/61 60/60/60
f 61/61/61 62/62/62 60/60/60
f 62/62/62 61/61/61 63/63/63
f 61/61/61 64/64/64 63/63/63
f 63/63/63 64/64/64 65/65/65
f 64/64/64 66/66/66 65/65/65
f 65/65/65 66/66/66 67/67/67
f 68/68/68 65/65/65 67/67/67
f 68/68/68 67/67/67 69/69/69
f 70/70/70 68/68/68 69/69/69
f 73/73/73 72/72/72 71/71/71
f 74/74/74 73/73/73 71/71/71
f 77/77/77 76/76/76 75/75/75
f 78/78/78 77/77/77 75/75/75
f 81/81/81 80/80/80 79/79/79
f 80/80/80 82/82/82 79/79/79
f 83/83/83 82/82/82 80/80/80
f 84/84/84 83/83/83 80/80/80
f 87/87/87 86/86/86 85/85/85
f 86/86/86 88/88/88 85/85/85
f 88/88/88 86/86/86 89/89/89
f 86/86/86 90/90/90 89/89/89
