g Cube.009
v -0.0025 0.0094 -0.01777693
v 0.0025 0.0067 -0.01777693
v 0.0025 0.0094 -0.01777693
v -0.0025 0.006699999 -0.01777693
v 0.0025 1.862645E-10 -0.01777693
v -0.0025 -2.980232E-10 -0.01777693
v 0.0025 -0.0067 -0.01777693
v -0.0025 -0.0067 -0.01777693
v 0.0025 -0.009400001 -0.01777693
v -0.0025 -0.009400001 -0.01777693
v -0.0025 0.0094 -0.01777693
v 0.0025 0.0094 -0.01777693
v 0.0025 0.0094 0.01472307
v -0.0025 0.0094 0.01472307
v -0.0025 0.007 0.01872307
v 0.0025 0.006999999 0.01872307
v -0.0025 1.862645E-10 0.02152307
v 0.0025 -2.980232E-10 0.02152307
v 0.0025 -2.980232E-10 0.02152307
v -0.0025 -0.007 0.01872307
v -0.0025 1.862645E-10 0.02152307
v 0.0025 -0.007 0.01872307
v -0.0025 -0.009400001 0.01472307
v 0.0025 -0.009400001 0.01472307
v 0.0025 -0.009400001 -0.01777693
v -0.0025 -0.009400001 -0.01777693
v 0.0025 0.006999999 0.01872307
v 0.003 -3.352761E-10 0.02088741
v 0.0025 -2.980232E-10 0.02152307
v 0.003 0.00699476 0.01808562
v 0.0025 0.0094 0.01472307
v 0.003 -0.006994761 0.01808562
v 0.0025 -0.007 0.01872307
v 0.003 0.0089 0.01489769
v 0.0025 0.0094 -0.01777693
v 0.003 0.0089 -0.01727694
v 0.0025 0.0067 -0.01777693
v 0.003 0.00670411 -0.01727694
v 0.0025 1.862645E-10 -0.01777693
v 0.003 2.421439E-10 -0.01727694
v 0.0025 -0.0067 -0.01777693
v 0.003 -0.00670411 -0.01727694
v 0.0025 -0.009400001 -0.01777693
v 0.003 -0.008900001 0.01489769
v 0.0025 -0.009400001 0.01472307
v 0.003 -0.008900001 -0.01727694
v -0.0025 -0.007 0.01872307
v -0.003 2.235174E-10 0.02088741
v -0.0025 1.862645E-10 0.02152307
v -0.003 -0.006994761 0.01808562
v -0.0025 -0.009400001 0.01472307
v -0.003 0.006994761 0.01808562
v -0.0025 0.007 0.01872307
v -0.003 -0.008900001 0.01489769
v -0.0025 -0.009400001 -0.01777693
v -0.003 -0.008900001 -0.01727694
v -0.0025 -0.0067 -0.01777693
v -0.003 -0.00670411 -0.01727694
v -0.0025 -2.980232E-10 -0.01777693
v -0.003 -3.539026E-10 -0.01727694
v -0.0025 0.006699999 -0.01777693
v -0.003 0.006704109 -0.01727694
v -0.0025 0.0094 -0.01777693
v -0.003 0.0089 0.01489769
v -0.0025 0.0094 0.01472307
v -0.003 0.0089 -0.01727694
vt 0.6144326 0.01890148
vt 0.7220513 0.07701556
vt 0.7220513 0.01890148
vt 0.6144326 0.07701557
vt 0.7220513 0.2212246
vt 0.6144326 0.2212246
vt 0.7220513 0.3654336
vt 0.6144326 0.3654337
vt 0.7220513 0.4235477
vt 0.6144326 0.4235477
vt 0.5766296 0.01890148
vt 0.4690109 0.01890145
vt 0.4690109 0.7184228
vt 0.5766295 0.7184228
vt 0.5766295 0.818826
vt 0.4690108 0.818826
vt 0.5766295 0.9810984
vt 0.4690108 0.9810984
vt 0.4312077 0.9810985
vt 0.323589 0.8188261
vt 0.323589 0.9810985
vt 0.4312077 0.8188261
vt 0.3235891 0.718423
vt 0.4312077 0.718423
vt 0.4312078 0.01890151
vt 0.3235892 0.01890151
vt 0.693877 0.9125042
vt 0.5216092 0.9644217
vt 0.5218785 0.9847454
vt 0.6894701 0.8930125
vt 0.7532467 0.8173143
vt 0.3519153 0.8974847
vt 0.3480264 0.9170862
vt 0.7349463 0.8191478
vt 0.7532467 0.0283732
vt 0.7361752 0.04330469
vt 0.6837109 0.01865535
vt 0.6822963 0.0373797
vt 0.5090339 0.01525454
vt 0.5092772 0.03361221
vt 0.3345084 0.02328184
vt 0.3364187 0.04196214
vt 0.2652545 0.0348386
vt 0.3044983 0.8248507
vt 0.2861557 0.8235028
vt 0.2827156 0.04931252
vt 0.662627 0.9125041
vt 0.4903591 0.9644217
vt 0.4906284 0.9847454
vt 0.6582201 0.8930125
vt 0.7219967 0.8173143
vt 0.3206653 0.8974847
vt 0.3167764 0.9170862
vt 0.7036962 0.8191478
vt 0.7219967 0.02837325
vt 0.7049252 0.04330471
vt 0.652461 0.01865536
vt 0.6510463 0.0373797
vt 0.477784 0.0152545
vt 0.4780273 0.03361217
vt 0.3032584 0.02328179
vt 0.3051687 0.04196212
vt 0.2340045 0.03483844
vt 0.2732483 0.8248508
vt 0.2549057 0.8235028
vt 0.2514656 0.04931247
vn -0.3913642 0.6507051 -0.6507049
vn 0.3826828 0 -0.9238798
vn 0.3913638 0.6507051 -0.6507052
vn -0.3826829 0 -0.9238798
vn 0.3826829 0 -0.9238797
vn -0.3826826 0 -0.9238799
vn 0.3826832 0 -0.9238796
vn -0.3826832 0 -0.9238796
vn 0.3913642 -0.6507051 -0.6507049
vn -0.3913642 -0.6507051 -0.6507049
vn -0.3913642 0.6507051 -0.6507049
vn 0.3913638 0.6507051 -0.6507052
vn 0.3403584 0.9121633 0.2282849
vn -0.3403586 0.9121633 0.2282849
vn -0.3675448 0.5787187 0.728008
vn 0.3675444 0.5787186 0.7280081
vn -0.4013561 0 0.9159221
vn 0.401356 1.105626E-07 0.9159222
vn 0.401356 1.105626E-07 0.9159222
vn -0.3675447 -0.5787186 0.728008
vn -0.4013561 0 0.9159221
vn 0.3675447 -0.5787186 0.728008
vn -0.3403584 -0.9121634 0.228285
vn 0.3403584 -0.9121634 0.228285
vn 0.3913642 -0.6507051 -0.6507049
vn -0.3913642 -0.6507051 -0.6507049
vn 0.3675444 0.5787186 0.7280081
vn 0.9194724 1.20445E-07 0.3931546
vn 0.401356 1.105626E-07 0.9159222
vn 0.8757017 0.3592892 0.3225796
vn 0.3403584 0.9121633 0.2282849
vn 0.8757019 -0.3592891 0.3225793
vn 0.3675447 -0.5787186 0.728008
vn 0.8734971 0.4562733 0.1697571
vn 0.3913638 0.6507051 -0.6507052
vn 0.9054102 0.3001935 -0.3001939
vn 0.3826828 0 -0.9238798
vn 0.9238793 0 -0.382684
vn 0.3826829 0 -0.9238797
vn 0.9238793 0 -0.3826839
vn 0.3826832 0 -0.9238796
vn 0.9238794 0 -0.3826838
vn 0.3913642 -0.6507051 -0.6507049
vn 0.8734971 -0.4562733 0.1697571
vn 0.3403584 -0.9121634 0.228285
vn 0.9054103 -0.3001934 -0.3001935
vn -0.3675447 -0.5787186 0.728008
vn -0.9194725 0 0.3931542
vn -0.4013561 0 0.9159221
vn -0.8757019 -0.3592891 0.3225794
vn -0.3403584 -0.9121634 0.228285
vn -0.8757021 0.3592889 0.3225792
vn -0.3675448 0.5787187 0.728008
vn -0.8734971 -0.4562733 0.1697571
vn -0.3913642 -0.6507051 -0.6507049
vn -0.9054103 -0.3001934 -0.3001936
vn -0.3826832 0 -0.9238796
vn -0.9238794 0 -0.3826838
vn -0.3826826 0 -0.9238799
vn -0.9238791 0 -0.3826844
vn -0.3826829 0 -0.9238798
vn -0.9238792 0 -0.3826841
vn -0.3913642 0.6507051 -0.6507049
vn -0.8734973 0.456273 0.1697569
vn -0.3403586 0.9121633 0.2282849
vn -0.9054103 0.3001934 -0.3001935
g Cube.009_0
f 3/3/3 2/2/2 1/1/1
f 2/2/2 4/4/4 1/1/1
f 2/2/2 5/5/5 4/4/4
f 5/5/5 6/6/6 4/4/4
f 5/5/5 7/7/7 6/6/6
f 7/7/7 8/8/8 6/6/6
f 7/7/7 9/9/9 8/8/8
f 9/9/9 10/10/10 8/8/8
f 13/13/13 12/12/12 11/11/11
f 14/14/14 13/13/13 11/11/11
f 14/14/14 15/15/15 13/13/13
f 15/15/15 16/16/16 13/13/13
f 15/15/15 17/17/17 16/16/16
f 17/17/17 18/18/18 16/16/16
f 21/21/21 20/20/20 19/19/19
f 20/20/20 22/22/22 19/19/19
f 20/20/20 23/23/23 22/22/22
f 23/23/23 24/24/24 22/22/22
f 24/24/24 23/23/23 25/25/25
f 23/23/23 26/26/26 25/25/25
f 29/29/29 28/28/28 27/27/27
f 28/28/28 30/30/30 27/27/27
f 27/27/27 30/30/30 31/31/31
f 32/32/32 28/28/28 29/29/29
f 33/33/33 32/32/32 29/29/29
f 30/30/30 34/34/34 31/31/31
f 35/35/35 31/31/31 34/34/34
f 36/36/36 35/35/35 34/34/34
f 34/34/34 30/30/30 36/36/36
f 35/35/35 36/36/36 37/37/37
f 30/30/30 38/38/38 36/36/36
f 36/36/36 38/38/38 37/37/37
f 30/30/30 28/28/28 38/38/38
f 37/37/37 38/38/38 39/39/39
f 28/28/28 40/40/40 38/38/38
f 38/38/38 40/40/40 39/39/39
f 28/28/28 32/32/32 40/40/40
f 39/39/39 40/40/40 41/41/41
f 40/40/40 42/42/42 41/41/41
f 32/32/32 42/42/42 40/40/40
f 41/41/41 42/42/42 43/43/43
f 44/44/44 32/32/32 33/33/33
f 32/32/32 44/44/44 42/42/42
f 45/45/45 44/44/44 33/33/33
f 43/43/43 46/46/46 45/45/45
f 42/42/42 46/46/46 43/43/43
f 44/44/44 46/46/46 42/42/42
f 46/46/46 44/44/44 45/45/45
f 49/49/49 48/48/48 47/47/47
f 48/48/48 50/50/50 47/47/47
f 47/47/47 50/50/50 51/51/51
f 52/52/52 48/48/48 49/49/49
f 53/53/53 52/52/52 49/49/49
f 50/50/50 54/54/54 51/51/51
f 51/51/51 54/54/54 55/55/55
f 54/54/54 56/56/56 55/55/55
f 54/54/54 50/50/50 56/56/56
f 55/55/55 56/56/56 57/57/57
f 50/50/50 58/58/58 56/56/56
f 56/56/56 58/58/58 57/57/57
f 50/50/50 48/48/48 58/58/58
f 57/57/57 58/58/58 59/59/59
f 48/48/48 60/60/60 58/58/58
f 58/58/58 60/60/60 59/59/59
f 48/48/48 52/52/52 60/60/60
f 59/59/59 60/60/60 61/61/61
f 60/60/60 62/62/62 61/61/61
f 52/52/52 62/62/62 60/60/60
f 61/61/61 62/62/62 63/63/63
f 64/64/64 52/52/52 53/53/53
f 52/52/52 64/64/64 62/62/62
f 65/65/65 64/64/64 53/53/53
f 63/63/63 66/66/66 65/65/65
f 62/62/62 66/66/66 63/63/63
f 64/64/64 66/66/66 62/62/62
f 66/66/66 64/64/64 65/65/65
