g Cube.002
v -0.006548179 -1.738469E-10 -0.04519378
v -0.006548179 0.02 -0.04519378
v -0.006548179 0.02 0.03480622
v -0.006548179 -1.738469E-10 0.05480622
v -0.006548179 -0.02 -0.04519378
v -0.006548179 -0.02 0.03480622
v -0.006548179 0.02 -0.04519378
v 0.00345182 0.02 -0.04519378
v 0.00345182 0.02 0.03480622
v -0.006548179 0.02 0.03480622
v 0.00345182 -0.0165 0.03335647
v 0.0005038631 -0.01612057 0.0325568
v 0.0005038631 -0.01612058 -0.04076764
v 0.00345182 -0.0165 -0.04169378
v 0.00345182 -0.02 -0.04519378
v -0.006548179 -0.02 -0.04519378
v -0.006548179 -0.02 0.03480622
v 0.00345182 -0.02 0.03480622
v -0.006548179 -1.738469E-10 -0.04519378
v -0.006548179 -0.02 -0.04519378
v 0.00345182 -0.02 -0.04519378
v 0.00345182 -1.738469E-10 -0.04519378
v -0.006548179 0.02 -0.04519378
v 0.00345182 0.02 -0.04519378
v 0.00345182 -1.738469E-10 0.05480622
v 0.00345182 -0.02 0.03480622
v -0.006548179 -0.02 0.03480622
v -0.006548179 -1.738469E-10 0.05480622
v 0.00345182 0.02 0.03480622
v 0.00345182 -1.738469E-10 0.05480622
v -0.006548179 -1.738469E-10 0.05480622
v -0.006548179 0.02 0.03480622
v 0.00345182 0.0165 0.03335647
v 0.0005038631 0.01612057 0.0325568
v 0.0005038631 -1.738469E-10 0.04867737
v 0.00345182 -1.738469E-10 0.04985647
v 0.00345182 -1.738469E-10 -0.04169378
v 0.0005038631 0.01612058 -0.04076764
v 0.00345182 0.0165 -0.04169378
v 0.0005038631 -1.738469E-10 -0.04076764
v 0.00345182 -0.0165 -0.04169378
v 0.0005038631 -0.01612058 -0.04076764
v 0.00345182 -1.738469E-10 0.04985647
v 0.0005038631 -1.738469E-10 0.04867737
v 0.0005038631 -0.01612057 0.0325568
v 0.00345182 -0.0165 0.03335647
v 0.00345182 0.0165 -0.04169378
v 0.0005038631 0.01612058 -0.04076764
v 0.0005038631 0.01612057 0.0325568
v 0.00345182 0.0165 0.03335647
v -0.001548179 -0.002 -0.04219377
v -0.001548179 0.002 -0.04219377
v -0.001548179 0.002 0.05080622
v -0.001548179 -0.002 0.05080622
v -0.001548179 0.002 -0.04219377
v 0.002451821 0.002 -0.04219377
v 0.002451821 0.002 0.05080622
v -0.001548179 0.002 0.05080622
v 0.002451821 0.002 -0.04219377
v 0.002451821 -0.002 -0.04219377
v 0.002451821 -0.002 0.05080622
v 0.002451821 0.002 0.05080622
v 0.002451821 -0.002 -0.04219377
v -0.001548179 -0.002 -0.04219377
v -0.001548179 -0.002 0.05080622
v 0.002451821 -0.002 0.05080622
v -0.001548179 0.002 -0.04219377
v -0.001548179 -0.002 -0.04219377
v 0.002451821 -0.002 -0.04219377
v 0.002451821 0.002 -0.04219377
v 0.002451821 0.002 0.05080622
v 0.002451821 -0.002 0.05080622
v -0.001548179 -0.002 0.05080622
v -0.001548179 0.002 0.05080622
v -0.002548178 -0.01799999 -0.01219378
v -0.002548178 -0.01799999 -0.01619378
v -0.002548178 0.018 -0.01619378
v -0.002548178 0.018 -0.01219378
v -0.002548178 -0.01799999 -0.01619378
v 0.00145182 -0.01799999 -0.01619378
v 0.00145182 0.018 -0.01619378
v -0.002548178 0.018 -0.01619378
v 0.00145182 -0.01799999 -0.01619378
v 0.00145182 -0.01799999 -0.01219378
v 0.00145182 0.018 -0.01219378
v 0.00145182 0.018 -0.01619378
v 0.00145182 -0.01799999 -0.01219378
v -0.002548178 -0.01799999 -0.01219378
v -0.002548178 0.018 -0.01219378
v 0.00145182 0.018 -0.01219378
v -0.002548178 -0.01799999 -0.01619378
v -0.002548178 -0.01799999 -0.01219378
v 0.00145182 -0.01799999 -0.01219378
v 0.00145182 -0.01799999 -0.01619378
v 0.00145182 0.018 -0.01619378
v 0.00145182 0.018 -0.01219378
v -0.002548178 0.018 -0.01219378
v -0.002548178 0.018 -0.01619378
v -0.002548178 -0.01799999 0.01680622
v -0.002548178 -0.01799999 0.01280622
v -0.002548178 0.018 0.01280622
v -0.002548178 0.018 0.01680622
v -0.002548178 -0.01799999 0.01280622
v 0.00145182 -0.01799999 0.01280622
v 0.00145182 0.018 0.01280622
v -0.002548178 0.018 0.01280622
v 0.00145182 -0.01799999 0.01280622
v 0.00145182 -0.01799999 0.01680622
v 0.00145182 0.018 0.01680622
v 0.00145182 0.018 0.01280622
v 0.00145182 -0.01799999 0.01680622
v -0.002548178 -0.01799999 0.01680622
v -0.002548178 0.018 0.01680622
v 0.00145182 0.018 0.01680622
v -0.002548178 -0.01799999 0.01280622
v -0.002548178 -0.01799999 0.01680622
v 0.00145182 -0.01799999 0.01680622
v 0.00145182 -0.01799999 0.01280622
v 0.00145182 0.018 0.01280622
v 0.00145182 0.018 0.01680622
v -0.002548178 0.018 0.01680622
v -0.002548178 0.018 0.01280622
v 0.00345182 -0.0165 -0.04169378
v 0.00345182 -0.02 -0.04519378
v 0.00345182 -0.02 0.03480622
v 0.00345182 -0.0165 0.03335647
v 0.00345182 -1.738469E-10 -0.04169378
v 0.00345182 -1.738469E-10 0.05480622
v 0.00345182 -1.738469E-10 -0.04519378
v 0.00345182 -1.738469E-10 0.04985647
v 0.00345182 0.0165 -0.04169378
v 0.00345182 0.02 0.03480622
v 0.00345182 0.02 -0.04519378
v 0.00345182 0.0165 0.03335647
v 0.0005038631 -1.738469E-10 -0.04076764
v 0.0005038631 -0.01612058 -0.04076764
v 0.0005038631 -0.01612057 0.0325568
v 0.0005038631 -1.738469E-10 0.04867737
v 0.0005038631 0.01612058 -0.04076764
v 0.0005038631 0.01612057 0.0325568
vt 0.5 0.5
vt 0.5 0.5
vt 0.5 0.5
vt 0.5 0.5
vt 0.5 0.5
vt 0.5 0.5
vt 0.5 0.5
vt 0.5 0.5
vt 0.5 0.5
vt 0.5 0.5
vt 0.5 0.5
vt 0.5 0.5
vt 0.5 0.5
vt 0.5 0.5
vt 0.5 0.5
vt 0.5 0.5
vt 0.5 0.5
vt 0.5 0.5
vt 0.5 0.5
vt 0.5 0.5
vt 0.5 0.5
vt 0.5 0.5
vt 0.5 0.5
vt 0.5 0.5
vt 0.5 0.5
vt 0.5 0.5
vt 0.5 0.5
vt 0.5 0.5
vt 0.5 0.5
vt 0.5 0.5
vt 0.5 0.5
vt 0.5 0.5
vt 0.5 0.5
vt 0.5 0.5
vt 0.5 0.5
vt 0.5 0.5
vt 0.5 0.5
vt 0.5 0.5
vt 0.5 0.5
vt 0.5 0.5
vt 0.5 0.5
vt 0.5 0.5
vt 0.5 0.5
vt 0.5 0.5
vt 0.5 0.5
vt 0.5 0.5
vt 0.5 0.5
vt 0.5 0.5
vt 0.5 0.5
vt 0.5 0.5
vt 0.5 0.5
vt 0.5 0.5
vt 0.5 0.5
vt 0.5 0.5
vt 0.5 0.5
vt 0.5 0.5
vt 0.5 0.5
vt 0.5 0.5
vt 0.5 0.5
vt 0.5 0.5
vt 0.5 0.5
vt 0.5 0.5
vt 0.5 0.5
vt 0.5 0.5
vt 0.5 0.5
vt 0.5 0.5
vt 0.5 0.5
vt 0.5 0.5
vt 0.5 0.5
vt 0.5 0.5
vt 0.5 0.5
vt 0.5 0.5
vt 0.5 0.5
vt 0.5 0.5
vt 0.5 0.5
vt 0.5 0.5
vt 0.5 0.5
vt 0.5 0.5
vt 0.5 0.5
vt 0.5 0.5
vt 0.5 0.5
vt 0.5 0.5
vt 0.5 0.5
vt 0.5 0.5
vt 0.5 0.5
vt 0.5 0.5
vt 0.5 0.5
vt 0.5 0.5
vt 0.5 0.5
vt 0.5 0.5
vt 0.5 0.5
vt 0.5 0.5
vt 0.5 0.5
vt 0.5 0.5
vt 0.5 0.5
vt 0.5 0.5
vt 0.5 0.5
vt 0.5 0.5
vt 0.5 0.5
vt 0.5 0.5
vt 0.5 0.5
vt 0.5 0.5
vt 0.5 0.5
vt 0.5 0.5
vt 0.5 0.5
vt 0.5 0.5
vt 0.5 0.5
vt 0.5 0.5
vt 0.5 0.5
vt 0.5 0.5
vt 0.5 0.5
vt 0.5 0.5
vt 0.5 0.5
vt 0.5 0.5
vt 0.5 0.5
vt 0.5 0.5
vt 0.5 0.5
vt 0.5 0.5
vt 0.5 0.5
vt 0.5 0.5
vt 0.5 0.5
vt 0.5 0.5
vt 0.5 0.5
vt 0.5 0.5
vt 0.5 0.5
vt 0.5 0.5
vt 0.5 0.5
vt 0.5 0.5
vt 0.5 0.5
vt 0.5 0.5
vt 0.5 0.5
vt 0.5 0.5
vt 0.5 0.5
vt 0.5 0.5
vt 0.5 0.5
vt 0.5 0.5
vt 0.5 0.5
vt 0.5 0.5
vt 0.5 0.5
vt 0.5 0.5
vn -1 0 0
vn -1 0 0
vn -1 0 0
vn -1 0 0
vn -1 0 0
vn -1 0 0
vn 0 1 0
vn 0 1 0
vn 0 1 0
vn 0 1 0
vn 0.1276549 0.9918187 0
vn 0.1276549 0.9918187 0
vn 0.1276549 0.9918187 0
vn 0.1276549 0.9918187 0
vn 0 -1 0
vn 0 -1 0
vn 0 -1 0
vn 0 -1 0
vn 0 0 -1
vn 0 0 -1
vn 0 0 -1
vn 0 0 -1
vn 0 0 -1
vn 0 0 -1
vn 0 -0.7071068 0.7071068
vn 0 -0.7071068 0.7071068
vn 0 -0.7071068 0.7071068
vn 0 -0.7071068 0.7071068
vn 0 0.7071068 0.7071068
vn 0 0.7071068 0.7071068
vn 0 0.7071068 0.7071068
vn 0 0.7071068 0.7071068
vn 0.2721472 -0.6804175 -0.6804175
vn 0.2721472 -0.6804175 -0.6804175
vn 0.2721472 -0.6804175 -0.6804175
vn 0.2721472 -0.6804175 -0.6804175
vn 0.2997223 0 0.9540265
vn 0.2997223 0 0.9540265
vn 0.2997223 0 0.9540265
vn 0.2997223 0 0.9540265
vn 0.2997223 0 0.9540265
vn 0.2997223 0 0.9540265
vn 0.2721472 0.6804175 -0.6804175
vn 0.2721472 0.6804175 -0.6804175
vn 0.2721472 0.6804175 -0.6804175
vn 0.2721472 0.6804175 -0.6804175
vn 0.1276549 -0.9918187 0
vn 0.1276549 -0.9918187 0
vn 0.1276549 -0.9918187 0
vn 0.1276549 -0.9918187 0
vn -1 0 0
vn -1 0 0
vn -1 0 0
vn -1 0 0
vn 0 1 0
vn 0 1 0
vn 0 1 0
vn 0 1 0
vn 1 0 0
vn 1 0 0
vn 1 0 0
vn 1 0 0
vn 0 -1 0
vn 0 -1 0
vn 0 -1 0
vn 0 -1 0
vn 0 0 -1
vn 0 0 -1
vn 0 0 -1
vn 0 0 -1
vn 0 0 1
vn 0 0 1
vn 0 0 1
vn 0 0 1
vn -1 0 0
vn -1 0 0
vn -1 0 0
vn -1 0 0
vn 0 -1.324548E-07 -1
vn 0 -1.324548E-07 -1
vn 0 -1.324548E-07 -1
vn 0 -1.324548E-07 -1
vn 1 0 0
vn 1 0 0
vn 1 0 0
vn 1 0 0
vn 0 0 1
vn 0 0 1
vn 0 0 1
vn 0 0 1
vn 0 -1 0
vn 0 -1 0
vn 0 -1 0
vn 0 -1 0
vn 0 1 0
vn 0 1 0
vn 0 1 0
vn 0 1 0
vn -1 0 0
vn -1 0 0
vn -1 0 0
vn -1 0 0
vn 0 -1.324548E-07 -1
vn 0 -1.324548E-07 -1
vn 0 -1.324548E-07 -1
vn 0 -1.324548E-07 -1
vn 1 0 0
vn 1 0 0
vn 1 0 0
vn 1 0 0
vn 0 1.324548E-07 1
vn 0 1.324548E-07 1
vn 0 1.324548E-07 1
vn 0 1.324548E-07 1
vn 0 -1 0
vn 0 -1 0
vn 0 -1 0
vn 0 -1 0
vn 0 1 0
vn 0 1 0
vn 0 1 0
vn 0 1 0
vn 1 0 0
vn 1 0 0
vn 1 0 0
vn 1 0 0
vn 1 0 0
vn 1 0 0
vn 1 0 0
vn 1 0 0
vn 1 0 0
vn 1 0 0
vn 1 0 0
vn 1 0 0
vn 1 0 0
vn 1 0 0
vn 1 0 0
vn 1 0 0
vn 1 0 0
vn 1 0 0
g Cube.002_0
f 3/3/3 2/2/2 1/1/1
f 4/4/4 3/3/3 1/1/1
f 4/4/4 1/1/1 5/5/5
f 6/6/6 4/4/4 5/5/5
f 9/9/9 8/8/8 7/7/7
f 10/10/10 9/9/9 7/7/7
f 13/13/13 12/12/12 11/11/11
f 14/14/14 13/13/13 11/11/11
f 17/17/17 16/16/16 15/15/15
f 18/18/18 17/17/17 15/15/15
f 21/21/21 20/20/20 19/19/19
f 22/22/22 21/21/21 19/19/19
f 22/22/22 19/19/19 23/23/23
f 24/24/24 22/22/22 23/23/23
f 27/27/27 26/26/26 25/25/25
f 28/28/28 27/27/27 25/25/25
f 31/31/31 30/30/30 29/29/29
f 32/32/32 31/31/31 29/29/29
f 35/35/35 34/34/34 33/33/33
f 36/36/36 35/35/35 33/33/33
f 39/39/39 38/38/38 37/37/37
f 38/38/38 40/40/40 37/37/37
f 37/37/37 40/40/40 41/41/41
f 40/40/40 42/42/42 41/41/41
f 45/45/45 44/44/44 43/43/43
f 46/46/46 45/45/45 43/43/43
f 49/49/49 48/48/48 47/47/47
f 50/50/50 49/49/49 47/47/47
f 53/53/53 52/52/52 51/51/51
f 54/54/54 53/53/53 51/51/51
f 57/57/57 56/56/56 55/55/55
f 58/58/58 57/57/57 55/55/55
f 61/61/61 60/60/60 59/59/59
f 62/62/62 61/61/61 59/59/59
f 65/65/65 64/64/64 63/63/63
f 66/66/66 65/65/65 63/63/63
f 69/69/69 68/68/68 67/67/67
f 70/70/70 69/69/69 67/67/67
f 73/73/73 72/72/72 71/71/71
f 74/74/74 73/73/73 71/71/71
f 77/77/77 76/76/76 75/75/75
f 78/78/78 77/77/77 75/75/75
f 81/81/81 80/80/80 79/79/79
f 82/82/82 81/81/81 79/79/79
f 85/85/85 84/84/84 83/83/83
f 86/86/86 85/85/85 83/83/83
f 89/89/89 88/88/88 87/87/87
f 90/90/90 89/89/89 87/87/87
f 93/93/93 92/92/92 91/91/91
f 94/94/94 93/93/93 91/91/91
f 97/97/97 96/96/96 95/95/95
f 98/98/98 97/97/97 95/95/95
f 101/101/101 100/100/100 99/99/99
f 102/102/102 101/101/101 99/99/99
f 105/105/105 104/104/104 103/103/103
f 106/106/106 105/105/105 103/103/103
f 109/109/109 108/108/108 107/107/107
f 110/110/110 109/109/109 107/107/107
f 113/113/113 112/112/112 111/111/111
f 114/114/114 113/113/113 111/111/111
f 117/117/117 116/116/116 115/115/115
f 118/118/118 117/117/117 115/115/115
f 121/121/121 120/120/120 119/119/119
f 122/122/122 121/121/121 119/119/119
f 125/125/125 124/124/124 123/123/123
f 126/126/126 125/125/125 123/123/123
f 123/123/123 124/124/124 127/127/127
f 128/128/128 125/125/125 126/126/126
f 124/124/124 129/129/129 127/127/127
f 130/130/130 128/128/128 126/126/126
f 127/127/127 129/129/129 131/131/131
f 132/132/132 128/128/128 130/130/130
f 129/129/129 133/133/133 131/131/131
f 134/134/134 132/132/132 130/130/130
f 131/131/131 133/133/133 134/134/134
f 133/133/133 132/132/132 134/134/134
g Cube.002_1
f 137/137/137 136/136/136 135/135/135
f 138/138/138 137/137/137 135/135/135
f 138/138/138 135/135/135 139/139/139
f 140/140/140 138/138/138 139/139/139
