g Cube.012
v -0.009999999 -0.01 0.03999999
v -0.01 0.009999997 0.04
v 0.009999997 0.01 0.04000001
v 0.01 -0.01 0.04
v -0.007999999 -0.008 -0.04000001
v 0.01 -0.01 0.04
v 0.008000001 -0.007999998 -0.04
v -0.009999999 -0.01 0.03999999
v -0.01 0.009999997 0.04
v -0.008 0.008 -0.04
v 0.007999999 0.008000002 -0.03999999
v 0.009999997 0.01 0.04000001
v 0.01 -0.01 0.04
v 0.008000001 -0.007999998 -0.04
vt 0.5 0.125
vt 0.5 0.125
vt 0.5 0.125
vt 0.5 0.125
vt 0.8324065 0.1372309
vt 1.173312 0.8554519
vt 1.173312 0.1262611
vt 0.8324065 0.8691642
vt 0.4906473 0.8737389
vt 0.4906473 0.1408907
vt 0.1488881 0.1372311
vt 0.1488881 0.8691644
vt -0.1920178 0.8554519
vt -0.1920178 0.1262611
vn -4.768371E-07 -5.364419E-07 1
vn -4.768371E-07 -5.364419E-07 1
vn -4.768371E-07 -5.364419E-07 1
vn -4.768371E-07 -5.364419E-07 1
vn -0.7066651 -0.7066653 -0.0353333
vn 0.7066656 -0.7066649 -0.03533327
vn 0.7066651 -0.7066653 -0.03533327
vn -0.7066652 -0.7066653 -0.0353333
vn -0.7066651 0.7066654 -0.03533326
vn -0.7066656 0.706665 -0.03533326
vn 0.7066652 0.7066653 -0.03533322
vn 0.7066652 0.7066654 -0.03533323
vn 0.7066656 -0.7066649 -0.03533327
vn 0.7066651 -0.7066653 -0.03533327
g Cube.012_0
f 3/3/3 2/2/2 1/1/1
f 4/4/4 3/3/3 1/1/1
f 7/7/7 6/6/6 5/5/5
f 6/6/6 8/8/8 5/5/5
f 5/5/5 8/8/8 9/9/9
f 10/10/10 5/5/5 9/9/9
f 11/11/11 10/10/10 9/9/9
f 12/12/12 11/11/11 9/9/9
f 12/12/12 13/13/13 11/11/11
f 13/13/13 14/14/14 11/11/11
