g Cube.017
v -0.009133635 0.01167714 0.02528962
v -0.009133635 0.009635371 0.02188667
v -0.009133637 0.01303832 0.02528962
v -0.009133635 0.009635371 0.02324785
v -0.009133635 0.009635371 0.0273314
v -0.009133633 0.00623242 0.02528962
v -0.009133635 0.009635371 0.02869257
v -0.009133634 0.007593601 0.02528962
v 0.009153862 0.01167715 0.02528962
v 0.009153862 0.009635379 0.02869257
v 0.009153861 0.01303833 0.02528962
v 0.009153862 0.009635379 0.0273314
v 0.009153862 0.009635379 0.02324785
v 0.009153864 0.006232427 0.02528962
v 0.009153862 0.009635379 0.02188667
v 0.009153862 0.007593608 0.02528962
v 0.009153862 0.009635379 0.02188667
v -0.009133637 0.01303832 0.02528962
v -0.009133635 0.009635371 0.02188667
v 0.009153861 0.01303833 0.02528962
v 0.009153864 0.006232427 0.02528962
v -0.009133635 0.009635371 0.02869257
v -0.009133633 0.00623242 0.02528962
v 0.009153862 0.009635379 0.02869257
v 0.009153862 0.01167715 0.02528962
v 0.009153862 0.009635379 0.02324785
v 0.01050136 0.00963538 0.02528962
v 0.009153862 0.009635379 0.0273314
v 0.009153862 0.007593608 0.02528962
v -0.009133635 0.01167714 0.02528962
v -0.009133635 0.009635371 0.0273314
v -0.01048113 0.00963537 0.02528962
v -0.009133635 0.009635371 0.02324785
v -0.009133634 0.007593601 0.02528962
vt 0.5 0.6
vt 0.5 0.6
vt 0.5 0.6
vt 0.5 0.6
vt 0.5 0.6
vt 0.5 0.6
vt 0.5 0.6
vt 0.5 0.6
vt 0.5 0.6
vt 0.5 0.6
vt 0.5 0.6
vt 0.5 0.6
vt 0.5 0.6
vt 0.5 0.6
vt 0.5 0.6
vt 0.5 0.6
vt 0.5 0.6
vt 0.5 0.6
vt 0.5 0.6
vt 0.5 0.6
vt 0.5 0.6
vt 0.5 0.6
vt 0.5 0.6
vt 0.5 0.6
vt 0.5 0.6
vt 0.5 0.6
vt 0.5 0.6
vt 0.5 0.6
vt 0.5 0.6
vt 0.5 0.6
vt 0.5 0.6
vt 0.5 0.6
vt 0.5 0.6
vt 0.5 0.6
vn -1 -2.010613E-07 0
vn -1 -2.010613E-07 1.368405E-07
vn -1 -2.010613E-07 0
vn -1 -2.010613E-07 1.368404E-07
vn -1 0 -1.368408E-07
vn -1 0 0
vn -1 0 -1.368409E-07
vn -1 0 0
vn 1 6.031844E-07 0
vn 1 2.010616E-07 -1.368405E-07
vn 1 6.031845E-07 0
vn 1 2.010616E-07 -1.368405E-07
vn 1 6.031842E-07 1.368402E-07
vn 1 2.010613E-07 0
vn 1 6.031842E-07 1.368402E-07
vn 1 2.010613E-07 0
vn 0 -1.609891E-07 -1
vn -4.204045E-07 1 0
vn 0 0 -1
vn -4.204046E-07 1 0
vn 3.911174E-07 -1 0
vn 0 0 1
vn 3.911174E-07 -1 0
vn 0 -1.609891E-07 1
vn 0.8346224 0.5508225 0
vn 0.8346227 1.086407E-07 -0.5508221
vn 1 4.35917E-07 -1.775958E-07
vn 0.8346229 3.44029E-07 0.5508217
vn 0.8346227 -0.5508221 -2.716018E-07
vn -0.834623 0.5508217 0
vn -0.8346229 -1.086407E-07 0.5508218
vn -1 -6.942381E-07 0
vn -0.8346229 -1.810679E-07 -0.550822
vn -0.8346223 -0.5508226 -1.629609E-07
g Cube.017_0
f 3/3/3 2/2/2 1/1/1
f 2/2/2 4/4/4 1/1/1
f 3/3/3 1/1/1 5/5/5
f 2/2/2 6/6/6 4/4/4
f 7/7/7 3/3/3 5/5/5
f 6/6/6 8/8/8 4/4/4
f 7/7/7 5/5/5 8/8/8
f 6/6/6 7/7/7 8/8/8
f 11/11/11 10/10/10 9/9/9
f 10/10/10 12/12/12 9/9/9
f 11/11/11 9/9/9 13/13/13
f 10/10/10 14/14/14 12/12/12
f 15/15/15 11/11/11 13/13/13
f 14/14/14 16/16/16 12/12/12
f 15/15/15 13/13/13 16/16/16
f 14/14/14 15/15/15 16/16/16
f 19/19/19 18/18/18 17/17/17
f 18/18/18 20/20/20 17/17/17
f 19/19/19 17/17/17 21/21/21
f 18/18/18 22/22/22 20/20/20
f 23/23/23 19/19/19 21/21/21
f 22/22/22 24/24/24 20/20/20
f 21/21/21 24/24/24 23/23/23
f 24/24/24 22/22/22 23/23/23
g Cube.017_1
f 27/27/27 26/26/26 25/25/25
f 27/27/27 25/25/25 28/28/28
f 27/27/27 29/29/29 26/26/26
f 27/27/27 28/28/28 29/29/29
f 32/32/32 31/31/31 30/30/30
f 32/32/32 30/30/30 33/33/33
f 32/32/32 34/34/34 31/31/31
f 32/32/32 33/33/33 34/34/34
