g Cube.003
v 0.006645567 -0.009265445 -0.005688058
v -0.002522043 -0.005460791 -0.009964713
v -0.002522043 -0.005460791 0.01003529
v 0.006731211 -0.008098415 0.01431721
v 0.02837797 -0.005684995 -0.001376362
v 0.02837797 -0.005684995 0.00999362
v 0.007172105 -9.158349E-06 0.02088302
v -0.002522043 -0.005460791 0.01003529
v -0.003150998 6.032684E-06 0.01879382
v 0.006452082 0.008098057 0.01430005
v -0.002522045 0.005460791 0.01003528
v 0.02886331 -7.662016E-06 0.01549086
v 0.04003013 -0.001551875 0.002756754
v 0.04003013 -0.001551875 0.005860497
v 0.04003013 -4.768371E-09 0.002756754
v 0.04012257 -1.463291E-06 0.006907509
v 0.02837797 -4.172325E-09 -0.001376362
v 0.02837797 0.005684987 0.00999362
v 0.04003013 0.001551866 0.002756754
v 0.04003013 0.001551866 0.005860497
v 0.02837797 0.005684987 -0.001376362
v 0.00659166 0 -0.005691372
v 0.006537779 0.009265807 -0.005694685
v -0.002522045 0.005460791 -0.009964715
v -0.002522045 0.005460791 -0.009964715
v -0.002522045 0.005460791 0.01003528
v -0.002522044 0 -0.009964714
v -0.002522043 -0.005460791 -0.009964713
v -0.002522044 0 -0.009964714
v -0.003150998 6.032684E-06 0.01879382
v -0.002522043 -0.005460791 -0.009964713
v -0.002522043 -0.005460791 0.01003529
v -0.006754942 0.005618443 0.009860354
v -0.008501196 0.001328289 0.01184551
v -0.01284289 0.003050274 0.02397533
v -0.01109663 0.007340429 0.02199017
v -0.0008669209 0.009582438 -0.002013369
v -0.004228995 0.01091589 0.007379598
v -0.01854518 0.00272596 0.02338163
v -0.01564871 0.008164273 0.01973816
v -0.01275572 0.0008895071 0.008023491
v -0.008501196 0.001328289 0.01184551
v -0.01562255 0.001835936 0.002200746
v -0.01996424 0.003557922 0.01433057
v -0.00686489 0.01244135 0.004353828
v -0.0008669209 0.009582438 -0.002013369
v -0.01821798 0.007848077 0.01234542
v -0.01562255 0.001835936 0.002200746
v -0.01387629 0.00612609 0.0002156067
v -0.009743551 0.011309 -8.901596E-05
v -0.006381478 0.009975543 -0.009481973
v -0.002381713 0.01101926 -0.007539043
v -0.006754942 0.005618443 0.009860354
v -0.006381478 0.009975543 -0.009481973
v -0.009859249 0.00632782 0.004380007
v -0.008501196 0.001328289 0.01184551
v -0.01387629 0.00612609 0.0002156067
v -0.01275572 0.0008895071 0.008023491
v -0.01562255 0.001835936 0.002200746
v -0.007492342 -0.004429637 0.009815016
v -0.01319261 -0.001715104 0.02395384
v -0.008606254 -0.0001032725 0.01183905
v -0.01207869 -0.006041469 0.0219298
v -0.002196377 -0.008533233 -0.002095098
v -0.005747908 -0.009781386 0.007286215
v -0.01883644 -0.001242963 0.02336372
v -0.01674281 -0.006744366 0.01967089
v -0.01278818 0.0004470821 0.008021488
v -0.008606254 -0.0001032725 0.01183905
v -0.01578812 -0.0004202044 0.002190571
v -0.02037447 -0.002032037 0.01430535
v -0.008602353 -0.01123397 0.004247017
v -0.002196377 -0.008533233 -0.002095098
v -0.01926055 -0.0063584 0.01228131
v -0.01578812 -0.0004202044 0.002190571
v -0.01467421 -0.004746568 0.0001665497
v -0.01130932 -0.01002681 -0.0001852798
v -0.007757794 -0.008778653 -0.009566593
v -0.00391877 -0.009925247 -0.007633543
v -0.007492342 -0.004429637 0.009815016
v -0.007757794 -0.008778653 -0.009566593
v -0.01069455 -0.005054321 0.004328661
v -0.008606254 -0.0001032725 0.01183905
v -0.01467421 -0.004746568 0.0001665497
v -0.01278818 0.0004470821 0.008021488
v -0.01578812 -0.0004202044 0.002190571
vt 0.375 0.75
vt 0.375 1
vt 0.625 1
vt 0.625 0.75
vt 0.375 0.75
vt 0.625 0.75
vt 0.625 0.625
vt 0.875 0.75
vt 0.875 0.625
vt 0.625 0.5
vt 0.875 0.5
vt 0.625 0.625
vt 0.375 0.75
vt 0.625 0.75
vt 0.375 0.625
vt 0.6249999 0.6249999
vt 0.375 0.625
vt 0.625 0.5
vt 0.375 0.5
vt 0.625 0.5
vt 0.375 0.5
vt 0.375 0.625
vt 0.375 0.5
vt 0.375 0.25
vt 0.125 0.5
vt 0.625 0.25
vt 0.125 0.625
vt 0.125 0.75
vt 0.375 0.125
vt 0.625 0.125
vt 0.375 0
vt 0.625 0
vt 0.125 0.6248875
vt 0.125 0.75
vt 0.375 0.75
vt 0.375 0.6248877
vt 0.125 0.5
vt 0.375 0.5
vt 0.5 0.75
vt 0.5 0.6248876
vt 0.5 1
vt 0.375 1
vt 0.625 1
vt 0.625 0.75
vt 0.5 0.5
vt 0.375 0.25
vt 0.6249999 0.6248876
vt 0.875 0.75
vt 0.8749999 0.6248875
vt 0.625 0.5
vt 0.875 0.5
vt 0.5 0.25
vt 0.375 0.1251124
vt 0.625 0.25
vt 0.5 0.1251124
vt 0.375 0
vt 0.625 0.1251124
vt 0.5 0
vt 0.625 0
vt 0.125 0.6248875
vt 0.375 0.75
vt 0.125 0.75
vt 0.375 0.6248877
vt 0.125 0.5
vt 0.375 0.5
vt 0.5 0.75
vt 0.5 0.6248876
vt 0.5 1
vt 0.375 1
vt 0.625 1
vt 0.625 0.75
vt 0.5 0.5
vt 0.375 0.25
vt 0.6249999 0.6248876
vt 0.875 0.75
vt 0.8749999 0.6248875
vt 0.625 0.5
vt 0.875 0.5
vt 0.5 0.25
vt 0.375 0.1251124
vt 0.625 0.25
vt 0.5 0.1251124
vt 0.375 0
vt 0.625 0.1251124
vt 0.5 0
vt 0.625 0
vn 0.07620112 -0.7994248 -0.595914
vn -0.481386 -0.4883859 -0.727837
vn -0.7613462 -0.6203676 0.188404
vn -0.07628556 -0.896625 0.4361699
vn 0.3290045 -0.6806399 -0.6545879
vn 0.2991619 -0.8715529 0.3884555
vn -0.06570762 -0.001248711 0.9978382
vn -0.7613462 -0.6203676 0.188404
vn -0.7121668 -0.001427542 0.7020088
vn -0.08203974 0.8961077 0.4361887
vn -0.7633469 0.6182016 0.1874252
vn 0.4083584 0.0005416285 0.9128215
vn 0.7415134 -0.4770342 -0.4718011
vn 0.7594985 -0.6108242 0.223732
vn 0.8130348 -2.771085E-06 -0.5822152
vn 0.8420909 -0.0003030456 0.5393355
vn 0.2649929 0.0002421214 -0.9642503
vn 0.298272 0.8717268 0.3887498
vn 0.741518 0.4770286 -0.4717996
vn 0.7594948 0.6106858 0.2241217
vn 0.328459 0.6811557 -0.6543253
vn 0.3117084 0.000923242 -0.9501773
vn 0.07422312 0.8003349 -0.5949411
vn -0.4814079 0.4876493 -0.7283163
vn -0.4814079 0.4876493 -0.7283163
vn -0.7633469 0.6182016 0.1874252
vn -0.5302182 0.001260131 -0.8478603
vn -0.481386 -0.4883859 -0.727837
vn -0.5302182 0.001260131 -0.8478603
vn -0.7121668 -0.001427542 0.7020088
vn -0.481386 -0.4883859 -0.727837
vn -0.7613462 -0.6203676 0.188404
vn 0.8511034 -0.5237458 0.03623985
vn 0.6483841 -0.7607684 0.02880123
vn 0.2918111 -0.3763985 0.8793011
vn 0.5261881 0.4959834 0.6907436
vn 0.9755852 -0.1602925 -0.1501332
vn 0.7594219 0.5188911 0.3924671
vn -0.6487567 -0.3259936 0.6876357
vn -0.3971401 0.8131216 0.4255739
vn 0.1805231 -0.9544914 -0.2373975
vn 0.6483841 -0.7607684 0.02880123
vn -0.3600339 -0.6337761 -0.6846192
vn -0.9542952 -0.2988352 -0.00425097
vn 0.04571913 0.9963516 0.07206456
vn 0.9755852 -0.1602925 -0.1501332
vn -0.7574099 0.6471223 -0.08696506
vn -0.3600339 -0.6337761 -0.6846192
vn -0.5223487 -0.2657396 -0.810268
vn -0.4792102 0.8490025 -0.2226036
vn -0.1122175 -0.02969981 -0.9932398
vn 0.6558284 0.1961153 -0.7289909
vn 0.8511034 -0.5237458 0.03623985
vn -0.1122175 -0.02969981 -0.9932398
vn 0.4250987 -0.8273677 -0.3670879
vn 0.6483841 -0.7607684 0.02880123
vn -0.5223487 -0.2657396 -0.810268
vn 0.1805231 -0.9544914 -0.2373975
vn -0.3600339 -0.6337761 -0.6846192
vn 0.9082534 0.4172906 0.03072993
vn 0.3272374 0.3585938 0.8742574
vn 0.7091786 0.70418 0.03458535
vn 0.4832999 -0.5552211 0.6768682
vn 0.9792519 0.1162493 -0.165987
vn 0.7168743 -0.5877172 0.3750729
vn -0.6221854 0.3621491 0.6940702
vn -0.4500675 -0.7818113 0.4315208
vn 0.2330082 0.9386258 -0.25434
vn 0.7091786 0.70418 0.03458535
vn -0.2899478 0.6783216 -0.6751371
vn -0.9272445 0.3744562 0.000318735
vn 0.0002823345 -0.9975423 0.07006712
vn 0.9792519 0.1162493 -0.165987
vn -0.8132445 -0.5749428 -0.08985563
vn -0.2899478 0.6783216 -0.6751371
vn -0.5263855 0.3274154 -0.7846766
vn -0.5328209 -0.8119552 -0.2383918
vn -0.1142218 0.03537865 -0.9928252
vn 0.6494916 -0.2187537 -0.7282221
vn 0.9082534 0.4172906 0.03072993
vn -0.1142218 0.03537865 -0.9928252
vn 0.467523 0.7961195 -0.3842082
vn 0.7091786 0.70418 0.03458535
vn -0.5263855 0.3274154 -0.7846766
vn 0.2330082 0.9386258 -0.25434
vn -0.2899478 0.6783216 -0.6751371
g Cube.003_0
f 3/3/3 2/2/2 1/1/1
f 4/4/4 3/3/3 1/1/1
f 1/1/1 5/5/5 4/4/4
f 5/5/5 6/6/6 4/4/4
f 4/4/4 6/6/6 7/7/7
f 8/8/8 4/4/4 7/7/7
f 9/9/9 8/8/8 7/7/7
f 9/9/9 7/7/7 10/10/10
f 11/11/11 9/9/9 10/10/10
f 6/6/6 12/12/12 7/7/7
f 7/7/7 12/12/12 10/10/10
f 5/5/5 13/13/13 6/6/6
f 13/13/13 14/14/14 6/6/6
f 6/6/6 14/14/14 12/12/12
f 15/15/15 13/13/13 5/5/5
f 14/14/14 13/13/13 15/15/15
f 14/14/14 16/16/16 12/12/12
f 16/16/16 14/14/14 15/15/15
f 17/17/17 15/15/15 5/5/5
f 17/17/17 5/5/5 1/1/1
f 12/12/12 18/18/18 10/10/10
f 12/12/12 16/16/16 18/18/18
f 16/16/16 15/15/15 19/19/19
f 19/19/19 15/15/15 17/17/17
f 20/20/20 16/16/16 19/19/19
f 16/16/16 20/20/20 18/18/18
f 20/20/20 19/19/19 21/21/21
f 21/21/21 19/19/19 17/17/17
f 18/18/18 20/20/20 21/21/21
f 22/22/22 17/17/17 1/1/1
f 21/21/21 17/17/17 22/22/22
f 18/18/18 21/21/21 23/23/23
f 10/10/10 18/18/18 23/23/23
f 23/23/23 21/21/21 22/22/22
f 10/10/10 23/23/23 24/24/24
f 23/23/23 22/22/22 25/25/25
f 26/26/26 10/10/10 24/24/24
f 22/22/22 27/27/27 25/25/25
f 22/22/22 1/1/1 27/27/27
f 1/1/1 28/28/28 27/27/27
f 26/26/26 24/24/24 29/29/29
f 30/30/30 26/26/26 29/29/29
f 30/30/30 29/29/29 31/31/31
f 32/32/32 30/30/30 31/31/31
f 35/35/35 34/34/34 33/33/33
f 36/36/36 35/35/35 33/33/33
f 36/36/36 33/33/33 37/37/37
f 38/38/38 36/36/36 37/37/37
f 39/39/39 35/35/35 36/36/36
f 40/40/40 36/36/36 38/38/38
f 40/40/40 39/39/39 36/36/36
f 39/39/39 41/41/41 35/35/35
f 41/41/41 42/42/42 35/35/35
f 43/43/43 41/41/41 39/39/39
f 44/44/44 43/43/43 39/39/39
f 44/44/44 39/39/39 40/40/40
f 45/45/45 40/40/40 38/38/38
f 45/45/45 38/38/38 46/46/46
f 47/47/47 44/44/44 40/40/40
f 47/47/47 40/40/40 45/45/45
f 48/48/48 44/44/44 47/47/47
f 49/49/49 48/48/48 47/47/47
f 49/49/49 47/47/47 50/50/50
f 50/50/50 47/47/47 45/45/45
f 51/51/51 49/49/49 50/50/50
f 52/52/52 45/45/45 46/46/46
f 50/50/50 45/45/45 52/52/52
f 52/52/52 46/46/46 53/53/53
f 54/54/54 50/50/50 52/52/52
f 55/55/55 52/52/52 53/53/53
f 54/54/54 52/52/52 55/55/55
f 55/55/55 53/53/53 56/56/56
f 57/57/57 54/54/54 55/55/55
f 58/58/58 55/55/55 56/56/56
f 57/57/57 55/55/55 58/58/58
f 59/59/59 57/57/57 58/58/58
f 62/62/62 61/61/61 60/60/60
f 61/61/61 63/63/63 60/60/60
f 60/60/60 63/63/63 64/64/64
f 63/63/63 65/65/65 64/64/64
f 61/61/61 66/66/66 63/63/63
f 63/63/63 67/67/67 65/65/65
f 66/66/66 67/67/67 63/63/63
f 68/68/68 66/66/66 61/61/61
f 69/69/69 68/68/68 61/61/61
f 68/68/68 70/70/70 66/66/66
f 70/70/70 71/71/71 66/66/66
f 66/66/66 71/71/71 67/67/67
f 67/67/67 72/72/72 65/65/65
f 65/65/65 72/72/72 73/73/73
f 71/71/71 74/74/74 67/67/67
f 67/67/67 74/74/74 72/72/72
f 71/71/71 75/75/75 74/74/74
f 75/75/75 76/76/76 74/74/74
f 74/74/74 76/76/76 77/77/77
f 74/74/74 77/77/77 72/72/72
f 76/76/76 78/78/78 77/77/77
f 72/72/72 79/79/79 73/73/73
f 72/72/72 77/77/77 79/79/79
f 73/73/73 79/79/79 80/80/80
f 77/77/77 81/81/81 79/79/79
f 79/79/79 82/82/82 80/80/80
f 79/79/79 81/81/81 82/82/82
f 80/80/80 82/82/82 83/83/83
f 81/81/81 84/84/84 82/82/82
f 82/82/82 85/85/85 83/83/83
f 82/82/82 84/84/84 85/85/85
f 84/84/84 86/86/86 85/85/85
