g Cube.008
v 0.003059973 -0.004289176 0.006171979
v 0.003362598 -0.003214438 0.005815436
v 0.003925859 -0.004151954 0.005394046
v 0.003059973 0.004289176 0.006171979
v 0.003925859 0.004151954 0.005394046
v 0.003362598 0.003214438 0.005815436
v 0.001966912 -0.003962096 0.006230139
v 0.001246858 -0.003350309 0.005536592
v 0.002269537 -0.002887358 0.005873596
v 0.0008742111 -0.007293025 0.004426345
v 0.0001541574 -0.006681238 0.003732797
v 0.000254668 -0.006165005 0.002718624
v 0.001347368 -0.002834077 0.004522418
v 0.002269537 -0.002887358 0.005873596
v 0.002370048 -0.002371126 0.004859422
v 0.003362598 -0.003214438 0.005815436
v 0.003463109 -0.002698206 0.004801262
v 0.003925859 -0.004151954 0.005394046
v 0.004026369 -0.003635722 0.004379872
v 0.002833158 -0.007482883 0.003590251
v 0.003059973 -0.004289176 0.006171979
v 0.001967272 -0.007620105 0.004368185
v 0.0008742111 -0.007293025 0.004426345
v 0.001966912 -0.003962096 0.006230139
v 0.003362598 -0.003214438 0.005815436
v 0.002269537 -0.002887358 0.005873596
v 0.002933668 -0.00696665 0.002576077
v 0.001810479 -0.007945835 0.003253247
v 0.002213615 -0.006354863 0.00188253
v 0.003306316 -0.003023935 0.003686324
v 0.001910989 -0.007429601 0.002239073
v 0.002213254 -0.002696855 0.003744485
v 0.001120554 -0.006027784 0.001940691
v 0.000254668 -0.006165005 0.002718624
v 0.001347368 -0.002834077 0.004522418
v 0.002370048 -0.002371126 0.004859422
v 0.003463109 -0.002698206 0.004801262
v 0.004026369 -0.003635722 0.004379872
v 0.0007174177 -0.007618754 0.003311408
v 0.001967272 -0.007620105 0.004368185
v 0.002833158 -0.007482883 0.003590251
v 0.0008742111 -0.007293025 0.004426345
v 0.0001541574 -0.006681238 0.003732797
v 0.0008179283 -0.007102522 0.002297234
v 0.000254668 -0.006165005 0.002718624
v 0.001120554 -0.006027784 0.001940691
v 0.002213615 -0.006354863 0.00188253
v 0.002933668 -0.00696665 0.002576077
v 0.001966912 0.003962096 0.006230139
v 0.002269537 0.002887358 0.005873596
v 0.001246858 0.003350309 0.005536592
v 0.0008742111 0.007293025 0.004426345
v 0.0001541574 0.006681238 0.003732797
v 0.000254668 0.006165005 0.002718624
v 0.001347368 0.002834077 0.004522418
v 0.002269537 0.002887358 0.005873596
v 0.002370048 0.002371126 0.004859422
v 0.003362598 0.003214438 0.005815436
v 0.003463109 0.002698206 0.004801262
v 0.003925859 0.004151954 0.005394046
v 0.004026369 0.003635722 0.004379872
v 0.002833158 0.007482883 0.003590251
v 0.003059973 0.004289176 0.006171979
v 0.001967272 0.007620105 0.004368185
v 0.0008742111 0.007293025 0.004426345
v 0.001966912 0.003962096 0.006230139
v 0.003362598 0.003214438 0.005815436
v 0.002269537 0.002887358 0.005873596
v 0.002933668 0.00696665 0.002576077
v 0.001810479 0.007945835 0.003253247
v 0.002213615 0.006354863 0.00188253
v 0.003306316 0.003023935 0.003686324
v 0.001910989 0.007429601 0.002239073
v 0.002213254 0.002696855 0.003744485
v 0.001120554 0.006027784 0.001940691
v 0.000254668 0.006165005 0.002718624
v 0.001347368 0.002834077 0.004522418
v 0.002370048 0.002371126 0.004859422
v 0.003463109 0.002698206 0.004801262
v 0.004026369 0.003635722 0.004379872
v 0.0007174177 0.007618754 0.003311408
v 0.001967272 0.007620105 0.004368185
v 0.002833158 0.007482883 0.003590251
v 0.0008742111 0.007293025 0.004426345
v 0.0001541574 0.006681238 0.003732797
v 0.0008179283 0.007102522 0.002297234
v 0.000254668 0.006165005 0.002718624
v 0.001120554 0.006027784 0.001940691
v 0.002213615 0.006354863 0.00188253
v 0.002933668 0.00696665 0.002576077
vt 0.625 0.5369993
vt 0.5510013 0.5
vt 0.5510013 0.5369993
vt 0.625 0.5369993
vt 0.5510013 0.5369993
vt 0.5510013 0.5
vt 0.625 0.2130007
vt 0.5510013 0.2130007
vt 0.5510013 0.25
vt 0.625 0.03699933
vt 0.5510013 0.03699933
vt 0.4489987 0.03699933
vt 0.4489987 0.2130007
vt 0.5510014 0.3239987
vt 0.4489986 0.3239987
vt 0.5510014 0.4260013
vt 0.4489986 0.4260013
vt 0.5510013 0.5369993
vt 0.4489987 0.5369994
vt 0.5510013 0.7130007
vt 0.6989986 0.5369993
vt 0.6989987 0.7130007
vt 0.8010013 0.7130006
vt 0.8010013 0.5369993
vt 0.6989986 0.5
vt 0.8010014 0.5
vt 0.4489987 0.7130007
vt 0.5510014 0.8239987
vt 0.3010013 0.7130007
vt 0.3010014 0.5369993
vt 0.4489987 0.8239987
vt 0.1989986 0.5369993
vt 0.1989987 0.7130007
vt 0.125 0.7130007
vt 0.125 0.5369993
vt 0.1989986 0.5
vt 0.3010014 0.5
vt 0.375 0.5369993
vt 0.5510014 0.9260013
vt 0.625 0.8239987
vt 0.5510013 0.75
vt 0.625 0.9260013
vt 0.5510014 1
vt 0.4489986 0.9260013
vt 0.4489987 1
vt 0.375 0.9260013
vt 0.375 0.8239987
vt 0.4489987 0.7500001
vt 0.625 0.2130007
vt 0.5510013 0.25
vt 0.5510013 0.2130007
vt 0.625 0.03699933
vt 0.5510013 0.03699933
vt 0.4489987 0.03699933
vt 0.4489987 0.2130007
vt 0.5510014 0.3239987
vt 0.4489986 0.3239987
vt 0.5510014 0.4260013
vt 0.4489986 0.4260013
vt 0.5510013 0.5369993
vt 0.4489987 0.5369994
vt 0.5510013 0.7130007
vt 0.6989986 0.5369993
vt 0.6989987 0.7130007
vt 0.8010013 0.7130006
vt 0.8010013 0.5369993
vt 0.6989986 0.5
vt 0.8010014 0.5
vt 0.4489987 0.7130007
vt 0.5510014 0.8239987
vt 0.3010013 0.7130007
vt 0.3010014 0.5369993
vt 0.4489987 0.8239987
vt 0.1989986 0.5369993
vt 0.1989987 0.7130007
vt 0.125 0.7130007
vt 0.125 0.5369993
vt 0.1989986 0.5
vt 0.3010014 0.5
vt 0.375 0.5369993
vt 0.5510014 0.9260013
vt 0.625 0.8239987
vt 0.5510013 0.75
vt 0.625 0.9260013
vt 0.5510014 1
vt 0.4489986 0.9260013
vt 0.4489987 1
vt 0.375 0.9260013
vt 0.375 0.8239987
vt 0.4489987 0.7500001
vn 0.3444659 -0.2048439 0.916178
vn 0.5394506 0.4876212 0.6864536
vn 0.9023649 -0.11643 0.4149477
vn 0.3444659 0.2048439 0.916178
vn 0.9023649 0.11643 0.4149477
vn 0.5394506 -0.4876213 0.6864536
vn -0.3091818 -0.009250967 0.9509579
vn -0.7731195 0.3849297 0.5040984
vn -0.1141969 0.6832139 0.7212335
vn -0.4985322 -0.5864558 0.6383848
vn -0.9624698 -0.1922755 0.1915249
vn -0.9023648 0.1164301 -0.414948
vn -0.7130145 0.6936352 -0.1023745
vn -0.1141969 0.6832139 0.7212335
vn -0.05409203 0.9919194 0.1147605
vn 0.5394506 0.4876212 0.6864536
vn 0.5995557 0.7963267 0.07998037
vn 0.9023649 -0.11643 0.4149477
vn 0.9624698 0.1922755 -0.1915254
vn 0.7130146 -0.6936351 0.1023745
vn 0.3444659 -0.2048439 0.916178
vn 0.1551157 -0.7820486 0.603605
vn -0.4985322 -0.5864558 0.6383848
vn -0.3091818 -0.009250967 0.9509579
vn 0.5394506 0.4876212 0.6864536
vn -0.1141969 0.6832139 0.7212335
vn 0.7731195 -0.3849297 -0.5040985
vn 0.05409202 -0.9919194 -0.1147604
vn 0.3091818 0.009250921 -0.950958
vn 0.4985321 0.5864561 -0.6383847
vn 0.114197 -0.6832139 -0.7212336
vn -0.1551155 0.7820489 -0.6036049
vn -0.3444659 0.2048436 -0.9161782
vn -0.9023648 0.1164301 -0.414948
vn -0.7130145 0.6936352 -0.1023745
vn -0.05409203 0.9919194 0.1147605
vn 0.5995557 0.7963267 0.07998037
vn 0.9624698 0.1922755 -0.1915254
vn -0.5995557 -0.7963267 -0.07998083
vn 0.1551157 -0.7820486 0.603605
vn 0.7130146 -0.6936351 0.1023745
vn -0.4985322 -0.5864558 0.6383848
vn -0.9624698 -0.1922755 0.1915249
vn -0.5394505 -0.487621 -0.6864538
vn -0.9023648 0.1164301 -0.414948
vn -0.3444659 0.2048436 -0.9161782
vn 0.3091818 0.009250921 -0.950958
vn 0.7731195 -0.3849297 -0.5040985
vn -0.3091818 0.009250968 0.950958
vn -0.1141969 -0.6832139 0.7212336
vn -0.7731195 -0.3849297 0.5040985
vn -0.4985321 0.5864558 0.6383848
vn -0.9624698 0.1922756 0.1915249
vn -0.9023648 -0.1164301 -0.414948
vn -0.7130146 -0.6936352 -0.1023746
vn -0.1141969 -0.6832139 0.7212336
vn -0.05409208 -0.9919194 0.1147605
vn 0.5394506 -0.4876213 0.6864536
vn 0.5995557 -0.7963267 0.0799804
vn 0.9023649 0.11643 0.4149477
vn 0.9624698 -0.1922755 -0.1915254
vn 0.7130146 0.6936351 0.1023745
vn 0.3444659 0.2048439 0.916178
vn 0.1551156 0.7820486 0.603605
vn -0.4985321 0.5864558 0.6383848
vn -0.3091818 0.009250968 0.950958
vn 0.5394506 -0.4876213 0.6864536
vn -0.1141969 -0.6832139 0.7212336
vn 0.7731195 0.3849297 -0.5040984
vn 0.05409202 0.9919194 -0.1147604
vn 0.3091818 -0.009250944 -0.950958
vn 0.4985321 -0.5864561 -0.6383847
vn 0.114197 0.6832138 -0.7212336
vn -0.1551155 -0.7820489 -0.6036048
vn -0.3444659 -0.2048436 -0.9161782
vn -0.9023648 -0.1164301 -0.414948
vn -0.7130146 -0.6936352 -0.1023746
vn -0.05409208 -0.9919194 0.1147605
vn 0.5995557 -0.7963267 0.0799804
vn 0.9624698 -0.1922755 -0.1915254
vn -0.5995556 0.7963266 -0.07998086
vn 0.1551156 0.7820486 0.603605
vn 0.7130146 0.6936351 0.1023745
vn -0.4985321 0.5864558 0.6383848
vn -0.9624698 0.1922756 0.1915249
vn -0.5394504 0.4876209 -0.6864539
vn -0.9023648 -0.1164301 -0.414948
vn -0.3444659 -0.2048436 -0.9161782
vn 0.3091818 -0.009250944 -0.950958
vn 0.7731195 0.3849297 -0.5040984
g Cube.008_0
f 3/3/3 2/2/2 1/1/1
f 6/6/6 5/5/5 4/4/4
f 9/9/9 8/8/8 7/7/7
f 7/7/7 8/8/8 10/10/10
f 8/8/8 11/11/11 10/10/10
f 11/11/11 8/8/8 12/12/12
f 8/8/8 13/13/13 12/12/12
f 13/13/13 8/8/8 14/14/14
f 15/15/15 13/13/13 14/14/14
f 14/14/14 16/16/16 15/15/15
f 16/16/16 17/17/17 15/15/15
f 17/17/17 16/16/16 18/18/18
f 19/19/19 17/17/17 18/18/18
f 18/18/18 20/20/20 19/19/19
f 20/20/20 18/18/18 21/21/21
f 22/22/22 20/20/20 21/21/21
f 23/23/23 22/22/22 21/21/21
f 24/24/24 23/23/23 21/21/21
f 21/21/21 25/25/25 24/24/24
f 25/25/25 26/26/26 24/24/24
f 20/20/20 27/27/27 19/19/19
f 27/27/27 20/20/20 28/28/28
f 19/19/19 27/27/27 29/29/29
f 30/30/30 19/19/19 29/29/29
f 31/31/31 27/27/27 28/28/28
f 30/30/30 29/29/29 32/32/32
f 29/29/29 33/33/33 32/32/32
f 33/33/33 34/34/34 32/32/32
f 34/34/34 35/35/35 32/32/32
f 35/35/35 36/36/36 32/32/32
f 32/32/32 36/36/36 30/30/30
f 36/36/36 37/37/37 30/30/30
f 37/37/37 38/38/38 30/30/30
f 28/28/28 39/39/39 31/31/31
f 39/39/39 28/28/28 40/40/40
f 28/28/28 41/41/41 40/40/40
f 42/42/42 39/39/39 40/40/40
f 42/42/42 43/43/43 39/39/39
f 39/39/39 43/43/43 44/44/44
f 39/39/39 44/44/44 31/31/31
f 43/43/43 45/45/45 44/44/44
f 44/44/44 45/45/45 46/46/46
f 31/31/31 44/44/44 46/46/46
f 47/47/47 31/31/31 46/46/46
f 48/48/48 31/31/31 47/47/47
f 51/51/51 50/50/50 49/49/49
f 51/51/51 49/49/49 52/52/52
f 53/53/53 51/51/51 52/52/52
f 51/51/51 53/53/53 54/54/54
f 55/55/55 51/51/51 54/54/54
f 51/51/51 55/55/55 56/56/56
f 55/55/55 57/57/57 56/56/56
f 58/58/58 56/56/56 57/57/57
f 59/59/59 58/58/58 57/57/57
f 58/58/58 59/59/59 60/60/60
f 59/59/59 61/61/61 60/60/60
f 62/62/62 60/60/60 61/61/61
f 60/60/60 62/62/62 63/63/63
f 62/62/62 64/64/64 63/63/63
f 64/64/64 65/65/65 63/63/63
f 65/65/65 66/66/66 63/63/63
f 67/67/67 63/63/63 66/66/66
f 68/68/68 67/67/67 66/66/66
f 69/69/69 62/62/62 61/61/61
f 62/62/62 69/69/69 70/70/70
f 69/69/69 61/61/61 71/71/71
f 61/61/61 72/72/72 71/71/71
f 69/69/69 73/73/73 70/70/70
f 71/71/71 72/72/72 74/74/74
f 75/75/75 71/71/71 74/74/74
f 76/76/76 75/75/75 74/74/74
f 77/77/77 76/76/76 74/74/74
f 78/78/78 77/77/77 74/74/74
f 78/78/78 74/74/74 72/72/72
f 79/79/79 78/78/78 72/72/72
f 80/80/80 79/79/79 72/72/72
f 81/81/81 70/70/70 73/73/73
f 70/70/70 81/81/81 82/82/82
f 83/83/83 70/70/70 82/82/82
f 81/81/81 84/84/84 82/82/82
f 85/85/85 84/84/84 81/81/81
f 85/85/85 81/81/81 86/86/86
f 86/86/86 81/81/81 73/73/73
f 87/87/87 85/85/85 86/86/86
f 87/87/87 86/86/86 88/88/88
f 86/86/86 73/73/73 88/88/88
f 73/73/73 89/89/89 88/88/88
f 73/73/73 90/90/90 89/89/89
