g Cube.016
v -0.009133636 -0.01165639 0.02528962
v -0.009133636 -0.009614618 0.02188667
v -0.009133636 -0.009614618 0.02324785
v -0.009133637 -0.01301757 0.02528962
v -0.009133633 -0.006211667 0.02528962
v -0.009133636 -0.009614618 0.0273314
v -0.009133635 -0.007572849 0.02528962
v -0.009133636 -0.009614618 0.02869257
v 0.009153862 -0.0116564 0.02528962
v 0.00915386 -0.01301758 0.02528962
v 0.009153862 -0.009614627 0.02869257
v 0.009153862 -0.009614627 0.0273314
v 0.009153862 -0.009614627 0.02324785
v 0.009153864 -0.006211676 0.02528962
v 0.009153862 -0.009614627 0.02188667
v 0.009153862 -0.007572856 0.02528962
v 0.009153862 -0.009614627 0.02188667
v -0.009133636 -0.009614618 0.02188667
v -0.009133637 -0.01301757 0.02528962
v 0.00915386 -0.01301758 0.02528962
v 0.009153864 -0.006211676 0.02528962
v -0.009133636 -0.009614618 0.02869257
v -0.009133633 -0.006211667 0.02528962
v 0.009153862 -0.009614627 0.02869257
v 0.009153862 -0.0116564 0.02528962
v 0.01050136 -0.009614628 0.02528962
v 0.009153862 -0.009614627 0.02324785
v 0.009153862 -0.009614627 0.0273314
v 0.009153862 -0.007572856 0.02528962
v -0.009133636 -0.01165639 0.02528962
v -0.01048113 -0.009614618 0.02528962
v -0.009133636 -0.009614618 0.0273314
v -0.009133636 -0.009614618 0.02324785
v -0.009133635 -0.007572849 0.02528962
vt 0.5 0.6
vt 0.5 0.6
vt 0.5 0.6
vt 0.5 0.6
vt 0.5 0.6
vt 0.5 0.6
vt 0.5 0.6
vt 0.5 0.6
vt 0.5 0.6
vt 0.5 0.6
vt 0.5 0.6
vt 0.5 0.6
vt 0.5 0.6
vt 0.5 0.6
vt 0.5 0.6
vt 0.5 0.6
vt 0.5 0.6
vt 0.5 0.6
vt 0.5 0.6
vt 0.5 0.6
vt 0.5 0.6
vt 0.5 0.6
vt 0.5 0.6
vt 0.5 0.6
vt 0.5 0.6
vt 0.5 0.6
vt 0.5 0.6
vt 0.5 0.6
vt 0.5 0.6
vt 0.5 0.6
vt 0.5 0.6
vt 0.5 0.6
vt 0.5 0.6
vt 0.5 0.6
vn -1 8.042458E-07 0
vn -1 8.042451E-07 0
vn -1 8.042452E-07 0
vn -1 8.042458E-07 0
vn -1 8.042458E-07 0
vn -1 8.042465E-07 0
vn -1 8.042458E-07 0
vn -1 8.042464E-07 0
vn 1 -8.042451E-07 0
vn 1 -8.042452E-07 0
vn 1 -8.042458E-07 -2.189451E-07
vn 1 -8.042458E-07 -2.189451E-07
vn 1 -8.042452E-07 2.189445E-07
vn 1 -8.042458E-07 0
vn 1 -8.042451E-07 2.189446E-07
vn 1 -8.042458E-07 0
vn 0 1.609891E-07 -1
vn 0 0 -1
vn -4.310053E-07 -1 0
vn -4.310053E-07 -1 0
vn 4.310053E-07 1 0
vn 0 0 1
vn 4.310053E-07 1 0
vn 0 2.146521E-07 1
vn 0.8346225 -0.5508224 5.613102E-07
vn 1 -2.744663E-07 1.614508E-07
vn 0.8346227 3.802424E-07 -0.5508222
vn 0.8346223 -4.707763E-07 0.5508226
vn 0.8346229 0.5508217 -2.716017E-07
vn -0.8346232 -0.5508214 -5.432034E-07
vn -1 5.327871E-07 -4.359167E-07
vn -0.8346233 2.897085E-07 0.5508212
vn -0.8346227 -2.172815E-07 -0.5508221
vn -0.8346227 0.5508222 -1.62961E-07
g Cube.016_0
f 3/3/3 2/2/2 1/1/1
f 2/2/2 4/4/4 1/1/1
f 5/5/5 2/2/2 3/3/3
f 1/1/1 4/4/4 6/6/6
f 7/7/7 5/5/5 3/3/3
f 4/4/4 8/8/8 6/6/6
f 8/8/8 5/5/5 7/7/7
f 6/6/6 8/8/8 7/7/7
f 11/11/11 10/10/10 9/9/9
f 12/12/12 11/11/11 9/9/9
f 9/9/9 10/10/10 13/13/13
f 14/14/14 11/11/11 12/12/12
f 10/10/10 15/15/15 13/13/13
f 16/16/16 14/14/14 12/12/12
f 13/13/13 15/15/15 16/16/16
f 15/15/15 14/14/14 16/16/16
f 19/19/19 18/18/18 17/17/17
f 20/20/20 19/19/19 17/17/17
f 17/17/17 18/18/18 21/21/21
f 22/22/22 19/19/19 20/20/20
f 18/18/18 23/23/23 21/21/21
f 24/24/24 22/22/22 20/20/20
f 24/24/24 21/21/21 23/23/23
f 22/22/22 24/24/24 23/23/23
g Cube.016_1
f 27/27/27 26/26/26 25/25/25
f 25/25/25 26/26/26 28/28/28
f 29/29/29 26/26/26 27/27/27
f 28/28/28 26/26/26 29/29/29
f 32/32/32 31/31/31 30/30/30
f 30/30/30 31/31/31 33/33/33
f 34/34/34 31/31/31 32/32/32
f 33/33/33 31/31/31 34/34/34
