g Cylinder.004
v -0.003412675 0.003931373 0.002705661
v 0.001670527 0.002375514 -0.002910641
v 0.001416742 0.003162383 -0.0006040165
v -0.001984346 0.002053943 -0.002910641
v 0.002311149 -0.0007589047 -0.004033421
v 0.0001027673 -0.002081117 -0.004310733
v 0.002852346 -0.0032823 -0.004026195
v 0.003681852 -0.003217916 -0.003931251
v 0.001221431 -0.004139853 -0.004228456
v 0.0002701366 -0.004040333 -0.004333642
v 0.00223094 -0.004849073 -0.004129709
v 0.0003052324 -0.004875697 -0.003259366
v 0.0009552461 -0.004405207 -0.002555599
v 0.002043929 -0.005114101 -0.003142184
v 0.0002759045 -0.003517359 -0.00238792
v 0.0002701366 -0.004040333 -0.004333642
v 0.0001027673 -0.002081117 -0.004310733
v -0.001526858 -0.0006499088 -0.0006717684
v -0.001984346 0.002053943 -0.002910641
v 0.002633995 -0.002284029 -0.00229128
v 0.002137231 -0.0009359315 -0.001023788
v 0.002620491 -0.003570456 -0.002624582
v 0.002043929 -0.005114101 -0.003142184
v 0.002852346 -0.0032823 -0.004026195
v 0.00223094 -0.004849073 -0.004129709
v 0.003681852 -0.003217916 -0.003931251
v 0.003726484 -0.003765841 -0.002843205
v 0.002311149 -0.0007589047 -0.004033421
v 0.001670527 0.002375514 -0.002910641
v 0.001416742 0.003162383 -0.0006040165
v 0.001717744 -0.0004792218 0.001327687
v -0.00213155 0.0008362553 0.004438459
v -0.002837763 0.0008737074 0.004480159
v -0.003008605 0.003621334 0.007311362
v -0.002005549 0.004103501 0.009043423
v -0.003537492 0.005120278 0.006560234
v -0.002940237 0.006629367 0.007843396
v -0.003944414 0.003547305 0.002983349
v -0.003412675 0.003931373 0.002705661
v -0.002005549 0.004103501 0.009043423
v -0.002940237 0.006629367 0.007843396
v -0.003412675 0.003931373 0.002705661
v -0.00213155 0.0008362553 0.004438459
v 0.001416742 0.003162383 -0.0006040165
v 0.001717744 -0.0004792218 0.001327687
v -0.0008292639 0.002018962 0.002632651
v -0.001848231 0.0002865939 4.185736E-05
v -0.00173089 0.001217257 -0.0006268743
v -0.0007355642 0.002737558 0.00187878
v -0.0007971114 0.001335199 -0.001291143
v 0.0002007157 0.002932778 0.001455993
v 1.932502E-05 0.0005224767 -0.00128668
v 0.001043296 0.002409402 0.001787076
v -9.801686E-05 -0.0004081866 -0.0006179491
v 0.0009495962 0.001690806 0.002540946
v -0.001031795 -0.0005261279 4.632026E-05
v 1.331627E-05 0.001495586 0.002963734
v -0.001848231 0.0002865939 4.185736E-05
v -0.0008292639 0.002018962 0.002632651
v -9.801686E-05 -0.0004081866 -0.0006179491
v 1.932502E-05 0.0005224767 -0.00128668
v -0.0007971114 0.001335199 -0.001291143
v -0.001031795 -0.0005261279 4.632026E-05
v -0.00173089 0.001217257 -0.0006268743
v -0.001848231 0.0002865939 4.185736E-05
v -0.0007355642 0.002737558 0.00187878
v 0.0002007157 0.002932778 0.001455993
v 0.001043296 0.002409402 0.001787076
v 0.0009495962 0.001690806 0.002540946
v -0.0008292639 0.002018962 0.002632651
v 1.331627E-05 0.001495586 0.002963734
vt 0.75 0.01000001
vt 0.8910685 0.05583592
vt 0.8910685 0.05583592
vt 0.75 0.01000001
vt 0.8910685 0.05583592
vt 0.75 0.01000001
vt 0.8910685 0.05583592
vt 0.8910685 0.05583592
vt 0.75 0.01000001
vt 0.75 0.01000001
vt 0.75 0.01000001
vt 0.4999999 0.5
vt 0.4999999 0.5
vt 0.4999999 0.5
vt 0.4999999 0.5
vt 0.4999999 0.5
vt 0.4999999 0.5
vt 0.4999999 0.5
vt 0.4999999 0.5
vt 0.5999999 0.5
vt 0.5999999 0.5
vt 0.5999999 0.5
vt 0.5999999 0.5
vt 0.5999999 0.5
vt 0.5999999 0.5
vt 0.5999999 0.5
vt 0.5999999 0.5
vt 0.5999999 0.5
vt 0.5999999 0.5
vt 0.5999999 0.5
vt 0.5999999 0.5
vt 0.4999999 0.5
vt 0.4999999 0.5
vt 0.3999999 0.5
vt 0.3999999 0.5
vt 0.3999999 0.5
vt 0.3999999 0.5
vt 0.4999999 0.5
vt 0.4999999 0.5
vt 0.3999999 0.5
vt 0.3999999 0.5
vt 0.4999999 0.5
vt 0.4999999 0.5
vt 0.8910685 0.05583592
vt 0.5999999 0.5
vt 1 0.5
vt 1 1
vt 0.8333333 1
vt 0.8333333 0.5
vt 0.6666666 1
vt 0.6666666 0.5
vt 0.4999999 1
vt 0.4999999 0.5
vt 0.3333333 1
vt 0.3333333 0.5
vt 0.1666666 1
vt 0.1666666 0.5
vt -8.940697E-08 1
vt -8.940697E-08 0.5
vt 0.04215391 0.13
vt 0.25 0.01000001
vt 0.4578461 0.13
vt 0.04215391 0.37
vt 0.4578461 0.37
vt 0.25 0.49
vt 0.9578461 0.37
vt 0.9578461 0.13
vt 0.75 0.01000001
vt 0.5421539 0.13
vt 0.75 0.49
vt 0.5421539 0.37
vn -0.6365288 0.7002811 -0.3231679
vn 0.5557734 0.6459413 -0.5233315
vn 0.5165592 0.8319109 -0.2027083
vn -0.660747 0.3718362 -0.6520362
vn 0.628898 0.3401086 -0.6991519
vn -0.5354825 -0.06151168 -0.8423033
vn 0.3057699 -0.3708692 -0.8769041
vn 0.7936025 -0.2627573 -0.5487747
vn 0.01551258 -0.478242 -0.8780911
vn -0.5133648 -0.4509344 -0.730147
vn 0.3297092 -0.7230464 -0.6070385
vn -0.4858451 -0.8740124 0.007541405
vn -0.1248645 -0.7092153 0.6938462
vn 0.2117182 -0.9403488 0.2663075
vn -0.6255845 -0.4594118 0.6305432
vn -0.5133648 -0.4509344 -0.730147
vn -0.5354825 -0.06151168 -0.8423033
vn -0.6743338 -0.7328763 0.09036609
vn -0.660747 0.3718362 -0.6520362
vn 0.6943683 0.004869219 0.7196033
vn 0.8079547 -0.3372172 0.483212
vn 0.3579922 -0.5390495 0.7624088
vn 0.2117182 -0.9403488 0.2663075
vn 0.3057699 -0.3708692 -0.8769041
vn 0.3297092 -0.7230464 -0.6070385
vn 0.7936025 -0.2627573 -0.5487747
vn 0.7192742 -0.6081339 0.3358838
vn 0.628898 0.3401086 -0.6991519
vn 0.5557734 0.6459413 -0.5233315
vn 0.5165592 0.8319109 -0.2027083
vn 0.4157813 -0.8636239 0.2850958
vn -0.1844377 -0.8995999 0.3958572
vn -0.6721008 -0.6850501 0.2810461
vn -0.7680542 -0.4170874 0.485933
vn -0.7672197 -0.2964599 0.5687578
vn -0.9736945 0.1834171 0.1351933
vn -0.9279453 0.1026383 0.3583058
vn -0.9813679 0.1250813 -0.1458483
vn -0.6365288 0.7002811 -0.3231679
vn 0.941557 0.2584302 -0.2160657
vn 0.941557 0.2584302 -0.2160657
vn 0.8773332 0.4213167 0.2297361
vn 0.8541839 0.435501 0.2840931
vn 0.5918319 0.4879798 0.6415689
vn 0.5918319 0.4879798 0.6415689
vn -0.5645801 0.2411788 0.7893555
vn -0.9136173 -0.4018868 -0.06156761
vn -0.820591 0.2475072 -0.5151412
vn -0.473093 0.8312094 0.292017
vn -0.148689 0.3623897 -0.9200898
vn 0.2182185 0.9751846 -0.03736071
vn 0.4433938 -0.1885042 -0.8762808
vn 0.8376804 0.5316082 0.1252368
vn 0.351248 -0.8435237 -0.4063158
vn 0.7655778 -0.05291525 0.6411635
vn -0.3272447 -0.9449361 0.002569808
vn 0.06005985 -0.2028595 0.9773642
vn -0.9136173 -0.4018868 -0.06156761
vn -0.5645801 0.2411788 0.7893555
vn 0.351248 -0.8435237 -0.4063158
vn 0.4433938 -0.1885042 -0.8762808
vn -0.148689 0.3623897 -0.9200898
vn -0.3272447 -0.9449361 0.002569808
vn -0.820591 0.2475072 -0.5151412
vn -0.9136173 -0.4018868 -0.06156761
vn -0.473093 0.8312094 0.292017
vn 0.2182185 0.9751846 -0.03736071
vn 0.8376804 0.5316082 0.1252368
vn 0.7655778 -0.05291525 0.6411635
vn -0.5645801 0.2411788 0.7893555
vn 0.06005985 -0.2028595 0.9773642
g Cylinder.004_0
f 3/3/3 2/2/2 1/1/1
f 2/2/2 4/4/4 1/1/1
f 2/2/2 5/5/5 4/4/4
f 5/5/5 6/6/6 4/4/4
f 5/5/5 7/7/7 6/6/6
f 5/5/5 8/8/8 7/7/7
f 7/7/7 9/9/9 6/6/6
f 9/9/9 10/10/10 6/6/6
f 7/7/7 11/11/11 9/9/9
f 12/12/12 10/10/10 9/9/9
f 9/9/9 11/11/11 13/13/13
f 13/13/13 12/12/12 9/9/9
f 11/11/11 14/14/14 13/13/13
f 15/15/15 12/12/12 13/13/13
f 16/16/16 12/12/12 15/15/15
f 17/17/17 16/16/16 15/15/15
f 17/17/17 15/15/15 18/18/18
f 19/19/19 17/17/17 18/18/18
f 15/15/15 13/13/13 20/20/20
f 18/18/18 15/15/15 21/21/21
f 15/15/15 20/20/20 21/21/21
f 13/13/13 22/22/22 20/20/20
f 13/13/13 23/23/23 22/22/22
f 22/22/22 23/23/23 24/24/24
f 23/23/23 25/25/25 24/24/24
f 24/24/24 26/26/26 22/22/22
f 26/26/26 27/27/27 22/22/22
f 22/22/22 27/27/27 20/20/20
f 27/27/27 26/26/26 28/28/28
f 20/20/20 27/27/27 28/28/28
f 20/20/20 28/28/28 29/29/29
f 21/21/21 20/20/20 29/29/29
f 21/21/21 29/29/29 30/30/30
f 31/31/31 21/21/21 30/30/30
f 18/18/18 21/21/21 31/31/31
f 32/32/32 18/18/18 31/31/31
f 18/18/18 32/32/32 33/33/33
f 4/4/4 18/18/18 33/33/33
f 34/34/34 33/33/33 32/32/32
f 35/35/35 34/34/34 32/32/32
f 36/36/36 34/34/34 35/35/35
f 34/34/34 36/36/36 33/33/33
f 37/37/37 36/36/36 35/35/35
f 38/38/38 4/4/4 33/33/33
f 36/36/36 38/38/38 33/33/33
f 38/38/38 36/36/36 37/37/37
f 4/4/4 38/38/38 39/39/39
f 39/39/39 38/38/38 37/37/37
g Cylinder.004_1
f 42/42/42 41/41/41 40/40/40
f 43/43/43 42/42/42 40/40/40
f 44/44/44 42/42/42 43/43/43
f 45/45/45 44/44/44 43/43/43
g Cylinder.004_2
f 48/48/48 47/47/47 46/46/46
f 49/49/49 48/48/48 46/46/46
f 50/50/50 48/48/48 49/49/49
f 51/51/51 50/50/50 49/49/49
f 52/52/52 50/50/50 51/51/51
f 53/53/53 52/52/52 51/51/51
f 54/54/54 52/52/52 53/53/53
f 55/55/55 54/54/54 53/53/53
f 56/56/56 54/54/54 55/55/55
f 57/57/57 56/56/56 55/55/55
f 58/58/58 56/56/56 57/57/57
f 59/59/59 58/58/58 57/57/57
f 62/62/62 61/61/61 60/60/60
f 60/60/60 63/63/63 62/62/62
f 63/63/63 64/64/64 62/62/62
f 63/63/63 65/65/65 64/64/64
f 68/68/68 67/67/67 66/66/66
f 66/66/66 69/69/69 68/68/68
f 66/66/66 70/70/70 69/69/69
f 70/70/70 71/71/71 69/69/69
