g Cylinder
v 0 0.01 0
v 0.005877852 0.00809017 0.01691896
v 0 0.01 0.01
v 0.005877852 0.00809017 0
v 0.009510566 0.00309017 0.01
v 0.009510566 0.00309017 0
v 0.009510566 -0.00309017 0.01691896
v 0.009510566 -0.00309017 0
v 0.005877852 -0.00809017 0.01
v 0.005877852 -0.00809017 0
v 0 -0.01 0.01691896
v 0 -0.01 0
v -0.005877852 -0.00809017 0.01
v -0.005877852 -0.00809017 0
v -0.009510566 -0.00309017 0.01691896
v -0.009510566 -0.00309017 0
v -0.009510566 0.00309017 0.01
v -0.009510566 0.00309017 0
v -0.005877852 0.00809017 0.01691896
v -0.005877852 0.00809017 0
v 0 0.01 0.01
v 0 0.01 0
v 0.004496039 0.006188267 0.01691896
v 0 0.007649118 0.0001698532
v 0 0.007649118 0.01
v 0.004496039 0.006188267 0.0001698532
v 0.007274744 0.002363707 0.01
v 0.007274744 0.002363707 0.0001698532
v 0 0.01 0
v 0.005877852 0.00809017 0
v 0 0.007649118 0.01
v -0.004496039 0.006188267 0.0001698532
v -0.004496039 0.006188267 0.01691896
v -0.007274744 0.002363707 0.0001698532
v -0.007274744 0.002363707 0.01
v -0.007274744 -0.002363707 0.0001698532
v -0.007274744 -0.002363707 0.01691896
v -0.004496039 -0.006188267 0.0001698532
v -0.004496039 -0.006188267 0.01
v 0 -0.007649118 0.0001698532
v 0 -0.007649118 0.01691896
v 0.004496039 -0.006188267 0.0001698532
v 0.004496039 -0.006188267 0.01
v 0.007274744 -0.002363707 0.0001698532
v 0.007274744 -0.002363707 0.01691896
v 0.007274744 0.002363707 0.01
v -0.005877852 0.00809017 0.01691896
v -0.009510566 0.00309017 0.01
v 0 0.01 0.01
v -0.009510566 -0.00309017 0.01691896
v -0.005877852 -0.00809017 0.01
v 0.005877852 0.00809017 0.01691896
v 0.004496039 0.006188267 0.01691896
v 0 -0.01 0.01691896
v 0.009510566 0.00309017 0.01
v 0.009510566 -0.00309017 0.01691896
v 0.005877852 -0.00809017 0.01
v 0.004496039 0.006188267 0.0001698532
v 0.009510566 0.00309017 0
v 0.005877852 0.00809017 0
v 0.007274744 0.002363707 0.0001698532
v 0.009510566 -0.00309017 0
v 0.007274744 -0.002363707 0.0001698532
v 0.005877852 -0.00809017 0
v 0.004496039 -0.006188267 0.0001698532
v 0 -0.01 0
v 0 -0.007649118 0.0001698532
v -0.005877852 -0.00809017 0
v -0.004496039 -0.006188267 0.0001698532
v -0.009510566 -0.00309017 0
v -0.007274744 -0.002363707 0.0001698532
v -0.009510566 0.00309017 0
v -0.007274744 0.002363707 0.0001698532
v -0.005877852 0.00809017 0
v -0.004496039 0.006188267 0.0001698532
v 0 0.01 0
v 0 0.007649118 0.0001698532
vt 1 0.5
vt 0.9 1
vt 1 1
vt 0.9 0.5
vt 0.8 1
vt 0.8 0.5
vt 0.6999999 1
vt 0.6999999 0.5
vt 0.5999999 1
vt 0.5999999 0.5
vt 0.4999999 1
vt 0.4999999 0.5
vt 0.3999999 1
vt 0.3999999 0.5
vt 0.2999999 1
vt 0.2999999 0.5
vt 0.1999999 1
vt 0.1999999 0.5
vt 0.09999993 1
vt 0.09999993 0.5
vt -7.450581E-08 1
vt -7.450581E-08 0.5
vt 0.3579049 0.3985184
vt 0.25 0.4335788
vt 0.25 0.4335788
vt 0.3579049 0.3985184
vt 0.4245938 0.306729
vt 0.4245938 0.306729
vt 1 0.5
vt 0.9 0.5
vt 0.25 0.4335788
vt 0.1420951 0.3985184
vt 0.1420951 0.3985184
vt 0.07540616 0.306729
vt 0.07540616 0.306729
vt 0.07540616 0.193271
vt 0.07540616 0.193271
vt 0.1420951 0.1014816
vt 0.1420951 0.1014816
vt 0.25 0.06642117
vt 0.25 0.06642117
vt 0.3579049 0.1014816
vt 0.3579049 0.1014816
vt 0.4245938 0.193271
vt 0.4245938 0.193271
vt 0.4245938 0.306729
vt 0.1089315 0.4441641
vt 0.02174644 0.3241641
vt 0.25 0.49
vt 0.02174644 0.1758359
vt 0.1089315 0.05583592
vt 0.3910685 0.4441641
vt 0.3579049 0.3985184
vt 0.25 0.01000001
vt 0.4782535 0.3241641
vt 0.4782535 0.1758359
vt 0.3910685 0.05583592
vt 0 0
vt 0 0
vt 0 0
vt 0 0
vt 0 0
vt 0 0
vt 0 0
vt 0 0
vt 0 0
vt 0 0
vt 0 0
vt 0 0
vt 0 0
vt 0 0
vt 0 0
vt 0 0
vt 0 0
vt 0 0
vt 0 0
vt 0 0
vn -0.00932344 0.9177052 -0.3971525
vn 0.2319737 0.3192846 0.9188284
vn 0 0.9520069 0.3060767
vn 0.5469564 0.736959 -0.3971525
vn 0.9054123 0.2941864 0.3060768
vn 0.9510565 0.3090171 0
vn 0.3753416 -0.1219559 0.9188284
vn 0.9510565 -0.309017 0
vn 0.5595756 -0.7701897 0.3060768
vn 0.5877852 -0.8090171 0
vn 0 -0.3946573 0.9188285
vn 0 -1 0
vn -0.5595756 -0.7701897 0.3060768
vn -0.5877852 -0.8090171 0
vn -0.3753416 -0.1219559 0.9188284
vn -0.9510565 -0.309017 0
vn -0.9054123 0.2941863 0.3060768
vn -0.9510565 0.3090171 0
vn -0.2319737 0.3192846 0.9188284
vn -0.5877852 0.8090171 0
vn 0 0.9520069 0.3060767
vn -0.00932344 0.9177052 -0.3971525
vn -0.3978368 -0.5475757 0.7361296
vn -0.01209902 -0.8568739 -0.5153841
vn 0 -0.8791484 0.4765481
vn -0.4938695 -0.7003372 -0.515384
vn -0.8361198 -0.2716719 0.4765483
vn -0.9510565 -0.309017 0
vn -0.00932344 0.9177052 -0.3971525
vn 0.5469564 0.736959 -0.3971525
vn 0 -0.8791484 0.4765481
vn 0.5877852 -0.809017 0
vn 0.3978368 -0.5475757 0.7361296
vn 0.9510565 -0.309017 0
vn 0.8361198 -0.2716718 0.4765483
vn 0.9510565 0.309017 0
vn 0.6437135 0.2091553 0.7361298
vn 0.5877852 0.8090171 0
vn 0.5167505 0.7112459 0.4765483
vn 0 1 0
vn 0 0.6768404 0.7361298
vn -0.5877852 0.8090171 0
vn -0.5167505 0.711246 0.4765483
vn -0.9510565 0.309017 0
vn -0.6437135 0.2091553 0.7361298
vn -0.8361198 -0.2716719 0.4765483
vn -0.2319737 0.3192846 0.9188284
vn -0.9054123 0.2941863 0.3060768
vn 0 0.9520069 0.3060767
vn -0.3753416 -0.1219559 0.9188284
vn -0.5595756 -0.7701897 0.3060768
vn 0.2319737 0.3192846 0.9188284
vn -0.3978368 -0.5475757 0.7361296
vn 0 -0.3946573 0.9188285
vn 0.9054123 0.2941864 0.3060768
vn 0.3753416 -0.1219559 0.9188284
vn 0.5595756 -0.7701897 0.3060768
vn -0.06128364 -0.04452517 -0.9971268
vn -0.06128364 -0.04452517 -0.9971268
vn -0.06128364 -0.04452517 -0.9971268
vn -0.06128364 -0.04452517 -0.9971268
vn -0.07575073 0 -0.9971268
vn -0.07575073 0 -0.9971268
vn -0.06128364 0.04452517 -0.9971268
vn -0.06128364 0.04452517 -0.9971268
vn -0.02340826 0.07204325 -0.9971268
vn -0.02340826 0.07204325 -0.9971268
vn 0.02340827 0.07204325 -0.9971268
vn 0.02340827 0.07204325 -0.9971268
vn 0.06128364 0.04452517 -0.9971268
vn 0.06128364 0.04452517 -0.9971268
vn 0.07575073 0 -0.9971268
vn 0.07575073 0 -0.9971268
vn 0.06128364 -0.04452517 -0.9971268
vn 0.06128364 -0.04452517 -0.9971268
vn 0.02340826 -0.07204325 -0.9971268
vn 0.02340826 -0.07204325 -0.9971268
g Cylinder_0
f 3/3/3 2/2/2 1/1/1
f 2/2/2 4/4/4 1/1/1
f 2/2/2 5/5/5 4/4/4
f 5/5/5 6/6/6 4/4/4
f 5/5/5 7/7/7 6/6/6
f 7/7/7 8/8/8 6/6/6
f 7/7/7 9/9/9 8/8/8
f 9/9/9 10/10/10 8/8/8
f 9/9/9 11/11/11 10/10/10
f 11/11/11 12/12/12 10/10/10
f 11/11/11 13/13/13 12/12/12
f 13/13/13 14/14/14 12/12/12
f 13/13/13 15/15/15 14/14/14
f 15/15/15 16/16/16 14/14/14
f 15/15/15 17/17/17 16/16/16
f 17/17/17 18/18/18 16/16/16
f 17/17/17 19/19/19 18/18/18
f 19/19/19 20/20/20 18/18/18
f 19/19/19 21/21/21 20/20/20
f 21/21/21 22/22/22 20/20/20
f 25/25/25 24/24/24 23/23/23
f 24/24/24 26/26/26 23/23/23
f 23/23/23 26/26/26 27/27/27
f 26/26/26 28/28/28 27/27/27
f 26/26/26 24/24/24 29/29/29
f 30/30/30 26/26/26 29/29/29
f 32/32/32 24/24/24 31/31/31
f 33/33/33 32/32/32 31/31/31
f 34/34/34 32/32/32 33/33/33
f 35/35/35 34/34/34 33/33/33
f 36/36/36 34/34/34 35/35/35
f 37/37/37 36/36/36 35/35/35
f 38/38/38 36/36/36 37/37/37
f 39/39/39 38/38/38 37/37/37
f 40/40/40 38/38/38 39/39/39
f 41/41/41 40/40/40 39/39/39
f 42/42/42 40/40/40 41/41/41
f 43/43/43 42/42/42 41/41/41
f 44/44/44 42/42/42 43/43/43
f 45/45/45 44/44/44 43/43/43
f 28/28/28 44/44/44 45/45/45
f 46/46/46 28/28/28 45/45/45
f 33/33/33 47/47/47 35/35/35
f 47/47/47 48/48/48 35/35/35
f 35/35/35 48/48/48 37/37/37
f 49/49/49 47/47/47 33/33/33
f 48/48/48 50/50/50 37/37/37
f 37/37/37 50/50/50 39/39/39
f 31/31/31 49/49/49 33/33/33
f 50/50/50 51/51/51 39/39/39
f 52/52/52 49/49/49 31/31/31
f 39/39/39 51/51/51 41/41/41
f 53/53/53 52/52/52 31/31/31
f 51/51/51 54/54/54 41/41/41
f 55/55/55 52/52/52 53/53/53
f 46/46/46 55/55/55 53/53/53
f 41/41/41 54/54/54 43/43/43
f 56/56/56 55/55/55 46/46/46
f 54/54/54 57/57/57 43/43/43
f 45/45/45 56/56/56 46/46/46
f 43/43/43 57/57/57 45/45/45
f 57/57/57 56/56/56 45/45/45
f 60/60/60 59/59/59 58/58/58
f 59/59/59 61/61/61 58/58/58
f 59/59/59 62/62/62 61/61/61
f 62/62/62 63/63/63 61/61/61
f 62/62/62 64/64/64 63/63/63
f 64/64/64 65/65/65 63/63/63
f 64/64/64 66/66/66 65/65/65
f 66/66/66 67/67/67 65/65/65
f 66/66/66 68/68/68 67/67/67
f 68/68/68 69/69/69 67/67/67
f 68/68/68 70/70/70 69/69/69
f 70/70/70 71/71/71 69/69/69
f 70/70/70 72/72/72 71/71/71
f 72/72/72 73/73/73 71/71/71
f 72/72/72 74/74/74 73/73/73
f 74/74/74 75/75/75 73/73/73
f 74/74/74 76/76/76 75/75/75
f 76/76/76 77/77/77 75/75/75
