g Cylinder.001
v -0.003789 0.004192437 -3.410041E-05
v 3.283121E-08 0.004600122 -0.001837805
v -0.001173224 0.004583921 0.001041498
v -0.005613347 0.003639889 0.0008432293
v -0.006225771 0.002246457 -0.002985193
v -0.004148116 0.003375349 -0.002279029
v 3.283121E-08 0.004600122 -0.001837805
v -0.002814831 0.00268834 0.004604838
v -0.009986712 -0.002399133 0.005719848
v -0.003773785 -0.0012806 0.008792987
v 3.283121E-08 0.004474329 0.0007403931
v 3.283121E-08 0.004600122 -0.001837805
v 0.001173289 0.004583921 0.001041498
v 0.003789065 0.004192437 -3.410041E-05
v 0.004148182 0.003375349 -0.002279029
v 0.006225837 0.002246457 -0.002985193
v 0.005613413 0.003639889 0.0008432293
v 3.283121E-08 0.002469153 0.00400263
v 3.283121E-08 -0.001088816 0.009319907
v 0.00377385 -0.0012806 0.008792987
v 0.002814896 0.00268834 0.004604838
v 0.009986778 -0.002399133 0.005719848
v -0.008371201 -0.005833219 -0.00241844
v -0.006225771 0.002246457 -0.002985193
v -0.01111984 -0.004733666 -0.0006942347
v -0.006872379 -0.0002544737 -0.00348047
v -0.004148116 0.003375349 -0.002279029
v -0.003201998 0.003112515 -0.003001157
v 3.283121E-08 0.004600122 -0.001837805
v 0.003202064 0.003112515 -0.003001157
v 0.004148182 0.003375349 -0.002279029
v 0.006872444 -0.0002544737 -0.00348047
v 0.006225837 0.002246457 -0.002985193
v 0.008371267 -0.005833219 -0.00241844
v 0.01111991 -0.004733666 -0.0006942347
v -0.003773784 -0.005971183 -0.004545385
v -0.006872379 -0.0002544737 -0.00348047
v -0.008371201 -0.005833219 -0.00241844
v -0.002814831 -0.0005950677 -0.004201991
v -0.003201998 0.003112515 -0.003001157
v 3.283121E-08 -0.005975205 -0.004734263
v -0.001173224 0.002942218 -0.003469045
v 3.283121E-08 0.004600122 -0.001837805
v 3.283121E-08 -0.0005950677 -0.004201991
v 0.002814896 -0.0005950677 -0.004201991
v 0.00377385 -0.005971183 -0.004545385
v 3.283121E-08 0.002942218 -0.003469045
v 3.283121E-08 0.004600122 -0.001837805
v 0.001173289 0.002942218 -0.003469045
v 0.003202064 0.003112515 -0.003001157
v 0.006872444 -0.0002544737 -0.00348047
v 0.008371267 -0.005833219 -0.00241844
v 0.01111991 -0.004733666 -0.0006942347
v 0.009986778 -0.002399133 0.005719848
v 0.005613413 0.003639889 0.0008432293
v 0.006225837 0.002246457 -0.002985193
v 0.009986778 -0.002399133 0.005719848
v 0.01111991 -0.004733666 -0.0006942347
v 0.008371267 -0.005833219 -0.00241844
v 0.00377385 -0.0012806 0.008792987
v 0.00377385 -0.005971183 -0.004545385
v 3.283121E-08 -0.005975205 -0.004734263
v 3.283121E-08 -0.001088816 0.009319907
v -0.003773785 -0.0012806 0.008792987
v -0.003773784 -0.005971183 -0.004545385
v -0.008371201 -0.005833219 -0.00241844
v -0.009986712 -0.002399133 0.005719848
v -0.003773785 -0.0012806 0.008792987
v -0.008371201 -0.005833219 -0.00241844
v -0.01111984 -0.004733666 -0.0006942347
v -0.01111984 -0.004733666 -0.0006942347
v -0.006225771 0.002246457 -0.002985193
v -0.005613347 0.003639889 0.0008432293
v -0.009986712 -0.002399133 0.005719848
v -1.006832E-07 0.002152591 0.0007877084
v 0.00138554 -0.004383012 0.003098276
v -1.006832E-07 -0.00407552 0.003836821
v 0.001033676 0.001900351 0.0002467778
v 0.00138554 -0.004997995 0.001621184
v 0.001033676 0.00139587 -0.0008350837
v -1.006832E-07 -0.005305487 0.0008826387
v -1.006832E-07 0.001143631 -0.001376015
v -0.001385742 -0.004997995 0.001621184
v -0.001033877 0.00139587 -0.0008350837
v -0.001385742 -0.004383012 0.003098276
v -0.001033877 0.001900351 0.0002467778
v -1.006832E-07 -0.00407552 0.003836821
v -1.006832E-07 0.002152591 0.0007877084
v 0.00138554 -0.004997995 0.001621184
v -1.006832E-07 -0.005305487 0.0008826387
v -0.001385742 -0.004997995 0.001621184
v 0.00138554 -0.004383012 0.003098276
v -0.001385742 -0.004383012 0.003098276
v -1.006832E-07 -0.00407552 0.003836821
v -0.001033877 0.00139587 -0.0008350837
v -1.006832E-07 0.001143631 -0.001376015
v 0.001033676 0.00139587 -0.0008350837
v -0.001033877 0.001900351 0.0002467778
v 0.001033676 0.001900351 0.0002467778
v -1.006832E-07 0.002152591 0.0007877084
v -0.005638743 -0.001358076 0.002254694
v -0.008579322 0.0001648495 0.001583519
v -0.007996351 0.001073154 0.001089214
v -0.005287944 -0.0004846962 0.001730024
v -0.0078955 0.001141546 -9.161651E-05
v -0.005015471 -0.0005542967 0.0006898093
v -0.008377622 0.0003016344 -0.0007781425
v -0.005093799 -0.001497276 0.0001742652
v -0.008960593 -0.0006066699 -0.000283837
v -0.005444599 -0.002370656 0.000698936
v -0.009061444 -0.0006750623 0.0008969938
v -0.005717071 -0.002301056 0.00173915
v -0.008579322 0.0001648495 0.001583519
v -0.005638743 -0.001358076 0.002254694
v -0.008579322 0.0001648495 0.001583519
v -0.009061444 -0.0006750623 0.0008969938
v -0.008960593 -0.0006066699 -0.000283837
v -0.008377622 0.0003016344 -0.0007781425
v -0.007996351 0.001073154 0.001089214
v -0.0078955 0.001141546 -9.161651E-05
v -0.005093799 -0.001497276 0.0001742652
v -0.005444599 -0.002370656 0.000698936
v -0.005717071 -0.002301056 0.00173915
v -0.005638743 -0.001358076 0.002254694
v -0.005015471 -0.0005542967 0.0006898093
v -0.005287944 -0.0004846962 0.001730024
vt 0.3999999 0.5
vt 0.3999999 0.5
vt 0.2999999 0.5
vt 0.3999999 0.5
vt 0.4999999 0.5
vt 0.4999999 0.5
vt 0.4999999 0.5
vt 0.2999999 0.5
vt 0.3999999 0.5
vt 0.2999999 0.5
vt 0.2499999 0.5
vt 0.2999999 0.5
vt 0.2999999 0.5
vt 0.3999999 0.5
vt 0.4999999 0.5
vt 0.4999999 0.5
vt 0.3999999 0.5
vt 0.2499999 0.5
vt 0.2499999 0.5
vt 0.2999999 0.5
vt 0.2999999 0.5
vt 0.3999999 0.5
vt 0.8910685 0.05583592
vt 0.75 0.01000001
vt 0.75 0.01000001
vt 0.8910685 0.05583592
vt 0.75 0.01000001
vt 0.8910685 0.05583592
vt 0.8910685 0.05583592
vt 0.8910685 0.05583592
vt 0.75 0.01000001
vt 0.8910685 0.05583592
vt 0.75 0.01000001
vt 0.8910685 0.05583592
vt 0.75 0.01000001
vt 0.6999999 0.5
vt 0.5999999 0.5
vt 0.5999999 0.5
vt 0.6999999 0.5
vt 0.5999999 0.5
vt 0.7499999 0.5
vt 0.6999999 0.5
vt 0.6999999 0.5
vt 0.7499999 0.5
vt 0.6999999 0.5
vt 0.6999999 0.5
vt 0.7499999 0.5
vt 0.7499999 0.5
vt 0.6999999 0.5
vt 0.5999999 0.5
vt 0.5999999 0.5
vt 0.5999999 0.5
vt 0.75 0.01000001
vt 0.3999999 0.5
vt 0.3999999 0.5
vt 0.4999999 0.5
vt 0.3999999 0.5
vt 0.75 0.01000001
vt 0.8910685 0.05583592
vt 0.2999999 0.5
vt 0.6999999 0.5
vt 0.7499999 0.5
vt 0.2499999 0.5
vt 0.2999999 0.5
vt 0.6999999 0.5
vt 0.5999999 0.5
vt 0.3999999 0.5
vt 0.2999999 0.5
vt 0.8910685 0.05583592
vt 0.75 0.01000001
vt 0.75 0.01000001
vt 0.4999999 0.5
vt 0.3999999 0.5
vt 0.3999999 0.5
vt 1 0.5
vt 0.8333333 1
vt 1 1
vt 0.8333333 0.5
vt 0.6666666 1
vt 0.6666666 0.5
vt 0.4999999 1
vt 0.4999999 0.5
vt 0.3333333 1
vt 0.3333333 0.5
vt 0.1666666 1
vt 0.1666666 0.5
vt -8.940697E-08 1
vt -8.940697E-08 0.5
vt 0.4578461 0.13
vt 0.25 0.01000001
vt 0.04215391 0.13
vt 0.4578461 0.37
vt 0.04215391 0.37
vt 0.25 0.49
vt 0.5421539 0.13
vt 0.75 0.01000001
vt 0.9578461 0.13
vt 0.5421539 0.37
vt 0.9578461 0.37
vt 0.75 0.49
vt 1 0.5
vt 1 1
vt 0.8333333 1
vt 0.8333333 0.5
vt 0.6666666 1
vt 0.6666666 0.5
vt 0.4999999 1
vt 0.4999999 0.5
vt 0.3333333 1
vt 0.3333333 0.5
vt 0.1666666 1
vt 0.1666666 0.5
vt -8.940697E-08 1
vt -8.940697E-08 0.5
vt 0.25 0.49
vt 0.04215391 0.37
vt 0.04215391 0.13
vt 0.25 0.01000001
vt 0.4578461 0.37
vt 0.4578461 0.13
vt 0.75 0.01000001
vt 0.5421539 0.13
vt 0.5421539 0.37
vt 0.75 0.49
vt 0.9578461 0.13
vt 0.9578461 0.37
vn -0.2692442 0.9629278 -0.01666255
vn 0 0.9280496 -0.3724568
vn -0.002842073 0.9623972 0.2716316
vn -0.3640949 0.9058784 0.2163775
vn -0.2883121 0.5234519 -0.8017944
vn -0.2660443 0.7874836 -0.5559586
vn 0 0.9280496 -0.3724568
vn -0.1608175 0.8205233 0.5485246
vn -0.4269417 0.7213752 0.5452876
vn -0.2165289 0.7716334 0.5980778
vn 0 0.9640076 0.2658746
vn 0 0.9280496 -0.3724568
vn 0.002842065 0.9623972 0.2716316
vn 0.2692442 0.9629278 -0.01666259
vn 0.2660444 0.7874835 -0.5559587
vn 0.2883122 0.5234517 -0.8017945
vn 0.364095 0.9058784 0.2163775
vn 0 0.8194048 0.5732154
vn 0 0.7834654 0.6214353
vn 0.2165289 0.7716334 0.5980778
vn 0.1608176 0.8205233 0.5485247
vn 0.4269417 0.7213752 0.5452876
vn -0.4922363 0.06589834 -0.8679637
vn -0.2883121 0.5234519 -0.8017944
vn -0.6247202 0.1116747 -0.7728218
vn -0.4297535 0.1377214 -0.8923815
vn -0.2660443 0.7874836 -0.5559586
vn -0.1590598 0.558118 -0.8143736
vn 0 0.9280496 -0.3724568
vn 0.1590598 0.5581179 -0.8143736
vn 0.2660444 0.7874835 -0.5559587
vn 0.4297535 0.1377213 -0.8923815
vn 0.2883122 0.5234517 -0.8017945
vn 0.4922363 0.06589823 -0.8679637
vn 0.62472 0.1116744 -0.7728218
vn -0.1852133 0.04272563 -0.9817691
vn -0.4297535 0.1377214 -0.8923815
vn -0.4922363 0.06589834 -0.8679637
vn -0.1321493 0.1509631 -0.9796666
vn -0.1590598 0.558118 -0.8143736
vn 0 0.08366676 -0.9964938
vn -0.06342457 0.4849562 -0.8722355
vn 0 0.9280496 -0.3724568
vn 0 0.1435542 -0.9896424
vn 0.1321492 0.1509631 -0.9796666
vn 0.1852133 0.04272565 -0.9817691
vn 0 0.4713343 -0.8819546
vn 0 0.9280496 -0.3724568
vn 0.06342456 0.4849562 -0.8722355
vn 0.1590598 0.5581179 -0.8143736
vn 0.4297535 0.1377213 -0.8923815
vn 0.4922363 0.06589823 -0.8679637
vn 0.7209436 -0.5843479 0.372529
vn 0.6442857 -0.659311 0.387563
vn 0.8287643 0.5562397 -0.06121433
vn 0.8287643 0.5562397 -0.06121433
vn 0.6442857 -0.659311 0.387563
vn 0.7209436 -0.5843479 0.372529
vn -0.04449444 -0.9346224 0.3528475
vn -0.007332689 -0.9392807 0.3430713
vn -0.05686666 -0.9421943 0.3302062
vn 0 -0.9439703 0.3300305
vn 0 -0.9439703 0.3300305
vn 0.007332687 -0.9392807 0.3430713
vn 0.05686666 -0.9421943 0.3302062
vn 0.04449443 -0.9346223 0.3528475
vn -0.6442859 -0.6593109 0.3875628
vn 0.007332687 -0.9392807 0.3430713
vn 0.04449443 -0.9346223 0.3528475
vn -0.7209437 -0.5843479 0.3725289
vn -0.7209437 -0.5843479 0.3725289
vn -0.8287644 0.5562395 -0.06121439
vn -0.8287644 0.5562395 -0.06121439
vn -0.6442859 -0.6593109 0.3875628
vn 0 0.8918098 0.4524105
vn 0.7008616 -0.3868157 0.5993052
vn 0 -0.2308749 0.9729835
vn 0.6717446 0.7343539 0.09738395
vn 0.7003998 -0.6983402 -0.1475169
vn 0.6705403 0.420601 -0.6111223
vn 0 -0.8538586 -0.5205051
vn 0 0.2643842 -0.9644175
vn -0.7003998 -0.6983402 -0.1475169
vn -0.6705403 0.420601 -0.6111223
vn -0.7008616 -0.3868157 0.5993052
vn -0.6717445 0.734354 0.09738394
vn 0 -0.2308749 0.9729835
vn 0 0.8918098 0.4524105
vn 0.7003998 -0.6983402 -0.1475169
vn 0 -0.8538586 -0.5205051
vn -0.7003998 -0.6983402 -0.1475169
vn 0.7008616 -0.3868157 0.5993052
vn -0.7008616 -0.3868157 0.5993052
vn 0 -0.2308749 0.9729835
vn -0.6705403 0.420601 -0.6111223
vn 0 0.2643842 -0.9644175
vn 0.6705403 0.420601 -0.6111223
vn -0.6717445 0.734354 0.09738394
vn 0.6717446 0.7343539 0.09738395
vn 0 0.8918098 0.4524105
vn 0.3702531 -0.1589397 0.9152325
vn -0.6352755 0.2965557 0.7130777
vn -0.231978 0.8968118 0.376716
vn 0.7037742 0.4434464 0.5550291
vn -0.1056506 0.907771 -0.4059429
vn 0.891815 0.4057002 -0.2001835
vn -0.3949931 0.3071394 -0.8658209
vn 0.7519171 -0.239142 -0.6143548
vn -0.7961964 -0.3079949 -0.5207788
vn 0.4363379 -0.86159 -0.2593685
vn -0.911136 -0.3117383 0.2695372
vn 0.2418478 -0.8246121 0.5113949
vn -0.6352755 0.2965557 0.7130777
vn 0.3702531 -0.1589397 0.9152325
vn -0.6352755 0.2965557 0.7130777
vn -0.911136 -0.3117383 0.2695372
vn -0.7961964 -0.3079949 -0.5207788
vn -0.3949931 0.3071394 -0.8658209
vn -0.231978 0.8968118 0.376716
vn -0.1056506 0.907771 -0.4059429
vn 0.7519171 -0.239142 -0.6143548
vn 0.4363379 -0.86159 -0.2593685
vn 0.2418478 -0.8246121 0.5113949
vn 0.3702531 -0.1589397 0.9152325
vn 0.891815 0.4057002 -0.2001835
vn 0.7037742 0.4434464 0.5550291
g Cylinder.001_0
f 3/3/3 2/2/2 1/1/1
f 3/3/3 1/1/1 4/4/4
f 4/4/4 1/1/1 5/5/5
f 1/1/1 6/6/6 5/5/5
f 1/1/1 7/7/7 6/6/6
f 8/8/8 3/3/3 4/4/4
f 8/8/8 4/4/4 9/9/9
f 10/10/10 8/8/8 9/9/9
f 11/11/11 3/3/3 8/8/8
f 11/11/11 12/12/12 3/3/3
f 12/12/12 11/11/11 13/13/13
f 2/2/2 13/13/13 14/14/14
f 7/7/7 14/14/14 15/15/15
f 15/15/15 14/14/14 16/16/16
f 14/14/14 17/17/17 16/16/16
f 14/14/14 13/13/13 17/17/17
f 18/18/18 8/8/8 10/10/10
f 18/18/18 11/11/11 8/8/8
f 19/19/19 18/18/18 10/10/10
f 18/18/18 19/19/19 20/20/20
f 13/13/13 21/21/21 17/17/17
f 13/13/13 11/11/11 21/21/21
f 11/11/11 18/18/18 21/21/21
f 21/21/21 18/18/18 20/20/20
f 17/17/17 21/21/21 22/22/22
f 21/21/21 20/20/20 22/22/22
g Cylinder.001_1
f 25/25/25 24/24/24 23/23/23
f 24/24/24 26/26/26 23/23/23
f 24/24/24 27/27/27 26/26/26
f 27/27/27 28/28/28 26/26/26
f 27/27/27 29/29/29 28/28/28
f 29/29/29 31/31/31 30/30/30
f 30/30/30 31/31/31 32/32/32
f 31/31/31 33/33/33 32/32/32
f 32/32/32 33/33/33 34/34/34
f 33/33/33 35/35/35 34/34/34
f 38/38/38 37/37/37 36/36/36
f 37/37/37 39/39/39 36/36/36
f 37/37/37 40/40/40 39/39/39
f 36/36/36 39/39/39 41/41/41
f 40/40/40 42/42/42 39/39/39
f 40/40/40 43/43/43 42/42/42
f 39/39/39 44/44/44 41/41/41
f 39/39/39 42/42/42 44/44/44
f 44/44/44 45/45/45 41/41/41
f 45/45/45 46/46/46 41/41/41
f 42/42/42 47/47/47 44/44/44
f 42/42/42 48/48/48 47/47/47
f 48/48/48 49/49/49 47/47/47
f 47/47/47 49/49/49 44/44/44
f 49/49/49 45/45/45 44/44/44
f 43/43/43 50/50/50 49/49/49
f 49/49/49 50/50/50 45/45/45
f 50/50/50 51/51/51 45/45/45
f 45/45/45 51/51/51 46/46/46
f 51/51/51 52/52/52 46/46/46
g Cylinder.001_2
f 55/55/55 54/54/54 53/53/53
f 56/56/56 55/55/55 53/53/53
f 59/59/59 58/58/58 57/57/57
f 60/60/60 59/59/59 57/57/57
f 60/60/60 61/61/61 59/59/59
f 62/62/62 61/61/61 60/60/60
f 63/63/63 62/62/62 60/60/60
f 62/62/62 63/63/63 64/64/64
f 65/65/65 62/62/62 64/64/64
f 64/64/64 66/66/66 65/65/65
f 69/69/69 68/68/68 67/67/67
f 70/70/70 69/69/69 67/67/67
f 73/73/73 72/72/72 71/71/71
f 74/74/74 73/73/73 71/71/71
g Cylinder.001_3
f 77/77/77 76/76/76 75/75/75
f 76/76/76 78/78/78 75/75/75
f 76/76/76 79/79/79 78/78/78
f 79/79/79 80/80/80 78/78/78
f 79/79/79 81/81/81 80/80/80
f 81/81/81 82/82/82 80/80/80
f 81/81/81 83/83/83 82/82/82
f 83/83/83 84/84/84 82/82/82
f 83/83/83 85/85/85 84/84/84
f 85/85/85 86/86/86 84/84/84
f 85/85/85 87/87/87 86/86/86
f 87/87/87 88/88/88 86/86/86
f 91/91/91 90/90/90 89/89/89
f 89/89/89 92/92/92 91/91/91
f 92/92/92 93/93/93 91/91/91
f 92/92/92 94/94/94 93/93/93
f 97/97/97 96/96/96 95/95/95
f 95/95/95 98/98/98 97/97/97
f 98/98/98 99/99/99 97/97/97
f 98/98/98 100/100/100 99/99/99
f 103/103/103 102/102/102 101/101/101
f 104/104/104 103/103/103 101/101/101
f 105/105/105 103/103/103 104/104/104
f 106/106/106 105/105/105 104/104/104
f 107/107/107 105/105/105 106/106/106
f 108/108/108 107/107/107 106/106/106
f 109/109/109 107/107/107 108/108/108
f 110/110/110 109/109/109 108/108/108
f 111/111/111 109/109/109 110/110/110
f 112/112/112 111/111/111 110/110/110
f 113/113/113 111/111/111 112/112/112
f 114/114/114 113/113/113 112/112/112
f 117/117/117 116/116/116 115/115/115
f 115/115/115 118/118/118 117/117/117
f 115/115/115 119/119/119 118/118/118
f 119/119/119 120/120/120 118/118/118
f 123/123/123 122/122/122 121/121/121
f 121/121/121 124/124/124 123/123/123
f 121/121/121 125/125/125 124/124/124
f 125/125/125 126/126/126 124/124/124
