g Cylinder.012
v 0.0006274153 -0.001505728 -0.0001884203
v -0.00105567 -0.001568409 -5.888891E-05
v 0.0003865272 -0.001811304 -5.946684E-05
v -0.00113054 -0.001186838 -0.0001880627
v 0.0008683029 -0.0009979449 -0.0002558789
v -0.00219182 -0.001195325 -2.932453E-05
v -0.001205409 -0.0006030622 -0.0002558789
v -0.002507662 -0.0006841364 -0.0001196771
v -0.002596493 -0.0009003082 2.473736E-05
v -0.002823503 2.925968E-05 -0.0001599402
v -0.002982207 -0.0002225104 1.001167E-05
v -0.002127595 -0.000854722 8.031417E-05
v -0.003367922 0.0006574931 -4.709721E-06
v -0.002379155 -7.62606E-06 0.0001406446
v -0.0009302199 -0.001133763 0.000114881
v -0.002630715 0.001041676 0.0001505237
v -0.0009118457 -2.089979E-05 0.0002084508
v 0.0005119769 -0.001376658 0.0001143031
v -0.0008934708 0.001035059 0.0002464624
v 0.0008461092 -0.000339788 0.0002080917
v 0.001648127 -0.001490635 7.880211E-05
v 0.001180241 0.0006401782 0.0002464624
v 0.002223231 -0.0008424897 0.0001397076
v 0.0020528 -0.001785642 2.473736E-05
v 0.002798335 7.857792E-06 0.0001505237
v 0.002697777 -0.001304113 1.001167E-05
v 0.001583902 -0.001831235 -3.083658E-05
v 0.003342754 -0.0006203771 -4.709721E-06
v 0.002094724 -0.001519002 -0.0001206155
v 0.0003865272 -0.001811304 -5.946684E-05
v 0.002605547 -0.00100456 -0.0001599402
v 0.0006274153 -0.001505728 -0.0001884203
v 0.0008683029 -0.0009979449 -0.0002558789
v 0.002605547 -0.00100456 -0.0001599402
v 0.001129817 -0.0008681016 -0.0003066692
v 0.0008683029 -0.0009979449 -0.0002558789
v 0.003249914 -0.0008761697 -0.0001895876
v 0.003342754 -0.0006203771 -4.709721E-06
v 0.004149586 -0.0004073196 -1.449583E-07
v 0.00372412 0.0007362485 -0.0002351809
v 0.004678893 0.0013708 -3.693628E-05
v 0.002798335 7.857792E-06 0.0001505237
v 0.003485189 0.0003593645 0.0001892977
v 0.004678893 0.0013708 -3.693628E-05
v 0.001180241 0.0006401782 0.0002464624
v 0.003947503 0.002025219 0.000158114
v 0.0015105 0.001131035 0.0003063779
v 0.001955896 0.001874157 0.0002808404
v -0.0007970014 0.003056195 0.0002881274
v -0.0008934708 0.001035059 0.0002464624
v -0.001020217 0.001612943 0.0003063779
v -0.002630715 0.001041676 0.0001505237
v -0.003140315 0.001621016 0.0001892977
v -0.0007970014 0.003056195 0.0002881274
v -0.002958353 0.003165967 0.0001629119
v -0.003367922 0.0006574931 -4.709721E-06
v -0.003947583 0.002401318 -2.56753E-05
v -0.004039987 0.001152165 -1.449583E-07
v -0.002823503 2.925968E-05 -0.0001599402
v -0.00337559 0.0003854813 -0.0001895876
v -0.003244516 0.001895856 -0.0002310367
v -0.001205409 -0.0006030622 -0.0002558789
v -0.001400901 -0.0003861923 -0.0003066692
v -0.001208664 0.0009318967 -0.0003483816
v 0.0008683029 -0.0009979449 -0.0002558789
v 0.001440253 -0.0002996707 -0.0003150635
v 0.001129817 -0.0008681016 -0.0003066692
v 0.001440253 -0.0002996707 -0.0003150635
v 0.001129817 -0.0008681016 -0.0003066692
v 0.003249914 -0.0008761697 -0.0001895876
v 0.00372412 0.0007362485 -0.0002351809
v -0.000386485 -0.001944994 3.47352E-05
v -0.000386485 -0.001944994 3.47352E-05
v -0.000386485 -0.001944994 3.47352E-05
v -0.000386485 -0.001944994 3.47352E-05
v -0.000386485 -0.001944994 3.47352E-05
v -0.000386485 -0.001944994 3.47352E-05
v -0.000386485 -0.001944994 3.47352E-05
v -0.000386485 -0.001944994 3.47352E-05
v -0.000386485 -0.001944994 3.47352E-05
v -0.000386485 -0.001944994 3.47352E-05
v 0.004678893 0.0013708 -3.693628E-05
v -0.003244516 0.001895856 -0.0002310367
v 0.00372412 0.0007362485 -0.0002351809
v -0.003947583 0.002401318 -2.56753E-05
v 0.003947503 0.002025219 0.000158114
v -0.002958353 0.003165967 0.0001629119
v 0.001955896 0.001874157 0.0002808404
v -0.0007970014 0.003056195 0.0002881274
v -0.001208664 0.0009318967 -0.0003483816
v 0.001440253 -0.0002996707 -0.0003150635
v 0.00372412 0.0007362485 -0.0002351809
v -0.003244516 0.001895856 -0.0002310367
vt 0.9999999 0.75
vt 0.9 0.8333333
vt 0.9999999 0.8333333
vt 0.9 0.75
vt 0.9999999 0.6666667
vt 0.8 0.8333333
vt 0.9 0.6666667
vt 0.8 0.75
vt 0.7 0.8333333
vt 0.8 0.6666667
vt 0.7 0.7500001
vt 0.6 0.8333333
vt 0.7 0.6666667
vt 0.5999999 0.7499999
vt 0.5 0.8333333
vt 0.6 0.6666667
vt 0.5 0.7499999
vt 0.4 0.8333333
vt 0.5 0.6666667
vt 0.4 0.7499999
vt 0.3 0.8333333
vt 0.4 0.6666667
vt 0.3 0.7500001
vt 0.2 0.8333333
vt 0.3 0.6666667
vt 0.2 0.7499999
vt 0.09999999 0.8333333
vt 0.2 0.6666667
vt 0.1 0.75
vt 0 0.8333333
vt 0.09999999 0.6666667
vt 0 0.75
vt 0 0.6666667
vt 0.09999999 0.6666667
vt 0 0.6666667
vt 0 0.6666667
vt 0.09999999 0.6666667
vt 0.2 0.6666667
vt 0.2 0.6666667
vt 0.09999999 0.6142012
vt 0.2 0.6150452
vt 0.3 0.6666667
vt 0.3 0.6666667
vt 0.2025337 0.6159853
vt 0.4 0.6666667
vt 0.2999998 0.6235105
vt 0.4 0.6666667
vt 0.4 0.6381787
vt 0.5 0.6242675
vt 0.5 0.6666667
vt 0.5 0.6666667
vt 0.6 0.6666667
vt 0.6 0.6666667
vt 0.4999994 0.6242675
vt 0.6 0.6280804
vt 0.7 0.6666667
vt 0.6999997 0.6285851
vt 0.7 0.6666667
vt 0.8 0.6666667
vt 0.8 0.6666667
vt 0.8 0.6175436
vt 0.9 0.6666667
vt 0.9 0.6666667
vt 0.9 0.6221473
vt 0.9999999 0.6666667
vt 0.9999999 0.6451024
vt 0.9999999 0.6666667
vt 0.851308 0.6493959
vt 0.9999999 0.6666667
vt 0.09999999 0.6666667
vt 0.09999999 0.6142012
vt 0.05000001 1
vt 0.15 1
vt 0.25 1
vt 0.35 1
vt 0.45 1
vt 0.55 1
vt 0.65 1
vt 0.75 1
vt 0.85 1
vt 0.95 1
vt 0.2 0.6150452
vt 0.8 0.6175436
vt 0.09999999 0.6142012
vt 0.6999997 0.6285851
vt 0.2999998 0.6235105
vt 0.6 0.6280804
vt 0.4 0.6381787
vt 0.5 0.6242675
vt 0.9 0.6221473
vt 0.851308 0.6493959
vt 0.09999999 0.6142012
vt 0.8 0.6175436
vn 0.002097372 -0.2491224 -0.9684697
vn -0.1429449 -0.440551 -0.886274
vn -0.01427597 -0.473495 -0.8806809
vn -0.08171491 -0.2194346 -0.9721991
vn 0.02105362 -0.1318797 -0.9910421
vn -0.4710899 -0.8752132 -0.1098916
vn -0.06844961 -0.1146328 -0.991047
vn -0.30239 -0.2526862 -0.919081
vn -0.760874 -0.6085293 0.2253062
vn -0.4157991 -0.2213889 -0.8820987
vn -0.8759272 -0.4406593 0.1963953
vn -0.09014118 -0.1325747 0.9870657
vn -0.3415092 -0.1313502 0.9306549
vn -0.109396 -0.06291143 0.9920054
vn -0.03970835 -0.1082033 0.9933354
vn -0.1174291 -0.04331452 0.9921362
vn -0.02977358 -0.05693621 0.9979337
vn 0.003253149 -0.1212085 0.9926218
vn -0.03010633 -0.03215662 0.9990293
vn 0.008393111 -0.06526802 0.9978325
vn 0.03282534 -0.1340729 0.9904276
vn 0.01614046 -0.04106066 0.9990263
vn 0.07730101 -0.09785926 0.9921936
vn 0.4306447 -0.8768523 0.213717
vn 0.09306317 -0.08072088 0.9923827
vn 0.6548873 -0.7350746 0.175465
vn 0.08672866 -0.885204 -0.4570472
vn 0.2753576 -0.2431908 0.9300734
vn 0.1715727 -0.3455668 -0.922576
vn -0.01427597 -0.473495 -0.8806809
vn 0.2877471 -0.3289505 -0.8994405
vn 0.002097372 -0.2491224 -0.9684697
vn 0.02105362 -0.1318797 -0.9910421
vn 0.07051416 -0.5465896 -0.8344266
vn 0.02380778 -0.2366773 -0.9712966
vn -0.0346983 -0.3026823 -0.9524596
vn 0.3440749 -0.885449 -0.312398
vn 0.1155686 -0.4565481 0.8821609
vn 0.8051002 -0.5885573 0.07357918
vn 0.2074994 -0.0861372 -0.9744353
vn 0.446174 -0.1142296 0.8876263
vn 0.02330359 -0.1544885 0.9877198
vn 0.1059273 -0.09072675 0.9902263
vn 0.446174 -0.1142296 0.8876263
vn -0.008418753 -0.1155768 0.9932628
vn 0.1386147 -0.02119107 0.9901197
vn 0.014462 -0.05065611 0.9986115
vn 0.03928752 0.007525654 0.9991997
vn -0.02613877 0.0203174 0.9994518
vn -0.03464719 -0.1105822 0.9932628
vn -0.033095 -0.04205739 0.9985669
vn -0.07845028 -0.1351121 0.9877198
vn -0.1312752 -0.04560042 0.9902967
vn -0.02613877 0.0203174 0.9994518
vn -0.1109061 0.02831089 0.9934276
vn -0.2752694 -0.382122 0.8821618
vn -0.5429089 0.06157584 0.8375311
vn -0.96362 -0.2569003 0.07374686
vn -0.2664616 -0.4824208 -0.834427
vn -0.6443066 -0.6980507 -0.3124005
vn -0.2015672 -0.008510297 -0.9794377
vn -0.07897212 -0.2942517 -0.9524596
vn -0.1103599 -0.2115302 -0.9711208
vn -0.0410244 -0.02338916 -0.9988844
vn -0.0346983 -0.3026823 -0.9524596
vn 0.03349074 -0.03752906 -0.9987342
vn 0.02380778 -0.2366773 -0.9712966
vn 0.03349074 -0.03752906 -0.9987342
vn 0.02380778 -0.2366773 -0.9712966
vn 0.3440749 -0.885449 -0.312398
vn 0.2074994 -0.0861372 -0.9744353
vn -0.1681511 -0.9786315 0.1183457
vn -0.1681511 -0.9786315 0.1183457
vn -0.1681511 -0.9786315 0.1183457
vn -0.1681511 -0.9786315 0.1183457
vn -0.1681511 -0.9786315 0.1183457
vn -0.1681511 -0.9786315 0.1183457
vn -0.1681511 -0.9786315 0.1183457
vn -0.1681511 -0.9786315 0.1183457
vn -0.1681511 -0.9786315 0.1183457
vn -0.1681511 -0.9786315 0.1183457
vn 0.03998959 0.2921722 -0.9555293
vn 0.04301399 0.3031332 -0.9519769
vn 0.04123866 0.2800468 -0.9591001
vn 0.03878467 0.2837898 -0.9581019
vn 0.05395444 0.3393485 -0.9391121
vn 0.04546882 0.3023733 -0.9521045
vn 0.177892 0.7363256 0.6528239
vn 0.177892 0.7363256 0.6528239
vn 0.02659873 0.09484153 -0.995137
vn 0.02659873 0.09484153 -0.995137
vn 0.04123866 0.2800468 -0.9591001
vn 0.04301399 0.3031332 -0.9519769
g Cylinder.012_0
f 3/3/3 2/2/2 1/1/1
f 2/2/2 4/4/4 1/1/1
f 1/1/1 4/4/4 5/5/5
f 2/2/2 6/6/6 4/4/4
f 4/4/4 7/7/7 5/5/5
f 6/6/6 8/8/8 4/4/4
f 4/4/4 8/8/8 7/7/7
f 6/6/6 9/9/9 8/8/8
f 8/8/8 10/10/10 7/7/7
f 9/9/9 11/11/11 8/8/8
f 8/8/8 11/11/11 10/10/10
f 9/9/9 12/12/12 11/11/11
f 11/11/11 13/13/13 10/10/10
f 12/12/12 14/14/14 11/11/11
f 11/11/11 14/14/14 13/13/13
f 12/12/12 15/15/15 14/14/14
f 14/14/14 16/16/16 13/13/13
f 15/15/15 17/17/17 14/14/14
f 14/14/14 17/17/17 16/16/16
f 15/15/15 18/18/18 17/17/17
f 17/17/17 19/19/19 16/16/16
f 18/18/18 20/20/20 17/17/17
f 17/17/17 20/20/20 19/19/19
f 18/18/18 21/21/21 20/20/20
f 20/20/20 22/22/22 19/19/19
f 21/21/21 23/23/23 20/20/20
f 20/20/20 23/23/23 22/22/22
f 21/21/21 24/24/24 23/23/23
f 23/23/23 25/25/25 22/22/22
f 24/24/24 26/26/26 23/23/23
f 23/23/23 26/26/26 25/25/25
f 24/24/24 27/27/27 26/26/26
f 26/26/26 28/28/28 25/25/25
f 27/27/27 29/29/29 26/26/26
f 26/26/26 29/29/29 28/28/28
f 27/27/27 30/30/30 29/29/29
f 29/29/29 31/31/31 28/28/28
f 30/30/30 32/32/32 29/29/29
f 29/29/29 32/32/32 31/31/31
f 32/32/32 33/33/33 31/31/31
g Cylinder.012_1
f 36/36/36 35/35/35 34/34/34
f 35/35/35 37/37/37 34/34/34
f 34/34/34 37/37/37 38/38/38
f 37/37/37 39/39/39 38/38/38
f 37/37/37 40/40/40 39/39/39
f 40/40/40 41/41/41 39/39/39
f 38/38/38 39/39/39 42/42/42
f 39/39/39 43/43/43 42/42/42
f 39/39/39 44/44/44 43/43/43
f 42/42/42 43/43/43 45/45/45
f 44/44/44 46/46/46 43/43/43
f 43/43/43 47/47/47 45/45/45
f 43/43/43 46/46/46 47/47/47
f 46/46/46 48/48/48 47/47/47
f 47/47/47 48/48/48 49/49/49
f 45/45/45 47/47/47 50/50/50
f 51/51/51 47/47/47 49/49/49
f 47/47/47 51/51/51 50/50/50
f 50/50/50 51/51/51 52/52/52
f 51/51/51 53/53/53 52/52/52
f 53/53/53 51/51/51 54/54/54
f 55/55/55 53/53/53 54/54/54
f 52/52/52 53/53/53 56/56/56
f 53/53/53 55/55/55 57/57/57
f 53/53/53 58/58/58 56/56/56
f 58/58/58 53/53/53 57/57/57
f 56/56/56 58/58/58 59/59/59
f 58/58/58 57/57/57 60/60/60
f 58/58/58 60/60/60 59/59/59
f 57/57/57 61/61/61 60/60/60
f 59/59/59 60/60/60 62/62/62
f 60/60/60 61/61/61 63/63/63
f 60/60/60 63/63/63 62/62/62
f 61/61/61 64/64/64 63/63/63
f 62/62/62 63/63/63 65/65/65
f 63/63/63 64/64/64 66/66/66
f 63/63/63 67/67/67 65/65/65
f 67/67/67 63/63/63 66/66/66
f 70/70/70 69/69/69 68/68/68
f 71/71/71 70/70/70 68/68/68
g Cylinder.012_2
f 27/27/27 72/72/72 30/30/30
f 24/24/24 73/73/73 27/27/27
f 24/24/24 21/21/21 74/74/74
f 21/21/21 18/18/18 75/75/75
f 18/18/18 15/15/15 76/76/76
f 77/77/77 15/15/15 12/12/12
f 78/78/78 12/12/12 9/9/9
f 6/6/6 79/79/79 9/9/9
f 2/2/2 80/80/80 6/6/6
f 3/3/3 81/81/81 2/2/2
g Cylinder.012_3
f 84/84/84 83/83/83 82/82/82
f 83/83/83 85/85/85 82/82/82
f 86/86/86 82/82/82 85/85/85
f 87/87/87 86/86/86 85/85/85
f 88/88/88 86/86/86 87/87/87
f 89/89/89 88/88/88 87/87/87
f 92/92/92 91/91/91 90/90/90
f 93/93/93 92/92/92 90/90/90
