g Cylinder.009
v -3.501058E-05 0.0002176136 0.00102552
v 0.0002185857 -0.0004646492 0.0008689773
v -0.0004081315 9.248376E-05 0.0007137996
v 0.0003669464 0.0005304042 0.00110792
v 0.001179196 -0.000138362 0.001145283
v -0.000581674 -0.0006585997 -9.32908E-05
v 9.643614E-05 -0.0009932994 0.0003009111
v -0.0003228873 -0.001028296 -0.000313288
v 0.000836907 -0.001437592 -0.0003213632
v 0.001249182 -0.0009828347 0.0005864525
v 0.0006196308 -0.0008821171 0.0006280929
v 0.0002185857 -0.0004646492 0.0008689773
v 0.001179196 -0.000138362 0.001145283
v 7.856488E-05 -0.001198428 -0.0007844162
v -0.0007121813 -0.0006538475 -0.0005780488
v -0.000581674 -0.0006585997 -9.32908E-05
v -0.0005283403 -0.0006613987 -0.001192349
v -0.0009683382 1.73217E-05 -0.0004334277
v -0.0008514315 0.0002939886 -0.001263024
v -0.000581674 -0.0006585997 -9.32908E-05
v -0.0004243004 0.0005920625 0.0007607585
v -0.0004081315 9.248376E-05 0.0007137996
v -0.0008410621 0.0005681592 0.0001584804
v -0.0005358452 0.001593114 -2.476156E-05
v -0.0009328115 0.001115969 -0.0008975362
v -0.0009776199 0.0006542379 -0.0004582083
v -0.0008514315 0.0002939886 -0.001263024
v -0.0009683382 1.73217E-05 -0.0004334277
v -0.0001659393 0.001050525 0.0007679939
v 0.0003669464 0.0005304042 0.00110792
v -3.501058E-05 0.0002176136 0.00102552
v -0.0004081315 9.248376E-05 0.0007137996
v -0.0008514315 0.0002939886 -0.001263024
v -0.0008157634 0.001187305 -0.001055105
v -0.0009328115 0.001115969 -0.0008975362
v 0.001179196 -0.000138362 0.001145283
v 0.001790307 -0.0004322439 0.0006010902
v 0.001656877 -0.0008796626 0.0004027736
v -0.0008157634 0.001187305 -0.001055105
v -0.0004019487 0.001715348 -0.0006240415
v -0.0005358452 0.001593114 -2.476156E-05
v -0.0009328115 0.001115969 -0.0008975362
v 0.0002185857 -0.0004646492 0.0008689773
v 9.643614E-05 -0.0009932994 0.0003009111
v -0.0008410621 0.0005681592 0.0001584804
v -0.0004081315 9.248376E-05 0.0007137996
v -0.000581674 -0.0006585997 -9.32908E-05
v -0.0008410621 0.0005681592 0.0001584804
v -0.000581674 -0.0006585997 -9.32908E-05
v -0.0004081315 9.248376E-05 0.0007137996
v 0.0002185857 -0.0004646492 0.0008689773
v 9.643614E-05 -0.0009932994 0.0003009111
v -0.0005358452 0.001593114 -2.476156E-05
v 0.001410654 0.0007828015 -0.001029187
v -0.0001659393 0.001050525 0.0007679939
v 0.001410654 0.0007828015 -0.001029187
v 0.0003669464 0.0005304042 0.00110792
v -0.0004019487 0.001715348 -0.0006240415
v 0.001410654 0.0007828015 -0.001029187
v -0.0005358452 0.001593114 -2.476156E-05
v -0.0008157634 0.001187305 -0.001055105
v 0.001410654 0.0007828015 -0.001029187
v -0.0005283403 -0.0006613987 -0.001192349
v 0.001410654 0.0007828015 -0.001029187
v -0.0008514315 0.0002939886 -0.001263024
v 7.856488E-05 -0.001198428 -0.0007844162
v 0.001410654 0.0007828015 -0.001029187
v 0.000836907 -0.001437592 -0.0003213632
v 0.001410654 0.0007828015 -0.001029187
v 0.001656877 -0.0008796626 0.0004027736
v 0.001410654 0.0007828015 -0.001029187
v 0.001790307 -0.0004322439 0.0006010902
v 0.001410654 0.0007828015 -0.001029187
v 0.001179196 -0.000138362 0.001145283
v 0.001410654 0.0007828015 -0.001029187
v 0.0003669464 0.0005304042 0.00110792
v 0.001410654 0.0007828015 -0.001029187
v 0.001179196 -0.000138362 0.001145283
v -0.0008514315 0.0002939886 -0.001263024
v 0.001410654 0.0007828015 -0.001029187
v -0.0008157634 0.001187305 -0.001055105
vt 0.6 0.8333333
vt 0.5 0.8333333
vt 0.5840797 0.948315
vt 0.6 0.7476572
vt 0.5 0.6722319
vt 0.2159203 0.948315
vt 0.3 0.8333333
vt 0.2 0.8333333
vt 0.3 0.6666667
vt 0.4 0.6666667
vt 0.4 0.7723429
vt 0.4642272 0.8333333
vt 0.4988055 0.6722319
vt 0.2 0.7175916
vt 0.09999999 0.8333333
vt 0.15 0.937204
vt 0.09999999 0.7272502
vt 0 0.8333333
vt 0 0.6955891
vt 0.08407968 0.948315
vt 0.7 0.8333333
vt 0.7159203 0.9483151
vt 0.8 0.8333333
vt 0.8 0.6666667
vt 0.9 0.6666667
vt 0.9 0.772343
vt 0.9937922 0.6955891
vt 0.9642272 0.8333333
vt 0.7 0.7462835
vt 0.6489954 0.7484077
vt 0.6 0.8333333
vt 0.65 0.937204
vt 0.9562386 0.6666667
vt 0.909186 0.6353994
vt 0.9 0.6666667
vt 0.4960208 0.6666667
vt 0.4427856 0.5611767
vt 0.4 0.5907632
vt 0.9 0.629532
vt 0.8359724 0.582745
vt 0.8 0.6551963
vt 0.9 0.6666667
vt 0.4 0.8333333
vt 0.3357728 0.8333334
vt 0.9 0.8333333
vt 0.9487381 0.9957936
vt 1.005142 0.9774041
vt 0.9057223 0.8524076
vt 0.2948579 0.977404
vt 0.351262 0.9957933
vt 0.3942777 0.8524077
vt 0.3357728 0.8333334
vt 0.8 0.6666667
vt 0.8 0.6666667
vt 0.7 0.7462835
vt 0.7 0.7462835
vt 0.6489954 0.7484077
vt 0.8359724 0.582745
vt 0.8359724 0.582745
vt 0.8 0.6551963
vt 0.9 0.629532
vt 0.9 0.629532
vt 0.09999999 0.7272502
vt 0.09999999 0.7272502
vt 0 0.6955891
vt 0.2 0.7175916
vt 0.2 0.7175916
vt 0.3 0.6666667
vt 0.3 0.6666667
vt 0.4 0.5907632
vt 0.4 0.5907632
vt 0.4427856 0.5611767
vt 0.4427856 0.5611767
vt 0.4960208 0.6666667
vt 0.4960208 0.6666667
vt 0.6 0.7476572
vt 0.6 0.7476572
vt 0.5 0.6722319
vt 0.9562386 0.6666667
vt 0.9562386 0.6666667
vt 0.909186 0.6353994
vn -0.3972869 -0.1100463 0.9110724
vn -0.3353723 -0.4748294 0.8136722
vn -0.7092132 -0.2816038 0.6463094
vn -0.2602976 -0.02332235 0.9652467
vn 0.05476604 -0.4325633 0.8999388
vn -0.7613297 -0.5071632 0.403934
vn -0.4003434 -0.7699119 0.4969514
vn -0.5593874 -0.8168204 0.1410323
vn -0.1440835 -0.9305117 0.3367313
vn 0.2059774 -0.7478748 0.6310757
vn -0.127259 -0.7189338 0.6833296
vn -0.3353723 -0.4748294 0.8136722
vn 0.05476604 -0.4325633 0.8999388
vn -0.4511053 -0.8921517 0.02385979
vn -0.8325855 -0.5517518 -0.04869783
vn -0.7613297 -0.5071632 0.403934
vn -0.7976645 -0.5569724 -0.2313292
vn -0.9712749 -0.2201943 0.09022003
vn -0.9649162 -0.1378552 -0.2234559
vn -0.7613297 -0.5071632 0.403934
vn -0.6695178 0.1470182 0.7281014
vn -0.7092132 -0.2816038 0.6463094
vn -0.9012337 0.07427823 0.4269198
vn -0.8484877 0.4568111 0.2671934
vn -0.9262504 0.3475784 -0.145772
vn -0.9892389 0.1147885 0.09072029
vn -0.9649162 -0.1378552 -0.2234559
vn -0.9712749 -0.2201943 0.09022003
vn -0.6164324 0.3065547 0.7252829
vn -0.2602976 -0.02332235 0.9652467
vn -0.3972869 -0.1100463 0.9110724
vn -0.7092132 -0.2816038 0.6463094
vn -0.9649162 -0.1378552 -0.2234559
vn -0.8269971 0.4743091 -0.3018388
vn -0.9262504 0.3475784 -0.145772
vn 0.05476604 -0.4325633 0.8999388
vn 0.4545406 -0.4668929 0.7585539
vn 0.4389063 -0.6568384 0.613127
vn -0.8269971 0.4743091 -0.3018388
vn -0.7310447 0.6788554 -0.06876641
vn -0.8484877 0.4568111 0.2671934
vn -0.9262504 0.3475784 -0.145772
vn -0.3353723 -0.4748294 0.8136722
vn -0.4003434 -0.7699119 0.4969514
vn -0.9012337 0.07427823 0.4269198
vn -0.7092132 -0.2816038 0.6463094
vn -0.7613297 -0.5071632 0.403934
vn -0.9012337 0.07427823 0.4269198
vn -0.7613297 -0.5071632 0.403934
vn -0.7092132 -0.2816038 0.6463094
vn -0.3353723 -0.4748294 0.8136722
vn -0.4003434 -0.7699119 0.4969514
vn 0.4948319 0.8150382 0.3014203
vn 0.7228491 0.4281094 -0.5424126
vn 0.5157036 0.7885882 0.3349307
vn 0.7228491 0.4281094 -0.5424126
vn 0.5549685 0.7501208 0.3596231
vn 0.387817 0.8770195 -0.2836102
vn 0.7228491 0.4281094 -0.5424126
vn 0.4948319 0.8150382 0.3014203
vn 0.08112081 0.3876612 -0.9182256
vn 0.7228491 0.4281094 -0.5424126
vn 0.2201025 -0.1873564 -0.9573153
vn 0.7228491 0.4281094 -0.5424126
vn 0.08361559 0.08789589 -0.9926142
vn 0.3557494 -0.3464271 -0.8680038
vn 0.7228491 0.4281094 -0.5424126
vn 0.5688159 -0.3795769 -0.7296368
vn 0.7228491 0.4281094 -0.5424126
vn 0.8457986 -0.2707087 -0.4597189
vn 0.7228491 0.4281094 -0.5424126
vn 0.9456924 0.3243507 0.02150872
vn 0.7228491 0.4281094 -0.5424126
vn 0.607919 0.7057999 0.3637046
vn 0.7228491 0.4281094 -0.5424126
vn 0.5549685 0.7501208 0.3596231
vn 0.7228491 0.4281094 -0.5424126
vn 0.607919 0.7057999 0.3637046
vn 0.08361559 0.08789589 -0.9926142
vn 0.7228491 0.4281094 -0.5424126
vn 0.08112081 0.3876612 -0.9182256
g Cylinder.009_0
f 3/3/3 2/2/2 1/1/1
f 1/1/1 2/2/2 4/4/4
f 2/2/2 5/5/5 4/4/4
f 8/8/8 7/7/7 6/6/6
f 7/7/7 8/8/8 9/9/9
f 7/7/7 9/9/9 10/10/10
f 11/11/11 7/7/7 10/10/10
f 11/11/11 10/10/10 12/12/12
f 10/10/10 13/13/13 12/12/12
f 8/8/8 14/14/14 9/9/9
f 8/8/8 15/15/15 14/14/14
f 15/15/15 8/8/8 16/16/16
f 15/15/15 17/17/17 14/14/14
f 15/15/15 18/18/18 17/17/17
f 18/18/18 19/19/19 17/17/17
f 15/15/15 20/20/20 18/18/18
f 23/23/23 22/22/22 21/21/21
f 23/23/23 21/21/21 24/24/24
f 23/23/23 24/24/24 25/25/25
f 26/26/26 23/23/23 25/25/25
f 26/26/26 25/25/25 27/27/27
f 28/28/28 26/26/26 27/27/27
f 21/21/21 29/29/29 24/24/24
f 30/30/30 29/29/29 21/21/21
f 31/31/31 30/30/30 21/21/21
f 21/21/21 32/32/32 31/31/31
g Cylinder.009_1
f 35/35/35 34/34/34 33/33/33
f 38/38/38 37/37/37 36/36/36
f 10/10/10 38/38/38 36/36/36
f 10/10/10 9/9/9 38/38/38
f 41/41/41 40/40/40 39/39/39
f 42/42/42 41/41/41 39/39/39
g Cylinder.009_2
f 44/44/44 11/11/11 43/43/43
f 26/26/26 28/28/28 45/45/45
f 28/28/28 47/47/47 46/46/46
f 48/48/48 28/28/28 46/46/46
f 51/51/51 50/50/50 49/49/49
f 52/52/52 51/51/51 49/49/49
g Cylinder.009_3
f 55/55/55 54/54/54 53/53/53
f 57/57/57 56/56/56 55/55/55
f 60/60/60 59/59/59 58/58/58
f 58/58/58 62/62/62 61/61/61
f 65/65/65 64/64/64 63/63/63
f 63/63/63 67/67/67 66/66/66
f 66/66/66 69/69/69 68/68/68
f 68/68/68 71/71/71 70/70/70
f 70/70/70 73/73/73 72/72/72
f 72/72/72 75/75/75 74/74/74
f 78/78/78 77/77/77 76/76/76
f 81/81/81 80/80/80 79/79/79
