g Cylinder.004
v 1.763868E-10 0.01138037 0.000208492
v 0.009656552 0.009656572 0.01158885
v 2.863382E-10 0.01365645 0.01158885
v 0.008047126 0.008047137 0.000208492
v 1.313518E-10 0.01096842 -0.006667141
v 0.01365643 1.921196E-08 0.01158885
v 0.007755834 0.007755845 -0.006667141
v 0.01138035 1.052786E-08 0.000208492
v 0.009656552 -0.009656534 0.01158885
v 0.01096841 1.052658E-08 -0.006667141
v 0.008047126 -0.008047116 0.000208492
v 2.849413E-10 -0.01365641 0.01158885
v 0.007755834 -0.007755824 -0.006667141
v 1.752227E-10 -0.01138035 0.000208492
v -0.009656551 -0.009656534 0.01158885
v 1.302297E-10 -0.0109684 -0.006667141
v -0.008047125 -0.008047116 0.000208492
v -0.01365643 1.922103E-08 0.01158885
v -0.007755834 -0.007755824 -0.006667141
v -0.01138035 1.053542E-08 0.000208492
v -0.009656551 0.009656572 0.01158885
v -0.0109684 1.053388E-08 -0.006667141
v -0.008047125 0.008047137 0.000208492
v 2.863382E-10 0.01365645 0.01158885
v -0.007755834 0.007755845 -0.006667141
v 1.763868E-10 0.01138037 0.000208492
v 1.313518E-10 0.01096842 -0.006667141
v 0.009656552 0.009656572 0.01158885
v 0.01365643 1.921196E-08 0.01158885
v 0.009656552 -0.009656534 0.01158885
v 2.863382E-10 0.01365645 0.01158885
v 2.849413E-10 -0.01365641 0.01158885
v -0.009656551 0.009656572 0.01158885
v -0.009656551 -0.009656534 0.01158885
v -0.01365643 1.922103E-08 0.01158885
v -0.008047125 0.008047137 -0.01117187
v 5.401677E-11 0.01836007 -0.009447915
v 1.01881E-10 0.01138037 -0.01117187
v -0.01298248 0.01298255 -0.009447915
v 6.442424E-05 0.01835807 -0.01162727
v -0.01138035 1.053309E-08 -0.01117187
v -0.01291806 0.01298055 -0.01162727
v -0.01836 7.217407E-08 -0.009447915
v -0.008047125 -0.008047116 -0.01117187
v -0.01829558 -1.929266E-06 -0.01162727
v -0.01298248 -0.01298241 -0.009447915
v 1.007169E-10 -0.01138035 -0.01117187
v -0.01291806 -0.01298441 -0.01162727
v 5.401677E-11 -0.01835993 -0.009447915
v 0.008047126 -0.008047116 -0.01117187
v 6.442424E-05 -0.01836193 -0.01162727
v 0.01298248 -0.01298241 -0.009447915
v 0.01138035 1.052553E-08 -0.01117187
v 0.01304691 -0.01298441 -0.01162727
v 0.01836 7.217407E-08 -0.009447915
v 0.008047126 0.008047137 -0.01117187
v 0.01842443 -1.929266E-06 -0.01162727
v 0.01298248 0.01298255 -0.009447915
v 1.01881E-10 0.01138037 -0.01117187
v 0.01304691 0.01298055 -0.01162727
v 5.401677E-11 0.01836007 -0.009447915
v 6.442424E-05 0.01835807 -0.01162727
v 0.007074593 -0.007048529 -0.01250481
v 0.009993861 -7.924139E-07 -0.01250481
v 0.007074593 0.007046945 -0.01250481
v 2.685706E-05 -0.009967799 -0.01250481
v 2.685707E-05 0.009966213 -0.01250481
v -0.007020879 0.007046945 -0.01250481
v -0.007020879 -0.007048529 -0.01250481
v -0.009940147 -7.924037E-07 -0.01250481
v -0.007020879 0.007046945 -0.01250481
v -0.01291806 0.01298055 -0.01162727
v -0.01829558 -1.929266E-06 -0.01162727
v -0.009940147 -7.924037E-07 -0.01250481
v 2.685707E-05 0.009966213 -0.01250481
v -0.01291806 -0.01298441 -0.01162727
v 6.442424E-05 0.01835807 -0.01162727
v -0.007020879 -0.007048529 -0.01250481
v 0.007074593 0.007046945 -0.01250481
v 6.442424E-05 -0.01836193 -0.01162727
v 0.01304691 0.01298055 -0.01162727
v 2.685706E-05 -0.009967799 -0.01250481
v 0.009993861 -7.924139E-07 -0.01250481
v 0.01304691 -0.01298441 -0.01162727
v 0.01842443 -1.929266E-06 -0.01162727
v 0.007074593 -0.007048529 -0.01250481
v 1.01881E-10 0.01138037 -0.01117187
v 0.008047126 0.008047137 -0.01117187
v 0.01138035 1.052553E-08 -0.01117187
v 0.008047126 -0.008047116 -0.01117187
v 1.007169E-10 -0.01138035 -0.01117187
v -0.008047125 -0.008047116 -0.01117187
v -0.01138035 1.053309E-08 -0.01117187
v -0.008047125 0.008047137 -0.01117187
v 1.01881E-10 0.01138037 -0.01117187
vt 1 0.75
vt 0.875 1
vt 1 1
vt 0.875 0.75
vt 1 0.5989584
vt 0.75 1
vt 0.875 0.5989584
vt 0.75 0.75
vt 0.625 1
vt 0.75 0.5989584
vt 0.625 0.75
vt 0.5 1
vt 0.625 0.5989584
vt 0.5 0.75
vt 0.375 1
vt 0.5 0.5989584
vt 0.375 0.75
vt 0.25 1
vt 0.375 0.5989584
vt 0.25 0.75
vt 0.125 1
vt 0.25 0.5989584
vt 0.125 0.75
vt 0 1
vt 0.125 0.5989584
vt 0 0.75
vt 0 0.5989583
vt 0.4197056 0.4197056
vt 0.49 0.25
vt 0.4197056 0.08029439
vt 0.25 0.49
vt 0.25 0.01000001
vt 0.08029439 0.4197056
vt 0.08029439 0.08029439
vt 0.01000001 0.25
vt 0.125 0.5
vt 0 0.5
vt 0 0.5
vt 0.125 0.5
vt 0 0.5
vt 0.25 0.5
vt 0.125 0.5
vt 0.25 0.5
vt 0.375 0.5
vt 0.25 0.5
vt 0.375 0.5
vt 0.5 0.5
vt 0.375 0.5
vt 0.5 0.5
vt 0.625 0.5
vt 0.5 0.5
vt 0.625 0.5
vt 0.75 0.5
vt 0.625 0.5
vt 0.75 0.5
vt 0.875 0.5
vt 0.75 0.5
vt 0.875 0.5
vt 1 0.5
vt 0.875 0.5
vt 1 0.5
vt 1 0.5
vt 0.874868 0.125132
vt 0.9265901 0.25
vt 0.8748681 0.374868
vt 0.7500001 0.07341002
vt 0.7500001 0.42659
vt 0.6251321 0.374868
vt 0.6251321 0.125132
vt 0.57341 0.25
vt 0.6251321 0.374868
vt 0.5802944 0.4197056
vt 0.51 0.25
vt 0.57341 0.25
vt 0.7500001 0.42659
vt 0.5802944 0.08029439
vt 0.75 0.49
vt 0.6251321 0.125132
vt 0.8748681 0.374868
vt 0.75 0.01000001
vt 0.9197056 0.4197056
vt 0.7500001 0.07341002
vt 0.9265901 0.25
vt 0.9197056 0.08029439
vt 0.99 0.25
vt 0.874868 0.125132
vt 1 0.5
vt 0.875 0.5
vt 0.75 0.5
vt 0.625 0.5
vt 0.5 0.5
vt 0.375 0.5
vt 0.25 0.5
vt 0.125 0.5
vt 0 0.5
vn 0 0.9914553 -0.1304474
vn 0.6933751 0.6933753 -0.1961166
vn 0 0.9805806 -0.1961169
vn 0.7010648 0.7010646 -0.1304472
vn 0 0.9998724 0.01597118
vn 0.9805807 1.720473E-07 -0.1961161
vn 0.7070166 0.7070166 0.01597116
vn 0.9914553 -1.010801E-07 -0.130447
vn 0.6933754 -0.6933752 -0.1961157
vn 0.9998724 0 0.01597115
vn 0.7010648 -0.7010648 -0.1304467
vn 0 -0.9805808 -0.1961155
vn 0.7070166 -0.7070166 0.01597114
vn 0 -0.9914554 -0.1304466
vn -0.6933754 -0.6933752 -0.1961157
vn 0 -0.9998724 0.01597114
vn -0.7010648 -0.7010648 -0.1304467
vn -0.9805807 1.720473E-07 -0.1961161
vn -0.7070167 -0.7070165 0.01597115
vn -0.9914553 -1.010801E-07 -0.130447
vn -0.6933751 0.6933753 -0.1961167
vn -0.9998724 0 0.01597116
vn -0.7010648 0.7010646 -0.1304473
vn 0 0.9805806 -0.1961169
vn -0.7070166 0.7070166 0.01597118
vn 0 0.9914553 -0.1304474
vn 0 0.9998724 0.01597118
vn 0 0 1
vn 0 0 1
vn 0 0 1
vn 0 0 1
vn 0 0 1
vn 0 0 1
vn 0 0 1
vn 0 0 1
vn 0.1695569 -0.1695561 0.9708251
vn -0.006372167 0.7127948 0.7013437
vn 0 -0.2397885 0.9708251
vn -0.5119732 0.5057777 0.6943144
vn 0.005368273 0.8016328 -0.5977926
vn 0.2397905 7.788478E-07 0.9708247
vn -0.560007 0.5652079 -0.6057494
vn -0.7222831 0.0001985999 0.6915975
vn 0.1695581 0.1695589 0.9708244
vn -0.7932834 -0.0001666844 -0.6088524
vn -0.5118676 -0.5052767 0.6947568
vn 0 0.2397925 0.9708241
vn -0.56011 -0.5656444 -0.6052464
vn -0.006370227 -0.712175 0.7019731
vn -0.1695581 0.1695589 0.9708244
vn 0.005368219 -0.8021591 -0.5970863
vn 0.4955414 -0.5016906 0.7090453
vn -0.2397905 7.826845E-07 0.9708247
vn 0.5739305 -0.5687308 -0.5891935
vn 0.7023824 0.0001965761 0.7117999
vn -0.1695569 -0.1695561 0.970825
vn 0.8102049 -0.0001666362 -0.5861468
vn 0.4956603 0.502205 0.7085979
vn 0 -0.2397885 0.9708251
vn 0.5738409 0.5683076 -0.589689
vn -0.006372167 0.7127948 0.7013437
vn 0.005368273 0.8016328 -0.5977926
vn 0 0 -1
vn 0 0 -1
vn 0 0 -1
vn 0 0 -1
vn 0 0 -1
vn 0 0 -1
vn 0 0 -1
vn 0 0 -1
vn -0.0738561 0.07368385 -0.9945431
vn -0.560007 0.5652079 -0.6057494
vn -0.7932834 -0.0001666844 -0.6088524
vn -0.1044521 5.387999E-06 -0.9945299
vn -0.0001765764 0.1040044 -0.9945768
vn -0.56011 -0.5656444 -0.6052464
vn 0.005368273 0.8016328 -0.5977926
vn -0.07384754 -0.07366452 -0.9945452
vn 0.07321908 0.07339991 -0.9946113
vn 0.005368219 -0.8021591 -0.5970863
vn 0.5738409 0.5683076 -0.589689
vn -0.0001764812 -0.1039765 -0.9945798
vn 0.1035312 5.292744E-06 -0.9946262
vn 0.5739305 -0.5687308 -0.5891935
vn 0.8102049 -0.0001666362 -0.5861468
vn 0.07321062 -0.07338066 -0.9946132
vn 0 0.9958447 0.09106844
vn 0.7041685 0.7041685 0.09106839
vn 0.9958447 0 0.09106832
vn 0.7041685 -0.7041685 0.09106831
vn 0 -0.9958447 0.09106825
vn -0.7041685 -0.7041685 0.09106833
vn -0.9958447 0 0.0910684
vn -0.7041685 0.7041685 0.09106844
vn 0 0.9958447 0.09106844
g Cylinder.004_0
f 3/3/3 2/2/2 1/1/1
f 2/2/2 4/4/4 1/1/1
f 1/1/1 4/4/4 5/5/5
f 2/2/2 6/6/6 4/4/4
f 4/4/4 7/7/7 5/5/5
f 6/6/6 8/8/8 4/4/4
f 4/4/4 8/8/8 7/7/7
f 6/6/6 9/9/9 8/8/8
f 8/8/8 10/10/10 7/7/7
f 9/9/9 11/11/11 8/8/8
f 8/8/8 11/11/11 10/10/10
f 9/9/9 12/12/12 11/11/11
f 11/11/11 13/13/13 10/10/10
f 12/12/12 14/14/14 11/11/11
f 11/11/11 14/14/14 13/13/13
f 12/12/12 15/15/15 14/14/14
f 14/14/14 16/16/16 13/13/13
f 15/15/15 17/17/17 14/14/14
f 14/14/14 17/17/17 16/16/16
f 15/15/15 18/18/18 17/17/17
f 17/17/17 19/19/19 16/16/16
f 18/18/18 20/20/20 17/17/17
f 17/17/17 20/20/20 19/19/19
f 18/18/18 21/21/21 20/20/20
f 20/20/20 22/22/22 19/19/19
f 21/21/21 23/23/23 20/20/20
f 20/20/20 23/23/23 22/22/22
f 21/21/21 24/24/24 23/23/23
f 23/23/23 25/25/25 22/22/22
f 24/24/24 26/26/26 23/23/23
f 23/23/23 26/26/26 25/25/25
f 26/26/26 27/27/27 25/25/25
f 30/30/30 29/29/29 28/28/28
f 28/28/28 31/31/31 30/30/30
f 31/31/31 32/32/32 30/30/30
f 31/31/31 33/33/33 32/32/32
f 33/33/33 34/34/34 32/32/32
f 33/33/33 35/35/35 34/34/34
f 38/38/38 37/37/37 36/36/36
f 37/37/37 39/39/39 36/36/36
f 37/37/37 40/40/40 39/39/39
f 36/36/36 39/39/39 41/41/41
f 40/40/40 42/42/42 39/39/39
f 39/39/39 43/43/43 41/41/41
f 39/39/39 42/42/42 43/43/43
f 41/41/41 43/43/43 44/44/44
f 42/42/42 45/45/45 43/43/43
f 43/43/43 46/46/46 44/44/44
f 43/43/43 45/45/45 46/46/46
f 44/44/44 46/46/46 47/47/47
f 45/45/45 48/48/48 46/46/46
f 46/46/46 49/49/49 47/47/47
f 46/46/46 48/48/48 49/49/49
f 47/47/47 49/49/49 50/50/50
f 48/48/48 51/51/51 49/49/49
f 49/49/49 52/52/52 50/50/50
f 49/49/49 51/51/51 52/52/52
f 50/50/50 52/52/52 53/53/53
f 51/51/51 54/54/54 52/52/52
f 52/52/52 55/55/55 53/53/53
f 52/52/52 54/54/54 55/55/55
f 53/53/53 55/55/55 56/56/56
f 54/54/54 57/57/57 55/55/55
f 55/55/55 58/58/58 56/56/56
f 55/55/55 57/57/57 58/58/58
f 56/56/56 58/58/58 59/59/59
f 57/57/57 60/60/60 58/58/58
f 58/58/58 61/61/61 59/59/59
f 58/58/58 60/60/60 61/61/61
f 60/60/60 62/62/62 61/61/61
f 65/65/65 64/64/64 63/63/63
f 63/63/63 66/66/66 65/65/65
f 66/66/66 67/67/67 65/65/65
f 66/66/66 68/68/68 67/67/67
f 66/66/66 69/69/69 68/68/68
f 69/69/69 70/70/70 68/68/68
f 73/73/73 72/72/72 71/71/71
f 74/74/74 73/73/73 71/71/71
f 71/71/71 72/72/72 75/75/75
f 76/76/76 73/73/73 74/74/74
f 72/72/72 77/77/77 75/75/75
f 78/78/78 76/76/76 74/74/74
f 75/75/75 77/77/77 79/79/79
f 80/80/80 76/76/76 78/78/78
f 77/77/77 81/81/81 79/79/79
f 82/82/82 80/80/80 78/78/78
f 79/79/79 81/81/81 83/83/83
f 84/84/84 80/80/80 82/82/82
f 81/81/81 85/85/85 83/83/83
f 86/86/86 84/84/84 82/82/82
f 83/83/83 85/85/85 86/86/86
f 85/85/85 84/84/84 86/86/86
g Cylinder.004_1
f 5/5/5 7/7/7 87/87/87
f 7/7/7 88/88/88 87/87/87
f 7/7/7 10/10/10 88/88/88
f 10/10/10 89/89/89 88/88/88
f 10/10/10 13/13/13 89/89/89
f 13/13/13 90/90/90 89/89/89
f 13/13/13 16/16/16 90/90/90
f 16/16/16 91/91/91 90/90/90
f 16/16/16 19/19/19 91/91/91
f 19/19/19 92/92/92 91/91/91
f 19/19/19 22/22/22 92/92/92
f 22/22/22 93/93/93 92/92/92
f 22/22/22 25/25/25 93/93/93
f 25/25/25 94/94/94 93/93/93
f 25/25/25 27/27/27 94/94/94
f 27/27/27 95/95/95 94/94/94
