g Cylinder.001
v 0.008526935 -0.01116742 -0.008393859
v 0.008660252 -0.02107143 0.01
v 0.008660252 -0.01107143 0.01
v 0.008526935 -0.02116742 -0.008393859
v -1.788139E-09 -0.02607143 0.01
v -0.0001333179 -0.02616742 -0.008393859
v -0.008660256 -0.02107143 0.01
v -0.008793571 -0.02116742 -0.008393859
v -0.008660256 -0.01107143 0.01
v -0.008793571 -0.01116742 -0.008393859
v -0.008660256 -0.01107143 0.01
v -0.008793571 -0.01116742 -0.008393859
v -0.003535561 -0.008131701 -0.008393859
v -0.00340224 -0.008035714 0.01
v 0.004796699 -0.01330205 0.01
v 0.008660252 -0.01107143 0.01
v 0.008660252 -0.02107143 0.01
v 0.004796699 -0.01884081 0.01
v -1.788139E-09 -0.02607143 0.01
v -1.788139E-09 -0.02161018 0.01
v -0.008660256 -0.02107143 0.01
v -0.004796703 -0.01884081 0.01
v -0.008660256 -0.01107143 0.01
v -0.004796703 -0.01330205 0.01
v -1.788139E-09 -0.01053268 0.01
v -0.008660256 -0.01107143 0.01
v -0.00340224 -0.008035714 0.01
v -1.788139E-09 -0.01053268 0.01
v 2.382896E-09 -0.005538753 0.01
v 0.003402243 -0.008035715 0.01
v 0.008526935 -0.01116742 -0.008393859
v 0.008660252 -0.01107143 0.01
v 0.003402243 -0.008035715 0.01
v 0.003268921 -0.008131701 -0.008393859
v -0.0001333196 0.009904013 -0.008393859
v 0.008660255 0.005 0.01
v 2.386514E-09 0.01 0.01
v 0.008526933 0.004904013 -0.008393859
v 0.008660255 -0.005 0.01
v 0.008526933 -0.005095987 -0.008393859
v 0.003402243 -0.008035715 0.01
v 0.003268921 -0.008131701 -0.008393859
v -0.00340224 -0.008035714 0.01
v -0.003535561 -0.008131701 -0.008393859
v -0.008793572 -0.005095987 -0.008393859
v -0.00866025 -0.005 0.01
v -0.00866025 0.005 0.01
v -0.008793572 0.004904013 -0.008393859
v 2.386514E-09 0.01 0.01
v -0.0001333196 0.009904013 -0.008393859
v 2.382896E-09 -0.005538753 0.01
v -0.00340224 -0.008035714 0.01
v -0.00866025 -0.005 0.01
v -0.004796698 -0.002769377 0.01
v 0.004796703 0.002769377 0.01
v 0.008660255 -0.005 0.01
v 0.004796703 -0.002769377 0.01
v 0.008660255 0.005 0.01
v 2.385475E-09 0.005538753 0.01
v 2.386514E-09 0.01 0.01
v -0.004796698 0.002769377 0.01
v -0.00866025 0.005 0.01
v -0.004796698 -0.002769377 0.01
v -0.00866025 -0.005 0.01
v 0.004796699 -0.01330205 0.01
v -1.788139E-09 -0.01053268 0.01
v 0.003402243 -0.008035715 0.01
v 0.008660252 -0.01107143 0.01
v 2.382896E-09 -0.005538753 0.01
v 0.004796703 -0.002769377 0.01
v 0.008660255 -0.005 0.01
v 0.003402243 -0.008035715 0.01
v -0.003273029 -0.01235633 0.006594373
v -0.01611826 -0.004758467 0.00720783
v -0.01612436 -0.01059804 0.007198122
v -0.003263196 -0.002955159 0.006610003
v -0.01655854 -0.004790561 0.007751774
v -0.003259887 -0.003072007 0.008562305
v -0.01656464 -0.01063014 0.007742065
v -0.01612436 -0.01059804 0.007198122
v -0.01611826 -0.004758467 0.00720783
v -0.003269721 -0.01247318 0.008546676
v -0.003263196 -0.002955159 0.006610003
v -0.003273029 -0.01235633 0.006594373
v -0.01612436 -0.01059804 0.007198122
v -0.003273029 -0.01235633 0.006594373
v -1.788139E-09 -0.01053268 0.01
v 2.382896E-09 -0.005538753 0.01
v 0.01848875 -0.01504387 -0.008726463
v 0.004220216 0.006149353 -0.008757777
v 0.004348679 -0.02219406 -0.008718618
v 0.01842452 -0.00087217 -0.008746042
v 0.004145772 0.007294084 0.004543662
v 0.01836228 0.0001551449 0.002193422
v 0.004274236 -0.02104932 0.00458282
v 0.004348679 -0.02219406 -0.008718618
v 0.004220216 0.006149353 -0.008757777
v 0.01842651 -0.01401656 0.002213001
v 0.01842452 -0.00087217 -0.008746042
v 0.01848875 -0.01504387 -0.008726463
v 0.004348679 -0.02219406 -0.008718618
v 0.01848875 -0.01504387 -0.008726463
vt 0.8333333 0.5
vt 0.6666666 1
vt 0.8333333 1
vt 0.6666666 0.5
vt 0.4999999 1
vt 0.4999999 0.5
vt 0.3333333 1
vt 0.3333333 0.5
vt 0.1666666 1
vt 0.1666666 0.5
vt 0.1666666 1
vt 0.1666666 0.5
vt 0.4345238 0.5
vt 0.4345238 1
vt 0.3651209 0.3164651
vt 0.4578461 0.37
vt 0.4578461 0.13
vt 0.3651208 0.183535
vt 0.25 0.01000001
vt 0.25 0.1170699
vt 0.04215391 0.13
vt 0.1348792 0.183535
vt 0.04215391 0.37
vt 0.1348792 0.316465
vt 0.25 0.38293
vt 0.1666666 1
vt 0.4345238 1
vt 0.25 0.38293
vt 0.25 0.1170699
vt 0 0
vt 0.8333333 0.5
vt 0.4578461 0.37
vt 0.5654761 1
vt 0.5654761 0.5
vt 1 0.5
vt 0.8333333 1
vt 1 1
vt 0.8333333 0.5
vt 0.6666666 1
vt 0.6666666 0.5
vt 0.5654761 1
vt 0.5654761 0.5
vt 0.4345238 1
vt 0.4345238 0.5
vt 0.3333333 0.5
vt 0.3333333 1
vt 0.1666666 1
vt 0.1666666 0.5
vt -8.940697E-08 1
vt -8.940697E-08 0.5
vt 0.25 0.1170699
vt 0.4345238 1
vt 0.3333333 1
vt 0.1348792 0.183535
vt 0.3651208 0.316465
vt 0.4578461 0.13
vt 0.3651208 0.183535
vt 0.4578461 0.37
vt 0.25 0.38293
vt 0.25 0.49
vt 0.1348792 0.316465
vt 0.04215391 0.37
vt 0.1348792 0.183535
vt 0.04215391 0.13
vt 0.3651209 0.3164651
vt 0.25 0.38293
vt 0 0
vt 0.4578461 0.37
vt 0.25 0.1170699
vt 0.3651208 0.183535
vt 0.6666666 1
vt 0 0
vt 0.375 0
vt 0.625 0.25
vt 0.625 0
vt 0.375 0.25
vt 0.625 0.5
vt 0.375 0.5
vt 0.625 0.75
vt 0.875 0.75
vt 0.875 0.5
vt 0.375 0.75
vt 0.125 0.5
vt 0.125 0.75
vt 0.625 1
vt 0.375 1
vt 0.25 0.38293
vt 0.25 0.1170699
vt 0.375 0
vt 0.625 0.25
vt 0.625 0
vt 0.375 0.25
vt 0.625 0.5
vt 0.375 0.5
vt 0.625 0.75
vt 0.875 0.75
vt 0.875 0.5
vt 0.375 0.75
vt 0.125 0.5
vt 0.125 0.75
vt 0.625 1
vt 0.375 1
vn 0.866134 0.4997327 -0.008885456
vn 0.8673088 -0.4977568 -0.003688574
vn 0.8658494 0.5002257 -0.008885967
vn 0.8647201 -0.5022408 -0.003646411
vn 0.002309834 -0.9999838 0.005201747
vn -0.002298508 -0.9999837 0.005235146
vn -0.8661342 -0.4997326 0.008885494
vn -0.8658494 -0.5002258 0.008886004
vn -0.8647201 0.5022408 0.003646429
vn -0.8673088 0.4977568 0.003688591
vn -0.8647201 0.5022408 0.003646429
vn -0.8673088 0.4977568 0.003688591
vn -0.4999999 0.8660251 -0.000895374
vn -0.4999999 0.8660251 -0.000895374
vn 0 0 1
vn 0 0 1
vn 0 0 1
vn 0 0 1
vn 0 0 1
vn 0 0 1
vn 0 0 1
vn 0 0 1
vn 0 0 1
vn 0 0 1
vn 0 0 1
vn 0 0 1
vn 0 0 1
vn 0 0 1
vn 0 0 1
vn 0 0 1
vn 0.866134 0.4997327 -0.008885456
vn 0.8658494 0.5002257 -0.008885967
vn 0.4999834 0.8659967 -0.008142962
vn 0.4999834 0.8659967 -0.008142962
vn -0.0023099 0.9999838 -0.005201594
vn 0.8658495 0.5002256 -0.008886224
vn 0.002298618 0.9999837 -0.005234998
vn 0.866134 0.4997327 -0.008885714
vn 0.8673088 -0.4977567 -0.003688893
vn 0.8647201 -0.5022408 -0.00364673
vn 0.4999999 -0.866025 0.0008952106
vn 0.4999999 -0.866025 0.0008952106
vn -0.4999835 -0.8659967 0.008143071
vn -0.4999835 -0.8659967 0.008143071
vn -0.8658495 -0.5002256 0.008886199
vn -0.866134 -0.4997327 0.008885687
vn -0.8647201 0.5022408 0.003646743
vn -0.8673088 0.4977568 0.003688906
vn 0.002298618 0.9999837 -0.005234998
vn -0.0023099 0.9999838 -0.005201594
vn 0 0 1
vn 0 0 1
vn 0 0 1
vn 0 0 1
vn 0 0 1
vn 0 0 1
vn 0 0 1
vn 0 0 1
vn 0 0 1
vn 0 0 1
vn 0 0 1
vn 0 0 1
vn 0 0 1
vn 0 0 1
vn 0 0 1
vn 0 0 1
vn 0 0 1
vn 0 0 1
vn 0 0 1
vn 0 0 1
vn 0 0 1
vn 0 0 1
vn 0.5282226 -0.590579 -0.6100798
vn -0.4149631 0.6016456 -0.6825162
vn -0.4084558 -0.5578705 -0.7224571
vn 0.5203451 0.629836 -0.5766694
vn -0.7826461 0.4959225 0.3761996
vn 0.5352367 0.5988806 0.5957044
vn -0.7738881 -0.5196226 0.3620631
vn -0.4084558 -0.5578705 -0.7224571
vn -0.4149631 0.6016456 -0.6825162
vn 0.5257856 -0.6391174 0.5613184
vn 0.5203451 0.629836 -0.5766694
vn 0.5282226 -0.590579 -0.6100798
vn -0.4084558 -0.5578705 -0.7224571
vn 0.5282226 -0.590579 -0.6100798
vn 0 0 1
vn 0 0 1
vn 0.6812629 -0.439764 -0.5852253
vn -0.4463631 0.6767166 -0.5855036
vn -0.4233555 -0.7353829 -0.5291333
vn 0.6759274 0.3966875 -0.6210967
vn -0.405773 0.7161605 0.5678577
vn 0.7246991 0.445157 0.5259717
vn -0.4160002 -0.6638775 0.6214583
vn -0.4233555 -0.7353829 -0.5291333
vn -0.4463631 0.6767166 -0.5855036
vn 0.726711 -0.3909679 0.5648321
vn 0.6759274 0.3966875 -0.6210967
vn 0.6812629 -0.439764 -0.5852253
vn -0.4233555 -0.7353829 -0.5291333
vn 0.6812629 -0.439764 -0.5852253
g Cylinder.001_0
f 3/3/3 2/2/2 1/1/1
f 2/2/2 4/4/4 1/1/1
f 2/2/2 5/5/5 4/4/4
f 5/5/5 6/6/6 4/4/4
f 5/5/5 7/7/7 6/6/6
f 7/7/7 8/8/8 6/6/6
f 7/7/7 9/9/9 8/8/8
f 9/9/9 10/10/10 8/8/8
f 13/13/13 12/12/12 11/11/11
f 14/14/14 13/13/13 11/11/11
f 17/17/17 16/16/16 15/15/15
f 18/18/18 17/17/17 15/15/15
f 19/19/19 17/17/17 18/18/18
f 20/20/20 19/19/19 18/18/18
f 21/21/21 19/19/19 20/20/20
f 22/22/22 21/21/21 20/20/20
f 23/23/23 21/21/21 22/22/22
f 24/24/24 23/23/23 22/22/22
f 26/26/26 24/24/24 25/25/25
f 27/27/27 26/26/26 25/25/25
f 29/29/29 27/27/27 28/28/28
f 30/30/30 29/29/29 28/28/28
f 33/33/33 32/32/32 31/31/31
f 34/34/34 33/33/33 31/31/31
f 37/37/37 36/36/36 35/35/35
f 36/36/36 38/38/38 35/35/35
f 36/36/36 39/39/39 38/38/38
f 39/39/39 40/40/40 38/38/38
f 39/39/39 41/41/41 40/40/40
f 41/41/41 42/42/42 40/40/40
f 45/45/45 44/44/44 43/43/43
f 46/46/46 45/45/45 43/43/43
f 46/46/46 47/47/47 45/45/45
f 47/47/47 48/48/48 45/45/45
f 47/47/47 49/49/49 48/48/48
f 49/49/49 50/50/50 48/48/48
f 53/53/53 52/52/52 51/51/51
f 54/54/54 53/53/53 51/51/51
f 57/57/57 56/56/56 55/55/55
f 56/56/56 58/58/58 55/55/55
f 55/55/55 58/58/58 59/59/59
f 58/58/58 60/60/60 59/59/59
f 59/59/59 60/60/60 61/61/61
f 60/60/60 62/62/62 61/61/61
f 61/61/61 62/62/62 63/63/63
f 62/62/62 64/64/64 63/63/63
f 67/67/67 66/66/66 65/65/65
f 68/68/68 67/67/67 65/65/65
f 71/71/71 70/70/70 69/69/69
f 72/72/72 71/71/71 69/69/69
f 75/75/75 74/74/74 73/73/73
f 74/74/74 76/76/76 73/73/73
f 74/74/74 77/77/77 76/76/76
f 77/77/77 78/78/78 76/76/76
f 77/77/77 79/79/79 78/78/78
f 80/80/80 79/79/79 77/77/77
f 81/81/81 80/80/80 77/77/77
f 79/79/79 82/82/82 78/78/78
f 78/78/78 82/82/82 83/83/83
f 82/82/82 84/84/84 83/83/83
f 79/79/79 85/85/85 82/82/82
f 85/85/85 86/86/86 82/82/82
g Cylinder.001_1
f 18/18/18 15/15/15 87/87/87
f 87/87/87 20/20/20 18/18/18
f 87/87/87 24/24/24 20/20/20
f 24/24/24 22/22/22 20/20/20
f 57/57/57 55/55/55 59/59/59
f 59/59/59 88/88/88 57/57/57
f 59/59/59 61/61/61 88/88/88
f 61/61/61 63/63/63 88/88/88
g Cylinder.001_2
f 91/91/91 90/90/90 89/89/89
f 90/90/90 92/92/92 89/89/89
f 90/90/90 93/93/93 92/92/92
f 93/93/93 94/94/94 92/92/92
f 93/93/93 95/95/95 94/94/94
f 96/96/96 95/95/95 93/93/93
f 97/97/97 96/96/96 93/93/93
f 95/95/95 98/98/98 94/94/94
f 94/94/94 98/98/98 99/99/99
f 98/98/98 100/100/100 99/99/99
f 95/95/95 101/101/101 98/98/98
f 101/101/101 102/102/102 98/98/98
