g Cylinder.028
v 0.000834819 -0.001727686 -0.0002026961
v 0.0006375359 -0.001809867 0.0001219315
v 0.0005077745 -0.001640055 0.0004465594
v -0.0005686213 -0.001558395 0.0006393245
v -0.0002116738 -0.001377665 6.787096E-05
v 0.0005077745 -0.001640055 0.0004465594
v 0.0001508269 -0.001820785 0.001018013
v -0.001017152 -0.00248447 0.001010494
v -0.000297704 -0.002746861 0.001389182
v -0.001091751 -0.003510741 0.0006393247
v -0.0003723025 -0.003773132 0.001018013
v -0.0007487182 -0.004036031 -0.0002567567
v -2.926989E-05 -0.004298422 0.0001219318
v -0.0001889982 -0.003752633 -0.001152838
v 0.00053045 -0.004015024 -0.0007741497
v 0.0002595327 -0.002826557 -0.001524007
v 0.000978981 -0.003088948 -0.001145319
v 0.0003341312 -0.001800286 -0.001152838
v 0.00105358 -0.002062677 -0.0007741498
v 0.0001153707 -0.001465296 -0.0005813846
v 0.000834819 -0.001727686 -0.0002026961
v -0.0002116738 -0.001377665 6.787096E-05
v 0.0005077745 -0.001640055 0.0004465594
v -0.0001089029 -0.001648207 -0.0002567568
v -0.0002116738 -0.001377665 6.787096E-05
v -0.0005686213 -0.001558395 0.0006393245
v -0.0005173073 -0.001854991 0.0003970767
v -0.001017152 -0.00248447 0.001010494
v -0.0008445818 -0.00253071 0.0006679035
v -0.001091751 -0.003510741 0.0006393247
v -0.0008990132 -0.003279537 0.0003970767
v -0.0007487182 -0.004036031 -0.0002567567
v -0.0006487165 -0.00366282 -0.0002567568
v -0.0001889982 -0.003752633 -0.001152838
v -0.0002403121 -0.003456036 -0.0009105903
v 4.374087E-05 -0.004025941 0.0001219317
v 0.0002595327 -0.002826557 -0.001524007
v 0.0004929857 -0.003798479 -0.0005972854
v 8.696235E-05 -0.002780317 -0.001181417
v 0.0003341312 -0.001800286 -0.001152838
v 0.0008529878 -0.003055188 -0.0008951948
v 0.0001413938 -0.00203149 -0.0009105903
v 0.0001153707 -0.001465296 -0.0005813846
v 0.0009128622 -0.002231478 -0.0005972854
v -0.0002116738 -0.001377665 6.787096E-05
v -0.0001089029 -0.001648207 -0.0002567568
v 0.0006375359 -0.001809867 0.0001219315
v 0.000188291 -0.00203733 0.0008411486
v 0.0005077745 -0.001640055 0.0004465594
v 0.0006375359 -0.001809867 0.0001219315
v 0.0001508269 -0.001820785 0.001018013
v -0.000171711 -0.002780621 0.001139058
v -0.000297704 -0.002746861 0.001389182
v -0.0002315855 -0.003604331 0.0008411486
v -0.0003723025 -0.003773132 0.001018013
v 4.374087E-05 -0.004025941 0.0001219317
v -2.926989E-05 -0.004298422 0.0001219318
v -0.0006487165 -0.00366282 -0.0002567568
v 0.0004929857 -0.003798479 -0.0005972854
v -0.0008990132 -0.003279537 0.0003970767
v 0.00053045 -0.004015024 -0.0007741497
v -0.0008445818 -0.00253071 0.0006679035
v 0.0008529878 -0.003055188 -0.0008951948
v -0.0005173073 -0.001854991 0.0003970767
v 0.0006375359 -0.001809867 0.0001219315
v -0.0001089029 -0.001648207 -0.0002567568
v 0.000978981 -0.003088948 -0.001145319
v 0.0009128622 -0.002231478 -0.0005972854
v 0.00105358 -0.002062677 -0.0007741498
v 0.0006375359 -0.001809867 0.0001219315
v 0.000834819 -0.001727686 -0.0002026961
v -0.000748718 0.004035658 -0.0002567562
v 0.0005304503 0.00401465 -0.0007741491
v -2.926978E-05 0.004298049 0.0001219323
v -0.0001889981 0.00375226 -0.001152838
v 0.0009789811 0.003088575 -0.001145318
v 0.0002595327 0.002826183 -0.001524007
v 0.00105358 0.002062304 -0.0007741491
v 0.0003341314 0.001799913 -0.001152838
v 0.0008348192 0.001727313 -0.0002026953
v 0.0001153708 0.001464922 -0.0005813838
v 0.0005077746 0.001639682 0.0004465603
v -0.0002116737 0.001377291 6.787167E-05
v 0.0001508271 0.001820412 0.001018014
v -0.0005686213 0.001558021 0.0006393253
v -0.0002977038 0.002746488 0.001389183
v -0.001017152 0.002484097 0.001010494
v -0.0003723025 0.003772758 0.001018014
v -0.001091751 0.003510368 0.0006393253
v -2.926978E-05 0.004298049 0.0001219323
v -0.000748718 0.004035658 -0.0002567562
v 0.000637677 0.001808969 0.0001219325
v 0.0005077746 0.001639682 0.0004465603
v 0.0001508271 0.001820412 0.001018014
v 0.0001882898 0.002036963 0.0008411493
v -0.0001089028 0.001647834 -0.0002567561
v -0.0002977038 0.002746488 0.001389183
v -0.0005173073 0.001854618 0.0003970774
v -0.0001717123 0.002780254 0.001139059
v -0.0003723025 0.003772758 0.001018014
v -0.0008445817 0.002530337 0.0006679042
v -0.000231587 0.003603963 0.0008411494
v -2.926978E-05 0.004298049 0.0001219323
v -0.0008990131 0.003279164 0.0003970774
v 4.373932E-05 0.004025574 0.0001219324
v -0.0006487165 0.003662447 -0.0002567561
v 0.0005304503 0.00401465 -0.0007741491
v 0.0004929843 0.003798112 -0.0005972845
v 0.0009789811 0.003088575 -0.001145318
v 0.0008529862 0.00305482 -0.0008951941
v 0.00105358 0.002062304 -0.0007741491
v 0.0009128611 0.002231111 -0.0005972846
v 0.0008348192 0.001727313 -0.0002026953
v 0.000637677 0.001808969 0.0001219325
v 0.0005077746 0.001639682 0.0004465603
v -0.0006487165 0.003662447 -0.0002567561
v 4.373932E-05 0.004025574 0.0001219324
v 0.0004929843 0.003798112 -0.0005972845
v -0.000240312 0.003455663 -0.0009105896
v 0.0008529862 0.00305482 -0.0008951941
v 8.696246E-05 0.002779944 -0.001181416
v 0.0009128611 0.002231111 -0.0005972846
v 0.0001413939 0.002031117 -0.0009105896
v 0.000637677 0.001808969 0.0001219325
v -0.0001089028 0.001647834 -0.0002567561
v 0.0003341314 0.001799913 -0.001152838
v 0.0001153708 0.001464922 -0.0005813838
v 0.0002595327 0.002826183 -0.001524007
v -0.0001889981 0.00375226 -0.001152838
v -0.000748718 0.004035658 -0.0002567562
v -0.001091751 0.003510368 0.0006393253
v -0.0008990131 0.003279164 0.0003970774
v -0.001017152 0.002484097 0.001010494
v -0.0008445817 0.002530337 0.0006679042
v -0.0005686213 0.001558021 0.0006393253
v -0.0005173073 0.001854618 0.0003970774
v -0.0002116737 0.001377291 6.787167E-05
v -0.0001089028 0.001647834 -0.0002567561
v -0.0002116737 0.001377291 6.787167E-05
v 0.0002240976 -0.0008201209 0.000588367
v 0.0005077745 -0.001640055 0.0004465594
v -0.0002116738 -0.001377665 6.787096E-05
v -0.0004721988 -0.0006889257 0.0003894659
v 0.0001023123 3.660917E-06 0.000740914
v -0.0005939841 3.660619E-06 0.0005420128
v 0.0002240978 0.0008197475 0.0005883673
v -0.0004721986 0.0006885519 0.000389466
v 0.0005077746 0.001639682 0.0004465603
v -0.0002116737 0.001377291 6.787167E-05
v -0.0004721986 0.0006885519 0.000389466
v 0.0001153708 0.001464922 -0.0005813838
v -0.0002116737 0.001377291 6.787167E-05
v -0.0001208979 0.0007323676 7.394001E-05
v -0.0005939841 3.660619E-06 0.0005420128
v 0.0005753985 0.0008635634 0.0002728412
v 0.0008348192 0.001727313 -0.0002026953
v -0.0002426833 3.660619E-06 0.0002264868
v -0.0004721988 -0.0006889257 0.0003894659
v 0.0002240978 0.0008197475 0.0005883673
v 0.0005077746 0.001639682 0.0004465603
v 0.0001023123 3.660917E-06 0.000740914
v 0.0004536131 3.660917E-06 0.000425388
v 0.0002240976 -0.0008201209 0.000588367
v 0.0005753986 -0.0008639365 0.0002728409
v 0.0005077745 -0.001640055 0.0004465594
v 0.000834819 -0.001727686 -0.0002026961
v -0.000120898 -0.0007327413 7.393979E-05
v -0.0002116738 -0.001377665 6.787096E-05
v 0.0001153707 -0.001465296 -0.0005813846
vt 0.3114801 0.4645341
vt 0.25 0.4252021
vt 0.25 0.4645342
vt 0.125 0.5
vt 0.04528437 0.5
vt 0.04528435 1
vt 0.125 1
vt 0.25 0.5
vt 0.25 1
vt 0.375 0.5
vt 0.375 1
vt 0.5 0.5
vt 0.5 1
vt 0.625 0.5
vt 0.625 1
vt 0.75 0.5
vt 0.75 1
vt 0.875 0.5
vt 0.875 1
vt 0.9547156 0.5
vt 0.9547156 1
vt 1 0.5
vt 1 1
vt 0.7500001 0.4251181
vt 0.6885199 0.4645341
vt 0.5802944 0.4197056
vt 0.6261729 0.3738272
vt 0.51 0.25
vt 0.574882 0.25
vt 0.5802944 0.08029439
vt 0.6261729 0.1261728
vt 0.75 0.01000001
vt 0.75 0.07488193
vt 0.9197056 0.08029439
vt 0.8738272 0.1261729
vt 0.25 0.07488194
vt 0.99 0.25
vt 0.3738272 0.1261729
vt 0.9251181 0.25
vt 0.9197056 0.4197056
vt 0.4251181 0.25
vt 0.8738272 0.3738272
vt 0.8114801 0.4645341
vt 0.3738272 0.3738272
vt 0.75 0.4645341
vt 0.7500001 0.4251181
vt 0.25 0.4251181
vt 0.1261729 0.3738272
vt 0.1885199 0.4645341
vt 0.25 0.4252021
vt 0.08029439 0.4197056
vt 0.07488195 0.25
vt 0.01000001 0.25
vt 0.1261728 0.1261728
vt 0.08029439 0.08029439
vt 0.25 0.07488194
vt 0.25 0.01000001
vt 0.75 0.07488193
vt 0.3738272 0.1261729
vt 0.6261729 0.1261728
vt 0.4197056 0.08029439
vt 0.574882 0.25
vt 0.4251181 0.25
vt 0.6261729 0.3738272
vt 0.25 0.4251181
vt 0.7500001 0.4251181
vt 0.49 0.25
vt 0.3738272 0.3738272
vt 0.4197056 0.4197056
vt 0.25 0.4251181
vt 0.3114801 0.4645341
vt 1 0.5
vt 0.875 1
vt 1 1
vt 0.875 0.5
vt 0.75 1
vt 0.75 0.5
vt 0.625 1
vt 0.625 0.5
vt 0.5452843 1
vt 0.5452844 0.5
vt 0.4547156 1
vt 0.4547156 0.5
vt 0.375 1
vt 0.375 0.5
vt 0.25 1
vt 0.25 0.5
vt 0.125 1
vt 0.125 0.5
vt 0 1
vt 0 0.5
vt 0.25 0.07488194
vt 0.1885199 0.0354659
vt 0.08029439 0.08029439
vt 0.1261728 0.1261728
vt 0.75 0.07488193
vt 0.01000001 0.25
vt 0.6261729 0.1261728
vt 0.07488195 0.25
vt 0.08029439 0.4197056
vt 0.574882 0.25
vt 0.1261729 0.3738272
vt 0.25 0.49
vt 0.6261729 0.3738272
vt 0.25 0.4251181
vt 0.7500001 0.4251181
vt 0.4197056 0.4197056
vt 0.3738272 0.3738272
vt 0.49 0.25
vt 0.4251181 0.25
vt 0.4197056 0.08029439
vt 0.3738272 0.1261729
vt 0.31148 0.03546588
vt 0.25 0.07479791
vt 0.25 0.03546585
vt 0.7500001 0.4251181
vt 0.25 0.4251181
vt 0.3738272 0.3738272
vt 0.8738272 0.3738272
vt 0.4251181 0.25
vt 0.9251181 0.25
vt 0.3738272 0.1261729
vt 0.8738272 0.1261729
vt 0.25 0.07488194
vt 0.75 0.07488193
vt 0.9197056 0.08029439
vt 0.81148 0.03546588
vt 0.99 0.25
vt 0.9197056 0.4197056
vt 0.75 0.49
vt 0.5802944 0.4197056
vt 0.6261729 0.3738272
vt 0.51 0.25
vt 0.574882 0.25
vt 0.5802944 0.08029439
vt 0.6261729 0.1261728
vt 0.68852 0.03546588
vt 0.75 0.07479796
vt 0.75 0.03546587
vt 0.1476422 1
vt 0.04528435 1
vt 0.04528437 0.5
vt 0.1476422 0.5
vt 0.25 1
vt 0.25 0.5
vt 0.3523578 1
vt 0.3523578 0.5
vt 0.4547156 1
vt 0.4547156 0.5
vt 0 0
vt 0 0
vt 0 0
vt 0 0
vt 0 0
vt 0 0
vt 0 0
vt 0 0
vt 0 0
vt 0 0
vt 0 0
vt 0 0
vt 0 0
vt 0 0
vt 0 0
vt 0 0
vt 0 0
vt 0 0
vt 0 0
vt 0 0
vn 0.8494021 0.5213663 0.08181144
vn 0.5481656 -0.7451586 0.3798068
vn 0.695525 0.328167 0.6391802
vn -0.6189836 0.7551982 0.2157194
vn -0.8160054 0.573807 -0.06986228
vn 0.695525 0.328167 0.6391802
vn 0.4577967 0.4240182 0.7814286
vn -0.8785999 0.2508536 0.4063678
vn 0.1976063 -0.06836098 0.977895
vn -0.9354717 -0.2988107 0.1886921
vn 0.1340047 -0.6232752 0.7704355
vn -0.7611009 -0.5742164 -0.3016637
vn 0.3089238 -0.9106769 0.2742878
vn -0.4577965 -0.4240182 -0.7814287
vn 0.6189837 -0.7551981 -0.2157196
vn -0.1976063 0.06836094 -0.977895
vn 0.8785999 -0.2508538 -0.4063678
vn -0.1340047 0.6232752 -0.7704355
vn 0.935472 0.2988105 -0.1886916
vn -0.1676975 0.8025889 -0.5724759
vn 0.8494021 0.5213663 0.08181144
vn -0.8160054 0.573807 -0.06986228
vn 0.695525 0.328167 0.6391802
vn -0.8349046 -0.4085549 -0.3688051
vn -0.8160054 0.573807 -0.06986228
vn -0.6189836 0.7551982 0.2157194
vn -0.5976308 -0.2939732 -0.7459337
vn -0.8785999 0.2508536 0.4063678
vn -0.3844341 0.09004363 -0.9187506
vn -0.9354717 -0.2988107 0.1886921
vn -0.318917 0.5563422 -0.7673169
vn -0.7611009 -0.5742164 -0.3016637
vn -0.4621439 0.816176 -0.3468136
vn -0.4577965 -0.4240182 -0.7814287
vn -0.7312433 0.6778153 0.07648364
vn 0.8654045 0.3053123 0.3973154
vn -0.1976063 0.06836094 -0.977895
vn 0.6635573 0.2079679 0.7186384
vn -0.9453242 0.2399007 0.2209291
vn -0.1340047 0.6232752 -0.7704355
vn 0.4819925 -0.1190342 0.8680518
vn -0.9789879 -0.2025831 0.02329425
vn -0.1676975 0.8025889 -0.5724759
vn 0.4252826 -0.5195952 0.7410502
vn -0.8160054 0.573807 -0.06986228
vn -0.8349046 -0.4085549 -0.3688051
vn 0.5481656 -0.7451586 0.3798068
vn 0.7802297 -0.6253171 0.01483812
vn 0.695525 0.328167 0.6391802
vn 0.5481656 -0.7451586 0.3798068
vn 0.4577967 0.4240182 0.7814286
vn 0.9629177 -0.2474303 -0.1075528
vn 0.1976063 -0.06836098 0.977895
vn 0.9894197 0.1306471 0.06308704
vn 0.1340047 -0.6232752 0.7704355
vn 0.8654045 0.3053123 0.3973154
vn 0.3089238 -0.9106769 0.2742878
vn -0.4621439 0.816176 -0.3468136
vn 0.6635573 0.2079679 0.7186384
vn -0.318917 0.5563422 -0.7673169
vn 0.6189837 -0.7551981 -0.2157196
vn -0.3844341 0.09004363 -0.9187506
vn 0.4819925 -0.1190342 0.8680518
vn -0.5976308 -0.2939732 -0.7459337
vn 0.5481656 -0.7451586 0.3798068
vn -0.8349046 -0.4085549 -0.3688051
vn 0.8785999 -0.2508538 -0.4063678
vn 0.4252826 -0.5195952 0.7410502
vn 0.935472 0.2988105 -0.1886916
vn 0.5481656 -0.7451586 0.3798068
vn 0.8494021 0.5213663 0.08181144
vn -0.7611011 0.574216 -0.3016638
vn 0.6189837 0.7551981 -0.2157195
vn 0.3089236 0.910677 0.2742876
vn -0.4577967 0.424018 -0.7814288
vn 0.8785999 0.2508538 -0.4063676
vn -0.1976065 -0.06836132 -0.9778948
vn 0.935472 -0.2988105 -0.1886916
vn -0.1340046 -0.6232753 -0.7704353
vn 0.8494021 -0.5213665 0.08181138
vn -0.1676971 -0.8025888 -0.572476
vn 0.6955249 -0.3281678 0.63918
vn -0.8160055 -0.5738068 -0.06986214
vn 0.4577965 -0.4240184 0.7814287
vn -0.6189837 -0.7551984 0.2157193
vn 0.1976062 0.06836115 0.977895
vn -0.8785999 -0.2508537 0.4063675
vn 0.1340046 0.6232752 0.7704355
vn -0.9354718 0.2988107 0.1886918
vn 0.3089236 0.910677 0.2742876
vn -0.7611011 0.574216 -0.3016638
vn 0.5484394 0.7449042 0.3799106
vn 0.6955249 -0.3281678 0.63918
vn 0.4577965 -0.4240184 0.7814287
vn 0.7802544 0.6252883 0.01474927
vn -0.8348613 0.4086743 -0.3687708
vn 0.1976062 0.06836115 0.977895
vn -0.5975273 0.2939828 -0.7460129
vn 0.9629179 0.2474296 -0.1075524
vn 0.1340046 0.6232752 0.7704355
vn -0.3844345 -0.09004253 -0.9187505
vn 0.9894198 -0.1306459 0.06308877
vn 0.3089236 0.910677 0.2742876
vn -0.3189145 -0.5563421 -0.7673181
vn 0.8654052 -0.3053094 0.3973159
vn -0.4621413 -0.8161778 -0.3468128
vn 0.6189837 0.7551981 -0.2157195
vn 0.6635585 -0.2079666 0.7186375
vn 0.8785999 0.2508538 -0.4063676
vn 0.4819925 0.1190333 0.868052
vn 0.935472 -0.2988105 -0.1886916
vn 0.4252322 0.5195476 0.7411127
vn 0.8494021 -0.5213665 0.08181138
vn 0.5484394 0.7449042 0.3799106
vn 0.6955249 -0.3281678 0.63918
vn -0.4621413 -0.8161778 -0.3468128
vn 0.8654052 -0.3053094 0.3973159
vn 0.6635585 -0.2079666 0.7186375
vn -0.7312424 -0.677816 0.07648596
vn 0.4819925 0.1190333 0.868052
vn -0.9453245 -0.2398997 0.2209291
vn 0.4252322 0.5195476 0.7411127
vn -0.9789886 0.2025647 0.02342986
vn 0.5484394 0.7449042 0.3799106
vn -0.8348613 0.4086743 -0.3687708
vn -0.1340046 -0.6232753 -0.7704353
vn -0.1676971 -0.8025888 -0.572476
vn -0.1976065 -0.06836132 -0.9778948
vn -0.4577967 0.424018 -0.7814288
vn -0.7611011 0.574216 -0.3016638
vn -0.9354718 0.2988107 0.1886918
vn -0.3189145 -0.5563421 -0.7673181
vn -0.8785999 -0.2508537 0.4063675
vn -0.3844345 -0.09004253 -0.9187505
vn -0.6189837 -0.7551984 0.2157193
vn -0.5975273 0.2939828 -0.7460129
vn -0.8160055 -0.5738068 -0.06986214
vn -0.8348613 0.4086743 -0.3687708
vn -0.8160055 -0.5738068 -0.06986214
vn 0.1812004 -0.2218697 0.958092
vn 0.695525 0.328167 0.6391802
vn -0.8160054 0.573807 -0.06986228
vn -0.9516698 -0.2205594 0.2137243
vn 0.1616771 0.000847656 0.9868434
vn -0.9560553 0.0009534369 0.2931851
vn 0.1814519 0.2225175 0.9578941
vn -0.9516644 0.2214206 0.2128558
vn 0.6955249 -0.3281678 0.63918
vn -0.8160055 -0.5738068 -0.06986214
vn -0.9516644 0.2214206 0.2128558
vn -0.1676971 -0.8025888 -0.572476
vn -0.8160055 -0.5738068 -0.06986214
vn -0.2844595 -0.2956425 -0.9119639
vn -0.9560553 0.0009534369 0.2931851
vn 0.9303875 -0.361074 -0.06328251
vn 0.8494021 -0.5213665 0.08181138
vn -0.279276 -0.0006733167 -0.9602106
vn -0.9516698 -0.2205594 0.2137243
vn 0.1814519 0.2225175 0.9578941
vn 0.6955249 -0.3281678 0.63918
vn 0.1616771 0.000847656 0.9868434
vn 0.992163 -0.000846733 -0.1249474
vn 0.1812004 -0.2218697 0.958092
vn 0.9306129 0.3604997 -0.06324171
vn 0.695525 0.328167 0.6391802
vn 0.8494021 0.5213663 0.08181144
vn -0.2847898 0.2947481 -0.9121504
vn -0.8160054 0.573807 -0.06986228
vn -0.1676975 0.8025889 -0.5724759
g Cylinder.028_0
f 3/3/3 2/2/2 1/1/1
f 6/6/6 5/5/5 4/4/4
f 7/7/7 6/6/6 4/4/4
f 7/7/7 4/4/4 8/8/8
f 9/9/9 7/7/7 8/8/8
f 9/9/9 8/8/8 10/10/10
f 11/11/11 9/9/9 10/10/10
f 11/11/11 10/10/10 12/12/12
f 13/13/13 11/11/11 12/12/12
f 13/13/13 12/12/12 14/14/14
f 15/15/15 13/13/13 14/14/14
f 15/15/15 14/14/14 16/16/16
f 17/17/17 15/15/15 16/16/16
f 17/17/17 16/16/16 18/18/18
f 19/19/19 17/17/17 18/18/18
f 19/19/19 18/18/18 20/20/20
f 21/21/21 19/19/19 20/20/20
f 21/21/21 20/20/20 22/22/22
f 23/23/23 21/21/21 22/22/22
f 26/26/26 25/25/25 24/24/24
f 27/27/27 26/26/26 24/24/24
f 28/28/28 26/26/26 27/27/27
f 29/29/29 28/28/28 27/27/27
f 30/30/30 28/28/28 29/29/29
f 31/31/31 30/30/30 29/29/29
f 32/32/32 30/30/30 31/31/31
f 33/33/33 32/32/32 31/31/31
f 34/34/34 32/32/32 33/33/33
f 35/35/35 34/34/34 33/33/33
f 33/33/33 36/36/36 35/35/35
f 37/37/37 34/34/34 35/35/35
f 36/36/36 38/38/38 35/35/35
f 39/39/39 37/37/37 35/35/35
f 35/35/35 38/38/38 39/39/39
f 40/40/40 37/37/37 39/39/39
f 38/38/38 41/41/41 39/39/39
f 42/42/42 40/40/40 39/39/39
f 39/39/39 41/41/41 42/42/42
f 43/43/43 40/40/40 42/42/42
f 41/41/41 44/44/44 42/42/42
f 24/24/24 43/43/43 42/42/42
f 43/43/43 24/24/24 45/45/45
f 42/42/42 44/44/44 46/46/46
f 44/44/44 47/47/47 46/46/46
f 50/50/50 49/49/49 48/48/48
f 49/49/49 51/51/51 48/48/48
f 48/48/48 51/51/51 52/52/52
f 51/51/51 53/53/53 52/52/52
f 52/52/52 53/53/53 54/54/54
f 53/53/53 55/55/55 54/54/54
f 54/54/54 55/55/55 56/56/56
f 55/55/55 57/57/57 56/56/56
f 54/54/54 56/56/56 58/58/58
f 56/56/56 57/57/57 59/59/59
f 60/60/60 54/54/54 58/58/58
f 52/52/52 54/54/54 60/60/60
f 57/57/57 61/61/61 59/59/59
f 62/62/62 52/52/52 60/60/60
f 48/48/48 52/52/52 62/62/62
f 59/59/59 61/61/61 63/63/63
f 64/64/64 48/48/48 62/62/62
f 65/65/65 48/48/48 64/64/64
f 66/66/66 65/65/65 64/64/64
f 61/61/61 67/67/67 63/63/63
f 63/63/63 67/67/67 68/68/68
f 67/67/67 69/69/69 68/68/68
f 68/68/68 69/69/69 70/70/70
f 69/69/69 71/71/71 70/70/70
f 74/74/74 73/73/73 72/72/72
f 73/73/73 75/75/75 72/72/72
f 73/73/73 76/76/76 75/75/75
f 76/76/76 77/77/77 75/75/75
f 76/76/76 78/78/78 77/77/77
f 78/78/78 79/79/79 77/77/77
f 78/78/78 80/80/80 79/79/79
f 80/80/80 81/81/81 79/79/79
f 81/81/81 80/80/80 82/82/82
f 83/83/83 81/81/81 82/82/82
f 82/82/82 84/84/84 83/83/83
f 84/84/84 85/85/85 83/83/83
f 84/84/84 86/86/86 85/85/85
f 86/86/86 87/87/87 85/85/85
f 86/86/86 88/88/88 87/87/87
f 88/88/88 89/89/89 87/87/87
f 88/88/88 90/90/90 89/89/89
f 90/90/90 91/91/91 89/89/89
f 94/94/94 93/93/93 92/92/92
f 95/95/95 94/94/94 92/92/92
f 95/95/95 92/92/92 96/96/96
f 97/97/97 94/94/94 95/95/95
f 98/98/98 95/95/95 96/96/96
f 99/99/99 97/97/97 95/95/95
f 99/99/99 95/95/95 98/98/98
f 100/100/100 97/97/97 99/99/99
f 101/101/101 99/99/99 98/98/98
f 102/102/102 100/100/100 99/99/99
f 102/102/102 99/99/99 101/101/101
f 103/103/103 100/100/100 102/102/102
f 104/104/104 102/102/102 101/101/101
f 105/105/105 103/103/103 102/102/102
f 105/105/105 102/102/102 104/104/104
f 106/106/106 105/105/105 104/104/104
f 107/107/107 103/103/103 105/105/105
f 108/108/108 107/107/107 105/105/105
f 109/109/109 107/107/107 108/108/108
f 110/110/110 109/109/109 108/108/108
f 111/111/111 109/109/109 110/110/110
f 112/112/112 111/111/111 110/110/110
f 113/113/113 111/111/111 112/112/112
f 114/114/114 113/113/113 112/112/112
f 113/113/113 114/114/114 115/115/115
f 118/118/118 117/117/117 116/116/116
f 119/119/119 118/118/118 116/116/116
f 120/120/120 118/118/118 119/119/119
f 121/121/121 120/120/120 119/119/119
f 122/122/122 120/120/120 121/121/121
f 123/123/123 122/122/122 121/121/121
f 124/124/124 122/122/122 123/123/123
f 125/125/125 124/124/124 123/123/123
f 123/123/123 126/126/126 125/125/125
f 126/126/126 127/127/127 125/125/125
f 128/128/128 126/126/126 123/123/123
f 121/121/121 128/128/128 123/123/123
f 129/129/129 128/128/128 121/121/121
f 119/119/119 129/129/129 121/121/121
f 130/130/130 129/129/129 119/119/119
f 116/116/116 130/130/130 119/119/119
f 131/131/131 130/130/130 116/116/116
f 132/132/132 131/131/131 116/116/116
f 133/133/133 131/131/131 132/132/132
f 134/134/134 133/133/133 132/132/132
f 135/135/135 133/133/133 134/134/134
f 136/136/136 135/135/135 134/134/134
f 137/137/137 135/135/135 136/136/136
f 138/138/138 137/137/137 136/136/136
f 139/139/139 138/138/138 127/127/127
f 142/142/142 141/141/141 140/140/140
f 143/143/143 142/142/142 140/140/140
f 143/143/143 140/140/140 144/144/144
f 145/145/145 143/143/143 144/144/144
f 145/145/145 144/144/144 146/146/146
f 147/147/147 145/145/145 146/146/146
f 147/147/147 146/146/146 148/148/148
f 149/149/149 147/147/147 148/148/148
f 152/152/152 151/151/151 150/150/150
f 151/151/151 153/153/153 150/150/150
f 150/150/150 153/153/153 154/154/154
f 153/153/153 151/151/151 155/155/155
f 151/151/151 156/156/156 155/155/155
f 153/153/153 157/157/157 154/154/154
f 154/154/154 157/157/157 158/158/158
f 159/159/159 155/155/155 156/156/156
f 160/160/160 159/159/159 156/156/156
f 159/159/159 161/161/161 155/155/155
f 153/153/153 155/155/155 162/162/162
f 161/161/161 162/162/162 155/155/155
f 157/157/157 153/153/153 162/162/162
f 161/161/161 163/163/163 162/162/162
f 163/163/163 164/164/164 162/162/162
f 157/157/157 162/162/162 164/164/164
f 163/163/163 165/165/165 164/164/164
f 165/165/165 166/166/166 164/164/164
f 157/157/157 167/167/167 158/158/158
f 167/167/167 157/157/157 164/164/164
f 167/167/167 164/164/164 166/166/166
f 158/158/158 167/167/167 168/168/168
f 169/169/169 167/167/167 166/166/166
f 167/167/167 169/169/169 168/168/168
