g Cylinder.020
v -0.005219731 0.006021234 -0.001377725
v -7.141659E-09 0.007840093 -0.001377725
v -6.852089E-09 0.01003745 -2.72572E-06
v -0.005184136 0.008181902 -2.725124E-06
v -6.562518E-09 0.01167665 0.001372275
v -0.008445697 0.001259397 -0.001377725
v -0.005148542 0.009784402 0.001372275
v -0.008388104 0.003324001 -2.725124E-06
v -0.008445697 -0.004626556 -0.001377725
v -0.008330512 0.004830439 0.001372275
v -0.008388104 -0.002680693 -2.725124E-06
v -0.005219731 -0.009388394 -0.001377725
v -0.008330512 -0.001292997 0.001372275
v -0.005184136 -0.007538594 -2.725124E-06
v -7.141659E-09 -0.01120725 -0.001377725
v -0.005148542 -0.006246961 0.001372275
v -6.852089E-09 -0.009394146 -2.725124E-06
v 0.005219716 -0.009388394 -0.001377725
v -6.562518E-09 -0.008139205 0.001372275
v 0.005184122 -0.007538594 -2.725124E-06
v 0.005148529 -0.006246961 0.001372275
v -7.141659E-09 0.007840093 -0.001377725
v 0.005219716 0.006021234 -0.001377725
v 0.005184122 0.008181902 -2.725124E-06
v -6.852089E-09 0.01003745 -2.72572E-06
v 0.005148529 0.009784402 0.001372275
v -6.562518E-09 0.01167665 0.001372275
v 0.008445683 -0.004626556 -0.001377725
v 0.008388091 -0.002680693 -2.725124E-06
v 0.008445683 0.001259397 -0.001377725
v 0.008330499 -0.001292997 0.001372275
v 0.008388091 0.003324001 -2.725124E-06
v 0.008330499 0.004830439 0.001372275
v -6.562518E-09 -0.008139205 0.001372275
v -0.005148542 -0.006246961 0.001372275
v 0.005148529 -0.006246961 0.001372275
v -7.141659E-09 0.007840093 -0.001377725
v -0.005219731 0.006021234 -0.001377725
v 0.005219716 0.006021234 -0.001377725
v -0.008330512 -0.001292997 0.001372275
v -0.008330512 0.004830439 0.001372275
v 0.008330499 0.004830439 0.001372275
v 0.008330499 -0.001292997 0.001372275
v -0.005148542 -0.006246961 0.001372275
v -0.008330512 -0.001292997 0.001372275
v 0.008330499 -0.001292997 0.001372275
v 0.005148529 -0.006246961 0.001372275
v -0.008330512 0.004830439 0.001372275
v 0.005148529 0.009784402 0.001372275
v 0.008330499 0.004830439 0.001372275
v -0.005148542 0.009784402 0.001372275
v -6.562518E-09 0.01167665 0.001372275
v -0.008445697 0.001259397 -0.001377725
v 0.005219716 0.006021234 -0.001377725
v -0.005219731 0.006021234 -0.001377725
v 0.008445683 0.001259397 -0.001377725
v -0.008445697 -0.004626556 -0.001377725
v 0.008445683 -0.004626556 -0.001377725
v -0.005219731 -0.009388394 -0.001377725
v 0.008445683 -0.004626556 -0.001377725
v -0.008445697 -0.004626556 -0.001377725
v 0.005219716 -0.009388394 -0.001377725
v -7.141659E-09 -0.01120725 -0.001377725
v 1.183739E-08 0.001150734 -0.001618496
v 0.002598098 0.002655433 0.00164006
v 2.237331E-08 0.004141436 0.001656415
v 0.002598089 -0.0003483434 -0.001614288
v 0.002598098 -0.0003165741 0.001607351
v 0.002598089 -0.003346499 -0.001605873
v 2.227583E-08 -0.001802578 0.001590996
v 1.206265E-08 -0.004845576 -0.001601665
v -0.002598054 -0.0003165741 0.001607351
v -0.002598064 -0.003346499 -0.001605873
v -0.002598054 0.002655433 0.00164006
v -0.002598064 -0.000348344 -0.001614288
v 2.237331E-08 0.004141436 0.001656415
v 1.183739E-08 0.001150734 -0.001618496
v 2.237331E-08 0.004141436 0.001656415
v 0.002598098 0.002655433 0.00164006
v 0.002598098 -0.0003165741 0.001607351
v 2.227583E-08 -0.001802578 0.001590996
v -0.002598054 0.002655433 0.00164006
v -0.002598054 -0.0003165741 0.001607351
v 1.206265E-08 -0.004845576 -0.001601665
v 0.002598089 -0.003346499 -0.001605873
v 0.002598089 -0.0003483434 -0.001614288
v 1.183739E-08 0.001150734 -0.001618496
v -0.002598064 -0.003346499 -0.001605873
v -0.002598064 -0.000348344 -0.001614288
vt 0.09999993 0.875
vt -7.450581E-08 0.875
vt -7.450581E-08 0.90625
vt 0.09999993 0.90625
vt -7.450581E-08 0.9375
vt 0.1999999 0.8749999
vt 0.09999992 0.9375
vt 0.1999999 0.9062499
vt 0.2999999 0.8749999
vt 0.1999999 0.9375001
vt 0.2999999 0.90625
vt 0.3999999 0.8749999
vt 0.2999999 0.9374999
vt 0.3999999 0.90625
vt 0.4999999 0.875
vt 0.3999999 0.9375
vt 0.4999999 0.9062501
vt 0.5999999 0.8750001
vt 0.4999999 0.9374999
vt 0.5999999 0.90625
vt 0.6 0.9375001
vt 0.9999999 0.8749999
vt 0.9 0.875
vt 0.8999999 0.90625
vt 0.9999999 0.9062499
vt 0.9 0.9375001
vt 0.9999999 0.9374999
vt 0.6999999 0.875
vt 0.6999999 0.90625
vt 0.8 0.8750001
vt 0.6999999 0.9374999
vt 0.8000001 0.9062501
vt 0.8 0.9375
vt 0.4999999 0.9374999
vt 0.3999999 0.9375
vt 0.6 0.9375001
vt 0.9999999 0.8749999
vt 0.09999993 0.875
vt 0.9 0.875
vt 0.2999999 0.9374999
vt 0.1999999 0.9375001
vt 0.8 0.9375
vt 0.6999999 0.9374999
vt 0.3999999 0.9375
vt 0.2999999 0.9374999
vt 0.6999999 0.9374999
vt 0.6 0.9375001
vt 0.1999999 0.9375001
vt 0.9 0.9375001
vt 0.8 0.9375
vt 0.09999992 0.9375
vt 0.9999999 0.9374999
vt 0.1999999 0.8749999
vt 0.9 0.875
vt 0.09999993 0.875
vt 0.8 0.8750001
vt 0.2999999 0.8749999
vt 0.6999999 0.875
vt 0.3999999 0.8749999
vt 0.6999999 0.875
vt 0.2999999 0.8749999
vt 0.5999999 0.8750001
vt 0.4999999 0.875
vt 1 0.5
vt 0.8333333 1
vt 1 1
vt 0.8333333 0.5
vt 0.6666666 1
vt 0.6666666 0.5
vt 0.4999999 1
vt 0.4999999 0.5
vt 0.3333333 1
vt 0.3333333 0.5
vt 0.1666666 1
vt 0.1666666 0.5
vt -8.940697E-08 1
vt -8.940697E-08 0.5
vt 0.25 0.49
vt 0.4578461 0.37
vt 0.4578461 0.13
vt 0.25 0.01000001
vt 0.04215391 0.37
vt 0.04215391 0.13
vt 0.75 0.01000001
vt 0.9578461 0.13
vt 0.9578461 0.37
vt 0.75 0.49
vt 0.5421539 0.13
vt 0.5421539 0.37
vn -0.4956169 0.47661 -0.7260901
vn 0 0.5347574 -0.8450056
vn 0 0.6028371 -0.7978642
vn -0.4682159 0.5388785 -0.7002742
vn 0 0.6484054 -0.7612953
vn -0.9856939 0.1094433 -0.1281787
vn -0.4005662 0.601418 -0.6912621
vn -0.9116309 0.2531516 -0.3237952
vn -0.7670249 -0.3631212 0.5289761
vn -0.8387085 0.3757023 -0.3942282
vn -0.9256485 -0.2387017 0.2935921
vn -0.3584533 -0.5527803 0.7522933
vn -0.9731489 -0.1441581 0.1794425
vn -0.4781101 -0.5690833 0.6689956
vn 0 -0.5990781 0.8006907
vn -0.5704666 -0.5864723 0.574994
vn 0 -0.6572486 0.7536739
vn 0.3584533 -0.5527802 0.7522934
vn 1.110084E-07 -0.7320082 0.6812958
vn 0.47811 -0.5690834 0.6689955
vn 0.5704668 -0.5864725 0.5749937
vn 0 0.5347574 -0.8450056
vn 0.4956168 0.47661 -0.7260902
vn 0.4682158 0.5388784 -0.7002743
vn 0 0.6028371 -0.7978642
vn 0.400566 0.6014178 -0.6912622
vn 0 0.6484054 -0.7612953
vn 0.7670251 -0.3631214 0.5289758
vn 0.9256487 -0.2387018 0.2935916
vn 0.9856938 0.1094433 -0.1281795
vn 0.9731489 -0.1441581 0.1794424
vn 0.9116309 0.2531516 -0.3237955
vn 0.8387084 0.3757023 -0.3942284
vn 0 0 1
vn 0 0 1
vn 0 0 1
vn 0 0 -1
vn 0 0 -1
vn 0 0 -1
vn 0 0 1
vn 0 0 1
vn 0 0 1
vn 0 0 1
vn 0 0 1
vn 0 0 1
vn 0 0 1
vn 0 0 1
vn 0 0 1
vn 0 0 1
vn 0 0 1
vn 0 0 1
vn 0 0 1
vn 0 0 -1
vn 0 0 -1
vn 0 0 -1
vn 0 0 -1
vn 0 0 -1
vn 0 0 -1
vn 0 0 -1
vn 0 0 -1
vn 0 0 -1
vn 0 0 -1
vn 0 0 -1
vn -5.758337E-07 0.5007732 -0.8655785
vn 0.7068164 0.5796965 0.4054163
vn 4.972798E-07 0.9435953 0.3311009
vn 0.6839857 0.2026041 -0.7007961
vn 0.6847916 -0.2050397 0.6992991
vn 0.7056061 -0.5869153 -0.3970523
vn 5.232121E-07 -0.4967288 0.8679058
vn -5.343289E-07 -0.9490499 -0.3151254
vn -0.6847894 -0.2050394 0.6993014
vn -0.705607 -0.586915 -0.3970511
vn -0.7068154 0.5796969 0.4054174
vn -0.6839879 0.2026043 -0.7007939
vn 4.972798E-07 0.9435953 0.3311009
vn -5.758337E-07 0.5007732 -0.8655785
vn 4.972798E-07 0.9435953 0.3311009
vn 0.7068164 0.5796965 0.4054163
vn 0.6847916 -0.2050397 0.6992991
vn 5.232121E-07 -0.4967288 0.8679058
vn -0.7068154 0.5796969 0.4054174
vn -0.6847894 -0.2050394 0.6993014
vn -5.343289E-07 -0.9490499 -0.3151254
vn 0.7056061 -0.5869153 -0.3970523
vn 0.6839857 0.2026041 -0.7007961
vn -5.758337E-07 0.5007732 -0.8655785
vn -0.705607 -0.586915 -0.3970511
vn -0.6839879 0.2026043 -0.7007939
g Cylinder.020_0
f 3/3/3 2/2/2 1/1/1
f 4/4/4 3/3/3 1/1/1
f 5/5/5 3/3/3 4/4/4
f 4/4/4 1/1/1 6/6/6
f 7/7/7 5/5/5 4/4/4
f 8/8/8 4/4/4 6/6/6
f 7/7/7 4/4/4 8/8/8
f 8/8/8 6/6/6 9/9/9
f 10/10/10 7/7/7 8/8/8
f 11/11/11 8/8/8 9/9/9
f 10/10/10 8/8/8 11/11/11
f 11/11/11 9/9/9 12/12/12
f 13/13/13 10/10/10 11/11/11
f 14/14/14 11/11/11 12/12/12
f 13/13/13 11/11/11 14/14/14
f 14/14/14 12/12/12 15/15/15
f 16/16/16 13/13/13 14/14/14
f 17/17/17 14/14/14 15/15/15
f 16/16/16 14/14/14 17/17/17
f 17/17/17 15/15/15 18/18/18
f 19/19/19 16/16/16 17/17/17
f 20/20/20 17/17/17 18/18/18
f 19/19/19 17/17/17 20/20/20
f 21/21/21 19/19/19 20/20/20
f 24/24/24 23/23/23 22/22/22
f 25/25/25 24/24/24 22/22/22
f 26/26/26 24/24/24 25/25/25
f 27/27/27 26/26/26 25/25/25
g Cylinder.020_1
f 20/20/20 18/18/18 28/28/28
f 29/29/29 20/20/20 28/28/28
f 21/21/21 20/20/20 29/29/29
f 29/29/29 28/28/28 30/30/30
f 31/31/31 21/21/21 29/29/29
f 32/32/32 29/29/29 30/30/30
f 31/31/31 29/29/29 32/32/32
f 32/32/32 30/30/30 23/23/23
f 33/33/33 31/31/31 32/32/32
f 24/24/24 32/32/32 23/23/23
f 33/33/33 32/32/32 24/24/24
f 26/26/26 33/33/33 24/24/24
g Cylinder.020_2
f 36/36/36 35/35/35 34/34/34
f 39/39/39 38/38/38 37/37/37
f 42/42/42 41/41/41 40/40/40
f 43/43/43 42/42/42 40/40/40
f 46/46/46 45/45/45 44/44/44
f 47/47/47 46/46/46 44/44/44
f 50/50/50 49/49/49 48/48/48
f 49/49/49 51/51/51 48/48/48
f 51/51/51 49/49/49 52/52/52
f 55/55/55 54/54/54 53/53/53
f 54/54/54 56/56/56 53/53/53
f 53/53/53 56/56/56 57/57/57
f 56/56/56 58/58/58 57/57/57
f 61/61/61 60/60/60 59/59/59
f 60/60/60 62/62/62 59/59/59
f 59/59/59 62/62/62 63/63/63
g Cylinder.020_3
f 66/66/66 65/65/65 64/64/64
f 65/65/65 67/67/67 64/64/64
f 65/65/65 68/68/68 67/67/67
f 68/68/68 69/69/69 67/67/67
f 68/68/68 70/70/70 69/69/69
f 70/70/70 71/71/71 69/69/69
f 70/70/70 72/72/72 71/71/71
f 72/72/72 73/73/73 71/71/71
f 72/72/72 74/74/74 73/73/73
f 74/74/74 75/75/75 73/73/73
f 74/74/74 76/76/76 75/75/75
f 76/76/76 77/77/77 75/75/75
f 80/80/80 79/79/79 78/78/78
f 78/78/78 81/81/81 80/80/80
f 78/78/78 82/82/82 81/81/81
f 82/82/82 83/83/83 81/81/81
f 86/86/86 85/85/85 84/84/84
f 84/84/84 87/87/87 86/86/86
f 84/84/84 88/88/88 87/87/87
f 88/88/88 89/89/89 87/87/87
