g Cylinder.018
v -0.01712704 0.01015357 0.08521459
v -0.008466782 0.005153564 0.1478813
v -0.01712704 0.01015356 0.1478813
v -0.008466782 0.005153567 0.08521459
v -0.008466782 -0.004846436 0.1478813
v -0.008466782 -0.004846432 0.08521459
v -0.01712704 -0.009846436 0.1478813
v -0.01712704 -0.009846432 0.08521459
v -0.02578729 -0.004846436 0.1478813
v -0.02578729 -0.004846432 0.08521459
v -0.02578729 0.005153564 0.1478813
v -0.02578729 0.005153567 0.08521459
v -0.01712704 0.01015356 0.1478813
v -0.01712704 0.01015357 0.08521459
v -0.01712704 0.01015356 0.1478813
v -0.008466782 0.005153564 0.1478813
v -0.008466782 -0.004846436 0.1478813
v -0.01712704 -0.009846436 0.1478813
v -0.02578729 0.005153564 0.1478813
v -0.02578729 -0.004846436 0.1478813
v -0.01712704 -0.009846432 0.08521459
v -0.008466782 -0.004846432 0.08521459
v -0.008466782 0.005153567 0.08521459
v -0.01712704 0.01015357 0.08521459
v -0.02578729 -0.004846432 0.08521459
v -0.02578729 0.005153567 0.08521459
v -0.01659218 -0.02339838 0.07941093
v 0.0008366454 -0.006298355 0.02201117
v -0.006083888 -0.01235673 0.02290469
v 0.0001022685 -0.009490275 0.05280432
v -0.04085694 -0.01496743 0.1506057
v -0.001857334 0.003968244 0.03063014
v -0.02115443 -0.01037145 0.02631175
v 0.008855863 0.005145636 0.07070395
v -0.03255499 0.02193277 0.1561216
v -0.01158794 0.009203012 0.03101375
v -0.02114547 0.003638435 0.02411571
v -0.009535698 0.0304438 0.1462188
v 0.01803724 0.008435355 -0.1247707
v 0.0272795 0.002457977 -0.2120771
v 0.03440186 0.01032535 -0.1976523
v 0.01258915 0.003381122 -0.1339207
v 0.0262085 -0.0118384 -0.2017757
v 0.01226465 -0.006593832 -0.1281783
v 0.01226465 -0.006593832 -0.1281783
v 0.04079972 -0.01260911 -0.1853351
v 0.02283392 -0.007385716 -0.1199415
v 0.04758244 -0.005651836 -0.1813605
v 0.02760591 -0.002685319 -0.1178582
v 0.0428432 0.005446034 -0.1824552
v 0.02444633 0.004958275 -0.1167326
v 0.03440186 0.01032535 -0.1976523
v 0.01803724 0.008435355 -0.1247707
v 0.011454 -0.0003919164 -0.04577798
v 0.007486535 0.007084573 -0.04541924
v 0.01803724 0.008435355 -0.1247707
v 0.001050326 0.0102429 -0.05289609
v 0.011454 -0.0003919164 -0.04577798
v 0.006964401 -0.005103945 -0.04811929
v 0.006964401 -0.005103945 -0.04811929
v 0.011454 -0.0003919164 -0.04577798
v -0.003362013 -0.004582581 -0.05610558
v 0.01226465 -0.006593832 -0.1281783
v -0.003387164 0.005219007 -0.06105168
v 0.001050326 0.0102429 -0.05289609
v 0.01258915 0.003381122 -0.1339207
v 0.01803724 0.008435355 -0.1247707
v 0.04758244 -0.005651836 -0.1813605
v 0.0428432 0.005446034 -0.1824552
v 0.04079972 -0.01260911 -0.1853351
v 0.0262085 -0.0118384 -0.2017757
v 0.03440186 0.01032535 -0.1976523
v 0.0272795 0.002457977 -0.2120771
v 0.0001022685 -0.009490275 0.05280432
v -0.01659218 -0.02339838 0.07941093
v 0.008855863 0.005145636 0.07070395
v -0.04085694 -0.01496743 0.1506057
v -0.009535698 0.0304438 0.1462188
v -0.03255499 0.02193277 0.1561216
vt 1 0.5
vt 0.8333333 1
vt 1 1
vt 0.8333333 0.5
vt 0.6666666 1
vt 0.6666666 0.5
vt 0.4999999 1
vt 0.4999999 0.5
vt 0.3333333 1
vt 0.3333333 0.5
vt 0.1666666 1
vt 0.1666666 0.5
vt -8.940697E-08 1
vt -8.940697E-08 0.5
vt 0.25 0.49
vt 0.4578461 0.37
vt 0.4578461 0.13
vt 0.25 0.01000001
vt 0.04215391 0.37
vt 0.04215391 0.13
vt 0.75 0.01000001
vt 0.9578461 0.13
vt 0.9578461 0.37
vt 0.75 0.49
vt 0.5421539 0.13
vt 0.5421539 0.37
vt 0.2893537 0.1666667
vt 0.332933 0.1666667
vt 0.2893537 0.1666667
vt 0.332933 0.1666667
vt 0.2763894 0.1666667
vt 0.3731894 0.1666667
vt 0.2763894 0.1666667
vt 0.3731894 0.1666667
vt 0.3338779 0.1666667
vt 0.3817319 0.1666667
vt 0.3338779 0.1666667
vt 0.3817319 0.1666667
vt 0.3817318 0.1666667
vt 0.3338779 0.1666667
vt 0.3817319 0.1666667
vt 0.3338779 0.1666666
vt 0.2763894 0.1666667
vt 0.2763894 0.1666667
vt 0.2763894 0.1666667
vt 0.2893537 0.1666667
vt 0.2893537 0.1666667
vt 0.332933 0.1666667
vt 0.332933 0.1666667
vt 0.3731894 0.1666667
vt 0.3731894 0.1666667
vt 0.3817319 0.1666667
vt 0.3817318 0.1666667
vt 0.332933 0.1666667
vt 0.3731894 0.1666667
vt 0.3817318 0.1666667
vt 0.3817319 0.1666667
vt 0.332933 0.1666667
vt 0.2893537 0.1666667
vt 0.2893537 0.1666667
vt 0.332933 0.1666667
vt 0.2763894 0.1666667
vt 0.2763894 0.1666667
vt 0.3338779 0.1666667
vt 0.3817319 0.1666667
vt 0.3338779 0.1666666
vt 0.3817318 0.1666667
vt 0.332933 0.1666667
vt 0.3731894 0.1666667
vt 0.2893537 0.1666667
vt 0.2763894 0.1666667
vt 0.3817319 0.1666667
vt 0.3338779 0.1666667
vt 0.332933 0.1666667
vt 0.2893537 0.1666667
vt 0.3731894 0.1666667
vt 0.2763894 0.1666667
vt 0.3817319 0.1666667
vt 0.3338779 0.1666667
vn 2.25678E-07 0.7924034 -0.6099975
vn 0.6862413 0.3962017 0.6099975
vn -2.239114E-07 0.7924033 0.6099975
vn 0.6862415 0.3962016 -0.6099974
vn 0.6862413 -0.3962017 0.6099975
vn 0.6862415 -0.3962016 -0.6099973
vn -2.25678E-07 -0.7924034 0.6099975
vn 2.239114E-07 -0.7924034 -0.6099975
vn -0.6862415 -0.3962016 0.6099974
vn -0.6862413 -0.3962017 -0.6099975
vn -0.6862415 0.3962016 0.6099974
vn -0.6862413 0.3962017 -0.6099975
vn -2.239114E-07 0.7924033 0.6099975
vn 2.25678E-07 0.7924034 -0.6099975
vn -2.239114E-07 0.7924033 0.6099975
vn 0.6862413 0.3962017 0.6099975
vn 0.6862413 -0.3962017 0.6099975
vn -2.25678E-07 -0.7924034 0.6099975
vn -0.6862415 0.3962016 0.6099974
vn -0.6862415 -0.3962016 0.6099974
vn 2.239114E-07 -0.7924034 -0.6099975
vn 0.6862415 -0.3962016 -0.6099973
vn 0.6862415 0.3962016 -0.6099974
vn 2.25678E-07 0.7924034 -0.6099975
vn -0.6862413 -0.3962017 -0.6099975
vn -0.6862413 0.3962017 -0.6099975
vn -0.4074003 -0.8995126 -0.1578041
vn 0.936956 -0.3474419 0.03738488
vn 0.2263759 -0.9710251 -0.07657824
vn 0.8595649 -0.5007567 -0.1019361
vn -0.9887621 0.0498083 -0.1409567
vn 0.8293296 0.555735 -0.05805999
vn -0.8363594 -0.5148377 -0.1882685
vn 0.6478418 0.7411193 -0.1761911
vn -0.800006 0.578001 -0.1609515
vn -0.01706182 0.9941168 -0.1069615
vn -0.8550454 0.492379 -0.1626657
vn -0.3011245 0.9387159 -0.1677395
vn -0.1173452 0.9927413 -0.0263547
vn -0.9173939 0.3579446 -0.1739659
vn -0.3997237 0.9140168 -0.06924021
vn -0.892911 0.4122134 -0.18108
vn -0.8928432 -0.4281039 -0.1398497
vn -0.7021301 -0.70396 -0.1070211
vn -0.7021301 -0.70396 -0.1070211
vn 0.1864347 -0.97391 0.1293893
vn 0.2991446 -0.9459646 0.1251537
vn 0.9126738 -0.2806563 0.2970831
vn 0.9405648 -0.215228 0.2627063
vn 0.6208219 0.7628095 0.1808364
vn 0.6875162 0.7078439 0.1621066
vn -0.3997237 0.9140168 -0.06924021
vn -0.1173452 0.9927413 -0.0263547
vn 0.9625407 -0.2142336 0.1661902
vn 0.7169294 0.6844482 0.1324499
vn -0.1173452 0.9927413 -0.0263547
vn -0.09416084 0.9953767 -0.01894584
vn 0.9625407 -0.2142336 0.1661902
vn 0.3269457 -0.944532 0.03107838
vn 0.3269457 -0.944532 0.03107838
vn 0.9625407 -0.2142336 0.1661902
vn -0.7007224 -0.6957678 -0.1577824
vn -0.7021301 -0.70396 -0.1070211
vn -0.8823684 0.4275153 -0.1966128
vn -0.09416084 0.9953767 -0.01894584
vn -0.892911 0.4122134 -0.18108
vn -0.1173452 0.9927413 -0.0263547
vn 0.429214 0.09469163 -0.8982254
vn 0.7200965 -0.0502507 -0.6920521
vn 0.7122504 -0.04561525 -0.7004418
vn 0.8572201 -0.1754902 -0.4841248
vn 0.8482523 -0.1628051 -0.503947
vn 0.9123755 -0.2820941 -0.2966376
vn 0.7601327 -0.6331578 0.1459777
vn 0.7731826 -0.5608389 0.2960545
vn 0.7721835 -0.5779191 0.2640874
vn 0.7274019 -0.4799613 0.4904321
vn 0.7108852 -0.4627393 0.5296361
vn 0.4553021 -0.2309673 0.859857
g Cylinder.018_0
f 3/3/3 2/2/2 1/1/1
f 2/2/2 4/4/4 1/1/1
f 2/2/2 5/5/5 4/4/4
f 5/5/5 6/6/6 4/4/4
f 5/5/5 7/7/7 6/6/6
f 7/7/7 8/8/8 6/6/6
f 7/7/7 9/9/9 8/8/8
f 9/9/9 10/10/10 8/8/8
f 9/9/9 11/11/11 10/10/10
f 11/11/11 12/12/12 10/10/10
f 11/11/11 13/13/13 12/12/12
f 13/13/13 14/14/14 12/12/12
f 17/17/17 16/16/16 15/15/15
f 15/15/15 18/18/18 17/17/17
f 15/15/15 19/19/19 18/18/18
f 19/19/19 20/20/20 18/18/18
f 23/23/23 22/22/22 21/21/21
f 21/21/21 24/24/24 23/23/23
f 21/21/21 25/25/25 24/24/24
f 25/25/25 26/26/26 24/24/24
g Cylinder.018_1
f 29/29/29 28/28/28 27/27/27
f 28/28/28 30/30/30 27/27/27
f 29/29/29 27/27/27 31/31/31
f 28/28/28 32/32/32 30/30/30
f 33/33/33 29/29/29 31/31/31
f 32/32/32 34/34/34 30/30/30
f 33/33/33 31/31/31 35/35/35
f 32/32/32 36/36/36 34/34/34
f 37/37/37 33/33/33 35/35/35
f 36/36/36 38/38/38 34/34/34
f 37/37/37 35/35/35 38/38/38
f 36/36/36 37/37/37 38/38/38
g Cylinder.018_2
f 41/41/41 40/40/40 39/39/39
f 40/40/40 42/42/42 39/39/39
f 40/40/40 43/43/43 42/42/42
f 43/43/43 44/44/44 42/42/42
f 43/43/43 46/46/46 45/45/45
f 46/46/46 47/47/47 45/45/45
f 46/46/46 48/48/48 47/47/47
f 48/48/48 49/49/49 47/47/47
f 48/48/48 50/50/50 49/49/49
f 50/50/50 51/51/51 49/49/49
f 50/50/50 52/52/52 51/51/51
f 52/52/52 53/53/53 51/51/51
f 49/49/49 51/51/51 54/54/54
f 51/51/51 55/55/55 54/54/54
f 51/51/51 56/56/56 55/55/55
f 56/56/56 57/57/57 55/55/55
f 55/55/55 57/57/57 32/32/32
f 57/57/57 36/36/36 32/32/32
f 55/55/55 32/32/32 28/28/28
f 58/58/58 55/55/55 28/28/28
f 58/58/58 28/28/28 29/29/29
f 59/59/59 58/58/58 29/29/29
f 49/49/49 61/61/61 60/60/60
f 60/60/60 29/29/29 33/33/33
f 47/47/47 49/49/49 60/60/60
f 62/62/62 60/60/60 33/33/33
f 47/47/47 60/60/60 62/62/62
f 62/62/62 33/33/33 37/37/37
f 63/63/63 47/47/47 62/62/62
f 64/64/64 37/37/37 36/36/36
f 64/64/64 62/62/62 37/37/37
f 63/63/63 62/62/62 64/64/64
f 65/65/65 64/64/64 36/36/36
f 66/66/66 63/63/63 64/64/64
f 66/66/66 64/64/64 65/65/65
f 67/67/67 66/66/66 65/65/65
g Cylinder.018_3
f 70/70/70 69/69/69 68/68/68
f 70/70/70 71/71/71 69/69/69
f 71/71/71 72/72/72 69/69/69
f 72/72/72 71/71/71 73/73/73
f 76/76/76 75/75/75 74/74/74
f 77/77/77 75/75/75 76/76/76
f 78/78/78 77/77/77 76/76/76
f 77/77/77 78/78/78 79/79/79
