g Cylinder.006
v -0.01040863 -0.005283603 0.001382908
v -0.01145579 -0.002857686 -0.0001753949
v -0.01132979 0.0004095595 0.004429568
v -0.009387071 -0.003221216 0.004622987
v -0.005163413 0.001765531 0.007778606
v -0.004279729 -0.002225359 0.007359079
v -0.005345718 0.004576412 0.006730027
v -0.01226448 0.002935425 0.003229541
v -0.001571902 0.001804851 0.007886637
v -0.001571902 -0.002555369 0.006452383
v 0.001135925 -0.002225359 0.007359079
v -0.001571902 0.004768196 0.007256947
v 0.002019609 0.001765531 0.007778606
v 0.006243268 -0.003221216 0.004622987
v 0.008185985 0.0004095595 0.004429568
v 0.007264827 -0.005283603 0.001382908
v 0.008311985 -0.002857686 -0.0001753949
v 0.002201915 0.004576412 0.006730027
v 0.009120672 0.002935425 0.003229541
v -0.001571902 0.008589013 0.005585635
v -0.005345719 0.008397228 0.005058713
v 0.002201916 0.008397228 0.005058713
v 0.008414843 0.007278696 0.001985576
v 0.009593111 0.0002374317 -0.001908193
v 0.009547973 0.004944162 -0.004428507
v -0.01155865 0.007278696 0.001985576
v -0.01273691 0.0002374317 -0.001908193
v -0.01269178 0.004944162 -0.004428507
v -0.00782766 -0.006475098 0.0001384489
v -0.007606494 -0.004173163 -0.003286167
v -0.004279729 -0.007486851 -0.001625005
v -0.005163413 -0.00545373 -0.00449031
v -0.007907497 -0.0005315579 -0.005217871
v -0.001571902 -0.007454692 -0.001992573
v -0.005345719 -0.001418427 -0.007421051
v -0.009943135 0.003844609 -0.006152713
v -0.005345719 0.003706646 -0.008279658
v -0.001571902 -0.005416743 -0.004913088
v -0.001571902 -0.001378382 -0.007878763
v -0.001571902 0.003702624 -0.008468536
v 0.002201915 0.003706646 -0.008279658
v 0.002201915 -0.001418427 -0.007421051
v 0.006799332 0.003844609 -0.006152713
v 0.004763693 -0.0005315579 -0.005217871
v 0.002019609 -0.00545373 -0.00449031
v 0.001135926 -0.007486851 -0.001625005
v 0.00446269 -0.004173163 -0.003286167
v 0.004683857 -0.006475098 0.0001384489
v -0.007907497 -0.0005315579 -0.005217871
v -0.009943135 0.003844609 -0.006152713
v -0.01269178 0.004944162 -0.004428507
v -0.01273691 0.0002374317 -0.001908193
v 0.004763693 -0.0005315579 -0.005217871
v 0.009593111 0.0002374317 -0.001908193
v 0.009547973 0.004944162 -0.004428507
v 0.006799332 0.003844609 -0.006152713
v -0.01269178 0.004944162 -0.004428507
v -0.009943135 0.003844609 -0.006152713
v -0.01155865 0.007278696 0.001985576
v 0.009547973 0.004944162 -0.004428507
v 0.008414843 0.007278696 0.001985576
v 0.006799332 0.003844609 -0.006152713
v -0.01155865 0.007278696 0.001985576
v -0.009943135 0.003844609 -0.006152713
v -0.005345719 0.003706646 -0.008279658
v -0.005345719 0.008397228 0.005058713
v -0.001571902 0.003702624 -0.008468536
v -0.001571902 0.008589013 0.005585635
v 0.002201916 0.008397228 0.005058713
v 0.002201915 0.003706646 -0.008279658
v 0.008414843 0.007278696 0.001985576
v 0.006799332 0.003844609 -0.006152713
v 0.008185985 0.0004095595 0.004429568
v 0.009120672 0.002935425 0.003229541
v 0.009593111 0.0002374317 -0.001908193
v 0.008311985 -0.002857686 -0.0001753949
v 0.004763693 -0.0005315579 -0.005217871
v 0.00446269 -0.004173163 -0.003286167
v -0.01145579 -0.002857686 -0.0001753949
v -0.007606494 -0.004173163 -0.003286167
v -0.007907497 -0.0005315579 -0.005217871
v -0.01273691 0.0002374317 -0.001908193
v -0.01132979 0.0004095595 0.004429568
v -0.01145579 -0.002857686 -0.0001753949
v -0.01273691 0.0002374317 -0.001908193
v -0.01226448 0.002935425 0.003229541
v 0.007264827 -0.005283603 0.001382908
v 0.004683857 -0.006475098 0.0001384489
v 0.006243268 -0.003221216 0.004622987
v 0.001135926 -0.007486851 -0.001625005
v 0.001135925 -0.002225359 0.007359079
v -0.001571902 -0.007454692 -0.001992573
v -0.001571902 -0.002555369 0.006452383
v -0.004279729 -0.002225359 0.007359079
v -0.004279729 -0.007486851 -0.001625005
v -0.009387071 -0.003221216 0.004622987
v -0.00782766 -0.006475098 0.0001384489
v -0.01040863 -0.005283603 0.001382908
v -0.001572035 0.00756833 -0.00078928
v -0.000188839 -0.004580312 0.003450529
v -0.0015769 -0.004192212 0.004145272
v -1.31892E-05 0.007187973 -0.001604957
v -0.0001839741 -0.005353536 0.002049779
v -1.31892E-05 0.006427259 -0.003236312
v -0.001567171 -0.005738662 0.00134377
v -0.001572035 0.006046903 -0.004051989
v -0.002955232 -0.005350561 0.002038512
v -0.003130882 0.006427259 -0.003236312
v -0.002960097 -0.004577337 0.003439263
v -0.003130882 0.007187973 -0.001604957
v -0.0015769 -0.004192212 0.004145272
v -0.001572035 0.00756833 -0.00078928
v -0.0001839741 -0.005353536 0.002049779
v -0.001567171 -0.005738662 0.00134377
v -0.002955232 -0.005350561 0.002038512
v -0.002960097 -0.004577337 0.003439263
v -0.000188839 -0.004580312 0.003450529
v -0.0015769 -0.004192212 0.004145272
v -0.003130882 0.006427259 -0.003236312
v -0.001572035 0.006046903 -0.004051989
v -1.31892E-05 0.006427259 -0.003236312
v -0.003130882 0.007187973 -0.001604957
v -1.31892E-05 0.007187973 -0.001604957
v -0.001572035 0.00756833 -0.00078928
v 0.006457116 0.0002444369 0.0009105987
v 0.009515302 -0.0007771582 -6.60345E-05
v 0.009035074 -0.001892762 0.0003379588
v 0.007083549 0.001042877 0.0003448692
v 0.009391357 -0.0004337665 -0.001292868
v 0.006871659 0.001259788 -0.000776749
v 0.008787186 -0.001205979 -0.002115708
v 0.006033334 0.0006782588 -0.001332638
v 0.008306959 -0.002321583 -0.001711715
v 0.005406901 -0.0001201814 -0.0007669083
v 0.008430903 -0.002664974 -0.0004848811
v 0.005618791 -0.0003370921 0.0003547101
v 0.009035074 -0.001892762 0.0003379588
v 0.006457116 0.0002444369 0.0009105987
v 0.008306959 -0.002321583 -0.001711715
v 0.008430903 -0.002664974 -0.0004848811
v 0.009035074 -0.001892762 0.0003379588
v 0.008787186 -0.001205979 -0.002115708
v 0.009515302 -0.0007771582 -6.60345E-05
v 0.009391357 -0.0004337665 -0.001292868
v 0.005406901 -0.0001201814 -0.0007669083
v 0.006033334 0.0006782588 -0.001332638
v 0.006871659 0.001259788 -0.000776749
v 0.007083549 0.001042877 0.0003448692
v 0.005618791 -0.0003370921 0.0003547101
v 0.006457116 0.0002444369 0.0009105987
vt 0.4999999 0.5
vt 0.4999999 0.5
vt 0.3999999 0.5
vt 0.3999999 0.5
vt 0.2999999 0.5
vt 0.2999999 0.5
vt 0.2999999 0.5
vt 0.3999999 0.5
vt 0.2499999 0.5
vt 0.2499999 0.5
vt 0.2999999 0.5
vt 0.2499999 0.5
vt 0.2999999 0.5
vt 0.3999999 0.5
vt 0.3999999 0.5
vt 0.4999999 0.5
vt 0.4999999 0.5
vt 0.2999999 0.5
vt 0.3999999 0.5
vt 0.2499999 0.5
vt 0.2999999 0.5
vt 0.2999999 0.5
vt 0.3999999 0.5
vt 0.4999999 0.5
vt 0.4999999 0.5
vt 0.3999999 0.5
vt 0.4999999 0.5
vt 0.4999999 0.5
vt 0.5999999 0.5
vt 0.5999999 0.5
vt 0.6999999 0.5
vt 0.6999999 0.5
vt 0.5999999 0.5
vt 0.7499999 0.5
vt 0.6999999 0.5
vt 0.5999999 0.5
vt 0.6999999 0.5
vt 0.7499999 0.5
vt 0.7499999 0.5
vt 0.7499999 0.5
vt 0.6999999 0.5
vt 0.6999999 0.5
vt 0.5999999 0.5
vt 0.5999999 0.5
vt 0.6999999 0.5
vt 0.6999999 0.5
vt 0.5999999 0.5
vt 0.5999999 0.5
vt 0.8910685 0.05583592
vt 0.8910685 0.05583592
vt 0.75 0.01000001
vt 0.75 0.01000001
vt 0.8910685 0.05583592
vt 0.75 0.01000001
vt 0.75 0.01000001
vt 0.8910685 0.05583592
vt 0.75 0.01000001
vt 0.8910685 0.05583592
vt 0.3999999 0.5
vt 0.75 0.01000001
vt 0.3999999 0.5
vt 0.8910685 0.05583592
vt 0.3999999 0.5
vt 0.5999999 0.5
vt 0.6999999 0.5
vt 0.2999999 0.5
vt 0.7499999 0.5
vt 0.2499999 0.5
vt 0.2999999 0.5
vt 0.6999999 0.5
vt 0.3999999 0.5
vt 0.5999999 0.5
vt 0.3999999 0.5
vt 0.3999999 0.5
vt 0.4999999 0.5
vt 0.4999999 0.5
vt 0.8910685 0.05583592
vt 0.5999999 0.5
vt 0.4999999 0.5
vt 0.5999999 0.5
vt 0.8910685 0.05583592
vt 0.75 0.01000001
vt 0.3999999 0.5
vt 0.4999999 0.5
vt 0.4999999 0.5
vt 0.3999999 0.5
vt 0.4999999 0.5
vt 0.5999999 0.5
vt 0.3999999 0.5
vt 0.6999999 0.5
vt 0.2999999 0.5
vt 0.7499999 0.5
vt 0.2499999 0.5
vt 0.2999999 0.5
vt 0.6999999 0.5
vt 0.3999999 0.5
vt 0.5999999 0.5
vt 0.4999999 0.5
vt 1 0.5
vt 0.8333333 1
vt 1 1
vt 0.8333333 0.5
vt 0.6666666 1
vt 0.6666666 0.5
vt 0.4999999 1
vt 0.4999999 0.5
vt 0.3333333 1
vt 0.3333333 0.5
vt 0.1666666 1
vt 0.1666666 0.5
vt -8.940697E-08 1
vt -8.940697E-08 0.5
vt 0.4578461 0.13
vt 0.25 0.01000001
vt 0.04215391 0.13
vt 0.04215391 0.37
vt 0.4578461 0.37
vt 0.25 0.49
vt 0.5421539 0.13
vt 0.75 0.01000001
vt 0.9578461 0.13
vt 0.5421539 0.37
vt 0.9578461 0.37
vt 0.75 0.49
vt 1 0.5
vt 0.8333333 1
vt 1 1
vt 0.8333333 0.5
vt 0.6666666 1
vt 0.6666666 0.5
vt 0.4999999 1
vt 0.4999999 0.5
vt 0.3333333 1
vt 0.3333333 0.5
vt 0.1666666 1
vt 0.1666666 0.5
vt -8.940697E-08 1
vt -8.940697E-08 0.5
vt 0.04215391 0.13
vt 0.04215391 0.37
vt 0.25 0.49
vt 0.25 0.01000001
vt 0.4578461 0.37
vt 0.4578461 0.13
vt 0.5421539 0.13
vt 0.75 0.01000001
vt 0.9578461 0.13
vt 0.9578461 0.37
vt 0.5421539 0.37
vt 0.75 0.49
vn -0.81766 -0.5616835 -0.1262686
vn -0.8417942 -0.5369222 -0.05565194
vn -0.6199191 -0.0354616 0.783864
vn -0.7012715 -0.2769368 0.6569052
vn -0.2481259 0.04640001 0.967616
vn -0.1409109 -0.2045716 0.9686561
vn -0.3109791 0.3198099 0.8949937
vn -0.7695281 0.2474806 0.5887104
vn 0 0.03894737 0.9992412
vn 0 -0.2051306 0.9787346
vn 0.1409109 -0.2045717 0.9686561
vn 0 0.3393527 0.9406592
vn 0.2481259 0.04640004 0.967616
vn 0.7012716 -0.2769366 0.6569051
vn 0.6199191 -0.03546143 0.783864
vn 0.8176601 -0.5616834 -0.1262687
vn 0.8417944 -0.5369219 -0.05565209
vn 0.3109791 0.3198099 0.8949937
vn 0.7695281 0.2474806 0.5887103
vn 0 0.4007596 0.9161833
vn -0.3188151 0.3694089 0.8728654
vn 0.3188151 0.3694089 0.8728654
vn 0.8003155 0.2625208 0.5390527
vn 0.927855 -0.1472817 -0.3426268
vn 0.9065305 -0.1742066 -0.3845185
vn -0.8003155 0.2625209 0.5390527
vn -0.927855 -0.1472816 -0.3426268
vn -0.9065306 -0.1742065 -0.3845185
vn -0.5538263 -0.6782696 -0.4829357
vn -0.5808464 -0.604741 -0.5448905
vn -0.282161 -0.8014092 -0.5273788
vn -0.3427365 -0.6838292 -0.6441345
vn -0.5758829 -0.3606881 -0.7336642
vn 0 -0.8222936 -0.5690634
vn -0.3384227 -0.3836647 -0.8592272
vn -0.5580696 -0.3500764 -0.7523329
vn -0.3112676 -0.2080737 -0.9272636
vn 0 -0.709961 -0.704241
vn 0 -0.3692272 -0.9293392
vn 0 -0.1405058 -0.9900799
vn 0.3112675 -0.2080738 -0.9272636
vn 0.3384226 -0.3836647 -0.8592272
vn 0.5580696 -0.3500765 -0.7523329
vn 0.5758828 -0.3606881 -0.7336642
vn 0.3427365 -0.6838294 -0.6441344
vn 0.282161 -0.8014094 -0.5273786
vn 0.5808465 -0.604741 -0.5448904
vn 0.5538263 -0.6782696 -0.4829356
vn -0.5758829 -0.3606881 -0.7336642
vn -0.5580696 -0.3500764 -0.7523329
vn -0.9065306 -0.1742065 -0.3845185
vn -0.927855 -0.1472816 -0.3426268
vn 0.5758828 -0.3606881 -0.7336642
vn 0.927855 -0.1472817 -0.3426268
vn 0.9065305 -0.1742066 -0.3845185
vn 0.5580696 -0.3500765 -0.7523329
vn 0.1424909 0.9217482 -0.3606613
vn -0.002242216 0.9332696 -0.3591697
vn -0.02267495 0.9333122 -0.3583494
vn -0.1424909 0.9217482 -0.3606613
vn 0.02267493 0.9333122 -0.3583494
vn 0.002242186 0.9332696 -0.3591697
vn -0.02267495 0.9333122 -0.3583494
vn -0.002242216 0.9332696 -0.3591697
vn -0.02730025 0.9395587 -0.3412975
vn -0.02600917 0.9398776 -0.3405197
vn 0 0.9439703 -0.3300305
vn 0 0.9439703 -0.3300305
vn 0.02600917 0.9398776 -0.3405196
vn 0.02730025 0.9395587 -0.3412975
vn 0.02267493 0.9333122 -0.3583494
vn 0.002242186 0.9332696 -0.3591697
vn 0.941557 -0.2584302 0.2160657
vn 0.941557 -0.2584302 0.2160657
vn 0.8773332 -0.4213167 -0.2297361
vn 0.8541839 -0.435501 -0.2840931
vn 0.5918319 -0.4879798 -0.6415689
vn 0.5918319 -0.4879798 -0.6415689
vn -0.8541839 -0.4355009 -0.2840931
vn -0.5918319 -0.4879798 -0.6415689
vn -0.5918319 -0.4879798 -0.6415689
vn -0.8773332 -0.4213166 -0.2297361
vn -0.941557 -0.2584302 0.2160657
vn -0.8541839 -0.4355009 -0.2840931
vn -0.8773332 -0.4213166 -0.2297361
vn -0.941557 -0.2584302 0.2160657
vn 0.1104485 -0.8222982 0.5582354
vn 0.07246799 -0.8414289 0.5354865
vn 0.07236489 -0.841478 0.5354231
vn -0.02019341 -0.8578658 0.513477
vn -0.009908775 -0.8567957 0.5155607
vn 0 -0.863911 0.5036445
vn 0 -0.863911 0.5036445
vn 0.009908757 -0.8567957 0.5155609
vn 0.02019339 -0.8578657 0.5134771
vn -0.0723649 -0.841478 0.5354231
vn -0.07246801 -0.8414289 0.5354865
vn -0.1104485 -0.822298 0.5582355
vn -0.001135531 0.8790021 0.4768165
vn 0.6796163 -0.3751542 0.6303817
vn -0.002311786 -0.2019179 0.9793997
vn 0.6896107 0.7150893 0.114386
vn 0.683806 -0.7257637 -0.07534292
vn 0.6902416 0.385915 -0.6120753
vn 0.000168976 -0.902399 -0.4309016
vn 0.001096143 0.2211 -0.9752505
vn -0.6845194 -0.7247912 -0.07817182
vn -0.68916 0.3851787 -0.6137554
vn -0.6827552 -0.374433 0.6274115
vn -0.6907104 0.7142966 0.112692
vn -0.002311786 -0.2019179 0.9793997
vn -0.001135531 0.8790021 0.4768165
vn 0.683806 -0.7257637 -0.07534292
vn 0.000168976 -0.902399 -0.4309016
vn -0.6845194 -0.7247912 -0.07817182
vn -0.6827552 -0.374433 0.6274115
vn 0.6796163 -0.3751542 0.6303817
vn -0.002311786 -0.2019179 0.9793997
vn -0.68916 0.3851787 -0.6137554
vn 0.001096143 0.2211 -0.9752505
vn 0.6902416 0.385915 -0.6120753
vn -0.6907104 0.7142966 0.112692
vn 0.6896107 0.7150893 0.114386
vn -0.001135531 0.8790021 0.4768165
vn -0.3460666 0.2462567 0.9053152
vn 0.917776 0.1804072 0.3537517
vn 0.5841785 -0.4775582 0.6562573
vn 0.05687868 0.8237813 0.5640472
vn 0.8369087 0.3545857 -0.4169567
vn -0.03863531 0.9812163 -0.1890025
vn 0.4125918 -0.1253869 -0.902245
vn -0.5448213 0.5699407 -0.6150912
vn 0.07280402 -0.7933254 -0.604429
vn -0.9602796 -0.006289313 -0.2789686
vn 0.1623858 -0.9705447 0.1779715
vn -0.8586969 -0.1720718 0.4827327
vn 0.5841785 -0.4775582 0.6562573
vn -0.3460666 0.2462567 0.9053152
vn 0.07280402 -0.7933254 -0.604429
vn 0.1623858 -0.9705447 0.1779715
vn 0.5841785 -0.4775582 0.6562573
vn 0.4125918 -0.1253869 -0.902245
vn 0.917776 0.1804072 0.3537517
vn 0.8369087 0.3545857 -0.4169567
vn -0.9602796 -0.006289313 -0.2789686
vn -0.5448213 0.5699407 -0.6150912
vn -0.03863531 0.9812163 -0.1890025
vn 0.05687868 0.8237813 0.5640472
vn -0.8586969 -0.1720718 0.4827327
vn -0.3460666 0.2462567 0.9053152
g Cylinder.006_0
f 3/3/3 2/2/2 1/1/1
f 4/4/4 3/3/3 1/1/1
f 5/5/5 3/3/3 4/4/4
f 6/6/6 5/5/5 4/4/4
f 5/5/5 7/7/7 3/3/3
f 7/7/7 8/8/8 3/3/3
f 9/9/9 5/5/5 6/6/6
f 10/10/10 9/9/9 6/6/6
f 9/9/9 10/10/10 11/11/11
f 9/9/9 12/12/12 5/5/5
f 12/12/12 7/7/7 5/5/5
f 13/13/13 9/9/9 11/11/11
f 12/12/12 9/9/9 13/13/13
f 13/13/13 11/11/11 14/14/14
f 15/15/15 13/13/13 14/14/14
f 15/15/15 14/14/14 16/16/16
f 17/17/17 15/15/15 16/16/16
f 18/18/18 13/13/13 15/15/15
f 18/18/18 12/12/12 13/13/13
f 19/19/19 18/18/18 15/15/15
f 12/12/12 20/20/20 7/7/7
f 20/20/20 12/12/12 18/18/18
f 20/20/20 21/21/21 7/7/7
f 22/22/22 20/20/20 18/18/18
f 22/22/22 18/18/18 19/19/19
f 7/7/7 21/21/21 8/8/8
f 23/23/23 22/22/22 19/19/19
f 23/23/23 19/19/19 24/24/24
f 25/25/25 23/23/23 24/24/24
f 21/21/21 26/26/26 8/8/8
f 8/8/8 26/26/26 27/27/27
f 26/26/26 28/28/28 27/27/27
g Cylinder.006_1
f 1/1/1 2/2/2 29/29/29
f 2/2/2 30/30/30 29/29/29
f 29/29/29 30/30/30 31/31/31
f 30/30/30 32/32/32 31/31/31
f 30/30/30 33/33/33 32/32/32
f 31/31/31 32/32/32 34/34/34
f 33/33/33 35/35/35 32/32/32
f 33/33/33 36/36/36 35/35/35
f 36/36/36 37/37/37 35/35/35
f 32/32/32 38/38/38 34/34/34
f 32/32/32 35/35/35 38/38/38
f 35/35/35 37/37/37 39/39/39
f 35/35/35 39/39/39 38/38/38
f 37/37/37 40/40/40 39/39/39
f 40/40/40 41/41/41 39/39/39
f 41/41/41 42/42/42 39/39/39
f 39/39/39 42/42/42 38/38/38
f 41/41/41 43/43/43 42/42/42
f 43/43/43 44/44/44 42/42/42
f 38/38/38 45/45/45 34/34/34
f 42/42/42 45/45/45 38/38/38
f 42/42/42 44/44/44 45/45/45
f 45/45/45 46/46/46 34/34/34
f 44/44/44 47/47/47 45/45/45
f 45/45/45 47/47/47 46/46/46
f 47/47/47 48/48/48 46/46/46
f 47/47/47 17/17/17 48/48/48
f 17/17/17 16/16/16 48/48/48
f 51/51/51 50/50/50 49/49/49
f 52/52/52 51/51/51 49/49/49
f 55/55/55 54/54/54 53/53/53
f 56/56/56 55/55/55 53/53/53
g Cylinder.006_2
f 59/59/59 58/58/58 57/57/57
f 62/62/62 61/61/61 60/60/60
f 65/65/65 64/64/64 63/63/63
f 66/66/66 65/65/65 63/63/63
f 67/67/67 65/65/65 66/66/66
f 68/68/68 67/67/67 66/66/66
f 67/67/67 68/68/68 69/69/69
f 70/70/70 67/67/67 69/69/69
f 70/70/70 69/69/69 71/71/71
f 72/72/72 70/70/70 71/71/71
f 75/75/75 74/74/74 73/73/73
f 76/76/76 75/75/75 73/73/73
f 77/77/77 75/75/75 76/76/76
f 78/78/78 77/77/77 76/76/76
f 81/81/81 80/80/80 79/79/79
f 82/82/82 81/81/81 79/79/79
f 85/85/85 84/84/84 83/83/83
f 86/86/86 85/85/85 83/83/83
f 89/89/89 88/88/88 87/87/87
f 88/88/88 89/89/89 90/90/90
f 89/89/89 91/91/91 90/90/90
f 90/90/90 91/91/91 92/92/92
f 91/91/91 93/93/93 92/92/92
f 93/93/93 94/94/94 92/92/92
f 94/94/94 95/95/95 92/92/92
f 94/94/94 96/96/96 95/95/95
f 96/96/96 97/97/97 95/95/95
f 97/97/97 96/96/96 98/98/98
g Cylinder.006_3
f 101/101/101 100/100/100 99/99/99
f 100/100/100 102/102/102 99/99/99
f 100/100/100 103/103/103 102/102/102
f 103/103/103 104/104/104 102/102/102
f 103/103/103 105/105/105 104/104/104
f 105/105/105 106/106/106 104/104/104
f 105/105/105 107/107/107 106/106/106
f 107/107/107 108/108/108 106/106/106
f 107/107/107 109/109/109 108/108/108
f 109/109/109 110/110/110 108/108/108
f 109/109/109 111/111/111 110/110/110
f 111/111/111 112/112/112 110/110/110
f 115/115/115 114/114/114 113/113/113
f 113/113/113 116/116/116 115/115/115
f 113/113/113 117/117/117 116/116/116
f 117/117/117 118/118/118 116/116/116
f 121/121/121 120/120/120 119/119/119
f 119/119/119 122/122/122 121/121/121
f 122/122/122 123/123/123 121/121/121
f 122/122/122 124/124/124 123/123/123
f 127/127/127 126/126/126 125/125/125
f 126/126/126 128/128/128 125/125/125
f 126/126/126 129/129/129 128/128/128
f 129/129/129 130/130/130 128/128/128
f 129/129/129 131/131/131 130/130/130
f 131/131/131 132/132/132 130/130/130
f 131/131/131 133/133/133 132/132/132
f 133/133/133 134/134/134 132/132/132
f 133/133/133 135/135/135 134/134/134
f 135/135/135 136/136/136 134/134/134
f 135/135/135 137/137/137 136/136/136
f 137/137/137 138/138/138 136/136/136
f 141/141/141 140/140/140 139/139/139
f 139/139/139 142/142/142 141/141/141
f 142/142/142 143/143/143 141/141/141
f 142/142/142 144/144/144 143/143/143
f 147/147/147 146/146/146 145/145/145
f 145/145/145 148/148/148 147/147/147
f 145/145/145 149/149/149 148/148/148
f 149/149/149 150/150/150 148/148/148
