g Cylinder.014
v 0.0009285747 0.004871841 -0.001488309
v 0.004320905 0.003683551 -0.00148831
v 0.004102602 0.005988502 -1.687944E-05
v 0.0004285764 0.007265443 -1.687884E-05
v 0.00402087 0.007535063 0.001454549
v -7.142171E-05 0.008949354 0.001454549
v 0.004102602 -0.004829908 -1.687944E-05
v -7.142171E-05 -0.0058613 0.001454549
v 0.00402087 -0.004447008 0.001454549
v 0.0004285764 -0.006106848 -1.687944E-05
v 0.004320905 -0.006383803 -0.00148831
v -0.004163714 -0.004447008 0.001454549
v 0.0009285747 -0.007572093 -0.00148831
v -0.003245449 -0.004829908 -1.687944E-05
v -0.00669289 -0.0007443443 0.001454549
v -0.002463755 -0.006383803 -0.00148831
v -0.005516123 -0.001486836 -1.687944E-05
v -0.00669289 0.003832399 0.001454549
v -0.004560331 -0.003272819 -0.00148831
v -0.005516123 0.00264543 -1.687944E-05
v -0.004163714 0.007535063 0.001454549
v -0.004560331 0.0005725679 -0.00148831
v -0.003245449 0.005988502 -1.687944E-05
v -7.142171E-05 0.008949354 0.001454549
v -0.002463755 0.003683551 -0.00148831
v 0.0004285764 0.007265443 -1.687884E-05
v 0.0009285747 0.004871841 -0.001488309
v 0.006550045 0.003832399 0.001454549
v 0.006373274 0.00264543 -1.687944E-05
v 0.006550045 -0.0007443443 0.001454549
v 0.006417479 0.0005725679 -0.00148831
v 0.006373274 -0.001486836 -1.687944E-05
v 0.006417479 -0.003272819 -0.00148831
v -7.142171E-05 -0.0058613 0.001454549
v -0.004163714 -0.004447008 0.001454549
v -0.004163714 0.007535063 0.001454549
v -7.142171E-05 0.008949354 0.001454549
v 0.00402087 -0.004447008 0.001454549
v -7.142171E-05 -0.0058613 0.001454549
v 0.00402087 0.007535063 0.001454549
v 0.006550045 -0.0007443443 0.001454549
v 0.006550045 0.003832399 0.001454549
v -0.004163714 -0.004447008 0.001454549
v -0.00669289 -0.0007443443 0.001454549
v -0.00669289 0.003832399 0.001454549
v -0.004163714 0.007535063 0.001454549
v 0.004320905 0.003683551 -0.00148831
v 0.006417479 -0.003272819 -0.00148831
v 0.006417479 0.0005725679 -0.00148831
v 0.004320905 -0.006383803 -0.00148831
v 0.0009285747 0.004871841 -0.001488309
v 0.0009285747 -0.007572093 -0.00148831
v -0.002463755 0.003683551 -0.00148831
v -0.002463755 -0.006383803 -0.00148831
v -0.002463755 -0.006383803 -0.00148831
v -0.002463755 0.003683551 -0.00148831
v -0.004560331 0.0005725679 -0.00148831
v -0.004560331 -0.003272819 -0.00148831
v -0.001071446 0.0002976409 -0.001596527
v 0.001153902 0.001943062 0.001688616
v -0.001071435 0.003215872 0.001702624
v 0.000883993 -0.0008306375 -0.00159336
v 0.001153902 -0.0006025591 0.001660599
v 0.0008839931 -0.003087195 -0.001587025
v -0.001071435 -0.001875369 0.001646591
v -0.001071446 -0.004215472 -0.001583859
v -0.003296772 -0.0006025591 0.001660599
v -0.003026885 -0.003087195 -0.001587025
v -0.003296772 0.001943062 0.001688616
v -0.003026885 -0.0008306375 -0.00159336
v -0.001071435 0.003215872 0.001702624
v -0.001071446 0.0002976409 -0.001596527
v -0.001071435 0.003215872 0.001702624
v 0.001153902 0.001943062 0.001688616
v 0.001153902 -0.0006025591 0.001660599
v -0.001071435 -0.001875369 0.001646591
v -0.003296772 0.001943062 0.001688616
v -0.003296772 -0.0006025591 0.001660599
v -0.001071446 -0.004215472 -0.001583859
v 0.0008839931 -0.003087195 -0.001587025
v 0.000883993 -0.0008306375 -0.00159336
v -0.001071446 0.0002976409 -0.001596527
v -0.003026885 -0.003087195 -0.001587025
v -0.003026885 -0.0008306375 -0.00159336
vt 1 0.6607143
vt 0.8999998 0.6607143
vt 0.8999999 0.6785715
vt 1 0.6785715
vt 0.9 0.6964285
vt 1 0.6964286
vt 0.5999998 0.6785715
vt 0.4999999 0.6964286
vt 0.5999998 0.6964285
vt 0.4999999 0.6785714
vt 0.5999998 0.6607143
vt 0.4 0.6964287
vt 0.4999999 0.6607143
vt 0.4 0.6785715
vt 0.2999999 0.6964286
vt 0.4 0.6607144
vt 0.2999999 0.6785714
vt 0.2 0.6964288
vt 0.3 0.6607143
vt 0.2 0.6785715
vt 0.09999994 0.6964287
vt 0.1999999 0.6607143
vt 0.09999993 0.6785714
vt -7.450581E-08 0.6964286
vt 0.09999992 0.6607143
vt -7.450581E-08 0.6785715
vt -7.450581E-08 0.6607143
vt 0.8 0.6964287
vt 0.8 0.6785715
vt 0.6999999 0.6964285
vt 0.8 0.6607143
vt 0.7 0.6785715
vt 0.7 0.6607143
vt 0.4999999 0.6964286
vt 0.4 0.6964287
vt 0.09999994 0.6964287
vt -7.450581E-08 0.6964286
vt 0.5999998 0.6964285
vt 0.4999999 0.6964286
vt 0.9 0.6964285
vt 0.6999999 0.6964285
vt 0.8 0.6964287
vt 0.4 0.6964287
vt 0.2999999 0.6964286
vt 0.2 0.6964288
vt 0.09999994 0.6964287
vt 0.8999998 0.6607143
vt 0.7 0.6607143
vt 0.8 0.6607143
vt 0.5999998 0.6607143
vt 1 0.6607143
vt 0.4999999 0.6607143
vt 0.09999992 0.6607143
vt 0.4 0.6607144
vt 0.4 0.6607144
vt 0.09999992 0.6607143
vt 0.1999999 0.6607143
vt 0.3 0.6607143
vt 1 0.5
vt 0.8333333 1
vt 1 1
vt 0.8333333 0.5
vt 0.6666666 1
vt 0.6666666 0.5
vt 0.4999999 1
vt 0.4999999 0.5
vt 0.3333333 1
vt 0.3333333 0.5
vt 0.1666666 1
vt 0.1666666 0.5
vt -8.940697E-08 1
vt -8.940697E-08 0.5
vt 0.25 0.49
vt 0.4578461 0.37
vt 0.4578461 0.13
vt 0.25 0.01000001
vt 0.04215391 0.37
vt 0.04215391 0.13
vt 0.75 0.01000001
vt 0.9578461 0.13
vt 0.9578461 0.37
vt 0.75 0.49
vt 0.5421539 0.13
vt 0.5421539 0.37
vn 0.02641065 0.5267448 -0.8496132
vn 0.5181995 0.4936469 -0.698414
vn 0.4692176 0.5669926 -0.6770186
vn 0.0167657 0.6063753 -0.7950019
vn 0.4101927 0.6399571 -0.6497668
vn -0.0243846 0.6528497 -0.7570949
vn 0.5569653 -0.6769465 0.4811788
vn -0.0698848 -0.9878851 0.138561
vn 0.60965 -0.7584758 0.230307
vn 0.003539906 -0.8738558 0.4861723
vn 0.4045016 -0.5982627 0.6917082
vn -0.670202 -0.7033347 -0.2369591
vn 0.0287722 -0.704555 0.7090658
vn -0.6247913 -0.7721943 0.1155496
vn -0.8103589 -0.1720346 -0.5601094
vn -0.4182875 -0.7263085 0.5454463
vn -0.8556492 -0.2543829 -0.4507259
vn -0.653398 0.2430169 -0.7169476
vn -0.8893184 -0.456885 -0.01920412
vn -0.6648644 0.2001242 -0.7196566
vn -0.3782152 0.5100764 -0.7725123
vn -0.7562301 0.1098421 -0.6450199
vn -0.3602723 0.472407 -0.8043852
vn -0.0243846 0.6528497 -0.7570949
vn -0.3658651 0.4089642 -0.8359969
vn 0.0167657 0.6063753 -0.7950019
vn 0.02641065 0.5267448 -0.8496132
vn 0.8468477 0.3610221 -0.3905281
vn 0.8871522 0.2701589 -0.3741326
vn 0.9781418 -0.2076299 -0.01133688
vn 0.9840312 0.1169484 -0.1341855
vn 0.9578879 -0.2520044 0.1376392
vn 0.7966025 -0.3709241 0.4773258
vn 0 0 1
vn 0 0 1
vn 0 0 1
vn 0 0 1
vn 0 0 1
vn 0 0 1
vn 0 0 1
vn 0 0 1
vn 0 0 1
vn 0 0 1
vn 0 0 1
vn 0 0 1
vn 0 0 1
vn 0 0 -1
vn 0 0 -1
vn 0 0 -1
vn 0 0 -1
vn 0 0 -1
vn 0 0 -1
vn 0 0 -1
vn 0 0 -1
vn 0 0 -1
vn 0 0 -1
vn 0 0 -1
vn 0 0 -1
vn -5.798339E-07 0.5089946 -0.8607697
vn 0.7183275 0.5652213 0.4056236
vn 5.208932E-07 0.9413177 0.3375219
vn 0.6544762 0.2099661 -0.7263436
vn 0.711337 -0.2357083 0.6621488
vn 0.6877944 -0.5673407 -0.4528391
vn 6.152471E-07 -0.561893 0.8272099
vn -5.89409E-07 -0.930069 -0.3673848
vn -0.711335 -0.235708 0.6621512
vn -0.6877956 -0.5673406 -0.4528376
vn -0.7183264 0.5652216 0.4056249
vn -0.6544785 0.2099664 -0.7263415
vn 5.208932E-07 0.9413177 0.3375219
vn -5.798339E-07 0.5089946 -0.8607697
vn 5.208932E-07 0.9413177 0.3375219
vn 0.7183275 0.5652213 0.4056236
vn 0.711337 -0.2357083 0.6621488
vn 6.152471E-07 -0.561893 0.8272099
vn -0.7183264 0.5652216 0.4056249
vn -0.711335 -0.235708 0.6621512
vn -5.89409E-07 -0.930069 -0.3673848
vn 0.6877944 -0.5673407 -0.4528391
vn 0.6544762 0.2099661 -0.7263436
vn -5.798339E-07 0.5089946 -0.8607697
vn -0.6877956 -0.5673406 -0.4528376
vn -0.6544785 0.2099664 -0.7263415
g Cylinder.014_0
f 3/3/3 2/2/2 1/1/1
f 4/4/4 3/3/3 1/1/1
f 5/5/5 3/3/3 4/4/4
f 6/6/6 5/5/5 4/4/4
f 9/9/9 8/8/8 7/7/7
f 8/8/8 10/10/10 7/7/7
f 7/7/7 10/10/10 11/11/11
f 8/8/8 12/12/12 10/10/10
f 10/10/10 13/13/13 11/11/11
f 12/12/12 14/14/14 10/10/10
f 10/10/10 14/14/14 13/13/13
f 12/12/12 15/15/15 14/14/14
f 14/14/14 16/16/16 13/13/13
f 15/15/15 17/17/17 14/14/14
f 14/14/14 17/17/17 16/16/16
f 15/15/15 18/18/18 17/17/17
f 17/17/17 19/19/19 16/16/16
f 18/18/18 20/20/20 17/17/17
f 17/17/17 20/20/20 19/19/19
f 18/18/18 21/21/21 20/20/20
f 20/20/20 22/22/22 19/19/19
f 21/21/21 23/23/23 20/20/20
f 20/20/20 23/23/23 22/22/22
f 21/21/21 24/24/24 23/23/23
f 23/23/23 25/25/25 22/22/22
f 24/24/24 26/26/26 23/23/23
f 23/23/23 26/26/26 25/25/25
f 26/26/26 27/27/27 25/25/25
g Cylinder.014_1
f 5/5/5 28/28/28 3/3/3
f 28/28/28 29/29/29 3/3/3
f 3/3/3 29/29/29 2/2/2
f 28/28/28 30/30/30 29/29/29
f 29/29/29 31/31/31 2/2/2
f 30/30/30 32/32/32 29/29/29
f 29/29/29 32/32/32 31/31/31
f 30/30/30 9/9/9 32/32/32
f 32/32/32 33/33/33 31/31/31
f 9/9/9 7/7/7 32/32/32
f 32/32/32 7/7/7 33/33/33
f 7/7/7 11/11/11 33/33/33
g Cylinder.014_2
f 36/36/36 35/35/35 34/34/34
f 37/37/37 36/36/36 34/34/34
f 39/39/39 38/38/38 37/37/37
f 38/38/38 40/40/40 37/37/37
f 38/38/38 41/41/41 40/40/40
f 41/41/41 42/42/42 40/40/40
f 45/45/45 44/44/44 43/43/43
f 46/46/46 45/45/45 43/43/43
f 49/49/49 48/48/48 47/47/47
f 48/48/48 50/50/50 47/47/47
f 47/47/47 50/50/50 51/51/51
f 50/50/50 52/52/52 51/51/51
f 53/53/53 51/51/51 52/52/52
f 54/54/54 53/53/53 52/52/52
f 57/57/57 56/56/56 55/55/55
f 58/58/58 57/57/57 55/55/55
g Cylinder.014_3
f 61/61/61 60/60/60 59/59/59
f 60/60/60 62/62/62 59/59/59
f 60/60/60 63/63/63 62/62/62
f 63/63/63 64/64/64 62/62/62
f 63/63/63 65/65/65 64/64/64
f 65/65/65 66/66/66 64/64/64
f 65/65/65 67/67/67 66/66/66
f 67/67/67 68/68/68 66/66/66
f 67/67/67 69/69/69 68/68/68
f 69/69/69 70/70/70 68/68/68
f 69/69/69 71/71/71 70/70/70
f 71/71/71 72/72/72 70/70/70
f 75/75/75 74/74/74 73/73/73
f 73/73/73 76/76/76 75/75/75
f 73/73/73 77/77/77 76/76/76
f 77/77/77 78/78/78 76/76/76
f 81/81/81 80/80/80 79/79/79
f 79/79/79 82/82/82 81/81/81
f 79/79/79 83/83/83 82/82/82
f 83/83/83 84/84/84 82/82/82
