g Cylinder.003
v 2.839446E-05 0.0002212036 0.001020386
v 0.0004015154 9.607375E-05 0.0007086658
v -0.0002252018 -0.0004610592 0.0008638435
v -0.0003735626 0.0005339941 0.001102786
v -0.001185812 -0.0001347721 0.001140149
v 0.0005750579 -0.0006550098 -9.842455E-05
v 0.0003162712 -0.001024706 -0.0003184217
v -0.0001030523 -0.0009897095 0.0002957773
v -0.0008435231 -0.001434003 -0.000326497
v -0.001255798 -0.0009792447 0.0005813187
v -0.0006262469 -0.0008785271 0.0006229591
v -0.0002252018 -0.0004610592 0.0008638435
v -0.001185812 -0.0001347721 0.001140149
v -8.5181E-05 -0.001194838 -0.0007895499
v 0.0007055652 -0.0006502575 -0.0005831826
v 0.0005750579 -0.0006550098 -9.842455E-05
v 0.0005217242 -0.0006578088 -0.001197482
v 0.0009617221 2.091169E-05 -0.0004385614
v 0.0008448153 0.0002975786 -0.001268158
v 0.0005750579 -0.0006550098 -9.842455E-05
v 0.0004176843 0.0005956524 0.0007556247
v 0.0008344459 0.0005717492 0.0001533467
v 0.0004015154 9.607375E-05 0.0007086658
v 0.0005292291 0.001596704 -2.989531E-05
v 0.0009261954 0.001119559 -0.00090267
v 0.0009710037 0.0006578278 -0.0004633421
v 0.0008448153 0.0002975786 -0.001268158
v 0.0009617221 2.091169E-05 -0.0004385614
v 0.0001593232 0.001054115 0.0007628602
v -0.0003735626 0.0005339941 0.001102786
v 2.839446E-05 0.0002212036 0.001020386
v 0.0004015154 9.607375E-05 0.0007086658
v 0.0008448153 0.0002975786 -0.001268158
v 0.0009261954 0.001119559 -0.00090267
v 0.0008091473 0.001190895 -0.001060238
v -0.001185812 -0.0001347721 0.001140149
v -0.001663493 -0.0008760726 0.0003976399
v -0.001796924 -0.0004286539 0.0005959565
v 0.0008091473 0.001190895 -0.001060238
v 0.0009261954 0.001119559 -0.00090267
v 0.0005292291 0.001596704 -2.989531E-05
v 0.0003953326 0.001718938 -0.0006291753
v -0.0002252018 -0.0004610592 0.0008638435
v -0.0001030523 -0.0009897095 0.0002957773
v 0.0008344459 0.0005717492 0.0001533467
v 0.0004015154 9.607375E-05 0.0007086658
v 0.0008344459 0.0005717492 0.0001533467
v 0.0005750579 -0.0006550098 -9.842455E-05
v 0.0005750579 -0.0006550098 -9.842455E-05
v -0.0001030523 -0.0009897095 0.0002957773
v -0.0002252018 -0.0004610592 0.0008638435
v 0.0004015154 9.607375E-05 0.0007086658
v 0.0008091473 0.001190895 -0.001060238
v -0.001238637 0.0006894457 -0.0008957171
v 0.0008448153 0.0002975786 -0.001268158
v -0.001185812 -0.0001347721 0.001140149
v -0.001238637 0.0006894457 -0.0008957171
v -0.0003735626 0.0005339941 0.001102786
v -0.0003735626 0.0005339941 0.001102786
v -0.001238637 0.0006894457 -0.0008957171
v 0.0001593232 0.001054115 0.0007628602
v -0.001238637 0.0006894457 -0.0008957171
v 0.0005292291 0.001596704 -2.989531E-05
v -0.001796924 -0.0004286539 0.0005959565
v -0.001238637 0.0006894457 -0.0008957171
v -0.001185812 -0.0001347721 0.001140149
v -0.001663493 -0.0008760726 0.0003976399
v -0.001238637 0.0006894457 -0.0008957171
v -0.0008435231 -0.001434003 -0.000326497
v -0.001238637 0.0006894457 -0.0008957171
v -8.5181E-05 -0.001194838 -0.0007895499
v -0.001238637 0.0006894457 -0.0008957171
v 0.0005217242 -0.0006578088 -0.001197482
v -0.001238637 0.0006894457 -0.0008957171
v 0.0008448153 0.0002975786 -0.001268158
v -0.001238637 0.0006894457 -0.0008957171
v 0.0003953326 0.001718938 -0.0006291753
v -0.001238637 0.0006894457 -0.0008957171
v 0.0008091473 0.001190895 -0.001060238
v 0.0005292291 0.001596704 -2.989531E-05
v -0.001238637 0.0006894457 -0.0008957171
vt 0.6 0.8333333
vt 0.5840797 0.948315
vt 0.5 0.8333333
vt 0.6 0.7476572
vt 0.5 0.6722319
vt 0.2159203 0.948315
vt 0.2 0.8333333
vt 0.3 0.8333333
vt 0.3 0.6666667
vt 0.4 0.6666667
vt 0.4 0.7723429
vt 0.4642272 0.8333333
vt 0.4988055 0.6722319
vt 0.2 0.7175916
vt 0.09999999 0.8333333
vt 0.15 0.937204
vt 0.09999999 0.7272502
vt 0 0.8333333
vt 0 0.6955891
vt 0.08407968 0.948315
vt 0.7 0.8333333
vt 0.8 0.8333333
vt 0.7159203 0.9483151
vt 0.8 0.6666667
vt 0.9 0.6666667
vt 0.9 0.772343
vt 0.9937922 0.6955891
vt 0.9642272 0.8333333
vt 0.7 0.7462835
vt 0.6489954 0.7484077
vt 0.6 0.8333333
vt 0.65 0.937204
vt 0.9562386 0.6666667
vt 0.9 0.6666667
vt 0.909186 0.6353994
vt 0.4960208 0.6666667
vt 0.4 0.5907632
vt 0.4427856 0.5611767
vt 0.9 0.629532
vt 0.9 0.6666667
vt 0.8 0.6551963
vt 0.8359724 0.582745
vt 0.4 0.8333333
vt 0.3357728 0.8333334
vt 0.9 0.8333333
vt 0.9487381 0.9957936
vt 0.9057223 0.8524076
vt 1.005142 0.9774041
vt 0.2948579 0.977404
vt 0.3357728 0.8333334
vt 0.3942777 0.8524077
vt 0.351262 0.9957933
vt 0.909186 0.6353994
vt 0.909186 0.6353994
vt 0.9562386 0.6666667
vt 0.5 0.6722319
vt 0.5 0.6722319
vt 0.6 0.7476572
vt 0.6489954 0.7484077
vt 0.6489954 0.7484077
vt 0.7 0.7462835
vt 0.7 0.7462835
vt 0.8 0.6666667
vt 0.4427856 0.5611767
vt 0.4427856 0.5611767
vt 0.4960208 0.6666667
vt 0.4 0.5907632
vt 0.4 0.5907632
vt 0.3 0.6666667
vt 0.3 0.6666667
vt 0.2 0.7175916
vt 0.2 0.7175916
vt 0.09999999 0.7272502
vt 0.09999999 0.7272502
vt 0 0.6955891
vt 0 0.6955891
vt 0.8359724 0.582745
vt 0.8359724 0.582745
vt 0.9 0.629532
vt 0.8 0.6551963
vt 0.8 0.6551963
vn 0.3972869 -0.1100464 0.9110724
vn 0.7092132 -0.2816038 0.6463094
vn 0.3353723 -0.4748293 0.8136722
vn 0.2602977 -0.02332235 0.9652467
vn -0.05476595 -0.4325633 0.8999388
vn 0.7613297 -0.507163 0.403934
vn 0.5593874 -0.8168204 0.1410322
vn 0.4003434 -0.7699119 0.4969514
vn 0.1440834 -0.9305117 0.3367313
vn -0.2059774 -0.7478748 0.6310757
vn 0.1272591 -0.7189338 0.6833296
vn 0.3353723 -0.4748293 0.8136722
vn -0.05476595 -0.4325633 0.8999388
vn 0.4511053 -0.8921517 0.02385987
vn 0.8325855 -0.5517518 -0.04869784
vn 0.7613297 -0.507163 0.403934
vn 0.7976644 -0.5569724 -0.2313292
vn 0.9712749 -0.2201943 0.09021999
vn 0.9649162 -0.1378552 -0.223456
vn 0.7613297 -0.507163 0.403934
vn 0.6695178 0.1470181 0.7281014
vn 0.9012337 0.07427822 0.4269198
vn 0.7092132 -0.2816038 0.6463094
vn 0.8484877 0.4568111 0.2671934
vn 0.9262504 0.3475784 -0.145772
vn 0.9892389 0.1147886 0.09072024
vn 0.9649162 -0.1378552 -0.223456
vn 0.9712749 -0.2201943 0.09021999
vn 0.6164325 0.3065547 0.7252828
vn 0.2602977 -0.02332235 0.9652467
vn 0.3972869 -0.1100464 0.9110724
vn 0.7092132 -0.2816038 0.6463094
vn 0.9649162 -0.1378552 -0.223456
vn 0.9262504 0.3475784 -0.145772
vn 0.826997 0.4743091 -0.3018389
vn -0.05476595 -0.4325633 0.8999388
vn -0.4389063 -0.6568383 0.613127
vn -0.4545405 -0.4668927 0.758554
vn 0.826997 0.4743091 -0.3018389
vn 0.9262504 0.3475784 -0.145772
vn 0.8484877 0.4568111 0.2671934
vn 0.7310447 0.6788555 -0.06876628
vn 0.3353723 -0.4748293 0.8136722
vn 0.4003434 -0.7699119 0.4969514
vn 0.9012337 0.07427822 0.4269198
vn 0.7092132 -0.2816038 0.6463094
vn 0.9012337 0.07427822 0.4269198
vn 0.7613297 -0.507163 0.403934
vn 0.7613297 -0.507163 0.403934
vn 0.4003434 -0.7699119 0.4969514
vn 0.3353723 -0.4748293 0.8136722
vn 0.7092132 -0.2816038 0.6463094
vn -0.1628152 0.364017 -0.9170511
vn -0.722968 0.4310477 -0.5399215
vn -0.1568772 0.0997814 -0.9825646
vn -0.6065505 0.7313437 0.3118218
vn -0.722968 0.4310477 -0.5399215
vn -0.5770724 0.7561405 0.3086078
vn -0.5770724 0.7561405 0.3086078
vn -0.722968 0.4310477 -0.5399215
vn -0.5525105 0.7798472 0.2942289
vn -0.722968 0.4310477 -0.5399215
vn -0.5442868 0.7892469 0.284326
vn -0.9252685 0.373462 -0.06636643
vn -0.722968 0.4310477 -0.5399215
vn -0.6065505 0.7313437 0.3118218
vn -0.8277929 -0.2063576 -0.5217043
vn -0.722968 0.4310477 -0.5399215
vn -0.5810703 -0.3098551 -0.7525604
vn -0.722968 0.4310477 -0.5399215
vn -0.3921523 -0.2892558 -0.8732398
vn -0.722968 0.4310477 -0.5399215
vn -0.2758598 -0.1477094 -0.9497806
vn -0.722968 0.4310477 -0.5399215
vn -0.1568772 0.0997814 -0.9825646
vn -0.722968 0.4310477 -0.5399215
vn -0.4730686 0.8284527 -0.2997871
vn -0.722968 0.4310477 -0.5399215
vn -0.1628152 0.364017 -0.9170511
vn -0.5442868 0.7892469 0.284326
vn -0.722968 0.4310477 -0.5399215
g Cylinder.003_0
f 3/3/3 2/2/2 1/1/1
f 3/3/3 1/1/1 4/4/4
f 5/5/5 3/3/3 4/4/4
f 8/8/8 7/7/7 6/6/6
f 7/7/7 8/8/8 9/9/9
f 9/9/9 8/8/8 10/10/10
f 8/8/8 11/11/11 10/10/10
f 10/10/10 11/11/11 12/12/12
f 13/13/13 10/10/10 12/12/12
f 14/14/14 7/7/7 9/9/9
f 15/15/15 7/7/7 14/14/14
f 7/7/7 15/15/15 16/16/16
f 17/17/17 15/15/15 14/14/14
f 18/18/18 15/15/15 17/17/17
f 19/19/19 18/18/18 17/17/17
f 20/20/20 15/15/15 18/18/18
f 23/23/23 22/22/22 21/21/21
f 21/21/21 22/22/22 24/24/24
f 24/24/24 22/22/22 25/25/25
f 22/22/22 26/26/26 25/25/25
f 25/25/25 26/26/26 27/27/27
f 26/26/26 28/28/28 27/27/27
f 29/29/29 21/21/21 24/24/24
f 29/29/29 30/30/30 21/21/21
f 30/30/30 31/31/31 21/21/21
f 32/32/32 21/21/21 31/31/31
g Cylinder.003_1
f 35/35/35 34/34/34 33/33/33
f 38/38/38 37/37/37 36/36/36
f 37/37/37 10/10/10 36/36/36
f 9/9/9 10/10/10 37/37/37
f 41/41/41 40/40/40 39/39/39
f 42/42/42 41/41/41 39/39/39
g Cylinder.003_2
f 11/11/11 44/44/44 43/43/43
f 28/28/28 26/26/26 45/45/45
f 28/28/28 47/47/47 46/46/46
f 48/48/48 28/28/28 46/46/46
f 51/51/51 50/50/50 49/49/49
f 52/52/52 51/51/51 49/49/49
g Cylinder.003_3
f 55/55/55 54/54/54 53/53/53
f 58/58/58 57/57/57 56/56/56
f 61/61/61 60/60/60 59/59/59
f 63/63/63 62/62/62 61/61/61
f 66/66/66 65/65/65 64/64/64
f 64/64/64 68/68/68 67/67/67
f 67/67/67 70/70/70 69/69/69
f 69/69/69 72/72/72 71/71/71
f 71/71/71 74/74/74 73/73/73
f 73/73/73 76/76/76 75/75/75
f 79/79/79 78/78/78 77/77/77
f 77/77/77 81/81/81 80/80/80
