g Cylinder.026
v 1.692395E-11 0.0261701 4.768371E-10
v 0.01469463 0.02022542 0.004999999
v 0 0.025 0.004999999
v 0.0153824 0.02117206 4.768371E-10
v 0.02377641 0.007725425 0.004999999
v 0.02488925 0.008087007 4.768371E-10
v 0.02377641 -0.007725425 0.004999999
v 0.02488925 -0.008087007 4.768371E-10
v 0.01469463 -0.02022542 0.004999999
v 0.0153824 -0.02117206 4.768371E-10
v 0 -0.025 0.004999999
v 1.692395E-11 -0.0261701 4.768371E-10
v -0.01469463 -0.02022542 0.004999999
v -0.0153824 -0.02117206 4.768371E-10
v -0.02377641 -0.007725425 0.004999999
v -0.02488925 -0.008087007 4.768371E-10
v -0.02377641 0.007725425 0.004999999
v -0.02488925 0.008087007 4.768371E-10
v -0.01469463 0.02022542 0.004999999
v -0.0153824 0.02117206 4.768371E-10
v 0 0.025 0.004999999
v 1.692395E-11 0.0261701 4.768371E-10
v -0.01166381 -0.01605386 0.004999999
v -0.01097318 -0.01510329 0.002264205
v -1.325632E-11 -0.0186687 0.002264205
v 0 -0.01984367 0.004999999
v -0.01887245 -0.006132029 0.004999999
v 0.01097318 -0.01510329 0.002264205
v -0.01775499 -0.005768944 0.002264205
v 0.01166381 -0.01605386 0.004999999
v -0.01887245 0.006132029 0.004999999
v 0.01775499 -0.005768944 0.002264205
v -0.01775499 0.005768944 0.002264205
v 0.01887245 -0.006132029 0.004999999
v -0.01166381 0.01605386 0.004999999
v 0.01775499 0.005768944 0.002264205
v -0.01097318 0.01510329 0.002264205
v 0.01887245 0.006132029 0.004999999
v 0 0.01984367 0.004999999
v 0.01097318 0.01510329 0.002264205
v -1.325632E-11 0.0186687 0.002264205
v 0.01166381 0.01605386 0.004999999
v -0.01887245 0.006132029 0.004999999
v -0.02377641 0.007725425 0.004999999
v -0.01469463 0.02022542 0.004999999
v -0.01887245 -0.006132029 0.004999999
v -0.01166381 0.01605386 0.004999999
v -0.02377641 -0.007725425 0.004999999
v 0 0.025 0.004999999
v -0.01166381 -0.01605386 0.004999999
v 0 0.01984367 0.004999999
v -0.01469463 -0.02022542 0.004999999
v 0.01469463 0.02022542 0.004999999
v 0 -0.01984367 0.004999999
v 0.01166381 0.01605386 0.004999999
v 0 -0.025 0.004999999
v 0.02377641 0.007725425 0.004999999
v 0.01166381 -0.01605386 0.004999999
v 0.01887245 0.006132029 0.004999999
v 0.01469463 -0.02022542 0.004999999
v 0.02377641 -0.007725425 0.004999999
v 0.01887245 -0.006132029 0.004999999
v 0.01097318 0.01510329 0.002264205
v 0.01775499 0.005768944 0.002264205
v 0.01775499 -0.005768944 0.002264205
v 0.01097318 -0.01510329 0.002264205
v -1.325632E-11 0.0186687 0.002264205
v -1.325632E-11 -0.0186687 0.002264205
v -0.01097318 0.01510329 0.002264205
v -0.01097318 -0.01510329 0.002264205
v -0.01775499 0.005768944 0.002264205
v -0.01775499 -0.005768944 0.002264205
vt 1.320065 0.8167188
vt 1.090064 0.8911483
vt 1.320065 0.8911483
vt 1.090064 0.8167188
vt 0.8600646 0.8911483
vt 0.8600646 0.8167188
vt 0.6300645 0.8911483
vt 0.6300645 0.8167188
vt 0.4000646 0.8911483
vt 0.4000646 0.8167188
vt 0.1700645 0.8911483
vt 0.1700645 0.8167188
vt -0.05993544 0.8911483
vt -0.05993544 0.8167188
vt -0.2899355 0.8911483
vt -0.2899355 0.8167188
vt -0.5199354 0.8911483
vt -0.5199354 0.8167188
vt -0.7499353 0.8911483
vt -0.7499353 0.8167188
vt -0.9799354 0.8911483
vt -0.9799354 0.8167188
vt 0.194036 0.4018839
vt 0.2450949 0.4178427
vt 0.3392336 0.2941884
vt 0.3081692 0.2487488
vt 0.194036 0.5901236
vt 0.4889389 0.2514001
vt 0.2440658 0.5727068
vt 0.4895868 0.2
vt 0.304539 0.7414297
vt 0.6363508 0.2970368
vt 0.3347931 0.6983667
vt 0.6657667 0.253762
vt 0.4807976 0.8000001
vt 0.7262406 0.4213845
vt 0.4812611 0.7484607
vt 0.7761441 0.404143
vt 0.6613232 0.7450227
vt 0.7242764 0.5759579
vt 0.6295642 0.7001302
vt 0.7751955 0.5920564
vt -0.3688112 0.6364117
vt -0.3067138 0.6815282
vt -0.2356399 0.4627852
vt -0.5165067 0.7437188
vt -0.3123966 0.4627851
vt -0.4927876 0.8167188
vt -0.3067138 0.2440422
vt -0.6990684 0.7437187
vt -0.3688112 0.2891586
vt -0.7227877 0.8167189
vt -0.4927878 0.1088516
vt -0.8467641 0.6364118
vt -0.5165068 0.1818516
vt -0.9088615 0.6815282
vt -0.7227877 0.1088516
vt -0.9031787 0.4627852
vt -0.6990685 0.1818516
vt -0.9799354 0.4627853
vt -0.9088618 0.2440423
vt -0.8467641 0.2891587
vt -0.5165068 0.1818516
vt -0.6990685 0.1818516
vt -0.8467641 0.2891587
vt -0.9031787 0.4627852
vt -0.3688112 0.2891586
vt -0.8467641 0.6364118
vt -0.3123966 0.4627851
vt -0.6990684 0.7437187
vt -0.3688112 0.6364117
vt -0.5165067 0.7437188
vn 0 0.9736928 0.2278647
vn 0.5723222 0.787734 0.2278648
vn 0 0.9736928 0.2278647
vn 0.5723222 0.787734 0.2278648
vn 0.9260369 0.3008877 0.2278647
vn 0.9260369 0.3008876 0.2278646
vn 0.9260369 -0.3008877 0.2278647
vn 0.9260369 -0.3008876 0.2278646
vn 0.5723222 -0.7877341 0.2278647
vn 0.5723222 -0.7877341 0.2278647
vn 0 -0.9736928 0.2278647
vn 0 -0.9736928 0.2278647
vn -0.5723222 -0.787734 0.2278648
vn -0.5723222 -0.787734 0.2278648
vn -0.9260369 -0.3008877 0.2278647
vn -0.9260369 -0.3008876 0.2278646
vn -0.9260369 0.3008877 0.2278647
vn -0.9260369 0.3008876 0.2278646
vn -0.5723222 0.7877341 0.2278647
vn -0.5723222 0.7877341 0.2278647
vn 0 0.9736928 0.2278647
vn 0 0.9736928 0.2278647
vn 0.540082 0.7433591 0.3946246
vn 0.540082 0.7433591 0.3946246
vn 0 0.9188426 0.3946244
vn 0 0.9188426 0.3946244
vn 0.873871 0.2839379 0.3946247
vn -0.540082 0.7433591 0.3946246
vn 0.873871 0.283938 0.3946247
vn -0.540082 0.7433591 0.3946246
vn 0.873871 -0.2839379 0.3946247
vn -0.873871 0.283938 0.3946247
vn 0.873871 -0.283938 0.3946247
vn -0.873871 0.2839379 0.3946247
vn 0.540082 -0.7433591 0.3946246
vn -0.873871 -0.283938 0.3946247
vn 0.540082 -0.7433591 0.3946246
vn -0.873871 -0.2839379 0.3946247
vn 0 -0.9188426 0.3946244
vn -0.540082 -0.7433591 0.3946246
vn 0 -0.9188426 0.3946244
vn -0.540082 -0.7433591 0.3946246
vn 0 0 1
vn 0 0 1
vn 0 0 1
vn 0 0 1
vn 0 0 1
vn 0 0 1
vn 0 0 1
vn 0 0 1
vn 0 0 1
vn 0 0 1
vn 0 0 1
vn 0 0 1
vn 0 0 1
vn 0 0 1
vn 0 0 1
vn 0 0 1
vn 0 0 1
vn 0 0 1
vn 0 0 1
vn 0 0 1
vn 0 0 1
vn 0 0 1
vn 0 0 1
vn 0 0 1
vn 0 0 1
vn 0 0 1
vn 0 0 1
vn 0 0 1
vn 0 0 1
vn 0 0 1
g Cylinder.026_0
f 3/3/3 2/2/2 1/1/1
f 2/2/2 4/4/4 1/1/1
f 2/2/2 5/5/5 4/4/4
f 5/5/5 6/6/6 4/4/4
f 5/5/5 7/7/7 6/6/6
f 7/7/7 8/8/8 6/6/6
f 7/7/7 9/9/9 8/8/8
f 9/9/9 10/10/10 8/8/8
f 9/9/9 11/11/11 10/10/10
f 11/11/11 12/12/12 10/10/10
f 11/11/11 13/13/13 12/12/12
f 13/13/13 14/14/14 12/12/12
f 13/13/13 15/15/15 14/14/14
f 15/15/15 16/16/16 14/14/14
f 15/15/15 17/17/17 16/16/16
f 17/17/17 18/18/18 16/16/16
f 17/17/17 19/19/19 18/18/18
f 19/19/19 20/20/20 18/18/18
f 19/19/19 21/21/21 20/20/20
f 21/21/21 22/22/22 20/20/20
f 25/25/25 24/24/24 23/23/23
f 26/26/26 25/25/25 23/23/23
f 23/23/23 24/24/24 27/27/27
f 28/28/28 25/25/25 26/26/26
f 24/24/24 29/29/29 27/27/27
f 30/30/30 28/28/28 26/26/26
f 27/27/27 29/29/29 31/31/31
f 32/32/32 28/28/28 30/30/30
f 29/29/29 33/33/33 31/31/31
f 34/34/34 32/32/32 30/30/30
f 31/31/31 33/33/33 35/35/35
f 36/36/36 32/32/32 34/34/34
f 33/33/33 37/37/37 35/35/35
f 38/38/38 36/36/36 34/34/34
f 35/35/35 37/37/37 39/39/39
f 40/40/40 36/36/36 38/38/38
f 37/37/37 41/41/41 39/39/39
f 42/42/42 40/40/40 38/38/38
f 39/39/39 41/41/41 42/42/42
f 41/41/41 40/40/40 42/42/42
f 45/45/45 44/44/44 43/43/43
f 43/43/43 44/44/44 46/46/46
f 47/47/47 45/45/45 43/43/43
f 44/44/44 48/48/48 46/46/46
f 49/49/49 45/45/45 47/47/47
f 46/46/46 48/48/48 50/50/50
f 51/51/51 49/49/49 47/47/47
f 48/48/48 52/52/52 50/50/50
f 53/53/53 49/49/49 51/51/51
f 50/50/50 52/52/52 54/54/54
f 55/55/55 53/53/53 51/51/51
f 52/52/52 56/56/56 54/54/54
f 57/57/57 53/53/53 55/55/55
f 54/54/54 56/56/56 58/58/58
f 59/59/59 57/57/57 55/55/55
f 56/56/56 60/60/60 58/58/58
f 61/61/61 57/57/57 59/59/59
f 58/58/58 60/60/60 62/62/62
f 62/62/62 61/61/61 59/59/59
f 60/60/60 61/61/61 62/62/62
g Cylinder.026_1
f 65/65/65 64/64/64 63/63/63
f 63/63/63 66/66/66 65/65/65
f 63/63/63 67/67/67 66/66/66
f 67/67/67 68/68/68 66/66/66
f 67/67/67 69/69/69 68/68/68
f 69/69/69 70/70/70 68/68/68
f 69/69/69 71/71/71 70/70/70
f 71/71/71 72/72/72 70/70/70
