g Cylinder.024
v 0 -0.08 0
v 7.801137E-12 -0.08261763 -0.0010065
v -0.04856142 -0.06683906 -0.0010065
v -0.04702282 -0.06472136 0
v -0.07857403 -0.02553025 -0.0010065
v -0.07608452 -0.02472136 0
v -0.07857403 0.02553025 -0.0010065
v -0.07608452 0.02472136 0
v -0.04856142 0.06683906 -0.0010065
v -0.04702282 0.06472136 0
v 7.801137E-12 0.08261763 -0.0010065
v 0 0.08 0
v 0.04856142 0.06683906 -0.0010065
v 0.04702282 -0.06472136 0
v 7.801137E-12 -0.08261763 -0.0010065
v 0.04856142 -0.06683906 -0.0010065
v 0.04702282 0.06472136 0
v 0.07857403 0.02553025 -0.0010065
v 0.07608452 -0.02472136 0
v 0.07857403 -0.02553025 -0.0010065
v 0.07608452 0.02472136 0
v 0 -0.08 -0.007251184
v 7.801137E-12 -0.08261763 -0.006244683
v 0.04856142 -0.06683906 -0.006244683
v 0.04702282 -0.06472136 -0.007251184
v 0.07857403 -0.02553025 -0.006244683
v 0.07608452 -0.02472136 -0.007251184
v 0.07857403 0.02553025 -0.006244683
v 0.07608452 0.02472136 -0.007251184
v 0.04856142 0.06683906 -0.006244683
v 0.04702282 0.06472136 -0.007251184
v 7.801137E-12 0.08261763 -0.006244683
v 0 0.08 -0.007251184
v -0.04856142 0.06683906 -0.006244683
v -0.04702282 0.06472136 -0.007251184
v -0.07857403 0.02553025 -0.006244683
v -0.07608452 0.02472136 -0.007251184
v -0.07857403 -0.02553025 -0.006244683
v -0.07608452 -0.02472136 -0.007251184
v -0.04856142 -0.06683906 -0.006244683
v -0.04702282 -0.06472136 -0.007251184
v 7.801137E-12 -0.08261763 -0.006244683
v 0 -0.08 -0.007251184
v 0 -0.08 -0.06
v -0.04702282 -0.06472136 -0.007251184
v 0 -0.08 -0.007251184
v -0.04702282 -0.06472136 -0.06
v -0.07608452 -0.02472136 -0.007251184
v -0.07608452 -0.02472136 -0.06
v -0.07608452 0.02472136 -0.007251184
v -0.07608452 0.02472136 -0.06
v -0.04702282 0.06472136 -0.007251184
v -0.04702282 0.06472136 -0.06
v 0 0.08 -0.007251184
v 0 0.08 -0.06
v 0.04702282 0.06472136 -0.007251184
v 0.04702282 0.06472136 -0.06
v 0.07608452 0.02472136 -0.007251184
v 0.07608452 0.02472136 -0.06
v 0.07608452 -0.02472136 -0.007251184
v 0.07608452 -0.02472136 -0.06
v 0.04702282 -0.06472136 -0.007251184
v 0.04702282 -0.06472136 -0.06
v 0 -0.08 -0.007251184
v 0 -0.08 -0.06
v 0.04856142 -0.06683906 -0.006244683
v 7.801137E-12 -0.08261763 -0.006244683
v 7.801137E-12 -0.08261763 -0.0010065
v 0.04856142 -0.06683906 -0.0010065
v 0.07857403 -0.02553025 -0.006244683
v 0.07857403 -0.02553025 -0.0010065
v 0.07857403 0.02553025 -0.006244683
v 0.07857403 0.02553025 -0.0010065
v 0.04856142 0.06683906 -0.006244683
v 0.04856142 0.06683906 -0.0010065
v 7.801137E-12 0.08261763 -0.006244683
v 7.801137E-12 0.08261763 -0.0010065
v -0.04856142 0.06683906 -0.006244683
v -0.04856142 0.06683906 -0.0010065
v -0.07857403 0.02553025 -0.006244683
v -0.07857403 0.02553025 -0.0010065
v -0.07857403 -0.02553025 -0.006244683
v -0.07857403 -0.02553025 -0.0010065
v -0.04856142 -0.06683906 -0.006244683
v -0.04856142 -0.06683906 -0.0010065
v 7.801137E-12 -0.08261763 -0.006244683
v 7.801137E-12 -0.08261763 -0.0010065
vt 0.5261714 1.538627
vt 0.5275588 1.575318
vt 1.155821 1.359704
vt 1.133703 1.330339
vt 1.537486 0.8171655
vt 1.502322 0.8064534
vt 1.525384 0.1540024
vt 1.490666 0.1659199
vt 1.129412 -0.3779713
vt 1.108254 -0.3479302
vt 0.4960232 -0.5735915
vt 0.4966157 -0.5368801
vt -0.1312965 -0.3597691
vt -0.08496374 1.346166
vt 0.5257143 1.575004
vt -0.1060618 1.376002
vt -0.1091821 -0.3304362
vt -0.5115607 0.1833045
vt -0.4686689 0.8344016
vt -0.5034147 0.8462807
vt -0.476472 0.1940678
vt 3.46456 1.20118
vt 3.46456 1.20118
vt 2.81456 1.20118
vt 2.81456 1.20118
vt 2.164561 1.20118
vt 2.164561 1.20118
vt 1.51456 1.20118
vt 1.51456 1.20118
vt 0.8645599 1.201179
vt 0.8645599 1.201179
vt 0.2145606 1.201179
vt 0.2145606 1.201179
vt -0.4354395 1.201179
vt -0.4354395 1.201179
vt -1.085439 1.201179
vt -1.085439 1.201179
vt -1.735439 1.201179
vt -1.735439 1.201179
vt -2.385439 1.201179
vt -2.385439 1.201179
vt -3.035439 1.201178
vt -3.035439 1.201178
vt -3.035439 1.894642
vt -2.385439 1.201179
vt -3.035439 1.201178
vt -2.38544 1.894642
vt -1.735439 1.201179
vt -1.73544 1.894642
vt -1.085439 1.201179
vt -1.08544 1.894643
vt -0.4354395 1.201179
vt -0.4354396 1.894643
vt 0.2145606 1.201179
vt 0.2145603 1.894643
vt 0.8645599 1.201179
vt 0.8645599 1.894643
vt 1.51456 1.20118
vt 1.51456 1.894643
vt 2.164561 1.20118
vt 2.16456 1.894644
vt 2.81456 1.20118
vt 2.81456 1.894644
vt 3.46456 1.20118
vt 3.46456 1.894644
vt 2.81456 1.20118
vt 3.46456 1.20118
vt 3.46456 1.105852
vt 2.81456 1.105852
vt 2.164561 1.20118
vt 2.164561 1.105852
vt 1.51456 1.20118
vt 1.514561 1.105852
vt 0.8645599 1.201179
vt 0.8645599 1.105852
vt 0.2145606 1.201179
vt 0.2145606 1.105852
vt -0.4354395 1.201179
vt -0.4354394 1.105851
vt -1.085439 1.201179
vt -1.085439 1.105851
vt -1.735439 1.201179
vt -1.735439 1.105851
vt -2.385439 1.201179
vt -2.385439 1.105851
vt -3.035439 1.201178
vt -3.035439 1.10585
vn 0 -0.2172769 0.97611
vn 0 -0.3588925 0.9333789
vn -0.2109516 -0.2903501 0.9333789
vn -0.1277121 -0.1757807 0.97611
vn -0.3413269 -0.1109038 0.9333789
vn -0.2066426 -0.06714224 0.97611
vn -0.3413269 0.1109038 0.9333789
vn -0.2066426 0.06714223 0.97611
vn -0.2109516 0.2903501 0.9333789
vn -0.1277121 0.1757807 0.97611
vn 0 0.3588925 0.9333789
vn 0 0.2172769 0.97611
vn 0.2109516 0.2903501 0.9333789
vn 0.1277121 -0.1757807 0.97611
vn 0 -0.3588925 0.9333789
vn 0.2109516 -0.2903501 0.9333789
vn 0.1277121 0.1757807 0.97611
vn 0.3413269 0.1109038 0.9333789
vn 0.2066426 -0.06714223 0.97611
vn 0.3413269 -0.1109038 0.9333789
vn 0.2066426 0.06714224 0.97611
vn 0 -0.3588926 -0.9333789
vn 0 -0.3588927 -0.9333789
vn 0.2109518 -0.2903502 -0.9333789
vn 0.2109518 -0.2903502 -0.9333789
vn 0.3413272 -0.1109038 -0.9333789
vn 0.3413271 -0.1109039 -0.9333789
vn 0.3413272 0.1109038 -0.9333789
vn 0.3413271 0.1109039 -0.9333789
vn 0.2109517 0.2903502 -0.9333789
vn 0.2109518 0.2903502 -0.9333789
vn 0 0.3588927 -0.9333789
vn 0 0.3588926 -0.9333789
vn -0.2109518 0.2903502 -0.9333789
vn -0.2109518 0.2903502 -0.9333789
vn -0.3413272 0.1109038 -0.9333789
vn -0.3413271 0.1109039 -0.9333789
vn -0.3413272 -0.1109038 -0.9333789
vn -0.3413271 -0.1109039 -0.9333789
vn -0.2109517 -0.2903502 -0.9333789
vn -0.2109518 -0.2903502 -0.9333789
vn 0 -0.3588927 -0.9333789
vn 0 -0.3588926 -0.9333789
vn 0 -1 0
vn -0.5877853 -0.809017 0
vn 0 -1 0
vn -0.5877853 -0.809017 0
vn -0.9510565 -0.309017 0
vn -0.9510565 -0.309017 0
vn -0.9510565 0.309017 0
vn -0.9510565 0.309017 0
vn -0.5877853 0.809017 0
vn -0.5877853 0.809017 0
vn 0 1 0
vn 0 1 0
vn 0.5877853 0.809017 0
vn 0.5877853 0.809017 0
vn 0.9510565 0.309017 0
vn 0.9510565 0.309017 0
vn 0.9510565 -0.309017 0
vn 0.9510565 -0.309017 0
vn 0.5877853 -0.809017 0
vn 0.5877853 -0.809017 0
vn 0 -1 0
vn 0 -1 0
vn 0.5877852 -0.809017 0
vn 0 -1 0
vn 0 -1 0
vn 0.5877852 -0.809017 0
vn 0.9510565 -0.309017 0
vn 0.9510565 -0.309017 0
vn 0.9510565 0.309017 0
vn 0.9510565 0.309017 0
vn 0.5877852 0.809017 0
vn 0.5877852 0.809017 0
vn 0 1 0
vn 0 1 0
vn -0.5877852 0.809017 0
vn -0.5877852 0.809017 0
vn -0.9510565 0.309017 0
vn -0.9510565 0.309017 0
vn -0.9510565 -0.309017 0
vn -0.9510565 -0.309017 0
vn -0.5877852 -0.809017 0
vn -0.5877852 -0.809017 0
vn 0 -1 0
vn 0 -1 0
g Cylinder.024_0
f 3/3/3 2/2/2 1/1/1
f 4/4/4 3/3/3 1/1/1
f 5/5/5 3/3/3 4/4/4
f 6/6/6 5/5/5 4/4/4
f 7/7/7 5/5/5 6/6/6
f 8/8/8 7/7/7 6/6/6
f 8/8/8 6/6/6 4/4/4
f 9/9/9 7/7/7 8/8/8
f 10/10/10 8/8/8 4/4/4
f 10/10/10 9/9/9 8/8/8
f 10/10/10 4/4/4 1/1/1
f 11/11/11 9/9/9 10/10/10
f 12/12/12 11/11/11 10/10/10
f 12/12/12 10/10/10 1/1/1
f 13/13/13 11/11/11 12/12/12
f 12/12/12 1/1/1 14/14/14
f 1/1/1 15/15/15 14/14/14
f 15/15/15 16/16/16 14/14/14
f 17/17/17 13/13/13 12/12/12
f 17/17/17 12/12/12 14/14/14
f 18/18/18 13/13/13 17/17/17
f 14/14/14 16/16/16 19/19/19
f 17/17/17 14/14/14 19/19/19
f 16/16/16 20/20/20 19/19/19
f 20/20/20 18/18/18 21/21/21
f 21/21/21 18/18/18 17/17/17
f 19/19/19 20/20/20 21/21/21
f 19/19/19 21/21/21 17/17/17
f 24/24/24 23/23/23 22/22/22
f 25/25/25 24/24/24 22/22/22
f 26/26/26 24/24/24 25/25/25
f 27/27/27 26/26/26 25/25/25
f 28/28/28 26/26/26 27/27/27
f 29/29/29 28/28/28 27/27/27
f 30/30/30 28/28/28 29/29/29
f 31/31/31 30/30/30 29/29/29
f 32/32/32 30/30/30 31/31/31
f 33/33/33 32/32/32 31/31/31
f 34/34/34 32/32/32 33/33/33
f 35/35/35 34/34/34 33/33/33
f 36/36/36 34/34/34 35/35/35
f 37/37/37 36/36/36 35/35/35
f 38/38/38 36/36/36 37/37/37
f 39/39/39 38/38/38 37/37/37
f 40/40/40 38/38/38 39/39/39
f 41/41/41 40/40/40 39/39/39
f 42/42/42 40/40/40 41/41/41
f 43/43/43 42/42/42 41/41/41
f 46/46/46 45/45/45 44/44/44
f 45/45/45 47/47/47 44/44/44
f 45/45/45 48/48/48 47/47/47
f 48/48/48 49/49/49 47/47/47
f 48/48/48 50/50/50 49/49/49
f 50/50/50 51/51/51 49/49/49
f 50/50/50 52/52/52 51/51/51
f 52/52/52 53/53/53 51/51/51
f 52/52/52 54/54/54 53/53/53
f 54/54/54 55/55/55 53/53/53
f 54/54/54 56/56/56 55/55/55
f 56/56/56 57/57/57 55/55/55
f 56/56/56 58/58/58 57/57/57
f 58/58/58 59/59/59 57/57/57
f 58/58/58 60/60/60 59/59/59
f 60/60/60 61/61/61 59/59/59
f 60/60/60 62/62/62 61/61/61
f 62/62/62 63/63/63 61/61/61
f 62/62/62 64/64/64 63/63/63
f 64/64/64 65/65/65 63/63/63
f 68/68/68 67/67/67 66/66/66
f 69/69/69 68/68/68 66/66/66
f 69/69/69 66/66/66 70/70/70
f 71/71/71 69/69/69 70/70/70
f 71/71/71 70/70/70 72/72/72
f 73/73/73 71/71/71 72/72/72
f 73/73/73 72/72/72 74/74/74
f 75/75/75 73/73/73 74/74/74
f 75/75/75 74/74/74 76/76/76
f 77/77/77 75/75/75 76/76/76
f 77/77/77 76/76/76 78/78/78
f 79/79/79 77/77/77 78/78/78
f 79/79/79 78/78/78 80/80/80
f 81/81/81 79/79/79 80/80/80
f 81/81/81 80/80/80 82/82/82
f 83/83/83 81/81/81 82/82/82
f 83/83/83 82/82/82 84/84/84
f 85/85/85 83/83/83 84/84/84
f 85/85/85 84/84/84 86/86/86
f 87/87/87 85/85/85 86/86/86
