g Cylinder.010
v -0.003798969 -0.00755861 0.00125542
v 6.701634E-05 9.442888E-05 0.001664807
v 0.0005013011 -0.009365216 0.001294886
v -0.006784578 -0.002828848 0.001253785
v 6.701634E-05 9.442888E-05 0.001664807
v -0.01104806 -0.004411696 0.0004158771
v -0.007142257 -0.01170255 0.0004158771
v -0.004917347 -0.01136395 0.0006000286
v -0.005906577 -0.0121286 0.0004114414
v -0.01089403 -0.004696181 -0.0002926755
v -0.007136862 -0.01244735 -0.0002926755
v -0.01104806 0.004600295 0.0004158771
v -0.01089403 0.004884786 -0.0002926755
v -0.007136862 0.01263595 -0.0002926755
v -0.006784578 0.003017456 0.001253785
v 6.701634E-05 9.442888E-05 0.001664807
v -0.007142257 0.01189115 0.0004158771
v -0.003798969 0.007747217 0.00125542
v 6.701634E-05 9.442888E-05 0.001664807
v -0.005920266 0.01232982 0.0004137485
v -0.004936847 0.01149129 0.0006028907
v -0.002777175 0.01156728 0.0007268474
v -0.005233901 0.01295394 0.0002161662
v -0.00322586 0.01397512 0.0001020315
v -0.009855055 0.004091152 -0.0009158981
v -0.006322167 0.0105582 -0.0009158981
v -0.0006058366 0.0130284 -0.0009158981
v -0.001057645 0.01559663 -0.0002926755
v 0.0003554721 0.008701537 -0.001569149
v -0.004686357 0.007057679 -0.001569149
v -0.00780238 0.002754007 -0.001569149
v -0.009855055 -0.003902564 -0.0009158981
v -0.00780238 -0.002565623 -0.001569149
v -0.006322167 -0.01036962 -0.0009158981
v -0.001057645 -0.01540803 -0.0002926755
v -0.004686357 -0.006869295 -0.001569149
v -0.0006058366 -0.01283981 -0.0009158981
v 0.005604566 -0.01204768 -0.000139035
v 0.0003554721 -0.008513152 -0.001569149
v 0.005110494 -0.01036962 -0.0009158981
v 0.005397301 -0.006869295 -0.001569149
v 0.004183392 0.00961309 0.0009437489
v 0.00386419 0.007982888 0.001297061
v 0.0005013011 0.009553825 0.001294886
v 6.701634E-05 9.442888E-05 0.001664807
v -0.003798969 0.007747217 0.00125542
v 0.002459128 -0.002881588 0.001620312
v 6.701634E-05 9.442888E-05 0.001664807
v 0.002459149 0.003070428 0.001620308
v 0.005397301 0.007057679 -0.001569149
v -0.0006058366 0.0130284 -0.0009158981
v 0.0003554721 0.008701537 -0.001569149
v 0.005110494 0.0105582 -0.0009158981
v -0.001057645 0.01559663 -0.0002926755
v 0.005604566 0.01223638 -0.0001390326
v 0.0005013011 -0.009365216 0.001294886
v 6.701634E-05 9.442888E-05 0.001664807
v 0.002459128 -0.002881588 0.001620312
v 0.00386419 -0.007794281 0.001297061
v 0.004183392 -0.009424385 0.0009437489
v 0.00386419 0.007982888 0.001297061
v 0.002459149 0.003070428 0.001620308
v 6.701634E-05 9.442888E-05 0.001664807
v 0.0005013011 0.009553825 0.001294886
v -0.001057645 0.01559663 -0.0002926755
v -0.00322586 0.01397512 0.0001020315
v -0.007136862 0.01263595 -0.0002926755
v -0.0005409308 0.01503283 0.0001321494
v 0.005604566 0.01223638 -0.0001390326
v 0.001670955 0.01406255 0.0002108962
v 0.004592723 0.01224653 0.0003989255
v 0.002635702 0.01341545 0.0004034774
v 0.004183392 0.00961309 0.0009437489
v 0.001910157 0.01273622 0.0006003515
v 0.0005013011 0.009553825 0.001294886
v -2.762571E-05 0.0128394 0.0007189853
v -0.003798969 0.007747217 0.00125542
v -0.002777175 0.01156728 0.0007268474
v -0.007142257 -0.01170255 0.0004158771
v -0.005906577 -0.0121286 0.0004114414
v -0.005203509 -0.01263406 0.0002060801
v -0.007136862 -0.01244735 -0.0002926755
v -0.003167658 -0.01359802 8.873522E-05
v -0.003167658 -0.01359802 8.873522E-05
v -0.0005187411 -0.01482959 0.0001220533
v -0.001057645 -0.01540803 -0.0002926755
v 0.001765126 -0.01379367 0.0002019359
v 0.005604566 -0.01204768 -0.000139035
v 0.002719899 -0.01315911 0.0004001804
v 0.004592726 -0.0120579 0.000398922
v 0.001988509 -0.0125047 0.0005952307
v 0.004183392 -0.009424385 0.0009437489
v -3.097355E-06 -0.01265576 0.0007179572
v 0.0005013011 -0.009365216 0.001294886
v -0.002755995 -0.01147372 0.0007252441
v -0.003798969 -0.00755861 0.00125542
v -0.004917347 -0.01136395 0.0006000286
v 0.005604566 -0.01204768 -0.000139035
v 0.008778735 -0.004696181 -0.0002926755
v 0.008643381 -0.003902564 -0.0009158981
v 0.008513323 -0.002565623 -0.001569149
v 0.008643381 0.004091152 -0.0009158981
v 0.008513323 0.002754007 -0.001569149
v 0.005604566 0.01223638 -0.0001390326
v 0.008778735 0.004884786 -0.0002926755
v 0.005432574 0.01092756 0.0003933549
v 0.008713415 0.004600295 0.0004158771
v 0.008713415 -0.004411696 0.0004158771
v 0.005604566 -0.01204768 -0.000139035
v 0.005432573 -0.01073893 0.0003933525
v 0.007509812 0.003017456 0.001261614
v 0.004847931 0.007005827 0.001232729
v 0.005432574 0.01092756 0.0003933549
v 0.003742789 0.002985182 0.001487886
v 0.00607618 9.44291E-05 0.001412745
v 0.003742769 -0.002796337 0.001487889
v 0.007509812 -0.002828848 0.001261614
v 0.00607618 9.44291E-05 0.001412745
v 0.005432573 -0.01073893 0.0003933525
v 0.004847935 -0.006817214 0.001232731
v 0.00607618 9.44291E-05 0.001412745
v 0.003742769 -0.002796337 0.001487889
v 0.004592726 -0.0120579 0.000398922
v 0.005432573 -0.01073893 0.0003933525
v 0.005604566 -0.01204768 -0.000139035
v 0.004592726 -0.0120579 0.000398922
v 0.004183392 -0.009424385 0.0009437489
v 0.004847935 -0.006817214 0.001232731
v 0.004847935 -0.006817214 0.001232731
v 0.004183392 -0.009424385 0.0009437489
v 0.00386419 -0.007794281 0.001297061
v 0.005604566 0.01223638 -0.0001390326
v 0.005432574 0.01092756 0.0003933549
v 0.004592723 0.01224653 0.0003989255
v 0.002459128 -0.002881588 0.001620312
v 0.003742769 -0.002796337 0.001487889
v 0.004847935 -0.006817214 0.001232731
v 0.00386419 -0.007794281 0.001297061
v 0.003742789 0.002985182 0.001487886
v 0.003742769 -0.002796337 0.001487889
v 0.002459128 -0.002881588 0.001620312
v 0.002459149 0.003070428 0.001620308
v 0.00386419 0.007982888 0.001297061
v 0.004847931 0.007005827 0.001232729
v 0.004183392 0.00961309 0.0009437489
v 0.004592723 0.01224653 0.0003989255
v 0.005432574 0.01092756 0.0003933549
v 0.004847931 0.007005827 0.001232729
v 0.004183392 0.00961309 0.0009437489
v -0.005203509 -0.01263406 0.0002060801
v -0.0005187411 -0.01482959 0.0001220533
v -0.003167658 -0.01359802 8.873522E-05
v 0.001765126 -0.01379367 0.0002019359
v 0.002719899 -0.01315911 0.0004001804
v -0.005906577 -0.0121286 0.0004114414
v 0.001988509 -0.0125047 0.0005952307
v -0.004917347 -0.01136395 0.0006000286
v -3.097355E-06 -0.01265576 0.0007179572
v -0.002755995 -0.01147372 0.0007252441
v -0.002777175 0.01156728 0.0007268474
v 0.001910157 0.01273622 0.0006003515
v -2.762571E-05 0.0128394 0.0007189853
v -0.004936847 0.01149129 0.0006028907
v 0.002635702 0.01341545 0.0004034774
v -0.005920266 0.01232982 0.0004137485
v -0.005233901 0.01295394 0.0002161662
v 0.001670955 0.01406255 0.0002108962
v -0.00322586 0.01397512 0.0001020315
v -0.0005409308 0.01503283 0.0001321494
v 0.0003554721 -0.008513152 -0.001569149
v 0.005397301 -0.006869295 -0.001569149
v -0.004686357 -0.006869295 -0.001569149
v -0.00780238 -0.002565623 -0.001569149
v 0.008513323 -0.002565623 -0.001569149
v -0.00780238 0.002754007 -0.001569149
v 0.008513323 0.002754007 -0.001569149
v -0.004686357 0.007057679 -0.001569149
v 0.005397301 0.007057679 -0.001569149
v 0.0003554721 0.008701537 -0.001569149
v 0.0004204298 0.002213361 -0.001803647
v 0.003018511 0.0010042 -6.485343E-05
v 0.0004204343 0.002490203 -4.849911E-05
v 0.003018506 0.0007142834 -0.00179944
v 0.003018511 -0.001967807 -9.756326E-05
v 0.003018507 -0.002283871 -0.001791024
v 0.0004204343 -0.00345381 -0.0001139176
v 0.00042043 -0.003782949 -0.001786816
v -0.002177642 -0.001967807 -9.756326E-05
v -0.002177646 -0.002283871 -0.001791024
v -0.002177642 0.0010042 -6.485343E-05
v -0.002177647 0.0007142834 -0.00179944
v 0.0004204343 0.002490203 -4.849911E-05
v 0.0004204298 0.002213361 -0.001803647
v 0.0004204343 0.002490203 -4.849911E-05
v 0.003018511 0.0010042 -6.485343E-05
v 0.003018511 -0.001967807 -9.756326E-05
v 0.0004204343 -0.00345381 -0.0001139176
v -0.002177642 0.0010042 -6.485343E-05
v -0.002177642 -0.001967807 -9.756326E-05
v 0.00042043 -0.003782949 -0.001786816
v 0.003018507 -0.002283871 -0.001791024
v 0.003018506 0.0007142834 -0.00179944
v 0.0004204298 0.002213361 -0.001803647
v -0.002177646 -0.002283871 -0.001791024
v -0.002177647 0.0007142834 -0.00179944
vt 0.3999999 1
vt 0.3922743 1
vt 0.4999999 1
vt 0.2999999 1
vt 0.2975382 1
vt 0.2999999 1
vt 0.3999999 1
vt 0.6 0.6280804
vt 0.6999997 0.6285851
vt 0.2999999 1
vt 0.3999999 1
vt 0.1999999 1
vt 0.1999999 1
vt 0.09999993 1
vt 0.1999999 1
vt 0.2023514 1
vt 0.09999993 1
vt 0.09999993 1
vt 0.1064668 1
vt 0.6999996 0.636176
vt 0.6 0.6327626
vt 0.5000003 0.6287805
vt 0.8 0.6299006
vt 0.9 0.6368618
vt 0.1999999 1
vt 0.09999993 1
vt -7.450581E-08 1
vt -7.450581E-08 1
vt -7.450581E-08 1
vt 0.09999993 1
vt 0.1999999 1
vt 0.2999999 1
vt 0.2999999 1
vt 0.3999999 1
vt 0.4999999 1
vt 0.3999999 1
vt 0.4999999 1
vt 0.5897352 1
vt 0.4999999 1
vt 0.5999999 1
vt 0.5999999 1
vt 0.7730271 1
vt 0.9130449 1
vt -7.450581E-08 1
vt 0.009412061 1
vt 0.09999993 1
vt 0.3127801 1
vt 0.3202645 1
vt 0.2966642 1
vt 0.9 1
vt 1 1
vt 1 1
vt 0.9 1
vt 1 1
vt 0.9 1
vt 0.4999999 1
vt 0.4882993 0.9999999
vt 0.5181841 0.9999999
vt 0.5869549 1
vt 0.5962377 1
vt 0.9130449 1
vt 0.9130178 1
vt 0.9365677 1
vt 1 1
vt 0 0
vt 0 0
vt 0 0
vt 0 0
vt 0 0
vt 0 0
vt 0 0
vt 0 0
vt 0 0
vt 0 0
vt 0 0
vt 0 0
vt 0 0
vt 0 0
vt 0 0
vt 0 0
vt 0 0
vt 0 0
vt 0.9 0.6221473
vt 0 0
vt 0 0
vt 0 0
vt 0 0
vt 0 0
vt 0 0
vt 0 0
vt 0 0
vt 0 0
vt 0 0
vt 0 0
vt 0 0
vt 0 0
vt 0 0
vt 0.5999999 1
vt 0.6999999 1
vt 0.6999999 1
vt 0.6999999 1
vt 0.8 1
vt 0.8 1
vt 0.8881377 1
vt 0.8 1
vt 0.8849437 1
vt 0.8 1
vt 0.6999999 1
vt 0.6118622 1
vt 0.6125906 1
vt 0.8 1
vt 0.8806121 1
vt 0.8867037 1
vt 0.8268578 1
vt 0.7969046 1
vt 0.7926098 1
vt 0.6999999 1
vt 0.7033421 1
vt 0.615056 1
vt 0.6193879 1
vt 0.6662266 1
vt 0.6193768 1
vt 0.5935453 1
vt 0.6125906 1
vt 0.6118622 1
vt 0.5887428 1
vt 0.5858918 1
vt 0.6193879 1
vt 0.5999999 1
vt 0.5962377 1
vt 0.5869549 1
vt 0.9102647 1
vt 0.8917471 1
vt 0.9107926 1
vt 0.5181841 0.9999999
vt 0.5362425 1
vt 0.5900034 1
vt 0.5869549 1
vt 0.9 1
vt 0.9 1
vt 0.9066004 1
vt 0.9130177 1
vt 0.9130449 1
vt 0.9 1
vt 0.9037623 1
vt 0.7986862 1
vt 0.8867037 1
vt 0.8806121 1
vt 0.7730271 1
vt 0 0
vt 0 0
vt 0.9 0.6221473
vt 0 0
vt 0 0
vt 0.6999997 0.6285851
vt 0 0
vt 0 0
vt 0 0
vt 0 0
vt 0 0
vt 0 0
vt 0 0
vt 0.6 0.6327626
vt 0 0
vt 0.6999996 0.636176
vt 0.8 0.6299006
vt 0 0
vt 0 0
vt 0 0
vt 0.4999999 1
vt 0.5999999 1
vt 0.3999999 1
vt 0.2999999 1
vt 0.6999999 1
vt 0.1999999 1
vt 0.8 1
vt 0.09999993 1
vt 0.9 1
vt -7.450581E-08 1
vt 1 0.5
vt 0.8333333 1
vt 1 1
vt 0.8333333 0.5
vt 0.6666666 1
vt 0.6666666 0.5
vt 0.4999999 1
vt 0.4999999 0.5
vt 0.3333333 1
vt 0.3333333 0.5
vt 0.1666666 1
vt 0.1666666 0.5
vt -8.940697E-08 1
vt -8.940697E-08 0.5
vt 0.25 0.49
vt 0.4578461 0.37
vt 0.4578461 0.13
vt 0.25 0.01000001
vt 0.04215391 0.37
vt 0.04215391 0.13
vt 0.75 0.01000001
vt 0.9578461 0.13
vt 0.9578461 0.37
vt 0.75 0.49
vt 0.5421539 0.13
vt 0.5421539 0.37
vn -0.07958675 -0.08649781 0.993068
vn -0.0181098 6.542953E-07 0.999836
vn 0.003448619 -0.1244957 0.9922141
vn -0.1240472 -0.03128925 0.9917828
vn -0.0181098 6.542953E-07 0.999836
vn -0.7970704 -0.1501318 0.5849266
vn -0.4995669 -0.4271796 0.7536249
vn -0.06033385 -0.1538187 0.9862554
vn -0.1674061 -0.4593371 0.8723443
vn -0.8428774 -0.250449 -0.4762699
vn -0.5947248 -0.7529374 -0.2817582
vn -0.7970706 0.150131 0.5849266
vn -0.8428774 0.25045 -0.4762694
vn -0.6126024 0.7387677 -0.2809637
vn -0.1240475 0.03128928 0.9917828
vn -0.0181098 6.542953E-07 0.999836
vn -0.5045784 0.4156395 0.7567328
vn -0.07958112 0.08691429 0.9930321
vn -0.0181098 6.542953E-07 0.999836
vn -0.183988 0.4370081 0.8804387
vn -0.05764534 0.1546655 0.9862837
vn -0.06931549 0.1563041 0.9852738
vn -0.2898786 0.6505717 0.7019451
vn -0.2463574 0.5324405 0.809824
vn -0.3604111 0.07256436 -0.9299669
vn -0.1936823 0.1751553 -0.9653019
vn 0.02087512 0.2317698 -0.9725467
vn -0.09284274 0.9740296 -0.2065104
vn 0.0124827 0.1623999 -0.9866461
vn -0.1304511 0.1308963 -0.9827759
vn -0.255483 0.0510607 -0.9654642
vn -0.360414 -0.07256461 -0.9299656
vn -0.255484 -0.05106467 -0.9654638
vn -0.193685 -0.1751581 -0.9653008
vn -0.08022256 -0.9844564 -0.1562372
vn -0.1304553 -0.1309018 -0.9827747
vn 0.02087685 -0.2317759 -0.9725452
vn 0.581582 -0.5805249 -0.5698712
vn 0.01248389 -0.1624081 -0.9866447
vn 0.3074765 -0.2608371 -0.9151078
vn 0.3034239 -0.2299218 -0.9247
vn 0.0921397 0.1858004 0.9782578
vn 0.03674938 0.1124314 0.9929797
vn 0.002497502 0.1246313 0.9922
vn -0.0181098 6.542953E-07 0.999836
vn -0.07958112 0.08691429 0.9930321
vn 2.989771E-05 -0.03910275 0.9992352
vn -0.0181098 6.542953E-07 0.999836
vn 3.032621E-05 0.039104 0.9992352
vn 0.3034024 0.2299062 -0.9247109
vn 0.02087512 0.2317698 -0.9725467
vn 0.0124827 0.1623999 -0.9866461
vn 0.3074694 0.2608279 -0.9151127
vn -0.09284274 0.9740296 -0.2065104
vn 0.5827134 0.5798752 -0.5693768
vn 0.003448619 -0.1244957 0.9922141
vn -0.0181098 6.542953E-07 0.999836
vn 2.989771E-05 -0.03910275 0.9992352
vn 0.03675124 -0.1124353 0.9929792
vn 0.09212959 -0.1864532 0.9781346
vn 0.03674938 0.1124314 0.9929797
vn 3.032621E-05 0.039104 0.9992352
vn -0.0181098 6.542953E-07 0.999836
vn 0.002497502 0.1246313 0.9922
vn -0.09284274 0.9740296 -0.2065104
vn -0.2463574 0.5324405 0.809824
vn -0.6126024 0.7387677 -0.2809637
vn 0.2003097 0.7922283 0.5764116
vn 0.5827134 0.5798752 -0.5693768
vn 0.3958551 0.8211051 0.4111995
vn 0.2774114 0.4892874 0.8268257
vn 0.2944317 0.5199779 0.8018311
vn 0.0921397 0.1858004 0.9782578
vn 0.09344845 0.1793725 0.9793329
vn 0.002497502 0.1246313 0.9922
vn 0.007057719 0.1684141 0.985691
vn -0.07958112 0.08691429 0.9930321
vn -0.06931549 0.1563041 0.9852738
vn -0.4995669 -0.4271796 0.7536249
vn -0.1674061 -0.4593371 0.8723443
vn -0.2488005 -0.6290815 0.7364473
vn -0.5947248 -0.7529374 -0.2817582
vn -0.2128525 -0.443258 0.8707561
vn -0.2128525 -0.443258 0.8707561
vn 0.2036204 -0.7434144 0.6370822
vn -0.08022256 -0.9844564 -0.1562372
vn 0.3874329 -0.8020031 0.4546283
vn 0.581582 -0.5805249 -0.5698712
vn 0.2905406 -0.5236076 0.8008878
vn 0.275125 -0.4952488 0.8240356
vn 0.09352732 -0.1805354 0.9791116
vn 0.09212959 -0.1864532 0.9781346
vn 0.008041211 -0.1681542 0.985728
vn 0.003448619 -0.1244957 0.9922141
vn -0.06867261 -0.1545464 0.9855961
vn -0.07958675 -0.08649781 0.993068
vn -0.06033385 -0.1538187 0.9862554
vn 0.581582 -0.5805249 -0.5698712
vn 0.9503849 -0.2721756 -0.1506294
vn 0.7771593 -0.1538845 -0.6101992
vn 0.9191193 -0.06456061 -0.3886535
vn 0.7771459 0.1538789 -0.6102177
vn 0.9191215 0.06455292 -0.3886496
vn 0.5827134 0.5798752 -0.5693768
vn 0.9503851 0.2721735 -0.1506314
vn 0.6663906 0.3180346 0.6743718
vn 0.7497001 0.1527198 0.6439149
vn 0.7497017 -0.1527224 0.6439124
vn 0.581582 -0.5805249 -0.5698712
vn 0.6663964 -0.3180405 0.6743635
vn 0.3229942 0.05144448 0.9450017
vn 0.2470522 0.1463674 0.957884
vn 0.6663906 0.3180346 0.6743718
vn 0.05312643 0.02792415 0.9981974
vn 0.06789257 6.860448E-07 0.9976926
vn 0.05312522 -0.02792247 0.9981974
vn 0.3229938 -0.05144415 0.9450019
vn 0.06789257 6.860448E-07 0.9976926
vn 0.6663964 -0.3180405 0.6743635
vn 0.2470529 -0.1463679 0.9578837
vn 0.06789257 6.860448E-07 0.9976926
vn 0.05312522 -0.02792247 0.9981974
vn 0.3713767 -0.2368454 0.8977658
vn 0.300184 -0.1948182 0.9337748
vn 0.4522896 -0.2844236 0.8453031
vn 0.3713767 -0.2368454 0.8977658
vn 0.2449405 -0.1639874 0.955569
vn 0.1453366 -0.07648628 0.9864213
vn 0.1453366 -0.07648628 0.9864213
vn 0.2449405 -0.1639874 0.955569
vn 0.1852411 -0.1214057 0.9751648
vn 0.4522738 0.2844141 0.8453147
vn 0.3001857 0.194814 0.9337751
vn 0.3713727 0.2368402 0.897769
vn 0.1027537 -0.01679128 0.9945651
vn 0.1027657 -0.01846214 0.9945343
vn 0.1453366 -0.07648628 0.9864213
vn 0.1852411 -0.1214057 0.9751648
vn 0.1027665 0.01846321 0.9945341
vn 0.1027657 -0.01846214 0.9945343
vn 0.1027537 -0.01679128 0.9945651
vn 0.1027545 0.01679203 0.994565
vn 0.1852378 0.1214005 0.9751661
vn 0.145338 0.07648565 0.9864212
vn 0.2449472 0.1639848 0.9555677
vn 0.3713727 0.2368402 0.897769
vn 0.3001857 0.194814 0.9337751
vn 0.145338 0.07648565 0.9864212
vn 0.2449472 0.1639848 0.9555677
vn -0.04301408 -0.3031338 0.9519768
vn -0.0265987 -0.09484144 0.995137
vn -0.0265987 -0.09484144 0.995137
vn -0.04123874 -0.2800473 0.9591
vn -0.03998964 -0.2921725 0.9555292
vn -0.03878471 -0.2837899 0.9581017
vn -0.05395444 -0.3393485 0.9391121
vn -0.04546885 -0.3023735 0.9521045
vn -0.1778912 -0.7363223 -0.6528279
vn -0.1778912 -0.7363223 -0.6528279
vn -0.2290009 0.8712954 -0.434054
vn -0.05816314 0.3280627 0.9428636
vn -0.2290009 0.8712954 -0.434054
vn -0.05207792 0.3045719 0.9510646
vn -0.03768817 0.2643286 0.9636959
vn -0.03730918 0.2600139 0.9648839
vn -0.03785393 0.2645814 0.9636201
vn -0.03657763 0.2488286 0.9678566
vn -0.0238048 0.09396204 0.9952911
vn -0.0238048 0.09396204 0.9952911
vn 0 0 -1
vn 0 0 -1
vn 0 0 -1
vn 0 0 -1
vn 0 0 -1
vn 0 0 -1
vn 0 0 -1
vn 0 0 -1
vn 0 0 -1
vn 0 0 -1
vn -7.201132E-07 0.7415482 -0.6708996
vn 0.6887985 0.4362982 0.5789651
vn 6.267713E-07 0.8322162 0.5544513
vn 0.6842023 0.3530365 -0.6381478
vn 0.6831323 -0.3522916 0.6397039
vn 0.689811 -0.4464639 -0.5699394
vn 6.390631E-07 -0.7362895 0.6766667
vn -6.270508E-07 -0.843576 -0.5370098
vn -0.6831306 -0.3522914 0.6397055
vn -0.6898122 -0.4464638 -0.5699378
vn -0.6887972 0.4362981 0.5789666
vn -0.6842039 0.3530366 -0.638146
vn 6.267713E-07 0.8322162 0.5544513
vn -7.201132E-07 0.7415482 -0.6708996
vn 6.267713E-07 0.8322162 0.5544513
vn 0.6887985 0.4362982 0.5789651
vn 0.6831323 -0.3522916 0.6397039
vn 6.390631E-07 -0.7362895 0.6766667
vn -0.6887972 0.4362981 0.5789666
vn -0.6831306 -0.3522914 0.6397055
vn -6.270508E-07 -0.843576 -0.5370098
vn 0.689811 -0.4464639 -0.5699394
vn 0.6842023 0.3530365 -0.6381478
vn -7.201132E-07 0.7415482 -0.6708996
vn -0.6898122 -0.4464638 -0.5699378
vn -0.6842039 0.3530366 -0.638146
g Cylinder.010_0
f 3/3/3 2/2/2 1/1/1
f 1/1/1 5/5/5 4/4/4
f 1/1/1 4/4/4 6/6/6
f 7/7/7 1/1/1 6/6/6
f 8/8/8 1/1/1 7/7/7
f 9/9/9 8/8/8 7/7/7
f 7/7/7 6/6/6 10/10/10
f 11/11/11 7/7/7 10/10/10
f 6/6/6 4/4/4 12/12/12
f 10/10/10 6/6/6 13/13/13
f 6/6/6 12/12/12 13/13/13
f 13/13/13 12/12/12 14/14/14
f 4/4/4 15/15/15 12/12/12
f 4/4/4 16/16/16 15/15/15
f 12/12/12 15/15/15 17/17/17
f 12/12/12 17/17/17 14/14/14
f 15/15/15 18/18/18 17/17/17
f 15/15/15 19/19/19 18/18/18
f 20/20/20 17/17/17 18/18/18
f 17/17/17 20/20/20 14/14/14
f 21/21/21 20/20/20 18/18/18
f 21/21/21 18/18/18 22/22/22
f 20/20/20 23/23/23 14/14/14
f 24/24/24 14/14/14 23/23/23
f 10/10/10 13/13/13 25/25/25
f 13/13/13 14/14/14 26/26/26
f 25/25/25 13/13/13 26/26/26
f 26/26/26 14/14/14 27/27/27
f 14/14/14 28/28/28 27/27/27
f 26/26/26 27/27/27 29/29/29
f 30/30/30 26/26/26 29/29/29
f 25/25/25 26/26/26 30/30/30
f 31/31/31 25/25/25 30/30/30
f 32/32/32 10/10/10 25/25/25
f 32/32/32 25/25/25 31/31/31
f 11/11/11 10/10/10 32/32/32
f 33/33/33 32/32/32 31/31/31
f 34/34/34 11/11/11 32/32/32
f 34/34/34 32/32/32 33/33/33
f 35/35/35 11/11/11 34/34/34
f 36/36/36 34/34/34 33/33/33
f 37/37/37 35/35/35 34/34/34
f 37/37/37 34/34/34 36/36/36
f 38/38/38 35/35/35 37/37/37
f 39/39/39 37/37/37 36/36/36
f 40/40/40 38/38/38 37/37/37
f 40/40/40 37/37/37 39/39/39
f 41/41/41 40/40/40 39/39/39
f 44/44/44 43/43/43 42/42/42
f 46/46/46 45/45/45 44/44/44
f 49/49/49 48/48/48 47/47/47
f 52/52/52 51/51/51 50/50/50
f 51/51/51 53/53/53 50/50/50
f 51/51/51 54/54/54 53/53/53
f 54/54/54 55/55/55 53/53/53
f 58/58/58 57/57/57 56/56/56
f 59/59/59 58/58/58 56/56/56
f 59/59/59 56/56/56 60/60/60
f 63/63/63 62/62/62 61/61/61
f 64/64/64 63/63/63 61/61/61
f 67/67/67 66/66/66 65/65/65
f 66/66/66 68/68/68 65/65/65
f 65/65/65 68/68/68 69/69/69
f 68/68/68 70/70/70 69/69/69
f 69/69/69 70/70/70 71/71/71
f 70/70/70 72/72/72 71/71/71
f 73/73/73 71/71/71 72/72/72
f 74/74/74 73/73/73 72/72/72
f 73/73/73 74/74/74 75/75/75
f 74/74/74 76/76/76 75/75/75
f 77/77/77 75/75/75 76/76/76
f 78/78/78 77/77/77 76/76/76
f 81/81/81 80/80/80 79/79/79
f 82/82/82 81/81/81 79/79/79
f 81/81/81 82/82/82 83/83/83
f 85/85/85 84/84/84 82/82/82
f 86/86/86 85/85/85 82/82/82
f 85/85/85 86/86/86 87/87/87
f 86/86/86 88/88/88 87/87/87
f 87/87/87 88/88/88 89/89/89
f 88/88/88 90/90/90 89/89/89
f 89/89/89 90/90/90 91/91/91
f 90/90/90 92/92/92 91/91/91
f 93/93/93 91/91/91 92/92/92
f 94/94/94 93/93/93 92/92/92
f 93/93/93 94/94/94 95/95/95
f 94/94/94 96/96/96 95/95/95
f 95/95/95 96/96/96 97/97/97
g Cylinder.010_1
f 99/99/99 98/98/98 40/40/40
f 100/100/100 99/99/99 40/40/40
f 100/100/100 40/40/40 41/41/41
f 101/101/101 100/100/100 41/41/41
f 102/102/102 100/100/100 101/101/101
f 103/103/103 102/102/102 101/101/101
f 53/53/53 102/102/102 103/103/103
f 50/50/50 53/53/53 103/103/103
f 53/53/53 104/104/104 102/102/102
f 102/102/102 105/105/105 100/100/100
f 104/104/104 105/105/105 102/102/102
f 105/105/105 99/99/99 100/100/100
f 104/104/104 106/106/106 105/105/105
f 106/106/106 107/107/107 105/105/105
f 105/105/105 107/107/107 99/99/99
f 107/107/107 108/108/108 99/99/99
f 99/99/99 108/108/108 109/109/109
f 108/108/108 110/110/110 109/109/109
f 107/107/107 111/111/111 108/108/108
f 112/112/112 111/111/111 107/107/107
f 113/113/113 112/112/112 107/107/107
f 112/112/112 114/114/114 111/111/111
f 114/114/114 115/115/115 111/111/111
f 116/116/116 115/115/115 114/114/114
f 111/111/111 117/117/117 108/108/108
f 111/111/111 118/118/118 117/117/117
f 108/108/108 117/117/117 119/119/119
f 117/117/117 120/120/120 119/119/119
f 117/117/117 121/121/121 120/120/120
f 121/121/121 122/122/122 120/120/120
g Cylinder.010_2
f 125/125/125 124/124/124 123/123/123
f 127/127/127 126/126/126 124/124/124
f 128/128/128 127/127/127 124/124/124
f 131/131/131 130/130/130 129/129/129
f 134/134/134 133/133/133 132/132/132
f 137/137/137 136/136/136 135/135/135
f 138/138/138 137/137/137 135/135/135
f 141/141/141 140/140/140 139/139/139
f 142/142/142 141/141/141 139/139/139
f 143/143/143 142/142/142 139/139/139
f 144/144/144 143/143/143 139/139/139
f 144/144/144 145/145/145 143/143/143
f 148/148/148 147/147/147 146/146/146
f 149/149/149 148/148/148 146/146/146
g Cylinder.010_3
f 152/152/152 151/151/151 150/150/150
f 151/151/151 153/153/153 150/150/150
f 150/150/150 153/153/153 154/154/154
f 155/155/155 150/150/150 154/154/154
f 154/154/154 156/156/156 155/155/155
f 156/156/156 157/157/157 155/155/155
f 156/156/156 158/158/158 157/157/157
f 158/158/158 159/159/159 157/157/157
f 162/162/162 161/161/161 160/160/160
f 161/161/161 163/163/163 160/160/160
f 163/163/163 161/161/161 164/164/164
f 165/165/165 163/163/163 164/164/164
f 165/165/165 164/164/164 166/166/166
f 164/164/164 167/167/167 166/166/166
f 166/166/166 167/167/167 168/168/168
f 167/167/167 169/169/169 168/168/168
f 172/172/172 171/171/171 170/170/170
f 172/172/172 173/173/173 171/171/171
f 173/173/173 174/174/174 171/171/171
f 173/173/173 175/175/175 174/174/174
f 175/175/175 176/176/176 174/174/174
f 175/175/175 177/177/177 176/176/176
f 177/177/177 178/178/178 176/176/176
f 178/178/178 177/177/177 179/179/179
g Cylinder.010_4
f 182/182/182 181/181/181 180/180/180
f 181/181/181 183/183/183 180/180/180
f 181/181/181 184/184/184 183/183/183
f 184/184/184 185/185/185 183/183/183
f 184/184/184 186/186/186 185/185/185
f 186/186/186 187/187/187 185/185/185
f 186/186/186 188/188/188 187/187/187
f 188/188/188 189/189/189 187/187/187
f 188/188/188 190/190/190 189/189/189
f 190/190/190 191/191/191 189/189/189
f 190/190/190 192/192/192 191/191/191
f 192/192/192 193/193/193 191/191/191
f 196/196/196 195/195/195 194/194/194
f 194/194/194 197/197/197 196/196/196
f 194/194/194 198/198/198 197/197/197
f 198/198/198 199/199/199 197/197/197
f 202/202/202 201/201/201 200/200/200
f 200/200/200 203/203/203 202/202/202
f 200/200/200 204/204/204 203/203/203
f 204/204/204 205/205/205 203/203/203
