g Cylinder.005
v 0.003585698 0.004492526 0.003045829
v -0.001243719 0.003723537 -0.0002638489
v -0.001497505 0.002936667 -0.002570473
v 0.002157369 0.002615097 -0.002570473
v -0.002138126 -0.0001977512 -0.003693253
v 7.02554E-05 -0.001519964 -0.003970566
v -0.002679323 -0.002721147 -0.003686027
v -0.00350883 -0.002656762 -0.003591083
v -0.001048408 -0.003578699 -0.003888289
v -9.711384E-05 -0.003479179 -0.003993475
v -0.002057918 -0.004287919 -0.003789541
v -0.0001322097 -0.004314544 -0.002919198
v -0.0007822233 -0.003844053 -0.002215432
v -0.001870906 -0.004552948 -0.002802017
v -0.0001028818 -0.002956206 -0.002047753
v -9.711384E-05 -0.003479179 -0.003993475
v 7.02554E-05 -0.001519964 -0.003970566
v 0.001699881 -8.875534E-05 -0.0003316009
v 0.002157369 0.002615097 -0.002570473
v -0.002460973 -0.001722876 -0.001951113
v -0.001964208 -0.0003747781 -0.0006836206
v -0.002447468 -0.003009303 -0.002284414
v -0.001870906 -0.004552948 -0.002802017
v -0.002679323 -0.002721147 -0.003686027
v -0.002057918 -0.004287919 -0.003789541
v -0.00350883 -0.002656762 -0.003591083
v -0.003553461 -0.003204688 -0.002503037
v -0.002138126 -0.0001977512 -0.003693253
v -0.001497505 0.002936667 -0.002570473
v -0.001243719 0.003723537 -0.0002638489
v -0.001544722 8.193165E-05 0.001667855
v 0.002304572 0.001397409 0.004778627
v 0.003010786 0.001434861 0.004820326
v 0.003181627 0.004182488 0.00765153
v 0.002178572 0.004664654 0.00938359
v 0.003710515 0.005681432 0.006900402
v 0.00311326 0.00719052 0.008183563
v 0.004117437 0.004108458 0.003323516
v 0.003585698 0.004492526 0.003045829
v 0.002178572 0.004664654 0.00938359
v 0.003585698 0.004492526 0.003045829
v 0.00311326 0.00719052 0.008183563
v 0.002304572 0.001397409 0.004778627
v -0.001243719 0.003723537 -0.0002638489
v -0.001544722 8.193165E-05 0.001667855
vt 0.75 0.01000001
vt 0.8910685 0.05583592
vt 0.8910685 0.05583592
vt 0.75 0.01000001
vt 0.8910685 0.05583592
vt 0.75 0.01000001
vt 0.8910685 0.05583592
vt 0.8910685 0.05583592
vt 0.75 0.01000001
vt 0.75 0.01000001
vt 0.75 0.01000001
vt 0.4999999 0.5
vt 0.4999999 0.5
vt 0.4999999 0.5
vt 0.4999999 0.5
vt 0.4999999 0.5
vt 0.4999999 0.5
vt 0.4999999 0.5
vt 0.4999999 0.5
vt 0.5999999 0.5
vt 0.5999999 0.5
vt 0.5999999 0.5
vt 0.5999999 0.5
vt 0.5999999 0.5
vt 0.5999999 0.5
vt 0.5999999 0.5
vt 0.5999999 0.5
vt 0.5999999 0.5
vt 0.5999999 0.5
vt 0.5999999 0.5
vt 0.5999999 0.5
vt 0.4999999 0.5
vt 0.4999999 0.5
vt 0.3999999 0.5
vt 0.3999999 0.5
vt 0.3999999 0.5
vt 0.3999999 0.5
vt 0.4999999 0.5
vt 0.4999999 0.5
vt 0.3999999 0.5
vt 0.4999999 0.5
vt 0.3999999 0.5
vt 0.4999999 0.5
vt 0.8910685 0.05583592
vt 0.5999999 0.5
vn 0.6365287 0.7002811 -0.3231679
vn -0.5165593 0.8319109 -0.2027083
vn -0.5557733 0.6459414 -0.5233315
vn 0.6607472 0.3718361 -0.6520362
vn -0.6288981 0.3401087 -0.6991518
vn 0.5354825 -0.06151168 -0.8423033
vn -0.3057699 -0.3708692 -0.8769041
vn -0.7936025 -0.2627574 -0.5487749
vn -0.01551252 -0.4782419 -0.8780912
vn 0.513365 -0.4509344 -0.7301469
vn -0.3297091 -0.7230464 -0.6070385
vn 0.4858451 -0.8740124 0.007541426
vn 0.1248645 -0.7092153 0.6938463
vn -0.211718 -0.9403488 0.2663075
vn 0.6255845 -0.4594118 0.6305434
vn 0.513365 -0.4509344 -0.7301469
vn 0.5354825 -0.06151168 -0.8423033
vn 0.6743338 -0.7328765 0.09036611
vn 0.6607472 0.3718361 -0.6520362
vn -0.6943683 0.004869191 0.7196033
vn -0.8079546 -0.3372172 0.4832121
vn -0.3579921 -0.5390496 0.7624089
vn -0.211718 -0.9403488 0.2663075
vn -0.3057699 -0.3708692 -0.8769041
vn -0.3297091 -0.7230464 -0.6070385
vn -0.7936025 -0.2627574 -0.5487749
vn -0.719274 -0.6081341 0.3358836
vn -0.6288981 0.3401087 -0.6991518
vn -0.5557733 0.6459414 -0.5233315
vn -0.5165593 0.8319109 -0.2027083
vn -0.4157813 -0.8636239 0.2850959
vn 0.1844377 -0.8995999 0.3958571
vn 0.6721008 -0.68505 0.2810461
vn 0.7680542 -0.4170874 0.485933
vn 0.7672197 -0.2964599 0.5687578
vn 0.9736944 0.1834172 0.1351934
vn 0.9279452 0.1026384 0.3583058
vn 0.9813679 0.1250814 -0.1458483
vn 0.6365287 0.7002811 -0.3231679
vn -0.941557 0.2584301 -0.2160656
vn -0.8773332 0.4213166 0.2297361
vn -0.941557 0.2584301 -0.2160656
vn -0.8541839 0.4355009 0.2840931
vn -0.5918319 0.4879798 0.6415689
vn -0.5918319 0.4879798 0.6415689
g Cylinder.005_0
f 3/3/3 2/2/2 1/1/1
f 4/4/4 3/3/3 1/1/1
f 5/5/5 3/3/3 4/4/4
f 6/6/6 5/5/5 4/4/4
f 7/7/7 5/5/5 6/6/6
f 8/8/8 5/5/5 7/7/7
f 9/9/9 7/7/7 6/6/6
f 10/10/10 9/9/9 6/6/6
f 11/11/11 7/7/7 9/9/9
f 10/10/10 12/12/12 9/9/9
f 11/11/11 9/9/9 13/13/13
f 12/12/12 13/13/13 9/9/9
f 14/14/14 11/11/11 13/13/13
f 12/12/12 15/15/15 13/13/13
f 12/12/12 16/16/16 15/15/15
f 16/16/16 17/17/17 15/15/15
f 15/15/15 17/17/17 18/18/18
f 17/17/17 19/19/19 18/18/18
f 13/13/13 15/15/15 20/20/20
f 15/15/15 18/18/18 21/21/21
f 20/20/20 15/15/15 21/21/21
f 22/22/22 13/13/13 20/20/20
f 23/23/23 13/13/13 22/22/22
f 23/23/23 22/22/22 24/24/24
f 25/25/25 23/23/23 24/24/24
f 26/26/26 24/24/24 22/22/22
f 27/27/27 26/26/26 22/22/22
f 27/27/27 22/22/22 20/20/20
f 26/26/26 27/27/27 28/28/28
f 27/27/27 20/20/20 28/28/28
f 28/28/28 20/20/20 29/29/29
f 20/20/20 21/21/21 29/29/29
f 29/29/29 21/21/21 30/30/30
f 21/21/21 31/31/31 30/30/30
f 21/21/21 18/18/18 31/31/31
f 18/18/18 32/32/32 31/31/31
f 32/32/32 18/18/18 33/33/33
f 18/18/18 4/4/4 33/33/33
f 33/33/33 34/34/34 32/32/32
f 34/34/34 35/35/35 32/32/32
f 34/34/34 36/36/36 35/35/35
f 36/36/36 34/34/34 33/33/33
f 36/36/36 37/37/37 35/35/35
f 4/4/4 38/38/38 33/33/33
f 38/38/38 36/36/36 33/33/33
f 36/36/36 38/38/38 37/37/37
f 38/38/38 4/4/4 39/39/39
f 38/38/38 39/39/39 37/37/37
g Cylinder.005_1
f 42/42/42 41/41/41 40/40/40
f 41/41/41 43/43/43 40/40/40
f 41/41/41 44/44/44 43/43/43
f 44/44/44 45/45/45 43/43/43
