g Cylinder.008
v 0 0.01 -0.01
v 0.008660254 0.005 0.01
v 0 0.01 0.01
v 0.008660254 0.005 -0.01
v 0.008660254 -0.005 0.01
v 0.008660254 -0.005 -0.01
v 0 -0.01 0.01
v 0 -0.01 -0.01
v -0.008660254 -0.005 0.01
v -0.008660254 -0.005 -0.01
v -0.008660254 0.005 0.01
v -0.008660254 0.005 -0.01
v 0 0.01 0.01
v 0 0.01 -0.01
v 0 0.01 0.01
v 0.008660254 0.005 0.01
v 0.008660254 -0.005 0.01
v 0 -0.01 0.01
v -0.008660254 0.005 0.01
v -0.008660254 -0.005 0.01
v 0 -0.01 -0.01
v 0.008660254 -0.005 -0.01
v 0.008660254 0.005 -0.01
v 0 0.01 -0.01
v -0.008660254 -0.005 -0.01
v -0.008660254 0.005 -0.01
v 0.0324675 0.02086539 0.04363645
v 0.04413661 0.01885374 0.04344891
v 0.0423497 0.02207755 0.04725208
v 0.03425441 0.01764159 0.03983328
v 0.04445399 0.01364082 0.04432911
v 0.03457179 0.01242867 0.04071348
v 0.04298447 0.0116517 0.04901247
v 0.03310226 0.01043955 0.04539685
v 0.04119756 0.01487551 0.05281564
v 0.03131535 0.01366335 0.04920001
v 0.04088018 0.02008843 0.05193544
v 0.03099797 0.01887627 0.04831982
v 0.0423497 0.02207755 0.04725208
v 0.0324675 0.02086539 0.04363645
v 0.04445399 0.01364082 0.04432911
v 0.04298447 0.0116517 0.04901247
v 0.04119756 0.01487551 0.05281564
v 0.04413661 0.01885374 0.04344891
v 0.04088018 0.02008843 0.05193544
v 0.0423497 0.02207755 0.04725208
v 0.03131535 0.01366335 0.04920001
v 0.03310226 0.01043955 0.04539685
v 0.03457179 0.01242867 0.04071348
v 0.03425441 0.01764159 0.03983328
v 0.03099797 0.01887627 0.04831982
v 0.0324675 0.02086539 0.04363645
v -0.04098868 0.02169397 0.04797674
v -0.03448064 0.01716631 0.03917926
v -0.03183743 0.01959866 0.04307119
v -0.04363189 0.01926162 0.0440848
v -0.03549342 0.0119781 0.03950597
v -0.04464467 0.01407341 0.04441151
v -0.033863 0.009222236 0.04372462
v -0.04301425 0.01131755 0.04863016
v -0.0312198 0.01165459 0.04761655
v -0.04037105 0.0137499 0.0525221
v -0.03020701 0.0168428 0.04728984
v -0.03935827 0.01893811 0.05219539
v -0.03183743 0.01959866 0.04307119
v -0.04098868 0.02169397 0.04797674
v -0.03549342 0.0119781 0.03950597
v -0.033863 0.009222236 0.04372462
v -0.0312198 0.01165459 0.04761655
v -0.03020701 0.0168428 0.04728984
v -0.03448064 0.01716631 0.03917926
v -0.03183743 0.01959866 0.04307119
v -0.04037105 0.0137499 0.0525221
v -0.04301425 0.01131755 0.04863016
v -0.04464467 0.01407341 0.04441151
v -0.03935827 0.01893811 0.05219539
v -0.04363189 0.01926162 0.0440848
v -0.04098868 0.02169397 0.04797674
v -0.03186217 -0.01569713 0.07391346
v 6.464415E-05 -0.003140039 0.1150128
v -0.01980398 -0.03403094 0.07391346
v -0.04435483 -0.02815587 0.01831865
v -0.05054553 -0.0125231 0.0184323
v -0.05505803 -0.007286917 -0.001883805
v -0.04831563 -0.02442003 -0.001883807
v -0.02744159 -0.04646873 0.01831865
v -0.02989508 -0.04987341 -0.001883807
v 6.49084E-05 -0.03608364 0.07391346
v 6.464415E-05 -0.003140039 0.1150128
v 6.490443E-05 -0.04934793 0.01831865
v 6.490046E-05 -0.0530092 -0.001883807
v 0.03002443 -0.04987341 -0.00188379
v 0.02757093 -0.04646873 0.01831869
v 0.04844499 -0.02442003 -0.001883807
v 0.01993331 -0.03403094 0.07391346
v 6.464415E-05 -0.003140039 0.1150128
v 0.0319915 -0.01569713 0.07391346
v 0.04448417 -0.02815587 0.01831865
v 0.05518739 -0.007286917 -0.001883805
v 0.05067487 -0.0125231 0.0184323
v -0.04831563 0.02810112 -0.001883805
v -0.04435483 0.02558175 0.01831866
v -0.02989508 0.05304594 -0.001883802
v -0.02744159 0.04721147 0.01831866
v 6.490046E-05 0.05618554 -0.001883802
v -0.04424618 0.0003765595 0.03476698
v -0.04235156 0.02375373 0.02797456
v -0.03854915 0.004012626 0.05755403
v -0.03212726 0.03198918 0.03317091
v -0.03627578 -0.003140046 0.07391346
v 6.464415E-05 -0.003140039 0.1150128
v -0.03384555 0.01578955 0.06426845
v -0.03186217 0.01469482 0.07391346
v 6.464415E-05 -0.003140039 0.1150128
v -0.02857043 0.02379099 0.05906119
v -0.01980398 0.02775086 0.07391346
v 6.464415E-05 -0.003140039 0.1150128
v 6.490443E-05 0.05009668 0.01831866
v 6.49084E-05 0.02980357 0.07391346
v 6.464415E-05 -0.003140039 0.1150128
v 0.01993331 0.02775086 0.07391346
v 0.0319915 0.01469482 0.07391346
v 0.02757093 0.04721147 0.01831866
v 0.03002443 0.05304594 -0.001883802
v 0.04448417 0.02558175 0.01831866
v 0.04844499 0.02810113 -0.001883805
v 0.0322566 0.03198918 0.03317091
v 0.0424809 0.02375373 0.02797456
v 0.02869977 0.02379099 0.05906119
v 0.04437552 0.0003765592 0.03476698
v 0.03397489 0.01578955 0.06426845
v 0.03867849 0.004012626 0.05755403
v 0.03640511 -0.003140046 0.07391346
v -0.03212726 0.03198918 0.03317091
v -0.04424618 0.0003765595 0.03476698
v -0.04235156 0.02375373 0.02797456
v -0.03854915 0.004012626 0.05755403
v -0.03384555 0.01578955 0.06426845
v -0.02857043 0.02379099 0.05906119
v 0.0322566 0.03198918 0.03317091
v 0.03397489 0.01578955 0.06426845
v 0.02869977 0.02379099 0.05906119
v 0.03867849 0.004012626 0.05755403
v 0.04437552 0.0003765592 0.03476698
v 0.0424809 0.02375373 0.02797456
v 0.05518739 -0.007286917 -0.001883805
v 0.04844499 0.02810113 -0.001883805
v 0.04844499 -0.02442003 -0.001883807
v 0.03002443 -0.04987341 -0.00188379
v 0.03002443 0.05304594 -0.001883802
v 6.490046E-05 -0.0530092 -0.001883807
v 6.490046E-05 0.05618554 -0.001883802
v -0.02989508 0.05304594 -0.001883802
v -0.02989508 -0.04987341 -0.001883807
v -0.04831563 0.02810112 -0.001883805
v -0.04831563 -0.02442003 -0.001883807
v -0.05505803 -0.007286917 -0.001883805
vt 1 0.5
vt 0.8333333 1
vt 1 1
vt 0.8333333 0.5
vt 0.6666666 1
vt 0.6666666 0.5
vt 0.4999999 1
vt 0.4999999 0.5
vt 0.3333333 1
vt 0.3333333 0.5
vt 0.1666666 1
vt 0.1666666 0.5
vt -8.940697E-08 1
vt -8.940697E-08 0.5
vt 0.25 0.49
vt 0.4578461 0.37
vt 0.4578461 0.13
vt 0.25 0.01000001
vt 0.04215391 0.37
vt 0.04215391 0.13
vt 0.75 0.01000001
vt 0.9578461 0.13
vt 0.9578461 0.37
vt 0.75 0.49
vt 0.5421539 0.13
vt 0.5421539 0.37
vt 1 0.5
vt 0.8333333 1
vt 1 1
vt 0.8333333 0.5
vt 0.6666666 1
vt 0.6666666 0.5
vt 0.4999999 1
vt 0.4999999 0.5
vt 0.3333333 1
vt 0.3333333 0.5
vt 0.1666666 1
vt 0.1666666 0.5
vt -8.940697E-08 1
vt -8.940697E-08 0.5
vt 0.4578461 0.13
vt 0.25 0.01000001
vt 0.04215391 0.13
vt 0.4578461 0.37
vt 0.04215391 0.37
vt 0.25 0.49
vt 0.5421539 0.13
vt 0.75 0.01000001
vt 0.9578461 0.13
vt 0.9578461 0.37
vt 0.5421539 0.37
vt 0.75 0.49
vt 1 0.5
vt 0.8333333 1
vt 1 1
vt 0.8333333 0.5
vt 0.6666666 1
vt 0.6666666 0.5
vt 0.4999999 1
vt 0.4999999 0.5
vt 0.3333333 1
vt 0.3333333 0.5
vt 0.1666666 1
vt 0.1666666 0.5
vt -8.940697E-08 1
vt -8.940697E-08 0.5
vt 0.4578461 0.13
vt 0.25 0.01000001
vt 0.04215391 0.13
vt 0.04215391 0.37
vt 0.4578461 0.37
vt 0.25 0.49
vt 0.5421539 0.13
vt 0.75 0.01000001
vt 0.9578461 0.13
vt 0.5421539 0.37
vt 0.9578461 0.37
vt 0.75 0.49
vt 0.1666667 0.1666667
vt 0.1666667 0.1666667
vt 0.08333334 0.1666667
vt 0.1666667 0.1666667
vt 0.25 0.1666667
vt 0.25 0.1666667
vt 0.1666667 0.1666667
vt 0.08333334 0.1666667
vt 0.08333334 0.1666667
vt 0 0.1666667
vt 0.08333334 0.1666667
vt 0 0.1666667
vt 0 0.1666667
vt 0.08333334 0.1666667
vt 0.08333334 0.1666667
vt 0.1666667 0.1666667
vt 0.08333334 0.1666667
vt 0 0.1666667
vt 0.1666667 0.1666667
vt 0.1666667 0.1666667
vt 0.25 0.1666667
vt 0.25 0.1666667
vt 0.3333333 0.1666667
vt 0.3333333 0.1666667
vt 0.4166667 0.1666667
vt 0.4166667 0.1666667
vt 0.5 0.1666667
vt 0.2763894 0.1666667
vt 0.3338779 0.1666667
vt 0.2893537 0.1666667
vt 0.3817319 0.1666667
vt 0.25 0.1666667
vt 0.25 0.1666667
vt 0.332933 0.1666667
vt 0.3333333 0.1666667
vt 0.3333333 0.1666667
vt 0.3731894 0.1666667
vt 0.4166667 0.1666667
vt 0.4166667 0.1666667
vt 0.5 0.1666667
vt 0.5 0.1666667
vt 0.5 0.1666667
vt 0.4166667 0.1666667
vt 0.3333333 0.1666667
vt 0.4166667 0.1666667
vt 0.4166667 0.1666667
vt 0.3333333 0.1666667
vt 0.3333333 0.1666667
vt 0.3817319 0.1666667
vt 0.3338779 0.1666667
vt 0.3731894 0.1666667
vt 0.2763894 0.1666667
vt 0.332933 0.1666667
vt 0.2893537 0.1666667
vt 0.25 0.1666667
vt 0.3817319 0.1666667
vt 0.2763894 0.1666667
vt 0.3338779 0.1666667
vt 0.2893537 0.1666667
vt 0.332933 0.1666667
vt 0.3731894 0.1666667
vt 0.3817319 0.1666667
vt 0.332933 0.1666667
vt 0.3731894 0.1666667
vt 0.2893537 0.1666667
vt 0.2763894 0.1666667
vt 0.3338779 0.1666667
vt 0.25 0.1666667
vt 0.3333333 0.1666667
vt 0.1666667 0.1666667
vt 0.08333334 0.1666667
vt 0.4166667 0.1666667
vt 0 0.1666667
vt 0.5 0.1666667
vt 0.4166667 0.1666667
vt 0.08333334 0.1666667
vt 0.3333333 0.1666667
vt 0.1666667 0.1666667
vt 0.25 0.1666667
vn 0 0.7924034 -0.6099975
vn 0.6862414 0.3962017 0.6099975
vn 0 0.7924034 0.6099975
vn 0.6862414 0.3962017 -0.6099975
vn 0.6862414 -0.3962017 0.6099975
vn 0.6862414 -0.3962017 -0.6099975
vn 0 -0.7924034 0.6099975
vn 0 -0.7924034 -0.6099975
vn -0.6862414 -0.3962017 0.6099975
vn -0.6862414 -0.3962017 -0.6099975
vn -0.6862414 0.3962017 0.6099975
vn -0.6862414 0.3962017 -0.6099975
vn 0 0.7924034 0.6099975
vn 0 0.7924034 -0.6099975
vn 0 0.7924034 0.6099975
vn 0.6862414 0.3962017 0.6099975
vn 0.6862414 -0.3962017 0.6099975
vn 0 -0.7924034 0.6099975
vn -0.6862414 0.3962017 0.6099975
vn -0.6862414 -0.3962017 0.6099975
vn 0 -0.7924034 -0.6099975
vn 0.6862414 -0.3962017 -0.6099975
vn 0.6862414 0.3962017 -0.6099975
vn 0 0.7924034 -0.6099975
vn -0.6862414 -0.3962017 -0.6099975
vn -0.6862414 0.3962017 -0.6099975
vn -0.616581 0.7101337 -0.3399087
vn 0.7889616 0.3674107 -0.4924925
vn 0.5216106 0.849745 0.07652391
vn -0.3492301 0.2277994 -0.9089256
vn 0.8364468 -0.4125286 -0.3608005
vn -0.301745 -0.5521399 -0.7772333
vn 0.6165812 -0.7101336 0.3399088
vn -0.5216107 -0.8497449 -0.07652397
vn 0.3492301 -0.2277994 0.9089256
vn -0.7889615 -0.3674107 0.4924928
vn 0.3017451 0.5521399 0.7772332
vn -0.8364468 0.4125286 0.3608004
vn 0.5216106 0.849745 0.07652391
vn -0.616581 0.7101337 -0.3399087
vn 0.8364468 -0.4125286 -0.3608005
vn 0.6165812 -0.7101336 0.3399088
vn 0.3492301 -0.2277994 0.9089256
vn 0.7889616 0.3674107 -0.4924925
vn 0.3017451 0.5521399 0.7772332
vn 0.5216106 0.849745 0.07652391
vn -0.7889615 -0.3674107 0.4924928
vn -0.5216107 -0.8497449 -0.07652397
vn -0.301745 -0.5521399 -0.7772333
vn -0.3492301 0.2277994 -0.9089256
vn -0.8364468 0.4125286 0.3608004
vn -0.616581 0.7101337 -0.3399087
vn -0.3754723 0.8969074 0.2336188
vn 0.2830635 0.2916576 -0.9136798
vn 0.6785306 0.6555779 -0.3313817
vn -0.7709394 0.532987 -0.3486792
vn 0.1315347 -0.484585 -0.8647982
vn -0.9224685 -0.2432555 -0.2997976
vn 0.3754726 -0.8969072 -0.2336187
vn -0.6785305 -0.655578 0.3313818
vn 0.7709394 -0.5329869 0.3486794
vn -0.2830635 -0.2916574 0.91368
vn 0.9224685 0.2432556 0.2997976
vn -0.1315346 0.484585 0.8647982
vn 0.6785306 0.6555779 -0.3313817
vn -0.3754723 0.8969074 0.2336188
vn 0.1315347 -0.484585 -0.8647982
vn 0.3754726 -0.8969072 -0.2336187
vn 0.7709394 -0.5329869 0.3486794
vn 0.9224685 0.2432556 0.2997976
vn 0.2830635 0.2916576 -0.9136798
vn 0.6785306 0.6555779 -0.3313817
vn -0.2830635 -0.2916574 0.91368
vn -0.6785305 -0.655578 0.3313818
vn -0.9224685 -0.2432555 -0.2997976
vn -0.1315346 0.484585 0.8647982
vn -0.7709394 0.532987 -0.3486792
vn -0.3754723 0.8969074 0.2336188
vn -0.7856097 -0.4087216 0.4645042
vn -1.890133E-07 -0.005705514 0.9999838
vn -0.4415372 -0.7732874 0.4550509
vn -0.8402821 -0.5054798 0.196001
vn -0.9671156 -0.1327697 0.2169321
vn -0.9802887 -0.05523907 0.1896908
vn -0.8700299 -0.4791961 0.1158411
vn -0.4674084 -0.858011 0.2129472
vn -0.4776649 -0.8640248 0.1590515
vn 1.089204E-06 -0.9010345 0.4337474
vn -1.890133E-07 -0.005705514 0.9999838
vn 8.290095E-07 -0.9788066 0.204787
vn 6.851843E-07 -0.9839708 0.1783295
vn 0.4776657 -0.8640244 0.1590519
vn 0.4674092 -0.8580105 0.2129475
vn 0.8700298 -0.4791961 0.1158418
vn 0.4415382 -0.7732868 0.4550512
vn -1.890133E-07 -0.005705514 0.9999838
vn 0.7856094 -0.4087217 0.4645045
vn 0.840282 -0.5054796 0.1960014
vn 0.9802886 -0.05523913 0.1896918
vn 0.9671155 -0.1327699 0.2169326
vn -0.8865457 0.3925538 0.2448229
vn -0.8783807 0.3927484 0.2723897
vn -0.4639956 0.8376973 0.2880477
vn -0.4638659 0.8263839 0.3192461
vn 7.484398E-07 0.95744 0.2886321
vn -0.9584568 0.1758405 0.22459
vn -0.8720382 0.3874367 0.2990687
vn -0.9531313 0.2090219 0.2187474
vn -0.7588068 0.571192 0.3129728
vn -0.8884311 -0.0285797 0.4581195
vn -1.890133E-07 -0.005705514 0.9999838
vn -0.8549997 0.4589103 0.2416132
vn -0.7859958 0.4220881 0.4517214
vn -1.890133E-07 -0.005705514 0.9999838
vn -0.7597706 0.5899438 0.2733403
vn -0.4152723 0.7692282 0.4856304
vn -1.890133E-07 -0.005705514 0.9999838
vn 8.765803E-07 0.9490289 0.3151891
vn 1.09848E-06 0.8739299 0.486052
vn -1.890133E-07 -0.005705514 0.9999838
vn 0.415273 0.7692277 0.4856306
vn 0.7859956 0.422088 0.4517219
vn 0.4638665 0.8263836 0.3192461
vn 0.4639963 0.8376967 0.2880479
vn 0.8783807 0.3927483 0.2723899
vn 0.8865455 0.3925537 0.2448236
vn 0.7588067 0.5711922 0.3129728
vn 0.8720383 0.3874368 0.2990685
vn 0.7597704 0.5899441 0.2733407
vn 0.9584569 0.1758403 0.2245901
vn 0.8549997 0.45891 0.2416138
vn 0.9531313 0.2090214 0.2187479
vn 0.8884309 -0.02857995 0.4581198
vn -0.8782271 0.3797109 0.2907523
vn -0.8700549 0.3510162 0.34611
vn -0.8700549 0.3510162 0.34611
vn -0.8813667 0.3956105 0.2582341
vn -0.8841306 0.4326167 0.1765103
vn -0.8841306 0.4326167 0.1765103
vn 0.8782269 0.3797111 0.2907525
vn 0.8841303 0.4326171 0.1765108
vn 0.8841303 0.4326171 0.1765108
vn 0.8813667 0.3956107 0.2582344
vn 0.8700549 0.3510161 0.3461101
vn 0.8700549 0.3510161 0.3461101
vn 2.69309E-07 0 -1
vn -4.691072E-07 0 -1
vn -4.216009E-07 0 -1
vn 0 0 -1
vn 0 0 -1
vn 1.387566E-07 0 -1
vn 1.387566E-07 0 -1
vn 0 0 -1
vn 0 0 -1
vn 0 0 -1
vn 0 0 -1
vn -2.356454E-07 0 -1
g Cylinder.008_0
f 3/3/3 2/2/2 1/1/1
f 2/2/2 4/4/4 1/1/1
f 2/2/2 5/5/5 4/4/4
f 5/5/5 6/6/6 4/4/4
f 5/5/5 7/7/7 6/6/6
f 7/7/7 8/8/8 6/6/6
f 7/7/7 9/9/9 8/8/8
f 9/9/9 10/10/10 8/8/8
f 9/9/9 11/11/11 10/10/10
f 11/11/11 12/12/12 10/10/10
f 11/11/11 13/13/13 12/12/12
f 13/13/13 14/14/14 12/12/12
f 17/17/17 16/16/16 15/15/15
f 15/15/15 18/18/18 17/17/17
f 15/15/15 19/19/19 18/18/18
f 19/19/19 20/20/20 18/18/18
f 23/23/23 22/22/22 21/21/21
f 21/21/21 24/24/24 23/23/23
f 21/21/21 25/25/25 24/24/24
f 25/25/25 26/26/26 24/24/24
f 29/29/29 28/28/28 27/27/27
f 28/28/28 30/30/30 27/27/27
f 28/28/28 31/31/31 30/30/30
f 31/31/31 32/32/32 30/30/30
f 31/31/31 33/33/33 32/32/32
f 33/33/33 34/34/34 32/32/32
f 33/33/33 35/35/35 34/34/34
f 35/35/35 36/36/36 34/34/34
f 35/35/35 37/37/37 36/36/36
f 37/37/37 38/38/38 36/36/36
f 37/37/37 39/39/39 38/38/38
f 39/39/39 40/40/40 38/38/38
f 43/43/43 42/42/42 41/41/41
f 41/41/41 44/44/44 43/43/43
f 44/44/44 45/45/45 43/43/43
f 44/44/44 46/46/46 45/45/45
f 49/49/49 48/48/48 47/47/47
f 47/47/47 50/50/50 49/49/49
f 47/47/47 51/51/51 50/50/50
f 51/51/51 52/52/52 50/50/50
f 55/55/55 54/54/54 53/53/53
f 54/54/54 56/56/56 53/53/53
f 54/54/54 57/57/57 56/56/56
f 57/57/57 58/58/58 56/56/56
f 57/57/57 59/59/59 58/58/58
f 59/59/59 60/60/60 58/58/58
f 59/59/59 61/61/61 60/60/60
f 61/61/61 62/62/62 60/60/60
f 61/61/61 63/63/63 62/62/62
f 63/63/63 64/64/64 62/62/62
f 63/63/63 65/65/65 64/64/64
f 65/65/65 66/66/66 64/64/64
f 69/69/69 68/68/68 67/67/67
f 67/67/67 70/70/70 69/69/69
f 67/67/67 71/71/71 70/70/70
f 71/71/71 72/72/72 70/70/70
f 75/75/75 74/74/74 73/73/73
f 73/73/73 76/76/76 75/75/75
f 76/76/76 77/77/77 75/75/75
f 76/76/76 78/78/78 77/77/77
g Cylinder.008_1
f 81/81/81 80/80/80 79/79/79
f 81/81/81 79/79/79 82/82/82
f 79/79/79 83/83/83 82/82/82
f 82/82/82 83/83/83 84/84/84
f 85/85/85 82/82/82 84/84/84
f 86/86/86 82/82/82 85/85/85
f 86/86/86 81/81/81 82/82/82
f 87/87/87 86/86/86 85/85/85
f 88/88/88 81/81/81 86/86/86
f 88/88/88 89/89/89 81/81/81
f 90/90/90 86/86/86 87/87/87
f 90/90/90 88/88/88 86/86/86
f 91/91/91 90/90/90 87/87/87
f 90/90/90 91/91/91 92/92/92
f 93/93/93 90/90/90 92/92/92
f 88/88/88 90/90/90 93/93/93
f 93/93/93 92/92/92 94/94/94
f 95/95/95 88/88/88 93/93/93
f 96/96/96 88/88/88 95/95/95
f 89/89/89 95/95/95 97/97/97
f 98/98/98 93/93/93 94/94/94
f 95/95/95 93/93/93 98/98/98
f 97/97/97 95/95/95 98/98/98
f 98/98/98 94/94/94 99/99/99
f 100/100/100 97/97/97 98/98/98
f 100/100/100 98/98/98 99/99/99
g Cylinder.008_2
f 84/84/84 83/83/83 101/101/101
f 83/83/83 102/102/102 101/101/101
f 103/103/103 101/101/101 102/102/102
f 104/104/104 103/103/103 102/102/102
f 103/103/103 104/104/104 105/105/105
f 102/102/102 83/83/83 106/106/106
f 107/107/107 102/102/102 106/106/106
f 104/104/104 102/102/102 107/107/107
f 106/106/106 83/83/83 108/108/108
f 109/109/109 104/104/104 107/107/107
f 83/83/83 110/110/110 108/108/108
f 83/83/83 79/79/79 110/110/110
f 79/79/79 111/111/111 110/110/110
f 108/108/108 110/110/110 112/112/112
f 110/110/110 113/113/113 112/112/112
f 110/110/110 114/114/114 113/113/113
f 112/112/112 113/113/113 115/115/115
f 115/115/115 116/116/116 109/109/109
f 113/113/113 116/116/116 115/115/115
f 116/116/116 104/104/104 109/109/109
f 113/113/113 117/117/117 116/116/116
f 104/104/104 116/116/116 118/118/118
f 104/104/104 118/118/118 105/105/105
f 116/116/116 119/119/119 118/118/118
f 116/116/116 120/120/120 119/119/119
f 117/117/117 121/121/121 119/119/119
f 119/119/119 121/121/121 118/118/118
f 114/114/114 122/122/122 121/121/121
f 118/118/118 123/123/123 105/105/105
f 121/121/121 123/123/123 118/118/118
f 123/123/123 124/124/124 105/105/105
f 124/124/124 123/123/123 125/125/125
f 126/126/126 124/124/124 125/125/125
f 125/125/125 100/100/100 126/126/126
f 100/100/100 99/99/99 126/126/126
f 123/123/123 121/121/121 127/127/127
f 123/123/123 127/127/127 128/128/128
f 125/125/125 123/123/123 128/128/128
f 121/121/121 129/129/129 127/127/127
f 121/121/121 122/122/122 129/129/129
f 125/125/125 128/128/128 130/130/130
f 100/100/100 125/125/125 130/130/130
f 122/122/122 131/131/131 129/129/129
f 100/100/100 130/130/130 132/132/132
f 133/133/133 132/132/132 131/131/131
f 122/122/122 133/133/133 131/131/131
f 133/133/133 100/100/100 132/132/132
f 111/111/111 133/133/133 122/122/122
f 97/97/97 100/100/100 133/133/133
f 80/80/80 97/97/97 133/133/133
g Cylinder.008_3
f 136/136/136 135/135/135 134/134/134
f 135/135/135 137/137/137 134/134/134
f 137/137/137 138/138/138 134/134/134
f 138/138/138 139/139/139 134/134/134
f 142/142/142 141/141/141 140/140/140
f 141/141/141 143/143/143 140/140/140
f 143/143/143 144/144/144 140/140/140
f 144/144/144 145/145/145 140/140/140
f 148/148/148 147/147/147 146/146/146
f 148/148/148 149/149/149 147/147/147
f 149/149/149 150/150/150 147/147/147
f 149/149/149 151/151/151 150/150/150
f 151/151/151 152/152/152 150/150/150
f 152/152/152 151/151/151 153/153/153
f 151/151/151 154/154/154 153/153/153
f 153/153/153 154/154/154 155/155/155
f 154/154/154 156/156/156 155/155/155
f 155/155/155 156/156/156 157/157/157
