g Fly Body.005
v 0.005252087 -0.002619721 0.001768625
v 0.0004169512 -0.003428477 0.005795142
v 0.004590759 -0.001689152 0.005839273
v 0.0003993261 -0.004751421 0.001418522
v -0.004164156 -0.002316872 0.005735064
v 0.004654896 -0.001851364 -0.002467067
v -0.005050238 -0.003491591 0.001104116
v 0.0003781569 -0.00363855 -0.002999715
v 0.002914171 0.0004555118 -0.00603599
v -0.004319166 -0.002490183 -0.003497134
v 0.0003527784 -0.0004914427 -0.006395265
v -0.002343091 0.0002575207 -0.006774447
v -0.001270984 0.0006548929 -0.001006182
v -0.003997603 5.986571E-05 0.001430895
v -0.003462428 0.0007929372 -0.001937408
v -0.001261162 0.0001223874 0.001102438
v -0.003997603 5.986571E-05 0.001430895
v -5.431652E-05 0.0001997185 0.002346997
v -0.003348955 0.0009198081 0.004820937
v 4.602671E-06 0.0001060677 0.004864917
v 0.003060001 0.001379325 0.004897223
v 0.003544119 0.000698111 0.001917343
v 0.001063068 0.0003374004 0.001252747
v 0.003106953 0.001260579 -0.001183357
v 0.001056777 0.0008314025 -0.0007386909
v -0.003462428 0.0007929372 -0.001937408
v -0.002015861 0.002804369 -0.004336536
v -4.237413E-05 0.002256097 -0.004058959
v -7.560372E-05 0.001195567 -0.001779325
v -0.001270984 0.0006548929 -0.001006182
v -7.560372E-05 0.001195567 -0.001779325
v -4.237413E-05 0.002256097 -0.004058959
v 0.00183267 0.002949307 -0.003795954
v 0.003106953 0.001260579 -0.001183357
v 0.001056777 0.0008314025 -0.0007386909
v -4.237413E-05 0.002256097 -0.004058959
v -0.002015861 0.002804369 -0.004336536
v 0.00183267 0.002949307 -0.003795954
v -0.003462428 0.0007929372 -0.001937408
v 0.003106953 0.001260579 -0.001183357
v -0.003997603 5.986571E-05 0.001430895
v 0.003544119 0.000698111 0.001917343
v -0.003348955 0.0009198081 0.004820937
v 0.003060001 0.001379325 0.004897223
v 4.602671E-06 0.0001060677 0.004864917
v -0.001006304 0.001283411 0.001073221
v 0.0005872643 0.001430831 0.001176278
v -0.0001788521 0.001336431 0.001926532
v -0.001013039 0.001648514 -0.000372518
v 0.0005829513 0.001769535 -0.0001891172
v 0.0005872643 0.001430831 0.001176278
v -0.0001788521 0.001336431 0.001926532
v -0.001006304 0.001283411 0.001073221
v 0.0005829513 0.001769535 -0.0001891172
v -0.001013039 0.001648514 -0.000372518
v -0.0001934469 0.002019218 -0.0009026101
v -0.0001934469 0.002019218 -0.0009026101
v -0.001013039 0.001648514 -0.000372518
v 0.0005829513 0.001769535 -0.0001891172
vt 0.3 0.5
vt 0.2 0.6666667
vt 0.3 0.6666667
vt 0.2 0.5
vt 0.09999999 0.6666667
vt 0.3 0.3333333
vt 0.09999999 0.5
vt 0.2 0.3333333
vt 0.3 0.1666667
vt 0.09999999 0.3333333
vt 0.2 0.1666667
vt 0.09999999 0.1666667
vt 0.1448627 0.3333333
vt 0.09999999 0.5
vt 0.09999999 0.3333333
vt 0.1524736 0.5
vt 0.09999999 0.5
vt 0.2 0.5964218
vt 0.09999999 0.6666667
vt 0.2 0.6666667
vt 0.3 0.6666667
vt 0.3 0.5
vt 0.2498196 0.5
vt 0.3 0.3333333
vt 0.2567078 0.3333333
vt 0.09999999 0.3333333
vt 0.09999999 0.1666667
vt 0.2 0.1666667
vt 0.2 0.2381097
vt 0.1448626 0.3333333
vt 0.2 0.2381097
vt 0.2 0.1666667
vt 0.3 0.1666667
vt 0.3 0.3333333
vt 0.2567077 0.3333333
vt 0.2 0.1666667
vt 0.09999999 0.1666667
vt 0.3 0.1666667
vt 0.09999999 0.3333333
vt 0.3 0.3333333
vt 0.09999999 0.5
vt 0.3 0.5
vt 0.09999999 0.6666667
vt 0.3 0.6666667
vt 0.2 0.6666667
vt 0.1524736 0.5
vt 0.2418725 0.4860078
vt 0.2 0.5964218
vt 0.1448627 0.3333333
vt 0.2567078 0.3333333
vt 0.2498196 0.5
vt 0.2 0.5964218
vt 0.1524735 0.5
vt 0.2567078 0.3333333
vt 0.1579385 0.3165146
vt 0.2 0.2381097
vt 0.2 0.2381097
vt 0.1448626 0.3333333
vt 0.2567077 0.3333333
vn 0.9213259 -0.3880753 0.02358108
vn 0.04145199 -0.5805191 0.8131909
vn 0.679823 -0.1350241 0.7208391
vn 0.08656872 -0.996008 0.02176826
vn -0.6237599 -0.2544238 0.7390481
vn 0.8853426 -0.2990823 -0.355975
vn -0.8411134 -0.5407509 0.010803
vn 0.1115906 -0.8845512 -0.4528983
vn 0.5672983 0.1515525 -0.8094471
vn -0.7730973 -0.437116 -0.4596196
vn 0.1401437 -0.1855858 -0.972583
vn -0.3904889 0.1059945 -0.9144853
vn -0.4148207 0.8964524 0.1558745
vn -0.6677806 0.7435954 0.03368918
vn -0.6768178 0.7307461 0.08903838
vn -0.420707 0.8784478 0.2265724
vn -0.6677806 0.7435954 0.03368918
vn -0.07888769 0.9699659 0.2300928
vn -0.3942829 0.7917236 0.466599
vn -0.06930745 0.7717217 0.6321725
vn 0.2591909 0.8461749 0.4656266
vn 0.5037785 0.8636928 0.01555991
vn 0.2451552 0.9366025 0.250349
vn 0.5101441 0.8468848 0.1501305
vn 0.263442 0.9488305 0.174123
vn -0.6768178 0.7307461 0.08903838
vn -0.3263853 0.9273517 -0.183007
vn -0.02107861 0.9847342 -0.1727834
vn -0.09867273 0.9809104 0.1675667
vn -0.4148207 0.8964524 0.1558745
vn -0.09867273 0.9809104 0.1675667
vn -0.02107861 0.9847342 -0.1727834
vn 0.2435834 0.9621927 -0.12187
vn 0.5101441 0.8468848 0.1501305
vn 0.263442 0.9488305 0.174123
vn -0.02107861 0.9847342 -0.1727834
vn -0.3263853 0.9273517 -0.183007
vn 0.2435834 0.9621927 -0.12187
vn -0.6768178 0.7307461 0.08903838
vn 0.5101441 0.8468848 0.1501305
vn -0.6677806 0.7435954 0.03368918
vn 0.5037785 0.8636928 0.01555991
vn -0.3942829 0.7917236 0.466599
vn 0.2591909 0.8461749 0.4656266
vn -0.06930745 0.7717217 0.6321725
vn -0.6885765 0.629599 0.359816
vn 0.5364146 0.7576359 0.3718163
vn -0.08345302 0.6916845 0.7173619
vn -0.6787223 0.732605 -0.05124444
vn 0.5314676 0.8470062 0.0110722
vn 0.5364146 0.7576359 0.3718163
vn -0.08345302 0.6916845 0.7173619
vn -0.6885765 0.629599 0.359816
vn 0.5314676 0.8470062 0.0110722
vn -0.6787223 0.732605 -0.05124444
vn -0.03628728 0.9509082 -0.3073384
vn -0.03628728 0.9509082 -0.3073384
vn -0.6787223 0.732605 -0.05124444
vn 0.5314676 0.8470062 0.0110722
g Fly Body.005_0
f 3/3/3 2/2/2 1/1/1
f 2/2/2 4/4/4 1/1/1
f 2/2/2 5/5/5 4/4/4
f 1/1/1 4/4/4 6/6/6
f 5/5/5 7/7/7 4/4/4
f 4/4/4 8/8/8 6/6/6
f 4/4/4 7/7/7 8/8/8
f 6/6/6 8/8/8 9/9/9
f 7/7/7 10/10/10 8/8/8
f 8/8/8 11/11/11 9/9/9
f 8/8/8 10/10/10 11/11/11
f 10/10/10 12/12/12 11/11/11
g Fly Body.005_1
f 15/15/15 14/14/14 13/13/13
f 14/14/14 16/16/16 13/13/13
f 18/18/18 16/16/16 17/17/17
f 17/17/17 19/19/19 18/18/18
f 19/19/19 20/20/20 18/18/18
f 18/18/18 20/20/20 21/21/21
f 18/18/18 21/21/21 22/22/22
f 22/22/22 23/23/23 18/18/18
f 23/23/23 22/22/22 24/24/24
f 25/25/25 23/23/23 24/24/24
f 28/28/28 27/27/27 26/26/26
f 26/26/26 29/29/29 28/28/28
f 26/26/26 30/30/30 29/29/29
f 33/33/33 32/32/32 31/31/31
f 31/31/31 34/34/34 33/33/33
f 31/31/31 35/35/35 34/34/34
f 36/36/36 11/11/11 12/12/12
f 37/37/37 36/36/36 12/12/12
f 36/36/36 38/38/38 11/11/11
f 37/37/37 12/12/12 10/10/10
f 38/38/38 9/9/9 11/11/11
f 39/39/39 37/37/37 10/10/10
f 38/38/38 40/40/40 9/9/9
f 39/39/39 10/10/10 7/7/7
f 40/40/40 6/6/6 9/9/9
f 41/41/41 39/39/39 7/7/7
f 40/40/40 42/42/42 6/6/6
f 41/41/41 7/7/7 5/5/5
f 42/42/42 1/1/1 6/6/6
f 43/43/43 41/41/41 5/5/5
f 42/42/42 44/44/44 1/1/1
f 43/43/43 5/5/5 2/2/2
f 44/44/44 3/3/3 1/1/1
f 45/45/45 43/43/43 2/2/2
f 45/45/45 2/2/2 3/3/3
f 44/44/44 45/45/45 3/3/3
g Fly Body.005_2
f 48/48/48 47/47/47 46/46/46
f 46/46/46 49/49/49 16/16/16
f 49/49/49 13/13/13 16/16/16
f 50/50/50 49/49/49 46/46/46
f 51/51/51 50/50/50 46/46/46
f 50/50/50 51/51/51 25/25/25
f 51/51/51 23/23/23 25/25/25
f 51/51/51 52/52/52 23/23/23
f 52/52/52 18/18/18 23/23/23
f 53/53/53 16/16/16 18/18/18
f 52/52/52 53/53/53 18/18/18
f 56/56/56 55/55/55 54/54/54
f 57/57/57 29/29/29 30/30/30
f 58/58/58 57/57/57 30/30/30
f 57/57/57 59/59/59 31/31/31
f 59/59/59 35/35/35 31/31/31
