g Frog Mesh.009
v -0.001222511 -5.906639E-05 -0.00672033
v -0.002858154 -0.003572876 -0.006480942
v 0.002564303 -0.003454318 -0.003007792
v 0.001406232 -5.906639E-05 -0.003996184
v 0.003936674 -0.001417433 -0.001410351
v 0.003916628 -5.906639E-05 -0.001457224
v 0.003962404 -0.002548726 -0.000750297
v 0.002063022 -0.005173392 -0.001969842
v 0.001497354 -0.007113265 -0.0008122528
v 0.003991718 -0.004409616 0.001031156
v -0.001222511 -5.906639E-05 -0.00672033
v 0.002564303 0.003336185 -0.003007792
v -0.002117285 0.003454744 -0.005644301
v 0.001406232 -5.906639E-05 -0.003996184
v 0.003936674 0.0012993 -0.001410351
v 0.003916628 -5.906639E-05 -0.001457224
v 0.003962404 0.002430593 -0.000750297
v 0.002063022 0.005055259 -0.001969842
v 0.003991718 0.004291484 0.001031156
v 0.003708813 0.004472028 0.0005441998
v 0.001497354 0.006995132 -0.0008122528
v 0.001195773 0.005602399 -0.003752267
v -0.0001543176 0.006970243 -0.00399431
v -0.0002963358 0.005175356 -0.004618469
v -0.0007756138 0.004778126 -0.003667798
v 0.0006375694 0.004811782 -0.00298892
v -0.0006456727 0.00642038 -0.003096717
v 0.00124819 0.00521214 -0.003876494
v 0.0005896097 0.005168854 -0.002875256
v 0.001195773 0.005602399 -0.003752267
v 0.000409652 0.00600939 -0.002469181
v 0.0009990894 0.006521055 -0.003308452
v 0.00121778 -0.005848722 -0.003780552
v -0.0007796424 -0.005401751 -0.005172038
v -0.0004437262 -0.007237506 -0.004077762
v -0.0009104704 -0.006579177 -0.003173071
v 0.000409652 -0.006127522 -0.002469181
v -0.001217821 -0.00489953 -0.004174294
v 0.0009990894 -0.006743874 -0.003308452
v 0.0006097454 -0.005308492 -0.002901136
v 0.00121778 -0.005848722 -0.003780552
v 0.0006858694 -0.004925321 -0.003073254
v 0.001300979 -0.005429938 -0.003968667
v 0.0008336985 -5.906639E-05 0.0007612865
v 0.0008336985 -5.906639E-05 0.0007612865
v 0.0008336985 -5.906639E-05 0.0007612865
v 0.0008336985 -5.906639E-05 0.0007612865
v 0.003968587 -5.906639E-05 0.002841364
v 0.0008336985 -5.906639E-05 0.0007612865
v 0.00396495 -0.001765228 0.002679423
v 0.0008336985 -5.906639E-05 0.0007612865
v 0.004021006 -0.003413044 0.00178815
v 0.00396495 0.001647096 0.002679423
v 0.003968587 -5.906639E-05 0.002841364
v 0.004021006 0.003294911 0.00178815
v 0.0008336985 -5.906639E-05 0.0007612865
v 0.003991718 0.004291484 0.001031156
v 0.0008336985 -5.906639E-05 0.0007612865
v 0.004021006 0.003294911 0.00178815
v 0.004021006 -0.003413044 0.00178815
v 0.0008336985 -5.906639E-05 0.0007612865
v 0.003991718 -0.004409616 0.001031156
v 0.004021006 -0.003413044 0.00178815
v 0.00110934 -0.005887823 0.001734451
v 0.00105642 -0.004407629 0.003298003
v 0.0004524738 -0.006508815 0.001135814
v 0.00110934 -0.005887823 0.001734451
v 0.004021006 -0.003413044 0.00178815
v 0.004021006 0.003294911 0.00178815
v 0.00105642 0.004289496 0.003298003
v 0.00110934 0.00576969 0.001734451
v 0.004021006 0.003294911 0.00178815
v 0.00110934 0.00576969 0.001734451
v 0.0004524738 0.006390682 0.001135814
v -0.002326531 -0.008353522 -0.002762838
v -0.003306257 -0.00874281 0.0006440139
v -0.0008890629 -0.007092793 0.0007086291
v -0.00267903 -0.00762875 0.001479737
v 0.0004524738 -0.006508815 0.001135814
v -0.004113129 -0.007203386 0.003291999
v -0.003846523 -0.007059682 0.003279196
v -0.004014297 -0.005192863 0.004387896
v -0.004818121 -0.004123415 0.00515653
v -0.002560109 -0.00361618 0.004948803
v -0.001336401 -0.00303955 0.005003917
v -0.0003955466 -0.003350091 0.004551549
v -0.001512028 -5.906639E-05 0.005631413
v -0.005047587 -5.906639E-05 0.005395468
v -0.0003955466 -0.003350091 0.004551549
v 0.0003851747 -0.003730272 0.00374408
v 0.00105642 -0.004407629 0.003298003
v -0.003306257 0.008624678 0.0006440139
v -0.002326531 0.008235389 -0.002762838
v -0.0008890629 0.006974661 0.0007086291
v -0.00267903 0.007510616 0.001479737
v 0.0004524738 0.006390682 0.001135814
v -0.004113129 0.007085253 0.003291999
v -0.003846523 0.006941549 0.003279196
v -0.004014297 0.005074731 0.004387896
v -0.004818121 0.004005282 0.00515653
v -0.002560109 0.003498047 0.004948803
v -0.001336401 0.002921417 0.005003917
v -0.0003955466 0.003231958 0.004551549
v -0.001512028 -5.906639E-05 0.005631413
v -0.005047587 -5.906639E-05 0.005395468
v -0.0003955466 0.003231958 0.004551549
v 0.0003851747 0.003612139 0.00374408
v 0.00105642 0.004289496 0.003298003
v 0.00105642 -0.004407629 0.003298003
v -0.002038657 -0.004726321 0.001336072
v 0.0003851747 -0.003730272 0.00374408
v -0.002038657 -0.004726321 0.001336072
v -0.0003955466 -0.003350091 0.004551549
v 0.00110934 -0.005887823 0.001734451
v -0.002038657 -0.004726321 0.001336072
v 0.00105642 -0.004407629 0.003298003
v -0.0003955466 -0.003350091 0.004551549
v -0.002038657 -0.004726321 0.001336072
v -0.002560109 -0.00361618 0.004948803
v -0.002038657 -0.004726321 0.001336072
v -0.004014297 -0.005192863 0.004387896
v -0.002038657 -0.004726321 0.001336072
v -0.003846523 -0.007059682 0.003279196
v -0.002038657 -0.004726321 0.001336072
v -0.00267903 -0.00762875 0.001479737
v -0.002038657 -0.004726321 0.001336072
v -0.0008890629 -0.007092793 0.0007086291
v -0.002038657 -0.004726321 0.001336072
v 0.0004524738 -0.006508815 0.001135814
v -0.002038657 -0.004726321 0.001336072
v 0.00110934 -0.005887823 0.001734451
v 0.00105642 0.004289496 0.003298003
v -0.001556943 0.005335044 0.002235491
v 0.00110934 0.00576969 0.001734451
v -0.002560109 0.003498047 0.004948803
v -0.001556943 0.005335044 0.002235491
v -0.0003955466 0.003231958 0.004551549
v -0.004014297 0.005074731 0.004387896
v -0.001556943 0.005335044 0.002235491
v -0.003846523 0.006941549 0.003279196
v -0.001556943 0.005335044 0.002235491
v -0.00267903 0.007510616 0.001479737
v -0.001556943 0.005335044 0.002235491
v -0.0008890629 0.006974661 0.0007086291
v -0.001556943 0.005335044 0.002235491
v 0.0004524738 0.006390682 0.001135814
v -0.001556943 0.005335044 0.002235491
v 0.00110934 0.00576969 0.001734451
v -0.001556943 0.005335044 0.002235491
v -0.0003955466 0.003231958 0.004551549
v -0.001556943 0.005335044 0.002235491
v 0.0003851747 0.003612139 0.00374408
v -0.001556943 0.005335044 0.002235491
v 0.00105642 0.004289496 0.003298003
vt 0.5 0.6250001
vt 0.4166667 0.6250001
vt 0.4166667 0.7500001
vt 0.5 0.7500001
vt 0.4166667 0.875
vt 0.5 0.875
vt 0.3775144 0.875
vt 0.3775144 0.7500001
vt 0.3333333 0.7500001
vt 0.3462944 0.875
vt 0.5 0.6250001
vt 0.4166667 0.7500001
vt 0.4166667 0.6250001
vt 0.5 0.7500001
vt 0.4166667 0.875
vt 0.5 0.875
vt 0.3775144 0.875
vt 0.3775144 0.7500001
vt 0.3462944 0.875
vt 0.3333333 0.8695774
vt 0.3333333 0.7500001
vt 0.3796885 0.7064056
vt 0.3625758 0.669268
vt 0.387867 0.6692681
vt 0.387867 0.6692681
vt 0.3839291 0.7097471
vt 0.3625758 0.669268
vt 0.3839291 0.7097471
vt 0.377021 0.7097471
vt 0.377021 0.7097471
vt 0.3670032 0.700352
vt 0.3670032 0.700352
vt 0.3788184 0.7110984
vt 0.3882828 0.6663616
vt 0.3614174 0.6663616
vt 0.3614174 0.6663616
vt 0.3670032 0.7003519
vt 0.3882828 0.6663616
vt 0.3670032 0.7003519
vt 0.3758889 0.7163717
vt 0.3758889 0.7163717
vt 0.3838907 0.7163717
vt 0.3838907 0.7163717
vt 0.3462944 0.875
vt 0.3775144 0.875
vt 0.4166667 0.875
vt 0.5 0.875
vt 2.980232E-08 0.875
vt 2.980232E-08 0.875
vt 0.08333334 0.875
vt 0.08333334 0.875
vt 0.1666667 0.875
vt 0.08333334 0.875
vt 2.980232E-08 0.875
vt 0.1666667 0.875
vt 0.1666667 0.875
vt 0.320113 0.875
vt 0.320113 0.875
vt 0.25 0.875
vt 0.25 0.875
vt 0.25 0.875
vt 0.320113 0.875
vt 0.1666667 0.875
vt 0.25 0.788612
vt 0.1732845 0.807989
vt 0.2624325 0.7500001
vt 0.2613502 0.783039
vt 0.25 0.875
vt 0.25 0.875
vt 0.1732845 0.807989
vt 0.25 0.788612
vt 0.25 0.875
vt 0.2613502 0.783039
vt 0.2624325 0.7500001
vt 0.3333333 0.6250001
vt 0.25 0.6250001
vt 0.25 0.6988153
vt 0.2267326 0.6593272
vt 0.2624325 0.7500001
vt 0.1666667 0.6250001
vt 0.1666667 0.6350413
vt 0.1178812 0.6435471
vt 0.08333334 0.6250001
vt 0.08896747 0.7044586
vt 0.08333331 0.7500001
vt 0.09870064 0.7500001
vt 0 0.7500001
vt 2.980232E-08 0.625
vt 0.1057471 0.777813
vt 0.1371497 0.7959835
vt 0.1666667 0.8066999
vt 0.25 0.6250001
vt 0.3333333 0.6250001
vt 0.25 0.6988153
vt 0.2267326 0.6593272
vt 0.2624325 0.7500001
vt 0.1666667 0.6250001
vt 0.1666667 0.6350413
vt 0.1178812 0.6435471
vt 0.08333334 0.6250001
vt 0.08896747 0.7044586
vt 0.08333331 0.7500001
vt 0.09870064 0.7500001
vt 0 0.7500001
vt 2.980232E-08 0.625
vt 0.1057471 0.777813
vt 0.1371497 0.7959835
vt 0.1666667 0.8066999
vt 0.1666667 0.8066999
vt 0.1666667 0.8066999
vt 0.1371497 0.7959835
vt 0.1371497 0.7959835
vt 0.1057471 0.777813
vt 0.25 0.788612
vt 0.25 0.788612
vt 0.1732845 0.807989
vt 0.09870064 0.7500001
vt 0.09870064 0.7500001
vt 0.08896747 0.7044586
vt 0.08896747 0.7044586
vt 0.1178812 0.6435471
vt 0.1178812 0.6435471
vt 0.1666667 0.6350413
vt 0.1666667 0.6350413
vt 0.2267326 0.6593272
vt 0.2267326 0.6593272
vt 0.25 0.6988153
vt 0.25 0.6988153
vt 0.2624325 0.7500001
vt 0.2624325 0.7500001
vt 0.2613502 0.783039
vt 0.1732845 0.807989
vt 0.1732845 0.807989
vt 0.25 0.788612
vt 0.08896747 0.7044586
vt 0.08896747 0.7044586
vt 0.09870064 0.7500001
vt 0.1178812 0.6435471
vt 0.1178812 0.6435471
vt 0.1666667 0.6350413
vt 0.1666667 0.6350413
vt 0.2267326 0.6593272
vt 0.2267326 0.6593272
vt 0.25 0.6988153
vt 0.25 0.6988153
vt 0.2624325 0.7500001
vt 0.2624325 0.7500001
vt 0.2613502 0.783039
vt 0.2613502 0.783039
vt 0.1057471 0.777813
vt 0.1057471 0.777813
vt 0.1371497 0.7959835
vt 0.1371497 0.7959835
vt 0.1666667 0.8066999
vn -0.1551113 0.05356497 -0.9864438
vn -0.4477875 -0.2556949 -0.8568001
vn 0.7026275 -0.3181305 -0.6364807
vn 0.6488995 0.01060493 -0.7608002
vn 0.9978558 0.06543895 -0.001225285
vn 0.9971317 0 0.07568599
vn 0.9953833 0.02123467 0.09360104
vn 0.6722894 -0.4846133 -0.5596222
vn 0.6059997 -0.7851946 -0.1274114
vn 0.9080979 -0.4015392 0.1188461
vn -0.1551113 0.05356497 -0.9864438
vn 0.6908861 0.322666 -0.6469646
vn -0.3997402 0.2914338 -0.869065
vn 0.6488995 0.01060493 -0.7608002
vn 0.9978558 -0.06543895 -0.001225272
vn 0.9971317 0 0.07568599
vn 0.9956011 -0.02414154 0.09053031
vn 0.6648653 0.4764809 -0.5752565
vn 0.9165999 0.3726811 0.1447526
vn 0.753292 0.6571025 0.02770052
vn 0.6072508 0.7841902 -0.1276406
vn 0.9509714 0.2064223 -0.2303111
vn -0.2096961 0.8758122 -0.434719
vn -0.2678894 -0.3176426 -0.9095815
vn 0.212733 0.2634705 -0.9409187
vn 0.7424055 0.1851208 -0.6438668
vn 0.1484905 0.799094 -0.5825799
vn 0.8635217 -0.3507154 -0.3623933
vn 0.9453256 0.3117595 -0.09573645
vn 0.9509714 0.2064223 -0.2303111
vn 0.6910987 0.6771818 -0.252601
vn 0.7456596 0.6475664 0.1570014
vn 0.9481406 -0.2668075 -0.1727522
vn -0.2907759 0.1973945 -0.9362077
vn -0.2115222 -0.9191932 -0.3321778
vn 0.1467986 -0.8486455 -0.508184
vn 0.6918329 -0.6809549 -0.2401409
vn 0.2644662 -0.3265967 -0.9074097
vn 0.7171996 -0.6752532 0.1722144
vn 0.9428375 -0.3181512 -0.09918282
vn 0.9481406 -0.2668075 -0.1727522
vn 0.7712079 -0.2018683 -0.6037281
vn 0.8865337 0.2834964 -0.3656332
vn 0.9999135 0 -0.01315507
vn 0.9999135 0 -0.01315507
vn 0.9999135 0 -0.01315507
vn 0.9999135 0 -0.01315507
vn 0.9937559 0 0.1115756
vn 0.9999135 0 -0.01315507
vn 0.9776716 0.004245207 0.2100956
vn 0.9999135 0 -0.01315507
vn 0.9923894 -0.09346739 0.08016997
vn 0.9776716 -0.004245171 0.2100956
vn 0.9937559 0 0.1115756
vn 0.9933101 0.0943032 0.06664767
vn 0.9999135 0 -0.01315507
vn 0.9165999 0.3726811 0.1447526
vn 0.9999135 0 -0.01315507
vn 0.9933101 0.0943032 0.06664767
vn 0.9923894 -0.09346739 0.08016997
vn 0.9999135 0 -0.01315507
vn 0.9080979 -0.4015392 0.1188461
vn 0.9923894 -0.09346739 0.08016997
vn 0.4830762 -0.6887358 0.5406297
vn 0.4948169 -0.4482903 0.7444408
vn 0.42173 -0.8219542 0.382799
vn 0.4830762 -0.6887358 0.5406297
vn 0.9923894 -0.09346739 0.08016997
vn 0.9933101 0.0943032 0.06664767
vn 0.4948168 0.4482903 0.7444409
vn 0.5089976 0.6936651 0.5096569
vn 0.9933101 0.0943032 0.06664767
vn 0.5089976 0.6936651 0.5096569
vn 0.4407972 0.8234775 0.3571871
vn -0.2734698 -0.8520936 -0.446263
vn -0.4835064 -0.8620799 0.1517889
vn 0.3720535 -0.888151 0.269748
vn 0.4667418 -0.6893089 0.5540805
vn 0.42173 -0.8219542 0.382799
vn -0.5081314 -0.715845 0.4789242
vn 0.3438622 -0.6044148 0.7186387
vn 0.1991184 -0.4853888 0.8513223
vn -0.692989 -0.2738741 0.6669028
vn 0.1991184 -0.4853888 0.8513223
vn 0.230153 -0.2922499 0.9282347
vn 0.4326672 -0.3508666 0.8304768
vn 0.2160787 0 0.9763759
vn -0.782208 0.05067192 0.6209533
vn 0.4326672 -0.3508666 0.8304768
vn 0.4700432 -0.3248769 0.8206793
vn 0.4948169 -0.4482903 0.7444408
vn -0.4835064 0.8620799 0.151789
vn -0.3109333 0.8146769 -0.4895119
vn 0.3720534 0.8881512 0.2697479
vn 0.4667416 0.6893089 0.5540808
vn 0.4407972 0.8234775 0.3571871
vn -0.5513079 0.6883662 0.4713932
vn 0.3438622 0.6044147 0.7186387
vn 0.1991185 0.4853888 0.8513222
vn -0.7065833 0.3062189 0.6379421
vn 0.1991185 0.4853888 0.8513222
vn 0.230153 0.2922499 0.9282347
vn 0.4326673 0.3508666 0.8304767
vn 0.2160787 0 0.9763759
vn -0.782208 0.05067192 0.6209533
vn 0.4326673 0.3508666 0.8304767
vn 0.4700432 0.324877 0.8206792
vn 0.4948168 0.4482903 0.7444409
vn -0.3256684 -0.7063472 0.6285011
vn 0.3189476 -0.5842728 0.7462558
vn -0.1691706 -0.8389211 0.5172935
vn 0.3189476 -0.5842728 0.7462558
vn 0.07733246 -0.9302676 0.3586391
vn -0.3162024 -0.6069035 0.7291669
vn 0.3189476 -0.5842728 0.7462558
vn -0.3256684 -0.7063472 0.6285011
vn 0.07733246 -0.9302676 0.3586391
vn 0.3189476 -0.5842728 0.7462558
vn 0.4127554 -0.8522323 0.3214548
vn 0.3189476 -0.5842728 0.7462558
vn 0.7621428 -0.4945717 0.4177766
vn 0.3189476 -0.5842728 0.7462558
vn 0.8231233 -0.1930093 0.5340556
vn 0.3189476 -0.5842728 0.7462558
vn 0.660943 -0.1090753 0.7424667
vn 0.3189476 -0.5842728 0.7462558
vn 0.1101733 -0.2043726 0.9726735
vn 0.3189476 -0.5842728 0.7462558
vn -0.2368696 -0.4289716 0.8717088
vn 0.3189476 -0.5842728 0.7462558
vn -0.3162024 -0.6069035 0.7291669
vn -0.04122749 0.6596071 0.750479
vn 0.3143918 0.6399711 0.7011383
vn 0.0145343 0.7157268 0.6982291
vn 0.3366401 0.7172716 0.6100777
vn 0.3143918 0.6399711 0.7011383
vn 0.2170969 0.7743811 0.5943088
vn 0.5276979 0.5269894 0.6661959
vn 0.3143918 0.6399711 0.7011383
vn 0.6092376 0.4394333 0.6600969
vn 0.3143918 0.6399711 0.7011383
vn 0.5608329 0.5145706 0.6486012
vn 0.3143918 0.6399711 0.7011383
vn 0.2566863 0.6005967 0.7572291
vn 0.3143918 0.6399711 0.7011383
vn 0.03382423 0.689396 0.7235945
vn 0.3143918 0.6399711 0.7011383
vn 0.0145343 0.7157268 0.6982291
vn 0.3143918 0.6399711 0.7011383
vn 0.2170969 0.7743811 0.5943088
vn 0.3143918 0.6399711 0.7011383
vn 0.09042817 0.7118145 0.6965221
vn 0.3143918 0.6399711 0.7011383
vn -0.04122749 0.6596071 0.750479
g Frog Mesh.009_0
f 3/3/3 2/2/2 1/1/1
f 4/4/4 3/3/3 1/1/1
f 5/5/5 3/3/3 4/4/4
f 6/6/6 5/5/5 4/4/4
f 5/5/5 7/7/7 3/3/3
f 7/7/7 8/8/8 3/3/3
f 9/9/9 8/8/8 7/7/7
f 10/10/10 9/9/9 7/7/7
f 13/13/13 12/12/12 11/11/11
f 12/12/12 14/14/14 11/11/11
f 12/12/12 15/15/15 14/14/14
f 15/15/15 16/16/16 14/14/14
f 17/17/17 15/15/15 12/12/12
f 18/18/18 17/17/17 12/12/12
f 19/19/19 17/17/17 18/18/18
f 18/18/18 20/20/20 19/19/19
f 18/18/18 21/21/21 20/20/20
f 24/24/24 23/23/23 22/22/22
f 23/23/23 24/24/24 25/25/25
f 25/25/25 24/24/24 26/26/26
f 27/27/27 23/23/23 25/25/25
f 24/24/24 28/28/28 26/26/26
f 26/26/26 28/28/28 29/29/29
f 28/28/28 24/24/24 30/30/30
f 28/28/28 30/30/30 29/29/29
f 29/29/29 30/30/30 31/31/31
f 32/32/32 23/23/23 27/27/27
f 31/31/31 32/32/32 27/27/27
f 30/30/30 32/32/32 31/31/31
f 32/32/32 30/30/30 23/23/23
f 35/35/35 34/34/34 33/33/33
f 34/34/34 35/35/35 36/36/36
f 36/36/36 35/35/35 37/37/37
f 38/38/38 34/34/34 36/36/36
f 35/35/35 39/39/39 37/37/37
f 37/37/37 39/39/39 40/40/40
f 41/41/41 39/39/39 35/35/35
f 39/39/39 41/41/41 40/40/40
f 40/40/40 41/41/41 42/42/42
f 34/34/34 43/43/43 41/41/41
f 43/43/43 34/34/34 38/38/38
f 41/41/41 43/43/43 42/42/42
f 42/42/42 43/43/43 38/38/38
g Frog Mesh.009_1
f 7/7/7 44/44/44 10/10/10
f 5/5/5 45/45/45 7/7/7
f 19/19/19 45/45/45 17/17/17
f 6/6/6 46/46/46 5/5/5
f 17/17/17 46/46/46 15/15/15
f 15/15/15 47/47/47 16/16/16
f 50/50/50 49/49/49 48/48/48
f 52/52/52 51/51/51 50/50/50
f 54/54/54 51/51/51 53/53/53
f 53/53/53 56/56/56 55/55/55
f 59/59/59 58/58/58 57/57/57
f 62/62/62 61/61/61 60/60/60
g Frog Mesh.009_2
f 65/65/65 64/64/64 63/63/63
f 68/68/68 67/67/67 66/66/66
f 71/71/71 70/70/70 69/69/69
f 74/74/74 73/73/73 72/72/72
f 76/76/76 75/75/75 9/9/9
f 9/9/9 77/77/77 76/76/76
f 76/76/76 77/77/77 78/78/78
f 9/9/9 79/79/79 77/77/77
f 79/79/79 9/9/9 62/62/62
f 62/62/62 60/60/60 79/79/79
f 78/78/78 80/80/80 76/76/76
f 78/78/78 81/81/81 80/80/80
f 81/81/81 82/82/82 80/80/80
f 83/83/83 80/80/80 82/82/82
f 83/83/83 82/82/82 84/84/84
f 85/85/85 83/83/83 84/84/84
f 84/84/84 86/86/86 85/85/85
f 85/85/85 87/87/87 83/83/83
f 87/87/87 88/88/88 83/83/83
f 48/48/48 87/87/87 85/85/85
f 50/50/50 48/48/48 85/85/85
f 50/50/50 85/85/85 89/89/89
f 50/50/50 89/89/89 90/90/90
f 50/50/50 90/90/90 91/91/91
f 91/91/91 52/52/52 50/50/50
f 21/21/21 93/93/93 92/92/92
f 92/92/92 94/94/94 21/21/21
f 95/95/95 94/94/94 92/92/92
f 94/94/94 96/96/96 21/21/21
f 20/20/20 21/21/21 96/96/96
f 96/96/96 57/57/57 20/20/20
f 96/96/96 59/59/59 57/57/57
f 92/92/92 97/97/97 95/95/95
f 97/97/97 98/98/98 95/95/95
f 99/99/99 98/98/98 97/97/97
f 99/99/99 97/97/97 100/100/100
f 101/101/101 99/99/99 100/100/100
f 101/101/101 100/100/100 102/102/102
f 102/102/102 103/103/103 101/101/101
f 104/104/104 102/102/102 100/100/100
f 105/105/105 104/104/104 100/100/100
f 104/104/104 54/54/54 102/102/102
f 54/54/54 53/53/53 102/102/102
f 106/106/106 102/102/102 53/53/53
f 107/107/107 106/106/106 53/53/53
f 108/108/108 107/107/107 53/53/53
f 53/53/53 55/55/55 108/108/108
g Frog Mesh.009_3
f 111/111/111 110/110/110 109/109/109
f 113/113/113 112/112/112 111/111/111
f 116/116/116 115/115/115 114/114/114
f 119/119/119 118/118/118 117/117/117
f 121/121/121 120/120/120 119/119/119
f 123/123/123 122/122/122 121/121/121
f 125/125/125 124/124/124 123/123/123
f 127/127/127 126/126/126 125/125/125
f 129/129/129 128/128/128 127/127/127
f 131/131/131 130/130/130 129/129/129
f 134/134/134 133/133/133 132/132/132
f 137/137/137 136/136/136 135/135/135
f 135/135/135 139/139/139 138/138/138
f 138/138/138 141/141/141 140/140/140
f 140/140/140 143/143/143 142/142/142
f 142/142/142 145/145/145 144/144/144
f 144/144/144 147/147/147 146/146/146
f 146/146/146 149/149/149 148/148/148
f 152/152/152 151/151/151 150/150/150
f 154/154/154 153/153/153 152/152/152
f 76/76/76 80/80/80 75/75/75
f 2/2/2 75/75/75 80/80/80
f 83/83/83 2/2/2 80/80/80
f 1/1/1 2/2/2 83/83/83
f 88/88/88 1/1/1 83/83/83
f 75/75/75 2/2/2 38/38/38
f 38/38/38 2/2/2 42/42/42
f 36/36/36 75/75/75 38/38/38
f 2/2/2 3/3/3 42/42/42
f 9/9/9 75/75/75 36/36/36
f 42/42/42 3/3/3 40/40/40
f 37/37/37 9/9/9 36/36/36
f 3/3/3 8/8/8 40/40/40
f 8/8/8 9/9/9 37/37/37
f 40/40/40 8/8/8 37/37/37
f 11/11/11 105/105/105 100/100/100
f 13/13/13 11/11/11 100/100/100
f 93/93/93 13/13/13 100/100/100
f 97/97/97 93/93/93 100/100/100
f 97/97/97 92/92/92 93/93/93
f 13/13/13 93/93/93 27/27/27
f 27/27/27 93/93/93 31/31/31
f 25/25/25 13/13/13 27/27/27
f 93/93/93 21/21/21 31/31/31
f 12/12/12 13/13/13 25/25/25
f 31/31/31 21/21/21 29/29/29
f 26/26/26 12/12/12 25/25/25
f 21/21/21 18/18/18 29/29/29
f 18/18/18 12/12/12 26/26/26
f 29/29/29 18/18/18 26/26/26
