g Frog Mesh.014
v 0.002511976 -0.0003961354 0.001409156
v 0.001104415 0.002842454 0.0002060717
v 0.00211216 0.0003877687 -2.503991E-06
v 0.002116115 0.00169513 0.003108179
v -0.002037491 0.002655836 0.0003240979
v -0.003511345 0.001458428 0.00267675
v -0.003711834 -0.0008332836 -0.0002321839
v -0.001891872 0.00199775 -0.001245528
v 0.001295701 0.002725251 -0.0008232349
v 0.001886381 -0.002390496 -0.0009537011
v 0.00211216 0.0003877687 -2.503991E-06
v 0.001526254 -0.001991237 -0.001004611
v -0.002226809 -0.003173159 3.017783E-05
v -0.001813936 -0.002226196 -0.0008243805
v -0.00337595 -0.002464033 0.001752757
v -0.003711834 -0.0008332836 -0.0002321839
v -0.003511345 0.001458428 0.00267675
v 0.001579374 0.000606786 -0.001013502
v 0.001295701 0.002725251 -0.0008232349
v 0.001104415 0.002842454 0.0002060717
v 0.001183535 -0.001116546 -0.001440857
v -0.0009665253 -0.00156528 -0.001796845
v -0.002293851 -0.0003852141 -0.001608253
v -0.002037491 0.002655836 0.0003240979
v -0.001891872 0.00199775 -0.001245528
v 0.001295701 0.002725251 -0.0008232349
v -0.001891872 0.00199775 -0.001245528
v -0.001884038 0.002157553 -0.002387777
v 0.0005856007 0.002436782 -0.002387777
v -0.001891872 0.00199775 -0.001245528
v -0.002293851 -0.0003852141 -0.001608253
v -0.001876696 0.001060053 -0.002387777
v -0.001884038 0.002157553 -0.002387777
v 0.0005856007 0.002436782 -0.002387777
v -0.0009485933 0.0001892346 -0.002387777
v -0.0009665253 -0.00156528 -0.001796845
v 0.0008235466 0.001219783 -0.002387777
v 0.0004205221 0.0002290118 -0.002362414
v 0.001183535 -0.001116546 -0.001440857
v 0.001773015 0.001835292 -0.002387777
v 0.002417469 0.001220401 -0.002387777
v 0.002593308 0.0007682627 -0.001904305
v 0.001904834 0.001349103 -0.001904359
v 0.001579374 0.000606786 -0.001013502
v 0.002058199 0.002782397 -0.002387777
v 0.001295701 0.002725251 -0.0008232349
v 0.002168053 0.002613415 -0.001825225
v -0.0009365165 -0.002460143 0.00263877
v 0.001001768 -0.001247053 0.003103422
v 0.0007955232 -0.002154849 0.002242606
v -0.001270708 -0.002386585 0.003361257
v -0.001358874 -0.0006055635 0.003317724
v 0.0008883938 -0.0006507152 0.003810987
v -0.001796291 6.411075E-05 0.001943975
v -0.001697653 -0.001928448 0.001992679
v 0.000717893 1.359642E-05 0.002495825
v -0.0009365165 -0.002460143 0.00263877
v 0.0008447328 -0.0006535703 0.001704219
v -0.001323769 -0.002010744 0.00118438
v 0.001001768 -0.001247053 0.003103422
v 0.0007955232 -0.002154849 0.002242606
v 0.0006139919 -0.001669188 0.0007411617
v 0.002116115 0.00169513 0.003108179
v 0.002511976 -0.0003961354 0.001409156
v 0.0008447328 -0.0006535703 0.001704219
v -0.001323769 -0.002010744 0.00118438
v 0.001886381 -0.002390496 -0.0009537011
v -0.002226809 -0.003173159 3.017783E-05
v 0.0006139919 -0.001669188 0.0007411617
vt 0.3775143 0.375
vt 0.3333333 0.375
vt 0.3775144 0.375
vt 0.3333333 0.375
vt 0.3333333 0.25
vt 0.3333333 0.25
vt 0.3775144 0.25
vt 0.3333333 0.25
vt 0.3333333 0.3750001
vt 0.4166667 0.375
vt 0.3775144 0.375
vt 0.4166667 0.375
vt 0.4166667 0.25
vt 0.4166667 0.25
vt 0.3775144 0.25
vt 0.3775144 0.25
vt 0.3333333 0.25
vt 0.3775144 0.3750001
vt 0.3333333 0.3750001
vt 0.3333333 0.375
vt 0.4166667 0.375
vt 0.4166667 0.25
vt 0.3775143 0.25
vt 0.3333333 0.25
vt 0.3333333 0.25
vt 0.3333333 0.3750001
vt 0.3333333 0.25
vt 0.3333333 0.25
vt 0.3333333 0.375
vt 0.3333333 0.25
vt 0.3775143 0.25
vt 0.3775144 0.25
vt 0.3333333 0.25
vt 0.3333333 0.375
vt 0.4166667 0.25
vt 0.4166667 0.25
vt 0.3775144 0.375
vt 0.4166667 0.375
vt 0.4166667 0.375
vt 0.3775143 0.375
vt 0.4166667 0.375
vt 0.4166667 0.375
vt 0.3775143 0.375
vt 0.3775144 0.3750001
vt 0.3333333 0.375
vt 0.3333333 0.3750001
vt 0.3333333 0.3750001
vt 0.3864557 0.2907647
vt 0.3722192 0.3403278
vt 0.391969 0.3349438
vt 0.3764012 0.2852341
vt 0.3543775 0.286315
vt 0.3583174 0.3392376
vt 0.3543775 0.286315
vt 0.3764012 0.2852341
vt 0.3583174 0.3392376
vt 0.3864557 0.2907647
vt 0.3722192 0.3403278
vt 0.3864557 0.2907647
vt 0.3722192 0.3403278
vt 0.391969 0.3349438
vt 0.391969 0.3349438
vt 0.3333333 0.375
vt 0.3775143 0.375
vt 0.3722192 0.3403278
vt 0.3864557 0.2907647
vt 0.4166667 0.375
vt 0.4166667 0.25
vt 0.391969 0.3349438
vn 0.9353145 0.2381565 -0.2616642
vn 0.4399579 0.8973224 -0.03534757
vn 0.9339136 0.1919961 -0.3015676
vn 0.5921546 0.3055777 0.7456375
vn -0.4484262 0.8895397 -0.08736639
vn -0.6561016 0.4014601 0.6390309
vn -0.9136801 -0.07828158 -0.3988242
vn -0.6571493 0.7004755 -0.2783685
vn 0.5045092 0.8633667 -0.008277898
vn 0.596139 -0.2674163 -0.7570382
vn 0.9339136 0.1919961 -0.3015676
vn 0.5113612 -0.3743328 -0.7735533
vn -0.5352157 -0.5587813 -0.6334885
vn -0.3644221 -0.5641739 -0.7408807
vn -0.522549 -0.6980587 0.4895472
vn -0.9136801 -0.07828158 -0.3988242
vn -0.6561016 0.4014601 0.6390309
vn 0.9834953 0.05644763 0.1719029
vn 0.5045092 0.8633667 -0.008277898
vn 0.4399579 0.8973224 -0.03534757
vn 0.5423911 -0.4223284 -0.726258
vn -0.1115823 -0.5372216 -0.8360277
vn -0.685993 -0.1411532 -0.7137852
vn -0.4484262 0.8895397 -0.08736639
vn -0.6571493 0.7004755 -0.2783685
vn 0.5045092 0.8633667 -0.008277898
vn -0.6571493 0.7004755 -0.2783685
vn -0.5542479 0.572378 -0.6043116
vn -0.1037283 0.6823303 -0.7236477
vn -0.6571493 0.7004755 -0.2783685
vn -0.685993 -0.1411532 -0.7137852
vn -0.6327581 -0.01338046 -0.7742339
vn -0.5542479 0.572378 -0.6043116
vn -0.1037283 0.6823303 -0.7236477
vn -0.09537161 -0.2354253 -0.9672017
vn -0.1115823 -0.5372216 -0.8360277
vn 0.001221619 -0.008460834 -0.9999635
vn 0.1277963 -0.2630447 -0.9562822
vn 0.5423911 -0.4223284 -0.726258
vn 0.4884294 0.01787529 -0.8724204
vn 0.7433818 0.3123339 -0.5914651
vn 0.9733543 -0.2250103 -0.04417803
vn 0.8494347 0.1893487 0.4925524
vn 0.9834953 0.05644763 0.1719029
vn 0.4543226 0.5960224 -0.6620787
vn 0.5045092 0.8633667 -0.008277898
vn 0.8417598 0.5367808 0.05750345
vn 0.3643067 -0.7780937 0.5117136
vn 0.1708036 -0.5152988 0.8398175
vn 0.3643067 -0.7780937 0.5117136
vn -0.3845007 -0.6576155 0.6478434
vn -0.5435249 0.3439973 0.7656674
vn 0.4341615 0.3807179 0.8164299
vn -0.2157277 -0.06340743 0.9743927
vn -0.4179376 -0.7313743 0.5389061
vn 0.4385193 -0.03713843 0.8979541
vn -0.2679583 -0.9383066 -0.2185846
vn 0.9945431 0.02353144 -0.1016383
vn -0.1025671 -0.9577657 -0.2686351
vn 0.9924979 0.1013326 -0.06840879
vn 0.7364918 -0.6124712 -0.2871565
vn 0.6192439 -0.7220832 -0.308436
vn 0.5921546 0.3055777 0.7456375
vn 0.2992884 -0.6780182 0.6713552
vn 0.2992176 -0.6785741 0.6708249
vn 0.2934874 -0.8130422 0.5028197
vn 0.2828494 -0.7655554 0.577859
vn 0.2935807 -0.8131954 0.5025173
vn 0.2828391 -0.7655882 0.5778207
g Frog Mesh.014_0
f 3/3/3 2/2/2 1/1/1
f 2/2/2 4/4/4 1/1/1
f 2/2/2 5/5/5 4/4/4
f 5/5/5 6/6/6 4/4/4
f 5/5/5 7/7/7 6/6/6
f 8/8/8 5/5/5 2/2/2
f 9/9/9 8/8/8 2/2/2
f 11/11/11 1/1/1 10/10/10
f 12/12/12 11/11/11 10/10/10
f 12/12/12 10/10/10 13/13/13
f 14/14/14 12/12/12 13/13/13
f 14/14/14 13/13/13 15/15/15
f 16/16/16 14/14/14 15/15/15
f 17/17/17 16/16/16 15/15/15
f 18/18/18 11/11/11 12/12/12
f 18/18/18 19/19/19 11/11/11
f 19/19/19 20/20/20 11/11/11
f 21/21/21 18/18/18 12/12/12
f 21/21/21 12/12/12 14/14/14
f 22/22/22 21/21/21 14/14/14
f 22/22/22 14/14/14 16/16/16
f 23/23/23 22/22/22 16/16/16
f 23/23/23 16/16/16 24/24/24
f 25/25/25 23/23/23 24/24/24
f 28/28/28 27/27/27 26/26/26
f 29/29/29 28/28/28 26/26/26
f 32/32/32 31/31/31 30/30/30
f 33/33/33 32/32/32 30/30/30
f 33/33/33 34/34/34 32/32/32
f 32/32/32 35/35/35 31/31/31
f 35/35/35 36/36/36 31/31/31
f 32/32/32 37/37/37 35/35/35
f 34/34/34 37/37/37 32/32/32
f 35/35/35 38/38/38 36/36/36
f 37/37/37 38/38/38 35/35/35
f 38/38/38 39/39/39 36/36/36
f 40/40/40 37/37/37 34/34/34
f 41/41/41 38/38/38 37/37/37
f 40/40/40 41/41/41 37/37/37
f 41/41/41 42/42/42 38/38/38
f 42/42/42 39/39/39 38/38/38
f 41/41/41 40/40/40 42/42/42
f 42/42/42 43/43/43 39/39/39
f 40/40/40 43/43/43 42/42/42
f 43/43/43 44/44/44 39/39/39
f 45/45/45 40/40/40 34/34/34
f 40/40/40 45/45/45 43/43/43
f 45/45/45 34/34/34 46/46/46
f 47/47/47 46/46/46 44/44/44
f 43/43/43 47/47/47 44/44/44
f 45/45/45 47/47/47 43/43/43
f 47/47/47 45/45/45 46/46/46
g Frog Mesh.014_1
f 50/50/50 49/49/49 48/48/48
f 49/49/49 51/51/51 48/48/48
f 51/51/51 49/49/49 52/52/52
f 49/49/49 53/53/53 52/52/52
f 51/51/51 52/52/52 54/54/54
f 55/55/55 51/51/51 54/54/54
f 54/54/54 52/52/52 56/56/56
f 52/52/52 53/53/53 56/56/56
f 57/57/57 51/51/51 55/55/55
f 56/56/56 53/53/53 58/58/58
f 59/59/59 57/57/57 55/55/55
f 53/53/53 60/60/60 58/58/58
f 61/61/61 57/57/57 59/59/59
f 58/58/58 60/60/60 62/62/62
f 62/62/62 61/61/61 59/59/59
f 60/60/60 61/61/61 62/62/62
g Frog Mesh.014_2
f 63/63/63 17/17/17 54/54/54
f 56/56/56 63/63/63 54/54/54
f 54/54/54 17/17/17 55/55/55
f 64/64/64 63/63/63 56/56/56
f 17/17/17 15/15/15 55/55/55
f 65/65/65 64/64/64 56/56/56
f 55/55/55 15/15/15 66/66/66
f 67/67/67 64/64/64 65/65/65
f 15/15/15 68/68/68 66/66/66
f 69/69/69 67/67/67 65/65/65
f 66/66/66 68/68/68 69/69/69
f 68/68/68 67/67/67 69/69/69
