g Frog Mesh.015
v -0.000642268 0.0005962336 0.001196419
v -0.001258035 0.0003643483 0.001345626
v -0.001300708 0.001253501 0.0005466247
v -0.002647331 0.001003742 -0.0003148571
v -0.001111901 0.00137278 0.0003636432
v -0.000642268 0.0005962336 0.001196419
v -0.0008635056 0.001681868 -0.0006215483
v -0.00257342 -0.0005363154 0.001069052
v -0.0004154509 -0.0003989267 0.001717485
v -0.000642268 0.0005962336 0.001196419
v -0.002678778 0.0009628749 -0.0003519714
v -0.002846551 -0.0009039437 0.0007567289
v -0.00111402 -0.001858346 0.001713135
v -0.001392364 -0.002480627 0.001317636
v 0.0008759683 -0.002187921 0.001240094
v 0.000772199 -0.002746716 0.0009203821
v -0.0001381379 -0.0004448533 0.001651566
v -0.000642268 0.0005962336 0.001196419
v 0.0008053535 -0.001100564 0.001553827
v 0.001326899 -0.0002143085 0.0008692595
v 0.001515706 -9.502947E-05 0.0006862783
v 0.0009951174 0.0008362436 0.0003016153
v 0.002230841 -0.00133198 -7.29692E-05
v 0.002224166 -0.001689178 -0.0003331643
v 0.00155292 -0.002366535 0.0001129127
v 0.000772199 -0.002746716 0.0009203821
v 0.0009951174 0.0008362436 0.0003016153
v 0.0006304496 0.001557398 -0.0004845819
v 0.001473032 0.0007941234 -0.0001127222
v 0.002156931 0.0002080786 -0.00145688
v 0.002230841 -0.00133198 -7.29692E-05
v 0.001515706 -9.502947E-05 0.0006862783
v 0.0009951174 0.0008362436 0.0003016153
v 0.002224166 -0.001689178 -0.0003331643
v 0.002277086 -0.000208984 -0.001896717
v 0.0006975323 0.001530107 -0.002100962
v 0.001620219 0.0004120081 -0.002495354
v 0.002277086 -0.000208984 -0.001896717
v 0.0002786827 0.0009959864 -0.002922538
v -0.001292458 0.001859683 -0.00162792
v -0.001511284 0.001531942 -0.00215143
v 0.0003531378 0.001603327 -0.0004186627
v 0.0009951174 0.0008362436 0.0003016153
v -0.001511284 0.001531942 -0.00215143
v -0.002678778 0.0009628749 -0.0003519714
v 0.001326899 -0.0002143085 0.0008692595
v 0.0009951174 0.0008362436 0.0003016153
v 0.001326899 -0.0002143085 0.0008692595
v 0.0003531378 0.001603327 -0.0004186627
v -0.0008635056 0.001681868 -0.0006215483
v 0.0009951174 0.0008362436 0.0003016153
v -0.001392364 -0.002480627 0.001317636
v 0.000772199 -0.002746716 0.0009203821
v -0.002678778 0.0009628749 -0.0003519714
v -0.002846551 -0.0009039437 0.0007567289
v 0.00155292 -0.002366535 0.0001129127
v -0.002678778 0.0009628749 -0.0003519714
v 0.000772199 -0.002746716 0.0009203821
v -0.001511284 0.001531942 -0.00215143
v 0.002224166 -0.001689178 -0.0003331643
v 0.0002786827 0.0009959864 -0.002922538
v 0.001620219 0.0004120081 -0.002495354
v 0.0002786827 0.0009959864 -0.002922538
v 0.002224166 -0.001689178 -0.0003331643
v 0.002277086 -0.000208984 -0.001896717
vt 0.5934257 0.08643989
vt 0.625 0.1666667
vt 0.5 0.1666667
vt 0.5 0.3333333
vt 0.469829 0.1666667
vt 0.5147627 0.04078122
vt 0.375 0.2535207
vt 0.625 0.3333333
vt 0.75 0.1666667
vt 0.653973 0.08534205
vt 0.1666667 0.6350413
vt 0.625 0.390435
vt 0.75 0.3333333
vt 0.75 0.4145156
vt 0.875 0.3333333
vt 0.8264897 0.4066536
vt 0.780171 0.1666667
vt 0.7341597 0.03813083
vt 0.875 0.2535207
vt 0.9698289 0.1666667
vt 1 0.1666667
vt 1.014763 0.04078115
vt 1 0.3333333
vt 0.9927151 0.3786371
vt 0.9354947 0.4133421
vt 0.875 0.417375
vt 0.1539729 0.08534221
vt 0.25 0.1666667
vt 0.125 0.1666667
vt 0.125 0.3333333
vt 0 0.3333333
vt 0 0.1666667
vt 0.09342591 0.08643994
vt 0 0.380185
vt 0.1034218 0.3983836
vt 0.25 0.3333333
vt 0.1584283 0.4157013
vt 0.125 0.4135038
vt 0.25 0.4654884
vt 0.375 0.3333333
vt 0.3646238 0.3958251
vt 0.280171 0.1666667
vt 0.2341598 0.03813109
vt 0.375 0.3925254
vt 0.5 0.3400752
vt 0.875 0.1666667
vt 0.8151464 0.007057143
vt 0.8620429 0.1321144
vt 0.3879571 0.1321144
vt 0.375 0.1666667
vt 0.4358588 0.004376511
vt 0.75 0.4145156
vt 0.8264897 0.4066536
vt 0.1666667 0.6350413
vt 0.625 0.390435
vt 0.9354947 0.4133421
vt 0.5 0.3400752
vt 0.8264897 0.4066536
vt 0.375 0.3925254
vt 0.9927151 0.3786371
vt 0.25 0.4654884
vt 0.1584283 0.4157013
vt 0.25 0.4654884
vt 0 0.380185
vt 0.125 0.4135038
vn 0.1464808 0.6238021 0.7677332
vn -0.2662582 0.4580362 0.8481211
vn -0.2333034 0.7881368 0.5695698
vn -0.6667917 0.6961212 0.2660905
vn -0.05023585 0.8953188 0.4425839
vn 0.1464808 0.6238021 0.7677332
vn -0.07673635 0.9778926 0.1945188
vn -0.6382425 0.1871858 0.7467315
vn 0.04439549 0.2026231 0.9782498
vn 0.1464808 0.6238021 0.7677332
vn -0.8267879 0.5472155 0.1302952
vn -0.752896 0.0002380141 0.6581395
vn -0.1785688 -0.2415933 0.953806
vn -0.2470126 -0.4232174 0.8717062
vn 0.4840568 -0.334485 0.8085844
vn 0.4556158 -0.5102593 0.7294173
vn 0.2682445 0.2309947 0.9352466
vn 0.1464808 0.6238021 0.7677332
vn 0.4527417 0.0420212 0.890651
vn 0.5651074 0.277619 0.7769049
vn 0.7167751 0.3174693 0.6208435
vn 0.3991147 0.6632239 0.6331206
vn 0.9156845 -0.02744635 0.4009599
vn 0.9148879 -0.2090128 0.3453892
vn 0.7510236 -0.4095405 0.5179191
vn 0.4556158 -0.5102593 0.7294173
vn 0.3991147 0.6632239 0.6331206
vn 0.3919809 0.8859364 0.2479266
vn 0.7168987 0.6156785 0.3271028
vn 0.867223 0.4958175 -0.04570867
vn 0.9156845 -0.02744635 0.4009599
vn 0.7167751 0.3174693 0.6208435
vn 0.3991147 0.6632239 0.6331206
vn 0.9148879 -0.2090128 0.3453892
vn 0.9031273 0.3897021 -0.1802593
vn 0.4147927 0.8674849 -0.2746218
vn 0.6468834 0.6420829 -0.4114261
vn 0.9031273 0.3897021 -0.1802593
vn 0.3127892 0.7980617 -0.5150346
vn -0.2353099 0.9577878 -0.1651422
vn -0.2839011 0.8577338 -0.4285943
vn 0.1717487 0.928745 0.3285346
vn 0.3991147 0.6632239 0.6331206
vn -0.2839011 0.8577338 -0.4285943
vn -0.8267879 0.5472155 0.1302952
vn 0.5651074 0.277619 0.7769049
vn 0.3991147 0.6632239 0.6331206
vn 0.5651074 0.277619 0.7769049
vn 0.1717487 0.928745 0.3285346
vn -0.07673635 0.9778926 0.1945188
vn 0.3991147 0.6632239 0.6331206
vn -0.2107954 -0.4891143 -0.8463643
vn -0.3833657 -0.6182635 -0.6861349
vn -0.3826104 -0.6177549 -0.6870139
vn -0.2107954 -0.4891143 -0.8463643
vn -0.386225 -0.6838461 -0.6190192
vn -0.3826104 -0.6177549 -0.6870139
vn -0.3833657 -0.6182635 -0.6861349
vn -0.3861508 -0.6838608 -0.6190491
vn -0.2445783 -0.707416 -0.6631321
vn -0.2382262 -0.7085623 -0.6642197
vn -0.08831961 -0.7265656 -0.6813971
vn -0.2382262 -0.7085623 -0.6642197
vn -0.2445783 -0.707416 -0.6631321
vn -0.08831961 -0.7265656 -0.6813971
g Frog Mesh.015_0
f 3/3/3 2/2/2 1/1/1
f 3/3/3 4/4/4 2/2/2
f 4/4/4 3/3/3 5/5/5
f 5/5/5 3/3/3 6/6/6
f 4/4/4 5/5/5 7/7/7
f 4/4/4 8/8/8 2/2/2
f 2/2/2 8/8/8 9/9/9
f 2/2/2 9/9/9 10/10/10
f 4/4/4 11/11/11 8/8/8
f 11/11/11 12/12/12 8/8/8
f 8/8/8 12/12/12 13/13/13
f 8/8/8 13/13/13 9/9/9
f 12/12/12 14/14/14 13/13/13
f 13/13/13 14/14/14 15/15/15
f 14/14/14 16/16/16 15/15/15
f 17/17/17 9/9/9 13/13/13
f 9/9/9 17/17/17 18/18/18
f 19/19/19 17/17/17 13/13/13
f 13/13/13 15/15/15 19/19/19
f 20/20/20 19/19/19 15/15/15
f 21/21/21 20/20/20 15/15/15
f 20/20/20 21/21/21 22/22/22
f 15/15/15 23/23/23 21/21/21
f 24/24/24 23/23/23 15/15/15
f 25/25/25 24/24/24 15/15/15
f 15/15/15 26/26/26 25/25/25
f 29/29/29 28/28/28 27/27/27
f 29/29/29 30/30/30 28/28/28
f 31/31/31 30/30/30 29/29/29
f 32/32/32 31/31/31 29/29/29
f 32/32/32 29/29/29 33/33/33
f 31/31/31 34/34/34 30/30/30
f 34/34/34 35/35/35 30/30/30
f 30/30/30 36/36/36 28/28/28
f 37/37/37 36/36/36 30/30/30
f 30/30/30 38/38/38 37/37/37
f 37/37/37 39/39/39 36/36/36
f 36/36/36 39/39/39 40/40/40
f 28/28/28 36/36/36 40/40/40
f 39/39/39 41/41/41 40/40/40
f 40/40/40 7/7/7 28/28/28
f 7/7/7 42/42/42 28/28/28
f 28/28/28 42/42/42 43/43/43
f 7/7/7 40/40/40 4/4/4
f 40/40/40 44/44/44 4/4/4
f 44/44/44 45/45/45 4/4/4
g Frog Mesh.015_1
f 19/19/19 46/46/46 17/17/17
f 47/47/47 18/18/18 17/17/17
f 48/48/48 47/47/47 17/17/17
f 50/50/50 5/5/5 49/49/49
f 5/5/5 6/6/6 49/49/49
f 6/6/6 51/51/51 49/49/49
g Frog Mesh.015_2
f 54/54/54 53/53/53 52/52/52
f 55/55/55 54/54/54 52/52/52
f 58/58/58 57/57/57 56/56/56
f 57/57/57 59/59/59 56/56/56
f 60/60/60 56/56/56 59/59/59
f 61/61/61 60/60/60 59/59/59
f 64/64/64 63/63/63 62/62/62
f 65/65/65 64/64/64 62/62/62
