g Frog Mesh.013
v 0.002519165 0.0004186398 0.001460496
v 0.002119348 -0.0003652644 4.883587E-05
v 0.001111604 -0.00281995 0.0002574116
v 0.002123304 -0.001672626 0.003159519
v -0.002030303 -0.002633331 0.0003754377
v -0.003504156 -0.001435924 0.00272809
v -0.003704645 0.0008557879 -0.0001808441
v -0.001884684 -0.001975246 -0.001194189
v 0.00130289 -0.002702747 -0.0007718951
v 0.001893569 0.002413 -0.0009023612
v 0.002119348 -0.0003652644 4.883587E-05
v 0.001533443 0.002013741 -0.0009532713
v -0.00221962 0.003195664 8.15177E-05
v -0.001806748 0.0022487 -0.0007730406
v -0.003368762 0.002486538 0.001804097
v -0.003704645 0.0008557879 -0.0001808441
v -0.003504156 -0.001435924 0.00272809
v 0.001586563 -0.0005842817 -0.0009621626
v 0.00130289 -0.002702747 -0.0007718951
v 0.001111604 -0.00281995 0.0002574116
v 0.001190724 0.00113905 -0.001389517
v -0.0009593368 0.001587785 -0.001745505
v -0.002286663 0.0004077184 -0.001556913
v -0.002030303 -0.002633331 0.0003754377
v -0.001884684 -0.001975246 -0.001194189
v 0.00130289 -0.002702747 -0.0007718951
v 0.0005927893 -0.002414278 -0.002336437
v -0.00187685 -0.002135048 -0.002336437
v -0.001884684 -0.001975246 -0.001194189
v -0.001884684 -0.001975246 -0.001194189
v -0.00187685 -0.002135048 -0.002336437
v -0.001869507 -0.001037549 -0.002336437
v -0.002286663 0.0004077184 -0.001556913
v 0.0005927893 -0.002414278 -0.002336437
v -0.0009414047 -0.0001667303 -0.002336437
v -0.0009593368 0.001587785 -0.001745505
v 0.0008307353 -0.001197279 -0.002336437
v 0.0004277107 -0.0002065074 -0.002311075
v 0.001190724 0.00113905 -0.001389517
v 0.001780203 -0.001812788 -0.002336437
v 0.002424658 -0.001197897 -0.002336437
v 0.002600496 -0.0007457584 -0.001852965
v 0.001912023 -0.001326599 -0.00185302
v 0.001586563 -0.0005842817 -0.0009621626
v 0.002065388 -0.002759893 -0.002336437
v 0.00130289 -0.002702747 -0.0007718951
v 0.002175242 -0.00259091 -0.001773885
v 0.0008027118 0.002249169 0.002293946
v -0.001254067 0.002463075 0.003358914
v -0.0009293279 0.002554464 0.00269011
v 0.000969592 0.001273272 0.003069378
v -0.001429503 0.0004167718 0.003000234
v 0.0008608147 0.0004646015 0.003352492
v -0.001679889 0.001931004 0.001983959
v -0.00131658 0.002033248 0.00123572
v -0.001876162 -0.0003583449 0.001582678
v -0.0009293279 0.002554464 0.00269011
v 0.0006861844 -0.0003048342 0.001976775
v 0.0006211805 0.001691692 0.0007925016
v 0.000969592 0.001273272 0.003069378
v 0.0008027118 0.002249169 0.002293946
v 0.0008078814 0.0005998844 0.001660035
v 0.002123304 -0.001672626 0.003159519
v 0.0008078814 0.0005998844 0.001660035
v 0.002519165 0.0004186398 0.001460496
v 0.0006211805 0.001691692 0.0007925016
v -0.00221962 0.003195664 8.15177E-05
v 0.001893569 0.002413 -0.0009023612
v -0.00131658 0.002033248 0.00123572
vt 0.3775143 0.375
vt 0.3775144 0.375
vt 0.3333333 0.375
vt 0.3333333 0.375
vt 0.3333333 0.25
vt 0.3333333 0.25
vt 0.3775144 0.25
vt 0.3333333 0.25
vt 0.3333333 0.3750001
vt 0.4166667 0.375
vt 0.3775144 0.375
vt 0.4166667 0.375
vt 0.4166667 0.25
vt 0.4166667 0.25
vt 0.3775144 0.25
vt 0.3775144 0.25
vt 0.3333333 0.25
vt 0.3775144 0.3750001
vt 0.3333333 0.3750001
vt 0.3333333 0.375
vt 0.4166667 0.375
vt 0.4166667 0.25
vt 0.3775143 0.25
vt 0.3333333 0.25
vt 0.3333333 0.25
vt 0.3333333 0.3750001
vt 0.3333333 0.375
vt 0.3333333 0.25
vt 0.3333333 0.25
vt 0.3333333 0.25
vt 0.3333333 0.25
vt 0.3775144 0.25
vt 0.3775143 0.25
vt 0.3333333 0.375
vt 0.4166667 0.25
vt 0.4166667 0.25
vt 0.3775144 0.375
vt 0.4166667 0.375
vt 0.4166667 0.375
vt 0.3775143 0.375
vt 0.4166667 0.375
vt 0.4166667 0.375
vt 0.3775143 0.375
vt 0.3775144 0.3750001
vt 0.3333333 0.375
vt 0.3333333 0.3750001
vt 0.3333333 0.3750001
vt 0.391969 0.3349438
vt 0.3770998 0.2850894
vt 0.3864557 0.2907647
vt 0.3754978 0.3376245
vt 0.3536321 0.2850894
vt 0.3607347 0.3376245
vt 0.3770998 0.2850894
vt 0.3864557 0.2907647
vt 0.3536321 0.2850894
vt 0.3864557 0.2907647
vt 0.3607347 0.3376245
vt 0.391969 0.3349438
vt 0.3754978 0.3376245
vt 0.391969 0.3349438
vt 0.3754978 0.3376245
vt 0.3333333 0.375
vt 0.3754978 0.3376245
vt 0.3775143 0.375
vt 0.391969 0.3349438
vt 0.4166667 0.25
vt 0.4166667 0.375
vt 0.3864557 0.2907647
vn 0.9353147 -0.2381564 -0.2616641
vn 0.9339136 -0.191996 -0.3015676
vn 0.4399579 -0.8973224 -0.03534771
vn 0.5641017 -0.2708493 0.7800192
vn -0.4484263 -0.8895397 -0.08736651
vn -0.6401682 -0.3578545 0.6797975
vn -0.9136801 0.07828163 -0.3988242
vn -0.6571494 -0.7004753 -0.2783686
vn 0.5045093 -0.8633666 -0.008277984
vn 0.596139 0.2674164 -0.7570381
vn 0.9339136 -0.191996 -0.3015676
vn 0.5113612 0.3743329 -0.7735533
vn -0.5352157 0.5587813 -0.6334885
vn -0.3644221 0.5641739 -0.7408807
vn -0.4859504 0.7034281 0.5186918
vn -0.9136801 0.07828163 -0.3988242
vn -0.6401682 -0.3578545 0.6797975
vn 0.9834953 -0.05644763 0.1719028
vn 0.5045093 -0.8633666 -0.008277984
vn 0.4399579 -0.8973224 -0.03534771
vn 0.542391 0.4223284 -0.726258
vn -0.1115823 0.5372216 -0.8360277
vn -0.685993 0.1411532 -0.7137852
vn -0.4484263 -0.8895397 -0.08736651
vn -0.6571494 -0.7004753 -0.2783686
vn 0.5045093 -0.8633666 -0.008277984
vn -0.1037282 -0.6823302 -0.7236477
vn -0.5542479 -0.572378 -0.6043117
vn -0.6571494 -0.7004753 -0.2783686
vn -0.6571494 -0.7004753 -0.2783686
vn -0.5542479 -0.572378 -0.6043117
vn -0.6327582 0.01338051 -0.7742338
vn -0.685993 0.1411532 -0.7137852
vn -0.1037282 -0.6823302 -0.7236477
vn -0.09537165 0.2354253 -0.9672018
vn -0.1115823 0.5372216 -0.8360277
vn 0.001221742 0.008460834 -0.9999635
vn 0.1277963 0.2630447 -0.9562822
vn 0.542391 0.4223284 -0.726258
vn 0.4884295 -0.01787525 -0.8724203
vn 0.7433818 -0.3123338 -0.5914652
vn 0.9733543 0.2250103 -0.04417814
vn 0.8494347 -0.1893487 0.4925523
vn 0.9834953 -0.05644763 0.1719028
vn 0.4543228 -0.5960222 -0.6620787
vn 0.5045093 -0.8633666 -0.008277984
vn 0.8417599 -0.5367807 0.05750342
vn 0.374353 0.725722 0.577224
vn -0.3860509 0.5332747 0.7527171
vn 0.374353 0.725722 0.577224
vn 0.1042162 0.3873959 0.916004
vn -0.5432219 -0.4135921 0.7306514
vn 0.5268254 -0.3101136 0.7913814
vn -0.4331219 0.7081888 0.5575609
vn -0.1401574 0.9433472 -0.3007523
vn -0.1140375 0.1615222 0.9802581
vn -0.3089242 0.9184794 -0.2469038
vn 0.2490239 0.2303089 0.940715
vn 0.6569756 0.6773921 -0.3309428
vn 0.9946647 -0.04993157 -0.09027219
vn 0.7229713 0.6145803 -0.3156004
vn 0.9946805 -0.04221346 -0.09396173
vn 0.5641017 -0.2708493 0.7800192
vn 0.1464303 0.6560618 0.7403654
vn 0.1415738 0.6527495 0.7442278
vn 0.2724678 0.7580254 0.5925865
vn 0.2945125 0.8083925 0.5096704
vn 0.2724464 0.7578929 0.5927659
vn 0.2944344 0.808292 0.5098749
g Frog Mesh.013_0
f 3/3/3 2/2/2 1/1/1
f 4/4/4 3/3/3 1/1/1
f 5/5/5 3/3/3 4/4/4
f 6/6/6 5/5/5 4/4/4
f 7/7/7 5/5/5 6/6/6
f 5/5/5 8/8/8 3/3/3
f 8/8/8 9/9/9 3/3/3
f 1/1/1 11/11/11 10/10/10
f 11/11/11 12/12/12 10/10/10
f 10/10/10 12/12/12 13/13/13
f 12/12/12 14/14/14 13/13/13
f 13/13/13 14/14/14 15/15/15
f 14/14/14 16/16/16 15/15/15
f 16/16/16 17/17/17 15/15/15
f 11/11/11 18/18/18 12/12/12
f 19/19/19 18/18/18 11/11/11
f 20/20/20 19/19/19 11/11/11
f 18/18/18 21/21/21 12/12/12
f 12/12/12 21/21/21 14/14/14
f 21/21/21 22/22/22 14/14/14
f 14/14/14 22/22/22 16/16/16
f 22/22/22 23/23/23 16/16/16
f 16/16/16 23/23/23 24/24/24
f 23/23/23 25/25/25 24/24/24
f 28/28/28 27/27/27 26/26/26
f 29/29/29 28/28/28 26/26/26
f 32/32/32 31/31/31 30/30/30
f 33/33/33 32/32/32 30/30/30
f 34/34/34 31/31/31 32/32/32
f 35/35/35 32/32/32 33/33/33
f 36/36/36 35/35/35 33/33/33
f 37/37/37 32/32/32 35/35/35
f 37/37/37 34/34/34 32/32/32
f 38/38/38 35/35/35 36/36/36
f 38/38/38 37/37/37 35/35/35
f 39/39/39 38/38/38 36/36/36
f 37/37/37 40/40/40 34/34/34
f 38/38/38 41/41/41 37/37/37
f 41/41/41 40/40/40 37/37/37
f 42/42/42 41/41/41 38/38/38
f 39/39/39 42/42/42 38/38/38
f 40/40/40 41/41/41 42/42/42
f 43/43/43 42/42/42 39/39/39
f 43/43/43 40/40/40 42/42/42
f 44/44/44 43/43/43 39/39/39
f 40/40/40 45/45/45 34/34/34
f 45/45/45 40/40/40 43/43/43
f 34/34/34 45/45/45 46/46/46
f 47/47/47 43/43/43 44/44/44
f 46/46/46 47/47/47 44/44/44
f 47/47/47 45/45/45 43/43/43
f 45/45/45 47/47/47 46/46/46
g Frog Mesh.013_1
f 50/50/50 49/49/49 48/48/48
f 49/49/49 51/51/51 48/48/48
f 52/52/52 51/51/51 49/49/49
f 53/53/53 51/51/51 52/52/52
f 52/52/52 49/49/49 54/54/54
f 54/54/54 49/49/49 55/55/55
f 56/56/56 52/52/52 54/54/54
f 53/53/53 52/52/52 56/56/56
f 49/49/49 57/57/57 55/55/55
f 58/58/58 53/53/53 56/56/56
f 55/55/55 57/57/57 59/59/59
f 60/60/60 53/53/53 58/58/58
f 57/57/57 61/61/61 59/59/59
f 62/62/62 60/60/60 58/58/58
f 59/59/59 61/61/61 62/62/62
f 61/61/61 60/60/60 62/62/62
g Frog Mesh.013_2
f 17/17/17 63/63/63 58/58/58
f 56/56/56 17/17/17 58/58/58
f 58/58/58 63/63/63 64/64/64
f 15/15/15 17/17/17 56/56/56
f 63/63/63 65/65/65 64/64/64
f 54/54/54 15/15/15 56/56/56
f 64/64/64 65/65/65 66/66/66
f 67/67/67 15/15/15 54/54/54
f 65/65/65 68/68/68 66/66/66
f 69/69/69 67/67/67 54/54/54
f 66/66/66 68/68/68 69/69/69
f 68/68/68 67/67/67 69/69/69
