g Frog Mesh.006
v 0.001982411 0.004696061 -0.006533384
v 0.003865893 0.001182251 -0.004641797
v 0.005501537 0.004696061 -0.004881185
v 0.001670334 0.0002511123 -0.005368699
v -0.00189134 0.004696061 -0.0068621
v 0.002560422 -0.001063828 -0.003260614
v -0.00187872 0.000504508 -0.00639194
v 0.001269756 -0.0009019572 -0.003873717
v 0.004397516 -0.003598394 -0.0009236941
v -0.001253125 -0.001489853 -0.004029084
v 0.0008177263 -0.002842523 -0.002192393
v -0.001648986 -0.003581119 -0.00233006
v 0.00341779 -0.003987683 0.002483158
v -0.0002786476 -0.004182269 0.00151788
v 0.002610919 -0.002448258 0.005131143
v -0.003742865 -0.003208659 0.0003637475
v -0.00115608 -0.002540864 0.003680435
v 0.001905926 0.000631713 0.006995674
v -0.004549738 -0.001783372 0.002313229
v -0.001912724 0.0002511102 0.005708008
v 0.00167646 0.004696061 0.007234612
v -0.00548695 0.0006317118 0.004184725
v -0.002161098 0.004696061 0.006634949
v -0.005716417 0.004696061 0.005041108
v -0.001253125 -0.001489853 -0.004029084
v -0.00189134 0.004696061 -0.0068621
v -0.002161098 0.004696061 0.006634949
v -0.005716417 0.004696061 0.005041108
v 0.001982411 0.004696061 -0.006533384
v 0.005501537 0.004696061 -0.004881185
v 0.00167646 0.004696061 0.007234612
v 0.001905926 0.000631713 0.006995674
v 0.003865893 0.001182251 -0.004641797
v 0.003865893 0.001182251 -0.004641797
v 0.002560422 -0.001063828 -0.003260614
vt 0.5 0.5
vt 0.4166667 0.6250001
vt 0.5 0.6250001
vt 0.4166667 0.5
vt 0.5 0.375
vt 0.3775143 0.6250001
vt 0.4166667 0.375
vt 0.3775144 0.5
vt 0.3333333 0.6250001
vt 0.3775143 0.375
vt 0.3333333 0.5
vt 0.3333333 0.375
vt 0.25 0.6250001
vt 0.25 0.5
vt 0.1666667 0.6250001
vt 0.25 0.375
vt 0.1666667 0.5
vt 0.08333334 0.6250001
vt 0.1666667 0.375
vt 0.08333334 0.5
vt 2.980232E-08 0.625
vt 0.08333334 0.375
vt 0 0.5
vt 2.980232E-08 0.375
vt 0.3775143 0.375
vt 0.5 0.375
vt 0 0.5
vt 2.980232E-08 0.375
vt 0.5 0.5
vt 0.5 0.6250001
vt 2.980232E-08 0.625
vt 0.08333334 0.6250001
vt 0.4166667 0.6250001
vt 0.4166667 0.6250001
vt 0.3775143 0.6250001
vn 0.242451 0.5824628 -0.7758572
vn 0.8193591 -0.3561791 -0.4492073
vn 0.7983447 0.5059783 -0.3265453
vn 0.2930796 -0.529704 -0.7959385
vn -0.4159063 0.5475044 -0.7261273
vn 0.2637119 -0.6635861 -0.7000782
vn -0.4734262 -0.3760836 -0.7965104
vn 0.2416722 -0.6982843 -0.6737905
vn 0.8592516 -0.4249634 -0.2847678
vn 0.192126 -0.7058337 -0.6818258
vn 0.1182043 -0.8323002 -0.5415756
vn -0.3752545 -0.7394767 -0.5588902
vn 0.7388579 -0.599403 0.3079045
vn -0.13358 -0.9781324 0.159416
vn 0.5369694 -0.5616023 0.6294971
vn -0.7068652 -0.6857846 -0.1733237
vn -0.2886959 -0.7358918 0.6124688
vn 0.4575663 -0.381061 0.8033839
vn -0.7576208 -0.6355873 0.1484572
vn -0.325902 -0.4135321 0.8501641
vn 0.4254495 0.4894729 0.7611893
vn -0.8538631 -0.3688036 0.3672898
vn -0.254959 0.6104814 0.7498723
vn -0.7573559 0.5205528 0.394255
vn -0.8735517 -0.2706037 -0.404575
vn -0.4159063 0.5475044 -0.7261273
vn -0.254959 0.6104814 0.7498723
vn -0.7573559 0.5205528 0.394255
vn 0.242451 0.5824628 -0.7758572
vn 0.7983447 0.5059783 -0.3265453
vn 0.4254495 0.4894729 0.7611893
vn 0.4575663 -0.381061 0.8033839
vn 0.8193591 -0.3561791 -0.4492073
vn 0.8193591 -0.3561791 -0.4492073
vn 0.9929415 0.05660786 0.1042238
g Frog Mesh.006_0
f 3/3/3 2/2/2 1/1/1
f 2/2/2 4/4/4 1/1/1
f 1/1/1 4/4/4 5/5/5
f 2/2/2 6/6/6 4/4/4
f 4/4/4 7/7/7 5/5/5
f 6/6/6 8/8/8 4/4/4
f 4/4/4 8/8/8 7/7/7
f 6/6/6 9/9/9 8/8/8
f 8/8/8 10/10/10 7/7/7
f 9/9/9 11/11/11 8/8/8
f 8/8/8 11/11/11 10/10/10
f 11/11/11 12/12/12 10/10/10
g Frog Mesh.006_1
f 9/9/9 13/13/13 11/11/11
f 13/13/13 14/14/14 11/11/11
f 11/11/11 14/14/14 12/12/12
f 13/13/13 15/15/15 14/14/14
f 14/14/14 16/16/16 12/12/12
f 15/15/15 17/17/17 14/14/14
f 14/14/14 17/17/17 16/16/16
f 15/15/15 18/18/18 17/17/17
f 17/17/17 19/19/19 16/16/16
f 18/18/18 20/20/20 17/17/17
f 17/17/17 20/20/20 19/19/19
f 18/18/18 21/21/21 20/20/20
f 20/20/20 22/22/22 19/19/19
f 21/21/21 23/23/23 20/20/20
f 20/20/20 23/23/23 22/22/22
f 23/23/23 24/24/24 22/22/22
g Frog Mesh.006_2
f 22/22/22 24/24/24 5/5/5
f 7/7/7 22/22/22 5/5/5
f 19/19/19 22/22/22 7/7/7
f 25/25/25 19/19/19 7/7/7
f 19/19/19 25/25/25 16/16/16
f 25/25/25 12/12/12 16/16/16
f 28/28/28 27/27/27 26/26/26
f 27/27/27 29/29/29 26/26/26
f 30/30/30 29/29/29 27/27/27
f 31/31/31 30/30/30 27/27/27
f 30/30/30 31/31/31 32/32/32
f 33/33/33 30/30/30 32/32/32
f 34/34/34 18/18/18 15/15/15
f 35/35/35 34/34/34 15/15/15
f 35/35/35 15/15/15 9/9/9
f 15/15/15 13/13/13 9/9/9
