g Heron.032
v -0.005000023 0.00328392 -0.00222312
v -0.004330153 0.00328392 0.0002768791
v 4.470348E-08 -0.02627146 -0.0008752889
v -0.004330153 0.00328392 0.0002768791
v -0.002500023 0.00328393 0.002107006
v 4.470348E-08 -0.02627146 -0.0008752889
v -0.002500023 0.00328393 0.002107006
v 4.589558E-08 0.00328393 0.002776879
v 4.470348E-08 -0.02627146 -0.0008752889
v 0.004999977 0.00328393 -0.00222312
v 4.470348E-08 -0.02627146 -0.0008752889
v 0.004330107 0.00328393 0.0002768791
v 0.004330107 0.00328393 0.0002768791
v 4.470348E-08 -0.02627146 -0.0008752889
v 0.002499977 0.00328393 0.002107006
v 0.002499977 0.00328393 0.002107006
v 4.470348E-08 -0.02627146 -0.0008752889
v 4.589558E-08 0.00328393 0.002776879
v 4.470348E-08 -0.02627146 -0.0008752889
v 4.589558E-08 0.00328392 -0.00222312
v -0.005000023 0.00328392 -0.00222312
v 0.004999977 0.00328393 -0.00222312
v -0.005000023 0.00328392 -0.00222312
v 4.589558E-08 0.00328392 -0.00222312
v -0.004330153 0.00328392 0.0002768791
v -0.002500023 0.00328393 0.002107006
v 4.589558E-08 0.00328393 0.002776879
v 0.002499977 0.00328393 0.002107006
v 0.004330107 0.00328393 0.0002768791
v 0.004999977 0.00328393 -0.00222312
vt 0.25 0.8333333
vt 0.1666667 0.8333333
vt 0.2083333 1
vt 0.1666667 0.8333333
vt 0.08333334 0.8333333
vt 0.125 1
vt 0.08333334 0.8333333
vt 0 0.8333333
vt 0.04166669 1
vt 0.25 0.8333333
vt 0.2083333 1
vt 0.1666667 0.8333333
vt 0.1666667 0.8333333
vt 0.125 1
vt 0.08333334 0.8333333
vt 0.08333334 0.8333333
vt 0.04166669 1
vt 0 0.8333333
vt 0.2083333 1
vt 0.25 0.8333333
vt 0.25 0.8333333
vt 0.25 0.8333333
vt 0.25 0.8333333
vt 0.25 0.8333333
vt 0.1666667 0.8333333
vt 0.08333334 0.8333333
vt 0 0.8333333
vt 0.08333334 0.8333333
vt 0.1666667 0.8333333
vt 0.25 0.8333333
vn -0.9550129 -0.1498958 0.2558939
vn -0.859922 -0.1450658 0.4893772
vn -1.382889E-06 -0.2033297 0.9791103
vn -0.859922 -0.1450658 0.4893772
vn -0.498937 -0.1286837 0.8570312
vn -1.382889E-06 -0.2033297 0.9791103
vn -0.498937 -0.1286837 0.8570312
vn 6.702273E-06 -0.1226375 0.9924515
vn -1.382889E-06 -0.2033297 0.9791103
vn 0.9550136 -0.1498915 0.2558939
vn -1.382889E-06 -0.2033297 0.9791103
vn 0.8599226 -0.145062 0.4893772
vn 0.8599226 -0.145062 0.4893772
vn -1.382889E-06 -0.2033297 0.9791103
vn 0.4989428 -0.1286816 0.8570282
vn 0.4989428 -0.1286816 0.8570282
vn -1.382889E-06 -0.2033297 0.9791103
vn 6.702273E-06 -0.1226375 0.9924515
vn 0 -0.04555625 -0.9989618
vn 0 -0.04555625 -0.9989618
vn 0 -0.04555625 -0.9989618
vn 0 -0.04555625 -0.9989618
vn 0 1 0
vn -8.685028E-07 1 -1.470242E-06
vn -9.536584E-07 1 -1.668903E-06
vn -6.981492E-07 1 -2.622569E-06
vn 0 1 -1.907349E-06
vn -9.536828E-07 1 -1.668966E-06
vn -1.651831E-06 1 -8.344764E-07
vn -1.907375E-06 1 -2.38422E-07
g Heron.032_0
f 3/3/3 2/2/2 1/1/1
f 6/6/6 5/5/5 4/4/4
f 9/9/9 8/8/8 7/7/7
f 12/12/12 11/11/11 10/10/10
f 15/15/15 14/14/14 13/13/13
f 18/18/18 17/17/17 16/16/16
g Heron.032_1
f 21/21/21 20/20/20 19/19/19
f 20/20/20 22/22/22 19/19/19
g Heron.032_2
f 25/25/25 24/24/24 23/23/23
f 24/24/24 25/25/25 26/26/26
f 24/24/24 26/26/26 27/27/27
f 28/28/28 24/24/24 27/27/27
f 29/29/29 24/24/24 28/28/28
f 24/24/24 29/29/29 30/30/30
