g Heron.029
v 0.0005753106 0.001580967 -0.00198471
v 0.001107899 0.001418642 -8.995125E-05
v 0.0001782471 0.002489971 -0.000722046
v 0.001337144 0.0008938257 -0.0008189512
v 0.0007178563 6.771488E-05 -0.002502439
v 0.001419446 2.015514E-05 -0.001117863
v 0.0005514306 -0.001471754 -0.00207748
v 0.001323363 -0.0008686598 -0.0008725113
v 0.0001396054 -0.002449432 -0.0008721519
v 0.001085593 -0.00143313 -0.0001766152
v -0.0003603107 -0.00249188 0.0006531512
v 0.0007969636 -0.00145763 0.000704019
v -0.0007573729 -0.001582876 0.001915816
v 0.0005677193 -0.0009328134 0.001433019
v -0.0008999187 -6.963329E-05 0.002433544
v 0.0004854268 -5.914288E-05 0.001731931
v -0.000733493 0.001469845 0.002008586
v 0.0005815094 0.000829672 0.00148658
v -0.000321669 0.002447523 0.0008032571
v 0.00081927 0.001394133 0.0007906829
v 0.0001782471 0.002489971 -0.000722046
v 0.001107899 0.001418642 -8.995125E-05
v -0.0002095252 -0.001587797 -0.002526548
v 0.0002821606 5.21223E-05 -0.002777128
v -0.000837968 -0.002698065 -0.001291443
v -0.001303751 -0.002723404 0.0004215764
v -0.00180343 -0.001733022 0.001803055
v -0.001747907 -1.847821E-05 0.002375097
v 0.0002821606 5.21223E-05 -0.002777128
v -0.0002559119 0.001750721 -0.002467597
v -0.0008882278 0.002806486 -0.001163546
v -0.001852344 0.001655392 0.001898217
v -0.001747907 -1.847821E-05 0.002375097
v -0.001331495 0.002726826 0.0005704247
v -0.0008882278 0.002806486 -0.001163546
v 0.001334369 -2.627926E-05 0.0004320239
v 0.001334369 -2.627926E-05 0.0004320239
v 0.001334369 -2.627926E-05 0.0004320239
v 0.001334369 -2.627926E-05 0.0004320239
v 0.001334369 -2.627926E-05 0.0004320239
v 0.001334369 -2.627926E-05 0.0004320239
v 0.001334369 -2.627926E-05 0.0004320239
v 0.001334369 -2.627926E-05 0.0004320239
v 0.001334369 -2.627926E-05 0.0004320239
v 0.001334369 -2.627926E-05 0.0004320239
v -0.0008882278 0.002806486 -0.001163546
v -0.001331495 0.002726826 0.0005704247
v -0.001852344 0.001655392 0.001898217
v -0.0002559119 0.001750721 -0.002467597
v 0.0002821606 5.21223E-05 -0.002777128
v -0.001747907 -1.847821E-05 0.002375097
v -0.001747907 -1.847821E-05 0.002375097
v -0.0002095252 -0.001587797 -0.002526548
v 0.0002821606 5.21223E-05 -0.002777128
v -0.00180343 -0.001733022 0.001803055
v -0.000837968 -0.002698065 -0.001291443
v -0.001303751 -0.002723404 0.0004215764
vt 0.09999999 0.6666667
vt 0 0.8333333
vt 0 0.6666667
vt 0.09999999 0.8333333
vt 0.2 0.6666667
vt 0.2 0.8333333
vt 0.3 0.6666667
vt 0.3 0.8333333
vt 0.4 0.6666667
vt 0.4 0.8333333
vt 0.5 0.6666667
vt 0.5 0.8333333
vt 0.6 0.6666667
vt 0.6 0.8333333
vt 0.7 0.6666667
vt 0.7 0.8333333
vt 0.8 0.6666667
vt 0.8 0.8333333
vt 0.9 0.6666667
vt 0.9 0.8333333
vt 0.9999999 0.6666667
vt 0.9999999 0.8333333
vt 0.3 0.5710221
vt 0.2033554 0.612116
vt 0.4 0.5494282
vt 0.5 0.5594858
vt 0.6 0.552604
vt 0.7 0.5726799
vt 0.2 0.6102879
vt 0.09999999 0.5618978
vt 0 0.5382139
vt 0.8 0.5443716
vt 0.7051686 0.5773516
vt 0.9 0.5514751
vt 0.9999999 0.5382139
vt 0.05000001 1
vt 0.15 1
vt 0.25 1
vt 0.35 1
vt 0.45 1
vt 0.55 1
vt 0.65 1
vt 0.75 1
vt 0.85 1
vt 0.95 1
vt 0.9999999 0.5382139
vt 0.9 0.5514751
vt 0.8 0.5443716
vt 0.09999999 0.5618978
vt 0.2 0.6102879
vt 0.7051686 0.5773516
vt 0.7051686 0.5773516
vt 0.3 0.5710221
vt 0.2 0.6102879
vt 0.6 0.552604
vt 0.4 0.5494282
vt 0.5 0.5594858
vn 0.6786996 0.5256211 -0.5129222
vn 0.8574302 0.5003287 0.1203519
vn 0.5462378 0.8334761 -0.08331908
vn 0.9394555 0.3125472 -0.14049
vn 0.7264223 0.0190272 -0.6869851
vn 0.9689025 -5.776011E-05 -0.2474425
vn 0.6723173 -0.5050042 -0.541258
vn 0.9345226 -0.3180847 -0.1596542
vn 0.5331821 -0.8353151 -0.1340353
vn 0.8494471 -0.5200553 0.08934188
vn 0.3642836 -0.8496548 0.3812927
vn 0.7461751 -0.5288212 0.404439
vn 0.2263819 -0.5413919 0.8097196
vn 0.6641498 -0.3410393 0.6652797
vn 0.1781222 -0.03430321 0.9834103
vn 0.6347034 -0.02843299 0.7722326
vn 0.2382033 0.4888252 0.8392313
vn 0.6690831 0.2895935 0.6844438
vn 0.3773394 0.819136 0.4320084
vn 0.7541568 0.4915613 0.4354481
vn 0.5462378 0.8334761 -0.08331908
vn 0.8574302 0.5003287 0.1203519
vn 0.4776675 -0.5805342 -0.6594041
vn 0.5416045 0.01310019 -0.8405313
vn 0.3296734 -0.9169119 -0.2249177
vn 0.1463296 -0.9309371 0.3345801
vn -0.007301757 -0.5970981 0.802135
vn -0.06163053 -0.01282988 0.9980166
vn 0.5416045 0.01310019 -0.8405313
vn 0.482352 0.615018 -0.6237705
vn 0.3442642 0.923431 -0.1695796
vn 0.009805446 0.5542124 0.8323175
vn -0.06163053 -0.01282988 0.9980166
vn 0.1611645 0.9070122 0.3890438
vn 0.3442642 0.923431 -0.1695796
vn 0.9502664 -0.01688297 0.3109804
vn 0.9502664 -0.01688297 0.3109804
vn 0.9502664 -0.01688297 0.3109804
vn 0.9502664 -0.01688297 0.3109804
vn 0.9502664 -0.01688297 0.3109804
vn 0.9502664 -0.01688297 0.3109804
vn 0.9502664 -0.01688297 0.3109804
vn 0.9502664 -0.01688297 0.3109804
vn 0.9502664 -0.01688297 0.3109804
vn 0.9502664 -0.01688297 0.3109804
vn -0.9465824 -0.05315157 -0.3180512
vn -0.9465824 -0.05315157 -0.3180512
vn -0.9256335 -0.1569931 -0.344319
vn -0.9260297 -0.1554477 -0.3439549
vn -0.9344183 -0.00401885 -0.3561551
vn -0.934393 -0.006400859 -0.3561863
vn -0.934393 -0.006400859 -0.3561863
vn -0.92716 0.156442 -0.340441
vn -0.9344183 -0.00401885 -0.3561551
vn -0.9269509 0.1572317 -0.3406468
vn -0.9441684 0.08014274 -0.3195669
vn -0.9441684 0.08014274 -0.3195669
g Heron.029_0
f 3/3/3 2/2/2 1/1/1
f 2/2/2 4/4/4 1/1/1
f 1/1/1 4/4/4 5/5/5
f 4/4/4 6/6/6 5/5/5
f 5/5/5 6/6/6 7/7/7
f 6/6/6 8/8/8 7/7/7
f 7/7/7 8/8/8 9/9/9
f 8/8/8 10/10/10 9/9/9
f 9/9/9 10/10/10 11/11/11
f 10/10/10 12/12/12 11/11/11
f 11/11/11 12/12/12 13/13/13
f 12/12/12 14/14/14 13/13/13
f 13/13/13 14/14/14 15/15/15
f 14/14/14 16/16/16 15/15/15
f 15/15/15 16/16/16 17/17/17
f 16/16/16 18/18/18 17/17/17
f 17/17/17 18/18/18 19/19/19
f 18/18/18 20/20/20 19/19/19
f 19/19/19 20/20/20 21/21/21
f 20/20/20 22/22/22 21/21/21
g Heron.029_1
f 24/24/24 5/5/5 23/23/23
f 5/5/5 7/7/7 23/23/23
f 23/23/23 7/7/7 25/25/25
f 7/7/7 9/9/9 25/25/25
f 25/25/25 9/9/9 26/26/26
f 9/9/9 11/11/11 26/26/26
f 26/26/26 11/11/11 13/13/13
f 27/27/27 26/26/26 13/13/13
f 27/27/27 13/13/13 28/28/28
f 13/13/13 15/15/15 28/28/28
f 1/1/1 5/5/5 29/29/29
f 30/30/30 1/1/1 29/29/29
f 3/3/3 1/1/1 30/30/30
f 31/31/31 3/3/3 30/30/30
f 33/33/33 15/15/15 32/32/32
f 15/15/15 17/17/17 32/32/32
f 32/32/32 17/17/17 19/19/19
f 34/34/34 32/32/32 19/19/19
f 34/34/34 19/19/19 21/21/21
f 35/35/35 34/34/34 21/21/21
g Heron.029_2
f 2/2/2 36/36/36 4/4/4
f 4/4/4 37/37/37 6/6/6
f 6/6/6 38/38/38 8/8/8
f 8/8/8 39/39/39 10/10/10
f 10/10/10 40/40/40 12/12/12
f 12/12/12 41/41/41 14/14/14
f 14/14/14 42/42/42 16/16/16
f 16/16/16 43/43/43 18/18/18
f 18/18/18 44/44/44 20/20/20
f 20/20/20 45/45/45 22/22/22
g Heron.029_3
f 48/48/48 47/47/47 46/46/46
f 49/49/49 48/48/48 46/46/46
f 49/49/49 50/50/50 48/48/48
f 50/50/50 51/51/51 48/48/48
f 54/54/54 53/53/53 52/52/52
f 53/53/53 55/55/55 52/52/52
f 55/55/55 53/53/53 56/56/56
f 57/57/57 55/55/55 56/56/56
