g Heron.003
v -0.0004398632 -0.01868309 -0.006686659
v -0.004305059 -0.001765795 -0.0007063313
v -0.001874802 -0.01868309 0.0001589416
v -0.002466221 -0.001765795 -0.009274563
v -0.005056742 0.006441488 0.0007728126
v -0.003125956 0.006441488 -0.009450719
v 0.003480476 -0.0186831 -0.01154428
v 0.002557568 -0.003403659 -0.01753725
v 0.009856698 -0.01868309 -0.01221165
v 0.01072846 -0.003403659 -0.01839246
v -0.003125956 0.006441488 -0.009450719
v 0.002149019 0.006441488 -0.01876609
v 0.002149019 0.006441488 -0.01876609
v 0.01072846 0.006441488 -0.01966407
v -0.005808416 0.01464876 0.0007799315
v -0.005056742 0.006441488 0.0007728126
v -0.003785695 0.01464876 -0.00983648
v 0.002149019 0.006441488 -0.01876609
v 0.001740471 0.01464876 -0.01731993
v 0.01072846 0.006441488 -0.01966407
v 0.01072846 0.01464876 -0.01826181
v 0.003480476 -0.01868309 0.01049122
v 0.01072846 -0.001765785 0.01312409
v 0.009856698 -0.01868309 0.01115859
v 0.002557568 -0.001765795 0.01226888
v 0.01072846 0.006441488 0.01381035
v 0.002149019 0.006441488 0.01291237
v -0.0004398632 -0.01868309 0.006246477
v -0.002466221 -0.001765795 0.006829363
v -0.003125956 0.006441488 0.005686254
v -0.007633456 -0.0015341 0.00738869
v -0.008575856 0.004145827 0.006758569
v -0.003125956 0.006441488 0.005686254
v -0.004240058 -0.01304438 0.006350038
v -0.006289798 -0.01304438 0.003007001
v -0.01026013 -0.0015341 0.003128149
v -0.01052349 0.004145827 0.003930136
v -0.003785695 0.01464876 0.005919866
v 0.001740471 0.01464876 0.01355588
v 0.002149019 0.006441488 0.01291237
v 0.01072846 0.01464876 0.01449662
v 0.01072846 0.006441488 0.01381035
v -0.01021775 0.009825759 0.003955914
v -0.005808416 0.01464876 0.0007799315
v -0.009518242 0.009825759 0.006922152
v -0.01052349 0.004145827 0.003930136
v -0.004240058 -0.01304438 0.006350038
v -0.006289798 -0.01304438 0.003007001
v -0.01026013 -0.0015341 0.003128149
v -0.007633456 -0.0015341 0.00738869
v -0.008575856 0.004145827 0.006758569
v -0.01052349 0.004145827 0.003930136
v -0.009518242 0.009825759 0.006922152
v -0.01021775 0.009825759 0.003955914
v -0.005808416 0.01464876 0.0007799315
v 0.001740471 0.01464876 0.01355588
v -0.003785695 0.01464876 0.005919866
v -0.003785695 0.01464876 -0.00983648
v 0.01072846 0.01464876 0.01449662
v 0.001740471 0.01464876 -0.01731993
v 0.01072846 0.01464876 -0.01826181
v 0.01072846 0.006441488 -0.01966407
v 0.01072846 0.006441488 0.01381035
v 0.01072846 -0.003403659 -0.01839246
v 0.01072846 -0.001765785 0.01312409
v 0.009856698 -0.01868309 -0.01221165
v 0.009856698 -0.01868309 0.01115859
v 0.003480476 -0.0186831 -0.01154428
v -0.0004398632 -0.01868309 -0.006686659
v 0.003480476 -0.01868309 0.01049122
v -0.001874802 -0.01868309 0.0001589416
v -0.0004398632 -0.01868309 0.006246477
v 0.01020893 -0.02178609 -0.004406144
v 0.01280701 0.01821391 -0.002906144
v 0.01020893 0.01821391 -0.004406144
v 0.01280701 -0.02178609 -0.002906144
v 0.01280701 0.01821391 9.385616E-05
v 0.01280701 -0.02178609 9.385646E-05
v 0.01020893 0.01821391 0.001593856
v 0.01020893 -0.02178609 0.001593856
v 0.007610855 0.01821391 9.385616E-05
v 0.007610855 -0.02178609 9.385646E-05
v 0.007610855 0.01821391 -0.002906144
v 0.007610855 -0.02178609 -0.002906144
v 0.01020893 0.01821391 -0.004406144
v 0.01020893 -0.02178609 -0.004406144
v 0.007610855 0.01821391 -0.002906144
v 0.01020893 0.01821391 -0.004406144
v 0.01280701 0.01821391 -0.002906144
v 0.007610855 0.01821391 9.385616E-05
v 0.01280701 0.01821391 9.385616E-05
v 0.01020893 0.01821391 0.001593856
v 0.01280701 -0.02178609 -0.002906144
v 0.01020893 -0.02178609 -0.004406144
v 0.007610855 -0.02178609 -0.002906144
v 0.01280701 -0.02178609 9.385646E-05
v 0.007610855 -0.02178609 9.385646E-05
v 0.01020893 -0.02178609 0.001593856
vt 0.3333333 0.1666667
vt 0.25 0.1666667
vt 0.25 0.1666667
vt 0.3333333 0.1666667
vt 0.25 0.1666667
vt 0.3333333 0.1666667
vt 0.4166667 0.1666667
vt 0.4166667 0.1666667
vt 0.5 0.1666667
vt 0.5 0.1666667
vt 0.3333333 0.1666667
vt 0.4166666 0.1666667
vt 0.4166666 0.1666667
vt 0.5 0.1666667
vt 0.25 0.1666667
vt 0.25 0.1666667
vt 0.3333333 0.1666667
vt 0.4166666 0.1666667
vt 0.4166667 0.1666667
vt 0.5 0.1666667
vt 0.5 0.1666667
vt 0.08333334 0.1666667
vt 0 0.1666667
vt 0 0.1666667
vt 0.08333334 0.1666667
vt 0 0.1666667
vt 0.08333335 0.1666667
vt 0.1666667 0.1666667
vt 0.1666667 0.1666667
vt 0.1666667 0.1666667
vt 0.1666667 0.1666667
vt 0.1666667 0.1666667
vt 0.1666667 0.1666667
vt 0.1666667 0.1666667
vt 0.25 0.1666667
vt 0.25 0.1666667
vt 0.25 0.1666667
vt 0.1666667 0.1666667
vt 0.08333334 0.1666667
vt 0.08333335 0.1666667
vt 0 0.1666667
vt 0 0.1666667
vt 0.25 0.1666667
vt 0.25 0.1666667
vt 0.1666667 0.1666667
vt 0.25 0.1666667
vt 0.1666667 0.1666667
vt 0.25 0.1666667
vt 0.25 0.1666667
vt 0.1666667 0.1666667
vt 0.1666667 0.1666667
vt 0.25 0.1666667
vt 0.1666667 0.1666667
vt 0.25 0.1666667
vt 0.25 0.1666667
vt 0.08333334 0.1666667
vt 0.1666667 0.1666667
vt 0.3333333 0.1666667
vt 0 0.1666667
vt 0.4166667 0.1666667
vt 0.5 0.1666667
vt 0.5 0.1666667
vt 0 0.1666667
vt 0.5 0.1666667
vt 0 0.1666667
vt 0.5 0.1666667
vt 0 0.1666667
vt 0.4166667 0.1666667
vt 0.3333333 0.1666667
vt 0.08333334 0.1666667
vt 0.25 0.1666667
vt 0.1666667 0.1666667
vt 1 0.5
vt 0.8333333 1
vt 1 1
vt 0.8333333 0.5
vt 0.6666666 1
vt 0.6666666 0.5
vt 0.4999999 1
vt 0.4999999 0.5
vt 0.3333333 1
vt 0.3333333 0.5
vt 0.1666666 1
vt 0.1666666 0.5
vt -8.940697E-08 1
vt -8.940697E-08 0.5
vt 0.04215391 0.37
vt 0.25 0.49
vt 0.4578461 0.37
vt 0.04215391 0.13
vt 0.4578461 0.13
vt 0.25 0.01000001
vt 0.9578461 0.37
vt 0.75 0.49
vt 0.5421539 0.37
vt 0.9578461 0.13
vt 0.5421539 0.13
vt 0.75 0.01000001
vn -0.912246 -0.1838136 -0.3660871
vn -0.8427225 -0.08151146 -0.5321415
vn -0.9180833 -0.3663567 -0.1513466
vn -0.9207249 -0.1299614 -0.3679341
vn -0.814373 -0.02198707 -0.5799251
vn -0.9306534 -0.06776584 -0.359572
vn -0.5310072 -0.3161896 -0.7861649
vn -0.5110495 -0.2244209 -0.8297371
vn -0.09677192 -0.368489 -0.9245816
vn -0.1009053 -0.2457314 -0.9640718
vn -0.9306534 -0.06776584 -0.359572
vn -0.515663 -0.01537494 -0.8566535
vn -0.515663 -0.01537494 -0.8566535
vn -0.104108 0.0201102 -0.9943626
vn -0.9253102 0.2855206 -0.2495574
vn -0.814373 -0.02198707 -0.5799251
vn -0.9268429 -0.05491985 -0.3714107
vn -0.515663 -0.01537494 -0.8566535
vn -0.5549141 0.07463869 -0.8285527
vn -0.104108 0.0201102 -0.9943626
vn -0.102688 0.1675897 -0.9804941
vn -0.4446992 -0.1175631 0.887931
vn -0.1036174 -0.09589991 0.9899831
vn -0.1034708 -0.1095243 0.9885839
vn -0.4600163 -0.0893134 0.8834071
vn -0.1037391 -0.08287597 0.9911457
vn -0.486955 -0.07670724 0.8700522
vn -0.7063795 -0.3440488 0.6185939
vn -0.3832146 -0.01791186 0.9234856
vn -0.3588983 -0.003369657 0.9333706
vn 0.0905271 0.06246987 0.9939328
vn 0.1509132 0.07776935 0.9854832
vn -0.3588983 -0.003369657 0.9333706
vn -0.3325545 -0.3367935 0.880896
vn -0.7876389 -0.3947928 -0.4730365
vn -0.5640367 -0.008106748 -0.8257099
vn -0.5331438 0.0541806 -0.844288
vn -0.6409489 0.3037017 0.7049466
vn -0.4985318 -0.09115066 0.8620659
vn -0.486955 -0.07670724 0.8700522
vn -0.1037391 -0.0828764 0.9911457
vn -0.1037391 -0.08287597 0.9911457
vn -0.7553972 0.4265902 -0.497389
vn -0.9253102 0.2855206 -0.2495574
vn -0.2259118 0.4352745 0.871493
vn -0.5331438 0.0541806 -0.844288
vn -0.8161255 -0.2863475 0.5019405
vn -0.8161255 -0.2863475 0.5019405
vn -0.8303722 -0.1902894 0.5237099
vn -0.8292609 -0.2004815 0.5216644
vn -0.8718143 -0.07910354 0.4834071
vn -0.8732265 -0.07834063 0.4809762
vn -0.9080639 -0.05780623 0.4148234
vn -0.9080639 -0.05780623 0.4148234
vn 0 1 0
vn 0 1 0
vn 0 1 0
vn 0 1 0
vn 0.7121155 0.7020622 0
vn 0 1 0
vn 0.7646591 0.6444349 0
vn 1 0 0
vn 1 0 0
vn 0.9997323 -0.02312768 0.000690156
vn 0.9997039 -0.02431905 0.0007257078
vn 0.7788453 -0.6272147 0.001253781
vn 0.7341606 -0.6789747 0.001181943
vn 4.935047E-07 -1 2.228335E-07
vn 0 -1 2.643423E-07
vn 0 -1 2.473572E-07
vn 0 -1 0
vn 0 -1 0
vn 0 -0.6099975 -0.7924033
vn 0.6862414 0.6099975 -0.3962016
vn 0 0.6099975 -0.7924033
vn 0.6862414 -0.6099976 -0.3962016
vn 0.6862414 0.6099975 0.3962016
vn 0.6862414 -0.6099975 0.3962016
vn 0 0.6099975 0.7924033
vn 0 -0.6099976 0.7924033
vn -0.6862414 0.6099975 0.3962016
vn -0.6862414 -0.6099975 0.3962016
vn -0.6862414 0.6099975 -0.3962016
vn -0.6862414 -0.6099976 -0.3962016
vn 0 0.6099975 -0.7924033
vn 0 -0.6099975 -0.7924033
vn -0.6862414 0.6099975 -0.3962016
vn 0 0.6099975 -0.7924033
vn 0.6862414 0.6099975 -0.3962016
vn -0.6862414 0.6099975 0.3962016
vn 0.6862414 0.6099975 0.3962016
vn 0 0.6099975 0.7924033
vn 0.6862414 -0.6099976 -0.3962016
vn 0 -0.6099975 -0.7924033
vn -0.6862414 -0.6099976 -0.3962016
vn 0.6862414 -0.6099975 0.3962016
vn -0.6862414 -0.6099975 0.3962016
vn 0 -0.6099976 0.7924033
g Heron.003_0
f 3/3/3 2/2/2 1/1/1
f 2/2/2 4/4/4 1/1/1
f 2/2/2 5/5/5 4/4/4
f 5/5/5 6/6/6 4/4/4
f 1/1/1 4/4/4 7/7/7
f 4/4/4 8/8/8 7/7/7
f 7/7/7 8/8/8 9/9/9
f 8/8/8 10/10/10 9/9/9
f 4/4/4 11/11/11 8/8/8
f 11/11/11 12/12/12 8/8/8
f 8/8/8 13/13/13 10/10/10
f 13/13/13 14/14/14 10/10/10
f 16/16/16 15/15/15 11/11/11
f 15/15/15 17/17/17 11/11/11
f 11/11/11 17/17/17 18/18/18
f 17/17/17 19/19/19 18/18/18
f 18/18/18 19/19/19 20/20/20
f 19/19/19 21/21/21 20/20/20
g Heron.003_1
f 24/24/24 23/23/23 22/22/22
f 23/23/23 25/25/25 22/22/22
f 23/23/23 26/26/26 25/25/25
f 26/26/26 27/27/27 25/25/25
f 22/22/22 25/25/25 28/28/28
f 25/25/25 27/27/27 29/29/29
f 25/25/25 29/29/29 28/28/28
f 27/27/27 30/30/30 29/29/29
f 29/29/29 31/31/31 28/28/28
f 32/32/32 31/31/31 29/29/29
f 33/33/33 32/32/32 29/29/29
f 31/31/31 34/34/34 28/28/28
f 28/28/28 34/34/34 3/3/3
f 34/34/34 35/35/35 3/3/3
f 3/3/3 35/35/35 2/2/2
f 35/35/35 36/36/36 2/2/2
f 2/2/2 36/36/36 5/5/5
f 36/36/36 37/37/37 5/5/5
f 39/39/39 38/38/38 33/33/33
f 40/40/40 39/39/39 33/33/33
f 41/41/41 39/39/39 40/40/40
f 42/42/42 41/41/41 40/40/40
g Heron.003_2
f 44/44/44 43/43/43 38/38/38
f 43/43/43 45/45/45 38/38/38
f 38/38/38 45/45/45 33/33/33
f 45/45/45 32/32/32 33/33/33
f 46/46/46 43/43/43 15/15/15
f 16/16/16 46/46/46 15/15/15
g Heron.003_3
f 49/49/49 48/48/48 47/47/47
f 50/50/50 49/49/49 47/47/47
f 49/49/49 50/50/50 51/51/51
f 52/52/52 49/49/49 51/51/51
f 52/52/52 51/51/51 53/53/53
f 54/54/54 52/52/52 53/53/53
f 57/57/57 56/56/56 55/55/55
f 56/56/56 58/58/58 55/55/55
f 56/56/56 59/59/59 58/58/58
f 59/59/59 60/60/60 58/58/58
f 59/59/59 61/61/61 60/60/60
f 61/61/61 59/59/59 62/62/62
f 59/59/59 63/63/63 62/62/62
f 64/64/64 62/62/62 63/63/63
f 65/65/65 64/64/64 63/63/63
f 64/64/64 65/65/65 66/66/66
f 65/65/65 67/67/67 66/66/66
f 66/66/66 67/67/67 68/68/68
f 68/68/68 67/67/67 69/69/69
f 67/67/67 70/70/70 69/69/69
f 69/69/69 70/70/70 71/71/71
f 70/70/70 72/72/72 71/71/71
g Heron.003_4
f 75/75/75 74/74/74 73/73/73
f 74/74/74 76/76/76 73/73/73
f 74/74/74 77/77/77 76/76/76
f 77/77/77 78/78/78 76/76/76
f 77/77/77 79/79/79 78/78/78
f 79/79/79 80/80/80 78/78/78
f 79/79/79 81/81/81 80/80/80
f 81/81/81 82/82/82 80/80/80
f 81/81/81 83/83/83 82/82/82
f 83/83/83 84/84/84 82/82/82
f 83/83/83 85/85/85 84/84/84
f 85/85/85 86/86/86 84/84/84
f 89/89/89 88/88/88 87/87/87
f 87/87/87 90/90/90 89/89/89
f 90/90/90 91/91/91 89/89/89
f 90/90/90 92/92/92 91/91/91
f 95/95/95 94/94/94 93/93/93
f 93/93/93 96/96/96 95/95/95
f 96/96/96 97/97/97 95/95/95
f 96/96/96 98/98/98 97/97/97
