g Heron.024
v -0.03304368 0.02849944 -0.003351916
v -0.03058337 0.02849944 -0.009603238
v -0.02025186 0.02565952 -0.007090203
v -0.02124555 0.02565952 -0.002876453
v -0.03384614 0.01851665 -0.003636067
v -0.02258429 0.01759077 -0.003108835
v -0.01221685 0.02374899 -0.0004871557
v -0.01282138 0.01112365 -0.0001334165
v -0.01036338 0.02374899 -0.00454209
v -0.01105215 0.01112364 -0.005152072
v -0.01981753 0.01759077 -0.007126821
v -0.03058337 0.02849944 -0.009603238
v -0.01981753 0.01759077 -0.007126821
v -0.03149766 0.01851665 -0.009603236
v 0.03422416 -0.008374729 0.01235729
v 0.04597628 -0.003634395 0.007724336
v 0.04552431 -0.01512979 0.005164143
v 0.03369651 -0.01828942 0.009982292
v 0.03038717 -0.009394021 0.01311035
v 0.04606842 -0.01507307 0.001414454
v 0.02985877 -0.01945296 0.01077985
v 0.03532561 -0.01816584 0.005305067
v 0.04602725 -0.003585829 0.001785678
v 0.03153565 -0.01941906 0.005949656
v 0.03662348 -0.008113623 0.00574041
v 0.03287974 -0.009116463 0.00652964
v -0.03149766 0.01851665 -0.009603236
v -0.02019164 0.009522038 -0.008266101
v -0.01981753 0.01759077 -0.007126821
v -0.03241196 0.008533849 -0.01128366
v -0.02994525 0.002189293 -0.009915639
v -0.0382584 -0.002356129 -0.01128366
v -0.01342849 -0.01401585 -0.006600272
v -0.01174093 -0.001501698 -0.006600276
v -0.01457472 -0.01401585 -0.00142928
v -0.03248361 0.002189293 -0.00577569
v -0.03977992 -0.002356124 -0.005135361
v -0.02392303 0.009522038 -0.002213702
v -0.0346486 0.008533849 -0.002245663
v -0.01342591 -0.001501694 0.001001084
v 0.00125953 -0.006609492 0.006046521
v 0.0006259521 -0.0179526 0.00349197
v -0.01342849 -0.01401585 -0.006600272
v 0.02659985 -0.009646029 0.01276964
v 0.001659602 -0.0179526 -0.001943244
v 0.02609202 -0.01976717 0.01046554
v 0.001659602 -0.0179526 -0.001943244
v 0.0277971 -0.01977499 0.005546099
v 0.02919589 -0.008959484 0.006183263
v -0.01174093 -0.001501698 -0.006600276
v -0.01342849 -0.01401585 -0.006600272
v 0.002779001 -0.006609492 -0.001943247
v 0.0277971 -0.01977499 0.005546099
v -0.01981753 0.01759077 -0.007126821
v -0.02019164 0.009522038 -0.008266101
v -0.01174093 -0.001501698 -0.006600276
v -0.01105215 0.01112364 -0.005152072
v -0.03304368 0.02849944 -0.003351916
v -0.03384614 0.01851665 -0.003636067
v -0.03149766 0.01851665 -0.009603236
v -0.03058337 0.02849944 -0.009603238
v -0.03384614 0.01851665 -0.003636067
v -0.03241196 0.008533849 -0.01128366
v -0.03149766 0.01851665 -0.009603236
v -0.0346486 0.008533849 -0.002245663
v -0.0382584 -0.002356129 -0.01128366
v -0.03977992 -0.002356124 -0.005135361
v -0.01105215 0.01112364 -0.005152072
v -0.01221685 0.02374899 -0.0004871557
v -0.01036338 0.02374899 -0.00454209
v -0.01282138 0.01112365 -0.0001334165
v -0.01105215 0.01112364 -0.005152072
v -0.01174093 -0.001501698 -0.006600276
v -0.01342591 -0.001501694 0.001001084
v 0.002779001 -0.006609492 -0.001943247
v 0.00125953 -0.006609492 0.006046521
v -0.01342591 -0.001501694 0.001001084
v -0.01174093 -0.001501698 -0.006600276
v 0.02659985 -0.009646029 0.01276964
v 0.00125953 -0.006609492 0.006046521
v 0.002779001 -0.006609492 -0.001943247
v 0.02919589 -0.008959484 0.006183263
v 0.03038717 -0.009394021 0.01311035
v 0.02919589 -0.008959484 0.006183263
v 0.03287974 -0.009116463 0.00652964
v 0.03422416 -0.008374729 0.01235729
v 0.03038717 -0.009394021 0.01311035
v 0.03287974 -0.009116463 0.00652964
v 0.03662348 -0.008113623 0.00574041
v 0.04597628 -0.003634395 0.007724336
v 0.04602725 -0.003585829 0.001785678
v 0.04606842 -0.01507307 0.001414454
v 0.04597628 -0.003634395 0.007724336
v 0.04552431 -0.01512979 0.005164143
vt 0.1666667 0.1666667
vt 0.25 0.1666667
vt 0.25 0.1666667
vt 0.1666667 0.1666667
vt 0.1666667 0.1666667
vt 0.1666667 0.1666667
vt 0.1666667 0.1666667
vt 0.1666667 0.1666667
vt 0.25 0.1666667
vt 0.25 0.1666667
vt 0.25 0.1666667
vt 0.25 0.1666667
vt 0.25 0.1666667
vt 0.25 0.1666667
vt 0.1666667 0.1666667
vt 0.1666667 0.1666667
vt 0.1666667 0.1666667
vt 0.1666667 0.1666667
vt 0.1666667 0.1666667
vt 0.25 0.1666667
vt 0.1727975 0.1666667
vt 0.25 0.1666667
vt 0.25 0.1666667
vt 0.25 0.1666667
vt 0.25 0.1666667
vt 0.25 0.1666667
vt 0.25 0.1666667
vt 0.25 0.1666667
vt 0.25 0.1666667
vt 0.25 0.1666667
vt 0.25 0.1666667
vt 0.25 0.1666667
vt 0.25 0.1666667
vt 0.25 0.1666667
vt 0.1666667 0.1666667
vt 0.1666667 0.1666667
vt 0.1666667 0.1666667
vt 0.1666667 0.1666667
vt 0.1666667 0.1666667
vt 0.1666667 0.1666667
vt 0.1666667 0.1666667
vt 0.1666667 0.1666667
vt 0.25 0.1666667
vt 0.1666667 0.1666667
vt 0.25 0.1666667
vt 0.1666667 0.1666667
vt 0.25 0.1666667
vt 0.25 0.1666667
vt 0.25 0.1666667
vt 0.25 0.1666667
vt 0.25 0.1666667
vt 0.25 0.1666667
vt 0.25 0.1666667
vt 0.25 0.1666667
vt 0.25 0.1666667
vt 0.25 0.1666667
vt 0.25 0.1666667
vt 0.1666667 0.1666667
vt 0.1666667 0.1666667
vt 0.25 0.1666667
vt 0.25 0.1666667
vt 0.1666667 0.1666667
vt 0.25 0.1666667
vt 0.25 0.1666667
vt 0.1666667 0.1666667
vt 0.25 0.1666667
vt 0.1666667 0.1666667
vt 0.25 0.1666667
vt 0.1666667 0.1666667
vt 0.25 0.1666667
vt 0.1666667 0.1666667
vt 0.25 0.1666667
vt 0.25 0.1666667
vt 0.1666667 0.1666667
vt 0.25 0.1666667
vt 0.1666667 0.1666667
vt 0.1666667 0.1666667
vt 0.25 0.1666667
vt 0.1666667 0.1666667
vt 0.1666667 0.1666667
vt 0.25 0.1666667
vt 0.25 0.1666667
vt 0.1666667 0.1666667
vt 0.25 0.1666667
vt 0.25 0.1666667
vt 0.1666667 0.1666667
vt 0.1666667 0.1666667
vt 0.25 0.1666667
vt 0.25 0.1666667
vt 0.1666667 0.1666667
vt 0.25 0.1666667
vt 0.25 0.1666667
vt 0.1666667 0.1666667
vt 0.1666667 0.1666667
vn 0.1190689 0.6087557 0.7843718
vn 0.3282548 0.7560081 -0.5663043
vn 0.3143198 0.6899665 -0.6520348
vn 0.04872322 0.697588 0.7148405
vn -0.03651328 0.05273195 0.997941
vn -0.138224 0.05530753 0.9888555
vn -0.05506913 0.7013316 0.7107049
vn -0.2199775 0.0865021 0.9716622
vn 0.3046759 0.6426546 -0.7029706
vn 0.2863035 0.07839327 -0.9549266
vn 0.2444965 0.05953046 -0.967821
vn 0.3282548 0.7560081 -0.5663043
vn 0.2444965 0.05953046 -0.967821
vn 0.2215846 0.0670037 -0.9728364
vn 0.3574058 -0.2278524 0.9057286
vn 0.4258666 -0.2216885 0.8772069
vn 0.420316 -0.7457532 0.5169011
vn 0.3821032 -0.6870652 0.6180118
vn 0.1150494 -0.2311544 0.9660907
vn -0.1990926 -0.4924534 -0.8472614
vn 0.1505616 -0.7463611 0.6482872
vn 0.02610079 -0.7189316 -0.6945906
vn -0.3808616 0.05677969 -0.922887
vn 0.170084 -0.7474648 -0.6421587
vn -0.3191369 0.06391253 -0.9455511
vn -0.07619035 0.06289556 -0.9951077
vn 0.2215846 0.0670037 -0.9728364
vn 0.2441051 0.06131276 -0.9678085
vn 0.2444965 0.05953046 -0.967821
vn 0.2328721 -0.01777708 -0.9723449
vn 0.07635061 -0.5214741 -0.8498443
vn 0.533915 -0.8328575 -0.1458871
vn -0.1684359 -0.6546218 -0.736953
vn 0.2330504 -0.003533139 -0.9724582
vn -0.5305621 -0.7164339 0.4530191
vn 0.0236298 -0.7356229 0.6769789
vn 0.4157661 -0.7819157 0.4644853
vn -0.1560118 0.001579335 0.9877539
vn 0.0919216 -0.2193877 0.9712979
vn -0.327555 -0.0865766 0.9408572
vn -0.3174965 -0.1812607 0.9307742
vn -0.2955064 -0.7664097 0.5703438
vn -0.1684359 -0.6546218 -0.736953
vn -0.1673418 -0.2108469 0.963089
vn 0.08229332 -0.729324 -0.6792012
vn -0.1139023 -0.7712607 0.6262453
vn 0.08229332 -0.729324 -0.6792012
vn 0.1492928 -0.7392613 -0.6566616
vn 0.1885001 0.02105016 -0.9818475
vn 0.2330504 -0.003533139 -0.9724582
vn -0.1684359 -0.6546218 -0.736953
vn 0.2876611 -0.02042518 -0.9575145
vn 0.1492928 -0.7392613 -0.6566616
vn 0.2444965 0.05953046 -0.967821
vn 0.2441051 0.06131276 -0.9678085
vn 0.2330504 -0.003533139 -0.9724582
vn 0.2863035 0.07839327 -0.9549266
vn -0.9271657 0.08491597 -0.3649013
vn -0.9413192 0.08563112 -0.3264744
vn -0.9410371 0.08561752 -0.32729
vn -0.9271657 0.08491597 -0.3649013
vn -0.9413192 0.08563112 -0.3264744
vn -0.9246069 0.281348 -0.2567981
vn -0.9410371 0.08561752 -0.32729
vn -0.9245972 0.2813875 -0.25679
vn -0.8608336 0.4621508 -0.2130312
vn -0.8608336 0.4621508 -0.2130312
vn 0.9474887 -0.05204229 0.3155262
vn 0.9274932 -0.05126232 0.3703088
vn 0.9274932 -0.05126232 0.3703088
vn 0.9476326 -0.0520477 0.3150927
vn 0.9474887 -0.05204229 0.3155262
vn 0.7987711 0.565534 0.2052708
vn 0.7728552 0.6031038 0.1973845
vn 0.2064534 0.9761395 0.06729616
vn 0.1905532 0.9793361 0.06775177
vn 0.7728552 0.6031038 0.1973845
vn 0.7987711 0.565534 0.2052708
vn 0.03911801 0.9968867 0.06845866
vn 0.1905532 0.9793361 0.06775177
vn 0.2064534 0.9761395 0.06729616
vn 0.02706224 0.9973235 0.06792446
vn -0.1089458 0.9938263 0.0209741
vn 0.02706224 0.9973235 0.06792446
vn -0.1754469 0.9844086 -0.01257345
vn -0.3146648 0.9472815 -0.06036342
vn -0.1089458 0.9938263 0.0209741
vn -0.1754469 0.9844086 -0.01257345
vn -0.3744041 0.9253129 -0.06014647
vn 0.3025137 0.9529731 -0.01810208
vn 0.7216833 0.6920132 0.01705813
vn 0.9978085 -0.02561701 0.06100861
vn 0.3025137 0.9529731 -0.01810208
vn 0.9978085 -0.02561701 0.06100861
g Heron.024_0
f 3/3/3 2/2/2 1/1/1
f 4/4/4 3/3/3 1/1/1
f 4/4/4 1/1/1 5/5/5
f 6/6/6 4/4/4 5/5/5
f 7/7/7 4/4/4 6/6/6
f 8/8/8 7/7/7 6/6/6
f 7/7/7 9/9/9 4/4/4
f 9/9/9 3/3/3 4/4/4
f 9/9/9 10/10/10 3/3/3
f 10/10/10 11/11/11 3/3/3
f 3/3/3 13/13/13 12/12/12
f 13/13/13 14/14/14 12/12/12
f 17/17/17 16/16/16 15/15/15
f 18/18/18 17/17/17 15/15/15
f 18/18/18 15/15/15 19/19/19
f 17/17/17 18/18/18 20/20/20
f 21/21/21 18/18/18 19/19/19
f 18/18/18 22/22/22 20/20/20
f 22/22/22 18/18/18 21/21/21
f 23/23/23 20/20/20 22/22/22
f 24/24/24 22/22/22 21/21/21
f 25/25/25 23/23/23 22/22/22
f 25/25/25 22/22/22 24/24/24
f 26/26/26 25/25/25 24/24/24
g Heron.024_1
f 29/29/29 28/28/28 27/27/27
f 28/28/28 30/30/30 27/27/27
f 28/28/28 31/31/31 30/30/30
f 31/31/31 32/32/32 30/30/30
f 33/33/33 31/31/31 28/28/28
f 34/34/34 33/33/33 28/28/28
f 33/33/33 35/35/35 31/31/31
f 31/31/31 36/36/36 32/32/32
f 35/35/35 36/36/36 31/31/31
f 36/36/36 37/37/37 32/32/32
f 36/36/36 38/38/38 37/37/37
f 38/38/38 39/39/39 37/37/37
f 38/38/38 6/6/6 39/39/39
f 6/6/6 5/5/5 39/39/39
f 8/8/8 6/6/6 38/38/38
f 40/40/40 8/8/8 38/38/38
f 40/40/40 38/38/38 36/36/36
f 35/35/35 40/40/40 36/36/36
f 41/41/41 40/40/40 35/35/35
f 42/42/42 41/41/41 35/35/35
f 42/42/42 35/35/35 43/43/43
f 44/44/44 41/41/41 42/42/42
f 45/45/45 42/42/42 43/43/43
f 46/46/46 44/44/44 42/42/42
f 46/46/46 42/42/42 47/47/47
f 48/48/48 46/46/46 47/47/47
f 46/46/46 21/21/21 44/44/44
f 21/21/21 19/19/19 44/44/44
f 24/24/24 21/21/21 46/46/46
f 48/48/48 24/24/24 46/46/46
f 26/26/26 24/24/24 48/48/48
f 49/49/49 26/26/26 48/48/48
f 45/45/45 51/51/51 50/50/50
f 52/52/52 45/45/45 50/50/50
f 49/49/49 53/53/53 52/52/52
f 53/53/53 45/45/45 52/52/52
f 56/56/56 55/55/55 54/54/54
f 57/57/57 56/56/56 54/54/54
g Heron.024_2
f 60/60/60 59/59/59 58/58/58
f 61/61/61 60/60/60 58/58/58
f 64/64/64 63/63/63 62/62/62
f 63/63/63 65/65/65 62/62/62
f 65/65/65 63/63/63 66/66/66
f 67/67/67 65/65/65 66/66/66
f 70/70/70 69/69/69 68/68/68
f 69/69/69 71/71/71 68/68/68
f 73/73/73 72/72/72 71/71/71
f 74/74/74 73/73/73 71/71/71
f 77/77/77 76/76/76 75/75/75
f 78/78/78 77/77/77 75/75/75
f 81/81/81 80/80/80 79/79/79
f 82/82/82 81/81/81 79/79/79
f 84/84/84 79/79/79 83/83/83
f 85/85/85 84/84/84 83/83/83
f 88/88/88 87/87/87 86/86/86
f 89/89/89 88/88/88 86/86/86
f 89/89/89 86/86/86 90/90/90
f 91/91/91 89/89/89 90/90/90
f 91/91/91 93/93/93 92/92/92
f 93/93/93 94/94/94 92/92/92
