g Heron.009
v -0.0005753118 0.001580962 -0.00198471
v -0.0001782495 0.002489967 -0.000722046
v -0.001107901 0.001418638 -8.995125E-05
v -0.001337145 0.0008938211 -0.0008189512
v -0.0007178574 6.77198E-05 -0.002502439
v -0.001419447 2.015052E-05 -0.001117863
v -0.0005514318 -0.001471758 -0.00207748
v -0.001323364 -0.0008686644 -0.0008725113
v -0.0001396054 -0.002449437 -0.0008721519
v -0.001085594 -0.001433125 -0.0001766152
v 0.0003603107 -0.002491875 0.0006531512
v -0.0007969647 -0.001457634 0.000704019
v 0.0007573718 -0.001582871 0.001915816
v -0.0005677205 -0.000932818 0.001433019
v 0.0008999174 -6.962838E-05 0.002433544
v -0.000485428 -5.913796E-05 0.001731931
v 0.0007334918 0.00146985 0.002008586
v -0.0005815107 0.0008296674 0.00148658
v 0.0003216666 0.002447528 0.0008032571
v -0.0008192712 0.001394138 0.0007906829
v -0.0001782495 0.002489967 -0.000722046
v -0.001107901 0.001418638 -8.995125E-05
v 0.000209524 -0.001587792 -0.002526548
v -0.0002821618 5.212722E-05 -0.002777128
v 0.000837968 -0.002698069 -0.001291443
v 0.001303752 -0.002723399 0.0004215764
v 0.001803429 -0.001733018 0.001803055
v 0.001747906 -1.847329E-05 0.002375097
v -0.0002821618 5.212722E-05 -0.002777128
v 0.0002559107 0.001750716 -0.002467597
v 0.0008882254 0.002806482 -0.001163546
v 0.001852342 0.001655397 0.001898217
v 0.001747906 -1.847329E-05 0.002375097
v 0.001331493 0.002726821 0.0005704247
v 0.0008882254 0.002806482 -0.001163546
v -0.00133437 -2.628388E-05 0.0004320239
v -0.00133437 -2.628388E-05 0.0004320239
v -0.00133437 -2.628388E-05 0.0004320239
v -0.00133437 -2.628388E-05 0.0004320239
v -0.00133437 -2.628388E-05 0.0004320239
v -0.00133437 -2.628388E-05 0.0004320239
v -0.00133437 -2.628388E-05 0.0004320239
v -0.00133437 -2.628388E-05 0.0004320239
v -0.00133437 -2.628388E-05 0.0004320239
v -0.00133437 -2.628388E-05 0.0004320239
v 0.001852342 0.001655397 0.001898217
v -0.0002821618 5.212722E-05 -0.002777128
v 0.001747906 -1.847329E-05 0.002375097
v 0.0002559107 0.001750716 -0.002467597
v 0.0008882254 0.002806482 -0.001163546
v 0.001331493 0.002726821 0.0005704247
v 0.001747906 -1.847329E-05 0.002375097
v -0.0002821618 5.212722E-05 -0.002777128
v 0.000209524 -0.001587792 -0.002526548
v 0.001803429 -0.001733018 0.001803055
v 0.000837968 -0.002698069 -0.001291443
v 0.001303752 -0.002723399 0.0004215764
vt 0.09999999 0.6666667
vt 0 0.6666667
vt 0 0.8333333
vt 0.09999999 0.8333333
vt 0.2 0.6666667
vt 0.2 0.8333333
vt 0.3 0.6666667
vt 0.3 0.8333333
vt 0.4 0.6666667
vt 0.4 0.8333333
vt 0.5 0.6666667
vt 0.5 0.8333333
vt 0.6 0.6666667
vt 0.6 0.8333333
vt 0.7 0.6666667
vt 0.7 0.8333333
vt 0.8 0.6666667
vt 0.8 0.8333333
vt 0.9 0.6666667
vt 0.9 0.8333333
vt 0.9999999 0.6666667
vt 0.9999999 0.8333333
vt 0.3 0.5710221
vt 0.2033554 0.612116
vt 0.4 0.5494282
vt 0.5 0.5594858
vt 0.6 0.552604
vt 0.7 0.5726799
vt 0.2 0.6102879
vt 0.09999999 0.5618978
vt 0 0.5382139
vt 0.8 0.5443716
vt 0.7051686 0.5773516
vt 0.9 0.5514751
vt 0.9999999 0.5382139
vt 0.05000001 1
vt 0.15 1
vt 0.25 1
vt 0.35 1
vt 0.45 1
vt 0.55 1
vt 0.65 1
vt 0.75 1
vt 0.85 1
vt 0.95 1
vt 0.8 0.5443716
vt 0.2 0.6102879
vt 0.7051686 0.5773516
vt 0.09999999 0.5618978
vt 0.9999999 0.5382139
vt 0.9 0.5514751
vt 0.7051686 0.5773516
vt 0.2 0.6102879
vt 0.3 0.5710221
vt 0.6 0.552604
vt 0.4 0.5494282
vt 0.5 0.5594858
vn -0.6786997 0.5256214 -0.5129218
vn -0.5462376 0.8334759 -0.0833212
vn -0.8574312 0.5003275 0.1203499
vn -0.9394556 0.3125472 -0.1404898
vn -0.7264221 0.01902869 -0.6869854
vn -0.9689025 -5.784848E-05 -0.2474426
vn -0.6723164 -0.5050048 -0.5412586
vn -0.9345224 -0.3180855 -0.1596538
vn -0.5331808 -0.8353161 -0.1340342
vn -0.8494474 -0.5200549 0.08934268
vn -0.3642821 -0.8496549 0.3812941
vn -0.746174 -0.5288231 0.4044384
vn -0.226381 -0.541392 0.80972
vn -0.6641487 -0.3410401 0.6652804
vn -0.1781222 -0.03430289 0.9834103
vn -0.6347033 -0.02843206 0.7722327
vn -0.238203 0.4888257 0.8392311
vn -0.6690838 0.2895916 0.684444
vn -0.3773389 0.8191374 0.4320062
vn -0.7541575 0.4915613 0.4354469
vn -0.5462376 0.8334759 -0.0833212
vn -0.8574312 0.5003275 0.1203499
vn -0.4776656 -0.5805319 -0.6594075
vn -0.5416037 0.0131016 -0.8405318
vn -0.3296714 -0.9169129 -0.2249168
vn -0.1463285 -0.9309363 0.3345823
vn 0.007301718 -0.5970982 0.8021349
vn 0.06163045 -0.01282986 0.9980166
vn -0.5416037 0.0131016 -0.8405318
vn -0.4823519 0.6150184 -0.62377
vn -0.3442627 0.9234313 -0.1695815
vn -0.009804081 0.5542135 0.8323168
vn 0.06163045 -0.01282986 0.9980166
vn -0.1611614 0.9070136 0.3890416
vn -0.3442627 0.9234313 -0.1695815
vn -0.9502664 -0.01688357 0.3109802
vn -0.9502664 -0.01688357 0.3109802
vn -0.9502664 -0.01688357 0.3109802
vn -0.9502664 -0.01688357 0.3109802
vn -0.9502664 -0.01688357 0.3109802
vn -0.9502664 -0.01688357 0.3109802
vn -0.9502664 -0.01688357 0.3109802
vn -0.9502664 -0.01688357 0.3109802
vn -0.9502664 -0.01688357 0.3109802
vn -0.9502664 -0.01688357 0.3109802
vn 0.9256335 -0.1569934 -0.3443189
vn 0.9344183 -0.004019015 -0.3561551
vn 0.9343932 -0.006401138 -0.3561862
vn 0.9260296 -0.155448 -0.3439548
vn 0.9465824 -0.05315098 -0.3180513
vn 0.9465824 -0.05315098 -0.3180513
vn 0.9343932 -0.006401138 -0.3561862
vn 0.9344183 -0.004019015 -0.3561551
vn 0.92716 0.1564421 -0.340441
vn 0.9269508 0.157232 -0.3406469
vn 0.9441683 0.08014367 -0.3195672
vn 0.9441683 0.08014367 -0.3195672
g Heron.009_0
f 3/3/3 2/2/2 1/1/1
f 4/4/4 3/3/3 1/1/1
f 4/4/4 1/1/1 5/5/5
f 6/6/6 4/4/4 5/5/5
f 6/6/6 5/5/5 7/7/7
f 8/8/8 6/6/6 7/7/7
f 8/8/8 7/7/7 9/9/9
f 10/10/10 8/8/8 9/9/9
f 10/10/10 9/9/9 11/11/11
f 12/12/12 10/10/10 11/11/11
f 12/12/12 11/11/11 13/13/13
f 14/14/14 12/12/12 13/13/13
f 14/14/14 13/13/13 15/15/15
f 16/16/16 14/14/14 15/15/15
f 16/16/16 15/15/15 17/17/17
f 18/18/18 16/16/16 17/17/17
f 18/18/18 17/17/17 19/19/19
f 20/20/20 18/18/18 19/19/19
f 20/20/20 19/19/19 21/21/21
f 22/22/22 20/20/20 21/21/21
g Heron.009_1
f 5/5/5 24/24/24 23/23/23
f 7/7/7 5/5/5 23/23/23
f 7/7/7 23/23/23 25/25/25
f 9/9/9 7/7/7 25/25/25
f 9/9/9 25/25/25 26/26/26
f 11/11/11 9/9/9 26/26/26
f 11/11/11 26/26/26 13/13/13
f 26/26/26 27/27/27 13/13/13
f 13/13/13 27/27/27 28/28/28
f 15/15/15 13/13/13 28/28/28
f 5/5/5 1/1/1 29/29/29
f 1/1/1 30/30/30 29/29/29
f 1/1/1 2/2/2 30/30/30
f 2/2/2 31/31/31 30/30/30
f 15/15/15 33/33/33 32/32/32
f 17/17/17 15/15/15 32/32/32
f 17/17/17 32/32/32 19/19/19
f 32/32/32 34/34/34 19/19/19
f 19/19/19 34/34/34 21/21/21
f 34/34/34 35/35/35 21/21/21
g Heron.009_2
f 36/36/36 3/3/3 4/4/4
f 37/37/37 4/4/4 6/6/6
f 38/38/38 6/6/6 8/8/8
f 39/39/39 8/8/8 10/10/10
f 40/40/40 10/10/10 12/12/12
f 41/41/41 12/12/12 14/14/14
f 42/42/42 14/14/14 16/16/16
f 43/43/43 16/16/16 18/18/18
f 44/44/44 18/18/18 20/20/20
f 45/45/45 20/20/20 22/22/22
g Heron.009_3
f 48/48/48 47/47/47 46/46/46
f 47/47/47 49/49/49 46/46/46
f 46/46/46 49/49/49 50/50/50
f 51/51/51 46/46/46 50/50/50
f 54/54/54 53/53/53 52/52/52
f 55/55/55 54/54/54 52/52/52
f 54/54/54 55/55/55 56/56/56
f 55/55/55 57/57/57 56/56/56
