g Heron.025
v 0.001306371 -0.01565458 -0.006130738
v 0.002827892 -0.01565458 1.755774E-05
v 0.008674334 -0.004764606 1.755416E-05
v 0.006437691 -0.00476461 -0.009020442
v -0.002850513 -0.01565458 -0.0106316
v 0.0003270814 -0.00476461 -0.01563672
v -0.00961131 -0.01565458 -0.01133924
v -0.00961131 -0.004764615 -0.01667695
v 0.007240151 0.00521819 -0.009472344
v 0.0008240112 0.00521819 -0.01641943
v 0.0008240112 0.00521819 -0.01641943
v -0.009611309 0.005218185 -0.01751167
v 0.009588631 0.005218195 0.00169798
v 0.01050292 0.01520099 0.001697979
v 0.008042609 0.01520099 -0.009924246
v 0.0008240112 0.00521819 -0.01641943
v 0.001320941 0.01520099 -0.01720215
v -0.009611309 0.005218185 -0.01751167
v -0.009611309 0.01520099 -0.0183464
v 0.006437691 -0.00476461 -0.009020442
v 0.008674334 -0.004764606 1.755416E-05
v 0.009588631 0.005218195 0.00169798
v 0.007240151 0.00521819 -0.009472344
v -0.002850513 -0.01565458 0.01066672
v -0.00961131 -0.01565458 0.01137436
v -0.00961131 -0.004764606 0.01671205
v 0.0003270814 -0.004764606 0.01567182
v 0.001306371 -0.01565458 0.006165856
v -0.009611309 0.005218195 0.01754677
v 0.006437691 -0.004764606 0.009055553
v 0.0008240112 0.005218195 0.01645453
v 0.007240151 0.005218195 0.007665149
v 0.007240151 0.005218195 0.007665149
v 0.001320941 0.01520099 0.01723725
v 0.008042609 0.01520099 0.0079493
v 0.0008240112 0.005218195 0.01645453
v -0.009611309 0.01520099 0.0183815
v -0.009611309 0.005218195 0.01754677
v 0.008042609 0.01520099 0.0079493
v 0.009588631 0.005218195 0.00169798
v 0.007240151 0.005218195 0.007665149
v 0.01050292 0.01520099 0.001697979
v 0.008042609 0.01520099 -0.009924246
v 0.001320941 0.01520099 0.01723725
v 0.001320941 0.01520099 -0.01720215
v -0.009611309 0.01520099 0.0183815
v -0.009611309 0.01520099 -0.0183464
v -0.009611309 0.005218185 -0.01751167
v -0.009611309 0.005218195 0.01754677
v -0.00961131 -0.004764615 -0.01667695
v -0.00961131 -0.004764606 0.01671205
v -0.00961131 -0.01565458 -0.01133924
v -0.00961131 -0.01565458 0.01137436
v -0.002850513 -0.01565458 -0.0106316
v -0.002850513 -0.01565458 0.01066672
v 0.001306371 -0.01565458 -0.006130738
v 0.001306371 -0.01565458 0.006165856
v 0.002827892 -0.01565458 1.755774E-05
v 0.008674334 -0.004764606 1.755416E-05
v 0.006437691 -0.004764606 0.009055553
v 0.007240151 0.005218195 0.007665149
v 0.009588631 0.005218195 0.00169798
vt 0.3333333 0.1666667
vt 0.25 0.1666667
vt 0.25 0.1666667
vt 0.3333333 0.1666667
vt 0.4166667 0.1666667
vt 0.4166667 0.1666667
vt 0.5 0.1666667
vt 0.5 0.1666667
vt 0.3333333 0.1666667
vt 0.4166666 0.1666667
vt 0.4166666 0.1666667
vt 0.5 0.1666667
vt 0.25 0.1666667
vt 0.25 0.1666667
vt 0.3333333 0.1666667
vt 0.4166666 0.1666667
vt 0.4166667 0.1666667
vt 0.5 0.1666667
vt 0.5 0.1666667
vt 0.3333333 0.1666667
vt 0.25 0.1666667
vt 0.25 0.1666667
vt 0.3333333 0.1666667
vt 0.08333334 0.1666667
vt 0 0.1666667
vt 0 0.1666667
vt 0.08333334 0.1666667
vt 0.1666667 0.1666667
vt 0 0.1666667
vt 0.1666667 0.1666667
vt 0.08333335 0.1666667
vt 0.1666667 0.1666667
vt 0.1666667 0.1666667
vt 0.08333334 0.1666667
vt 0.1666667 0.1666667
vt 0.08333335 0.1666667
vt 0 0.1666667
vt 0 0.1666667
vt 0.1666667 0.1666667
vt 0.25 0.1666667
vt 0.1666667 0.1666667
vt 0.25 0.1666667
vt 0.3333333 0.1666667
vt 0.08333334 0.1666667
vt 0.4166667 0.1666667
vt 0 0.1666667
vt 0.5 0.1666667
vt 0.5 0.1666667
vt 0 0.1666667
vt 0.5 0.1666667
vt 0 0.1666667
vt 0.5 0.1666667
vt 0 0.1666667
vt 0.4166667 0.1666667
vt 0.08333334 0.1666667
vt 0.3333333 0.1666667
vt 0.1666667 0.1666667
vt 0.25 0.1666667
vt 0.25 0.1666667
vt 0.1666667 0.1666667
vt 0.1666667 0.1666667
vt 0.25 0.1666667
vn 0.7750942 -0.4756019 -0.415971
vn 0.8608336 -0.4621508 -0.213031
vn 0.9416169 -0.2532544 -0.221855
vn 0.8482949 -0.2767382 -0.4514549
vn 0.3840453 -0.475752 -0.7913085
vn 0.4329272 -0.2783975 -0.8573616
vn 0.09357288 -0.4381918 -0.8939978
vn 0.1004655 -0.2619001 -0.9598516
vn 0.8833961 -0.08745278 -0.4603948
vn 0.4461575 -0.09200742 -0.8902124
vn 0.4461575 -0.09200742 -0.8902124
vn 0.1037407 -0.08287618 -0.9911454
vn 0.9738501 -0.0798851 -0.2126842
vn 0.9746244 -0.08845737 -0.2056269
vn 0.8844256 -0.09221932 -0.4574789
vn 0.4461575 -0.09200742 -0.8902124
vn 0.4480577 -0.09202693 -0.8892555
vn 0.1037407 -0.08287618 -0.9911454
vn 0.1037407 -0.08287615 -0.9911456
vn 0.8482949 -0.2767382 -0.4514549
vn 0.9416169 -0.2532544 -0.221855
vn 0.9738501 -0.0798851 -0.2126842
vn 0.8833961 -0.08745278 -0.4603948
vn 0.3840453 -0.4757514 0.791309
vn 0.09357301 -0.438191 0.8939982
vn 0.1004656 -0.2618993 0.9598517
vn 0.4500553 -0.2643569 0.8529747
vn 0.6501141 -0.465658 0.6004285
vn 0.1037408 -0.08287573 0.9911456
vn 0.7370562 -0.2364886 0.6331046
vn 0.4869557 -0.07670696 0.8700518
vn 0.7922859 -0.05915867 0.6072753
vn 0.7922859 -0.05915867 0.6072753
vn 0.4985324 -0.09115009 0.8620656
vn 0.8060918 -0.08376554 0.5858321
vn 0.4869557 -0.07670696 0.8700518
vn 0.1037406 -0.08287579 0.9911456
vn 0.1037408 -0.08287573 0.9911456
vn 0.4601153 0.8691961 0.1810856
vn 0.9410371 -0.08561752 0.32729
vn 0.9413192 -0.08563111 0.3264745
vn 0.4966007 0.8456884 0.1954454
vn 6.275176E-07 1 -1.247478E-07
vn -1.317645E-07 1 -1.261242E-07
vn 0 1 -1.265913E-07
vn -0.7120844 0.7020938 0
vn -0.7120844 0.702094 0
vn -1 1.031111E-07 0
vn -1 1.031111E-07 0
vn -1 0 0
vn -1 0 0
vn -0.8101252 -0.586257 0
vn -0.8101251 -0.586257 0
vn 0 -1 2.160709E-07
vn 0 -1 2.160709E-07
vn -1.440535E-07 -1 3.539921E-07
vn 0.3908764 -0.9153462 0.09673078
vn 0.3871519 -0.9170245 0.09580941
vn 0.9246069 -0.2813481 0.2567981
vn 0.9245972 -0.2813876 0.25679
vn 0.9413192 -0.08563111 0.3264745
vn 0.9410371 -0.08561752 0.32729
g Heron.025_0
f 3/3/3 2/2/2 1/1/1
f 4/4/4 3/3/3 1/1/1
f 4/4/4 1/1/1 5/5/5
f 6/6/6 4/4/4 5/5/5
f 6/6/6 5/5/5 7/7/7
f 8/8/8 6/6/6 7/7/7
f 9/9/9 4/4/4 6/6/6
f 10/10/10 9/9/9 6/6/6
f 11/11/11 6/6/6 8/8/8
f 12/12/12 11/11/11 8/8/8
f 14/14/14 13/13/13 9/9/9
f 15/15/15 14/14/14 9/9/9
f 15/15/15 9/9/9 16/16/16
f 17/17/17 15/15/15 16/16/16
f 17/17/17 16/16/16 18/18/18
f 19/19/19 17/17/17 18/18/18
f 22/22/22 21/21/21 20/20/20
f 23/23/23 22/22/22 20/20/20
g Heron.025_1
f 26/26/26 25/25/25 24/24/24
f 27/27/27 26/26/26 24/24/24
f 27/27/27 24/24/24 28/28/28
f 29/29/29 26/26/26 27/27/27
f 30/30/30 27/27/27 28/28/28
f 31/31/31 29/29/29 27/27/27
f 31/31/31 27/27/27 30/30/30
f 32/32/32 31/31/31 30/30/30
f 35/35/35 34/34/34 33/33/33
f 34/34/34 36/36/36 33/33/33
f 34/34/34 37/37/37 36/36/36
f 37/37/37 38/38/38 36/36/36
g Heron.025_2
f 41/41/41 40/40/40 39/39/39
f 40/40/40 42/42/42 39/39/39
f 43/43/43 39/39/39 42/42/42
f 44/44/44 39/39/39 43/43/43
f 45/45/45 44/44/44 43/43/43
f 46/46/46 44/44/44 45/45/45
f 47/47/47 46/46/46 45/45/45
f 46/46/46 47/47/47 48/48/48
f 49/49/49 46/46/46 48/48/48
f 48/48/48 50/50/50 49/49/49
f 50/50/50 51/51/51 49/49/49
f 51/51/51 50/50/50 52/52/52
f 53/53/53 51/51/51 52/52/52
f 53/53/53 52/52/52 54/54/54
f 55/55/55 53/53/53 54/54/54
f 55/55/55 54/54/54 56/56/56
f 57/57/57 55/55/55 56/56/56
f 57/57/57 56/56/56 58/58/58
f 57/57/57 58/58/58 59/59/59
f 60/60/60 57/57/57 59/59/59
f 60/60/60 59/59/59 61/61/61
f 59/59/59 62/62/62 61/61/61
