g Heron.012
v -0.005000022 0.001892603 4.304869E-05
v -0.004330152 0.001892604 0.002543049
v 4.422618E-08 -0.01230193 0.001390881
v -0.004330152 0.001892604 0.002543049
v -0.002500023 0.001892604 0.004373176
v 4.422618E-08 -0.01230193 0.001390881
v -0.002500023 0.001892604 0.004373176
v 4.541827E-08 0.001892605 0.005043049
v 4.422618E-08 -0.01230193 0.001390881
v 4.541827E-08 0.001892602 -0.004956951
v -0.002500023 0.001892602 -0.004287079
v 4.422618E-08 -0.01230193 -0.001950513
v -0.002500023 0.001892602 -0.004287079
v -0.004330152 0.001892602 -0.002456951
v 4.422618E-08 -0.01230193 -0.001950513
v -0.004330152 0.001892602 -0.002456951
v -0.005000022 0.001892603 4.304869E-05
v 4.422618E-08 -0.01230193 -0.001950513
v 0.004999977 0.001892604 4.304869E-05
v 4.422618E-08 -0.01230193 0.001390881
v 0.004330107 0.001892605 0.002543049
v 0.004330107 0.001892605 0.002543049
v 4.422618E-08 -0.01230193 0.001390881
v 0.002499977 0.001892605 0.004373176
v 0.002499977 0.001892605 0.004373176
v 4.422618E-08 -0.01230193 0.001390881
v 4.541827E-08 0.001892605 0.005043049
v 4.541827E-08 0.001892602 -0.004956951
v 4.422618E-08 -0.01230193 -0.001950513
v 0.002499977 0.001892603 -0.004287079
v 0.002499977 0.001892603 -0.004287079
v 4.422618E-08 -0.01230193 -0.001950513
v 0.004330107 0.001892604 -0.002456951
v 0.004330107 0.001892604 -0.002456951
v 4.422618E-08 -0.01230193 -0.001950513
v 0.004999977 0.001892604 4.304869E-05
v -0.005000022 0.001892603 4.304869E-05
v 4.541827E-08 0.001892604 4.304869E-05
v 4.422618E-08 -0.01230193 -0.001950513
v 0.004999977 0.001892604 4.304869E-05
v 4.422618E-08 -0.01230193 0.001390881
v 4.541827E-08 0.001892604 4.304869E-05
v -0.005000022 0.001892603 4.304869E-05
v 0.004999977 0.001892604 4.304869E-05
v 0.004999977 0.001892604 4.304869E-05
v 0.004330107 0.001892605 0.002543049
v 0.002499977 0.001892605 0.004373176
v 4.541827E-08 0.001892604 4.304869E-05
v 0.002499977 0.001892603 -0.004287079
v 0.004330107 0.001892604 -0.002456951
v 4.541827E-08 0.001892605 0.005043049
v 4.541827E-08 0.001892604 4.304869E-05
v -0.002500023 0.001892604 0.004373176
v -0.002500023 0.001892604 0.004373176
v -0.004330152 0.001892604 0.002543049
v -0.005000022 0.001892603 4.304869E-05
v -0.004330152 0.001892602 -0.002456951
v -0.002500023 0.001892602 -0.004287079
v 4.541827E-08 0.001892602 -0.004956951
v 4.541827E-08 0.001892604 4.304869E-05
v 0.002499977 0.001892603 -0.004287079
vt 0.25 0.8333333
vt 0.1666667 0.8333333
vt 0.2083333 1
vt 0.1666667 0.8333333
vt 0.08333334 0.8333333
vt 0.125 1
vt 0.08333334 0.8333333
vt 0 0.8333333
vt 0.04166669 1
vt 0.5 0.8333333
vt 0.4166667 0.8333333
vt 0.4583333 1
vt 0.4166667 0.8333333
vt 0.3333333 0.8333333
vt 0.375 1
vt 0.3333333 0.8333333
vt 0.25 0.8333333
vt 0.2916667 1
vt 0.25 0.8333333
vt 0.2083333 1
vt 0.1666667 0.8333333
vt 0.1666667 0.8333333
vt 0.125 1
vt 0.08333334 0.8333333
vt 0.08333334 0.8333333
vt 0.04166669 1
vt 0 0.8333333
vt 0.5 0.8333333
vt 0.4583333 1
vt 0.4166667 0.8333333
vt 0.4166667 0.8333333
vt 0.375 1
vt 0.3333333 0.8333333
vt 0.3333333 0.8333333
vt 0.2916667 1
vt 0.25 0.8333333
vt 0.25 0.8333333
vt 0.25 0.8333333
vt 0.2916667 1
vt 0.25 0.8333333
vt 0.2083333 1
vt 0.25 0.8333333
vt 0.25 0.8333333
vt 0.25 0.8333333
vt 0 0
vt 0 0
vt 0 0
vt 0 0
vt 0 0
vt 0 0
vt 0 0.8333333
vt 0 0
vt 0.08333334 0.8333333
vt 0 0
vt 0 0
vt 0 0
vt 0 0
vt 0 0
vt 0.5 0.8333333
vt 0 0
vt 0.4166667 0.8333333
vn -0.9211208 -0.3010316 0.2468126
vn -0.8338969 -0.2923858 0.4681096
vn 1.989291E-06 -0.3944951 0.918898
vn -0.8338969 -0.2923858 0.4681096
vn -0.4885922 -0.2609789 0.8325669
vn 1.989291E-06 -0.3944951 0.918898
vn -0.4885922 -0.2609789 0.8325669
vn 6.346737E-06 -0.2491783 0.9684576
vn 1.989291E-06 -0.3944951 0.918898
vn 6.47789E-06 -0.2072058 -0.9782973
vn -0.4961078 -0.2254035 -0.8384929
vn 1.828707E-06 -0.356724 -0.9342098
vn -0.4961078 -0.2254035 -0.8384929
vn -0.841571 -0.273352 -0.4658723
vn 1.828707E-06 -0.356724 -0.9342098
vn -0.841571 -0.273352 -0.4658723
vn -0.9241914 -0.2907699 -0.2476352
vn 1.828707E-06 -0.356724 -0.9342098
vn 0.9211232 -0.3010238 0.2468132
vn 1.989291E-06 -0.3944951 0.918898
vn 0.8338985 -0.2923785 0.4681113
vn 0.8338985 -0.2923785 0.4681113
vn 1.989291E-06 -0.3944951 0.918898
vn 0.4885971 -0.2609748 0.8325654
vn 0.4885971 -0.2609748 0.8325654
vn 1.989291E-06 -0.3944951 0.918898
vn 6.346737E-06 -0.2491783 0.9684576
vn 6.47789E-06 -0.2072058 -0.9782973
vn 1.828707E-06 -0.356724 -0.9342098
vn 0.4961126 -0.2253993 -0.8384911
vn 0.4961126 -0.2253993 -0.8384911
vn 1.828707E-06 -0.356724 -0.9342098
vn 0.8415725 -0.2733446 -0.4658738
vn 0.8415725 -0.2733446 -0.4658738
vn 1.828707E-06 -0.356724 -0.9342098
vn 0.9241937 -0.2907619 -0.2476358
vn 0 -0.1390808 0.990281
vn 0 -0.1390808 0.990281
vn 0 -0.1390808 0.990281
vn 0 -0.1390808 0.990281
vn 0 -0.09452914 -0.9955221
vn 0 -0.09452912 -0.9955221
vn 0 -0.09452912 -0.9955221
vn 0 -0.09452912 -0.9955221
vn -1.468735E-07 1 -2.086186E-07
vn -1.468735E-07 1 -2.086186E-07
vn -1.468735E-07 1 -2.086186E-07
vn -1.468735E-07 1 -2.086186E-07
vn -1.192106E-07 1 -2.458719E-07
vn -1.192106E-07 1 -2.458719E-07
vn -1.192081E-07 1 -2.384186E-07
vn -1.19209E-07 1 -2.384186E-07
vn -1.745298E-07 1 -2.384121E-07
vn -1.192079E-07 1 -2.086137E-07
vn -1.192079E-07 1 -2.086137E-07
vn -1.192079E-07 1 -2.086137E-07
vn -1.468701E-07 1 -2.309652E-07
vn -1.468701E-07 1 -2.309652E-07
vn -1.192105E-07 1 -2.384186E-07
vn -1.192095E-07 1 -2.384186E-07
vn -1.745393E-07 1 -2.384251E-07
g Heron.012_0
f 3/3/3 2/2/2 1/1/1
f 6/6/6 5/5/5 4/4/4
f 9/9/9 8/8/8 7/7/7
f 12/12/12 11/11/11 10/10/10
f 15/15/15 14/14/14 13/13/13
f 18/18/18 17/17/17 16/16/16
f 21/21/21 20/20/20 19/19/19
f 24/24/24 23/23/23 22/22/22
f 27/27/27 26/26/26 25/25/25
f 30/30/30 29/29/29 28/28/28
f 33/33/33 32/32/32 31/31/31
f 36/36/36 35/35/35 34/34/34
g Heron.012_1
f 39/39/39 38/38/38 37/37/37
f 38/38/38 39/39/39 40/40/40
f 43/43/43 42/42/42 41/41/41
f 42/42/42 44/44/44 41/41/41
g Heron.012_2
f 47/47/47 46/46/46 45/45/45
f 48/48/48 47/47/47 45/45/45
f 48/48/48 45/45/45 49/49/49
f 45/45/45 50/50/50 49/49/49
f 47/47/47 52/52/52 51/51/51
f 52/52/52 53/53/53 51/51/51
f 55/55/55 54/54/54 48/48/48
f 56/56/56 55/55/55 48/48/48
f 57/57/57 56/56/56 48/48/48
f 58/58/58 57/57/57 48/48/48
f 58/58/58 60/60/60 59/59/59
f 60/60/60 61/61/61 59/59/59
