g Heron.021
v -0.03064995 0.01925003 -0.004559837
v -0.05338053 0.02977306 -0.02096678
v -0.0300113 0.01925004 -0.008305917
v -0.03080846 0.008430829 -0.003270756
v -0.04749309 0.01701129 -0.01796084
v -0.03024905 -0.002388372 -0.003203052
v -0.04016104 0.004249525 -0.01410578
v -0.02988861 -0.01084788 -0.006005745
v 0.01045298 -0.01499272 0.01448645
v 0.0095613 0.0003333902 0.01347893
v 0.01099647 -0.02510968 0.01216875
v 0.03900035 0.002342372 0.005449547
v -0.02928611 -0.01073444 -0.008629865
v 0.009305763 -0.02510968 0.007293493
v -0.04016104 0.004249525 -0.01410578
v -0.02786569 -0.002291231 -0.008529255
v 0.007967653 -0.01499272 0.00793533
v 0.008669615 0.0156595 0.0124659
v 0.0384552 0.01635039 0.005072453
v 0.005935755 0.0156595 0.009218938
v 0.03678378 0.01635039 0.0008103228
v 0.006951704 0.0003333855 0.00793533
v 0.03740491 0.002342372 0.0001744556
v -0.02858751 0.008479404 -0.009014736
v -0.04749309 0.01701129 -0.01796084
v -0.03080846 0.008430829 -0.003270756
v -0.03064995 0.01925003 -0.004559837
v 0.008669615 0.0156595 0.0124659
v -0.0300113 0.01925004 -0.008305917
v -0.05338053 0.02977306 -0.02096678
v -0.02858751 0.008479404 -0.009014736
v 0.005935755 0.0156595 0.009218938
v 0.006951704 0.0003333855 0.00793533
v 0.008669615 0.0156595 0.0124659
v -0.0300113 0.01925004 -0.008305917
v 0.03954551 -0.01166564 0.006649208
v 0.04017908 -0.02300875 0.004094658
v 0.03914544 -0.02300875 -0.001340556
v 0.03802603 -0.01166564 -0.00134056
v 0.03914544 -0.02300875 -0.001340556
v 0.04017908 -0.02300875 0.004094658
v 0.03954551 -0.01166564 0.006649208
v 0.03802603 -0.01166564 -0.00134056
v 0.03900035 0.002342372 0.005449547
v 0.03740491 0.002342372 0.0001744556
v 0.0384552 0.01635039 0.005072453
v 0.03678378 0.01635039 0.0008103228
vt 0.1666666 0.1666667
vt 0.1666667 0.1666667
vt 0.25 0.1666667
vt 0.1666667 0.1666667
vt 0.1666667 0.1666667
vt 0.1666667 0.1666667
vt 0.1666667 0.1666667
vt 0.1666667 0.1666667
vt 0.1666667 0.1666667
vt 0.1666667 0.1666667
vt 0.1666667 0.1666667
vt 0.1666666 0.1666667
vt 0.25 0.1666667
vt 0.25 0.1666667
vt 0.25 0.1666667
vt 0.25 0.1666667
vt 0.25 0.1666667
vt 0.1666667 0.1666667
vt 0.1666666 0.1666667
vt 0.25 0.1666667
vt 0.25 0.1666667
vt 0.25 0.1666667
vt 0.25 0.1666667
vt 0.25 0.1666667
vt 0.25 0.1666667
vt 0.1666667 0.1666667
vt 0.1666666 0.1666667
vt 0.1666667 0.1666667
vt 0.25 0.1666667
vt 0.25 0.1666667
vt 0.25 0.1666667
vt 0.25 0.1666667
vt 0.25 0.1666667
vt 0.1666667 0.1666667
vt 0.25 0.1666667
vt 0.1666667 0.1666667
vt 0.1666667 0.1666667
vt 0.25 0.1666667
vt 0.25 0.1666667
vt 0.25 0.1666667
vt 0.1666667 0.1666667
vt 0.1666667 0.1666667
vt 0.25 0.1666667
vt 0.1666666 0.1666667
vt 0.25 0.1666667
vt 0.1666666 0.1666667
vt 0.25 0.1666667
vn -0.2685633 0.684637 0.6776031
vn -0.4283087 0.8736926 -0.2306793
vn 0.484643 0.65228 -0.5827968
vn -0.5472539 -0.01962841 0.8367365
vn -0.8274276 0.0453325 -0.5597396
vn -0.5978479 -0.145647 0.7882669
vn -0.7116143 -0.4138898 -0.567715
vn -0.6524282 -0.6503445 0.389088
vn -0.08543524 -0.1120081 0.9900278
vn -0.06925654 0.05662933 0.9959902
vn -0.08677023 -0.7581128 0.646325
vn 0.2503698 0.07261845 0.965423
vn -0.2137805 -0.6522518 -0.7272314
vn -0.1559354 -0.8033814 -0.5746846
vn -0.7116143 -0.4138898 -0.567715
vn 0.4091031 -0.009255852 -0.9124411
vn 0.08225749 0.01619727 -0.9964795
vn -0.06329317 0.6552321 0.7527714
vn 0.1655309 0.6946243 0.700069
vn 0.1247782 0.7978527 -0.5897978
vn -0.1877091 0.7408871 -0.6448656
vn 0.09891015 0.03711545 -0.994404
vn -0.2718048 0.05390549 -0.9608415
vn 0.4369039 0.0369035 -0.8987508
vn -0.8274276 0.0453325 -0.5597396
vn -0.5472539 -0.01962841 0.8367365
vn -0.2685633 0.684637 0.6776031
vn -0.06329317 0.6552321 0.7527714
vn 0.484643 0.65228 -0.5827968
vn -0.4283087 0.8736926 -0.2306793
vn 0.4369039 0.0369035 -0.8987508
vn 0.1247782 0.7978527 -0.5897978
vn 0.09891015 0.03711545 -0.994404
vn -0.06329317 0.6552321 0.7527714
vn 0.484643 0.65228 -0.5827968
vn 0.2647153 -0.04949404 0.9630556
vn 0.2149752 -0.7920359 0.5713709
vn -0.1608881 -0.6920583 -0.7036834
vn -0.2948614 0.04322326 -0.9545619
vn 0.9778082 0.09649519 -0.1859564
vn 0.9778082 0.09649519 -0.1859564
vn 0.9756768 0.06873035 -0.2081606
vn 0.9758511 0.07051715 -0.2067417
vn 0.9606414 0.04276611 -0.2744797
vn 0.9606016 0.04276507 -0.2746194
vn 0.9451901 0.04233774 -0.3237643
vn 0.9451901 0.04233774 -0.3237643
g Heron.021_0
f 3/3/3 2/2/2 1/1/1
f 1/1/1 2/2/2 4/4/4
f 2/2/2 5/5/5 4/4/4
f 4/4/4 5/5/5 6/6/6
f 5/5/5 7/7/7 6/6/6
f 8/8/8 6/6/6 7/7/7
f 4/4/4 6/6/6 9/9/9
f 6/6/6 8/8/8 9/9/9
f 10/10/10 4/4/4 9/9/9
f 8/8/8 11/11/11 9/9/9
f 9/9/9 12/12/12 10/10/10
f 11/11/11 8/8/8 13/13/13
f 14/14/14 11/11/11 13/13/13
f 8/8/8 15/15/15 13/13/13
f 13/13/13 16/16/16 14/14/14
f 15/15/15 16/16/16 13/13/13
f 16/16/16 17/17/17 14/14/14
f 18/18/18 10/10/10 12/12/12
f 19/19/19 18/18/18 12/12/12
f 20/20/20 18/18/18 19/19/19
f 21/21/21 20/20/20 19/19/19
f 22/22/22 20/20/20 21/21/21
f 17/17/17 16/16/16 22/22/22
f 23/23/23 22/22/22 21/21/21
f 23/23/23 17/17/17 22/22/22
f 16/16/16 24/24/24 22/22/22
f 16/16/16 15/15/15 24/24/24
f 15/15/15 25/25/25 24/24/24
f 27/27/27 26/26/26 10/10/10
f 28/28/28 27/27/27 10/10/10
f 25/25/25 30/30/30 29/29/29
f 31/31/31 25/25/25 29/29/29
f 31/31/31 29/29/29 32/32/32
f 33/33/33 31/31/31 32/32/32
f 32/32/32 35/35/35 34/34/34
f 35/35/35 1/1/1 34/34/34
g Heron.021_1
f 12/12/12 9/9/9 36/36/36
f 36/36/36 9/9/9 37/37/37
f 9/9/9 11/11/11 37/37/37
f 37/37/37 11/11/11 38/38/38
f 11/11/11 14/14/14 38/38/38
f 38/38/38 14/14/14 39/39/39
f 14/14/14 17/17/17 39/39/39
f 17/17/17 23/23/23 39/39/39
g Heron.021_2
f 42/42/42 41/41/41 40/40/40
f 43/43/43 42/42/42 40/40/40
f 42/42/42 43/43/43 44/44/44
f 43/43/43 45/45/45 44/44/44
f 46/46/46 44/44/44 45/45/45
f 47/47/47 46/46/46 45/45/45
