g Heron.028
v -0.003224856 -0.0007661819 -0.001460896
v -0.003666217 0.004959335 -0.002221514
v -0.004819581 0.003510895 -0.003994666
v -0.002304847 0.0003891754 -4.651546E-05
v -0.00412521 0.005228214 0.0002468824
v -0.0008585903 -0.0004097938 -0.001867677
v -0.002670981 0.0006036758 0.001922436
v -0.001563842 0.0004546737 -0.0002384615
v -0.001853101 0.00395771 -0.004504629
v -0.002737243 0.005041447 -0.002462154
v 0.0004781079 0.0008878517 0.001642027
v -0.0001773345 0.005584469 -0.0001046562
v 0.0006110024 -0.0002347183 0.001996827
v -0.0009795353 -0.0003904724 0.002093611
v -0.0004824412 -0.004549708 0.003228991
v -0.001688172 0.003370571 0.001060739
v 0.0002906728 -0.003393855 0.00282428
v 0.001114476 0.003733845 0.0006172227
v 0.002147496 -8.029937E-05 0.001903729
v 0.0004781079 0.0008878517 0.001642027
v 0.0002330232 0.005033913 9.633541E-05
v -0.002060354 0.004845161 0.0004850817
v 0.0001656449 0.005868435 0.001804066
v -0.00121021 0.002643719 0.003099462
v -0.001748044 0.005234184 0.002223158
v 0.001156971 0.003504619 0.002936903
v 0.00146929 -0.003232036 0.003142588
v 0.002445224 -0.004328265 0.003445122
v 0.003627236 0.001172047 0.001361618
v 0.001946576 0.0009070587 -0.0007051945
v 0.001192153 0.000839386 -0.0005129385
v -0.0001773345 0.005584469 -0.0001046562
v 0.001663629 0.005608578 -0.003047277
v 0.003770591 0.005940761 -0.0004561949
v 0.0004576504 0.008800736 -0.00440023
v 0.002056409 0.009052792 -0.002434126
v 0.002146828 0.004574165 -0.00503843
v 0.002332013 8.19397E-05 -0.002293469
v -0.0008585903 -0.0004097938 -0.001867677
v 0.0007178414 0.00552372 -0.00280625
v -0.0009137419 0.008714256 -0.001722661
v -0.001853101 0.00395771 -0.004504629
v -0.0002298438 0.008667831 -0.003786656
v -0.00219402 0.007471409 -0.005084211
v 0.002146828 0.004574165 -0.00503843
v 0.0008242905 0.008015824 -0.005911113
v 0.0004576504 0.008800736 -0.00440023
v 0.002332013 8.19397E-05 -0.002293469
v 0.004724905 0.006035919 -0.003352157
v 0.002146828 0.004574165 -0.00503843
v 0.00438845 0.001247959 -0.0009483909
v 0.001545547 -0.00545589 -0.0005605388
v 0.003770591 0.005940761 -0.0004561949
v 0.002056409 0.009052792 -0.002434126
v 0.002780534 0.009125023 -0.004631573
v 0.003627236 0.001172047 0.001361618
v 0.00297809 -0.004393058 0.0007907653
v 0.002554077 -0.01157814 0.001677
v 0.00381018 -0.01064619 0.002861875
v 0.0008042562 -0.01181043 0.002320707
v -0.0004500544 -0.00572082 0.0001735902
v 0.003342956 -0.01058937 0.005189313
v 0.003942379 -0.01923482 0.004267803
v 0.005124983 -0.01835741 0.005383345
v 0.002294954 -0.01945356 0.004873847
v 0.004685091 -0.0183039 0.0075746
v 0.0007758558 -0.01078353 0.004999803
v 0.002268213 -0.01848672 0.007396175
v 0.006534429 -0.02587553 0.01072093
v 0.003128953 -0.02613309 0.01046953
v 0.001398977 -0.01872137 0.006240653
v 0.001904168 -0.02646374 0.008841354
v 0.003166623 -0.02749541 0.006915479
v 0.003942379 -0.01923482 0.004267803
v 0.005487924 -0.02718724 0.006061542
v 0.005124983 -0.01835741 0.005383345
v 0.007154251 -0.02595092 0.007633378
v 0.004685091 -0.0183039 0.0075746
v -0.0001474059 -0.01103275 0.003772462
v -0.001535393 -0.004833903 0.001829259
v -0.003224856 -0.0007661819 -0.001460896
v -0.00474673 4.833221E-05 0.0001966763
v -0.002670981 0.0006036758 0.001922436
v -0.004819581 0.003510895 -0.003994666
v -0.006727492 0.004532013 -0.001916639
v -0.0044618 0.007209015 -0.00511911
v -0.00412521 0.005228214 0.0002468824
v -0.005909516 0.007983818 -0.003542305
v -0.003934915 0.008512135 -0.001900636
v 0.002146828 0.004574165 -0.00503843
v 0.004724905 0.006035919 -0.003352157
v 0.002780534 0.009125023 -0.004631573
v 0.0008242905 0.008015824 -0.005911113
v -0.0001773345 0.005584469 -0.0001046562
v -0.002869499 0.008299351 -0.00352377
v -0.0009137419 0.008714256 -0.001722661
v -0.002737243 0.005041447 -0.002462154
v -0.00219402 0.007471409 -0.005084211
v -0.001853101 0.00395771 -0.004504629
v -0.003666217 0.004959335 -0.002221514
v -0.00412521 0.005228214 0.0002468824
v -0.003934915 0.008512135 -0.001900636
v -0.003586624 0.008308087 -0.003773647
v -0.004819581 0.003510895 -0.003994666
v -0.003666217 0.004959335 -0.002221514
v -0.0044618 0.007209015 -0.00511911
v -0.002869499 0.008299351 -0.00352377
v -0.00219402 0.007471409 -0.005084211
v -0.002549942 0.01113979 -0.00568931
v -0.003007572 0.01170073 -0.004632133
v -0.0009137419 0.008714256 -0.001722661
v -0.001682576 0.01198181 -0.003411907
v -0.005909516 0.007983818 -0.003542305
v -0.0044618 0.007209015 -0.00511911
v -0.004104011 0.01090713 -0.006243552
v -0.005091541 0.01143566 -0.005167974
v -0.003934915 0.008512135 -0.001900636
v -0.003744619 0.01179604 -0.00404815
v -0.00350704 0.01165684 -0.005325778
v -0.004104011 0.01090713 -0.006243552
v 0.0004576504 0.008800736 -0.00440023
v 0.0008242905 0.008015824 -0.005911113
v -0.0004982448 0.01145748 -0.006783799
v -0.0007483372 0.01199289 -0.005753187
v 0.002056409 0.009052792 -0.002434126
v 0.0004576504 0.008800736 -0.00440023
v 0.0003422093 0.01216484 -0.004412063
v 0.0008242905 0.008015824 -0.005911113
v 0.0008361649 0.01221407 -0.005910996
v -0.0004982448 0.01145748 -0.006783799
v 0.002780534 0.009125023 -0.004631573
v 0.0003422093 0.01216484 -0.004412063
v 0.002056409 0.009052792 -0.002434126
v 0.0008361649 0.01221407 -0.005910996
v 0.0003422093 0.01216484 -0.004412063
v -0.0007483372 0.01199289 -0.005753187
v -0.0004982448 0.01145748 -0.006783799
v -0.001219242 0.01195034 -0.004810236
v -0.001682576 0.01198181 -0.003411907
v -0.003007572 0.01170073 -0.004632133
v -0.002549942 0.01113979 -0.00568931
v -0.00219402 0.007471409 -0.005084211
v -0.0002298438 0.008667831 -0.003786656
v -0.001682576 0.01198181 -0.003411907
v -0.0009137419 0.008714256 -0.001722661
v -0.00350704 0.01165684 -0.005325778
v -0.004104011 0.01090713 -0.006243552
v -0.003744619 0.01179604 -0.00404815
v -0.002352636 0.00827589 -0.0003025961
v -0.002183292 0.008486824 0.0006398487
v -0.001145618 0.008830757 0.0004126024
v -0.001109092 0.008378238 -0.0005133867
vt 0.3748979 0.1666667
vt 0.333122 0.1666667
vt 0.3748979 0.1666667
vt 0.333122 0.1666667
vt 0.2867608 0.1666667
vt 0.3766064 0.1666667
vt 0.2867608 0.1666667
vt 0.333311 0.1666667
vt 0.3766064 0.1666667
vt 0.333311 0.1666667
vt 0.2841679 0.1666667
vt 0.2841679 0.1666667
vt 0.2850028 0.1666667
vt 0.28631 0.1666667
vt 0.2893537 0.1666667
vt 0.28631 0.1666667
vt 0.2878171 0.1666667
vt 0.2794609 0.1666667
vt 0.2794609 0.1666667
vt 0.2815751 0.1666667
vt 0.2794609 0.1666667
vt 0.28631 0.1666667
vt 0.2779683 0.1666667
vt 0.2878171 0.1666667
vt 0.2878171 0.1666667
vt 0.2779683 0.1666667
vt 0.2779683 0.1666667
vt 0.2763894 0.1666667
vt 0.2789823 0.1666667
vt 0.3336889 0.1666667
vt 0.3334999 0.1666667
vt 0.2815751 0.1666667
vt 0.3336889 0.1666667
vt 0.2789823 0.1666667
vt 0.3336889 0.1666667
vt 0.2776859 0.1666667
vt 0.3800234 0.1666667
vt 0.3800234 0.1666667
vt 0.3783149 0.1666667
vt 0.3334999 0.1666667
vt 0.2828614 0.1666667
vt 0.3783149 0.1666667
vt 0.3334999 0.1666667
vt 0.3774522 0.1666667
vt 0.3800234 0.1666667
vt 0.3808776 0.1666667
vt 0.3336889 0.1666667
vt 0.3817319 0.1666667
vt 0.3338779 0.1666667
vt 0.3817319 0.1666667
vt 0.3338779 0.1666667
vt 0.3817319 0.1666667
vt 0.2763894 0.1666667
vt 0.2776859 0.1666667
vt 0.333878 0.1666667
vt 0.2763894 0.1666667
vt 0.3338779 0.1666667
vt 0.3817319 0.1666667
vt 0.3338779 0.1666667
vt 0.3731894 0.1666667
vt 0.3731894 0.1666667
vt 0.2763894 0.1666667
vt 0.3817319 0.1666667
vt 0.3338779 0.1666667
vt 0.3731895 0.1666667
vt 0.2763894 0.1666667
vt 0.2893537 0.1666667
vt 0.2893536 0.1666667
vt 0.2763894 0.1666667
vt 0.2893537 0.1666667
vt 0.332933 0.1666667
vt 0.332933 0.1666667
vt 0.3731894 0.1666667
vt 0.3817319 0.1666667
vt 0.3817319 0.1666667
vt 0.3338779 0.1666667
vt 0.3338779 0.1666667
vt 0.2763894 0.1666667
vt 0.332933 0.1666667
vt 0.332933 0.1666667
vt 0.3731894 0.1666667
vt 0.332933 0.1666667
vt 0.2893537 0.1666667
vt 0.3731894 0.1666667
vt 0.332933 0.1666667
vt 0.3740437 0.1666667
vt 0.2893537 0.1666667
vt 0.332933 0.1666667
vt 0.2880572 0.1666667
vt 0.3817319 0.1666667
vt 0.3338779 0.1666667
vt 0.333878 0.1666667
vt 0.3808776 0.1666667
vt 0.2841679 0.1666667
vt 0.333311 0.1666667
vt 0.2828614 0.1666667
vt 0.333311 0.1666667
vt 0.3774522 0.1666667
vt 0.3766064 0.1666667
vt 0.333122 0.1666667
vt 0.2867608 0.1666667
vt 0.2880572 0.1666667
vt 0.333122 0.1666667
vt 0.3748979 0.1666667
vt 0.333122 0.1666667
vt 0.3740437 0.1666667
vt 0.333311 0.1666667
vt 0.3774522 0.1666667
vt 0.3766064 0.1666667
vt 0.333311 0.1666667
vt 0.2828614 0.1666667
vt 0.2841679 0.1666667
vt 0.332933 0.1666667
vt 0.3740437 0.1666667
vt 0.3731894 0.1666667
vt 0.332933 0.1666667
vt 0.2880572 0.1666667
vt 0.2893537 0.1666667
vt 0.333122 0.1666667
vt 0.3748979 0.1666667
vt 0.3336889 0.1666667
vt 0.3808776 0.1666667
vt 0.3800234 0.1666667
vt 0.3336889 0.1666667
vt 0.2776859 0.1666667
vt 0.3336889 0.1666667
vt 0.2789823 0.1666667
vt 0.3808776 0.1666667
vt 0.3338779 0.1666667
vt 0.3817319 0.1666667
vt 0.333878 0.1666667
vt 0.2763894 0.1666667
vt 0.2776859 0.1666667
vt 0.3338779 0.1666667
vt 0.2789823 0.1666667
vt 0.3336889 0.1666667
vt 0.3817319 0.1666667
vt 0.3334999 0.1666667
vt 0.2841679 0.1666667
vt 0.333311 0.1666667
vt 0.3783149 0.1666667
vt 0.3774522 0.1666667
vt 0.3334999 0.1666667
vt 0.2815751 0.1666667
vt 0.2828614 0.1666667
vt 0.333122 0.1666667
vt 0.3748979 0.1666667
vt 0.2867608 0.1666667
vt 0.28631 0.1666667
vt 0.2878171 0.1666667
vt 0.2779683 0.1666667
vt 0.2794609 0.1666667
vn -0.4630886 -0.2925108 -0.836652
vn 0.9849642 0.02768135 -0.1705264
vn -0.01368205 -0.4064877 -0.9135538
vn 0.481703 0.7970558 -0.3642309
vn 0.1962411 0.4583904 0.8668146
vn -0.3031431 0.2260741 -0.9257401
vn -0.2049122 0.4657851 0.8608457
vn -0.6961696 0.7133414 -0.08057388
vn -0.2645131 -0.3849409 -0.8842247
vn -0.9729935 -0.04023457 0.2272989
vn 0.03619828 0.6382726 0.7689588
vn 0.211412 0.4166752 0.8841305
vn 0.5170482 0.7868404 -0.3369618
vn -0.502269 0.08226648 0.8607892
vn -0.4280375 0.1228661 0.8953702
vn -0.7795598 -0.3760362 -0.5008825
vn -0.08509925 0.1869951 0.9786679
vn 0.7359016 0.01230109 -0.6769767
vn 0.5181127 0.3143555 0.7954494
vn 0.03619828 0.6382726 0.7689588
vn 0.5671249 0.0136855 -0.8235182
vn -0.786651 -0.2950339 -0.5423422
vn 0.6372133 0.5410637 0.5488255
vn -0.5786411 0.006822042 0.8155538
vn -0.6390055 0.204085 0.7416342
vn 0.5833737 0.3073114 0.7518209
vn 0.02477374 0.2354174 0.9715787
vn 0.5406232 0.2390273 0.8065931
vn 0.5137516 0.4163211 0.7501573
vn -0.6743757 0.7372313 -0.04132277
vn 0.4505474 0.8126928 -0.3695096
vn 0.211412 0.4166752 0.8841305
vn -0.9525874 -0.09746832 0.2882311
vn 0.2303902 0.4377003 0.8691022
vn -0.9223733 -0.2114459 0.3232928
vn -0.01275881 0.5313429 0.8470608
vn -0.2415006 -0.4244693 -0.8726416
vn 0.1485607 -0.1007771 -0.9837549
vn -0.3031431 0.2260741 -0.9257401
vn 0.9463283 0.07747233 -0.3137846
vn 0.1761219 0.484441 0.8569119
vn -0.2645131 -0.3849409 -0.8842247
vn 0.9273579 0.176665 -0.3298436
vn -0.2906419 -0.183111 -0.9391473
vn -0.2415006 -0.4244693 -0.8726416
vn -0.3742144 -0.3604519 -0.8544226
vn -0.9223733 -0.2114459 0.3232928
vn 0.1485607 -0.1007771 -0.9837549
vn 0.9449773 0.1465535 -0.2924722
vn -0.2415006 -0.4244693 -0.8726416
vn 0.9638165 -0.1959684 -0.1807045
vn 0.4397784 -0.3052494 -0.8446407
vn 0.2303902 0.4377003 0.8691022
vn -0.01275881 0.5313429 0.8470608
vn 0.848179 0.3817943 -0.3671857
vn 0.5137516 0.4163211 0.7501573
vn 0.954601 -0.1483708 -0.258308
vn 0.2606917 -0.2795309 -0.9240683
vn 0.9587007 0.05082593 -0.279839
vn -0.618184 -0.3625119 -0.697448
vn -0.6820114 -0.4326579 -0.5896334
vn 0.5719582 0.3153847 0.7572293
vn 0.2461172 -0.2171886 -0.9445928
vn 0.9492168 0.1096974 -0.2948795
vn -0.6225365 -0.2999182 -0.7228399
vn 0.5569376 0.3890044 0.7338229
vn -0.491151 0.1578312 0.8566563
vn -0.4900088 0.2269878 0.8416459
vn 0.573055 -0.284497 0.7685503
vn -0.3372547 -0.3946494 0.8546994
vn -0.9895179 -0.1086268 0.09515642
vn -0.8449319 -0.4868079 0.2216036
vn -0.4198905 -0.8380727 -0.348319
vn 0.2461172 -0.2171886 -0.9445928
vn 0.2999001 -0.739164 -0.6030726
vn 0.9492168 0.1096974 -0.2948795
vn 0.9399111 -0.3051089 -0.153218
vn 0.5569376 0.3890044 0.7338229
vn -0.9780737 -0.1725115 0.1166692
vn -0.9211476 -0.3318546 0.2033704
vn -0.4630886 -0.2925108 -0.836652
vn -0.9031183 -0.3484603 0.250904
vn -0.2049122 0.4657851 0.8608457
vn -0.01368205 -0.4064877 -0.9135538
vn -0.9949582 -0.03023416 0.09562472
vn 0.1168305 -0.2992451 -0.9469969
vn 0.1962411 0.4583904 0.8668146
vn -0.9739454 0.2266084 -0.00888776
vn 0.3402411 0.5007684 0.7959064
vn -0.2415006 -0.4244693 -0.8726416
vn 0.9449773 0.1465535 -0.2924722
vn 0.848179 0.3817943 -0.3671857
vn -0.3742144 -0.3604519 -0.8544226
vn 0.211412 0.4166752 0.8841305
vn -0.9741277 0.03329576 0.2235321
vn 0.1761219 0.484441 0.8569119
vn -0.9729935 -0.04023457 0.2272989
vn -0.2906419 -0.183111 -0.9391473
vn -0.2645131 -0.3849409 -0.8842247
vn 0.9849642 0.02768135 -0.1705264
vn 0.1962411 0.4583904 0.8668146
vn 0.3402411 0.5007684 0.7959064
vn 0.9893139 -0.08000725 -0.1218888
vn -0.01368205 -0.4064877 -0.9135538
vn 0.9849642 0.02768135 -0.1705264
vn 0.1168305 -0.2992451 -0.9469969
vn -0.9741277 0.03329576 0.2235321
vn -0.2906419 -0.183111 -0.9391473
vn -0.3021459 0.2041297 -0.9311492
vn -0.8093255 0.5866379 -0.0291249
vn 0.1761219 0.484441 0.8569119
vn 0.08556408 0.7721187 0.6296915
vn -0.9739454 0.2266084 -0.00888776
vn 0.1168305 -0.2992451 -0.9469969
vn 0.1184933 0.13742 -0.9833998
vn -0.7780265 0.5987241 -0.1902745
vn 0.3402411 0.5007684 0.7959064
vn 0.3116868 0.7879773 0.5309832
vn 0.6684462 0.6476948 -0.3656106
vn 0.1184933 0.13742 -0.9833998
vn -0.9223733 -0.2114459 0.3232928
vn -0.3742144 -0.3604519 -0.8544226
vn -0.4745708 0.1142496 -0.8727713
vn -0.8550869 0.5184588 0.005184914
vn -0.01275881 0.5313429 0.8470608
vn -0.9223733 -0.2114459 0.3232928
vn -0.1240797 0.7369496 0.6644619
vn -0.3742144 -0.3604519 -0.8544226
vn 0.5078974 0.7476222 -0.4279034
vn -0.4745708 0.1142496 -0.8727713
vn 0.848179 0.3817943 -0.3671857
vn -0.1240797 0.7369496 0.6644619
vn -0.01275881 0.5313429 0.8470608
vn 0.5078974 0.7476222 -0.4279034
vn -0.1240797 0.7369496 0.6644619
vn -0.8550869 0.5184588 0.005184914
vn -0.4745708 0.1142496 -0.8727713
vn 0.5928597 0.6923991 -0.4112186
vn 0.08556408 0.7721187 0.6296915
vn -0.8093255 0.5866379 -0.0291249
vn -0.3021459 0.2041297 -0.9311492
vn -0.2906419 -0.183111 -0.9391473
vn 0.9273579 0.176665 -0.3298436
vn 0.08556408 0.7721187 0.6296915
vn 0.1761219 0.484441 0.8569119
vn 0.6684462 0.6476948 -0.3656106
vn 0.1184933 0.13742 -0.9833998
vn 0.3116868 0.7879773 0.5309832
vn -0.7291183 0.3374608 -0.5954046
vn -0.6165783 0.6543807 0.4377408
vn 0.3652388 0.902636 0.2277033
vn 0.3571712 0.4928065 -0.7934547
g Heron.028_0
f 3/3/3 2/2/2 1/1/1
f 2/2/2 4/4/4 1/1/1
f 2/2/2 5/5/5 4/4/4
f 1/1/1 4/4/4 6/6/6
f 5/5/5 7/7/7 4/4/4
f 4/4/4 8/8/8 6/6/6
f 4/4/4 7/7/7 8/8/8
f 9/9/9 6/6/6 8/8/8
f 10/10/10 9/9/9 8/8/8
f 10/10/10 8/8/8 11/11/11
f 7/7/7 11/11/11 8/8/8
f 12/12/12 10/10/10 11/11/11
f 11/11/11 7/7/7 13/13/13
f 7/7/7 14/14/14 13/13/13
f 7/7/7 15/15/15 14/14/14
f 16/16/16 13/13/13 14/14/14
f 15/15/15 17/17/17 14/14/14
f 16/16/16 14/14/14 17/17/17
f 18/18/18 13/13/13 16/16/16
f 18/18/18 19/19/19 13/13/13
f 20/20/20 13/13/13 19/19/19
f 21/21/21 18/18/18 16/16/16
f 22/22/22 21/21/21 16/16/16
f 21/21/21 23/23/23 18/18/18
f 22/22/22 16/16/16 24/24/24
f 24/24/24 16/16/16 17/17/17
f 25/25/25 22/22/22 24/24/24
f 23/23/23 26/26/26 18/18/18
f 23/23/23 25/25/25 26/26/26
f 25/25/25 24/24/24 26/26/26
f 18/18/18 26/26/26 19/19/19
f 26/26/26 24/24/24 27/27/27
f 24/24/24 17/17/17 27/27/27
f 26/26/26 27/27/27 19/19/19
f 28/28/28 27/27/27 17/17/17
f 15/15/15 28/28/28 17/17/17
f 29/29/29 19/19/19 27/27/27
f 29/29/29 20/20/20 19/19/19
f 28/28/28 29/29/29 27/27/27
f 20/20/20 29/29/29 30/30/30
f 31/31/31 20/20/20 30/30/30
f 32/32/32 20/20/20 31/31/31
f 33/33/33 30/30/30 29/29/29
f 34/34/34 33/33/33 29/29/29
f 35/35/35 33/33/33 34/34/34
f 36/36/36 35/35/35 34/34/34
f 33/33/33 37/37/37 30/30/30
f 37/37/37 38/38/38 30/30/30
f 31/31/31 30/30/30 38/38/38
f 39/39/39 31/31/31 38/38/38
f 40/40/40 32/32/32 31/31/31
f 40/40/40 31/31/31 39/39/39
f 41/41/41 32/32/32 40/40/40
f 42/42/42 40/40/40 39/39/39
f 43/43/43 41/41/41 40/40/40
f 43/43/43 40/40/40 42/42/42
f 44/44/44 43/43/43 42/42/42
f 46/46/46 45/45/45 33/33/33
f 47/47/47 46/46/46 33/33/33
f 50/50/50 49/49/49 48/48/48
f 49/49/49 51/51/51 48/48/48
f 48/48/48 51/51/51 52/52/52
f 49/49/49 53/53/53 51/51/51
f 54/54/54 53/53/53 49/49/49
f 55/55/55 54/54/54 49/49/49
f 53/53/53 56/56/56 51/51/51
f 51/51/51 56/56/56 57/57/57
f 51/51/51 57/57/57 52/52/52
f 56/56/56 28/28/28 57/57/57
f 52/52/52 57/57/57 58/58/58
f 57/57/57 28/28/28 59/59/59
f 57/57/57 59/59/59 58/58/58
f 52/52/52 58/58/58 60/60/60
f 61/61/61 52/52/52 60/60/60
f 28/28/28 62/62/62 59/59/59
f 28/28/28 15/15/15 62/62/62
f 58/58/58 59/59/59 63/63/63
f 59/59/59 64/64/64 63/63/63
f 59/59/59 62/62/62 64/64/64
f 58/58/58 63/63/63 65/65/65
f 60/60/60 58/58/58 65/65/65
f 62/62/62 66/66/66 64/64/64
f 62/62/62 67/67/67 66/66/66
f 15/15/15 67/67/67 62/62/62
f 67/67/67 68/68/68 66/66/66
f 66/66/66 68/68/68 69/69/69
f 68/68/68 70/70/70 69/69/69
f 68/68/68 71/71/71 70/70/70
f 60/60/60 65/65/65 71/71/71
f 71/71/71 72/72/72 70/70/70
f 71/71/71 65/65/65 72/72/72
f 65/65/65 73/73/73 72/72/72
f 65/65/65 74/74/74 73/73/73
f 74/74/74 75/75/75 73/73/73
f 74/74/74 76/76/76 75/75/75
f 76/76/76 77/77/77 75/75/75
f 78/78/78 69/69/69 77/77/77
f 76/76/76 78/78/78 77/77/77
f 79/79/79 71/71/71 68/68/68
f 79/79/79 60/60/60 71/71/71
f 67/67/67 79/79/79 68/68/68
f 61/61/61 60/60/60 79/79/79
f 80/80/80 79/79/79 67/67/67
f 80/80/80 61/61/61 79/79/79
f 15/15/15 80/80/80 67/67/67
f 81/81/81 61/61/61 80/80/80
f 82/82/82 80/80/80 15/15/15
f 82/82/82 81/81/81 80/80/80
f 83/83/83 82/82/82 15/15/15
f 84/84/84 81/81/81 82/82/82
f 85/85/85 82/82/82 83/83/83
f 85/85/85 84/84/84 82/82/82
f 86/86/86 84/84/84 85/85/85
f 87/87/87 85/85/85 83/83/83
f 88/88/88 86/86/86 85/85/85
f 88/88/88 85/85/85 87/87/87
f 89/89/89 88/88/88 87/87/87
f 92/92/92 91/91/91 90/90/90
f 93/93/93 92/92/92 90/90/90
f 96/96/96 95/95/95 94/94/94
f 95/95/95 97/97/97 94/94/94
f 95/95/95 98/98/98 97/97/97
f 98/98/98 99/99/99 97/97/97
f 102/102/102 101/101/101 100/100/100
f 103/103/103 102/102/102 100/100/100
f 103/103/103 105/105/105 104/104/104
f 106/106/106 103/103/103 104/104/104
g Heron.028_1
f 109/109/109 108/108/108 107/107/107
f 110/110/110 109/109/109 107/107/107
f 110/110/110 107/107/107 111/111/111
f 112/112/112 110/110/110 111/111/111
f 115/115/115 114/114/114 113/113/113
f 116/116/116 115/115/115 113/113/113
f 116/116/116 113/113/113 117/117/117
f 118/118/118 116/116/116 117/117/117
f 116/116/116 118/118/118 119/119/119
f 116/116/116 119/119/119 120/120/120
f 123/123/123 122/122/122 121/121/121
f 124/124/124 123/123/123 121/121/121
f 124/124/124 126/126/126 125/125/125
f 127/127/127 124/124/124 125/125/125
f 130/130/130 129/129/129 128/128/128
f 129/129/129 131/131/131 128/128/128
f 129/129/129 132/132/132 131/131/131
f 132/132/132 133/133/133 131/131/131
f 136/136/136 135/135/135 134/134/134
f 136/136/136 134/134/134 137/137/137
f 140/140/140 139/139/139 138/138/138
f 140/140/140 138/138/138 141/141/141
f 141/141/141 138/138/138 142/142/142
f 138/138/138 143/143/143 142/142/142
f 138/138/138 144/144/144 143/143/143
f 144/144/144 145/145/145 143/143/143
f 147/147/147 146/146/146 86/86/86
f 146/146/146 103/103/103 86/86/86
f 146/146/146 148/148/148 103/103/103
f 148/148/148 89/89/89 103/103/103
f 149/149/149 22/22/22 25/25/25
f 150/150/150 149/149/149 25/25/25
f 150/150/150 25/25/25 23/23/23
f 151/151/151 150/150/150 23/23/23
f 149/149/149 150/150/150 151/151/151
f 151/151/151 23/23/23 21/21/21
f 152/152/152 21/21/21 22/22/22
f 149/149/149 152/152/152 22/22/22
f 152/152/152 149/149/149 151/151/151
f 152/152/152 151/151/151 21/21/21
g Heron.028_2
f 73/73/73 70/70/70 72/72/72
f 69/69/69 70/70/70 73/73/73
f 75/75/75 69/69/69 73/73/73
f 69/69/69 75/75/75 77/77/77
