g House.012
v -0.03107556 -0.10308 -0.0112018
v -0.03107556 -0.09692 -0.0112018
v -0.02851978 -0.09692 0.02412587
v -0.02851978 -0.10308 0.02412587
v -0.03107556 -0.09692 -0.0112018
v 0.03036385 -0.09692 -0.01564664
v 0.03291963 -0.09692 0.01968103
v -0.02851978 -0.09692 0.02412587
v 0.03036385 -0.09692 -0.01564664
v 0.03036385 -0.10308 -0.01564664
v 0.03291963 -0.10308 0.01968103
v 0.03291963 -0.09692 0.01968103
v 0.03036385 -0.10308 -0.01564664
v -0.03107556 -0.10308 -0.0112018
v -0.02851978 -0.10308 0.02412587
v 0.03291963 -0.10308 0.01968103
v -0.03107556 -0.09692 -0.0112018
v -0.03107556 -0.10308 -0.0112018
v 0.03036385 -0.10308 -0.01564664
v 0.03036385 -0.09692 -0.01564664
v 0.03291963 -0.09692 0.01968103
v 0.03291963 -0.10308 0.01968103
v -0.02851978 -0.10308 0.02412587
v -0.02851978 -0.09692 0.02412587
vt 0.999819 0.396377
vt 0.9309783 0.396377
vt 0.9309783 0.7922111
vt 0.999819 0.7922111
vt 0.7922112 0.6885881
vt 0.7922111 0.0001809587
vt 0.396377 0.000180976
vt 0.3963771 0.6885882
vt 0.999819 0.0001809523
vt 0.9309783 0.0001809523
vt 0.9309784 0.3960151
vt 0.9998191 0.3960151
vt 0.0001809523 0.0001809523
vt 0.0001809824 0.6885881
vt 0.3960151 0.6885881
vt 0.3960151 0.000180935
vt 0.8617757 0.6885882
vt 0.9306164 0.6885882
vt 0.9306164 0.0001809527
vt 0.8617757 0.0001809557
vt 0.8614138 0.0001809762
vt 0.792573 0.0001809792
vt 0.7925731 0.6885882
vt 0.8614138 0.6885882
vn -0.9973934 0 0.07215644
vn -0.9973934 0 0.07215644
vn -0.9973934 0 0.07215644
vn -0.9973934 0 0.07215644
vn 0 1 0
vn 0 1 0
vn 0 1 0
vn 0 1 0
vn 0.9973934 0 -0.07215644
vn 0.9973934 0 -0.07215644
vn 0.9973934 0 -0.07215644
vn 0.9973934 0 -0.07215644
vn 0 -1 -1.639088E-07
vn 0 -1 -1.639088E-07
vn 0 -1 -1.639088E-07
vn 0 -1 -1.639088E-07
vn -0.07215638 0 -0.9973934
vn -0.07215638 0 -0.9973934
vn -0.07215638 0 -0.9973934
vn -0.07215638 0 -0.9973934
vn 0.07215647 0 0.9973934
vn 0.07215647 0 0.9973934
vn 0.07215647 0 0.9973934
vn 0.07215647 0 0.9973934
g House.012_0
f 3/3/3 2/2/2 1/1/1
f 4/4/4 3/3/3 1/1/1
f 7/7/7 6/6/6 5/5/5
f 8/8/8 7/7/7 5/5/5
f 11/11/11 10/10/10 9/9/9
f 12/12/12 11/11/11 9/9/9
f 15/15/15 14/14/14 13/13/13
f 16/16/16 15/15/15 13/13/13
f 19/19/19 18/18/18 17/17/17
f 20/20/20 19/19/19 17/17/17
f 23/23/23 22/22/22 21/21/21
f 24/24/24 23/23/23 21/21/21
