g Owl_Mesh.020
v -0.01240637 0.00711119 -0.01217557
v -0.01136691 0.004886104 -0.01535332
v -0.007783136 0.004699502 -0.01065683
v 0.005483064 0.00613453 -6.208896E-05
v 0.01296098 0.003984818 0.005262669
v 0.009776545 0.008320354 0.002501402
v 0.00767853 0.001783272 0.002640493
v 0.01429926 -0.0008750492 0.008648805
v 0.008090651 -0.002895592 0.005704014
v 0.01424512 -0.006356763 0.01260337
v 0.006907241 -0.007957667 0.009128994
v 0.0140052 -0.005171153 0.01538688
v 0.006511927 -0.007010094 0.01155238
v 0.01365728 0.0009896207 0.01288377
v 0.007224238 -0.001273977 0.009436901
v 0.0002748942 -0.007253229 0.005912615
v 0.0009151935 -0.002367127 0.004087114
v 0.007224238 -0.001273977 0.009436901
v 0.00676454 0.003689404 0.006815424
v 0.01223451 0.00616554 0.01001049
v 0.01365728 0.0009896207 0.01288377
v 0.0009151935 -0.002367127 0.004087114
v 0.00676454 0.003689404 0.006815424
v 0.0006735349 0.001844138 0.001818893
v -0.01151441 -0.0039207 -0.003564414
v -0.011048 0.0001640749 -0.00586495
v -0.005188646 -0.0007976426 -0.004057449
v -0.004965458 -0.004656165 -0.001983085
v -0.01366886 -0.008870912 -0.001628514
v -0.005582067 -0.00913121 -0.0002910757
v -0.01194651 -0.0105341 -0.004608428
v -0.005259399 -0.009658142 -0.001892902
v -0.01027748 -0.006553804 -0.007343011
v -0.004252425 -0.005745377 -0.00461282
v -0.009691113 -0.002740501 -0.01001311
v 0.0005987859 -0.007923974 0.004010892
v -0.004379864 -0.002128009 -0.007063682
v -0.01038406 0.001072801 -0.01268322
v -0.005874015 0.001269179 -0.00932967
v 0.001498327 0.0003140163 -0.001599574
v -0.0001941991 0.00404 -0.004006043
v 0.001647542 -0.00363266 0.001071169
v 0.006907241 -0.007957667 0.009128994
v 0.006511927 -0.007010094 0.01155238
v 0.0002748942 -0.007253229 0.005912615
v -0.005259399 -0.009658142 -0.001892902
v -0.005582067 -0.00913121 -0.0002910757
v 0.0009151935 -0.002367127 0.004087114
v -0.004965458 -0.004656165 -0.001983085
v 0.0006735349 0.001844138 0.001818893
v -0.005188646 -0.0007976426 -0.004057449
v 0.008090651 -0.002895592 0.005704014
v 0.001498327 0.0003140163 -0.001599574
v 0.00767853 0.001783272 0.002640493
v -0.004379864 -0.002128009 -0.007063682
v -0.004252425 -0.005745377 -0.00461282
v 0.001498327 0.0003140163 -0.001599574
v -0.0001941991 0.00404 -0.004006043
v 0.001498327 0.0003140163 -0.001599574
v 0.00767853 0.001783272 0.002640493
v 0.005483064 0.00613453 -6.208896E-05
v 0.009115517 0.01025972 0.006836896
v 0.004512305 0.007797992 0.003728174
v -0.000945301 0.00536774 -0.0009111071
v 0.005861871 0.01287086 0.001615283
v 0.002484903 0.01063902 -0.001253204
v -0.000945301 0.00536774 -0.0009111071
v 0.002484903 0.01063902 -0.001253204
v -0.00242171 0.007880616 -0.005284635
v 0.002484903 0.01063902 -0.001253204
v 0.005861871 0.01287086 0.001615283
v -0.007783136 0.004699502 -0.01065683
v -0.0001941991 0.00404 -0.004006043
v -0.00242171 0.007880616 -0.005284635
v 0.002484903 0.01063902 -0.001253204
v -0.0116437 0.003769201 -0.008832358
v -0.00662824 0.002400166 -0.006585509
v -0.007783136 0.004699502 -0.01065683
v -0.00242171 0.007880616 -0.005284635
v -0.000945301 0.00536774 -0.0009111071
v -0.000945301 0.00536774 -0.0009111071
v -0.01136691 0.004886104 -0.01535332
v -0.01240637 0.00711119 -0.01217557
v -0.0116437 0.003769201 -0.008832358
v -0.01038406 0.001072801 -0.01268322
v -0.011048 0.0001640749 -0.00586495
v -0.009691113 -0.002740501 -0.01001311
v -0.01151441 -0.0039207 -0.003564414
v -0.01027748 -0.006553804 -0.007343011
v -0.01366886 -0.008870912 -0.001628514
v -0.01194651 -0.0105341 -0.004608428
v 0.0140052 -0.005171153 0.01538688
v 0.01429926 -0.0008750492 0.008648805
v 0.01424512 -0.006356763 0.01260337
v 0.01365728 0.0009896207 0.01288377
v 0.01296098 0.003984818 0.005262669
v 0.01223451 0.00616554 0.01001049
v 0.009776545 0.008320354 0.002501402
v 0.009115517 0.01025972 0.006836896
v 0.005861871 0.01287086 0.001615283
vt 0.4166668 0.5
vt 0.5000001 0.5
vt 0.4166668 0.5
vt 0.5000002 0.6250001
vt 0.5000001 0.75
vt 0.5000001 0.625
vt 0.5000001 0.75
vt 0.5000001 0.8749999
vt 0.5000001 0.875
vt 0.5000001 1
vt 0.5000001 0.9999999
vt 0.4166668 1
vt 0.4166668 0.9999999
vt 0.4166667 0.8749999
vt 0.4166667 0.8749999
vt 0.4166668 1
vt 0.4166667 0.8749999
vt 0.4166667 0.8749999
vt 0.4166668 0.75
vt 0.4166668 0.75
vt 0.4166667 0.8749999
vt 0.4166667 0.8749999
vt 0.4166668 0.75
vt 0.4166668 0.75
vt 0.4166667 0.8749999
vt 0.4166668 0.75
vt 0.4166668 0.75
vt 0.4166667 0.8749999
vt 0.4166668 1
vt 0.4166668 1
vt 0.5000001 1
vt 0.5000001 0.9999999
vt 0.5000001 0.8749999
vt 0.5000001 0.875
vt 0.5000001 0.75
vt 0.5000001 0.9999998
vt 0.5000001 0.75
vt 0.5000001 0.625
vt 0.5000001 0.625
vt 0.5000002 0.7500001
vt 0.5000001 0.6249999
vt 0.5000001 0.875
vt 0.5000001 0.9999999
vt 0.4166668 0.9999999
vt 0.4166668 1
vt 0.5000001 0.9999999
vt 0.4166668 1
vt 0.4166667 0.8749999
vt 0.4166667 0.8749999
vt 0.4166668 0.75
vt 0.4166668 0.75
vt 0.5000001 0.875
vt 0.5000002 0.7500001
vt 0.5000001 0.75
vt 0.5000001 0.75
vt 0.5000001 0.875
vt 0.5000002 0.7500001
vt 0.5000001 0.6249999
vt 0.5000002 0.7500001
vt 0.5000001 0.75
vt 0.5000002 0.6250001
vt 0.4166667 0.625
vt 0.4166667 0.625
vt 0.4166667 0.625
vt 0.4166668 0.5
vt 0.4166668 0.5
vt 0.4166667 0.625
vt 0.4166668 0.5
vt 0.4166668 0.5
vt 0.5000001 0.5
vt 0.5000001 0.5
vt 0.5000001 0.5
vt 0.5000001 0.6249999
vt 0.5000001 0.5
vt 0.5000001 0.5
vt 0.4166667 0.625
vt 0.4166667 0.625
vt 0.4166668 0.5
vt 0.4166668 0.5
vt 0.4166667 0.625
vt 0.4166667 0.625
vt 0.5000001 0.5
vt 0.4166668 0.5
vt 0.4166667 0.625
vt 0.5000001 0.625
vt 0.4166668 0.75
vt 0.5000001 0.75
vt 0.4166667 0.8749999
vt 0.5000001 0.8749999
vt 0.4166668 1
vt 0.5000001 1
vt 0.4166668 1
vt 0.5000001 0.8749999
vt 0.5000001 1
vt 0.4166667 0.8749999
vt 0.5000001 0.75
vt 0.4166668 0.75
vt 0.5000001 0.625
vt 0.4166667 0.625
vt 0.5000001 0.5
vn 0.4062077 0.9136506 0.01542045
vn 0.6875778 0.4169363 -0.5944753
vn 0.6073762 0.7495515 -0.2631858
vn 0.5578662 -0.02898881 -0.8294244
vn 0.5262479 -0.3235984 -0.7863506
vn 0.526944 -0.03962772 -0.8489757
vn 0.5543978 -0.3177733 -0.7691965
vn 0.4945614 -0.482985 -0.7225888
vn 0.5181225 -0.4928391 -0.6990414
vn 0.2753649 -0.9558835 -0.102279
vn 0.197757 -0.9655745 -0.1689916
vn -0.3997603 -0.2833999 0.8717088
vn -0.4539949 -0.4349208 0.7776455
vn -0.5327134 0.3197212 0.7835781
vn -0.5859434 0.3247551 0.7424315
vn -0.6274132 -0.3807766 0.6792364
vn -0.6902949 0.3170508 0.6503627
vn -0.5859434 0.3247551 0.7424315
vn -0.6134774 0.2654638 0.743757
vn -0.5701559 0.2718387 0.7752587
vn -0.5327134 0.3197212 0.7835781
vn -0.6902949 0.3170508 0.6503627
vn -0.6134774 0.2654638 0.743757
vn -0.6988768 0.2466745 0.6713589
vn -0.1617541 0.4362663 0.8851594
vn -0.1694252 0.5449346 0.821183
vn -0.5130449 0.3762626 0.7714994
vn -0.4962484 0.38508 0.7781073
vn -0.1598442 -0.3466166 0.9242872
vn -0.3331528 -0.5170504 0.7884593
vn 0.1682737 -0.9779739 -0.1234955
vn 0.3311934 -0.9211864 -0.2042711
vn 0.4048787 -0.5721915 -0.7132112
vn 0.5687997 -0.5140992 -0.6420038
vn 0.4855583 -0.4406571 -0.7550194
vn 0.3047451 -0.9377941 -0.1663507
vn 0.6103509 -0.3523913 -0.7094308
vn 0.6458972 -0.2027594 -0.7360064
vn 0.6433342 -0.143723 -0.751974
vn 0.6496175 -0.2909999 -0.7023647
vn 0.6422565 -0.02490777 -0.766085
vn 0.6211041 -0.4770557 -0.6218098
vn 0.197757 -0.9655745 -0.1689916
vn -0.4539949 -0.4349208 0.7776455
vn -0.6274132 -0.3807766 0.6792364
vn 0.3311934 -0.9211864 -0.2042711
vn -0.3331528 -0.5170504 0.7884593
vn -0.6902949 0.3170508 0.6503627
vn -0.4962484 0.38508 0.7781073
vn -0.6988768 0.2466745 0.6713589
vn -0.5130449 0.3762626 0.7714994
vn 0.5181225 -0.4928391 -0.6990414
vn 0.6496175 -0.2909999 -0.7023647
vn 0.5543978 -0.3177733 -0.7691965
vn 0.6103509 -0.3523913 -0.7094308
vn 0.5687997 -0.5140992 -0.6420038
vn 0.6496175 -0.2909999 -0.7023647
vn 0.6422565 -0.02490777 -0.766085
vn 0.6496175 -0.2909999 -0.7023647
vn 0.5543978 -0.3177733 -0.7691965
vn 0.5578662 -0.02898881 -0.8294244
vn -0.6282714 0.2809212 0.7255055
vn -0.6716394 0.3246089 0.6659802
vn -0.7199054 0.3352331 0.6077459
vn -0.4573508 0.8793588 -0.132508
vn -0.2235285 0.8839853 -0.4106153
vn -0.7199054 0.3352331 0.6077459
vn -0.2235285 0.8839853 -0.4106153
vn -0.1860237 0.8963709 -0.4023857
vn -0.2235285 0.8839853 -0.4106153
vn -0.4573508 0.8793588 -0.132508
vn 0.6073762 0.7495515 -0.2631858
vn 0.6422565 -0.02490777 -0.766085
vn -0.1860237 0.8963709 -0.4023857
vn -0.2235285 0.8839853 -0.4106153
vn 0.006143664 0.7487773 0.6627932
vn -0.4686396 0.5406032 0.6986595
vn 0.6073762 0.7495515 -0.2631858
vn -0.1860237 0.8963709 -0.4023857
vn -0.7199054 0.3352331 0.6077459
vn -0.7199054 0.3352331 0.6077459
vn -0.9464449 -0.3091445 -0.09312248
vn -0.9464449 -0.3091445 -0.09312248
vn -0.9519361 -0.2852128 -0.1116759
vn -0.9518154 -0.2857874 -0.1112341
vn -0.9658373 -0.1582744 -0.2052012
vn -0.9658526 -0.1571159 -0.2060184
vn -0.9278558 0.03637977 -0.3711605
vn -0.9269871 0.0382733 -0.3731357
vn -0.8749454 0.1307667 -0.4662302
vn -0.8749454 0.1307667 -0.4662302
vn 0.9928815 0.07594531 0.09175225
vn 0.9804137 0.1897745 0.0526738
vn 0.9928815 0.07594531 0.09175225
vn 0.9825347 0.1770983 0.05711185
vn 0.9048964 0.4223078 -0.05308985
vn 0.9122144 0.4072232 -0.04510084
vn 0.8023782 0.5804063 -0.1389874
vn 0.8076618 0.5738666 -0.1354975
vn 0.7634091 0.6249669 -0.1631656
g Owl_Mesh.020_0
f 3/3/3 2/2/2 1/1/1
f 6/6/6 5/5/5 4/4/4
f 5/5/5 7/7/7 4/4/4
f 5/5/5 8/8/8 7/7/7
f 8/8/8 9/9/9 7/7/7
f 8/8/8 10/10/10 9/9/9
f 10/10/10 11/11/11 9/9/9
f 10/10/10 12/12/12 11/11/11
f 12/12/12 13/13/13 11/11/11
f 12/12/12 14/14/14 13/13/13
f 14/14/14 15/15/15 13/13/13
f 13/13/13 15/15/15 16/16/16
f 15/15/15 17/17/17 16/16/16
f 20/20/20 19/19/19 18/18/18
f 21/21/21 20/20/20 18/18/18
f 18/18/18 23/23/23 22/22/22
f 23/23/23 24/24/24 22/22/22
f 27/27/27 26/26/26 25/25/25
f 28/28/28 27/27/27 25/25/25
f 28/28/28 25/25/25 29/29/29
f 30/30/30 28/28/28 29/29/29
f 30/30/30 29/29/29 31/31/31
f 32/32/32 30/30/30 31/31/31
f 32/32/32 31/31/31 33/33/33
f 34/34/34 32/32/32 33/33/33
f 34/34/34 33/33/33 35/35/35
f 36/36/36 32/32/32 34/34/34
f 37/37/37 34/34/34 35/35/35
f 37/37/37 35/35/35 38/38/38
f 39/39/39 37/37/37 38/38/38
f 40/40/40 37/37/37 39/39/39
f 41/41/41 40/40/40 39/39/39
f 42/42/42 36/36/36 34/34/34
f 43/43/43 36/36/36 42/42/42
f 43/43/43 44/44/44 36/36/36
f 44/44/44 45/45/45 36/36/36
f 36/36/36 45/45/45 46/46/46
f 45/45/45 47/47/47 46/46/46
f 45/45/45 48/48/48 47/47/47
f 48/48/48 49/49/49 47/47/47
f 48/48/48 50/50/50 49/49/49
f 50/50/50 51/51/51 49/49/49
f 52/52/52 43/43/43 42/42/42
f 52/52/52 42/42/42 53/53/53
f 54/54/54 52/52/52 53/53/53
f 42/42/42 56/56/56 55/55/55
f 57/57/57 42/42/42 55/55/55
f 60/60/60 59/59/59 58/58/58
f 61/61/61 60/60/60 58/58/58
g Owl_Mesh.020_1
f 20/20/20 62/62/62 23/23/23
f 62/62/62 63/63/63 23/23/23
f 23/23/23 63/63/63 24/24/24
f 63/63/63 64/64/64 24/24/24
f 62/62/62 65/65/65 63/63/63
f 65/65/65 66/66/66 63/63/63
f 63/63/63 68/68/68 67/67/67
f 68/68/68 69/69/69 67/67/67
f 6/6/6 4/4/4 70/70/70
f 71/71/71 6/6/6 70/70/70
f 39/39/39 38/38/38 2/2/2
f 72/72/72 39/39/39 2/2/2
f 73/73/73 39/39/39 72/72/72
f 74/74/74 73/73/73 72/72/72
f 61/61/61 58/58/58 74/74/74
f 75/75/75 61/61/61 74/74/74
f 3/3/3 1/1/1 76/76/76
f 77/77/77 3/3/3 76/76/76
f 77/77/77 76/76/76 26/26/26
f 27/27/27 77/77/77 26/26/26
f 79/79/79 78/78/78 77/77/77
f 80/80/80 79/79/79 77/77/77
f 81/81/81 77/77/77 51/51/51
f 50/50/50 81/81/81 51/51/51
g Owl_Mesh.020_2
f 84/84/84 83/83/83 82/82/82
f 85/85/85 84/84/84 82/82/82
f 86/86/86 84/84/84 85/85/85
f 87/87/87 86/86/86 85/85/85
f 88/88/88 86/86/86 87/87/87
f 89/89/89 88/88/88 87/87/87
f 88/88/88 89/89/89 90/90/90
f 89/89/89 91/91/91 90/90/90
f 94/94/94 93/93/93 92/92/92
f 93/93/93 95/95/95 92/92/92
f 95/95/95 93/93/93 96/96/96
f 97/97/97 95/95/95 96/96/96
f 97/97/97 96/96/96 98/98/98
f 99/99/99 97/97/97 98/98/98
f 98/98/98 100/100/100 99/99/99
