g Owl_Mesh.005
v 0.0004975657 0.0107113 -0.007042569
v -0.006350483 0.01146598 -0.006720288
v -0.01153761 0.008453493 -0.004683416
v -0.004574518 0.007109553 -0.006422294
v 0.007365995 0.009822118 -0.007281933
v 0.00242518 0.005585469 -0.006519378
v -0.01662602 0.005170319 -0.001894468
v -0.009394875 0.003235186 -0.003633931
v -0.02053582 0.0005771258 0.00154676
v -0.01274013 -0.001615272 0.0001927495
v -0.02370893 -0.005164687 0.005452054
v -0.01505602 -0.007439849 0.004925444
v -0.01505346 -0.006572869 0.007786121
v -0.02370893 -0.005164687 0.005452054
v -0.02053582 0.0005771258 0.00154676
v -0.01248939 -0.0001801485 0.004654565
v -0.01662602 0.005170319 -0.001894468
v -0.009090424 0.004962868 0.001378024
v -0.01153761 0.008453493 -0.004683416
v -0.004307408 0.008614684 -0.001853167
v -0.004307408 0.008614684 -0.001853167
v -0.006350483 0.01146598 -0.006720288
v 0.0004975657 0.0107113 -0.007042569
v 0.002873297 0.007380834 -0.001733069
v 0.007365995 0.009822118 -0.007281933
v -0.001544289 0.003306584 0.001688023
v -0.009090424 0.004962868 0.001378024
v 0.005858483 0.001647359 0.001953566
v 0.009854302 0.006081541 -0.001607232
v 0.01396841 0.008835509 -0.007428402
v 0.01256909 0.0001418156 0.002189496
v 0.005858483 0.001647359 0.001953566
v 0.009854302 0.006081541 -0.001607232
v 0.0161889 0.004893395 -0.001493682
v 0.01396841 0.008835509 -0.007428402
v 0.01996498 0.007923802 -0.007553721
v 0.01996498 0.007923802 -0.007553721
v 0.009236946 0.004044075 -0.006524963
v 0.01542174 0.002642629 -0.006525322
v 0.01396841 0.008835509 -0.007428402
v 0.00242518 0.005585469 -0.006519378
v 0.007365995 0.009822118 -0.007281933
v 0.01051408 -0.0130152 0.00842917
v 0.003659954 -0.0041209 0.005285813
v 0.01091787 -0.005865198 0.005524137
v 0.002587318 -0.01107043 0.008274326
v 0.01023565 -0.01439118 0.005198712
v 0.002391753 -0.01230209 0.005137541
v -0.00435853 -0.002189708 0.005015902
v -0.006184445 -0.008909811 0.008096999
v -0.009090424 0.004962868 0.001378024
v -0.01505346 -0.006572869 0.007786121
v 0.002391753 -0.01230209 0.005137541
v -0.006286407 -0.00997752 0.005067935
v 0.002587318 -0.01107043 0.008274326
v 0.01017282 -0.008029277 0.0006091666
v 0.002391753 -0.01230209 0.005137541
v 0.003063039 -0.006076424 0.0004824066
v 0.01172598 -0.002389064 -0.00332068
v 0.005176749 -0.0006537541 -0.003433907
v -0.002043715 0.00126626 -0.003557885
v -0.004788089 -0.003908522 0.0003412151
v -0.002043715 0.00126626 -0.003557885
v -0.006286407 -0.00997752 0.005067935
v 0.002391753 -0.01230209 0.005137541
v -0.01274013 -0.001615272 0.0001927495
v -0.006286407 -0.00997752 0.005067935
v -0.006286407 -0.00997752 0.005067935
v -0.006184445 -0.008909811 0.008096999
v 0.01091787 -0.005865198 0.005524137
v 0.003659954 -0.0041209 0.005285813
v 0.01051408 -0.0130152 0.00842917
v 0.01017282 -0.008029277 0.0006091666
v 0.01023565 -0.01439118 0.005198712
v 0.01091787 -0.005865198 0.005524137
v 0.01172598 -0.002389064 -0.00332068
v 0.01256909 0.0001418156 0.002189496
v 0.01542174 0.002642629 -0.006525322
v 0.0161889 0.004893395 -0.001493682
v 0.01996498 0.007923802 -0.007553721
vt 0.5000001 0.5
vt 0.5000001 0.5
vt 0.5000001 0.625
vt 0.5000001 0.6249999
vt 0.5000001 0.5
vt 0.5000001 0.6249999
vt 0.5000001 0.75
vt 0.5000001 0.75
vt 0.5000001 0.8749999
vt 0.5000001 0.8749999
vt 0.5000001 1
vt 0.5000001 1
vt 0.4166667 0.9999998
vt 0.4166668 1
vt 0.4166667 0.8749999
vt 0.4166667 0.8749999
vt 0.4166668 0.75
vt 0.4166667 0.75
vt 0.4166667 0.625
vt 0.4166667 0.625
vt 0.4166667 0.625
vt 0.4166668 0.5
vt 0.4166668 0.5
vt 0.4166667 0.625
vt 0.4166668 0.5
vt 0.4166668 0.75
vt 0.4166667 0.75
vt 0.4166668 0.7500001
vt 0.4166667 0.625
vt 0.4166668 0.5
vt 0.4166668 0.75
vt 0.4166668 0.7500001
vt 0.4166667 0.625
vt 0.4166667 0.625
vt 0.4166668 0.5
vt 0.4166668 0.5
vt 0.5000001 0.5
vt 0.5000001 0.625
vt 0.5000001 0.625
vt 0.5000001 0.5
vt 0.5000001 0.6249999
vt 0.5000001 0.5
vt 0.4166668 1
vt 0.4166667 0.875
vt 0.4166667 0.8749999
vt 0.4166667 0.9999999
vt 0.5000001 1
vt 0.5000002 1
vt 0.4166667 0.8749999
vt 0.4166667 0.9999999
vt 0.4166667 0.75
vt 0.4166667 0.9999998
vt 0.5000002 1
vt 0.5000002 1
vt 0.4166667 0.9999999
vt 0.5000001 0.8749999
vt 0.5000002 1
vt 0.5000001 0.8749999
vt 0.5000001 0.75
vt 0.5000001 0.75
vt 0.5000001 0.75
vt 0.5000001 0.8749999
vt 0.5000001 0.75
vt 0.5000002 1
vt 0.5000002 1
vt 0.5000001 0.8749999
vt 0.5000002 1
vt 0.5000002 1
vt 0.4166667 0.9999999
vt 0.4166667 0.8749999
vt 0.4166667 0.875
vt 0.4166668 1
vt 0.5000001 0.8749999
vt 0.5000001 1
vt 0.4166667 0.8749999
vt 0.5000001 0.75
vt 0.4166668 0.75
vt 0.5000001 0.625
vt 0.4166667 0.625
vt 0.5000001 0.5
vn 0.009801468 0.8310982 -0.5560394
vn -0.2547358 0.8165051 -0.5181014
vn -0.5528579 0.6740846 -0.4898552
vn -0.1521608 -0.2808599 -0.94761
vn 0.1154723 0.8191003 -0.5619081
vn -0.07919192 -0.3069395 -0.9484286
vn -0.8072512 0.4939256 -0.3230837
vn -0.221665 -0.4313748 -0.8745172
vn -0.9539312 0.2633282 -0.1437831
vn -0.2130249 -0.5148807 -0.8303723
vn -0.940134 -0.274067 0.2025716
vn -0.2723926 -0.9020156 -0.334918
vn -0.2419104 -0.3002742 0.9226672
vn -0.940134 -0.274067 0.2025716
vn -0.9539312 0.2633282 -0.1437831
vn -0.08281995 0.5467015 0.8332217
vn -0.8072512 0.4939256 -0.3230837
vn -0.09081572 0.6651269 0.7411873
vn -0.5528579 0.6740846 -0.4898552
vn -0.003435565 0.7688788 0.6393854
vn -0.003435565 0.7688788 0.6393854
vn -0.2547358 0.8165051 -0.5181014
vn 0.009801468 0.8310982 -0.5560394
vn 0.1190542 0.737343 0.6649446
vn 0.1154723 0.8191003 -0.5619081
vn 0.0865413 0.5341702 0.8409357
vn -0.09081572 0.6651269 0.7411873
vn 0.08818226 0.5239173 0.8471922
vn 0.1228017 0.7272019 0.6753496
vn 0.1236271 0.8175965 -0.5623631
vn 0.08839973 0.5248612 0.846585
vn 0.08818226 0.5239173 0.8471922
vn 0.1228017 0.7272019 0.6753496
vn 0.1289153 0.7584099 0.6389018
vn 0.1236271 0.8175965 -0.5623631
vn 0.1339621 0.8694646 -0.4754843
vn 0.1339621 0.8694646 -0.4754843
vn -0.07549502 -0.3168009 -0.9454828
vn -0.06633323 -0.2770849 -0.958553
vn 0.1236271 0.8175965 -0.5623631
vn -0.07919192 -0.3069395 -0.9484286
vn 0.1154723 0.8191003 -0.5619081
vn -0.1296927 -0.4170341 0.8995901
vn 0.07529292 0.4314289 0.8989995
vn 0.07376564 0.4232363 0.9030114
vn -0.1192006 -0.3690544 0.9217321
vn -0.2446711 -0.9464012 -0.2108574
vn -0.2410417 -0.9315904 -0.2721
vn 0.07474291 0.4440436 0.8928823
vn -0.1332956 -0.3792335 0.9156497
vn -0.09081572 0.6651269 0.7411873
vn -0.2419104 -0.3002742 0.9226672
vn -0.2410417 -0.9315904 -0.2721
vn -0.2479517 -0.9249592 -0.2880456
vn -0.1192006 -0.3690544 0.9217321
vn -0.1401948 -0.5638862 -0.813866
vn -0.2410417 -0.9315904 -0.2721
vn -0.1404929 -0.5641839 -0.8136083
vn -0.1200669 -0.5076781 -0.8531393
vn -0.1218989 -0.5125147 -0.849982
vn -0.1262568 -0.5137818 -0.8485796
vn -0.1448064 -0.5662996 -0.8113789
vn -0.1262568 -0.5137818 -0.8485796
vn -0.2479517 -0.9249592 -0.2880456
vn -0.2410417 -0.9315904 -0.2721
vn -0.2130249 -0.5148807 -0.8303723
vn -0.2479517 -0.9249592 -0.2880456
vn -0.2479517 -0.9249592 -0.2880456
vn -0.1332956 -0.3792335 0.9156497
vn 0.07376564 0.4232363 0.9030114
vn 0.07529292 0.4314289 0.8989995
vn 0.9928818 -0.07594445 -0.09175091
vn 0.9804139 -0.1897741 -0.05267304
vn 0.9928818 -0.07594445 -0.09175091
vn 0.9825348 -0.1770978 -0.05711104
vn 0.9048964 -0.4223078 0.05308995
vn 0.9122144 -0.4072232 0.04510098
vn 0.8023784 -0.5804062 0.1389875
vn 0.8076619 -0.5738665 0.1354976
vn 0.7634093 -0.6249665 0.1631659
g Owl_Mesh.005_0
f 3/3/3 2/2/2 1/1/1
f 4/4/4 3/3/3 1/1/1
f 4/4/4 1/1/1 5/5/5
f 6/6/6 4/4/4 5/5/5
f 7/7/7 3/3/3 4/4/4
f 8/8/8 7/7/7 4/4/4
f 9/9/9 7/7/7 8/8/8
f 10/10/10 9/9/9 8/8/8
f 11/11/11 9/9/9 10/10/10
f 12/12/12 11/11/11 10/10/10
f 13/13/13 11/11/11 12/12/12
f 15/15/15 14/14/14 13/13/13
f 16/16/16 15/15/15 13/13/13
f 17/17/17 15/15/15 16/16/16
f 18/18/18 17/17/17 16/16/16
f 19/19/19 17/17/17 18/18/18
f 20/20/20 19/19/19 18/18/18
f 22/22/22 19/19/19 21/21/21
f 23/23/23 22/22/22 21/21/21
f 23/23/23 21/21/21 24/24/24
f 25/25/25 23/23/23 24/24/24
f 24/24/24 21/21/21 26/26/26
f 21/21/21 27/27/27 26/26/26
f 24/24/24 26/26/26 28/28/28
f 29/29/29 24/24/24 28/28/28
f 25/25/25 24/24/24 29/29/29
f 30/30/30 25/25/25 29/29/29
f 33/33/33 32/32/32 31/31/31
f 34/34/34 33/33/33 31/31/31
f 35/35/35 33/33/33 34/34/34
f 36/36/36 35/35/35 34/34/34
f 39/39/39 38/38/38 37/37/37
f 38/38/38 40/40/40 37/37/37
f 38/38/38 41/41/41 40/40/40
f 41/41/41 42/42/42 40/40/40
g Owl_Mesh.005_1
f 45/45/45 44/44/44 43/43/43
f 44/44/44 46/46/46 43/43/43
f 43/43/43 46/46/46 47/47/47
f 46/46/46 48/48/48 47/47/47
f 44/44/44 49/49/49 46/46/46
f 49/49/49 50/50/50 46/46/46
f 26/26/26 49/49/49 44/44/44
f 28/28/28 26/26/26 44/44/44
f 26/26/26 51/51/51 49/49/49
f 51/51/51 16/16/16 49/49/49
f 49/49/49 16/16/16 50/50/50
f 16/16/16 52/52/52 50/50/50
f 50/50/50 54/54/54 53/53/53
f 55/55/55 50/50/50 53/53/53
f 47/47/47 57/57/57 56/56/56
f 57/57/57 58/58/58 56/56/56
f 56/56/56 58/58/58 59/59/59
f 58/58/58 60/60/60 59/59/59
f 59/59/59 60/60/60 39/39/39
f 60/60/60 38/38/38 39/39/39
f 60/60/60 61/61/61 38/38/38
f 61/61/61 41/41/41 38/38/38
f 58/58/58 62/62/62 60/60/60
f 62/62/62 63/63/63 60/60/60
f 64/64/64 62/62/62 58/58/58
f 65/65/65 64/64/64 58/58/58
f 62/62/62 66/66/66 63/63/63
f 66/66/66 8/8/8 63/63/63
f 63/63/63 8/8/8 6/6/6
f 8/8/8 4/4/4 6/6/6
f 12/12/12 10/10/10 62/62/62
f 67/67/67 12/12/12 62/62/62
f 13/13/13 12/12/12 68/68/68
f 69/69/69 13/13/13 68/68/68
f 32/32/32 71/71/71 70/70/70
f 31/31/31 32/32/32 70/70/70
g Owl_Mesh.005_2
f 74/74/74 73/73/73 72/72/72
f 73/73/73 75/75/75 72/72/72
f 75/75/75 73/73/73 76/76/76
f 77/77/77 75/75/75 76/76/76
f 77/77/77 76/76/76 78/78/78
f 79/79/79 77/77/77 78/78/78
f 78/78/78 80/80/80 79/79/79
