g Owl_Mesh.017
v -0.0004287386 0.009229349 -0.006068201
v 0.009941325 0.007283922 -0.004035445
v 0.005471859 0.009879615 -0.005790508
v 0.003941612 0.006125921 -0.005533743
v -0.006346891 0.008463189 -0.006274449
v -0.002089648 0.004812698 -0.005617397
v 0.01432573 0.00445499 -0.001632358
v 0.008095055 0.002787589 -0.00313116
v 0.0176946 0.0004972839 0.001332762
v 0.01097748 -0.001391789 0.0001660848
v 0.0204287 -0.004450127 0.004697745
v 0.01297295 -0.006410514 0.004243991
v 0.01297074 -0.005663483 0.006708886
v 0.0176946 0.0004972839 0.001332762
v 0.0204287 -0.004450127 0.004697745
v 0.01076143 -0.0001552206 0.004010594
v 0.01432573 0.00445499 -0.001632358
v 0.007832718 0.00427624 0.00118737
v 0.009941325 0.007283922 -0.004035445
v 0.003711452 0.007422809 -0.001596774
v 0.003711452 0.007422809 -0.001596774
v 0.005471859 0.009879615 -0.005790508
v -0.0004287386 0.009229349 -0.006068201
v -0.002475777 0.006359667 -0.001493292
v -0.006346891 0.008463189 -0.006274449
v 0.001330619 0.002849106 0.001454477
v 0.007832718 0.00427624 0.00118737
v -0.00504795 0.00141944 0.001683283
v -0.008490932 0.005240135 -0.001384865
v -0.01203584 0.007613079 -0.006400654
v -0.01083012 0.0001221931 0.00188657
v -0.008490932 0.005240135 -0.001384865
v -0.00504795 0.00141944 0.001683283
v -0.01394911 0.004216372 -0.001287024
v -0.01203584 0.007613079 -0.006400654
v -0.01720276 0.006827509 -0.006508636
v -0.01720276 0.006827509 -0.006508636
v -0.01328809 0.002277007 -0.005622518
v -0.007958982 0.00348456 -0.005622208
v -0.01203584 0.007613079 -0.006400654
v -0.002089648 0.004812698 -0.005617397
v -0.006346891 0.008463189 -0.006274449
v -0.009059429 -0.0112145 0.007262961
v -0.009407348 -0.005053726 0.004759853
v -0.003153596 -0.003550759 0.0045545
v -0.002229366 -0.009538791 0.00712954
v -0.008819513 -0.01240011 0.004479449
v -0.002060847 -0.01060005 0.004426744
v -0.008765371 -0.006918397 0.0005248857
v -0.00263926 -0.005235728 0.0004156637
v 0.005416655 -0.008597091 0.00436677
v -0.01010366 -0.002058529 -0.002861251
v 0.004125633 -0.003367762 0.0002940106
v -0.004460528 -0.0005633062 -0.002958813
v 0.001760955 0.001091069 -0.003065635
v 0.001760955 0.001091069 -0.003065635
v 0.01097748 -0.001391789 0.0001660848
v 0.005416655 -0.008597091 0.00436677
v 0.005416655 -0.008597091 0.00436677
v 0.005328788 -0.007677104 0.00697675
v -0.009407348 -0.005053726 0.004759853
v -0.003153596 -0.003550759 0.0045545
v 0.005328788 -0.007677104 0.00697675
v 0.01297074 -0.005663483 0.006708886
v 0.003755498 -0.001886753 0.004321933
v 0.007832718 0.00427624 0.00118737
v -0.002060847 -0.01060005 0.004426744
v -0.002229366 -0.009538791 0.00712954
v 0.005416655 -0.008597091 0.00436677
v -0.009059429 -0.0112145 0.007262961
v -0.008819513 -0.01240011 0.004479449
v -0.008765371 -0.006918397 0.0005248857
v -0.009407348 -0.005053726 0.004759853
v -0.01010366 -0.002058529 -0.002861251
v -0.01083012 0.0001221931 0.00188657
v -0.01328809 0.002277007 -0.005622518
v -0.01394911 0.004216372 -0.001287024
v -0.01720276 0.006827509 -0.006508636
vt 0.5000001 0.5
vt 0.5000001 0.625
vt 0.5000001 0.5
vt 0.5000001 0.6249999
vt 0.5000001 0.5
vt 0.5000001 0.6249999
vt 0.5000001 0.75
vt 0.5000001 0.75
vt 0.5000001 0.8749999
vt 0.5000001 0.8749999
vt 0.5000001 1
vt 0.5000001 1
vt 0.4166667 0.9999998
vt 0.4166667 0.8749999
vt 0.4166668 1
vt 0.4166667 0.8749999
vt 0.4166668 0.75
vt 0.4166667 0.75
vt 0.4166667 0.625
vt 0.4166667 0.625
vt 0.4166667 0.625
vt 0.4166668 0.5
vt 0.4166668 0.5
vt 0.4166667 0.625
vt 0.4166668 0.5
vt 0.4166668 0.75
vt 0.4166667 0.75
vt 0.4166668 0.7500001
vt 0.4166667 0.625
vt 0.4166668 0.5
vt 0.4166668 0.75
vt 0.4166667 0.625
vt 0.4166668 0.7500001
vt 0.4166667 0.625
vt 0.4166668 0.5
vt 0.4166668 0.5
vt 0.5000001 0.5
vt 0.5000001 0.625
vt 0.5000001 0.625
vt 0.5000001 0.5
vt 0.5000001 0.6249999
vt 0.5000001 0.5
vt 0.4166668 1
vt 0.4166667 0.8749999
vt 0.4166667 0.875
vt 0.4166667 0.9999999
vt 0.5000001 1
vt 0.5000002 1
vt 0.5000001 0.8749999
vt 0.5000001 0.8749999
vt 0.5000002 1
vt 0.5000001 0.75
vt 0.5000001 0.8749999
vt 0.5000001 0.75
vt 0.5000001 0.75
vt 0.5000001 0.75
vt 0.5000001 0.8749999
vt 0.5000002 1
vt 0.5000002 1
vt 0.4166667 0.9999999
vt 0.4166667 0.8749999
vt 0.4166667 0.875
vt 0.4166667 0.9999999
vt 0.4166667 0.9999998
vt 0.4166667 0.8749999
vt 0.4166667 0.75
vt 0.5000002 1
vt 0.4166667 0.9999999
vt 0.5000002 1
vt 0.4166668 1
vt 0.5000001 1
vt 0.5000001 0.8749999
vt 0.4166667 0.8749999
vt 0.5000001 0.75
vt 0.4166668 0.75
vt 0.5000001 0.625
vt 0.4166667 0.625
vt 0.5000001 0.5
vn -0.009801514 0.8310982 -0.5560393
vn 0.5528578 0.6740848 -0.4898553
vn 0.2547355 0.8165052 -0.5181013
vn 0.1521611 -0.2808598 -0.94761
vn -0.1154725 0.8191003 -0.5619081
vn 0.07919218 -0.3069394 -0.9484286
vn 0.8072508 0.4939262 -0.3230836
vn 0.2216652 -0.4313747 -0.8745172
vn 0.953931 0.2633289 -0.1437831
vn 0.2130252 -0.5148805 -0.8303725
vn 0.940134 -0.274067 0.2025717
vn 0.2723929 -0.9020156 -0.334918
vn 0.2419103 -0.3002741 0.9226672
vn 0.953931 0.2633289 -0.1437831
vn 0.940134 -0.274067 0.2025717
vn 0.08281965 0.5467016 0.8332216
vn 0.8072508 0.4939262 -0.3230836
vn 0.09081529 0.6651271 0.7411872
vn 0.5528578 0.6740848 -0.4898553
vn 0.003435309 0.7688787 0.6393855
vn 0.003435309 0.7688787 0.6393855
vn 0.2547355 0.8165052 -0.5181013
vn -0.009801514 0.8310982 -0.5560393
vn -0.1190543 0.737343 0.6649446
vn -0.1154725 0.8191003 -0.5619081
vn -0.08654154 0.53417 0.8409357
vn 0.09081529 0.6651271 0.7411872
vn -0.08818227 0.5239173 0.8471922
vn -0.1228019 0.727202 0.6753496
vn -0.1236271 0.8175962 -0.5623636
vn -0.08839977 0.5248612 0.846585
vn -0.1228019 0.727202 0.6753496
vn -0.08818227 0.5239173 0.8471922
vn -0.1289155 0.75841 0.6389014
vn -0.1236271 0.8175962 -0.5623636
vn -0.1339621 0.8694645 -0.4754847
vn -0.1339621 0.8694645 -0.4754847
vn 0.06633343 -0.277085 -0.9585529
vn 0.07549514 -0.316801 -0.9454828
vn -0.1236271 0.8175962 -0.5623636
vn 0.07919218 -0.3069394 -0.9484286
vn -0.1154725 0.8191003 -0.5619081
vn 0.1296928 -0.4170338 0.8995903
vn -0.07376549 0.4232362 0.9030114
vn -0.07529294 0.4314288 0.8989995
vn 0.1192007 -0.3690542 0.9217322
vn 0.2446715 -0.9464012 -0.210857
vn 0.2410421 -0.9315904 -0.2720996
vn 0.140195 -0.563886 -0.813866
vn 0.1404933 -0.5641837 -0.8136083
vn 0.2479521 -0.9249594 -0.2880452
vn 0.120067 -0.5076781 -0.8531395
vn 0.1448066 -0.5662995 -0.811379
vn 0.1218992 -0.5125145 -0.849982
vn 0.1262572 -0.5137817 -0.8485796
vn 0.1262572 -0.5137817 -0.8485796
vn 0.2130252 -0.5148805 -0.8303725
vn 0.2479521 -0.9249594 -0.2880452
vn 0.2479521 -0.9249594 -0.2880452
vn 0.1332953 -0.3792332 0.9156498
vn -0.07376549 0.4232362 0.9030114
vn -0.07529294 0.4314288 0.8989995
vn 0.1332953 -0.3792332 0.9156498
vn 0.2419103 -0.3002741 0.9226672
vn -0.07474335 0.4440435 0.8928823
vn 0.09081529 0.6651271 0.7411872
vn 0.2410421 -0.9315904 -0.2720996
vn 0.1192007 -0.3690542 0.9217322
vn 0.2479521 -0.9249594 -0.2880452
vn -0.9928815 -0.07594533 -0.09175229
vn -0.9928815 -0.07594533 -0.09175229
vn -0.9804137 -0.1897745 -0.05267379
vn -0.9825347 -0.1770983 -0.05711185
vn -0.9048964 -0.4223079 0.05308987
vn -0.9122144 -0.4072233 0.04510087
vn -0.8023782 -0.5804065 0.1389875
vn -0.8076617 -0.5738667 0.1354975
vn -0.763409 -0.624967 0.1631657
g Owl_Mesh.017_0
f 3/3/3 2/2/2 1/1/1
f 2/2/2 4/4/4 1/1/1
f 1/1/1 4/4/4 5/5/5
f 4/4/4 6/6/6 5/5/5
f 2/2/2 7/7/7 4/4/4
f 7/7/7 8/8/8 4/4/4
f 7/7/7 9/9/9 8/8/8
f 9/9/9 10/10/10 8/8/8
f 9/9/9 11/11/11 10/10/10
f 11/11/11 12/12/12 10/10/10
f 11/11/11 13/13/13 12/12/12
f 15/15/15 14/14/14 13/13/13
f 14/14/14 16/16/16 13/13/13
f 14/14/14 17/17/17 16/16/16
f 17/17/17 18/18/18 16/16/16
f 17/17/17 19/19/19 18/18/18
f 19/19/19 20/20/20 18/18/18
f 19/19/19 22/22/22 21/21/21
f 22/22/22 23/23/23 21/21/21
f 21/21/21 23/23/23 24/24/24
f 23/23/23 25/25/25 24/24/24
f 21/21/21 24/24/24 26/26/26
f 27/27/27 21/21/21 26/26/26
f 26/26/26 24/24/24 28/28/28
f 24/24/24 29/29/29 28/28/28
f 24/24/24 25/25/25 29/29/29
f 25/25/25 30/30/30 29/29/29
f 33/33/33 32/32/32 31/31/31
f 32/32/32 34/34/34 31/31/31
f 32/32/32 35/35/35 34/34/34
f 35/35/35 36/36/36 34/34/34
f 39/39/39 38/38/38 37/37/37
f 40/40/40 39/39/39 37/37/37
f 41/41/41 39/39/39 40/40/40
f 42/42/42 41/41/41 40/40/40
g Owl_Mesh.017_1
f 45/45/45 44/44/44 43/43/43
f 46/46/46 45/45/45 43/43/43
f 46/46/46 43/43/43 47/47/47
f 48/48/48 46/46/46 47/47/47
f 48/48/48 47/47/47 49/49/49
f 50/50/50 48/48/48 49/49/49
f 51/51/51 48/48/48 50/50/50
f 50/50/50 49/49/49 52/52/52
f 53/53/53 51/51/51 50/50/50
f 54/54/54 50/50/50 52/52/52
f 53/53/53 50/50/50 54/54/54
f 54/54/54 52/52/52 38/38/38
f 39/39/39 54/54/54 38/38/38
f 55/55/55 54/54/54 39/39/39
f 41/41/41 55/55/55 39/39/39
f 56/56/56 53/53/53 54/54/54
f 57/57/57 53/53/53 56/56/56
f 8/8/8 57/57/57 56/56/56
f 8/8/8 56/56/56 6/6/6
f 4/4/4 8/8/8 6/6/6
f 12/12/12 58/58/58 53/53/53
f 10/10/10 12/12/12 53/53/53
f 12/12/12 13/13/13 59/59/59
f 13/13/13 60/60/60 59/59/59
f 33/33/33 31/31/31 61/61/61
f 62/62/62 33/33/33 61/61/61
f 64/64/64 16/16/16 63/63/63
f 16/16/16 65/65/65 63/63/63
f 16/16/16 66/66/66 65/65/65
f 66/66/66 26/26/26 65/65/65
f 63/63/63 65/65/65 46/46/46
f 65/65/65 45/45/45 46/46/46
f 65/65/65 26/26/26 45/45/45
f 26/26/26 28/28/28 45/45/45
f 63/63/63 68/68/68 67/67/67
f 69/69/69 63/63/63 67/67/67
g Owl_Mesh.017_2
f 72/72/72 71/71/71 70/70/70
f 73/73/73 72/72/72 70/70/70
f 72/72/72 73/73/73 74/74/74
f 73/73/73 75/75/75 74/74/74
f 74/74/74 75/75/75 76/76/76
f 75/75/75 77/77/77 76/76/76
f 78/78/78 76/76/76 77/77/77
