g Owl_Mesh.021
v -9.1748E-10 0.006315744 -0.00101265
v 1.366754E-05 0.008527083 -0.001597108
v -8.966231E-10 0.006682632 -0.002564933
v -9.1748E-10 0.006315744 -0.00101265
v -8.966231E-10 0.006682632 -0.002564933
v -1.367013E-05 0.008527083 -0.001597108
v -0.003537297 -0.003140941 0.002003259
v 3.567607E-11 0.0006530738 0.0006908327
v 6.009546E-10 -0.002928009 0.002422624
v 0.003537298 -0.003140939 0.00200326
v -0.004031892 0.000259521 -0.0001908541
v -3.448483E-10 0.003181806 -0.0008573735
v 3.567607E-11 0.0006530738 0.0006908327
v -0.003537297 -0.003140941 0.002003259
v -0.007506822 -0.006738695 0.003207091
v -0.008078028 -0.003550529 0.003174545
v -0.005229079 0.004283424 -0.0007404238
v -0.009415963 -0.0006947159 0.002032719
v -0.009120389 -0.005187488 0.0007778287
v -0.01045832 -0.002091818 -0.0002567059
v -0.009533701 0.001402211 0.0005122399
v -0.005922928 0.004044886 -0.001794575
v -0.005562336 0.006174886 -0.000915848
v -8.966231E-10 0.006682632 -0.002564933
v 1.366754E-05 0.008527083 -0.001597108
v -0.008549184 -0.008375654 0.0008103734
v -0.009120389 -0.005187488 0.0007778287
v -0.007506822 -0.006738695 0.003207091
v -0.009533701 0.001402211 0.0005122399
v -0.005562336 0.006174886 -0.000915848
v -0.005229079 0.004283424 -0.0007404238
v -9.1748E-10 0.006315744 -0.00101265
v -3.448483E-10 0.003181806 -0.0008573735
v -0.004031892 0.000259521 -0.0001908541
v 0.005229078 0.004283426 -0.0007404226
v -3.448483E-10 0.003181806 -0.0008573735
v 0.004031893 0.0002595234 -0.0001908535
v 0.005229078 0.004283426 -0.0007404226
v -1.367013E-05 0.008527083 -0.001597108
v 0.005562334 0.006174886 -0.0009158468
v 0.009415963 -0.0006947136 0.00203272
v 0.009533701 0.001402214 0.0005122411
v 0.008078028 -0.003550525 0.003174546
v 0.004031893 0.0002595234 -0.0001908535
v 0.00912039 -0.005187483 0.0007778298
v 0.01045833 -0.002091813 -0.0002567047
v 0.009533701 0.001402214 0.0005122411
v 0.005922927 0.004044888 -0.001794575
v 0.005562334 0.006174886 -0.0009158468
v -8.966231E-10 0.006682632 -0.002564933
v 0.007506825 -0.006738693 0.003207092
v 0.003537298 -0.003140939 0.00200326
v 3.567607E-11 0.0006530738 0.0006908327
v -3.448483E-10 0.003181806 -0.0008573735
v 0.008549187 -0.00837565 0.0008103746
v 0.007506825 -0.006738693 0.003207092
v 0.00912039 -0.005187483 0.0007778298
v -0.005638408 0.0001539516 -0.001946927
v -0.005638408 0.0001539516 -0.001946927
v -2.739293E-10 0.003466847 -0.003018352
v -0.005638408 0.0001539516 -0.001946927
v 4.164644E-10 -0.0002652168 -0.002981326
v -0.005178961 -0.003619609 -0.00141504
v -0.009120389 -0.005187488 0.0007778287
v 0.005638408 0.000153954 -0.001946927
v 4.164644E-10 -0.0002652168 -0.002981326
v 0.005178964 -0.003619608 -0.00141504
v 0.00912039 -0.005187483 0.0007778298
v 0.005638408 0.000153954 -0.001946927
v 0.005922927 0.004044888 -0.001794575
v -8.966231E-10 0.006682632 -0.002564933
v -2.739293E-10 0.003466847 -0.003018352
v 0.005638408 0.000153954 -0.001946927
v 0.008549187 -0.00837565 0.0008103746
v 0.005178964 -0.003619608 -0.00141504
v 0.003537298 -0.003140939 0.00200326
v 0.007506825 -0.006738693 0.003207092
v 4.164644E-10 -0.0002652168 -0.002981326
v 6.009546E-10 -0.002928009 0.002422624
v 0.003537298 -0.003140939 0.00200326
v 0.005178964 -0.003619608 -0.00141504
v 4.164644E-10 -0.0002652168 -0.002981326
v -0.005178961 -0.003619609 -0.00141504
v -0.003537297 -0.003140941 0.002003259
v 6.009546E-10 -0.002928009 0.002422624
v -0.007506822 -0.006738695 0.003207091
v -0.003537297 -0.003140941 0.002003259
v -0.005178961 -0.003619609 -0.00141504
v -0.008549184 -0.008375654 0.0008103734
vt 0 0
vt 0 0
vt 0 0
vt 0 0
vt 0 0
vt 0 0
vt 0.3333334 0.5
vt 0.3333334 0.5
vt 0.2500001 0.5
vt 0.3333334 0.5
vt 0.4166512 0.4999814
vt 0.2081875 0.2498249
vt 0.4166668 0.5
vt 0.4166668 0.5
vt 0.4166668 0.5
vt 0.4166668 0.5
vt 0.4166668 0.5
vt 0.4166668 0.5
vt 0.5000001 0.4999999
vt 0.5000001 0.5
vt 0.5000001 0.5
vt 0.5000001 0.5
vt 0.5000001 0.5
vt 0 0
vt 0 0
vt 0.5000001 0.5
vt 0.5000001 0.4999999
vt 0.4166668 0.5
vt 0.4166668 0.5
vt 0.4166668 0.5
vt 0.4166668 0.5
vt 0 0
vt 0.2081875 0.2498249
vt 0.4166512 0.4999814
vt 0.4166668 0.5
vt 0.2081875 0.2498249
vt 0.4166512 0.4999814
vt 0.4166668 0.5
vt 0 0
vt 0.4166668 0.5
vt 0.4166668 0.5
vt 0.4166668 0.5
vt 0.4166668 0.5
vt 0.4166512 0.4999814
vt 0.5000001 0.4999999
vt 0.5000001 0.5
vt 0.5000001 0.5
vt 0.5000001 0.5
vt 0.5000001 0.5
vt 0 0
vt 0.4166668 0.5
vt 0.4166668 0.5
vt 0.4166668 0.5
vt 0.2081875 0.2498249
vt 0.5000001 0.5
vt 0.4166668 0.5
vt 0.5000001 0.4999999
vt 0.5000066 0.5000064
vt 0.5000066 0.5000064
vt -9.419791E-06 -9.419791E-06
vt 0.5000066 0.5000064
vt 0 0
vt 0.5000001 0.5
vt 0.5000001 0.4999999
vt 0.5000066 0.5000064
vt 0 0
vt 0.5000001 0.5
vt 0.5000001 0.4999999
vt 0.5000066 0.5000064
vt 0.5000001 0.5
vt 0 0
vt -9.419791E-06 -9.419791E-06
vt 0.5000066 0.5000064
vt 0.5000001 0.5
vt 0.5000001 0.5
vt 0.4166668 0.5
vt 0.4166668 0.5
vt 0 0
vt 0.2500001 0.5
vt 0.3333334 0.5
vt 0.5000001 0.5
vt 0 0
vt 0.5000001 0.5
vt 0.3333334 0.5
vt 0.2500001 0.5
vt 0.4166668 0.5
vt 0.4166668 0.5
vt 0.5000001 0.5
vt 0.5000001 0.5
vn 0.9999771 -0.006592771 -0.001558215
vn 0.9999771 -0.006592771 -0.001558215
vn 0.9999771 -0.006592771 -0.001558215
vn -0.9999771 -0.006593142 -0.001558323
vn -0.9999771 -0.006593142 -0.001558323
vn -0.9999771 -0.006593142 -0.001558323
vn 0.03598327 0.4074484 0.912519
vn -2.345412E-07 0.4999621 0.8660473
vn -2.245262E-07 0.4353592 0.9002569
vn -0.03598365 0.4074483 0.912519
vn 0.06390558 0.360435 0.9305927
vn -1.574117E-07 0.2345688 0.9720996
vn -2.345412E-07 0.4999621 0.8660473
vn 0.03598327 0.4074484 0.912519
vn -0.6303339 0.01808645 0.7761135
vn -0.3396413 0.1321566 0.9312242
vn 0.06601525 0.2645837 0.9621006
vn -0.4696522 0.2102363 0.8574541
vn -0.9338381 -0.2362301 -0.268592
vn -0.9085406 -0.111808 -0.402558
vn -0.7657599 0.5958615 0.2419934
vn -0.4285682 0.2244683 -0.8751818
vn -0.5160561 0.845189 0.1390748
vn 0 0.3066283 -0.9518293
vn -0.4291464 0.9017034 0.05257799
vn -0.9642686 -0.2050155 -0.1677939
vn -0.9338381 -0.2362301 -0.268592
vn -0.6303339 0.01808645 0.7761135
vn -0.7657599 0.5958615 0.2419934
vn -0.5160561 0.845189 0.1390748
vn 0.06601525 0.2645837 0.9621006
vn -1.197406E-07 0.1535825 0.9881358
vn -1.574117E-07 0.2345688 0.9720996
vn 0.06390558 0.360435 0.9305927
vn -0.06601532 0.2645838 0.9621005
vn -1.574117E-07 0.2345688 0.9720996
vn -0.06390587 0.3604349 0.9305927
vn -0.06601532 0.2645838 0.9621005
vn 0.4291459 0.9017036 0.05257854
vn 0.5160556 0.8451892 0.1390751
vn 0.4696518 0.2102362 0.8574542
vn 0.7657595 0.5958619 0.2419937
vn 0.339641 0.1321566 0.9312243
vn -0.06390587 0.3604349 0.9305927
vn 0.9338383 -0.2362295 -0.2685919
vn 0.9085408 -0.1118078 -0.4025576
vn 0.7657595 0.5958619 0.2419937
vn 0.4285684 0.2244687 -0.8751817
vn 0.5160556 0.8451892 0.1390751
vn 0 0.3066283 -0.9518293
vn 0.630334 0.0180868 0.7761133
vn -0.03598365 0.4074483 0.912519
vn -2.345412E-07 0.4999621 0.8660473
vn -1.574117E-07 0.2345688 0.9720996
vn 0.9642688 -0.2050146 -0.1677936
vn 0.630334 0.0180868 0.7761133
vn 0.9338383 -0.2362295 -0.2685919
vn -0.2433942 -0.09843044 -0.9649201
vn -0.2433942 -0.09843044 -0.9649201
vn 0 0.02183806 -0.9997615
vn -0.2433942 -0.09843044 -0.9649201
vn 0 -0.08709385 -0.9962001
vn -0.3626541 -0.121841 -0.9239247
vn -0.9338381 -0.2362301 -0.268592
vn 0.2433944 -0.09843038 -0.9649201
vn 0 -0.08709385 -0.9962001
vn 0.3626545 -0.1218407 -0.9239245
vn 0.9338383 -0.2362295 -0.2685919
vn 0.2433944 -0.09843038 -0.9649201
vn 0.4285684 0.2244687 -0.8751817
vn 0 0.3066283 -0.9518293
vn 0 0.02183806 -0.9997615
vn 0.2433944 -0.09843038 -0.9649201
vn -0.7295503 -0.6779693 -0.09007808
vn -0.5614955 -0.8062468 -0.1862498
vn -0.5016225 -0.8380004 -0.2147797
vn -0.7295503 -0.6779693 -0.09007808
vn 1.579096E-07 -0.9535275 -0.3013062
vn 1.376108E-07 -0.9535275 -0.3013062
vn -0.5016225 -0.8380004 -0.2147797
vn -0.5614955 -0.8062468 -0.1862498
vn 1.579096E-07 -0.9535275 -0.3013062
vn 0.5614958 -0.8062465 -0.1862495
vn 0.501623 -0.8380001 -0.2147796
vn 1.376108E-07 -0.9535275 -0.3013062
vn 0.7295508 -0.6779689 -0.09007763
vn 0.501623 -0.8380001 -0.2147796
vn 0.5614958 -0.8062465 -0.1862495
vn 0.7295508 -0.6779689 -0.09007763
g Owl_Mesh.021_0
f 3/3/3 2/2/2 1/1/1
f 6/6/6 5/5/5 4/4/4
f 9/9/9 8/8/8 7/7/7
f 8/8/8 9/9/9 10/10/10
f 13/13/13 12/12/12 11/11/11
f 14/14/14 13/13/13 11/11/11
f 14/14/14 11/11/11 15/15/15
f 11/11/11 16/16/16 15/15/15
f 11/11/11 17/17/17 16/16/16
f 17/17/17 18/18/18 16/16/16
f 16/16/16 18/18/18 19/19/19
f 18/18/18 20/20/20 19/19/19
f 18/18/18 21/21/21 20/20/20
f 20/20/20 21/21/21 22/22/22
f 21/21/21 23/23/23 22/22/22
f 22/22/22 23/23/23 24/24/24
f 23/23/23 25/25/25 24/24/24
f 16/16/16 27/27/27 26/26/26
f 28/28/28 16/16/16 26/26/26
f 30/30/30 29/29/29 18/18/18
f 31/31/31 30/30/30 18/18/18
f 25/25/25 30/30/30 31/31/31
f 32/32/32 25/25/25 31/31/31
f 33/33/33 32/32/32 31/31/31
f 34/34/34 33/33/33 31/31/31
f 32/32/32 36/36/36 35/35/35
f 36/36/36 37/37/37 35/35/35
f 39/39/39 32/32/32 38/38/38
f 40/40/40 39/39/39 38/38/38
f 40/40/40 38/38/38 41/41/41
f 42/42/42 40/40/40 41/41/41
f 41/41/41 38/38/38 43/43/43
f 38/38/38 44/44/44 43/43/43
f 41/41/41 43/43/43 45/45/45
f 46/46/46 41/41/41 45/45/45
f 47/47/47 41/41/41 46/46/46
f 47/47/47 46/46/46 48/48/48
f 49/49/49 47/47/47 48/48/48
f 39/39/39 49/49/49 50/50/50
f 49/49/49 48/48/48 50/50/50
f 43/43/43 44/44/44 51/51/51
f 44/44/44 52/52/52 51/51/51
f 53/53/53 52/52/52 44/44/44
f 54/54/54 53/53/53 44/44/44
f 43/43/43 56/56/56 55/55/55
f 57/57/57 43/43/43 55/55/55
g Owl_Mesh.021_1
f 19/19/19 20/20/20 58/58/58
f 20/20/20 22/22/22 58/58/58
f 60/60/60 59/59/59 22/22/22
f 24/24/24 60/60/60 22/22/22
f 60/60/60 62/62/62 61/61/61
f 62/62/62 63/63/63 61/61/61
f 64/64/64 61/61/61 63/63/63
f 26/26/26 64/64/64 63/63/63
f 66/66/66 60/60/60 65/65/65
f 67/67/67 66/66/66 65/65/65
f 65/65/65 68/68/68 67/67/67
f 68/68/68 55/55/55 67/67/67
f 46/46/46 45/45/45 69/69/69
f 48/48/48 46/46/46 69/69/69
f 72/72/72 71/71/71 70/70/70
f 73/73/73 72/72/72 70/70/70
g Owl_Mesh.021_2
f 76/76/76 75/75/75 74/74/74
f 77/77/77 76/76/76 74/74/74
f 80/80/80 79/79/79 78/78/78
f 81/81/81 80/80/80 78/78/78
f 84/84/84 83/83/83 82/82/82
f 85/85/85 84/84/84 82/82/82
f 88/88/88 87/87/87 86/86/86
f 89/89/89 88/88/88 86/86/86
