g Owl_Mesh.018
v 0.0004287386 0.00922935 -0.006068196
v -0.005471859 0.009879615 -0.005790504
v -0.009941325 0.007283921 -0.004035442
v -0.003941603 0.00612592 -0.005533739
v 0.006346893 0.008463193 -0.006274443
v 0.002089662 0.004812701 -0.005617392
v -0.01432573 0.004454986 -0.001632355
v -0.008095045 0.002787587 -0.003131156
v -0.01769459 0.0004972779 0.001332765
v -0.01097747 -0.001391792 0.0001660871
v -0.0204287 -0.004450134 0.004697747
v -0.01297295 -0.006410517 0.004243996
v -0.007832712 0.004276237 0.001187375
v -0.009941325 0.007283921 -0.004035442
v -0.003711448 0.00742281 -0.001596768
v -0.01432573 0.004454986 -0.001632355
v -0.01076142 -0.0001552236 0.004010594
v -0.01769459 0.0004972779 0.001332765
v -0.01297074 -0.005663487 0.006708886
v -0.0204287 -0.004450134 0.004697747
v -0.003711448 0.00742281 -0.001596768
v -0.005471859 0.009879615 -0.005790504
v 0.0004287386 0.00922935 -0.006068196
v 0.002475777 0.006359669 -0.001493287
v 0.006346893 0.008463193 -0.006274443
v -0.001330619 0.002849107 0.001454484
v -0.007832712 0.004276237 0.001187375
v 0.005047953 0.001419443 0.00168329
v 0.008490937 0.005240139 -0.00138486
v 0.01203584 0.007613088 -0.006400647
v 0.01083012 0.0001221985 0.001886575
v 0.005047953 0.001419443 0.00168329
v 0.008490937 0.005240139 -0.00138486
v 0.01394912 0.004216378 -0.001287019
v 0.01203584 0.007613088 -0.006400647
v 0.01720276 0.006827517 -0.006508629
v 0.01720276 0.006827517 -0.006508629
v 0.007958991 0.003484565 -0.005622203
v 0.01328809 0.002277015 -0.005622512
v 0.01203584 0.007613088 -0.006400647
v 0.002089662 0.004812701 -0.005617392
v 0.006346893 0.008463193 -0.006274443
v 0.009059431 -0.0112145 0.007262967
v 0.003153601 -0.003550755 0.004554505
v 0.009407354 -0.005053723 0.004759857
v 0.002229366 -0.009538786 0.007129548
v 0.008819525 -0.01240011 0.004479458
v 0.002060857 -0.01060005 0.004426748
v -0.003755498 -0.001886752 0.00432194
v -0.005328794 -0.007677102 0.006976754
v -0.007832712 0.004276237 0.001187375
v -0.01297074 -0.005663487 0.006708886
v 0.002060857 -0.01060005 0.004426748
v -0.005416641 -0.00859709 0.004366772
v 0.002229366 -0.009538786 0.007129548
v 0.00876538 -0.006918392 0.0005248928
v 0.002060857 -0.01060005 0.004426748
v 0.00263927 -0.005235726 0.0004156709
v 0.01010366 -0.002058524 -0.002861245
v 0.00446054 -0.0005633026 -0.002958806
v -0.001760945 0.00109107 -0.003065631
v -0.004125623 -0.003367761 0.000294013
v -0.001760945 0.00109107 -0.003065631
v -0.005416641 -0.00859709 0.004366772
v 0.002060857 -0.01060005 0.004426748
v -0.01097747 -0.001391792 0.0001660871
v -0.005416641 -0.00859709 0.004366772
v -0.005416641 -0.00859709 0.004366772
v -0.005328794 -0.007677102 0.006976754
v 0.009407354 -0.005053723 0.004759857
v 0.003153601 -0.003550755 0.004554505
v 0.009059431 -0.0112145 0.007262967
v 0.00876538 -0.006918392 0.0005248928
v 0.008819525 -0.01240011 0.004479458
v 0.009407354 -0.005053723 0.004759857
v 0.01010366 -0.002058524 -0.002861245
v 0.01083012 0.0001221985 0.001886575
v 0.01328809 0.002277015 -0.005622512
v 0.01394912 0.004216378 -0.001287019
v 0.01720276 0.006827517 -0.006508629
vt 0.5000001 0.5
vt 0.5000001 0.5
vt 0.5000001 0.625
vt 0.5000001 0.6249999
vt 0.5000001 0.5
vt 0.5000001 0.6249999
vt 0.5000001 0.75
vt 0.5000001 0.75
vt 0.5000001 0.8749999
vt 0.5000001 0.8749999
vt 0.5000001 1
vt 0.5000001 1
vt 0.4166667 0.75
vt 0.4166667 0.625
vt 0.4166667 0.625
vt 0.4166668 0.75
vt 0.4166667 0.8749999
vt 0.4166667 0.8749999
vt 0.4166667 0.9999998
vt 0.4166668 1
vt 0.4166667 0.625
vt 0.4166668 0.5
vt 0.4166668 0.5
vt 0.4166667 0.625
vt 0.4166668 0.5
vt 0.4166668 0.75
vt 0.4166667 0.75
vt 0.4166668 0.7500001
vt 0.4166667 0.625
vt 0.4166668 0.5
vt 0.4166668 0.75
vt 0.4166668 0.7500001
vt 0.4166667 0.625
vt 0.4166667 0.625
vt 0.4166668 0.5
vt 0.4166668 0.5
vt 0.5000001 0.5
vt 0.5000001 0.625
vt 0.5000001 0.625
vt 0.5000001 0.5
vt 0.5000001 0.6249999
vt 0.5000001 0.5
vt 0.4166668 1
vt 0.4166667 0.875
vt 0.4166667 0.8749999
vt 0.4166667 0.9999999
vt 0.5000001 1
vt 0.5000002 1
vt 0.4166667 0.8749999
vt 0.4166667 0.9999999
vt 0.4166667 0.75
vt 0.4166667 0.9999998
vt 0.5000002 1
vt 0.5000002 1
vt 0.4166667 0.9999999
vt 0.5000001 0.8749999
vt 0.5000002 1
vt 0.5000001 0.8749999
vt 0.5000001 0.75
vt 0.5000001 0.75
vt 0.5000001 0.75
vt 0.5000001 0.8749999
vt 0.5000001 0.75
vt 0.5000002 1
vt 0.5000002 1
vt 0.5000001 0.8749999
vt 0.5000002 1
vt 0.5000002 1
vt 0.4166667 0.9999999
vt 0.4166667 0.8749999
vt 0.4166667 0.875
vt 0.4166668 1
vt 0.5000001 0.8749999
vt 0.5000001 1
vt 0.4166667 0.8749999
vt 0.5000001 0.75
vt 0.4166668 0.75
vt 0.5000001 0.625
vt 0.4166667 0.625
vt 0.5000001 0.5
vn 0.00980147 0.8310981 -0.5560395
vn -0.2547358 0.816505 -0.5181016
vn -0.552858 0.6740846 -0.4898551
vn -0.1521608 -0.28086 -0.94761
vn 0.1154722 0.8191004 -0.5619081
vn -0.07919184 -0.3069394 -0.9484286
vn -0.8072511 0.4939258 -0.3230835
vn -0.2216648 -0.4313748 -0.8745173
vn -0.9539312 0.2633283 -0.1437829
vn -0.2130248 -0.5148807 -0.8303723
vn -0.940134 -0.2740673 0.2025717
vn -0.2723924 -0.9020157 -0.3349181
vn -0.09081575 0.6651269 0.7411873
vn -0.552858 0.6740846 -0.4898551
vn -0.003435607 0.7688788 0.6393853
vn -0.8072511 0.4939258 -0.3230835
vn -0.08282013 0.5467015 0.8332216
vn -0.9539312 0.2633283 -0.1437829
vn -0.2419104 -0.3002744 0.9226671
vn -0.940134 -0.2740673 0.2025717
vn -0.003435607 0.7688788 0.6393853
vn -0.2547358 0.816505 -0.5181016
vn 0.00980147 0.8310981 -0.5560395
vn 0.1190541 0.737343 0.6649446
vn 0.1154722 0.8191004 -0.5619081
vn 0.08654124 0.53417 0.8409357
vn -0.09081575 0.6651269 0.7411873
vn 0.08818219 0.5239173 0.8471922
vn 0.1228016 0.7272019 0.6753496
vn 0.123627 0.8175965 -0.5623631
vn 0.08839974 0.5248612 0.846585
vn 0.08818219 0.5239173 0.8471922
vn 0.1228016 0.7272019 0.6753496
vn 0.1289153 0.7584099 0.6389018
vn 0.123627 0.8175965 -0.5623631
vn 0.133962 0.8694646 -0.4754845
vn 0.133962 0.8694646 -0.4754845
vn -0.07549494 -0.3168009 -0.9454828
vn -0.06633321 -0.2770847 -0.958553
vn 0.123627 0.8175965 -0.5623631
vn -0.07919184 -0.3069394 -0.9484286
vn 0.1154722 0.8191004 -0.5619081
vn -0.1296928 -0.4170344 0.89959
vn 0.07529288 0.4314288 0.8989995
vn 0.07376555 0.4232362 0.9030116
vn -0.1192006 -0.3690543 0.9217322
vn -0.244671 -0.9464012 -0.2108575
vn -0.2410416 -0.9315903 -0.2721001
vn 0.07474282 0.4440435 0.8928823
vn -0.1332957 -0.3792337 0.9156495
vn -0.09081575 0.6651269 0.7411873
vn -0.2419104 -0.3002744 0.9226671
vn -0.2410416 -0.9315903 -0.2721001
vn -0.2479516 -0.9249592 -0.2880458
vn -0.1192006 -0.3690543 0.9217322
vn -0.1401947 -0.5638861 -0.813866
vn -0.2410416 -0.9315903 -0.2721001
vn -0.1404928 -0.5641839 -0.8136083
vn -0.1200669 -0.5076781 -0.8531395
vn -0.1218989 -0.5125147 -0.849982
vn -0.1262567 -0.5137818 -0.8485796
vn -0.1448063 -0.5662996 -0.8113791
vn -0.1262567 -0.5137818 -0.8485796
vn -0.2479516 -0.9249592 -0.2880458
vn -0.2410416 -0.9315903 -0.2721001
vn -0.2130248 -0.5148807 -0.8303723
vn -0.2479516 -0.9249592 -0.2880458
vn -0.2479516 -0.9249592 -0.2880458
vn -0.1332957 -0.3792337 0.9156495
vn 0.07376555 0.4232362 0.9030116
vn 0.07529288 0.4314288 0.8989995
vn 0.9928818 -0.07594457 -0.09175074
vn 0.9804139 -0.189774 -0.05267321
vn 0.9928818 -0.07594457 -0.09175074
vn 0.9825348 -0.1770978 -0.05711116
vn 0.9048966 -0.4223077 0.05308961
vn 0.9122144 -0.4072232 0.04510067
vn 0.8023782 -0.5804065 0.1389874
vn 0.8076618 -0.5738667 0.1354974
vn 0.763409 -0.6249669 0.1631658
g Owl_Mesh.018_0
f 3/3/3 2/2/2 1/1/1
f 4/4/4 3/3/3 1/1/1
f 4/4/4 1/1/1 5/5/5
f 6/6/6 4/4/4 5/5/5
f 7/7/7 3/3/3 4/4/4
f 8/8/8 7/7/7 4/4/4
f 9/9/9 7/7/7 8/8/8
f 10/10/10 9/9/9 8/8/8
f 11/11/11 9/9/9 10/10/10
f 12/12/12 11/11/11 10/10/10
f 15/15/15 14/14/14 13/13/13
f 14/14/14 16/16/16 13/13/13
f 13/13/13 16/16/16 17/17/17
f 16/16/16 18/18/18 17/17/17
f 17/17/17 18/18/18 19/19/19
f 18/18/18 20/20/20 19/19/19
f 22/22/22 14/14/14 21/21/21
f 23/23/23 22/22/22 21/21/21
f 23/23/23 21/21/21 24/24/24
f 25/25/25 23/23/23 24/24/24
f 24/24/24 21/21/21 26/26/26
f 21/21/21 27/27/27 26/26/26
f 24/24/24 26/26/26 28/28/28
f 29/29/29 24/24/24 28/28/28
f 25/25/25 24/24/24 29/29/29
f 30/30/30 25/25/25 29/29/29
f 33/33/33 32/32/32 31/31/31
f 34/34/34 33/33/33 31/31/31
f 35/35/35 33/33/33 34/34/34
f 36/36/36 35/35/35 34/34/34
f 39/39/39 38/38/38 37/37/37
f 38/38/38 40/40/40 37/37/37
f 38/38/38 41/41/41 40/40/40
f 41/41/41 42/42/42 40/40/40
g Owl_Mesh.018_1
f 19/19/19 11/11/11 12/12/12
g Owl_Mesh.018_2
f 45/45/45 44/44/44 43/43/43
f 44/44/44 46/46/46 43/43/43
f 43/43/43 46/46/46 47/47/47
f 46/46/46 48/48/48 47/47/47
f 44/44/44 49/49/49 46/46/46
f 49/49/49 50/50/50 46/46/46
f 26/26/26 49/49/49 44/44/44
f 28/28/28 26/26/26 44/44/44
f 26/26/26 51/51/51 49/49/49
f 51/51/51 17/17/17 49/49/49
f 49/49/49 17/17/17 50/50/50
f 17/17/17 52/52/52 50/50/50
f 50/50/50 54/54/54 53/53/53
f 55/55/55 50/50/50 53/53/53
f 47/47/47 57/57/57 56/56/56
f 57/57/57 58/58/58 56/56/56
f 56/56/56 58/58/58 59/59/59
f 58/58/58 60/60/60 59/59/59
f 59/59/59 60/60/60 39/39/39
f 60/60/60 38/38/38 39/39/39
f 60/60/60 61/61/61 38/38/38
f 61/61/61 41/41/41 38/38/38
f 58/58/58 62/62/62 60/60/60
f 62/62/62 63/63/63 60/60/60
f 64/64/64 62/62/62 58/58/58
f 65/65/65 64/64/64 58/58/58
f 62/62/62 66/66/66 63/63/63
f 66/66/66 8/8/8 63/63/63
f 63/63/63 8/8/8 6/6/6
f 8/8/8 4/4/4 6/6/6
f 12/12/12 10/10/10 62/62/62
f 67/67/67 12/12/12 62/62/62
f 19/19/19 12/12/12 68/68/68
f 69/69/69 19/19/19 68/68/68
f 32/32/32 71/71/71 70/70/70
f 31/31/31 32/32/32 70/70/70
g Owl_Mesh.018_3
f 74/74/74 73/73/73 72/72/72
f 73/73/73 75/75/75 72/72/72
f 75/75/75 73/73/73 76/76/76
f 77/77/77 75/75/75 76/76/76
f 77/77/77 76/76/76 78/78/78
f 79/79/79 77/77/77 78/78/78
f 78/78/78 80/80/80 79/79/79
