g Owl_Mesh.026
v 0.00104553 8.548498E-05 0.001267599
v 0.0004752532 -0.0007118416 0.0007582059
v 0.0003798282 -0.0006036878 0.001377081
v 0.0009733158 -0.000379653 0.0005221138
v 0.001325985 0.0005569172 0.0005120614
v 0.001165582 -5.981922E-06 2.633542E-05
v 0.001175304 0.0008435893 -0.0004640165
v 0.0009786093 0.0002664328 -0.0005397614
v 0.0004705944 0.0008678901 -0.001215348
v 0.0004838186 0.0003335428 -0.0009599456
v -0.0004002026 0.0006941843 -0.001308679
v -0.0001298007 0.0001697111 -0.001073717
v -0.001132877 0.0002007818 -0.001000766
v -0.0006278634 -0.0001624799 -0.0008376231
v -0.001549823 -0.0003167677 -0.0002022418
v -0.0008201286 -0.0005361509 -0.0003418449
v -0.001365681 -0.0006390333 0.0005242923
v -0.0006331551 -0.0008085608 0.0002242532
v -0.0004337954 -0.0008897972 0.001116739
v -0.0001383656 -0.0008756709 0.0006444338
v 0.0003798282 -0.0006036878 0.001377081
v 0.0004752532 -0.0007118416 0.0007582059
v 0.0002669248 -0.0004518294 -0.0002924648
v 0.0002669248 -0.0004518294 -0.0002924648
v 0.0002669248 -0.0004518294 -0.0002924648
v 0.0002669248 -0.0004518294 -0.0002924648
v 0.0002669248 -0.0004518294 -0.0002924648
v 0.0002669248 -0.0004518294 -0.0002924648
v 0.0002669248 -0.0004518294 -0.0002924648
v 0.0002669248 -0.0004518294 -0.0002924648
v 0.0002669248 -0.0004518294 -0.0002924648
v 0.0002669248 -0.0004518294 -0.0002924648
v -0.001792481 -0.0001935887 -0.000173308
v -0.001391591 0.0003045177 -0.0010252
v -0.001509102 -0.0006114912 0.0007310614
v -0.0004984715 -0.0008869981 0.001236148
v 0.0003117019 -0.0004467893 0.00162501
v -0.0004984715 -0.0008869981 0.001236148
v 0.0003935495 0.001005344 -0.001251708
v -0.0006419179 0.0008834326 -0.001388083
v 0.001121832 0.001150825 -0.0005023882
v 0.001418875 0.0008695876 0.0005489531
v 0.001078554 0.0002880573 0.001462816
v 0.0003117019 -0.0004467893 0.00162501
v -0.001132877 0.0002007818 -0.001000766
v -0.0004002026 0.0006941843 -0.001308679
v -0.0006419179 0.0008834326 -0.001388083
v -0.001391591 0.0003045177 -0.0010252
v -0.0004984715 -0.0008869981 0.001236148
v -0.001391591 0.0003045177 -0.0010252
v -0.0006419179 0.0008834326 -0.001388083
v 0.0003117019 -0.0004467893 0.00162501
v -0.0006419179 0.0008834326 -0.001388083
v 0.001078554 0.0002880573 0.001462816
v 0.0003117019 -0.0004467893 0.00162501
v 0.0003935495 0.001005344 -0.001251708
v 0.001418875 0.0008695876 0.0005489531
v 0.001121832 0.001150825 -0.0005023882
v -0.001792481 -0.0001935887 -0.000173308
v -0.001391591 0.0003045177 -0.0010252
v -0.0004984715 -0.0008869981 0.001236148
v -0.001509102 -0.0006114912 0.0007310614
vt 0.09999999 0.6666667
vt 0 0.8333333
vt 0 0.6666667
vt 0.09999999 0.8333333
vt 0.2 0.6666667
vt 0.2 0.8333333
vt 0.3 0.6666667
vt 0.3 0.8333333
vt 0.4 0.6666667
vt 0.4 0.8333333
vt 0.5 0.6666667
vt 0.5 0.8333333
vt 0.6 0.6666667
vt 0.6 0.8333333
vt 0.7 0.6666667
vt 0.7 0.8333333
vt 0.8 0.6666667
vt 0.8 0.8333333
vt 0.9 0.6666667
vt 0.9 0.8333333
vt 0.9999999 0.6666667
vt 0.9999999 0.8333333
vt 0.05000001 1
vt 0.15 1
vt 0.25 1
vt 0.35 1
vt 0.45 1
vt 0.55 1
vt 0.65 1
vt 0.75 1
vt 0.85 1
vt 0.95 1
vt 0.7 0.5778252
vt 0.6 0.6015506
vt 0.8 0.5733751
vt 0.9 0.6115554
vt 0.9999999 0.5624496
vt 0.9234195 0.6215361
vt 0.4 0.6155005
vt 0.5 0.5893849
vt 0.3 0.5588812
vt 0.2 0.5194264
vt 0.09999999 0.5092645
vt 0.01234575 0.5561611
vt 0 0
vt 0 0
vt 0 0
vt 0 0
vt 0.9234195 0.6215361
vt 0 0
vt 0 0
vt 0.9999999 0.5624496
vt 0 0
vt 0.09999999 0.5092645
vt 0.9999999 0.5624496
vt 0.4 0.6155005
vt 0.2 0.5194264
vt 0.3 0.5588812
vt 0.7 0.5778252
vt 0 0
vt 0.9 0.6115554
vt 0.8 0.5733751
vn 0.817604 -0.4878923 0.3057529
vn 0.4618724 -0.8866473 0.02302762
vn 0.459998 -0.802051 0.380941
vn 0.7287334 -0.684188 -0.02888707
vn 0.970476 -0.2404285 -0.0192475
vn 0.8296239 -0.4932817 -0.2615291
vn 0.8831422 -0.09076709 -0.4602402
vn 0.7182476 -0.4196113 -0.5550196
vn 0.4965353 -0.1508929 -0.8548005
vn 0.4403015 -0.4586649 -0.7718557
vn 0.06332655 -0.3494089 -0.9348278
vn 0.1394871 -0.5443856 -0.8271564
vn -0.195773 -0.5866141 -0.7858478
vn -0.06871809 -0.6845018 -0.7257652
vn -0.3810487 -0.8087323 -0.4480557
vn -0.1601438 -0.8456869 -0.5090851
vn -0.3391566 -0.9220924 -0.1863288
vn -0.09497742 -0.9583446 -0.2693603
vn 0.005640612 -0.9897597 0.1426318
vn 0.1289395 -0.9874254 -0.09146503
vn 0.459998 -0.802051 0.380941
vn 0.4618724 -0.8866473 0.02302762
vn 0.3130175 -0.809562 -0.4966181
vn 0.3130175 -0.809562 -0.4966181
vn 0.3130175 -0.809562 -0.4966181
vn 0.3130175 -0.809562 -0.4966181
vn 0.3130175 -0.809562 -0.4966181
vn 0.3130175 -0.809562 -0.4966181
vn 0.3130175 -0.809562 -0.4966181
vn 0.3130175 -0.809562 -0.4966181
vn 0.3130175 -0.809562 -0.4966181
vn 0.3130175 -0.809562 -0.4966181
vn -0.4103668 -0.7958593 -0.4452046
vn -0.2367487 -0.6290385 -0.7404462
vn -0.3405078 -0.9299782 -0.1385458
vn -0.01788163 -0.9788316 0.2038844
vn 0.4835502 -0.7167696 0.5024147
vn -0.01788163 -0.9788316 0.2038844
vn 0.3834771 -0.09477518 -0.9186746
vn -0.007593168 -0.3756537 -0.926729
vn 0.8531662 0.03050161 -0.5207466
vn 0.9837707 -0.1611194 -0.07896636
vn 0.8446243 -0.4285361 0.3208839
vn 0.4835502 -0.7167696 0.5024147
vn -0.195773 -0.5866141 -0.7858478
vn 0.06332655 -0.3494089 -0.9348278
vn -0.007593168 -0.3756537 -0.926729
vn -0.2367487 -0.6290385 -0.7404462
vn -0.365398 0.7798476 0.508254
vn -0.3602235 0.7824135 0.5080041
vn -0.4339517 0.7746068 0.4600763
vn -0.4300534 0.7794232 0.4555805
vn -0.4339517 0.7746068 0.4600763
vn -0.4161076 0.8215916 0.3896687
vn -0.4300534 0.7794232 0.4555805
vn -0.4147956 0.8218787 0.3904612
vn -0.492403 0.8008869 0.3407631
vn -0.492403 0.8008869 0.3407631
vn -0.02665522 0.8870624 0.4608796
vn -0.3602235 0.7824135 0.5080041
vn -0.365398 0.7798476 0.508254
vn -0.02665522 0.8870624 0.4608796
g Owl_Mesh.026_0
f 3/3/3 2/2/2 1/1/1
f 2/2/2 4/4/4 1/1/1
f 1/1/1 4/4/4 5/5/5
f 4/4/4 6/6/6 5/5/5
f 5/5/5 6/6/6 7/7/7
f 6/6/6 8/8/8 7/7/7
f 7/7/7 8/8/8 9/9/9
f 8/8/8 10/10/10 9/9/9
f 9/9/9 10/10/10 11/11/11
f 10/10/10 12/12/12 11/11/11
f 11/11/11 12/12/12 13/13/13
f 12/12/12 14/14/14 13/13/13
f 13/13/13 14/14/14 15/15/15
f 14/14/14 16/16/16 15/15/15
f 15/15/15 16/16/16 17/17/17
f 16/16/16 18/18/18 17/17/17
f 17/17/17 18/18/18 19/19/19
f 18/18/18 20/20/20 19/19/19
f 19/19/19 20/20/20 21/21/21
f 20/20/20 22/22/22 21/21/21
g Owl_Mesh.026_1
f 23/23/23 4/4/4 2/2/2
f 24/24/24 6/6/6 4/4/4
f 25/25/25 8/8/8 6/6/6
f 26/26/26 10/10/10 8/8/8
f 10/10/10 27/27/27 12/12/12
f 12/12/12 28/28/28 14/14/14
f 14/14/14 29/29/29 16/16/16
f 16/16/16 30/30/30 18/18/18
f 18/18/18 31/31/31 20/20/20
f 20/20/20 32/32/32 22/22/22
f 34/34/34 13/13/13 33/33/33
f 13/13/13 15/15/15 33/33/33
f 33/33/33 15/15/15 35/35/35
f 15/15/15 17/17/17 35/35/35
f 35/35/35 17/17/17 19/19/19
f 36/36/36 35/35/35 19/19/19
f 19/19/19 21/21/21 37/37/37
f 38/38/38 19/19/19 37/37/37
f 40/40/40 39/39/39 11/11/11
f 39/39/39 9/9/9 11/11/11
f 7/7/7 9/9/9 39/39/39
f 41/41/41 7/7/7 39/39/39
f 5/5/5 7/7/7 41/41/41
f 42/42/42 5/5/5 41/41/41
f 1/1/1 5/5/5 42/42/42
f 43/43/43 1/1/1 42/42/42
f 43/43/43 44/44/44 1/1/1
f 44/44/44 3/3/3 1/1/1
f 47/47/47 46/46/46 45/45/45
f 48/48/48 47/47/47 45/45/45
g Owl_Mesh.026_2
f 51/51/51 50/50/50 49/49/49
f 52/52/52 51/51/51 49/49/49
f 55/55/55 54/54/54 53/53/53
f 54/54/54 56/56/56 53/53/53
f 56/56/56 54/54/54 57/57/57
f 58/58/58 56/56/56 57/57/57
f 61/61/61 60/60/60 59/59/59
f 62/62/62 61/61/61 59/59/59
