g Owl_Mesh.014
v 0.001045529 8.548493E-05 0.001267599
v 0.0004752531 -0.0007118416 0.0007582059
v 0.0003798282 -0.0006036878 0.001377081
v 0.0009733155 -0.000379653 0.0005221138
v 0.001325985 0.0005569171 0.0005120614
v 0.001165582 -5.981973E-06 2.633542E-05
v 0.001175304 0.0008435892 -0.0004640165
v 0.000978609 0.0002664327 -0.0005397614
v 0.0004705945 0.0008678901 -0.001215348
v 0.0004838186 0.0003335428 -0.0009599456
v -0.0004002025 0.0006941843 -0.001308679
v -0.0001298007 0.0001697111 -0.001073717
v -0.001132877 0.0002007819 -0.001000766
v -0.0006278634 -0.0001624799 -0.0008376231
v -0.001549823 -0.0003167676 -0.0002022418
v -0.0008201286 -0.0005361509 -0.0003418449
v -0.001365681 -0.0006390332 0.0005242923
v -0.0006331551 -0.0008085608 0.0002242532
v -0.0004337955 -0.0008897972 0.001116739
v -0.0001383657 -0.0008756709 0.0006444338
v 0.0003798282 -0.0006036878 0.001377081
v 0.0004752531 -0.0007118416 0.0007582059
v 0.0002669248 -0.0004518294 -0.0002924648
v 0.0002669248 -0.0004518294 -0.0002924648
v 0.0002669248 -0.0004518294 -0.0002924648
v 0.0002669248 -0.0004518294 -0.0002924648
v 0.0002669248 -0.0004518294 -0.0002924648
v 0.0002669248 -0.0004518294 -0.0002924648
v 0.0002669248 -0.0004518294 -0.0002924648
v 0.0002669248 -0.0004518294 -0.0002924648
v 0.0002669248 -0.0004518294 -0.0002924648
v 0.0002669248 -0.0004518294 -0.0002924648
v -0.001792481 -0.0001935887 -0.000173308
v -0.001391591 0.0003045178 -0.0010252
v -0.001509102 -0.0006114911 0.0007310614
v -0.0004984716 -0.0008869981 0.001236148
v 0.0003117019 -0.0004467893 0.00162501
v -0.0004984716 -0.0008869981 0.001236148
v 0.0003935495 0.001005344 -0.001251708
v -0.0006419178 0.0008834326 -0.001388083
v 0.001121833 0.001150825 -0.0005023882
v 0.001418875 0.0008695876 0.0005489531
v 0.001078553 0.0002880573 0.001462816
v 0.0003117019 -0.0004467893 0.00162501
v -0.001132877 0.0002007819 -0.001000766
v -0.0004002025 0.0006941843 -0.001308679
v -0.0006419178 0.0008834326 -0.001388083
v -0.001391591 0.0003045178 -0.0010252
v 0.001418875 0.0008695876 0.0005489531
v 0.001078553 0.0002880573 0.001462816
v 0.001121833 0.001150825 -0.0005023882
v -0.0006419178 0.0008834326 -0.001388083
v 0.0003117019 -0.0004467893 0.00162501
v -0.0004984716 -0.0008869981 0.001236148
v 0.0003935495 0.001005344 -0.001251708
v 0.001078553 0.0002880573 0.001462816
v 0.001121833 0.001150825 -0.0005023882
v -0.001509102 -0.0006114911 0.0007310614
v -0.0006419178 0.0008834326 -0.001388083
v -0.0004984716 -0.0008869981 0.001236148
v -0.001391591 0.0003045178 -0.0010252
v -0.001792481 -0.0001935887 -0.000173308
vt 0.09999999 0.6666667
vt 0 0.8333333
vt 0 0.6666667
vt 0.09999999 0.8333333
vt 0.2 0.6666667
vt 0.2 0.8333333
vt 0.3 0.6666667
vt 0.3 0.8333333
vt 0.4 0.6666667
vt 0.4 0.8333333
vt 0.5 0.6666667
vt 0.5 0.8333333
vt 0.6 0.6666667
vt 0.6 0.8333333
vt 0.7 0.6666667
vt 0.7 0.8333333
vt 0.8 0.6666667
vt 0.8 0.8333333
vt 0.9 0.6666667
vt 0.9 0.8333333
vt 0.9999999 0.6666667
vt 0.9999999 0.8333333
vt 0.05000001 1
vt 0.15 1
vt 0.25 1
vt 0.35 1
vt 0.45 1
vt 0.55 1
vt 0.65 1
vt 0.75 1
vt 0.85 1
vt 0.95 1
vt 0.7 0.5778252
vt 0.6 0.6015506
vt 0.8 0.5733751
vt 0.9 0.6115554
vt 0.9999999 0.5624496
vt 0.9234195 0.6215361
vt 0.4 0.6155005
vt 0.5 0.5893849
vt 0.3 0.5588812
vt 0.2 0.5194264
vt 0.09999999 0.5092645
vt 0.01234575 0.5561611
vt 0 0
vt 0 0
vt 0 0
vt 0 0
vt 0.2 0.5194264
vt 0.09999999 0.5092645
vt 0.3 0.5588812
vt 0.5 0.5893849
vt 0.9999999 0.5624496
vt 0.9234195 0.6215361
vt 0.4 0.6155005
vt 0.09999999 0.5092645
vt 0.3 0.5588812
vt 0.8 0.5733751
vt 0 0
vt 0.9234195 0.6215361
vt 0 0
vt 0.7 0.5778252
vn 0.8176041 -0.4878923 0.3057526
vn 0.4618726 -0.8866473 0.02302765
vn 0.4599982 -0.8020509 0.3809409
vn 0.7287334 -0.6841879 -0.02888706
vn 0.9704757 -0.2404293 -0.01924768
vn 0.8296239 -0.4932817 -0.261529
vn 0.8831422 -0.09076792 -0.4602403
vn 0.7182477 -0.4196114 -0.5550195
vn 0.4965355 -0.1508932 -0.8548005
vn 0.4403016 -0.4586649 -0.7718557
vn 0.0633265 -0.349409 -0.9348278
vn 0.1394871 -0.5443856 -0.8271564
vn -0.1957731 -0.5866141 -0.7858478
vn -0.06871811 -0.6845018 -0.7257652
vn -0.3810487 -0.8087323 -0.4480558
vn -0.1601439 -0.8456869 -0.5090852
vn -0.3391567 -0.9220924 -0.1863288
vn -0.09497745 -0.9583445 -0.2693603
vn 0.005640568 -0.9897597 0.1426318
vn 0.1289395 -0.9874254 -0.09146504
vn 0.4599982 -0.8020509 0.3809409
vn 0.4618726 -0.8866473 0.02302765
vn 0.3130175 -0.809562 -0.496618
vn 0.3130175 -0.809562 -0.496618
vn 0.3130175 -0.809562 -0.496618
vn 0.3130175 -0.809562 -0.496618
vn 0.3130175 -0.809562 -0.496618
vn 0.3130175 -0.809562 -0.496618
vn 0.3130175 -0.809562 -0.496618
vn 0.3130175 -0.809562 -0.496618
vn 0.3130175 -0.809562 -0.496618
vn 0.3130175 -0.809562 -0.496618
vn -0.4103668 -0.7958593 -0.4452047
vn -0.2367488 -0.6290385 -0.7404461
vn -0.3405079 -0.9299782 -0.1385458
vn -0.01788169 -0.9788316 0.2038844
vn 0.4835505 -0.7167695 0.5024146
vn -0.01788169 -0.9788316 0.2038844
vn 0.3834773 -0.09477542 -0.9186745
vn -0.00759331 -0.3756538 -0.926729
vn 0.8531663 0.03050025 -0.5207465
vn 0.9837705 -0.161121 -0.07896674
vn 0.8446243 -0.4285365 0.3208836
vn 0.4835505 -0.7167695 0.5024146
vn -0.1957731 -0.5866141 -0.7858478
vn 0.0633265 -0.349409 -0.9348278
vn -0.00759331 -0.3756538 -0.926729
vn -0.2367488 -0.6290385 -0.7404461
vn -0.4599541 0.8167241 0.3484304
vn -0.5578766 0.755827 0.3427816
vn -0.5588624 0.7551361 0.3426983
vn -0.3038094 0.816763 0.4905079
vn -0.4646629 0.7804268 0.4183566
vn -0.3067252 0.8160925 0.4898088
vn -0.4543727 0.7829083 0.4249707
vn -0.5578766 0.755827 0.3427816
vn -0.5588624 0.7551361 0.3426983
vn -0.1790704 0.8439775 0.5056044
vn -0.3038094 0.816763 0.4905079
vn -0.3067252 0.8160925 0.4898088
vn -0.1797926 0.8432551 0.5065526
vn -0.1379407 0.8819256 0.4507543
g Owl_Mesh.014_0
f 3/3/3 2/2/2 1/1/1
f 2/2/2 4/4/4 1/1/1
f 1/1/1 4/4/4 5/5/5
f 4/4/4 6/6/6 5/5/5
f 5/5/5 6/6/6 7/7/7
f 6/6/6 8/8/8 7/7/7
f 7/7/7 8/8/8 9/9/9
f 8/8/8 10/10/10 9/9/9
f 9/9/9 10/10/10 11/11/11
f 10/10/10 12/12/12 11/11/11
f 11/11/11 12/12/12 13/13/13
f 12/12/12 14/14/14 13/13/13
f 13/13/13 14/14/14 15/15/15
f 14/14/14 16/16/16 15/15/15
f 15/15/15 16/16/16 17/17/17
f 16/16/16 18/18/18 17/17/17
f 17/17/17 18/18/18 19/19/19
f 18/18/18 20/20/20 19/19/19
f 19/19/19 20/20/20 21/21/21
f 20/20/20 22/22/22 21/21/21
g Owl_Mesh.014_1
f 23/23/23 4/4/4 2/2/2
f 24/24/24 6/6/6 4/4/4
f 25/25/25 8/8/8 6/6/6
f 26/26/26 10/10/10 8/8/8
f 10/10/10 27/27/27 12/12/12
f 12/12/12 28/28/28 14/14/14
f 14/14/14 29/29/29 16/16/16
f 16/16/16 30/30/30 18/18/18
f 18/18/18 31/31/31 20/20/20
f 20/20/20 32/32/32 22/22/22
f 34/34/34 13/13/13 33/33/33
f 13/13/13 15/15/15 33/33/33
f 33/33/33 15/15/15 35/35/35
f 15/15/15 17/17/17 35/35/35
f 35/35/35 17/17/17 19/19/19
f 36/36/36 35/35/35 19/19/19
f 19/19/19 21/21/21 37/37/37
f 38/38/38 19/19/19 37/37/37
f 40/40/40 39/39/39 11/11/11
f 39/39/39 9/9/9 11/11/11
f 7/7/7 9/9/9 39/39/39
f 41/41/41 7/7/7 39/39/39
f 5/5/5 7/7/7 41/41/41
f 42/42/42 5/5/5 41/41/41
f 1/1/1 5/5/5 42/42/42
f 43/43/43 1/1/1 42/42/42
f 43/43/43 44/44/44 1/1/1
f 44/44/44 3/3/3 1/1/1
f 47/47/47 46/46/46 45/45/45
f 48/48/48 47/47/47 45/45/45
g Owl_Mesh.014_2
f 51/51/51 50/50/50 49/49/49
f 54/54/54 53/53/53 52/52/52
f 53/53/53 55/55/55 52/52/52
f 55/55/55 53/53/53 56/56/56
f 57/57/57 55/55/55 56/56/56
f 60/60/60 59/59/59 58/58/58
f 59/59/59 61/61/61 58/58/58
f 58/58/58 61/61/61 62/62/62
