g Owl_Mesh.002
v -0.00104553 8.548503E-05 0.001267597
v -0.000379828 -0.0006036878 0.001377081
v -0.0004752529 -0.0007118416 0.0007582059
v -0.0009733158 -0.0003796529 0.0005221125
v -0.001325985 0.0005569197 0.0005120602
v -0.001165581 -5.981871E-06 2.633423E-05
v -0.001175304 0.0008435894 -0.0004640177
v -0.0009786082 0.0002664352 -0.0005397627
v -0.0004705947 0.0008678913 -0.001215348
v -0.0004838184 0.0003335452 -0.0009599456
v 0.0004002023 0.0006941843 -0.001308679
v 0.000129801 0.0001697111 -0.001073717
v 0.001132878 0.0002007841 -0.001000766
v 0.0006278637 -0.0001624775 -0.0008376231
v 0.001549823 -0.0003167654 -0.0002022418
v 0.0008201289 -0.0005361486 -0.0003418449
v 0.001365681 -0.000639031 0.0005242923
v 0.0006331554 -0.0008085608 0.0002242532
v 0.0004337957 -0.0008897948 0.001116739
v 0.0001383659 -0.0008756685 0.0006444338
v -0.000379828 -0.0006036878 0.001377081
v -0.0004752529 -0.0007118416 0.0007582059
v -0.0002669245 -0.0004518294 -0.0002924648
v -0.0002669245 -0.0004518294 -0.0002924648
v -0.0002669245 -0.0004518294 -0.0002924648
v -0.0002669245 -0.0004518294 -0.0002924648
v -0.0002669245 -0.0004518294 -0.0002924648
v -0.0002669245 -0.0004518294 -0.0002924648
v -0.0002669245 -0.0004518294 -0.0002924648
v -0.0002669245 -0.0004518294 -0.0002924648
v -0.0002669245 -0.0004518294 -0.0002924648
v -0.0002669245 -0.0004518294 -0.0002924648
v 0.001792481 -0.0001935864 -0.000173308
v 0.001391592 0.0003045177 -0.0010252
v 0.001509102 -0.0006114889 0.0007310614
v 0.0004984718 -0.0008869958 0.001236148
v -0.0003117016 -0.0004467869 0.00162501
v 0.0004984718 -0.0008869958 0.001236148
v 0.0006419176 0.0008834338 -0.001388083
v -0.0003935498 0.001005346 -0.001251708
v -0.001121833 0.001150826 -0.0005023893
v -0.001418875 0.0008695889 0.0005489519
v -0.001078554 0.0002880598 0.001462815
v -0.0003117016 -0.0004467869 0.00162501
v 0.001132878 0.0002007841 -0.001000766
v 0.001391592 0.0003045177 -0.0010252
v 0.0006419176 0.0008834338 -0.001388083
v 0.0004002023 0.0006941843 -0.001308679
v -0.001418875 0.0008695889 0.0005489519
v -0.001121833 0.001150826 -0.0005023893
v -0.001078554 0.0002880598 0.001462815
v 0.0006419176 0.0008834338 -0.001388083
v 0.0004984718 -0.0008869958 0.001236148
v -0.0003117016 -0.0004467869 0.00162501
v -0.0003935498 0.001005346 -0.001251708
v -0.001078554 0.0002880598 0.001462815
v -0.001121833 0.001150826 -0.0005023893
v 0.001509102 -0.0006114889 0.0007310614
v 0.0004984718 -0.0008869958 0.001236148
v 0.0006419176 0.0008834338 -0.001388083
v 0.001391592 0.0003045177 -0.0010252
v 0.001792481 -0.0001935864 -0.000173308
vt 0.09999999 0.6666667
vt 0 0.6666667
vt 0 0.8333333
vt 0.09999999 0.8333333
vt 0.2 0.6666667
vt 0.2 0.8333333
vt 0.3 0.6666667
vt 0.3 0.8333333
vt 0.4 0.6666667
vt 0.4 0.8333333
vt 0.5 0.6666667
vt 0.5 0.8333333
vt 0.6 0.6666667
vt 0.6 0.8333333
vt 0.7 0.6666667
vt 0.7 0.8333333
vt 0.8 0.6666667
vt 0.8 0.8333333
vt 0.9 0.6666667
vt 0.9 0.8333333
vt 0.9999999 0.6666667
vt 0.9999999 0.8333333
vt 0.05000001 1
vt 0.15 1
vt 0.25 1
vt 0.35 1
vt 0.45 1
vt 0.55 1
vt 0.65 1
vt 0.75 1
vt 0.85 1
vt 0.95 1
vt 0.7 0.5778252
vt 0.6 0.6015506
vt 0.8 0.5733751
vt 0.9 0.6115554
vt 0.9999999 0.5624496
vt 0.9234195 0.6215361
vt 0.5 0.5893849
vt 0.4 0.6155005
vt 0.3 0.5588812
vt 0.2 0.5194264
vt 0.09999999 0.5092645
vt 0.01234575 0.5561611
vt 0 0
vt 0 0
vt 0 0
vt 0 0
vt 0.2 0.5194264
vt 0.3 0.5588812
vt 0.09999999 0.5092645
vt 0.5 0.5893849
vt 0.9234195 0.6215361
vt 0.9999999 0.5624496
vt 0.4 0.6155005
vt 0.09999999 0.5092645
vt 0.3 0.5588812
vt 0.8 0.5733751
vt 0.9234195 0.6215361
vt 0 0
vt 0 0
vt 0.7 0.5778252
vn -0.8176038 -0.4878916 0.3057543
vn -0.4599962 -0.802051 0.3809432
vn -0.4618712 -0.886648 0.02302764
vn -0.7287335 -0.6841878 -0.02888763
vn -0.9704759 -0.2404289 -0.01924806
vn -0.8296235 -0.4932818 -0.2615301
vn -0.8831419 -0.09076873 -0.4602407
vn -0.7182471 -0.4196113 -0.5550203
vn -0.4965351 -0.1508934 -0.8548006
vn -0.4403017 -0.4586647 -0.7718557
vn -0.0633266 -0.3494093 -0.9348278
vn -0.1394872 -0.5443861 -0.8271561
vn 0.1957723 -0.5866147 -0.7858476
vn 0.06871934 -0.6845018 -0.725765
vn 0.3810483 -0.8087326 -0.4480556
vn 0.160145 -0.8456861 -0.509086
vn 0.339157 -0.9220923 -0.1863286
vn 0.09497788 -0.9583448 -0.2693595
vn -0.005638934 -0.9897594 0.1426335
vn -0.1289383 -0.9874256 -0.0914639
vn -0.4599962 -0.802051 0.3809432
vn -0.4618712 -0.886648 0.02302764
vn -0.313017 -0.809562 -0.4966184
vn -0.313017 -0.809562 -0.4966184
vn -0.313017 -0.809562 -0.4966184
vn -0.313017 -0.809562 -0.4966184
vn -0.313017 -0.809562 -0.4966184
vn -0.313017 -0.809562 -0.4966184
vn -0.313017 -0.809562 -0.4966184
vn -0.313017 -0.809562 -0.4966184
vn -0.313017 -0.809562 -0.4966184
vn -0.313017 -0.809562 -0.4966184
vn 0.4103655 -0.7958602 -0.445204
vn 0.2367476 -0.6290407 -0.7404447
vn 0.3405079 -0.9299782 -0.1385458
vn 0.01788349 -0.9788312 0.2038865
vn -0.4835487 -0.7167675 0.5024191
vn 0.01788349 -0.9788312 0.2038865
vn 0.007592688 -0.3756539 -0.926729
vn -0.3834768 -0.09477506 -0.9186747
vn -0.853166 0.03050016 -0.5207471
vn -0.9837705 -0.1611208 -0.07896652
vn -0.8446245 -0.428535 0.3208853
vn -0.4835487 -0.7167675 0.5024191
vn 0.1957723 -0.5866147 -0.7858476
vn 0.2367476 -0.6290407 -0.7404447
vn 0.007592688 -0.3756539 -0.926729
vn -0.0633266 -0.3494093 -0.9348278
vn 0.4599529 0.816725 0.3484305
vn 0.558862 0.7551365 0.3426981
vn 0.5578762 0.7558274 0.3427815
vn 0.3038097 0.8167632 0.4905074
vn 0.3067255 0.8160926 0.4898084
vn 0.4646627 0.7804271 0.4183564
vn 0.4543725 0.7829086 0.4249704
vn 0.5578762 0.7558274 0.3427815
vn 0.558862 0.7551365 0.3426981
vn 0.1790705 0.8439778 0.5056038
vn 0.3067255 0.8160926 0.4898084
vn 0.3038097 0.8167632 0.4905074
vn 0.1797927 0.8432554 0.5065519
vn 0.1379378 0.8819263 0.450754
g Owl_Mesh.002_0
f 3/3/3 2/2/2 1/1/1
f 4/4/4 3/3/3 1/1/1
f 4/4/4 1/1/1 5/5/5
f 6/6/6 4/4/4 5/5/5
f 6/6/6 5/5/5 7/7/7
f 8/8/8 6/6/6 7/7/7
f 8/8/8 7/7/7 9/9/9
f 10/10/10 8/8/8 9/9/9
f 10/10/10 9/9/9 11/11/11
f 12/12/12 10/10/10 11/11/11
f 12/12/12 11/11/11 13/13/13
f 14/14/14 12/12/12 13/13/13
f 14/14/14 13/13/13 15/15/15
f 16/16/16 14/14/14 15/15/15
f 16/16/16 15/15/15 17/17/17
f 18/18/18 16/16/16 17/17/17
f 18/18/18 17/17/17 19/19/19
f 20/20/20 18/18/18 19/19/19
f 20/20/20 19/19/19 21/21/21
f 22/22/22 20/20/20 21/21/21
g Owl_Mesh.002_1
f 4/4/4 23/23/23 3/3/3
f 6/6/6 24/24/24 4/4/4
f 8/8/8 25/25/25 6/6/6
f 10/10/10 26/26/26 8/8/8
f 27/27/27 10/10/10 12/12/12
f 28/28/28 12/12/12 14/14/14
f 29/29/29 14/14/14 16/16/16
f 30/30/30 16/16/16 18/18/18
f 31/31/31 18/18/18 20/20/20
f 32/32/32 20/20/20 22/22/22
f 13/13/13 34/34/34 33/33/33
f 15/15/15 13/13/13 33/33/33
f 15/15/15 33/33/33 35/35/35
f 17/17/17 15/15/15 35/35/35
f 17/17/17 35/35/35 19/19/19
f 35/35/35 36/36/36 19/19/19
f 19/19/19 38/38/38 37/37/37
f 21/21/21 19/19/19 37/37/37
f 40/40/40 39/39/39 11/11/11
f 9/9/9 40/40/40 11/11/11
f 9/9/9 7/7/7 40/40/40
f 7/7/7 41/41/41 40/40/40
f 7/7/7 5/5/5 41/41/41
f 5/5/5 42/42/42 41/41/41
f 5/5/5 1/1/1 42/42/42
f 1/1/1 43/43/43 42/42/42
f 44/44/44 43/43/43 1/1/1
f 2/2/2 44/44/44 1/1/1
f 47/47/47 46/46/46 45/45/45
f 48/48/48 47/47/47 45/45/45
g Owl_Mesh.002_2
f 51/51/51 50/50/50 49/49/49
f 54/54/54 53/53/53 52/52/52
f 55/55/55 54/54/54 52/52/52
f 54/54/54 55/55/55 56/56/56
f 55/55/55 57/57/57 56/56/56
f 60/60/60 59/59/59 58/58/58
f 61/61/61 60/60/60 58/58/58
f 61/61/61 58/58/58 62/62/62
