g Owl_Mesh.003
v -0.0008405416 -0.001119971 0.001453468
v -0.0008405416 -0.0009367299 0.001545001
v 2.835958E-11 -0.001324377 0.001586812
v 0.0008405414 -0.001119971 0.001453468
v 2.835958E-11 -0.001324377 0.001586812
v 0.0008405414 -0.0009367299 0.001545001
v -0.001462596 -0.0008419918 0.0008969797
v -0.0008405416 -0.0009367299 0.001545001
v -0.0008405416 -0.001119971 0.001453468
v -0.001462596 -0.0004783987 0.001078605
v -0.001462596 -0.00016088 0.0005253096
v -0.001462596 -0.0005031442 0.0002186473
v -0.001457255 0.0006331278 -7.576689E-05
v -0.001462596 -0.0001643013 -0.000459684
v -0.0008405416 -0.001119971 0.001453468
v 2.835958E-11 -0.001324377 0.001586812
v -0.001462596 -0.0008419918 0.0008969797
v -0.001462596 -0.0005031442 0.0002186473
v 1.055659E-10 -0.000731411 -0.0004474263
v -0.001462596 -0.0001643013 -0.000459684
v 1.163705E-10 0.0009191918 -0.002547486
v -0.0006759692 0.001020293 -0.00204543
v -0.001457255 0.0006331278 -7.576689E-05
v -8.027818E-12 0.002200266 -0.001859795
v -0.0006759693 0.002020161 -0.001503184
v 0.001462596 -0.000841992 0.0008969797
v 0.0008405414 -0.001119971 0.001453468
v 0.0008405414 -0.0009367299 0.001545001
v 0.001462596 -0.0004783989 0.001078605
v 0.001462596 -0.0001608801 0.0005253096
v 0.001462596 -0.0005031443 0.0002186473
v 0.001457255 0.0006331276 -7.576689E-05
v 0.001462596 -0.0001643015 -0.000459684
v 0.0008405414 -0.001119971 0.001453468
v 0.001462596 -0.000841992 0.0008969797
v 2.835958E-11 -0.001324377 0.001586812
v 0.001462596 -0.0005031443 0.0002186473
v 1.055659E-10 -0.000731411 -0.0004474263
v 0.001462596 -0.0001643015 -0.000459684
v 1.163705E-10 0.0009191918 -0.002547486
v 0.0006759694 0.001020293 -0.00204543
v 0.001457255 0.0006331276 -7.576689E-05
v -8.027818E-12 0.002200266 -0.001859795
v 0.0006759692 0.002020161 -0.001503184
v 0.0008405414 -0.0009367299 0.001545001
v 2.835958E-11 -0.001324377 0.001586812
v 0.001462596 -0.0004783989 0.001078605
v -0.0008405416 -0.0009367299 0.001545001
v -0.001462596 -0.0004783987 0.001078605
v 2.835958E-11 -0.001324377 0.001586812
v 0.001462596 -0.0004783989 0.001078605
v -0.001462596 -0.00016088 0.0005253096
v 0.001462596 -0.0001608801 0.0005253096
v -0.001457255 0.0006331278 -7.576689E-05
v 0.001457255 0.0006331276 -7.576689E-05
v 0.0006759692 0.002020161 -0.001503184
v -0.0006759693 0.002020161 -0.001503184
v -8.027818E-12 0.002200266 -0.001859795
vt 0.625 0.6968364
vt 0.6538864 0.6968364
vt 0.6317822 0.6249999
vt 0.625 0.6968364
vt 0.6317822 0.6249999
vt 0.6538864 0.6968364
vt 0.5718364 0.75
vt 0.625 0.7788863
vt 0.625 0.75
vt 0.5718364 0.807317
vt 0.5070325 0.821025
vt 0.5070325 0.75
vt 0.4422287 0.8742363
vt 0.4422287 0.75
vt 0.625 0.6968364
vt 0.625 0.625
vt 0.5718364 0.75
vt 0.4734182 0.75
vt 0.5 0.625
vt 0.375 0.75
vt 0.375 0.625
vt 0.375 0.6827713
vt 0.2499946 0.7490976
vt 0.1518448 0.625
vt 0.1750896 0.6827714
vt 0.5718364 0.75
vt 0.625 0.75
vt 0.625 0.7788863
vt 0.5718364 0.807317
vt 0.5070325 0.821025
vt 0.5070325 0.75
vt 0.4422287 0.8742363
vt 0.4422287 0.75
vt 0.625 0.6968364
vt 0.5718364 0.75
vt 0.625 0.625
vt 0.4734182 0.75
vt 0.5 0.625
vt 0.375 0.75
vt 0.375 0.625
vt 0.375 0.6827713
vt 0.2499946 0.7490976
vt 0.1518448 0.625
vt 0.1750896 0.6827714
vt 0.625 0.7788863
vt 0.6317822 0.6249999
vt 0.5718364 0.807317
vt 0.625 0.7788863
vt 0.5718364 0.807317
vt 0.6317822 0.6249999
vt 0.5718364 0.807317
vt 0.5070325 0.821025
vt 0.5070325 0.821025
vt 0.4422287 0.8742363
vt 0.4422287 0.8742363
vt 0.1750896 0.6827714
vt 0.1750896 0.6827714
vt 0.1518448 0.625
vn -0.4407766 -0.8063753 0.3943029
vn -0.5392028 -0.3763468 0.7534078
vn 0 -0.986673 -0.1627159
vn 0.4407765 -0.8063753 0.3943033
vn 0 -0.986673 -0.1627159
vn 0.5392027 -0.3763469 0.7534078
vn -0.7643618 -0.6417859 0.06214461
vn -0.5392028 -0.3763468 0.7534078
vn -0.4407766 -0.8063753 0.3943029
vn -0.9382326 -0.1546211 0.3095352
vn -0.9999973 0.002336328 -8.115285E-06
vn -0.7950379 -0.5469243 -0.2622761
vn -0.970235 0.1137062 -0.2138106
vn -0.8049414 -0.4001615 -0.4381098
vn -0.4407766 -0.8063753 0.3943029
vn 0 -0.986673 -0.1627159
vn -0.7643618 -0.6417859 0.06214461
vn -0.7950379 -0.5469243 -0.2622761
vn 0 -0.8757582 -0.4827502
vn -0.8049414 -0.4001615 -0.4381098
vn 0 -0.1701289 -0.9854218
vn -0.7348579 -0.01101123 -0.6781318
vn -0.970235 0.1137062 -0.2138106
vn 0 0.4746197 -0.880191
vn -0.7376359 0.3185061 -0.5953547
vn 0.7643617 -0.641786 0.06214458
vn 0.4407765 -0.8063753 0.3943033
vn 0.5392027 -0.3763469 0.7534078
vn 0.9382326 -0.1546212 0.3095352
vn 0.9999973 0.002336328 -8.115285E-06
vn 0.7950379 -0.5469243 -0.2622761
vn 0.970235 0.1137063 -0.2138105
vn 0.8049414 -0.4001615 -0.4381098
vn 0.4407765 -0.8063753 0.3943033
vn 0.7643617 -0.641786 0.06214458
vn 0 -0.986673 -0.1627159
vn 0.7950379 -0.5469243 -0.2622761
vn 0 -0.8757582 -0.4827502
vn 0.8049414 -0.4001615 -0.4381098
vn 0 -0.1701289 -0.9854218
vn 0.7348579 -0.01101104 -0.6781317
vn 0.970235 0.1137063 -0.2138105
vn 0 0.4746197 -0.880191
vn 0.7376359 0.3185062 -0.5953546
vn -0.3800667 0.8606539 0.338857
vn 1.136888E-07 0.6185752 0.7857255
vn -0.04367064 0.8079771 0.5875932
vn 0.3800671 0.8606537 0.3388573
vn 0.04367074 0.8079771 0.5875933
vn 1.136888E-07 0.6185752 0.7857255
vn -0.04367064 0.8079771 0.5875932
vn 0 0.7507801 0.6605523
vn 0 0.7507801 0.6605523
vn 0 0.6544513 0.7561042
vn 0 0.6544513 0.7561042
vn 0 0.7608543 0.6489227
vn 0 0.7608543 0.6489227
vn 0 0.8926183 0.4508131
g Owl_Mesh.003_0
f 3/3/3 2/2/2 1/1/1
f 6/6/6 5/5/5 4/4/4
f 9/9/9 8/8/8 7/7/7
f 8/8/8 10/10/10 7/7/7
f 7/7/7 10/10/10 11/11/11
f 12/12/12 7/7/7 11/11/11
f 12/12/12 11/11/11 13/13/13
f 14/14/14 12/12/12 13/13/13
f 17/17/17 16/16/16 15/15/15
f 17/17/17 18/18/18 16/16/16
f 18/18/18 19/19/19 16/16/16
f 18/18/18 20/20/20 19/19/19
f 20/20/20 21/21/21 19/19/19
f 22/22/22 21/21/21 20/20/20
f 20/20/20 23/23/23 22/22/22
f 21/21/21 22/22/22 24/24/24
f 23/23/23 25/25/25 22/22/22
f 22/22/22 25/25/25 24/24/24
f 28/28/28 27/27/27 26/26/26
f 29/29/29 28/28/28 26/26/26
f 29/29/29 26/26/26 30/30/30
f 26/26/26 31/31/31 30/30/30
f 30/30/30 31/31/31 32/32/32
f 31/31/31 33/33/33 32/32/32
f 36/36/36 35/35/35 34/34/34
f 37/37/37 35/35/35 36/36/36
f 38/38/38 37/37/37 36/36/36
f 39/39/39 37/37/37 38/38/38
f 40/40/40 39/39/39 38/38/38
f 40/40/40 41/41/41 39/39/39
f 42/42/42 39/39/39 41/41/41
f 41/41/41 40/40/40 43/43/43
f 44/44/44 42/42/42 41/41/41
f 44/44/44 41/41/41 43/43/43
g Owl_Mesh.003_1
f 47/47/47 46/46/46 45/45/45
f 50/50/50 49/49/49 48/48/48
f 50/50/50 51/51/51 49/49/49
f 49/49/49 51/51/51 52/52/52
f 51/51/51 53/53/53 52/52/52
f 52/52/52 53/53/53 54/54/54
f 53/53/53 55/55/55 54/54/54
f 55/55/55 56/56/56 54/54/54
f 56/56/56 57/57/57 54/54/54
f 56/56/56 58/58/58 57/57/57
