g Owl_Mesh.009
v -0.009462427 0.00273285 0.005875356
v -0.006591029 0.001331512 0.009546474
v -0.01005812 -0.000872277 0.008842765
v -0.005675951 0.006141376 0.005743118
v -0.008699754 0.006074839 0.002532147
v -6.414363E-05 0.002397913 0.01103217
v -0.005064143 0.01015542 0.001505579
v -6.414371E-05 0.007076824 0.007076583
v -6.414371E-05 0.01097001 0.002548047
v -0.008180426 -0.0008239925 -0.006021737
v -0.01141501 -0.003776853 0.004694601
v -0.009840662 -0.006221215 -0.001363861
v -0.01072206 3.644954E-05 0.002024498
v -0.008209361 0.003395325 -0.006797207
v -0.009739215 0.003849753 -0.0006456051
v 0.00933414 0.002732851 0.005875358
v 0.009929838 -0.0008722754 0.008842766
v 0.00646274 0.001331512 0.009546475
v 0.005547661 0.006141378 0.005743119
v 0.008571466 0.00607484 0.002532148
v -6.414363E-05 0.002397913 0.01103217
v 0.004935856 0.01015542 0.001505579
v -6.414371E-05 0.007076824 0.007076583
v -6.414371E-05 0.01097001 0.002548047
v 0.00805214 -0.0008239914 -0.006021736
v 0.009712377 -0.006221214 -0.00136386
v 0.01128673 -0.003776852 0.004694602
v 0.01059378 3.645099E-05 0.002024499
v 0.008081075 0.003395326 -0.006797206
v 0.009610928 0.003849754 -0.000645604
v -0.006123234 -0.004258104 -0.008857282
v -0.006449112 -0.008961769 -0.005277778
v -0.003189966 -0.003165384 -0.009365589
v -0.002784276 -0.009758276 -0.006588067
v -6.414192E-05 -0.005019902 -0.01004504
v -6.414175E-05 -0.01017702 -0.0071861
v 0.005994949 -0.004258103 -0.008857281
v 0.006320827 -0.008961768 -0.005277777
v 0.003061682 -0.003165382 -0.009365589
v 0.002655993 -0.009758274 -0.006588067
v -6.414192E-05 -0.005019902 -0.01004504
v -6.414175E-05 -0.01017702 -0.0071861
v 0.00805214 -0.0008239914 -0.006021736
v 0.003061682 -0.003165382 -0.009365589
v 0.005994949 -0.004258103 -0.008857281
v 0.008081075 0.003395326 -0.006797206
v -0.008209361 0.003395325 -0.006797207
v -0.003189966 -0.003165384 -0.009365589
v -6.414192E-05 -0.005019902 -0.01004504
v -0.009739215 0.003849753 -0.0006456051
v 0.009610928 0.003849754 -0.000645604
v -6.414371E-05 0.01097001 0.002548047
v 0.004935856 0.01015542 0.001505579
v 0.008571466 0.00607484 0.002532148
v 0.00933414 0.002732851 0.005875358
v 0.01059378 3.645099E-05 0.002024499
v 0.009929838 -0.0008722754 0.008842766
v 0.01128673 -0.003776852 0.004694602
v 0.009712377 -0.006221214 -0.00136386
v 0.006320827 -0.008961768 -0.005277777
v 0.002655993 -0.009758274 -0.006588067
v 0.00646274 0.001331512 0.009546475
v -6.414175E-05 -0.01017702 -0.0071861
v -6.414363E-05 0.002397913 0.01103217
v -0.006591029 0.001331512 0.009546474
v -0.002784276 -0.009758276 -0.006588067
v -0.01005812 -0.000872277 0.008842765
v -0.006449112 -0.008961769 -0.005277778
v -0.009840662 -0.006221215 -0.001363861
v -0.01141501 -0.003776853 0.004694601
v -0.01072206 3.644954E-05 0.002024498
v -0.009462427 0.00273285 0.005875356
v -0.009739215 0.003849753 -0.0006456051
v -0.008699754 0.006074839 0.002532147
v -0.005064143 0.01015542 0.001505579
v -0.008180426 -0.0008239925 -0.006021737
v -0.006123234 -0.004258104 -0.008857282
v -0.003189966 -0.003165384 -0.009365589
v -0.008209361 0.003395325 -0.006797207
v 0.0005196606 0.006245071 -0.0006547507
v 0.001607938 -0.004246262 0.004066077
v -0.0001241121 -0.003746262 0.004932102
v 0.002251711 0.005745071 -0.001520776
v 0.001607938 -0.005246262 0.002334026
v 0.002251711 0.00474507 -0.003252827
v -0.0001241121 -0.005746262 0.001468001
v 0.0005196606 0.004245071 -0.004118852
v -0.001856163 -0.005246262 0.002334026
v -0.00121239 0.00474507 -0.003252827
v -0.001856163 -0.004246262 0.004066077
v -0.00121239 0.005745071 -0.001520776
v -0.0001241121 -0.003746262 0.004932102
v 0.0005196606 0.006245071 -0.0006547507
v 0.001607938 -0.005246262 0.002334026
v -0.0001241121 -0.005746262 0.001468001
v -0.001856163 -0.005246262 0.002334026
v 0.001607938 -0.004246262 0.004066077
v -0.001856163 -0.004246262 0.004066077
v -0.0001241121 -0.003746262 0.004932102
v -0.00121239 0.00474507 -0.003252827
v 0.0005196606 0.004245071 -0.004118852
v 0.002251711 0.00474507 -0.003252827
v -0.00121239 0.005745071 -0.001520776
v 0.002251711 0.005745071 -0.001520776
v 0.0005196606 0.006245071 -0.0006547507
vt 0.4166667 0.625
vt 0.3333334 0.75
vt 0.4166668 0.75
vt 0.3333334 0.625
vt 0.4166668 0.5
vt 0.2500001 0.75
vt 0.3333334 0.5
vt 0.2500001 0.625
vt 0.2500001 0.5
vt 0.5833334 0.625
vt 0.5000001 0.75
vt 0.5833334 0.75
vt 0.5000001 0.625
vt 0.5833334 0.5
vt 0.5000001 0.5
vt 0.4166667 0.625
vt 0.4166668 0.75
vt 0.3333334 0.75
vt 0.3333334 0.625
vt 0.4166668 0.5
vt 0.2500001 0.75
vt 0.3333334 0.5
vt 0.2500001 0.625
vt 0.2500001 0.5
vt 0.5833334 0.625
vt 0.5833334 0.75
vt 0.5000001 0.75
vt 0.5000001 0.625
vt 0.5833334 0.5
vt 0.5000001 0.5
vt 0.6666667 0.625
vt 0.6666667 0.75
vt 0.7152127 0.625
vt 0.7152128 0.75
vt 0.75 0.625
vt 0.7500001 0.75
vt 0.6666667 0.625
vt 0.6666667 0.75
vt 0.7152127 0.625
vt 0.7152128 0.75
vt 0.75 0.625
vt 0.7500001 0.75
vt 0.5833334 0.625
vt 0.7152127 0.625
vt 0.6666667 0.625
vt 0.5833334 0.5
vt 0.5833334 0.5
vt 0.7152127 0.625
vt 0.75 0.625
vt 0.5000001 0.5
vt 0.5000001 0.5
vt 0.2500001 0.5
vt 0.3333334 0.5
vt 0.4166668 0.5
vt 0.4166667 0.625
vt 0.5000001 0.625
vt 0.4166668 0.75
vt 0.5000001 0.75
vt 0.5833334 0.75
vt 0.6666667 0.75
vt 0.7152128 0.75
vt 0.3333334 0.75
vt 0.7500001 0.75
vt 0.2500001 0.75
vt 0.3333334 0.75
vt 0.7152128 0.75
vt 0.4166668 0.75
vt 0.6666667 0.75
vt 0.5833334 0.75
vt 0.5000001 0.75
vt 0.5000001 0.625
vt 0.4166667 0.625
vt 0.5000001 0.5
vt 0.4166668 0.5
vt 0.3333334 0.5
vt 0.5833334 0.625
vt 0.6666667 0.625
vt 0.7152127 0.625
vt 0.5833334 0.5
vt 1 0.5
vt 0.8333333 1
vt 1 1
vt 0.8333333 0.5
vt 0.6666666 1
vt 0.6666666 0.5
vt 0.4999999 1
vt 0.4999999 0.5
vt 0.3333333 1
vt 0.3333333 0.5
vt 0.1666666 1
vt 0.1666666 0.5
vt -8.940697E-08 1
vt -8.940697E-08 0.5
vt 0.4578461 0.13
vt 0.25 0.01000001
vt 0.04215391 0.13
vt 0.4578461 0.37
vt 0.04215391 0.37
vt 0.25 0.49
vt 0.5421539 0.13
vt 0.75 0.01000001
vt 0.9578461 0.13
vt 0.5421539 0.37
vt 0.9578461 0.37
vt 0.75 0.49
vn -0.5258796 0.6082585 0.5945352
vn -0.4135993 0.6114916 0.674547
vn -0.5083068 0.5934076 0.6240925
vn -0.4100555 0.6601776 0.6293011
vn -0.5654927 0.6407772 0.5192521
vn -1.199592E-07 0.6492681 0.7605597
vn -0.3656244 0.7067682 0.605638
vn -1.401481E-07 0.7009338 0.7132263
vn -1.238372E-07 0.7519001 0.6592771
vn -0.9303154 -0.08154725 -0.35758
vn -0.9585953 0.01883887 -0.2841483
vn -0.9255188 -0.08244892 -0.3696175
vn -0.9595671 0.01132269 -0.2812525
vn -0.9613448 -0.003932399 -0.2753191
vn -0.9613448 -0.003932399 -0.2753191
vn 0.5258795 0.6082587 0.5945352
vn 0.5083067 0.5934078 0.6240926
vn 0.4135992 0.6114917 0.674547
vn 0.4100552 0.6601778 0.6293012
vn 0.5654925 0.6407773 0.5192521
vn -1.199592E-07 0.6492681 0.7605597
vn 0.3656242 0.7067682 0.6056383
vn -1.401481E-07 0.7009338 0.7132263
vn -1.238372E-07 0.7519001 0.6592771
vn 0.9303154 -0.0815473 -0.35758
vn 0.9255189 -0.08244885 -0.3696174
vn 0.9585953 0.01883902 -0.2841482
vn 0.9595671 0.01132273 -0.2812524
vn 0.9613449 -0.003932592 -0.2753191
vn 0.9613449 -0.003932592 -0.2753191
vn -0.5529519 -0.3916449 -0.7354308
vn -0.5932003 -0.3755366 -0.7120996
vn -0.2765687 -0.4508195 -0.8486881
vn -0.2845856 -0.4468977 -0.8481117
vn 0 -0.4428141 -0.8966135
vn 0 -0.4428141 -0.8966135
vn 0.5529521 -0.3916448 -0.7354308
vn 0.5932004 -0.3755366 -0.7120995
vn 0.2765689 -0.4508195 -0.8486881
vn 0.2845859 -0.4468977 -0.8481117
vn 0 -0.4428141 -0.8966135
vn 0 -0.4428141 -0.8966135
vn 0.5272164 0.08389928 -0.845579
vn 0.1706373 0.2857184 -0.9429994
vn 0.5272164 0.08389928 -0.845579
vn 0.1492667 0.785963 -0.5999847
vn -0.1492666 0.7859629 -0.5999848
vn -0.1706372 0.2857184 -0.9429994
vn 0 0.344013 -0.9389649
vn -0.585807 0.7585185 -0.2854466
vn 0.585807 0.7585186 -0.2854464
vn 0 0.342669 -0.9394562
vn -0.02050535 0.3091595 -0.9507891
vn 0.8668463 0.4946076 -0.06277733
vn 0.9519361 0.2852127 0.1116758
vn 0.9518154 0.2857873 0.111234
vn 0.4697803 -0.6334237 0.6148828
vn 0.5229113 -0.6852542 0.5069423
vn -0.00768759 -0.885645 0.4642994
vn -0.1754856 -0.8188696 0.5464955
vn -0.06979339 -0.820415 0.5674929
vn -0.09281121 -0.8185484 0.5668903
vn 0 -0.8233488 0.5675357
vn 0 -0.8233488 0.5675358
vn 0.09281123 -0.8185484 0.5668904
vn 0.06979344 -0.820415 0.5674929
vn -0.4697804 -0.6334239 0.6148826
vn 0.1754857 -0.8188697 0.5464954
vn 0.007687591 -0.8856449 0.4642995
vn -0.5229114 -0.6852542 0.5069422
vn -0.9518155 0.285787 0.111234
vn -0.9519361 0.2852124 0.1116757
vn -0.585807 0.7585185 -0.2854466
vn -0.8668461 0.4946076 -0.06277771
vn 0.02050528 0.3091599 -0.950789
vn -0.5272158 0.08389932 -0.8455793
vn -0.5272158 0.08389932 -0.8455793
vn -0.1706372 0.2857184 -0.9429994
vn -0.1492666 0.7859629 -0.5999848
vn 0.01413978 0.9217148 0.3876105
vn 0.6699626 -0.3504747 0.6544597
vn -0.01418005 -0.1380836 0.9903191
vn 0.7018626 0.7103854 0.05235793
vn 0.6706122 -0.7410873 -0.03269403
vn 0.7016179 0.3177088 -0.6378037
vn -0.0141398 -0.9217148 -0.3876104
vn 0.01418003 0.1380838 -0.990319
vn -0.7018628 -0.7103854 -0.05235784
vn -0.6699626 0.3504748 -0.6544596
vn -0.7016178 -0.3177088 0.6378037
vn -0.6706122 0.7410873 0.03269417
vn -0.01418005 -0.1380836 0.9903191
vn 0.01413978 0.9217148 0.3876105
vn 0.6706122 -0.7410873 -0.03269403
vn -0.0141398 -0.9217148 -0.3876104
vn -0.7018628 -0.7103854 -0.05235784
vn 0.6699626 -0.3504747 0.6544597
vn -0.7016178 -0.3177088 0.6378037
vn -0.01418005 -0.1380836 0.9903191
vn -0.6699626 0.3504748 -0.6544596
vn 0.01418003 0.1380838 -0.990319
vn 0.7016179 0.3177088 -0.6378037
vn -0.6706122 0.7410873 0.03269417
vn 0.7018626 0.7103854 0.05235793
vn 0.01413978 0.9217148 0.3876105
g Owl_Mesh.009_0
f 3/3/3 2/2/2 1/1/1
f 2/2/2 4/4/4 1/1/1
f 1/1/1 4/4/4 5/5/5
f 2/2/2 6/6/6 4/4/4
f 4/4/4 7/7/7 5/5/5
f 6/6/6 8/8/8 4/4/4
f 4/4/4 8/8/8 7/7/7
f 8/8/8 9/9/9 7/7/7
f 12/12/12 11/11/11 10/10/10
f 11/11/11 13/13/13 10/10/10
f 10/10/10 13/13/13 14/14/14
f 13/13/13 15/15/15 14/14/14
f 18/18/18 17/17/17 16/16/16
f 19/19/19 18/18/18 16/16/16
f 19/19/19 16/16/16 20/20/20
f 21/21/21 18/18/18 19/19/19
f 22/22/22 19/19/19 20/20/20
f 23/23/23 21/21/21 19/19/19
f 23/23/23 19/19/19 22/22/22
f 24/24/24 23/23/23 22/22/22
f 27/27/27 26/26/26 25/25/25
f 28/28/28 27/27/27 25/25/25
f 28/28/28 25/25/25 29/29/29
f 30/30/30 28/28/28 29/29/29
g Owl_Mesh.009_1
f 12/12/12 10/10/10 31/31/31
f 32/32/32 12/12/12 31/31/31
f 32/32/32 31/31/31 33/33/33
f 34/34/34 32/32/32 33/33/33
f 34/34/34 33/33/33 35/35/35
f 36/36/36 34/34/34 35/35/35
f 25/25/25 26/26/26 37/37/37
f 26/26/26 38/38/38 37/37/37
f 37/37/37 38/38/38 39/39/39
f 38/38/38 40/40/40 39/39/39
f 39/39/39 40/40/40 41/41/41
f 40/40/40 42/42/42 41/41/41
g Owl_Mesh.009_2
f 45/45/45 44/44/44 43/43/43
f 44/44/44 46/46/46 43/43/43
f 47/47/47 46/46/46 44/44/44
f 48/48/48 47/47/47 44/44/44
f 44/44/44 49/49/49 48/48/48
f 46/46/46 47/47/47 50/50/50
f 51/51/51 46/46/46 50/50/50
f 52/52/52 51/51/51 50/50/50
f 53/53/53 51/51/51 52/52/52
f 51/51/51 53/53/53 54/54/54
f 54/54/54 55/55/55 51/51/51
f 55/55/55 56/56/56 51/51/51
f 55/55/55 57/57/57 56/56/56
f 57/57/57 58/58/58 56/56/56
f 58/58/58 57/57/57 59/59/59
f 57/57/57 60/60/60 59/59/59
f 61/61/61 60/60/60 57/57/57
f 62/62/62 61/61/61 57/57/57
f 63/63/63 61/61/61 62/62/62
f 64/64/64 63/63/63 62/62/62
f 63/63/63 64/64/64 65/65/65
f 66/66/66 63/63/63 65/65/65
f 66/66/66 65/65/65 67/67/67
f 68/68/68 66/66/66 67/67/67
f 68/68/68 67/67/67 69/69/69
f 67/67/67 70/70/70 69/69/69
f 70/70/70 67/67/67 71/71/71
f 67/67/67 72/72/72 71/71/71
f 71/71/71 72/72/72 73/73/73
f 72/72/72 74/74/74 73/73/73
f 75/75/75 73/73/73 74/74/74
f 73/73/73 75/75/75 52/52/52
f 78/78/78 77/77/77 76/76/76
f 79/79/79 78/78/78 76/76/76
g Owl_Mesh.009_3
f 82/82/82 81/81/81 80/80/80
f 81/81/81 83/83/83 80/80/80
f 81/81/81 84/84/84 83/83/83
f 84/84/84 85/85/85 83/83/83
f 84/84/84 86/86/86 85/85/85
f 86/86/86 87/87/87 85/85/85
f 86/86/86 88/88/88 87/87/87
f 88/88/88 89/89/89 87/87/87
f 88/88/88 90/90/90 89/89/89
f 90/90/90 91/91/91 89/89/89
f 90/90/90 92/92/92 91/91/91
f 92/92/92 93/93/93 91/91/91
f 96/96/96 95/95/95 94/94/94
f 94/94/94 97/97/97 96/96/96
f 97/97/97 98/98/98 96/96/96
f 97/97/97 99/99/99 98/98/98
f 102/102/102 101/101/101 100/100/100
f 100/100/100 103/103/103 102/102/102
f 103/103/103 104/104/104 102/102/102
f 103/103/103 105/105/105 104/104/104
