g Owl_Mesh.008
v 0.0117502 0.007666843 -0.01061819
v 0.007090002 0.005255046 -0.009156781
v 0.01071074 0.005441758 -0.01379594
v -0.00812365 0.006782353 0.0009163821
v -0.01524986 0.009326553 0.003227191
v -0.01894562 0.00429486 0.006431833
v -0.01028159 0.002117076 0.003874215
v -0.02049878 -0.001345353 0.01036168
v -0.01051423 -0.002834295 0.007175787
v -0.02043594 -0.007707261 0.01495123
v -0.009253884 -0.00822429 0.01082272
v -0.02015751 -0.006331278 0.01818168
v -0.008832953 -0.007215318 0.01340313
v -0.01975373 0.0008187252 0.01527665
v -0.009591419 -0.001107527 0.01115057
v -0.002191787 -0.007474205 0.007397927
v -0.002873576 -0.002271506 0.005454141
v -0.009591419 -0.001107527 0.01115057
v -0.01975373 0.0008187252 0.01527665
v -0.0181025 0.006825739 0.01194201
v -0.009246117 0.004165202 0.008352421
v -0.002873576 -0.002271506 0.005454141
v -0.009246117 0.004165202 0.008352421
v -0.00261626 0.002212631 0.003038949
v 0.01085824 -0.003365047 -0.002007035
v 0.004427997 -0.0002832799 -0.002582812
v 0.01039183 0.0007197277 -0.004307571
v 0.004247426 -0.004141365 -0.0004649007
v 0.01301269 -0.008315257 -7.113576E-05
v 0.004875314 -0.008627118 0.001239095
v 0.01129034 -0.009978447 -0.003051049
v 0.004587152 -0.009119106 -0.0003458202
v 0.00962131 -0.005998152 -0.005785632
v 0.003575971 -0.00520396 -0.003071251
v 0.00903494 -0.002184848 -0.008455736
v -0.002536664 -0.008188413 0.00537298
v 0.003668902 -0.001597751 -0.005558451
v 0.009727887 0.001628454 -0.01112584
v 0.005182418 0.001815611 -0.007815825
v -0.003494489 0.0005833633 -0.0006010187
v -0.001692295 0.004550774 -0.003163416
v -0.003653371 -0.00361904 0.002242776
v -0.009253884 -0.00822429 0.01082272
v -0.008832953 -0.007215318 0.01340313
v -0.002191787 -0.007474205 0.007397927
v 0.004587152 -0.009119106 -0.0003458202
v 0.004875314 -0.008627118 0.001239095
v -0.002873576 -0.002271506 0.005454141
v 0.004247426 -0.004141365 -0.0004649007
v -0.00261626 0.002212631 0.003038949
v 0.004427997 -0.0002832799 -0.002582812
v -0.01051423 -0.002834295 0.007175787
v -0.003494489 0.0005833633 -0.0006010187
v -0.01028159 0.002117076 0.003874215
v 0.003668902 -0.001597751 -0.005558451
v -0.003494489 0.0005833633 -0.0006010187
v 0.003575971 -0.00520396 -0.003071251
v -0.001692295 0.004550774 -0.003163416
v -0.00812365 0.006782353 0.0009163821
v -0.01028159 0.002117076 0.003874215
v -0.003494489 0.0005833633 -0.0006010187
v -0.01448269 0.01157732 0.008258832
v -0.007177915 0.008584967 0.00499002
v -0.0008925293 0.005964546 0.0001320577
v -0.01070661 0.01460772 0.002198791
v -0.005171317 0.01170032 -0.0004830456
v -0.0008925293 0.005964546 0.0001320577
v -0.005171317 0.01170032 -0.0004830456
v 0.0006795457 0.008640246 -0.004524855
v -0.005171317 0.01170032 -0.0004830456
v -0.01070661 0.01460772 0.002198791
v 0.007090002 0.005255046 -0.009156781
v -0.001692295 0.004550774 -0.003163416
v 0.0006795457 0.008640246 -0.004524855
v -0.005171317 0.01170032 -0.0004830456
v 0.01098752 0.004324855 -0.007274979
v 0.005871588 0.00293715 -0.005137063
v -0.0008925293 0.005964546 0.0001320577
v 0.0006795457 0.008640246 -0.004524855
v 0.007090002 0.005255046 -0.009156781
v -0.0008925293 0.005964546 0.0001320577
v -0.01070661 0.01460772 0.002198791
v -0.01448269 0.01157732 0.008258832
v -0.01524986 0.009326553 0.003227191
v -0.0181025 0.006825739 0.01194201
v -0.01894562 0.00429486 0.006431833
v -0.01975373 0.0008187252 0.01527665
v -0.02049878 -0.001345353 0.01036168
v -0.02015751 -0.006331278 0.01818168
v -0.02043594 -0.007707261 0.01495123
v 0.01071074 0.005441758 -0.01379594
v 0.01098752 0.004324855 -0.007274979
v 0.0117502 0.007666843 -0.01061819
v 0.009727887 0.001628454 -0.01112584
v 0.01039183 0.0007197277 -0.004307571
v 0.00903494 -0.002184848 -0.008455736
v 0.01085824 -0.003365047 -0.002007035
v 0.00962131 -0.005998152 -0.005785632
v 0.01301269 -0.008315257 -7.113576E-05
v 0.01129034 -0.009978447 -0.003051049
v 0.01118319 -0.001072474 -0.005072448
v 0.007247252 -0.001658288 -0.003464822
v 0.006726345 -0.0005224347 -0.004096085
v 0.01066229 6.337954E-05 -0.005703711
v 0.006251547 -0.0006078055 -0.005410344
v 0.01018749 -2.199128E-05 -0.007017971
v 0.006297657 -0.00182903 -0.006093341
v 0.0102336 -0.001243216 -0.007700968
v 0.006818565 -0.002964883 -0.005462079
v 0.01075451 -0.002379069 -0.007069705
v 0.007293363 -0.002879512 -0.004147819
v 0.0112293 -0.002293698 -0.005755445
v 0.007247252 -0.001658288 -0.003464822
v 0.01118319 -0.001072474 -0.005072448
v 0.007293363 -0.002879512 -0.004147819
v 0.006818565 -0.002964883 -0.005462079
v 0.006297657 -0.00182903 -0.006093341
v 0.007247252 -0.001658288 -0.003464822
v 0.006251547 -0.0006078055 -0.005410344
v 0.006726345 -0.0005224347 -0.004096085
v 0.0102336 -0.001243216 -0.007700968
v 0.01075451 -0.002379069 -0.007069705
v 0.0112293 -0.002293698 -0.005755445
v 0.01118319 -0.001072474 -0.005072448
v 0.01018749 -2.199128E-05 -0.007017971
v 0.01066229 6.337954E-05 -0.005703711
vt 0.4166668 0.5
vt 0.4166668 0.5
vt 0.5000001 0.5
vt 0.5000002 0.6250001
vt 0.5000001 0.625
vt 0.5000001 0.75
vt 0.5000001 0.75
vt 0.5000001 0.8749999
vt 0.5000001 0.875
vt 0.5000001 1
vt 0.5000001 0.9999999
vt 0.4166668 1
vt 0.4166668 0.9999999
vt 0.4166667 0.8749999
vt 0.4166667 0.8749999
vt 0.4166668 1
vt 0.4166667 0.8749999
vt 0.4166667 0.8749999
vt 0.4166667 0.8749999
vt 0.4166668 0.75
vt 0.4166668 0.75
vt 0.4166667 0.8749999
vt 0.4166668 0.75
vt 0.4166668 0.75
vt 0.4166667 0.8749999
vt 0.4166668 0.75
vt 0.4166668 0.75
vt 0.4166667 0.8749999
vt 0.4166668 1
vt 0.4166668 1
vt 0.5000001 1
vt 0.5000001 0.9999999
vt 0.5000001 0.8749999
vt 0.5000001 0.875
vt 0.5000001 0.75
vt 0.5000001 0.9999998
vt 0.5000001 0.75
vt 0.5000001 0.625
vt 0.5000001 0.625
vt 0.5000002 0.7500001
vt 0.5000001 0.6249999
vt 0.5000001 0.875
vt 0.5000001 0.9999999
vt 0.4166668 0.9999999
vt 0.4166668 1
vt 0.5000001 0.9999999
vt 0.4166668 1
vt 0.4166667 0.8749999
vt 0.4166667 0.8749999
vt 0.4166668 0.75
vt 0.4166668 0.75
vt 0.5000001 0.875
vt 0.5000002 0.7500001
vt 0.5000001 0.75
vt 0.5000001 0.75
vt 0.5000002 0.7500001
vt 0.5000001 0.875
vt 0.5000001 0.6249999
vt 0.5000002 0.6250001
vt 0.5000001 0.75
vt 0.5000002 0.7500001
vt 0.4166667 0.625
vt 0.4166667 0.625
vt 0.4166667 0.625
vt 0.4166668 0.5
vt 0.4166668 0.5
vt 0.4166667 0.625
vt 0.4166668 0.5
vt 0.4166668 0.5
vt 0.5000001 0.5
vt 0.5000001 0.5
vt 0.5000001 0.5
vt 0.5000001 0.6249999
vt 0.5000001 0.5
vt 0.5000001 0.5
vt 0.4166667 0.625
vt 0.4166667 0.625
vt 0.4166667 0.625
vt 0.4166668 0.5
vt 0.4166668 0.5
vt 0.4166667 0.625
vt 0.5000001 0.5
vt 0.4166667 0.625
vt 0.5000001 0.625
vt 0.4166668 0.75
vt 0.5000001 0.75
vt 0.4166667 0.8749999
vt 0.5000001 0.8749999
vt 0.4166668 1
vt 0.5000001 1
vt 0.5000001 0.5
vt 0.4166667 0.625
vt 0.4166668 0.5
vt 0.5000001 0.625
vt 0.4166668 0.75
vt 0.5000001 0.75
vt 0.4166667 0.8749999
vt 0.5000001 0.8749999
vt 0.4166668 1
vt 0.5000001 1
vt 1 0.5
vt 1 1
vt 0.8333333 1
vt 0.8333333 0.5
vt 0.6666666 1
vt 0.6666666 0.5
vt 0.4999999 1
vt 0.4999999 0.5
vt 0.3333333 1
vt 0.3333333 0.5
vt 0.1666666 1
vt 0.1666666 0.5
vt -8.940697E-08 1
vt -8.940697E-08 0.5
vt 0.04215391 0.37
vt 0.04215391 0.13
vt 0.25 0.01000001
vt 0.25 0.49
vt 0.4578461 0.13
vt 0.4578461 0.37
vt 0.75 0.01000001
vt 0.5421539 0.13
vt 0.5421539 0.37
vt 0.75 0.49
vt 0.9578461 0.13
vt 0.9578461 0.37
vn -0.4038006 0.9146566 0.01866782
vn -0.5878313 0.7589959 -0.2799637
vn -0.6813322 0.4166642 -0.6018117
vn -0.4681865 -0.1220234 -0.8751638
vn -0.3677604 -0.1960268 -0.9090247
vn -0.3536783 -0.4294979 -0.8309291
vn -0.4565226 -0.3900606 -0.7996498
vn -0.3286439 -0.5336564 -0.779233
vn -0.4307358 -0.525272 -0.7338637
vn -0.1115714 -0.9815868 -0.155046
vn -0.1173915 -0.9752893 -0.1871633
vn 0.35237 -0.3433758 0.8705909
vn 0.4701143 -0.3889907 0.7922618
vn 0.4099928 0.3562443 0.8396403
vn 0.5238645 0.3495667 0.7767684
vn 0.5983434 -0.3978629 0.6954783
vn 0.6475098 0.3355083 0.6842261
vn 0.5238645 0.3495667 0.7767684
vn 0.4099928 0.3562443 0.8396403
vn 0.440585 0.3602681 0.8222479
vn 0.5410699 0.3313049 0.7729686
vn 0.6475098 0.3355083 0.6842261
vn 0.5410699 0.3313049 0.7729686
vn 0.6533576 0.2903681 0.6991497
vn 0.1509204 0.438471 0.8859832
vn 0.4505163 0.4104536 0.7928196
vn 0.1506445 0.550915 0.8208525
vn 0.435028 0.3988401 0.8072653
vn 0.1561271 -0.345326 0.925405
vn 0.3426242 -0.4850857 0.8045498
vn -0.1648699 -0.9781227 -0.1268622
vn -0.2674151 -0.9356784 -0.2302068
vn -0.3991843 -0.5751977 -0.7140025
vn -0.4992851 -0.5365057 -0.6803499
vn -0.4763323 -0.4454076 -0.7581027
vn -0.2472008 -0.9455926 -0.2115336
vn -0.5408233 -0.3935651 -0.7433819
vn -0.6365527 -0.2096642 -0.7421871
vn -0.5845643 -0.18798 -0.7892706
vn -0.5858065 -0.3389873 -0.7361512
vn -0.5749347 -0.09370779 -0.8128154
vn -0.5606774 -0.502204 -0.6583555
vn -0.1173915 -0.9752893 -0.1871633
vn 0.4701143 -0.3889907 0.7922618
vn 0.5983434 -0.3978629 0.6954783
vn -0.2674151 -0.9356784 -0.2302068
vn 0.3426242 -0.4850857 0.8045498
vn 0.6475098 0.3355083 0.6842261
vn 0.435028 0.3988401 0.8072653
vn 0.6533576 0.2903681 0.6991497
vn 0.4505163 0.4104536 0.7928196
vn -0.4307358 -0.525272 -0.7338637
vn -0.5858065 -0.3389873 -0.7361512
vn -0.4565226 -0.3900606 -0.7996498
vn -0.5408233 -0.3935651 -0.7433819
vn -0.5858065 -0.3389873 -0.7361512
vn -0.4992851 -0.5365057 -0.6803499
vn -0.5749347 -0.09370779 -0.8128154
vn -0.4681865 -0.1220234 -0.8751638
vn -0.4565226 -0.3900606 -0.7996498
vn -0.5858065 -0.3389873 -0.7361512
vn 0.4985738 0.4276192 0.7540332
vn 0.5893929 0.4321037 0.6825705
vn 0.6631911 0.4029789 0.6307024
vn 0.34589 0.8884135 -0.3017973
vn 0.2430888 0.8668171 -0.4353573
vn 0.6631911 0.4029789 0.6307024
vn 0.2430888 0.8668171 -0.4353573
vn 0.1582686 0.8761394 -0.455336
vn 0.2430888 0.8668171 -0.4353573
vn 0.34589 0.8884135 -0.3017973
vn -0.5878313 0.7589959 -0.2799637
vn -0.5749347 -0.09370779 -0.8128154
vn 0.1582686 0.8761394 -0.455336
vn 0.2430888 0.8668171 -0.4353573
vn -0.0181686 0.7477002 0.663788
vn 0.40304 0.5790292 0.70872
vn 0.6631911 0.4029789 0.6307024
vn 0.1582686 0.8761394 -0.455336
vn -0.5878313 0.7589959 -0.2799637
vn 0.6631911 0.4029789 0.6307024
vn -0.7634088 0.6249671 -0.1631659
vn -0.8076617 0.5738668 -0.1354976
vn -0.8023781 0.5804066 -0.1389876
vn -0.9122144 0.4072232 -0.04510098
vn -0.9048964 0.4223078 -0.05308996
vn -0.9825348 0.1770977 0.057111
vn -0.9804139 0.189774 0.05267301
vn -0.9928818 0.07594445 0.09175085
vn -0.9928818 0.07594445 0.09175085
vn 0.946445 -0.309144 -0.09312243
vn 0.9519361 -0.2852125 -0.1116757
vn 0.946445 -0.309144 -0.09312243
vn 0.9518155 -0.2857871 -0.1112339
vn 0.9658374 -0.1582741 -0.2052009
vn 0.9658527 -0.1571156 -0.2060182
vn 0.9278558 0.03638026 -0.3711605
vn 0.9269869 0.03827378 -0.3731357
vn 0.8749453 0.1307669 -0.4662303
vn 0.8749453 0.1307669 -0.4662303
vn 0.8369464 0.1665019 0.5213425
vn -0.2770256 -0.06444826 0.9586987
vn -0.5521273 0.5855855 0.5935025
vn 0.5643914 0.8109441 0.1543765
vn -0.8321834 0.5341955 -0.1486807
vn 0.284843 0.7617356 -0.5819135
vn -0.8369463 -0.1665018 -0.5213425
vn 0.2770256 0.06444819 -0.9586987
vn -0.5643911 -0.8109442 -0.1543768
vn 0.5521272 -0.5855854 -0.5935025
vn -0.2848431 -0.7617356 0.5819134
vn 0.8321834 -0.5341955 0.1486804
vn -0.2770256 -0.06444826 0.9586987
vn 0.8369464 0.1665019 0.5213425
vn -0.2848431 -0.7617356 0.5819134
vn -0.5643911 -0.8109442 -0.1543768
vn -0.8369463 -0.1665018 -0.5213425
vn -0.2770256 -0.06444826 0.9586987
vn -0.8321834 0.5341955 -0.1486807
vn -0.5521273 0.5855855 0.5935025
vn 0.2770256 0.06444819 -0.9586987
vn 0.5521272 -0.5855854 -0.5935025
vn 0.8321834 -0.5341955 0.1486804
vn 0.8369464 0.1665019 0.5213425
vn 0.284843 0.7617356 -0.5819135
vn 0.5643914 0.8109441 0.1543765
g Owl_Mesh.008_0
f 3/3/3 2/2/2 1/1/1
f 6/6/6 5/5/5 4/4/4
f 7/7/7 6/6/6 4/4/4
f 8/8/8 6/6/6 7/7/7
f 9/9/9 8/8/8 7/7/7
f 10/10/10 8/8/8 9/9/9
f 11/11/11 10/10/10 9/9/9
f 12/12/12 10/10/10 11/11/11
f 13/13/13 12/12/12 11/11/11
f 14/14/14 12/12/12 13/13/13
f 15/15/15 14/14/14 13/13/13
f 15/15/15 13/13/13 16/16/16
f 17/17/17 15/15/15 16/16/16
f 20/20/20 19/19/19 18/18/18
f 21/21/21 20/20/20 18/18/18
f 23/23/23 18/18/18 22/22/22
f 24/24/24 23/23/23 22/22/22
f 27/27/27 26/26/26 25/25/25
f 26/26/26 28/28/28 25/25/25
f 25/25/25 28/28/28 29/29/29
f 28/28/28 30/30/30 29/29/29
f 29/29/29 30/30/30 31/31/31
f 30/30/30 32/32/32 31/31/31
f 31/31/31 32/32/32 33/33/33
f 32/32/32 34/34/34 33/33/33
f 33/33/33 34/34/34 35/35/35
f 32/32/32 36/36/36 34/34/34
f 34/34/34 37/37/37 35/35/35
f 35/35/35 37/37/37 38/38/38
f 37/37/37 39/39/39 38/38/38
f 37/37/37 40/40/40 39/39/39
f 40/40/40 41/41/41 39/39/39
f 36/36/36 42/42/42 34/34/34
f 36/36/36 43/43/43 42/42/42
f 44/44/44 43/43/43 36/36/36
f 45/45/45 44/44/44 36/36/36
f 45/45/45 36/36/36 46/46/46
f 47/47/47 45/45/45 46/46/46
f 48/48/48 45/45/45 47/47/47
f 49/49/49 48/48/48 47/47/47
f 50/50/50 48/48/48 49/49/49
f 51/51/51 50/50/50 49/49/49
f 43/43/43 52/52/52 42/42/42
f 42/42/42 52/52/52 53/53/53
f 52/52/52 54/54/54 53/53/53
f 42/42/42 56/56/56 55/55/55
f 57/57/57 42/42/42 55/55/55
f 60/60/60 59/59/59 58/58/58
f 61/61/61 60/60/60 58/58/58
g Owl_Mesh.008_1
f 62/62/62 20/20/20 23/23/23
f 63/63/63 62/62/62 23/23/23
f 63/63/63 23/23/23 24/24/24
f 64/64/64 63/63/63 24/24/24
f 65/65/65 62/62/62 63/63/63
f 66/66/66 65/65/65 63/63/63
f 68/68/68 63/63/63 67/67/67
f 69/69/69 68/68/68 67/67/67
f 5/5/5 71/71/71 70/70/70
f 4/4/4 5/5/5 70/70/70
f 38/38/38 39/39/39 3/3/3
f 39/39/39 72/72/72 3/3/3
f 39/39/39 73/73/73 72/72/72
f 73/73/73 74/74/74 72/72/72
f 59/59/59 75/75/75 74/74/74
f 58/58/58 59/59/59 74/74/74
f 1/1/1 2/2/2 76/76/76
f 2/2/2 77/77/77 76/76/76
f 76/76/76 77/77/77 27/27/27
f 77/77/77 26/26/26 27/27/27
f 79/79/79 78/78/78 77/77/77
f 80/80/80 79/79/79 77/77/77
f 77/77/77 81/81/81 51/51/51
f 81/81/81 50/50/50 51/51/51
g Owl_Mesh.008_2
f 84/84/84 83/83/83 82/82/82
f 85/85/85 83/83/83 84/84/84
f 86/86/86 85/85/85 84/84/84
f 87/87/87 85/85/85 86/86/86
f 88/88/88 87/87/87 86/86/86
f 87/87/87 88/88/88 89/89/89
f 88/88/88 90/90/90 89/89/89
f 93/93/93 92/92/92 91/91/91
f 92/92/92 94/94/94 91/91/91
f 92/92/92 95/95/95 94/94/94
f 95/95/95 96/96/96 94/94/94
f 95/95/95 97/97/97 96/96/96
f 97/97/97 98/98/98 96/96/96
f 98/98/98 97/97/97 99/99/99
f 100/100/100 98/98/98 99/99/99
g Owl_Mesh.008_3
f 103/103/103 102/102/102 101/101/101
f 104/104/104 103/103/103 101/101/101
f 105/105/105 103/103/103 104/104/104
f 106/106/106 105/105/105 104/104/104
f 107/107/107 105/105/105 106/106/106
f 108/108/108 107/107/107 106/106/106
f 109/109/109 107/107/107 108/108/108
f 110/110/110 109/109/109 108/108/108
f 111/111/111 109/109/109 110/110/110
f 112/112/112 111/111/111 110/110/110
f 113/113/113 111/111/111 112/112/112
f 114/114/114 113/113/113 112/112/112
f 117/117/117 116/116/116 115/115/115
f 115/115/115 118/118/118 117/117/117
f 118/118/118 119/119/119 117/117/117
f 118/118/118 120/120/120 119/119/119
f 123/123/123 122/122/122 121/121/121
f 121/121/121 124/124/124 123/123/123
f 121/121/121 125/125/125 124/124/124
f 125/125/125 126/126/126 124/124/124
