g Shrine Light
v 0.04337499 0.006625137 -6.922276E-09
v -0.006625008 0.003500137 0.005412661
v -0.006625008 0.006625137 2.813082E-09
v 0.04337499 0.003500137 0.005412651
v -0.006625008 -0.002749863 0.00541266
v 0.04337499 -0.002749863 0.00541265
v -0.006625008 -0.005874862 1.133597E-09
v 0.04337499 -0.005874862 -8.601761E-09
v -0.006625008 -0.002749862 -0.005412657
v 0.04337499 -0.002749862 -0.005412667
v -0.006625008 0.003500138 -0.005412656
v 0.04337499 0.003500138 -0.005412666
v -0.006625008 0.006625137 2.813082E-09
v 0.04337499 0.006625137 -6.922276E-09
v -0.006625008 -0.002749863 0.00541266
v -0.006625008 -0.005874862 1.133597E-09
v -0.006625008 -0.002749862 -0.005412657
v -0.006625008 0.003500137 0.005412661
v -0.006625008 0.003500138 -0.005412656
v -0.006625008 0.006625137 2.813082E-09
v 0.04337499 -0.002749862 -0.005412667
v 0.04337499 -0.005874862 -8.601761E-09
v 0.04337499 -0.002749863 0.00541265
v 0.04337499 0.003500137 0.005412651
v 0.04337499 0.003500138 -0.005412666
v 0.04337499 0.006625137 -6.922276E-09
v -0.009143748 0.002041774 -2.384186E-09
v -0.009143748 0.003402954 -2.384186E-09
v -0.009143748 3.151363E-09 0.003402948
v -0.009143748 3.151363E-09 0.002041769
v -0.009143748 3.151363E-09 -0.002041774
v -0.00914375 -0.003402948 -2.384186E-09
v -0.009143748 3.266614E-09 -0.003402953
v -0.00914375 -0.002041768 -2.384186E-09
v -0.009143748 3.266614E-09 -0.003402953
v 0.009143748 -3.14787E-09 -0.003402953
v 0.00914375 0.003402948 -2.384186E-09
v -0.009143748 0.003402954 -2.384186E-09
v -0.00914375 -0.003402948 -2.384186E-09
v 0.009143748 -3.14787E-09 0.003402948
v 0.009143748 -0.003402954 -2.384186E-09
v -0.009143748 3.151363E-09 0.003402948
v -0.009143748 0.002041774 -2.384186E-09
v -0.01049125 3.878958E-09 -2.384186E-09
v -0.009143748 3.151363E-09 -0.002041774
v -0.009143748 3.151363E-09 0.002041769
v -0.00914375 -0.002041768 -2.384186E-09
vt 0.7650304 0.3281136
vt 0.6766869 0.7936385
vt 0.7650304 0.7936385
vt 0.6766869 0.3281136
vt 0.5883434 0.7936385
vt 0.5883434 0.3281136
vt 0.4999999 0.7936385
vt 0.4999999 0.3281136
vt 0.4116564 0.7936385
vt 0.4116564 0.3281136
vt 0.3233129 0.7936385
vt 0.3233129 0.3281136
vt 0.2349695 0.7936385
vt 0.2349695 0.3281136
vt 0.25 0.25
vt 0.25 0.25
vt 0.25 0.25
vt 0.25 0.25
vt 0.25 0.25
vt 0.25 0.25
vt 0.5421539 0.13
vt 0.75 0.01000001
vt 0.9578461 0.13
vt 0.9578461 0.37
vt 0.5421539 0.37
vt 0.75 0.49
vt 0.5 0.6
vt 0.5 0.6
vt 0.5 0.6
vt 0.5 0.6
vt 0.5 0.6
vt 0.5 0.6
vt 0.5 0.6
vt 0.5 0.6
vt 0.5 0.6
vt 0.5 0.6
vt 0.5 0.6
vt 0.5 0.6
vt 0.5 0.6
vt 0.5 0.6
vt 0.5 0.6
vt 0.5 0.6
vt 0.5 0.6
vt 0.5 0.6
vt 0.5 0.6
vt 0.5 0.6
vt 0.5 0.6
vn 0 1 0
vn 1.665578E-07 0.4999999 0.8660255
vn 0 1 1.971706E-07
vn 1.665577E-07 0.4999999 0.8660255
vn 1.651812E-07 -0.5000001 0.8660253
vn 1.651812E-07 -0.5000002 0.8660253
vn 0 -1 0
vn 0 -1 -1.095392E-07
vn -1.651812E-07 -0.5 -0.8660254
vn -1.651812E-07 -0.4999999 -0.8660255
vn -1.665577E-07 0.5000002 -0.8660253
vn -1.665577E-07 0.5000001 -0.8660253
vn 0 1 1.971706E-07
vn 0 1 0
vn -1 0 0
vn -1 0 0
vn -1 0 0
vn -1 0 0
vn -1 0 0
vn -1 0 0
vn 1 0 0
vn 1 0 0
vn 1 0 0
vn 1 0 0
vn 1 0 0
vn 1 0 0
vn -1 0 0
vn -1 0 0
vn -1 0 0
vn -1 0 0
vn -1 0 0
vn -1 0 0
vn -1 0 0
vn -1 0 0
vn 0 0 -1
vn 0 0 -1
vn 3.412126E-07 1 0
vn 3.412126E-07 1 0
vn -3.412126E-07 -1 0
vn 0 0 1
vn -3.412126E-07 -1 0
vn 0 0 1
vn -0.8346221 0.5508229 0
vn -1 4.520622E-07 0
vn -0.8346225 2.897086E-07 -0.5508224
vn -0.8346225 2.897087E-07 0.5508224
vn -0.8346227 -0.5508222 0
g Shrine Light_0
f 3/3/3 2/2/2 1/1/1
f 2/2/2 4/4/4 1/1/1
f 2/2/2 5/5/5 4/4/4
f 5/5/5 6/6/6 4/4/4
f 5/5/5 7/7/7 6/6/6
f 7/7/7 8/8/8 6/6/6
f 7/7/7 9/9/9 8/8/8
f 9/9/9 10/10/10 8/8/8
f 9/9/9 11/11/11 10/10/10
f 11/11/11 12/12/12 10/10/10
f 11/11/11 13/13/13 12/12/12
f 13/13/13 14/14/14 12/12/12
f 17/17/17 16/16/16 15/15/15
f 15/15/15 18/18/18 17/17/17
f 18/18/18 19/19/19 17/17/17
f 18/18/18 20/20/20 19/19/19
f 23/23/23 22/22/22 21/21/21
f 21/21/21 24/24/24 23/23/23
f 21/21/21 25/25/25 24/24/24
f 25/25/25 26/26/26 24/24/24
f 29/29/29 28/28/28 27/27/27
f 30/30/30 29/29/29 27/27/27
f 27/27/27 28/28/28 31/31/31
f 32/32/32 29/29/29 30/30/30
f 28/28/28 33/33/33 31/31/31
f 34/34/34 32/32/32 30/30/30
f 31/31/31 33/33/33 34/34/34
f 33/33/33 32/32/32 34/34/34
f 37/37/37 36/36/36 35/35/35
f 38/38/38 37/37/37 35/35/35
f 35/35/35 36/36/36 39/39/39
f 40/40/40 37/37/37 38/38/38
f 36/36/36 41/41/41 39/39/39
f 42/42/42 40/40/40 38/38/38
f 42/42/42 39/39/39 41/41/41
f 40/40/40 42/42/42 41/41/41
g Shrine Light_1
f 45/45/45 44/44/44 43/43/43
f 43/43/43 44/44/44 46/46/46
f 47/47/47 44/44/44 45/45/45
f 46/46/46 44/44/44 47/47/47
