g Sphere.023
v 0.02142621 -0.006495015 0.005702605
v 0.008366747 0.005806393 -0.01555968
v -0.00966443 0.006682139 -0.01698532
v 0.004098177 -0.00628385 0.005086813
v -0.02329139 0.005806393 -0.01013398
v -0.01322986 -0.001526817 0.004471021
v -0.01172853 -0.0009451699 0.008551581
v 0.01992485 -0.001714321 0.00972744
v 0.008366747 0.005806393 -0.01555968
v 0.004098158 -0.001329745 0.009139512
v -0.00966443 0.006682139 -0.01698532
v -0.02329139 0.005806393 -0.01013398
v 0.02142621 -0.006495015 0.005702605
v 0.004098177 -0.00628385 0.005086813
v 0.004098158 -0.001329745 0.009139512
v 0.01992485 -0.001714321 0.00972744
v -0.01172853 -0.0009451699 0.008551581
v 0.004098158 -0.001329745 0.009139512
v 0.004098177 -0.00628385 0.005086813
v -0.01322986 -0.001526817 0.004471021
vt 0.125 0.5728849
vt 0.125 0.5728849
vt 0.125 0.5729932
vt 0.125 0.5729932
vt 0.125 0.5731015
vt 0.125 0.5731015
vt 0.125 0.5102316
vt 0.125 0.5104479
vt 0.125 0.5104479
vt 0.125 0.5103397
vt 0.125 0.5103397
vt 0.125 0.5102316
vt 0.125 0.5728849
vt 0.125 0.5729932
vt 0.125 0.5103397
vt 0.125 0.5104479
vt 0.125 0.5102316
vt 0.125 0.5103397
vt 0.125 0.5729932
vt 0.125 0.5731015
vn 0.825182 -0.08493194 -0.5584455
vn 0.3605135 0.3649039 -0.8584143
vn -0.4706202 0.3380256 -0.8150185
vn -0.05661055 -0.8814538 -0.4688651
vn -0.9432831 0.2086183 -0.2582545
vn -0.6362133 -0.7712324 0.02081956
vn -0.1465054 0.9092138 0.3897005
vn 0.5549784 0.8318544 -0.004149766
vn 0.3605135 0.3649039 -0.8584143
vn 0.02800537 0.9585562 0.2835237
vn -0.4706202 0.3380256 -0.8150185
vn -0.9432831 0.2086183 -0.2582545
vn -0.03933957 -0.6416515 0.7659868
vn -0.09028775 -0.7254149 0.6823645
vn -0.09325022 -0.7299858 0.677071
vn -0.03933957 -0.6416515 0.7659868
vn -0.1457329 -0.8051385 0.5749034
vn -0.09325022 -0.7299858 0.677071
vn -0.09028775 -0.7254149 0.6823645
vn -0.1457329 -0.8051385 0.5749034
g Sphere.023_0
f 3/3/3 2/2/2 1/1/1
f 4/4/4 3/3/3 1/1/1
f 5/5/5 3/3/3 4/4/4
f 6/6/6 5/5/5 4/4/4
f 7/7/7 5/5/5 6/6/6
f 1/1/1 9/9/9 8/8/8
f 8/8/8 9/9/9 10/10/10
f 9/9/9 11/11/11 10/10/10
f 10/10/10 11/11/11 7/7/7
f 11/11/11 12/12/12 7/7/7
g Sphere.023_1
f 15/15/15 14/14/14 13/13/13
f 16/16/16 15/15/15 13/13/13
f 19/19/19 18/18/18 17/17/17
f 20/20/20 19/19/19 17/17/17
