g Sphere.018
v -0.003642237 -0.00147007 -0.005230087
v -0.005872481 -0.002210693 -0.00199559
v -0.002543012 -0.003985972 -0.0011507
v -0.00125538 -0.003558378 -0.003018139
v -3.363013E-05 -0.0002717185 -0.006465555
v 0.0008280498 -0.002866509 -0.003731437
v 0.003574977 0.0009266328 -0.005230087
v 0.002911481 -0.002174637 -0.003018138
v 0.005805219 0.001667252 -0.001995589
v 0.004199111 -0.001747038 -0.0011507
v 0.005805219 0.001667252 0.00200247
v 0.004199111 -0.001747038 0.001157581
v 0.003574978 0.0009266328 0.005236968
v 0.00291148 -0.002174635 0.003025019
v -3.363013E-05 -0.0002717185 0.006472435
v 0.0008280498 -0.002866509 0.003738317
v -0.003642237 -0.00147007 0.005236968
v -0.001255383 -0.003558378 0.003025019
v -0.005872481 -0.002210693 0.002002469
v -0.002543012 -0.003985972 0.001157581
v -0.005872481 -0.002210693 -0.00199559
v -0.002543012 -0.003985972 -0.0011507
v -0.003642237 -0.00147007 -0.005230087
v -0.007093041 -0.001950445 -0.002436136
v -0.005872481 -0.002210693 -0.00199559
v -0.004371297 -0.001046603 -0.006383452
v -3.363013E-05 -0.0002717185 -0.006465555
v 3.257453E-05 0.0004158425 -0.007891191
v -0.005771881 0.001664569 -0.007036905
v -0.0007692397 0.002830353 -0.0085729
v 0.003574977 0.0009266328 -0.005230087
v 0.00398787 0.003979635 -0.00687885
v 0.004436447 0.001878283 -0.006383451
v 0.005805219 0.001667252 -0.001995589
v 0.006783128 0.005867147 -0.002908413
v 0.007158189 0.002782123 -0.002436135
v 0.005805219 0.001667252 0.00200247
v 0.006948682 0.005723843 0.002679648
v 0.007158189 0.002782123 0.002443016
v 0.003574978 0.0009266328 0.005236968
v 0.004057679 0.004027548 0.006818917
v 0.004436448 0.001878283 0.006390332
v -3.363013E-05 -0.0002717185 0.006472435
v -0.0009068275 0.003244669 0.008696756
v 3.257453E-05 0.0004158425 0.007898073
v -0.003642237 -0.00147007 0.005236968
v -0.004371297 -0.001046603 0.006390332
v -0.005867082 0.001848848 0.0070882
v -0.005872481 -0.002210693 0.002002469
v -0.008937857 0.0009267926 0.002717254
v -0.007093041 -0.001950445 0.002443016
v -0.005872481 -0.002210693 -0.00199559
v -0.008937857 0.0009267926 -0.002710375
v -0.007093041 -0.001950445 -0.002436136
v -0.005771881 0.001664569 -0.007036905
v -0.008937857 0.0009267926 -0.002710375
v -0.007093041 -0.001950445 -0.002436136
v -0.004371297 -0.001046603 -0.006383452
v 0.001143447 -0.003816264 3.44038E-06
v 0.001143447 -0.003816264 3.44038E-06
v 0.001143447 -0.003816264 3.44038E-06
v 0.001143447 -0.003816264 3.44038E-06
v 0.001143447 -0.003816264 3.44038E-06
v 0.001143447 -0.003816264 3.44038E-06
v 0.001143447 -0.003816264 3.44038E-06
v 0.001143447 -0.003816264 3.44038E-06
v 0.001143447 -0.003816264 3.44038E-06
v 0.001143447 -0.003816264 3.44038E-06
v 0.00398787 0.003979635 -0.00687885
v 0.004057679 0.004027548 0.006818917
v -0.0009068275 0.003244669 0.008696756
v -0.0007692397 0.002830353 -0.0085729
v -0.005867082 0.001848848 0.0070882
v -0.005771881 0.001664569 -0.007036905
v -0.008937857 0.0009267926 0.002717254
v -0.008937857 0.0009267926 -0.002710375
v 0.006948682 0.005723843 0.002679648
v 0.004057679 0.004027548 0.006818917
v 0.00398787 0.003979635 -0.00687885
v 0.006783128 0.005867147 -0.002908413
vt 0.09999999 0.6666667
vt 0 0.6666667
vt 0 0.8333333
vt 0.09999999 0.8333333
vt 0.2 0.6666667
vt 0.2 0.8333333
vt 0.3 0.6666667
vt 0.3 0.8333333
vt 0.4 0.6666667
vt 0.4 0.8333333
vt 0.5 0.6666667
vt 0.5 0.8333333
vt 0.6 0.6666667
vt 0.6 0.8333333
vt 0.7 0.6666667
vt 0.7 0.8333333
vt 0.8 0.6666667
vt 0.8 0.8333333
vt 0.9 0.6666667
vt 0.9 0.8333333
vt 0.9999999 0.6666667
vt 0.9999999 0.8333333
vt 0.09999999 0.6666667
vt 0 0.6666667
vt 0 0.6666667
vt 0.09999999 0.6666667
vt 0.2 0.6666667
vt 0.2 0.6666667
vt 0.09999999 0.5564415
vt 0.2 0.5736368
vt 0.3 0.6666667
vt 0.3 0.5874671
vt 0.3 0.6666667
vt 0.4 0.6666667
vt 0.4 0.5546067
vt 0.4 0.6666667
vt 0.5 0.6666667
vt 0.5 0.5621671
vt 0.5 0.6666667
vt 0.6 0.6666667
vt 0.6 0.5874671
vt 0.6 0.6666667
vt 0.7 0.6666667
vt 0.7 0.5576734
vt 0.7 0.6666667
vt 0.8 0.6666667
vt 0.8 0.6666667
vt 0.8 0.5489495
vt 0.9 0.6666667
vt 0.9 0.5455594
vt 0.9 0.6666667
vt 0.9999999 0.6666667
vt 0.9999999 0.5455594
vt 0.9999999 0.6666667
vt 0.09999999 0.5564415
vt 0.9999999 0.5455594
vt 0.9999999 0.6666667
vt 0.09999999 0.6666667
vt 0.05000001 1
vt 0.15 1
vt 0.25 1
vt 0.35 1
vt 0.45 1
vt 0.55 1
vt 0.65 1
vt 0.75 1
vt 0.85 1
vt 0.95 1
vt 0.3 0.5874671
vt 0.6 0.5874671
vt 0.7 0.5576734
vt 0.2 0.5736368
vt 0.8 0.5489495
vt 0.09999999 0.5564415
vt 0.9 0.5455594
vt 0.9999999 0.5455594
vt 0.5 0.5621671
vt 0.6 0.5874671
vt 0.3 0.5874671
vt 0.4 0.5546067
vn -0.1715962 -0.8020598 -0.5720619
vn -0.4153771 -0.8830154 -0.218508
vn -0.2185099 -0.9616374 -0.1658525
vn -0.03347417 -0.9001906 -0.4342078
vn 0.2228506 -0.6710714 -0.7071073
vn 0.2659203 -0.8007672 -0.5367106
vn 0.6172969 -0.5400834 -0.5720617
vn 0.5653143 -0.7013439 -0.4342079
vn 0.8610779 -0.4591287 -0.2185081
vn 0.7503496 -0.6398973 -0.1658526
vn 0.8610777 -0.4591288 0.2185081
vn 0.7503493 -0.6398975 0.1658529
vn 0.6172967 -0.5400838 0.5720614
vn 0.5653142 -0.7013439 0.434208
vn 0.2228507 -0.6710715 0.7071071
vn 0.2659205 -0.8007672 0.5367105
vn -0.171596 -0.8020599 0.5720618
vn -0.03347443 -0.9001906 0.4342078
vn -0.4153772 -0.8830154 0.2185079
vn -0.2185099 -0.9616374 0.1658524
vn -0.4153771 -0.8830154 -0.218508
vn -0.2185099 -0.9616374 -0.1658525
vn 0.01544049 -0.9354179 -0.3532065
vn -0.548525 -0.796856 -0.2532604
vn -0.1578588 -0.9774759 -0.1400767
vn -0.2561758 -0.7126707 -0.6530501
vn 0.269228 -0.8722942 -0.4081898
vn 0.1979749 -0.5786244 -0.7912014
vn -0.4692483 -0.4285126 -0.7721289
vn 0.06441823 -0.2512822 -0.9657678
vn 0.4894097 -0.8159617 -0.3077084
vn 0.618241 -0.06131979 -0.7835931
vn 0.6381518 -0.4431006 -0.6296222
vn 0.6098275 -0.7845122 -0.1124769
vn 0.9487936 0.06179143 -0.3097943
vn 0.9037213 -0.3560441 -0.2377402
vn 0.6098275 -0.7845122 0.1124768
vn 0.9589341 0.06304165 0.2765343
vn 0.9033748 -0.3574759 0.2369071
vn 0.4894096 -0.8159619 0.3077082
vn 0.6177895 -0.05866687 0.784152
vn 0.6357785 -0.4428118 0.6322211
vn 0.2692278 -0.8722942 0.4081898
vn 0.06137766 -0.2484274 0.966704
vn 0.1990713 -0.5765058 0.7924719
vn 0.01544045 -0.9354179 0.3532065
vn -0.2561759 -0.7126706 0.6530502
vn -0.4624068 -0.426268 0.7774802
vn -0.1578588 -0.9774759 0.1400767
vn -0.7908126 -0.5353309 0.2967092
vn -0.5485251 -0.796856 0.2532604
vn -0.1578588 -0.9774759 -0.1400767
vn -0.7920383 -0.5357333 -0.2926861
vn -0.548525 -0.796856 -0.2532604
vn -0.4692483 -0.4285126 -0.7721289
vn -0.7920383 -0.5357333 -0.2926861
vn -0.548525 -0.796856 -0.2532604
vn -0.2561758 -0.7126707 -0.6530501
vn 0.3151585 -0.949039 1.557733E-07
vn 0.3151585 -0.949039 1.557733E-07
vn 0.3151585 -0.949039 1.557733E-07
vn 0.3151585 -0.949039 1.557733E-07
vn 0.3151585 -0.949039 1.557733E-07
vn 0.3151585 -0.949039 1.557733E-07
vn 0.3151585 -0.949039 1.557733E-07
vn 0.3151585 -0.949039 1.557733E-07
vn 0.3151585 -0.949039 1.557733E-07
vn 0.3151585 -0.949039 1.557733E-07
vn -0.2893855 0.9571769 -0.008279794
vn -0.2878155 0.9576491 -0.008395175
vn -0.2227439 0.9747152 -0.0177569
vn -0.222499 0.9747717 -0.01773296
vn -0.2509289 0.9678421 -0.01778452
vn -0.2509463 0.967838 -0.01776365
vn -0.2571023 0.9663286 -0.01035915
vn -0.2571023 0.9663286 -0.01035915
vn -0.5329359 0.8460882 0.01068881
vn -0.2878155 0.9576491 -0.008395175
vn -0.2893855 0.9571769 -0.008279794
vn -0.5329359 0.8460882 0.01068881
g Sphere.018_0
f 3/3/3 2/2/2 1/1/1
f 4/4/4 3/3/3 1/1/1
f 4/4/4 1/1/1 5/5/5
f 6/6/6 4/4/4 5/5/5
f 6/6/6 5/5/5 7/7/7
f 8/8/8 6/6/6 7/7/7
f 8/8/8 7/7/7 9/9/9
f 10/10/10 8/8/8 9/9/9
f 10/10/10 9/9/9 11/11/11
f 12/12/12 10/10/10 11/11/11
f 12/12/12 11/11/11 13/13/13
f 14/14/14 12/12/12 13/13/13
f 14/14/14 13/13/13 15/15/15
f 16/16/16 14/14/14 15/15/15
f 16/16/16 15/15/15 17/17/17
f 18/18/18 16/16/16 17/17/17
f 18/18/18 17/17/17 19/19/19
f 20/20/20 18/18/18 19/19/19
f 20/20/20 19/19/19 21/21/21
f 22/22/22 20/20/20 21/21/21
g Sphere.018_1
f 25/25/25 24/24/24 23/23/23
f 24/24/24 26/26/26 23/23/23
f 23/23/23 26/26/26 27/27/27
f 26/26/26 28/28/28 27/27/27
f 26/26/26 29/29/29 28/28/28
f 29/29/29 30/30/30 28/28/28
f 27/27/27 28/28/28 31/31/31
f 28/28/28 30/30/30 32/32/32
f 28/28/28 33/33/33 31/31/31
f 33/33/33 28/28/28 32/32/32
f 31/31/31 33/33/33 34/34/34
f 33/33/33 32/32/32 35/35/35
f 33/33/33 36/36/36 34/34/34
f 36/36/36 33/33/33 35/35/35
f 34/34/34 36/36/36 37/37/37
f 36/36/36 35/35/35 38/38/38
f 36/36/36 39/39/39 37/37/37
f 39/39/39 36/36/36 38/38/38
f 37/37/37 39/39/39 40/40/40
f 39/39/39 38/38/38 41/41/41
f 39/39/39 42/42/42 40/40/40
f 42/42/42 39/39/39 41/41/41
f 40/40/40 42/42/42 43/43/43
f 42/42/42 41/41/41 44/44/44
f 42/42/42 45/45/45 43/43/43
f 45/45/45 42/42/42 44/44/44
f 43/43/43 45/45/45 46/46/46
f 45/45/45 44/44/44 47/47/47
f 45/45/45 47/47/47 46/46/46
f 44/44/44 48/48/48 47/47/47
f 46/46/46 47/47/47 49/49/49
f 47/47/47 48/48/48 50/50/50
f 47/47/47 51/51/51 49/49/49
f 51/51/51 47/47/47 50/50/50
f 49/49/49 51/51/51 52/52/52
f 51/51/51 50/50/50 53/53/53
f 51/51/51 54/54/54 52/52/52
f 54/54/54 51/51/51 53/53/53
f 57/57/57 56/56/56 55/55/55
f 58/58/58 57/57/57 55/55/55
g Sphere.018_2
f 4/4/4 59/59/59 3/3/3
f 6/6/6 60/60/60 4/4/4
f 6/6/6 8/8/8 61/61/61
f 8/8/8 10/10/10 62/62/62
f 10/10/10 12/12/12 63/63/63
f 64/64/64 12/12/12 14/14/14
f 65/65/65 14/14/14 16/16/16
f 18/18/18 66/66/66 16/16/16
f 20/20/20 67/67/67 18/18/18
f 22/22/22 68/68/68 20/20/20
g Sphere.018_3
f 71/71/71 70/70/70 69/69/69
f 72/72/72 71/71/71 69/69/69
f 71/71/71 72/72/72 73/73/73
f 72/72/72 74/74/74 73/73/73
f 73/73/73 74/74/74 75/75/75
f 74/74/74 76/76/76 75/75/75
f 79/79/79 78/78/78 77/77/77
f 80/80/80 79/79/79 77/77/77
