g Sphere.002
v 0 0.005947304 0.00743539
v 0.002973652 0.005150517 0.00743539
v 0 0 0.008363136
v 0 0.008660254 0.005
v 0.004330127 0.0075 0.005
v 0.005150517 0.002973652 0.00743539
v 0 0 0.008363136
v -0.004330126 0.0075 0.005
v -0.002973652 0.005150517 0.00743539
v 0 0 0.008363136
v 0 0.01 0
v -0.005 0.008660254 0
v 0 0.01 -0.002
v 0.005 0.008660254 0
v -0.005 0.008660254 -0.002
v 0.0075 0.004330127 0.005
v 0.008660254 0.005 0
v -0.008660254 0.005 0
v -0.008660254 0.005 -0.002
v -0.007499998 0.004330127 0.005
v -0.01 0 0
v -0.01 0 -0.002
v -0.008660253 8.940697E-10 0.005
v -0.005150517 0.002973652 0.00743539
v 0 0 0.008363136
v -0.005947304 0 0.00743539
v 0 0 0.008363136
v 0.008660253 -2.980232E-10 0.005
v 0.01 0 0
v 0.005947304 0 0.00743539
v 0 0 0.008363136
v 0.007499999 -0.004330127 0.005
v 0.008660254 -0.005 0
v 0.005150517 -0.002973652 0.00743539
v 0 0 0.008363136
v 0.004330126 -0.0075 0.005
v 0.005 -0.008660254 0
v 0.002973652 -0.005150517 0.00743539
v 0 0 0.008363136
v -8.940697E-10 -0.008660253 0.005
v 0 -0.01 0
v 0 -0.005947304 0.00743539
v 0 0 0.008363136
v -0.002973652 -0.005150517 0.00743539
v 0 0 0.008363136
v -0.004330127 -0.007499998 0.005
v -0.005150517 -0.002973652 0.00743539
v 0 0 0.008363136
v -0.005 -0.008660254 0
v -0.0075 -0.004330126 0.005
v -0.005 -0.008660254 -0.002
v 0 -0.01 -0.002
v -0.008660254 -0.005 -0.002
v -0.008660254 -0.005 0
v -0.01 0 -0.002
v -0.01 0 0
v -0.008660253 8.940697E-10 0.005
v -0.005947304 0 0.00743539
v 0 0 0.008363136
v 0 0.01 0
v 0.005 0.008660254 -0.002
v 0 0.01 -0.002
v 0.005 0.008660254 0
v 0.008660254 0.005 -0.002
v 0.008660254 0.005 0
v 0.01 0 -0.002
v 0.01 0 0
v 0.008660254 -0.005 -0.002
v 0.008660254 -0.005 0
v 0.005 -0.008660254 -0.002
v 0.005 -0.008660254 0
v 0 -0.01 -0.002
v 0 -0.01 0
v 0 0.01 -0.002
v 0.011 0.008660254 -0.002
v 0.006 0.01 -0.002
v 0.005 0.008660254 -0.002
v 0.01466025 0.005 -0.002
v 0.008660254 0.005 -0.002
v 0.016 0 -0.002
v 0.01 0 -0.002
v 0.01466025 -0.005 -0.002
v 0.008660254 -0.005 -0.002
v 0.011 -0.008660254 -0.002
v 0.005 -0.008660254 -0.002
v 0.006 -0.01 -0.002
v 0 -0.01 -0.002
v 0 -0.01 0
v 0.006 -0.01 -0.002
v 0 -0.01 -0.002
v 0.006 -0.01 0
v 0.005 -0.008660254 0
v 0.011 -0.008660254 -0.002
v 0.011 -0.008660254 0
v 0.008660254 -0.005 0
v 0.01466025 -0.005 -0.002
v 0.01466025 -0.005 0
v 0.01 0 0
v 0.016 0 -0.002
v 0.016 0 0
v 0.008660254 0.005 0
v 0.01466025 0.005 -0.002
v 0.01466025 0.005 0
v 0.005 0.008660254 0
v 0.011 0.008660254 -0.002
v 0.011 0.008660254 0
v 0 0.01 0
v 0.006 0.01 -0.002
v 0.006 0.01 0
v 0 0.01 -0.002
vt 0.75 0.8333333
vt 0.6666667 0.8333333
vt 0.7083333 1
vt 0.75 0.6666666
vt 0.6666667 0.6666666
vt 0.5833333 0.8333333
vt 0.625 1
vt 0.8333333 0.6666667
vt 0.8333334 0.8333333
vt 0.7916666 1
vt 0.75 0.5
vt 0.8333334 0.5
vt 0.75 0.5
vt 0.6666667 0.5
vt 0.8333334 0.5
vt 0.5833333 0.6666666
vt 0.5833333 0.5
vt 0.9166666 0.5
vt 0.9166666 0.5
vt 0.9166666 0.6666667
vt 1 0.5
vt 1 0.5
vt 1 0.6666667
vt 0.9166666 0.8333333
vt 0.875 1
vt 1 0.8333333
vt 0.9583333 1
vt 0.5 0.6666667
vt 0.5 0.5
vt 0.5 0.8333333
vt 0.5416667 1
vt 0.4166667 0.6666667
vt 0.4166667 0.5
vt 0.4166667 0.8333333
vt 0.4583333 1
vt 0.3333333 0.6666667
vt 0.3333333 0.5
vt 0.3333333 0.8333333
vt 0.375 1
vt 0.25 0.6666667
vt 0.25 0.5
vt 0.25 0.8333333
vt 0.2916667 1
vt 0.1666667 0.8333333
vt 0.2083333 1
vt 0.1666667 0.6666667
vt 0.08333334 0.8333333
vt 0.125 1
vt 0.1666667 0.5
vt 0.08333331 0.6666667
vt 0.1666667 0.5
vt 0.25 0.5
vt 0.08333334 0.5
vt 0.08333334 0.5
vt 0 0.5
vt 0 0.5
vt 0 0.6666667
vt 0 0.8333333
vt 0.04166669 1
vt 0.75 0.5
vt 0.6666667 0.5
vt 0.75 0.5
vt 0.6666667 0.5
vt 0.5833333 0.5
vt 0.5833333 0.5
vt 0.5 0.5
vt 0.5 0.5
vt 0.4166667 0.5
vt 0.4166667 0.5
vt 0.3333333 0.5
vt 0.3333333 0.5
vt 0.25 0.5
vt 0.25 0.5
vt 0.75 0.5
vt 0.6666667 0.5
vt 0.75 0.5
vt 0.6666667 0.5
vt 0.5833333 0.5
vt 0.5833333 0.5
vt 0.5 0.5
vt 0.5 0.5
vt 0.4166667 0.5
vt 0.4166667 0.5
vt 0.3333333 0.5
vt 0.3333333 0.5
vt 0.25 0.5
vt 0.25 0.5
vt 0 0
vt 0 0
vt 0 0
vt 0 0
vt 0 0
vt 0 0
vt 0 0
vt 0 0
vt 0 0
vt 0 0
vt 0 0
vt 0 0
vt 0 0
vt 0 0
vt 0 0
vt 0 0
vt 0 0
vt 0 0
vt 0 0
vt 0 0
vt 0 0
vt 0 0
vt 0 0
vn 0 0.4658324 0.884873
vn 0.2329162 0.4034227 0.884873
vn 0 0 1
vn 0 0.8641716 0.5031971
vn 0.4320858 0.7483946 0.5031971
vn 0.4034227 0.2329162 0.884873
vn 0 0 1
vn -0.4320857 0.7483946 0.5031971
vn -0.2329162 0.4034227 0.884873
vn 0 0 1
vn -0.09211387 0.9810002 0.1707443
vn -0.4958982 0.8589208 0.1278284
vn -0.2588191 0.9659258 0
vn 0.4829629 0.8365163 0.258819
vn -0.5 0.8660254 0
vn 0.7483946 0.4320858 0.5031971
vn 0.8365163 0.4829628 0.258819
vn -0.8589208 0.4958982 0.1278284
vn -0.8660254 0.5 0
vn -0.7483945 0.4320859 0.5031971
vn -0.9917963 0 0.1278284
vn -1 0 0
vn -0.8641717 1.056813E-07 0.5031971
vn -0.4034228 0.2329163 0.884873
vn 0 0 1
vn -0.4658324 0 0.884873
vn 0 0 1
vn 0.8641716 0 0.5031971
vn 0.9659258 0 0.2588191
vn 0.4658324 0 0.884873
vn 0 0 1
vn 0.7483946 -0.4320859 0.5031971
vn 0.8365163 -0.482963 0.2588192
vn 0.4034227 -0.2329163 0.884873
vn 0 0 1
vn 0.4320857 -0.7483946 0.5031971
vn 0.4829629 -0.8365163 0.2588192
vn 0.2329162 -0.4034227 0.884873
vn 0 0 1
vn 0 -0.8641716 0.5031971
vn -0.0921139 -0.9810002 0.1707445
vn 0 -0.4658324 0.884873
vn 0 0 1
vn -0.2329162 -0.4034228 0.884873
vn 0 0 1
vn -0.4320859 -0.7483945 0.5031971
vn -0.4034227 -0.2329163 0.884873
vn 0 0 1
vn -0.4958982 -0.8589208 0.1278284
vn -0.7483946 -0.4320858 0.5031971
vn -0.5 -0.8660254 0
vn -0.2588191 -0.9659258 0
vn -0.8660254 -0.5 0
vn -0.8589208 -0.4958982 0.1278284
vn -1 0 0
vn -0.9917963 0 0.1278284
vn -0.8641717 1.056813E-07 0.5031971
vn -0.4658324 0 0.884873
vn 0 0 1
vn -0.2588191 -0.9659258 0
vn -0.5 -0.8660254 0
vn -0.2588191 -0.9659258 0
vn -0.5 -0.8660254 0
vn -0.8660254 -0.5 0
vn -0.8660254 -0.5 0
vn -1 0 0
vn -1 0 0
vn -0.8660254 0.5 0
vn -0.8660254 0.5 0
vn -0.5 0.8660254 0
vn -0.5 0.8660254 0
vn -0.2588191 0.9659258 0
vn -0.2588191 0.9659258 0
vn 0 0.9863985 -0.1643716
vn 0.3785866 0.6557314 -0.653214
vn 0.09583876 0.7279676 -0.6788802
vn 0 0 -1
vn 0.6557146 0.3785771 -0.6532366
vn 0 0 -1
vn 0.757168 0 -0.6532202
vn 0 0 -1
vn 0.6557145 -0.378577 -0.6532365
vn 0 0 -1
vn 0.3785866 -0.6557314 -0.653214
vn 0 0 -1
vn 0.09583876 -0.7279676 -0.6788802
vn 0 -0.9863985 -0.1643716
vn 0 -0.9863985 0.1643716
vn 0.09583876 -0.7279676 -0.6788802
vn 0 -0.9863985 -0.1643716
vn 0.09583876 -0.7279676 0.6788802
vn 0 0 1
vn 0.3785866 -0.6557314 -0.653214
vn 0.3785866 -0.6557314 0.653214
vn 0 0 1
vn 0.6557145 -0.378577 -0.6532365
vn 0.6557145 -0.378577 0.6532365
vn 0 0 1
vn 0.757168 0 -0.6532202
vn 0.757168 0 0.6532202
vn 0 0 1
vn 0.6557146 0.3785771 -0.6532366
vn 0.6557145 0.378577 0.6532365
vn 0 0 1
vn 0.3785866 0.6557314 -0.653214
vn 0.3785866 0.6557314 0.653214
vn 0 0.9863985 0.1643716
vn 0.09583876 0.7279676 -0.6788802
vn 0.09583876 0.7279676 0.6788802
vn 0 0.9863985 -0.1643716
g Sphere.002_0
f 3/3/3 2/2/2 1/1/1
f 1/1/1 2/2/2 4/4/4
f 2/2/2 5/5/5 4/4/4
f 2/2/2 6/6/6 5/5/5
f 7/7/7 6/6/6 2/2/2
f 1/1/1 4/4/4 8/8/8
f 9/9/9 1/1/1 8/8/8
f 10/10/10 1/1/1 9/9/9
f 4/4/4 5/5/5 11/11/11
f 4/4/4 11/11/11 12/12/12
f 8/8/8 4/4/4 12/12/12
f 11/11/11 13/13/13 12/12/12
f 5/5/5 14/14/14 11/11/11
f 13/13/13 15/15/15 12/12/12
f 5/5/5 16/16/16 14/14/14
f 6/6/6 16/16/16 5/5/5
f 16/16/16 17/17/17 14/14/14
f 12/12/12 15/15/15 18/18/18
f 8/8/8 12/12/12 18/18/18
f 15/15/15 19/19/19 18/18/18
f 9/9/9 8/8/8 20/20/20
f 20/20/20 8/8/8 18/18/18
f 18/18/18 19/19/19 21/21/21
f 20/20/20 18/18/18 21/21/21
f 19/19/19 22/22/22 21/21/21
f 23/23/23 20/20/20 21/21/21
f 24/24/24 9/9/9 20/20/20
f 24/24/24 20/20/20 23/23/23
f 25/25/25 9/9/9 24/24/24
f 26/26/26 24/24/24 23/23/23
f 27/27/27 24/24/24 26/26/26
f 16/16/16 28/28/28 17/17/17
f 28/28/28 29/29/29 17/17/17
f 30/30/30 28/28/28 16/16/16
f 6/6/6 30/30/30 16/16/16
f 31/31/31 30/30/30 6/6/6
f 28/28/28 32/32/32 29/29/29
f 32/32/32 33/33/33 29/29/29
f 30/30/30 34/34/34 28/28/28
f 34/34/34 32/32/32 28/28/28
f 35/35/35 34/34/34 30/30/30
f 32/32/32 36/36/36 33/33/33
f 36/36/36 37/37/37 33/33/33
f 34/34/34 38/38/38 32/32/32
f 38/38/38 36/36/36 32/32/32
f 39/39/39 38/38/38 34/34/34
f 36/36/36 40/40/40 37/37/37
f 40/40/40 41/41/41 37/37/37
f 38/38/38 42/42/42 36/36/36
f 42/42/42 40/40/40 36/36/36
f 43/43/43 42/42/42 38/38/38
f 42/42/42 44/44/44 40/40/40
f 45/45/45 44/44/44 42/42/42
f 44/44/44 46/46/46 40/40/40
f 40/40/40 46/46/46 41/41/41
f 44/44/44 47/47/47 46/46/46
f 48/48/48 47/47/47 44/44/44
f 46/46/46 49/49/49 41/41/41
f 47/47/47 50/50/50 46/46/46
f 46/46/46 50/50/50 49/49/49
f 49/49/49 51/51/51 41/41/41
f 51/51/51 52/52/52 41/41/41
f 53/53/53 51/51/51 49/49/49
f 54/54/54 53/53/53 49/49/49
f 50/50/50 54/54/54 49/49/49
f 55/55/55 53/53/53 54/54/54
f 56/56/56 55/55/55 54/54/54
f 57/57/57 56/56/56 54/54/54
f 50/50/50 57/57/57 54/54/54
f 58/58/58 57/57/57 50/50/50
f 47/47/47 58/58/58 50/50/50
f 59/59/59 58/58/58 47/47/47
f 62/62/62 61/61/61 60/60/60
f 61/61/61 63/63/63 60/60/60
f 61/61/61 64/64/64 63/63/63
f 64/64/64 65/65/65 63/63/63
f 64/64/64 66/66/66 65/65/65
f 66/66/66 67/67/67 65/65/65
f 66/66/66 68/68/68 67/67/67
f 68/68/68 69/69/69 67/67/67
f 68/68/68 70/70/70 69/69/69
f 70/70/70 71/71/71 69/69/69
f 70/70/70 72/72/72 71/71/71
f 72/72/72 73/73/73 71/71/71
f 76/76/76 75/75/75 74/74/74
f 75/75/75 77/77/77 74/74/74
f 75/75/75 78/78/78 77/77/77
f 78/78/78 79/79/79 77/77/77
f 78/78/78 80/80/80 79/79/79
f 80/80/80 81/81/81 79/79/79
f 80/80/80 82/82/82 81/81/81
f 82/82/82 83/83/83 81/81/81
f 82/82/82 84/84/84 83/83/83
f 84/84/84 85/85/85 83/83/83
f 84/84/84 86/86/86 85/85/85
f 86/86/86 87/87/87 85/85/85
f 90/90/90 89/89/89 88/88/88
f 89/89/89 91/91/91 88/88/88
f 92/92/92 88/88/88 91/91/91
f 89/89/89 93/93/93 91/91/91
f 94/94/94 92/92/92 91/91/91
f 93/93/93 94/94/94 91/91/91
f 92/92/92 94/94/94 95/95/95
f 93/93/93 96/96/96 94/94/94
f 94/94/94 97/97/97 95/95/95
f 96/96/96 97/97/97 94/94/94
f 95/95/95 97/97/97 98/98/98
f 96/96/96 99/99/99 97/97/97
f 97/97/97 100/100/100 98/98/98
f 99/99/99 100/100/100 97/97/97
f 98/98/98 100/100/100 101/101/101
f 99/99/99 102/102/102 100/100/100
f 100/100/100 103/103/103 101/101/101
f 102/102/102 103/103/103 100/100/100
f 101/101/101 103/103/103 104/104/104
f 102/102/102 105/105/105 103/103/103
f 103/103/103 106/106/106 104/104/104
f 105/105/105 106/106/106 103/103/103
f 107/107/107 104/104/104 106/106/106
f 105/105/105 108/108/108 106/106/106
f 109/109/109 107/107/107 106/106/106
f 108/108/108 109/109/109 106/106/106
f 110/110/110 107/107/107 109/109/109
f 108/108/108 110/110/110 109/109/109
