g Sphere.025
v 0.02831635 -2.709302E-10 0.01607749
v 0.04833716 -2.709302E-10 -0.003475294
v 0.0207414 -0.009066666 -0.003466859
v 0.004741401 -0.009333332 -0.004409256
v 0.01236847 -2.709302E-10 0.01384952
v -0.003579407 -2.709302E-10 0.01162156
v -0.04325859 -0.007466666 -0.01124025
v -0.04989101 -2.709302E-10 0.0001594496
v 0.02831635 -2.709302E-10 0.01607749
v 0.0207414 0.009066666 -0.003466859
v 0.04833716 -2.709302E-10 -0.003475294
v 0.01236847 -2.709302E-10 0.01384952
v 0.02831635 -2.709302E-10 0.01607749
v 0.0207414 -0.009066666 -0.003466859
v 0.004741401 0.009333334 -0.004409256
v -0.04989101 -2.709302E-10 0.0001594496
v -0.04325859 0.007466667 -0.01124025
v -0.003579407 -2.709302E-10 0.01162156
v 0.0207414 0.009066666 -0.003466859
v 0.01236847 -2.709302E-10 0.01384952
v 0.02831635 -2.709302E-10 0.01607749
v 0.0207414 -0.009066666 -0.003466859
v 0.04833716 -2.709302E-10 -0.003475294
v 0.0207414 0.009066666 -0.003466859
v 0.004741401 -0.009333332 -0.004409256
v 0.0207414 -0.009066666 -0.003466859
v 0.0207414 0.009066666 -0.003466859
v 0.004741401 0.009333334 -0.004409256
v -0.04325859 -0.007466666 -0.01124025
v -0.04325859 0.007466667 -0.01124025
v -0.04989101 -2.709302E-10 0.0001594496
vt 0.8749999 0.6666666
vt 0.875 0.6249999
vt 0.8749999 0.6666665
vt 0.8749999 0.6666666
vt 0.875 0.6666666
vt 0.8749999 0.6666666
vt 0.875 0.6666666
vt 0.875 0.6666666
vt 0.8749999 0.6666666
vt 0.8749999 0.5833332
vt 0.875 0.6249999
vt 0.875 0.6666666
vt 0.8749999 0.6666666
vt 0.8749999 0.6666665
vt 0.875 0.5833333
vt 0.875 0.5833333
vt 0.875 0.5833333
vt 0.875 0.5833333
vt 0.8749999 0.5833332
vt 0.875 0.5833333
vt 0.8749999 0.6666666
vt 0.8749999 0.6666665
vt 0.875 0.6249999
vt 0.8749999 0.5833332
vt 0.8749999 0.6666666
vt 0.8749999 0.6666665
vt 0.8749999 0.5833332
vt 0.875 0.5833333
vt 0.875 0.6666666
vt 0.875 0.5833333
vt 0.875 0.6666666
vn 0.3213923 0 0.9469462
vn 0.6986949 0 0.7154197
vn 0.07857344 -0.9092813 0.4086977
vn -0.06677517 -0.8796636 0.4708853
vn -0.1051337 -1.240959E-07 0.9944581
vn -0.1673549 -1.224505E-07 0.9858968
vn -0.1094309 -0.873108 0.4750865
vn -0.2244614 0 0.974483
vn 0.3213923 0 0.9469462
vn 0.07857344 0.9092813 0.4086978
vn 0.6986949 0 0.7154197
vn -0.1051337 -1.240959E-07 0.9944581
vn 0.3213923 0 0.9469462
vn 0.07857344 -0.9092813 0.4086977
vn -0.06677514 0.8796636 0.4708854
vn -0.2244614 0 0.974483
vn -0.109431 0.873108 0.4750866
vn -0.1673549 -1.224505E-07 0.9858968
vn 0.07857344 0.9092813 0.4086978
vn -0.1051337 -1.240959E-07 0.9944581
vn 0.3213923 0 0.9469462
vn 0.0327358 0 -0.9994641
vn -0.0003056923 0 -1
vn 0.03273581 0 -0.9994641
vn 0.09963989 0 -0.9950236
vn 0.0327358 0 -0.9994641
vn 0.03273581 0 -0.9994641
vn 0.09963989 0 -0.9950236
vn -0.3072154 0 -0.95164
vn -0.3072154 0 -0.95164
vn -0.8643526 0 -0.5028862
g Sphere.025_0
f 3/3/3 2/2/2 1/1/1
f 3/3/3 5/5/5 4/4/4
f 5/5/5 6/6/6 4/4/4
f 4/4/4 6/6/6 7/7/7
f 6/6/6 8/8/8 7/7/7
f 11/11/11 10/10/10 9/9/9
f 14/14/14 13/13/13 12/12/12
f 17/17/17 16/16/16 15/15/15
f 16/16/16 18/18/18 15/15/15
f 15/15/15 18/18/18 19/19/19
f 18/18/18 20/20/20 19/19/19
f 21/21/21 19/19/19 20/20/20
g Sphere.025_1
f 24/24/24 23/23/23 22/22/22
f 27/27/27 26/26/26 25/25/25
f 28/28/28 27/27/27 25/25/25
f 28/28/28 25/25/25 29/29/29
f 30/30/30 28/28/28 29/29/29
f 30/30/30 29/29/29 31/31/31
