g Sphere.020
v -0.01519677 -0.0007496905 0.003070756
v -0.0173734 -0.01293932 -0.01160743
v -0.02086507 -0.007767346 -0.007452288
v -0.0005453443 -0.002375557 0.002442535
v -0.001567373 -0.01077124 -0.00947998
v 0.0003199148 -7.008314E-05 -0.003994904
v -0.01247943 0.002524493 0.007459218
v -0.0130767 0.005446045 0.0006718397
v 0.005212774 0.003421726 0.009987978
v -0.016222 0.0008749127 -3.405809E-05
v 0.006919303 0.007491541 -0.001025643
v -0.02086507 -0.007767346 -0.007452288
v -0.0173734 -0.01293932 -0.01160743
v 0.02763621 0.009993074 0.003950452
v 0.01504494 -0.002003643 -0.0001952648
v 0.02654128 0.007781121 0.008973617
v 0.01565172 -0.0008559918 -0.002766838
v -0.01247943 0.002524493 0.007459218
v -0.0130767 0.005446045 0.0006718397
v 0.006919303 0.007491541 -0.001025643
v 0.005212774 0.003421726 0.009987978
v 0.005212774 0.003421726 0.009987978
v 0.006919303 0.007491541 -0.001025643
v 0.02763621 0.009993074 0.003950452
v 0.02654128 0.007781121 0.008973617
vt 0.4344099 0.25
vt 0.4343404 0.25
vt 0.4344099 0.25
vt 0.4343404 0.25
vt 0.4318533 0.25
vt 0.3918777 0.25
vt 0.4344099 0.25
vt 0.3918144 0.25
vt 0.4343404 0.25
vt 0.3918144 0.25
vt 0.3918777 0.25
vt 0.3918144 0.25
vt 0.3918777 0.25
vt 0.3943414 0.25
vt 0.4318533 0.25
vt 0.4318533 0.25
vt 0.3943414 0.25
vt 0.4344099 0.25
vt 0.3918144 0.25
vt 0.3918777 0.25
vt 0.4343404 0.25
vt 0.4343404 0.25
vt 0.3918777 0.25
vt 0.3943414 0.25
vt 0.4318533 0.25
vn -0.6639063 -0.2996868 0.6851397
vn -0.4485975 -0.6682309 -0.5934877
vn -0.9416339 -0.1987711 -0.2716904
vn 0.02722083 -0.7964512 0.6040899
vn 0.2853344 -0.7299579 -0.6210843
vn -0.01329488 0.4468742 -0.8944981
vn -0.4340582 -0.5272703 0.7304654
vn -0.5791773 0.5588872 -0.5934634
vn 0.09861551 -0.7962764 0.5968407
vn -0.7838314 0.5755647 -0.2330958
vn 0.06874497 0.3601519 -0.9303573
vn -0.9416339 -0.1987711 -0.2716904
vn -0.4485975 -0.6682309 -0.5934877
vn 0.710459 -0.5172525 -0.477177
vn 0.4503327 -0.8694994 0.2029068
vn 0.5763075 -0.809184 0.1144155
vn 0.5579265 -0.2963331 -0.7751805
vn -0.08051416 0.9294602 0.3600295
vn -0.08051416 0.9294602 0.3600295
vn -0.1355448 0.9288446 0.3447831
vn -0.126615 0.9291512 0.3473422
vn -0.126615 0.9291512 0.3473422
vn -0.1355448 0.9288446 0.3447831
vn -0.1822642 0.9259146 0.3308502
vn -0.1822642 0.9259146 0.3308502
g Sphere.020_0
f 3/3/3 2/2/2 1/1/1
f 2/2/2 4/4/4 1/1/1
f 5/5/5 4/4/4 2/2/2
f 6/6/6 5/5/5 2/2/2
f 1/1/1 4/4/4 7/7/7
f 1/1/1 7/7/7 8/8/8
f 4/4/4 9/9/9 7/7/7
f 10/10/10 1/1/1 8/8/8
f 10/10/10 8/8/8 11/11/11
f 6/6/6 10/10/10 11/11/11
f 12/12/12 1/1/1 10/10/10
f 12/12/12 10/10/10 6/6/6
f 13/13/13 12/12/12 6/6/6
f 6/6/6 11/11/11 14/14/14
f 4/4/4 15/15/15 9/9/9
f 4/4/4 5/5/5 15/15/15
f 15/15/15 16/16/16 9/9/9
f 17/17/17 14/14/14 16/16/16
f 17/17/17 6/6/6 14/14/14
f 5/5/5 6/6/6 17/17/17
f 15/15/15 17/17/17 16/16/16
f 5/5/5 17/17/17 15/15/15
g Sphere.020_1
f 20/20/20 19/19/19 18/18/18
f 21/21/21 20/20/20 18/18/18
f 24/24/24 23/23/23 22/22/22
f 25/25/25 24/24/24 22/22/22
