g Sphere.028
v -0.01546373 0.003568413 0.009203205
v -0.01629516 0 0.002662034
v 0.006150188 0 -0.01424698
v 0.02053625 0.0064 -0.003410726
v 0.02053625 -0.0064 -0.003410726
v -0.01546373 -0.003568413 0.009203205
v -0.01629516 0 0.002662034
v 0.006150188 0 -0.01424698
v 0.02053625 0.0064 -0.003410726
v 0.02053625 -0.0064 -0.003410726
v -0.01546373 -0.003568413 0.009203205
v -0.01546373 0.003568413 0.009203205
vt 0.125 0.5833333
vt 0.125 0.5833333
vt 0.125 0.5833333
vt 0.125 0.5833333
vt 0.125 0.6666666
vt 0.125 0.6666666
vt 0.125 0.6666666
vt 0.125 0.6666666
vt 0.125 0.5833333
vt 0.125 0.6666666
vt 0.125 0.6666666
vt 0.125 0.5833333
vn -0.7132285 0.6776583 -0.1791212
vn -0.8311075 0 -0.5561118
vn -0.2069902 0 -0.978343
vn 0.3122769 0.540022 -0.781575
vn 0.3122768 -0.540022 -0.781575
vn -0.7132285 -0.6776583 -0.1791212
vn -0.8311075 0 -0.5561118
vn -0.2069902 0 -0.978343
vn 0.3306759 0 0.9437444
vn 0.3306759 0 0.9437444
vn 0.3306759 0 0.9437444
vn 0.3306759 0 0.9437444
g Sphere.028_0
f 3/3/3 2/2/2 1/1/1
f 4/4/4 3/3/3 1/1/1
f 5/5/5 3/3/3 4/4/4
f 1/1/1 7/7/7 6/6/6
f 6/6/6 7/7/7 5/5/5
f 7/7/7 8/8/8 5/5/5
g Sphere.028_1
f 11/11/11 10/10/10 9/9/9
f 12/12/12 11/11/11 9/9/9
