g Sphere.015
v -0.06864242 -0.0107053 -0.0160956
v -0.1046424 -0.007061301 -0.01326713
v -0.06864242 -0.0107053 -0.009860924
v 0.04539692 6.405931E-08 0.03573084
v 0.05535752 6.405931E-08 0.03631751
v 0.03935755 -0.005314604 0.03233816
v 0.05430474 -0.03566954 -0.005408939
v 0.03935758 -0.02799993 0.01937511
v 0.05535758 -0.02825576 0.01953292
v 0.03725189 -0.03476627 -0.005235916
v 0.05240399 -0.03566954 -0.02230284
v -0.008642416 -0.02239994 0.01254411
v 0.0334504 -0.03476627 -0.02254187
v -0.008642416 -0.02781301 -0.006793125
v -0.03264243 -0.01919994 0.00503674
v -0.008642416 -0.02781301 -0.02039066
v -0.03264243 -0.02383971 -0.008478435
v -0.06864242 -0.0107053 -0.0009944951
v -0.03264243 -0.02383971 -0.01798202
v -0.06864242 -0.0107053 -0.009860924
v -0.06864242 -0.0107053 -0.0160956
v -0.1046424 -0.007061297 -0.007123319
v -0.1046424 -0.007061301 -0.01326713
v 0.04539692 6.405931E-08 0.03573084
v 0.03935755 0.005314733 0.03233816
v 0.05535752 6.405931E-08 0.03631751
v 0.05535758 -0.02825576 0.01953292
v 0.03935755 -0.005314604 0.03233816
v 0.03935758 -0.02799993 0.01937511
v -0.008642473 -0.004987341 0.02498168
v 0.03935755 -0.005314604 0.03233816
v -0.008642416 -0.02239994 0.01254411
v -0.03264243 -0.004943982 0.0155205
v -0.03264243 -0.01919994 0.00503674
v 0.05535758 0.02825589 0.01953292
v 0.05535752 6.405931E-08 0.03631751
v 0.03935758 0.02800006 0.01937511
v -0.008642416 0.02240006 0.01254411
v -0.008642473 0.004987469 0.02498168
v -0.03264243 0.01920006 0.00503674
v -0.03264243 0.004944109 0.0155205
v -0.06864242 0.01070543 -0.0009944951
v -0.06864249 6.405931E-08 0.005999127
v -0.06864242 -0.0107053 -0.0009944951
v -0.03264243 -0.004943982 0.0155205
v -0.06864249 6.405931E-08 0.005999127
v -0.1046424 6.405931E-08 0.001199642
v -0.1046424 -0.007061297 -0.007123319
v 0.05430474 0.03566967 -0.005408939
v 0.0334504 0.0347664 -0.02254187
v 0.05240399 0.03566967 -0.02230284
v 0.03725189 0.0347664 -0.005235916
v 0.05535758 0.02825589 0.01953292
v -0.008642416 0.02781314 -0.02039066
v 0.03935758 0.02800006 0.01937511
v -0.008642416 0.02781314 -0.006793125
v -0.03264243 0.02383984 -0.01798202
v -0.008642416 0.02240006 0.01254411
v -0.03264243 0.02383984 -0.008478435
v -0.06864242 0.01070543 -0.0160956
v -0.03264243 0.01920006 0.00503674
v -0.06864242 0.01070543 -0.009860924
v -0.1046424 0.007061429 -0.01326713
v -0.06864242 0.01070543 -0.0009944951
v -0.1046424 0.007061424 -0.007123319
v -0.03264243 0.004944109 0.0155205
v -0.03832467 6.405931E-08 0.0170796
v -0.06864249 6.405931E-08 0.005999127
v -0.03264243 -0.004943982 0.0155205
v -0.06864249 6.405931E-08 0.005999127
v -0.1046424 6.405931E-08 0.001199642
v -0.1046424 0.007061424 -0.007123319
v -0.06864242 0.01070543 -0.0009944951
v 0.04539692 6.405931E-08 0.03573084
v 0.03935755 -0.005314604 0.03233816
v 0.03935755 0.005314733 0.03233816
v -0.03832467 6.405931E-08 0.0170796
v -0.03264243 0.004944109 0.0155205
v -0.03264243 -0.004943982 0.0155205
v 0.05535758 0.02825589 0.01953292
v 0.05535758 -0.02825576 0.01953292
v 0.05535752 6.405931E-08 0.03631751
v 0.05430474 0.03566967 -0.005408939
v 0.05430474 -0.03566954 -0.005408939
v 0.05240399 0.03566967 -0.02230284
v 0.05240399 -0.03566954 -0.02230284
v 0.0334504 -0.03476627 -0.02254187
v 0.0334504 0.0347664 -0.02254187
v -0.008642416 0.02781314 -0.02039066
v -0.008642416 -0.02781301 -0.02039066
v -0.03264243 0.02383984 -0.01798202
v -0.03264243 -0.02383971 -0.01798202
v -0.06864242 0.01070543 -0.0160956
v -0.06864242 -0.0107053 -0.0160956
v -0.1046424 -0.007061301 -0.01326713
v -0.1046424 0.007061429 -0.01326713
v -0.1046424 -0.007061297 -0.007123319
v -0.1046424 0.007061424 -0.007123319
v -0.1046424 6.405931E-08 0.001199642
v -0.008642473 0.004987469 0.02498168
v -0.03264243 -0.004943982 0.0155205
v -0.03264243 0.004944109 0.0155205
v -0.008642473 -0.004987341 0.02498168
v 0.03935755 0.005314733 0.03233816
v 0.03935755 -0.005314604 0.03233816
v 0.04404931 0.009999758 -0.003502884
v 0.06404931 0.00499976 -0.01216313
v 0.06404931 0.009999759 -0.003502879
v 0.04404931 0.004999757 -0.01216314
v 0.06404931 -0.00500024 -0.01216313
v 0.04404931 -0.005000242 -0.01216314
v 0.06404931 -0.01000024 -0.003502879
v 0.04404931 -0.01000024 -0.003502884
v 0.06404931 -0.00500024 0.005157374
v 0.04404931 -0.005000242 0.005157371
v 0.06404931 0.00499976 0.005157374
v 0.04404931 0.004999757 0.005157371
v 0.06404931 0.009999759 -0.003502879
v 0.04404931 0.009999758 -0.003502884
v 0.06404931 -0.00500024 -0.01216313
v 0.06404931 -0.01000024 -0.003502879
v 0.06404931 -0.00500024 0.005157374
v 0.06404931 0.00499976 -0.01216313
v 0.06404931 0.00499976 0.005157374
v 0.06404931 0.009999759 -0.003502879
v 0.04404931 -0.005000242 0.005157371
v 0.04404931 -0.01000024 -0.003502884
v 0.04404931 -0.005000242 -0.01216314
v 0.04404931 0.004999757 0.005157371
v 0.04404931 0.004999757 -0.01216314
v 0.04404931 0.009999758 -0.003502884
vt 0.4512256 1
vt 0.4512256 1
vt 0.5487744 1
vt 0.8749999 0.6666666
vt 0.8749999 0.6666665
vt 0.8749999 0.682484
vt 0.5487744 1
vt 0.625 1
vt 0.625 1
vt 0.5487744 1
vt 0.4512256 0.9999999
vt 0.625 1
vt 0.4512256 1
vt 0.5487744 1
vt 0.625 1
vt 0.4512256 1
vt 0.5487744 1
vt 0.625 1
vt 0.4512256 1
vt 0.5487744 1
vt 0.4512256 1
vt 0.625 1
vt 0.5487744 1
vt 0.8749999 0.6666666
vt 0.875 0.5675159
vt 0.8749999 0.6666665
vt 0.875 0.75
vt 0.8749999 0.682484
vt 0.875 0.75
vt 0.875 0.685221
vt 0.875 0.682484
vt 0.875 0.75
vt 0.8750001 0.6881252
vt 0.875 0.75
vt 0.875 0.5
vt 0.8749999 0.5833332
vt 0.875 0.5
vt 0.875 0.5
vt 0.875 0.564779
vt 0.875 0.5
vt 0.875 0.5618747
vt 0.875 0.5
vt 0.8749999 0.5833333
vt 0.875 0.75
vt 0.875 0.6881252
vt 0.875 0.6666666
vt 0.8750001 0.6666667
vt 0.875 0.75
vt 0.5487745 0.25
vt 0.4512256 0.25
vt 0.4512256 0.25
vt 0.5487744 0.25
vt 0.625 0.25
vt 0.4512256 0.25
vt 0.625 0.25
vt 0.5487744 0.25
vt 0.4512256 0.25
vt 0.625 0.25
vt 0.5487744 0.25
vt 0.4512256 0.25
vt 0.625 0.25
vt 0.5487745 0.25
vt 0.5487744 0.25
vt 0.625 0.25
vt 0.625 0.25
vt 0.875 0.5618747
vt 0.875 0.5833333
vt 0 0
vt 0.875 0.6881252
vt 0.8749999 0.5833333
vt 0.8750001 0.5833333
vt 0.875 0.5
vt 0.875 0.5
vt 0.8749999 0.6666666
vt 0.8749999 0.682484
vt 0.875 0.5675159
vt 0.875 0.5833333
vt 0.875 0.5618747
vt 0.8750001 0.6881252
vt 0.625 0.25
vt 0.625 1
vt 0.8749999 0.6666665
vt 0.5487745 0.25
vt 0.5487744 1
vt 0.4512256 0.25
vt 0.4512256 0.9999999
vt 0.4512256 1
vt 0.4512256 0.25
vt 0.4512256 0.25
vt 0.4512256 1
vt 0.4512256 0.25
vt 0.4512256 1
vt 0.4512256 0.25
vt 0.4512256 1
vt 0.4512256 1
vt 0.5487744 0.25
vt 0.625 1
vt 0.625 0.25
vt 0.8750001 0.5833333
vt 0.875 0.564779
vt 0.8750001 0.6881252
vt 0.875 0.5618747
vt 0.875 0.685221
vt 0.875 0.5675159
vt 0.875 0.682484
vt 1 0.5
vt 0.8333333 1
vt 1 1
vt 0.8333333 0.5
vt 0.6666666 1
vt 0.6666666 0.5
vt 0.4999999 1
vt 0.4999999 0.5
vt 0.3333333 1
vt 0.3333333 0.5
vt 0.1666666 1
vt 0.1666666 0.5
vt -8.940697E-08 1
vt -8.940697E-08 0.5
vt 0.4578461 0.13
vt 0.25 0.01000001
vt 0.04215391 0.13
vt 0.4578461 0.37
vt 0.04215391 0.37
vt 0.25 0.49
vt 0.5421539 0.13
vt 0.75 0.01000001
vt 0.9578461 0.13
vt 0.5421539 0.37
vt 0.9578461 0.37
vt 0.75 0.49
vn -0.2284331 -0.9735596 0
vn -0.1007076 -0.9949161 3.145792E-07
vn -0.2135783 -0.9757569 0.04777768
vn -0.05879778 -1.740868E-07 0.9982699
vn -0.04208728 0 0.999114
vn -0.08214799 -0.5136092 0.8540827
vn -0.04190576 -0.9879208 0.1491861
vn -0.09694691 -0.7883303 0.6075663
vn -0.03523849 -0.7856464 0.6176715
vn -0.09608522 -0.9846025 0.1460327
vn -0.05012307 -0.9987081 0.008357165
vn -0.2163179 -0.7825624 0.583783
vn -0.1099313 -0.9938337 0.01448045
vn -0.1680856 -0.9747173 0.147219
vn -0.281999 -0.8008577 0.5283026
vn -0.1594757 -0.9871507 0.01005495
vn -0.2511319 -0.9605404 0.1195608
vn -0.2300546 -0.8446492 0.4833659
vn -0.2499586 -0.9682566 0
vn -0.2135783 -0.9757569 0.04777768
vn -0.2284331 -0.9735596 0
vn -0.1338763 -0.9143904 0.3820566
vn -0.1007076 -0.9949161 3.145792E-07
vn -0.05879778 -1.740868E-07 0.9982699
vn -0.08214788 0.5136092 0.8540827
vn -0.04208728 0 0.999114
vn -0.03523849 -0.7856464 0.6176715
vn -0.08214799 -0.5136092 0.8540827
vn -0.09694691 -0.7883303 0.6075663
vn -0.2261793 -0.5435314 0.8083419
vn -0.08214799 -0.5136092 0.8540827
vn -0.2163179 -0.7825624 0.583783
vn -0.2911536 -0.5573847 0.7775293
vn -0.281999 -0.8008577 0.5283026
vn -0.03523837 0.7856464 0.6176713
vn -0.04208728 0 0.999114
vn -0.09694684 0.7883303 0.6075662
vn -0.2163179 0.7825624 0.583783
vn -0.2261794 0.5435315 0.8083418
vn -0.281999 0.8008577 0.5283026
vn -0.2911536 0.5573847 0.7775293
vn -0.2300547 0.8446492 0.4833659
vn -0.2695194 0 0.962995
vn -0.2300546 -0.8446492 0.4833659
vn -0.2911536 -0.5573847 0.7775293
vn -0.2695194 0 0.962995
vn -0.1917863 0 0.9814368
vn -0.1338763 -0.9143904 0.3820566
vn -0.04190576 0.9879208 0.1491859
vn -0.1099313 0.9938337 0.01448041
vn -0.05012307 0.9987081 0.00835709
vn -0.09608522 0.9846026 0.1460327
vn -0.03523837 0.7856464 0.6176713
vn -0.1594757 0.9871507 0.01005495
vn -0.09694684 0.7883303 0.6075662
vn -0.1680856 0.9747173 0.147219
vn -0.2499586 0.9682566 0
vn -0.2163179 0.7825624 0.583783
vn -0.2511319 0.9605404 0.1195608
vn -0.2284331 0.9735596 0
vn -0.281999 0.8008577 0.5283026
vn -0.2135783 0.9757569 0.04777768
vn -0.1007076 0.9949161 3.145793E-07
vn -0.2300547 0.8446492 0.4833659
vn -0.1338763 0.9143904 0.3820565
vn -0.2911536 0.5573847 0.7775293
vn -0.3432698 0 0.9392369
vn -0.2695194 0 0.962995
vn -0.2911536 -0.5573847 0.7775293
vn -0.2695194 0 0.962995
vn -0.1917863 0 0.9814368
vn -0.1338763 0.9143904 0.3820565
vn -0.2300547 0.8446492 0.4833659
vn -0.4897705 -4.070178E-07 0.8718514
vn -0.2806831 -3.052099E-07 0.9598005
vn -0.2806831 -3.052099E-07 0.9598005
vn 0.2646018 0 0.9643578
vn -0.1483839 0 0.9889298
vn -0.1483839 0 0.9889298
vn 0.9994639 0 -0.03274164
vn 0.9994639 0 -0.03274164
vn 1 0 3.409107E-06
vn 0.9967496 0 -0.08056183
vn 0.9967496 0 -0.08056183
vn 0.6810923 0 -0.7321975
vn 0.6810923 0 -0.7321975
vn -0.01700346 0 -0.9998554
vn -0.01700346 0 -0.9998554
vn -0.07293229 0 -0.9973368
vn -0.07293229 0 -0.9973368
vn -0.08023812 0 -0.9967757
vn -0.08023812 0 -0.9967757
vn -0.06360805 0 -0.9979749
vn -0.06360805 0 -0.9979749
vn -0.714524 0 -0.6996109
vn -0.714524 0 -0.6996109
vn -1 0 0
vn -1 0 0
vn -1 0 0
vn -0.2604554 -1.202119E-07 0.9654858
vn -0.1483839 0 0.9889298
vn -0.1483839 0 0.9889298
vn -0.2604554 -1.202119E-07 0.9654858
vn -0.2806831 -3.052099E-07 0.9598005
vn -0.2806831 -3.052099E-07 0.9598005
vn -0.6099975 0.7924034 0
vn 0.6099975 0.3962017 -0.6862413
vn 0.6099975 0.7924034 0
vn -0.6099975 0.3962016 -0.6862414
vn 0.6099976 -0.3962017 -0.6862413
vn -0.6099974 -0.3962018 -0.6862415
vn 0.6099976 -0.7924033 0
vn -0.6099975 -0.7924034 0
vn 0.6099975 -0.3962016 0.6862414
vn -0.6099976 -0.3962018 0.6862414
vn 0.6099974 0.3962017 0.6862414
vn -0.6099976 0.3962017 0.6862414
vn 0.6099975 0.7924034 0
vn -0.6099975 0.7924034 0
vn 0.6099976 -0.3962017 -0.6862413
vn 0.6099976 -0.7924033 0
vn 0.6099975 -0.3962016 0.6862414
vn 0.6099975 0.3962017 -0.6862413
vn 0.6099974 0.3962017 0.6862414
vn 0.6099975 0.7924034 0
vn -0.6099976 -0.3962018 0.6862414
vn -0.6099975 -0.7924034 0
vn -0.6099974 -0.3962018 -0.6862415
vn -0.6099976 0.3962017 0.6862414
vn -0.6099975 0.3962016 -0.6862414
vn -0.6099975 0.7924034 0
g Sphere.015_0
f 3/3/3 2/2/2 1/1/1
f 6/6/6 5/5/5 4/4/4
f 9/9/9 8/8/8 7/7/7
f 8/8/8 10/10/10 7/7/7
f 7/7/7 10/10/10 11/11/11
f 8/8/8 12/12/12 10/10/10
f 10/10/10 13/13/13 11/11/11
f 12/12/12 14/14/14 10/10/10
f 10/10/10 14/14/14 13/13/13
f 12/12/12 15/15/15 14/14/14
f 14/14/14 16/16/16 13/13/13
f 15/15/15 17/17/17 14/14/14
f 14/14/14 17/17/17 16/16/16
f 15/15/15 18/18/18 17/17/17
f 17/17/17 19/19/19 16/16/16
f 18/18/18 20/20/20 17/17/17
f 17/17/17 20/20/20 19/19/19
f 20/20/20 21/21/21 19/19/19
f 18/18/18 22/22/22 20/20/20
f 22/22/22 23/23/23 20/20/20
f 26/26/26 25/25/25 24/24/24
f 26/26/26 28/28/28 27/27/27
f 28/28/28 29/29/29 27/27/27
f 31/31/31 30/30/30 29/29/29
f 30/30/30 32/32/32 29/29/29
f 30/30/30 33/33/33 32/32/32
f 33/33/33 34/34/34 32/32/32
f 25/25/25 36/36/36 35/35/35
f 37/37/37 25/25/25 35/35/35
f 37/37/37 38/38/38 25/25/25
f 38/38/38 39/39/39 25/25/25
f 38/38/38 40/40/40 39/39/39
f 40/40/40 41/41/41 39/39/39
f 41/41/41 40/40/40 42/42/42
f 43/43/43 41/41/41 42/42/42
f 34/34/34 45/45/45 44/44/44
f 45/45/45 46/46/46 44/44/44
f 46/46/46 47/47/47 44/44/44
f 47/47/47 48/48/48 44/44/44
f 51/51/51 50/50/50 49/49/49
f 50/50/50 52/52/52 49/49/49
f 49/49/49 52/52/52 53/53/53
f 50/50/50 54/54/54 52/52/52
f 52/52/52 55/55/55 53/53/53
f 54/54/54 56/56/56 52/52/52
f 52/52/52 56/56/56 55/55/55
f 54/54/54 57/57/57 56/56/56
f 56/56/56 58/58/58 55/55/55
f 57/57/57 59/59/59 56/56/56
f 56/56/56 59/59/59 58/58/58
f 57/57/57 60/60/60 59/59/59
f 59/59/59 61/61/61 58/58/58
f 60/60/60 62/62/62 59/59/59
f 59/59/59 62/62/62 61/61/61
f 60/60/60 63/63/63 62/62/62
f 62/62/62 64/64/64 61/61/61
f 62/62/62 63/63/63 64/64/64
f 63/63/63 65/65/65 64/64/64
f 68/68/68 67/67/67 66/66/66
f 68/68/68 69/69/69 67/67/67
f 72/72/72 71/71/71 70/70/70
f 73/73/73 72/72/72 70/70/70
g Sphere.015_1
f 76/76/76 75/75/75 74/74/74
f 79/79/79 78/78/78 77/77/77
f 82/82/82 81/81/81 80/80/80
f 83/83/83 80/80/80 81/81/81
f 84/84/84 83/83/83 81/81/81
f 85/85/85 83/83/83 84/84/84
f 86/86/86 85/85/85 84/84/84
f 85/85/85 86/86/86 87/87/87
f 88/88/88 85/85/85 87/87/87
f 89/89/89 88/88/88 87/87/87
f 90/90/90 89/89/89 87/87/87
f 89/89/89 90/90/90 91/91/91
f 90/90/90 92/92/92 91/91/91
f 91/91/91 92/92/92 93/93/93
f 92/92/92 94/94/94 93/93/93
f 93/93/93 94/94/94 95/95/95
f 96/96/96 93/93/93 95/95/95
f 95/95/95 97/97/97 96/96/96
f 97/97/97 98/98/98 96/96/96
f 99/99/99 98/98/98 97/97/97
f 102/102/102 101/101/101 100/100/100
f 101/101/101 103/103/103 100/100/100
f 100/100/100 103/103/103 104/104/104
f 103/103/103 105/105/105 104/104/104
g Sphere.015_2
f 108/108/108 107/107/107 106/106/106
f 107/107/107 109/109/109 106/106/106
f 107/107/107 110/110/110 109/109/109
f 110/110/110 111/111/111 109/109/109
f 110/110/110 112/112/112 111/111/111
f 112/112/112 113/113/113 111/111/111
f 112/112/112 114/114/114 113/113/113
f 114/114/114 115/115/115 113/113/113
f 114/114/114 116/116/116 115/115/115
f 116/116/116 117/117/117 115/115/115
f 116/116/116 118/118/118 117/117/117
f 118/118/118 119/119/119 117/117/117
f 122/122/122 121/121/121 120/120/120
f 120/120/120 123/123/123 122/122/122
f 123/123/123 124/124/124 122/122/122
f 123/123/123 125/125/125 124/124/124
f 128/128/128 127/127/127 126/126/126
f 126/126/126 129/129/129 128/128/128
f 129/129/129 130/130/130 128/128/128
f 129/129/129 131/131/131 130/130/130
