g Sphere.032
v -4.470348E-10 0.005 0.008660254
v 0.002938926 0.004045085 0.008660254
v 0 0 0.01
v -2.980232E-10 0.008660253 0.005
v -0.006934768 0.007006292 0.003144194
v -0.002938927 0.004045085 0.008660254
v 0 0 0.01
v 0.005414844 0.004552164 0.006244422
v 0.004755283 0.001545085 0.008660254
v 0 0 0.01
v -0.0007909639 0.01315991 -0.0046432
v -8.940697E-10 0.01 0
v -0.004708565 0.01188701 -0.0046432
v -0.007722253 0.00809017 -0.001855805
v 0.006090567 0.005256389 0.001954027
v -0.01108915 0.003090169 -0.001584469
v 0.008114378 0.002296359 0.006244422
v 0.009207721 0.002651607 0.001954027
v 0.004755283 -0.001545085 0.008660254
v 0 0 0.01
v 0.008114378 -0.002296363 0.006244422
v 0.009207721 -0.002651612 0.001954027
v 0.002938927 -0.004045085 0.008660254
v 0 0 0.01
v 0.005414844 -0.004552196 0.006244422
v 0.006090567 -0.005256421 0.001954027
v 2.980232E-10 -0.008660253 0.005
v 5.960464E-10 -0.01 0
v -0.0003688997 -0.01319393 -0.004258395
v -0.005070022 -0.01166644 -0.004258395
v 2.980232E-10 -0.005 0.008660254
v 0 0 0.01
v -0.006934768 -0.007006292 0.003144194
v -0.007722251 -0.008090172 -0.001855805
v -0.002938926 -0.004045086 0.008660254
v 0 0 0.01
v -0.009814969 -0.002676166 0.00341553
v -0.01108914 -0.003090171 -0.001584469
v -0.004755283 -0.001545086 0.008660254
v 0 0 0.01
v -0.004755283 -0.001545086 0.008660254
v -0.004755284 0.001545085 0.008660254
v 0 0 0.01
v -0.009814969 -0.002676166 0.00341553
v -0.009814969 0.002676165 0.00341553
v -0.01108914 -0.003090171 -0.001584469
v 0 0 0.01
v -0.008236391 -0.002676166 -0.005
v -0.008236391 0.002676165 -0.005
v -0.01034144 0.002519777 0.01397778
v -0.009040947 0.002038535 0.01521073
v -0.01067041 -3.805331E-08 0.01466926
v -0.009442667 0.004364409 0.01208861
v -0.007190149 0.003530874 0.01422414
v -0.0082372 0.0007786275 0.01597274
v -0.01067041 -3.805331E-08 0.01466926
v -0.01169518 0.003530874 0.009953074
v -0.01164193 0.002038535 0.01274483
v -0.01067041 -3.805331E-08 0.01466926
v -0.008214921 0.005039592 0.009507956
v -0.0108159 0.004077109 0.007042051
v -0.005798018 0.00134865 0.01554398
v -0.005613937 0.004077108 0.01197386
v -0.0082372 -0.0007787038 0.01597274
v -0.01067041 -3.805331E-08 0.01466926
v -0.01308732 0.00134865 0.00863324
v -0.0124234 0.001557293 0.005518038
v -0.01244568 0.0007786276 0.01198282
v -0.01067041 -3.805331E-08 0.01466926
v -0.01308732 -0.001348726 0.00863324
v -0.01244568 -0.000778704 0.01198282
v -0.01067041 -3.805331E-08 0.01466926
v -0.0124234 -0.00155737 0.005518039
v -0.01063182 -0.001348726 0.003471934
v -0.01063182 0.00134865 0.003471934
v -0.008192642 -0.0007787041 0.003043175
v -0.009239691 0.003530874 0.004791767
v -0.008192643 0.0007786275 0.003043175
v -0.005759429 -3.824063E-08 0.00434665
v -0.006987175 0.004364409 0.006927303
v -0.007388894 0.002038535 0.003805181
v -0.005759429 -3.824063E-08 0.00434665
v -0.006088402 0.002519777 0.005038134
v -0.005759429 -3.824063E-08 0.00434665
v -0.004734657 0.003530874 0.009062839
v -0.004006442 0.001557293 0.01349787
v -0.004787911 0.002038535 0.006271086
v -0.005759429 -3.824063E-08 0.00434665
v -0.003342526 0.00134865 0.01038267
v -0.005798018 -0.001348727 0.01554398
v -0.003984163 0.0007786274 0.007033092
v -0.005759429 -3.824063E-08 0.00434665
v -0.004006442 -0.00155737 0.01349787
v -0.009040947 -0.002038611 0.01521073
v -0.01067041 -3.805331E-08 0.01466926
v -0.003342526 -0.001348727 0.01038267
v -0.00719015 -0.00353095 0.01422414
v -0.003984163 -0.000778704 0.007033092
v -0.005759429 -3.824063E-08 0.00434665
v -0.005613937 -0.004077185 0.01197386
v -0.01034144 -0.002519853 0.01397778
v -0.01067041 -3.805331E-08 0.01466926
v -0.004734658 -0.00353095 0.009062839
v -0.009442667 -0.004364485 0.01208861
v -0.004787911 -0.002038612 0.006271086
v -0.005759429 -3.824063E-08 0.00434665
v -0.008214921 -0.005039669 0.009507956
v -0.01164193 -0.002038611 0.01274483
v -0.01067041 -3.805331E-08 0.01466926
v -0.006987175 -0.004364485 0.006927303
v -0.01169518 -0.00353095 0.009953074
v -0.01244568 -0.000778704 0.01198282
v -0.01067041 -3.805331E-08 0.01466926
v -0.01308732 -0.001348726 0.00863324
v -0.0108159 -0.004077185 0.007042052
v -0.0124234 -0.00155737 0.005518039
v -0.009239692 -0.00353095 0.004791767
v -0.01063182 -0.001348726 0.003471934
v -0.006088402 -0.002519853 0.005038134
v -0.005759429 -3.824063E-08 0.00434665
v -0.007388894 -0.002038612 0.003805182
v -0.005759429 -3.824063E-08 0.00434665
v -0.008192642 -0.0007787041 0.003043175
v -0.005759429 -3.824063E-08 0.00434665
vt 0.7 0.8333333
vt 0.6 0.8333333
vt 0.65 1
vt 0.7 0.6666667
vt 0.8 0.6666667
vt 0.8 0.8333333
vt 0.75 1
vt 0.6 0.6666667
vt 0.5 0.8333333
vt 0.55 1
vt 0.7 0.6666667
vt 0.7 0.5
vt 0.8 0.6666667
vt 0.8 0.5
vt 0.6 0.5
vt 0.9 0.5
vt 0.5 0.6666667
vt 0.5 0.5
vt 0.4 0.8333333
vt 0.45 1
vt 0.4 0.6666667
vt 0.4 0.5
vt 0.3 0.8333333
vt 0.35 1
vt 0.3 0.6666667
vt 0.3 0.5
vt 0.2 0.6666667
vt 0.2 0.5
vt 0.2 0.6666667
vt 0.09999999 0.6666667
vt 0.2 0.8333333
vt 0.25 1
vt 0.09999999 0.6666667
vt 0.09999999 0.5
vt 0.09999999 0.8333333
vt 0.15 1
vt 0 0.6666667
vt 0 0.5
vt 0 0.8333333
vt 0.05000001 1
vt 0.9999999 0.8333333
vt 0.9 0.8333333
vt 0.95 1
vt 0.9999999 0.6666667
vt 0.9 0.6666667
vt 0.9999999 0.5
vt 0.85 1
vt 0.9999999 0.3333333
vt 0.9 0.3333333
vt 0.7 0.8333333
vt 0.6 0.8333333
vt 0.65 1
vt 0.7 0.6666667
vt 0.6 0.6666667
vt 0.5 0.8333333
vt 0.55 1
vt 0.8 0.6666667
vt 0.8 0.8333333
vt 0.75 1
vt 0.7 0.5
vt 0.8 0.5
vt 0.5 0.6666667
vt 0.6 0.5
vt 0.4 0.8333333
vt 0.45 1
vt 0.9 0.6666667
vt 0.9 0.5
vt 0.9 0.8333333
vt 0.85 1
vt 0.9999999 0.6666667
vt 0.9999999 0.8333333
vt 0.95 1
vt 0.9999999 0.5
vt 0.9999999 0.3333333
vt 0.9 0.3333333
vt 0.9999999 0.1666667
vt 0.8 0.3333333
vt 0.9 0.1666667
vt 0.95 0
vt 0.7 0.3333333
vt 0.8 0.1666667
vt 0.85 0
vt 0.7 0.1666667
vt 0.75 0
vt 0.6 0.3333333
vt 0.5 0.5
vt 0.6 0.1666667
vt 0.65 0
vt 0.5 0.3333333
vt 0.4 0.6666667
vt 0.5 0.1666667
vt 0.55 0
vt 0.4 0.5
vt 0.3 0.8333333
vt 0.35 1
vt 0.4 0.3333333
vt 0.3 0.6666667
vt 0.4 0.1666667
vt 0.45 0
vt 0.3 0.5
vt 0.2 0.8333333
vt 0.25 1
vt 0.3 0.3333333
vt 0.2 0.6666667
vt 0.3 0.1666667
vt 0.35 0
vt 0.2 0.5
vt 0.09999999 0.8333333
vt 0.15 1
vt 0.2 0.3333333
vt 0.09999999 0.6666667
vt 0 0.8333333
vt 0.05000001 1
vt 0 0.6666667
vt 0.09999999 0.5
vt 0 0.5
vt 0.09999999 0.3333333
vt 0 0.3333333
vt 0.2 0.1666667
vt 0.25 0
vt 0.09999999 0.1666667
vt 0.15 0
vt 0 0.1666667
vt 0.05000001 0
vn 0.009332981 0.5602409 0.8282771
vn 0.3076386 0.4722192 0.8260553
vn 0 0 1
vn 0.1248616 0.8580527 0.4981517
vn -0.5744966 0.6633175 0.4795452
vn -0.3353722 0.4523882 0.8263597
vn 0 0 1
vn 0.5346712 0.6924123 0.48445
vn 0.4356637 0.1853354 0.8808223
vn 0 0 1
vn -0.1945287 0.8783702 0.4366057
vn 0.8409085 0.5225801 0.1406515
vn -0.377332 0.833559 0.4034845
vn -0.7172754 0.6486771 0.2544287
vn 0.5894768 0.777478 0.219192
vn -0.974914 0.2167186 -0.05075432
vn 0.7800111 0.3459249 0.5214581
vn 0.8785595 0.4024614 0.257212
vn 0.4356634 -0.1853342 0.8808228
vn 0 0 1
vn 0.7800117 -0.345923 0.5214585
vn 0.8785606 -0.4024591 0.257212
vn 0.3076375 -0.4722182 0.8260564
vn 0 0 1
vn 0.5346711 -0.6924115 0.4844514
vn 0.5894772 -0.7774775 0.2191925
vn 0.1262887 -0.8560569 0.5012163
vn 0.9156058 -0.3882135 0.1046728
vn -0.1751419 -0.8759378 0.4495089
vn -0.3889688 -0.8258187 0.408322
vn 0.009332042 -0.5602406 0.8282774
vn 0 0 1
vn -0.5753968 -0.6607832 0.4819586
vn -0.7342967 -0.6299031 0.2530421
vn -0.3353721 -0.4523883 0.8263597
vn 0 0 1
vn -0.8375835 -0.2613587 0.4797348
vn -0.9749138 -0.2167189 -0.05075434
vn -0.5122035 -0.1747943 0.8408892
vn 0 0 1
vn -0.5122035 -0.1747943 0.8408892
vn -0.5122036 0.1747942 0.8408892
vn 0 0 1
vn -0.8375835 -0.2613587 0.4797348
vn -0.8375835 0.2613586 0.4797348
vn -0.9749138 -0.2167189 -0.05075434
vn 0 0 1
vn -0.7675048 -1.161376E-07 -0.6410434
vn -0.7675048 -1.161376E-07 -0.6410434
vn -0.5569048 0.558898 0.6144023
vn -0.3250947 0.493416 0.8067553
vn -0.6742267 0 0.7385244
vn -0.2996958 0.8909301 0.3412124
vn 0.1244402 0.7838041 0.6084125
vn -0.1506315 0.2073032 0.9666104
vn -0.6742267 0 0.7385244
vn -0.6956999 0.7072639 0.1256162
vn -0.7735282 0.4380366 0.4580154
vn -0.6742267 0 0.7385244
vn 0 1 0
vn -0.4841576 0.8392017 -0.2476531
vn 0.4412228 0.3264429 0.8359172
vn 0.4841577 0.8392016 0.247653
vn -0.1506313 -0.2073031 0.9666104
vn -0.6742267 0 0.7385244
vn -0.9609401 0.2766417 -0.007975967
vn -0.8331365 0.3414871 -0.4350519
vn -0.915446 0.1689416 0.3652633
vn -0.6742267 0 0.7385244
vn -0.9609399 -0.2766417 -0.007975925
vn -0.9154459 -0.1689419 0.3652634
vn -0.6742267 0 0.7385244
vn -0.8331365 -0.3414872 -0.4350519
vn -0.4412227 -0.3264428 -0.8359173
vn -0.4412227 0.3264429 -0.8359173
vn 0.1506314 -0.207303 -0.9666104
vn -0.12444 0.7838041 -0.6084125
vn 0.1506312 0.207303 -0.9666104
vn 0.6742266 0 -0.7385245
vn 0.299696 0.8909301 -0.3412123
vn 0.3250947 0.4934157 -0.8067555
vn 0.6742266 0 -0.7385245
vn 0.556905 0.5588979 -0.6144023
vn 0.6742266 0 -0.7385245
vn 0.6957 0.7072638 -0.1256161
vn 0.8331365 0.3414871 0.4350519
vn 0.773528 0.4380368 -0.4580154
vn 0.6742266 0 -0.7385245
vn 0.9609401 0.2766415 0.007976091
vn 0.4412228 -0.3264429 0.8359172
vn 0.9154459 0.1689419 -0.3652635
vn 0.6742266 0 -0.7385245
vn 0.8331365 -0.3414871 0.4350519
vn -0.3250949 -0.4934159 0.8067552
vn -0.6742267 0 0.7385244
vn 0.9609401 -0.2766415 0.007976043
vn 0.1244399 -0.7838041 0.6084124
vn 0.9154459 -0.168942 -0.3652634
vn 0.6742266 0 -0.7385245
vn 0.4841577 -0.8392016 0.2476531
vn -0.556905 -0.5588979 0.6144023
vn -0.6742267 0 0.7385244
vn 0.6956999 -0.7072638 -0.1256162
vn -0.2996961 -0.8909301 0.3412123
vn 0.7735279 -0.4380369 -0.4580154
vn 0.6742266 0 -0.7385245
vn 0 -1 0
vn -0.7735281 -0.4380365 0.4580156
vn -0.6742267 0 0.7385244
vn 0.299696 -0.8909301 -0.3412124
vn -0.6956999 -0.7072639 0.1256162
vn -0.9154459 -0.1689419 0.3652634
vn -0.6742267 0 0.7385244
vn -0.9609399 -0.2766417 -0.007975925
vn -0.4841576 -0.8392016 -0.247653
vn -0.8331365 -0.3414872 -0.4350519
vn -0.1244402 -0.783804 -0.6084127
vn -0.4412227 -0.3264428 -0.8359173
vn 0.556905 -0.5588979 -0.6144023
vn 0.6742266 0 -0.7385245
vn 0.3250947 -0.4934158 -0.8067554
vn 0.6742266 0 -0.7385245
vn 0.1506314 -0.207303 -0.9666104
vn 0.6742266 0 -0.7385245
g Sphere.032_0
f 3/3/3 2/2/2 1/1/1
f 1/1/1 2/2/2 4/4/4
f 1/1/1 4/4/4 5/5/5
f 6/6/6 1/1/1 5/5/5
f 7/7/7 1/1/1 6/6/6
f 2/2/2 8/8/8 4/4/4
f 2/2/2 9/9/9 8/8/8
f 10/10/10 9/9/9 2/2/2
f 4/4/4 11/11/11 5/5/5
f 12/12/12 11/11/11 4/4/4
f 4/4/4 8/8/8 12/12/12
f 11/11/11 13/13/13 5/5/5
f 5/5/5 13/13/13 14/14/14
f 8/8/8 15/15/15 12/12/12
f 5/5/5 14/14/14 16/16/16
f 8/8/8 17/17/17 15/15/15
f 9/9/9 17/17/17 8/8/8
f 17/17/17 18/18/18 15/15/15
f 9/9/9 19/19/19 17/17/17
f 20/20/20 19/19/19 9/9/9
f 17/17/17 21/21/21 18/18/18
f 19/19/19 21/21/21 17/17/17
f 21/21/21 22/22/22 18/18/18
f 19/19/19 23/23/23 21/21/21
f 24/24/24 23/23/23 19/19/19
f 21/21/21 25/25/25 22/22/22
f 23/23/23 25/25/25 21/21/21
f 25/25/25 26/26/26 22/22/22
f 25/25/25 27/27/27 26/26/26
f 27/27/27 28/28/28 26/26/26
f 27/27/27 29/29/29 28/28/28
f 30/30/30 29/29/29 27/27/27
f 23/23/23 31/31/31 25/25/25
f 31/31/31 27/27/27 25/25/25
f 32/32/32 31/31/31 23/23/23
f 33/33/33 30/30/30 27/27/27
f 34/34/34 30/30/30 33/33/33
f 31/31/31 35/35/35 27/27/27
f 35/35/35 33/33/33 27/27/27
f 36/36/36 35/35/35 31/31/31
f 33/33/33 37/37/37 34/34/34
f 37/37/37 38/38/38 34/34/34
f 39/39/39 37/37/37 33/33/33
f 35/35/35 39/39/39 33/33/33
f 40/40/40 39/39/39 35/35/35
f 43/43/43 42/42/42 41/41/41
f 41/41/41 42/42/42 44/44/44
f 42/42/42 45/45/45 44/44/44
f 44/44/44 45/45/45 46/46/46
f 42/42/42 6/6/6 45/45/45
f 47/47/47 6/6/6 42/42/42
f 6/6/6 5/5/5 45/45/45
f 45/45/45 5/5/5 16/16/16
f 45/45/45 16/16/16 46/46/46
f 46/46/46 16/16/16 48/48/48
f 16/16/16 49/49/49 48/48/48
f 52/52/52 51/51/51 50/50/50
f 50/50/50 51/51/51 53/53/53
f 51/51/51 54/54/54 53/53/53
f 51/51/51 55/55/55 54/54/54
f 56/56/56 55/55/55 51/51/51
f 50/50/50 53/53/53 57/57/57
f 58/58/58 50/50/50 57/57/57
f 59/59/59 50/50/50 58/58/58
f 53/53/53 54/54/54 60/60/60
f 57/57/57 53/53/53 61/61/61
f 53/53/53 60/60/60 61/61/61
f 55/55/55 62/62/62 54/54/54
f 54/54/54 63/63/63 60/60/60
f 54/54/54 62/62/62 63/63/63
f 55/55/55 64/64/64 62/62/62
f 65/65/65 64/64/64 55/55/55
f 58/58/58 57/57/57 66/66/66
f 57/57/57 61/61/61 67/67/67
f 66/66/66 57/57/57 67/67/67
f 68/68/68 58/58/58 66/66/66
f 69/69/69 58/58/58 68/68/68
f 68/68/68 66/66/66 70/70/70
f 71/71/71 68/68/68 70/70/70
f 72/72/72 68/68/68 71/71/71
f 70/70/70 66/66/66 73/73/73
f 66/66/66 67/67/67 73/73/73
f 73/73/73 67/67/67 74/74/74
f 67/67/67 75/75/75 74/74/74
f 67/67/67 61/61/61 75/75/75
f 74/74/74 75/75/75 76/76/76
f 61/61/61 77/77/77 75/75/75
f 61/61/61 60/60/60 77/77/77
f 75/75/75 78/78/78 76/76/76
f 75/75/75 77/77/77 78/78/78
f 76/76/76 78/78/78 79/79/79
f 60/60/60 80/80/80 77/77/77
f 60/60/60 63/63/63 80/80/80
f 77/77/77 81/81/81 78/78/78
f 77/77/77 80/80/80 81/81/81
f 78/78/78 81/81/81 82/82/82
f 80/80/80 83/83/83 81/81/81
f 81/81/81 83/83/83 84/84/84
f 63/63/63 85/85/85 80/80/80
f 80/80/80 85/85/85 83/83/83
f 63/63/63 86/86/86 85/85/85
f 62/62/62 86/86/86 63/63/63
f 85/85/85 87/87/87 83/83/83
f 83/83/83 87/87/87 88/88/88
f 85/85/85 89/89/89 87/87/87
f 86/86/86 89/89/89 85/85/85
f 62/62/62 90/90/90 86/86/86
f 64/64/64 90/90/90 62/62/62
f 89/89/89 91/91/91 87/87/87
f 87/87/87 91/91/91 92/92/92
f 86/86/86 93/93/93 89/89/89
f 90/90/90 93/93/93 86/86/86
f 64/64/64 94/94/94 90/90/90
f 95/95/95 94/94/94 64/64/64
f 89/89/89 96/96/96 91/91/91
f 93/93/93 96/96/96 89/89/89
f 94/94/94 97/97/97 90/90/90
f 90/90/90 97/97/97 93/93/93
f 96/96/96 98/98/98 91/91/91
f 91/91/91 98/98/98 99/99/99
f 93/93/93 100/100/100 96/96/96
f 97/97/97 100/100/100 93/93/93
f 94/94/94 101/101/101 97/97/97
f 102/102/102 101/101/101 94/94/94
f 96/96/96 103/103/103 98/98/98
f 100/100/100 103/103/103 96/96/96
f 97/97/97 104/104/104 100/100/100
f 101/101/101 104/104/104 97/97/97
f 103/103/103 105/105/105 98/98/98
f 98/98/98 105/105/105 106/106/106
f 100/100/100 107/107/107 103/103/103
f 104/104/104 107/107/107 100/100/100
f 101/101/101 108/108/108 104/104/104
f 109/109/109 108/108/108 101/101/101
f 103/103/103 110/110/110 105/105/105
f 107/107/107 110/110/110 103/103/103
f 104/104/104 111/111/111 107/107/107
f 108/108/108 111/111/111 104/104/104
f 108/108/108 112/112/112 111/111/111
f 113/113/113 112/112/112 108/108/108
f 112/112/112 114/114/114 111/111/111
f 111/111/111 115/115/115 107/107/107
f 111/111/111 114/114/114 115/115/115
f 107/107/107 115/115/115 110/110/110
f 114/114/114 116/116/116 115/115/115
f 115/115/115 116/116/116 117/117/117
f 115/115/115 117/117/117 110/110/110
f 116/116/116 118/118/118 117/117/117
f 110/110/110 119/119/119 105/105/105
f 110/110/110 117/117/117 119/119/119
f 105/105/105 119/119/119 120/120/120
f 117/117/117 118/118/118 121/121/121
f 117/117/117 121/121/121 119/119/119
f 119/119/119 121/121/121 122/122/122
f 118/118/118 123/123/123 121/121/121
f 121/121/121 123/123/123 124/124/124
