g Sphere.030
v 0.01589872 0.01070536 0.01177702
v -0.02010128 0.00706136 0.005648192
v -0.02010128 0.007061365 -0.0004956219
v 0.01589872 0.01070536 0.002910588
v 0.01589872 0.01070536 -0.003324094
v -0.02010128 0.007061365 -0.0004956219
v -0.02010128 0.00706136 -0.004228305
v 0.01589872 0.01070536 -0.01019322
v 0.01589872 -0.01070536 0.002910588
v -0.02010128 -0.007061365 -0.0004956219
v -0.02010128 -0.00706136 0.005648192
v 0.01589872 -0.01070536 0.01177702
v 0.01589872 0.003568413 0.01877064
v -0.02010128 1.862645E-11 0.01397115
v -0.02010128 0.00706136 0.005648192
v 0.01589872 0.01070536 0.01177702
v 0.01589872 -0.01070536 -0.01019322
v -0.02010128 -0.00706136 -0.004228305
v -0.02010128 -0.007061365 -0.0004956219
v 0.01589872 -0.01070536 -0.003324094
v 0.01589872 -0.01070536 0.002910588
v 0.01589872 -0.003568413 -0.01718685
v -0.02010128 1.862645E-11 -0.01255127
v -0.02010128 -0.00706136 -0.004228305
v 0.01589872 -0.01070536 -0.01019322
v 0.01589872 0.01070536 -0.01019322
v -0.02010128 0.00706136 -0.004228305
v -0.02010128 1.862645E-11 -0.01255127
v 0.01589872 0.003568413 -0.01718685
v 0.01589872 -0.003568413 -0.01718685
v 0.01589872 -0.01070536 0.01177702
v -0.02010128 -0.00706136 0.005648192
v -0.02010128 1.862645E-11 0.01397115
v 0.01589872 -0.003568413 0.01877064
v 0.01589872 0.003568413 0.01877064
v -0.02010128 -0.00706136 0.005648192
v -0.02010128 0.00706136 0.005648192
v -0.02010128 1.862645E-11 0.01397115
v -0.02010128 0.007061365 -0.0004956219
v -0.02010128 -0.007061365 -0.0004956219
v -0.02010128 -0.00706136 -0.004228305
v -0.02010128 0.007061365 -0.0004956219
v -0.02010128 0.00706136 -0.004228305
v -0.02010128 1.862645E-11 -0.01255127
v 0.01589872 -0.01070536 0.01177702
v 0.01589872 0.01070536 0.01177702
v 0.01589872 0.01070536 0.002910588
v 0.01589872 -0.01070536 0.002910588
v 0.01589872 0.01070536 -0.003324094
v 0.01589872 -0.01070536 -0.003324094
v 0.01589872 0.01070536 -0.01019322
v 0.01589872 -0.01070536 -0.01019322
v 0.01589872 0.003568413 0.01877064
v 0.01589872 0.01070536 0.01177702
v 0.01589872 -0.01070536 0.01177702
v 0.01589872 -0.003568413 0.01877064
v -0.02010128 0.00706136 -0.004228305
v 0.01589872 0.01070536 -0.01019322
v 0.01589872 0.003568413 -0.01718685
v 0.01589872 -0.003568413 -0.01718685
v 0.01589872 -0.01070536 -0.01019322
v -0.02286232 0.004010259 -0.000731384
v 0.01786671 0.002005134 -0.004204364
v 0.01786671 0.004010264 -0.0007313761
v -0.02286232 0.002005128 -0.004204372
v 0.01786671 -0.002005128 -0.004204364
v -0.02286232 -0.002005134 -0.004204372
v 0.01786671 -0.004010259 -0.0007313761
v -0.02286232 -0.004010264 -0.000731384
v 0.01786671 -0.002005128 0.002741612
v -0.02286232 -0.002005134 0.002741605
v 0.01786671 0.002005134 0.002741612
v -0.02286232 0.002005128 0.002741605
v 0.01786671 0.004010264 -0.0007313761
v -0.02286232 0.004010259 -0.000731384
v 0.01786671 -0.002005128 -0.004204364
v 0.01786671 -0.004010259 -0.0007313761
v 0.01786671 -0.002005128 0.002741612
v 0.01786671 0.002005134 -0.004204364
v 0.01786671 0.002005134 0.002741612
v 0.01786671 0.004010264 -0.0007313761
v -0.02286232 -0.002005134 0.002741605
v -0.02286232 -0.004010264 -0.000731384
v -0.02286232 -0.002005134 -0.004204372
v -0.02286232 0.002005128 0.002741605
v -0.02286232 0.002005128 -0.004204372
v -0.02286232 0.004010259 -0.000731384
vt 0.625 0.25
vt 0.625 0.25
vt 0.5487744 0.25
vt 0.5487745 0.25
vt 0.4512256 0.25
vt 0.4512256 0.25
vt 0.375 0.25
vt 0.375 0.25
vt 0.5487744 1
vt 0.5487744 1
vt 0.625 1
vt 0.625 1
vt 0.8749999 0.5833333
vt 0.8750001 0.5833333
vt 0.875 0.5
vt 0.875 0.5
vt 0.375 1
vt 0.375 1
vt 0.4512256 1
vt 0.4512256 1
vt 0.5487744 1
vt 0.125 0.6666666
vt 0.125 0.6666667
vt 0.125 0.75
vt 0.125 0.75
vt 0.125 0.5
vt 0.125 0.5
vt 0.125 0.5833333
vt 0.125 0.5833333
vt 0.125 0.6666666
vt 0.875 0.75
vt 0.875 0.75
vt 0.8750001 0.6666667
vt 0.875 0.6666666
vt 0.8749999 0.5833333
vt 0.625 1
vt 0.625 0.25
vt 0.8750001 0.5833333
vt 0.5487744 0.25
vt 0.5487744 1
vt 0.375 1
vt 0.4512256 0.25
vt 0.375 0.25
vt 0.125 0.6666667
vt 0.625 1
vt 0.625 0.25
vt 0.5487745 0.25
vt 0.5487744 1
vt 0.4512256 0.25
vt 0.4512256 1
vt 0.375 0.25
vt 0.375 1
vt 0.8749999 0.5833333
vt 0.875 0.5
vt 0.625 1
vt 0.875 0.6666666
vt 0.375 0.25
vt 0.125 0.5
vt 0.125 0.5833333
vt 0.125 0.6666666
vt 0.125 0.75
vt 1 0.5
vt 0.8333333 1
vt 1 1
vt 0.8333333 0.5
vt 0.6666666 1
vt 0.6666666 0.5
vt 0.4999999 1
vt 0.4999999 0.5
vt 0.3333333 1
vt 0.3333333 0.5
vt 0.1666666 1
vt 0.1666666 0.5
vt -8.940697E-08 1
vt -8.940697E-08 0.5
vt 0.4578461 0.13
vt 0.25 0.01000001
vt 0.04215391 0.13
vt 0.4578461 0.37
vt 0.04215391 0.37
vt 0.25 0.49
vt 0.5421539 0.13
vt 0.75 0.01000001
vt 0.9578461 0.13
vt 0.5421539 0.37
vt 0.9578461 0.37
vt 0.75 0.49
vn -0.1501279 0.9108105 0.384559
vn -0.1445518 0.9315667 0.3335991
vn -0.1007076 0.9949161 0
vn -0.1007076 0.9949161 1.395567E-07
vn -0.1007076 0.9949161 -1.957056E-07
vn -0.1007076 0.9949161 0
vn -0.1007077 0.9949161 -3.729023E-07
vn -0.1007077 0.9949161 -3.729023E-07
vn -0.1007076 -0.9949161 1.395567E-07
vn -0.1007076 -0.9949161 0
vn -0.1445518 -0.9315667 0.3335991
vn -0.1501279 -0.9108105 0.384559
vn -0.167229 0.4030471 0.8997708
vn -0.2419682 0 0.9702842
vn -0.1445518 0.9315667 0.3335991
vn -0.1501279 0.9108105 0.384559
vn -0.1483344 -0.9113995 -0.3838591
vn -0.1431676 -0.9314113 -0.3346282
vn -0.1007076 -0.9949161 0
vn -0.1007076 -0.9949161 -1.957056E-07
vn -0.1007076 -0.9949161 1.395567E-07
vn -0.1632657 -0.403711 -0.900201
vn -0.2377782 0 -0.9713194
vn -0.1431676 -0.9314113 -0.3346282
vn -0.1483344 -0.9113995 -0.3838591
vn -0.1709979 0.7225704 -0.6698148
vn -0.1709979 0.7225704 -0.6698148
vn -0.2377782 0 -0.9713194
vn -0.1632657 0.403711 -0.900201
vn -0.1632657 -0.403711 -0.900201
vn -0.1501279 -0.9108105 0.384559
vn -0.1445518 -0.9315667 0.3335991
vn -0.2419682 0 0.9702842
vn -0.167229 -0.4030471 0.8997708
vn -0.167229 0.4030471 0.8997708
vn -1 0 0
vn -1 0 0
vn -1 0 0
vn -1 0 0
vn -1 0 0
vn -1 0 0
vn -1 0 0
vn -1 0 0
vn -1 0 0
vn 1 0 0
vn 1 0 0
vn 1 0 0
vn 1 0 0
vn 1 0 0
vn 1 0 0
vn 1 0 0
vn 1 0 0
vn 1 0 0
vn 1 0 0
vn 1 0 0
vn 1 0 0
vn 0.3909181 0 0.9204255
vn 0.3909181 0 0.9204255
vn 0.3909181 0 0.9204255
vn 0.3909181 0 0.9204255
vn 0.3909181 0 0.9204255
vn -0.6099975 0.7924033 0
vn 0.6099975 0.3962017 -0.6862414
vn 0.6099975 0.7924034 0
vn -0.6099974 0.3962016 -0.6862415
vn 0.6099976 -0.3962017 -0.6862414
vn -0.6099975 -0.3962017 -0.6862414
vn 0.6099976 -0.7924033 0
vn -0.6099975 -0.7924034 0
vn 0.6099974 -0.3962016 0.6862415
vn -0.6099975 -0.3962017 0.6862413
vn 0.6099974 0.3962017 0.6862415
vn -0.6099976 0.3962016 0.6862414
vn 0.6099975 0.7924034 0
vn -0.6099975 0.7924033 0
vn 0.6099976 -0.3962017 -0.6862414
vn 0.6099976 -0.7924033 0
vn 0.6099974 -0.3962016 0.6862415
vn 0.6099975 0.3962017 -0.6862414
vn 0.6099974 0.3962017 0.6862415
vn 0.6099975 0.7924034 0
vn -0.6099975 -0.3962017 0.6862413
vn -0.6099975 -0.7924034 0
vn -0.6099975 -0.3962017 -0.6862414
vn -0.6099976 0.3962016 0.6862414
vn -0.6099974 0.3962016 -0.6862415
vn -0.6099975 0.7924033 0
g Sphere.030_0
f 3/3/3 2/2/2 1/1/1
f 4/4/4 3/3/3 1/1/1
f 5/5/5 3/3/3 4/4/4
f 7/7/7 6/6/6 5/5/5
f 8/8/8 7/7/7 5/5/5
f 11/11/11 10/10/10 9/9/9
f 12/12/12 11/11/11 9/9/9
f 15/15/15 14/14/14 13/13/13
f 16/16/16 15/15/15 13/13/13
f 19/19/19 18/18/18 17/17/17
f 20/20/20 19/19/19 17/17/17
f 21/21/21 19/19/19 20/20/20
f 24/24/24 23/23/23 22/22/22
f 25/25/25 24/24/24 22/22/22
f 28/28/28 27/27/27 26/26/26
f 29/29/29 28/28/28 26/26/26
f 30/30/30 28/28/28 29/29/29
f 33/33/33 32/32/32 31/31/31
f 34/34/34 33/33/33 31/31/31
f 35/35/35 33/33/33 34/34/34
g Sphere.030_1
f 38/38/38 37/37/37 36/36/36
f 36/36/36 37/37/37 39/39/39
f 40/40/40 36/36/36 39/39/39
f 40/40/40 42/42/42 41/41/41
f 42/42/42 43/43/43 41/41/41
f 44/44/44 41/41/41 43/43/43
f 47/47/47 46/46/46 45/45/45
f 48/48/48 47/47/47 45/45/45
f 49/49/49 47/47/47 48/48/48
f 50/50/50 49/49/49 48/48/48
f 49/49/49 50/50/50 51/51/51
f 50/50/50 52/52/52 51/51/51
f 55/55/55 54/54/54 53/53/53
f 56/56/56 55/55/55 53/53/53
f 59/59/59 58/58/58 57/57/57
f 57/57/57 60/60/60 59/59/59
f 57/57/57 61/61/61 60/60/60
g Sphere.030_2
f 64/64/64 63/63/63 62/62/62
f 63/63/63 65/65/65 62/62/62
f 63/63/63 66/66/66 65/65/65
f 66/66/66 67/67/67 65/65/65
f 66/66/66 68/68/68 67/67/67
f 68/68/68 69/69/69 67/67/67
f 68/68/68 70/70/70 69/69/69
f 70/70/70 71/71/71 69/69/69
f 70/70/70 72/72/72 71/71/71
f 72/72/72 73/73/73 71/71/71
f 72/72/72 74/74/74 73/73/73
f 74/74/74 75/75/75 73/73/73
f 78/78/78 77/77/77 76/76/76
f 76/76/76 79/79/79 78/78/78
f 79/79/79 80/80/80 78/78/78
f 79/79/79 81/81/81 80/80/80
f 84/84/84 83/83/83 82/82/82
f 82/82/82 85/85/85 84/84/84
f 85/85/85 86/86/86 84/84/84
f 85/85/85 87/87/87 86/86/86
