g Sphere.024
v 0.00291152 -0.01422944 -0.03043939
v 0.009109468 -0.02616244 -0.02088062
v 0.004412889 -0.009448745 -0.03446423
v -0.01009053 0.02833338 0.0387366
v -0.02609054 0.02807756 0.03857879
v -0.02819622 0.0348439 0.01396776
v -0.01114337 0.03574716 0.01379474
v 0.005909471 0.02647756 0.03706079
v -0.03199771 0.0348439 -0.003338189
v -0.01304412 0.03574716 -0.003099166
v -0.03801704 0.02823756 -0.02091311
v -0.01445378 0.02880502 -0.02089686
v 0.005909471 0.03285725 0.01362171
v 0.033181 0.02407756 0.03126126
v 0.0312896 0.02987728 0.01229964
v 0.005909471 0.03285725 -0.002860144
v 0.0312896 0.02987728 -0.001033763
v -0.01154586 0.03533842 -0.008484866
v 0.006146345 0.03444119 -0.005956105
v -0.01214312 0.03241687 -0.01527224
v 0.009109468 0.02631756 -0.02088062
v 0.007852874 0.03037137 -0.01696973
v 0.02747485 0.03008179 -0.006970466
v 0.02856978 0.02786984 -0.01199363
v 0.033181 0.02407756 -0.01572399
v 0.007852874 0.03037137 -0.01696973
v 0.009109468 0.02631756 -0.02088062
v 0.0312896 -0.02972216 0.01229964
v 0.005909471 -0.02632244 0.03706079
v 0.033181 -0.02392244 0.03126126
v 0.005909471 -0.03270213 0.01362171
v -0.01009053 -0.02817827 0.0387366
v 0.0312896 -0.02972216 -0.001033763
v -0.01114337 -0.03559205 0.01379474
v -0.02609054 -0.02792244 0.03857879
v -0.02819622 -0.03468878 0.01396776
v 0.005909471 -0.03270213 -0.002860144
v -0.01304412 -0.03559205 -0.003099166
v -0.01154586 -0.03518331 -0.008484866
v 0.006146345 -0.03428607 -0.005956105
v 0.02747485 -0.02992668 -0.006970466
v -0.01304412 -0.03559205 -0.003099166
v -0.01114337 -0.03559205 0.01379474
v -0.03199771 -0.03468878 -0.003338189
v -0.01445378 -0.02864991 -0.02089686
v -0.03801704 -0.02808244 -0.02091311
v -0.01214312 -0.03226175 -0.01527224
v -0.01154586 -0.03518331 -0.008484866
v 0.007852874 -0.03021626 -0.01696973
v -0.01214312 -0.03226175 -0.01527224
v 0.009109468 -0.02616244 -0.02088062
v 0.02856978 -0.02771472 -0.01199363
v 0.033181 -0.02392244 -0.01572399
v 0.03790947 0.008077558 0.04726126
v 0.005909471 0.02647756 0.03706079
v 0.033181 0.02407756 0.03126126
v 0.01750523 7.755815E-05 0.05551274
v 0.03790947 -0.007922442 0.04726126
v 0.033181 -0.02392244 0.03126126
v -0.01009053 0.02833338 0.0387366
v -0.01009053 0.009144223 0.05552118
v 0.005909471 -0.02632244 0.03706079
v -0.01009053 -0.008989108 0.05552118
v -0.01009053 -0.02817827 0.0387366
v -0.01009053 0.009144223 0.05552118
v -0.02609054 0.02807756 0.03857879
v -0.02609054 0.009410892 0.05457878
v -0.02609054 -0.02792244 0.03857879
v -0.02609054 -0.009255773 0.05457878
v -0.01009053 -0.008989108 0.05552118
v 0.03790947 -0.007922442 -0.03172399
v 0.009109468 -0.02616244 -0.02088062
v 0.033181 -0.02392244 -0.01572399
v 0.004412889 -0.009448745 -0.03446423
v 0.03790947 0.008077558 -0.03172399
v 0.004412889 0.008778846 -0.03446423
v -0.01291514 -0.00965991 -0.03508002
v -0.01291514 0.00899001 -0.03508002
v -0.03024318 -0.009871074 -0.03569581
v -0.03024318 0.009109993 -0.03569581
v 0.033181 0.02407756 -0.01572399
v 0.009109468 0.02631756 -0.02088062
v 0.004412889 0.008778846 -0.03446423
v 0.03790947 0.008077558 -0.03172399
v -0.03024318 -0.009871074 -0.03569581
v -0.03801704 -0.02808244 -0.02091311
v -0.02874185 -0.01499859 -0.03161525
v -0.01445378 -0.02864991 -0.02089686
v -0.01291516 -0.01461402 -0.03102732
v 0.009109468 -0.02616244 -0.02088062
v 0.00291152 -0.01422944 -0.03043939
v 0.004412889 0.008778846 -0.03446423
v 0.009109468 0.02631756 -0.02088062
v 0.002911525 0.01355954 -0.03043939
v -0.01445378 0.02880502 -0.02089686
v -0.01291516 0.01394412 -0.03102732
v -0.01291516 0.01394412 -0.03102732
v -0.03801704 0.02823756 -0.02091311
v -0.02874185 0.01432869 -0.03161525
v -0.03024318 0.009109993 -0.03569581
v 0.02747485 -0.02992668 -0.006970466
v 0.0312896 -0.02972216 -0.001033763
v 0.033181 -0.02392244 -0.01572399
v 0.02856978 -0.02771472 -0.01199363
v -0.01009053 -0.008989108 0.05552118
v -0.01009053 0.009144223 0.05552118
v 0.01750523 7.755815E-05 0.05551274
v 0.03790947 -0.007922442 0.04726126
v 0.03790947 0.008077558 0.04726126
v 0.033181 0.02407756 0.03126126
v 0.033181 -0.02392244 0.03126126
v 0.0312896 -0.02972216 0.01229964
v 0.033181 -0.02392244 0.03126126
v 0.033181 0.02407756 0.03126126
v 0.0312896 0.02987728 0.01229964
v 0.0312896 0.02987728 -0.001033763
v 0.0312896 -0.02972216 -0.001033763
v 0.033181 0.02407756 -0.01572399
v 0.033181 -0.02392244 -0.01572399
v 0.03790947 -0.007922442 -0.03172399
v 0.03790947 0.008077558 -0.03172399
v 0.02856978 0.02786984 -0.01199363
v 0.02747485 0.03008179 -0.006970466
v 0.006146345 0.03444119 -0.005956105
v 0.007852874 0.03037137 -0.01696973
v -0.01214312 0.03241687 -0.01527224
v 0.007852874 0.03037137 -0.01696973
v 0.006146345 0.03444119 -0.005956105
v -0.01154586 0.03533842 -0.008484866
v 0.004412889 0.008778846 -0.03446423
v 0.002911525 0.01355954 -0.03043939
v -0.01291516 0.01394412 -0.03102732
v -0.01291514 0.00899001 -0.03508002
v -0.03024318 0.009109993 -0.03569581
v -0.01291514 0.00899001 -0.03508002
v -0.01291516 0.01394412 -0.03102732
v -0.01291514 -0.00965991 -0.03508002
v -0.03024318 -0.009871074 -0.03569581
v 0.004412889 -0.009448745 -0.03446423
v -0.02609054 -0.009255773 0.05457878
v -0.01009053 0.009144223 0.05552118
v -0.01009053 -0.008989108 0.05552118
v -0.02609054 0.009410892 0.05457878
v -0.02609054 -0.02792244 0.03857879
v -0.02609054 0.02807756 0.03857879
v -0.02819622 -0.03468878 0.01396776
v -0.02609054 0.02807756 0.03857879
v -0.02609054 -0.02792244 0.03857879
v -0.02819622 0.0348439 0.01396776
v -0.03199771 0.0348439 -0.003338189
v -0.03199771 -0.03468878 -0.003338189
v -0.03801704 -0.02808244 -0.02091311
v -0.03801704 0.02823756 -0.02091311
v -0.03024318 -0.009871074 -0.03569581
v -0.03024318 0.009109993 -0.03569581
v -0.03801704 0.02823756 -0.02091311
v -0.03801704 -0.02808244 -0.02091311
v -0.01154586 -0.03518331 -0.008484866
v 0.007852874 -0.03021626 -0.01696973
v -0.01214312 -0.03226175 -0.01527224
v 0.006146345 -0.03428607 -0.005956105
v 0.02856978 -0.02771472 -0.01199363
v 0.02747485 -0.02992668 -0.006970466
v -0.03467985 0.00657751 0.005700778
v 0.03711363 0.00332752 7.16269E-05
v 0.03711363 0.00657752 0.005700792
v -0.03467985 0.00332751 7.161259E-05
v 0.03711363 -0.003172481 7.16269E-05
v -0.03467985 -0.00317249 7.161259E-05
v 0.03711363 -0.006422481 0.005700792
v -0.03467985 -0.00642249 0.005700778
v 0.03711363 -0.003172481 0.01132996
v -0.03467985 -0.00317249 0.01132994
v 0.03711363 0.00332752 0.01132996
v -0.03467985 0.00332751 0.01132994
v 0.03711363 0.00657752 0.005700792
v -0.03467985 0.00657751 0.005700778
v 0.03711363 -0.003172481 7.16269E-05
v 0.03711363 -0.006422481 0.005700792
v 0.03711363 -0.003172481 0.01132996
v 0.03711363 0.00332752 7.16269E-05
v 0.03711363 0.00332752 0.01132996
v 0.03711363 0.00657752 0.005700792
v -0.03467985 -0.00317249 0.01132994
v -0.03467985 -0.00642249 0.005700778
v -0.03467985 -0.00317249 7.161259E-05
v -0.03467985 0.00332751 0.01132994
v -0.03467985 0.00332751 7.161259E-05
v -0.03467985 0.00657751 0.005700778
vt 0.125 0.7395521
vt 0.125 0.75
vt 0.125 0.6666666
vt 0.625 0.25
vt 0.625 0.25
vt 0.5487744 0.25
vt 0.5487745 0.25
vt 0.625 0.25
vt 0.4512256 0.25
vt 0.4512256 0.25
vt 0.375 0.25
vt 0.375 0.25
vt 0.5487744 0.25
vt 0.625 0.25
vt 0.5487744 0.25
vt 0.4512256 0.25
vt 0.4512256 0.25
vt 0.4344099 0.25
vt 0.4343404 0.25
vt 0.3918144 0.25
vt 0.375 0.25
vt 0.3918777 0.25
vt 0.4318533 0.25
vt 0.3943414 0.25
vt 0.375 0.25
vt 0.3918777 0.25
vt 0.375 0.25
vt 0.5487744 1
vt 0.625 1
vt 0.625 1
vt 0.5487744 1
vt 0.625 1
vt 0.4512256 1
vt 0.5487744 1
vt 0.625 1
vt 0.5487744 1
vt 0.4512256 1
vt 0.4512256 0.9999999
vt 0.4344099 0.9999999
vt 0.4343404 1
vt 0.4318534 1
vt 0.4512256 0.9999999
vt 0.5487744 1
vt 0.4512256 1
vt 0.375 1
vt 0.375 1
vt 0.3918144 0.9999999
vt 0.4344099 0.9999999
vt 0.3918777 0.9999999
vt 0.3918144 0.9999999
vt 0.375 1
vt 0.3943414 1
vt 0.375 1
vt 0.8750001 0.5833334
vt 0.875 0.5
vt 0.875 0.5
vt 0.875 0.6249999
vt 0.875 0.6666666
vt 0.875 0.75
vt 0.875 0.5
vt 0.8749999 0.5833332
vt 0.875 0.75
vt 0.8749999 0.6666665
vt 0.875 0.75
vt 0.8749999 0.5833332
vt 0.875 0.5
vt 0.875 0.5833333
vt 0.875 0.75
vt 0.8749999 0.6666666
vt 0.8749999 0.6666665
vt 0.125 0.6666666
vt 0.125 0.75
vt 0.125 0.75
vt 0.125 0.6666666
vt 0.125 0.5833333
vt 0.125 0.5833333
vt 0.125 0.6666666
vt 0.125 0.5833333
vt 0.125 0.6666666
vt 0.125 0.5833333
vt 0.125 0.5
vt 0.125 0.5
vt 0.125 0.5833333
vt 0.125 0.5833333
vt 0.125 0.6768985
vt 0.125 0.75
vt 0.125 0.7397685
vt 0.125 0.75
vt 0.125 0.7396603
vt 0.125 0.75
vt 0.125 0.7395521
vt 0.125 0.5728849
vt 0.125 0.5
vt 0.125 0.5104479
vt 0.125 0.5
vt 0.125 0.5103397
vt 0.125 0.5103397
vt 0.125 0.5
vt 0.125 0.5102316
vt 0.125 0.5833333
vt 0.4318534 1
vt 0.4512256 1
vt 0.375 1
vt 0.3943414 1
vt 0.8749999 0.6666665
vt 0.8749999 0.5833332
vt 0.875 0.6249999
vt 0.875 0.6666666
vt 0.8750001 0.5833334
vt 0.875 0.5
vt 0.875 0.75
vt 0.5487744 1
vt 0.875 0.75
vt 0.625 0.25
vt 0.5487744 0.25
vt 0.4512256 0.25
vt 0.4512256 1
vt 0.375 0.25
vt 0.375 1
vt 0.125 0.6666666
vt 0.125 0.5833333
vt 0.3943414 0.25
vt 0.4318533 0.25
vt 0.4343404 0.25
vt 0.3918777 0.25
vt 0.3918144 0.25
vt 0.3918777 0.25
vt 0.4343404 0.25
vt 0.4344099 0.25
vt 0.125 0.5833333
vt 0.125 0.5104479
vt 0.125 0.5103397
vt 0.125 0.5833333
vt 0.125 0.5833333
vt 0.125 0.5833333
vt 0.125 0.5103397
vt 0.125 0.6666666
vt 0.125 0.6666666
vt 0.125 0.6666666
vt 0.8749999 0.6666666
vt 0.8749999 0.5833332
vt 0.8749999 0.6666665
vt 0.875 0.5833333
vt 0.875 0.75
vt 0.875 0.5
vt 0.5487744 1
vt 0.625 0.25
vt 0.875 0.75
vt 0.5487744 0.25
vt 0.4512256 0.25
vt 0.4512256 1
vt 0.375 1
vt 0.375 0.25
vt 0.125 0.6666666
vt 0.125 0.5833333
vt 0.125 0.5
vt 0.375 1
vt 0.4344099 0.9999999
vt 0.3918777 0.9999999
vt 0.3918144 0.9999999
vt 0.4343404 1
vt 0.3943414 1
vt 0.4318534 1
vt 1 0.5
vt 0.8333333 1
vt 1 1
vt 0.8333333 0.5
vt 0.6666666 1
vt 0.6666666 0.5
vt 0.4999999 1
vt 0.4999999 0.5
vt 0.3333333 1
vt 0.3333333 0.5
vt 0.1666666 1
vt 0.1666666 0.5
vt -8.940697E-08 1
vt -8.940697E-08 0.5
vt 0.4578461 0.13
vt 0.25 0.01000001
vt 0.04215391 0.13
vt 0.4578461 0.37
vt 0.04215391 0.37
vt 0.25 0.49
vt 0.5421539 0.13
vt 0.75 0.01000001
vt 0.9578461 0.13
vt 0.5421539 0.37
vt 0.9578461 0.37
vt 0.75 0.49
vn 0.003170676 -0.6200778 -0.7845339
vn 0.1247301 -0.7038426 -0.6993197
vn 0.07754515 -0.2558221 -0.9636087
vn 0.07345939 0.8377005 0.5411668
vn -0.03102971 0.8460735 0.5321625
vn -0.04289674 0.9901753 0.1330891
vn 0.05944451 0.9888571 0.136485
vn 0.163407 0.8265818 0.538573
vn -0.03909352 0.9776397 -0.2066216
vn -0.009805422 0.997525 -0.06962437
vn -0.01046485 0.7950565 -0.6064452
vn -0.0139203 0.7562222 -0.6541668
vn 0.1417471 0.9806444 0.135071
vn 0.1432564 0.8370145 0.5280951
vn 0.1264215 0.9825509 0.1364231
vn 0.1300348 0.9889575 0.07109221
vn 0.2144848 0.9763424 -0.02741957
vn -0.3723463 0.9225574 -0.1012224
vn 0.1202267 0.9821612 0.1445855
vn -0.3840449 0.8185189 -0.4272429
vn 0.1206576 0.6971012 -0.7067472
vn 0.1262829 0.7711264 -0.6240326
vn 0.3287037 0.941108 -0.07918102
vn 0.3618915 0.8223827 -0.4390002
vn 0.2359439 0.7449816 -0.6239656
vn 0.1262829 0.7711264 -0.6240326
vn 0.1206576 0.6971012 -0.7067472
vn 0.1264215 -0.9825509 0.136423
vn 0.1634069 -0.8265818 0.538573
vn 0.1432562 -0.8370145 0.5280951
vn 0.1417471 -0.9806444 0.135071
vn 0.07345939 -0.8377005 0.5411669
vn 0.2144848 -0.9763424 -0.0274195
vn 0.05944449 -0.9888571 0.136485
vn -0.03102972 -0.8460734 0.5321625
vn -0.04289675 -0.9901753 0.1330891
vn 0.1300348 -0.9889575 0.07109237
vn -0.009805427 -0.997525 -0.06962427
vn -0.3723464 -0.9225575 -0.1012221
vn 0.1202268 -0.9821612 0.1445858
vn 0.3287037 -0.941108 -0.0791809
vn -0.009805427 -0.997525 -0.06962427
vn 0.05944449 -0.9888571 0.136485
vn -0.03909351 -0.9776396 -0.2066216
vn -0.01364627 -0.7652519 -0.6435863
vn -0.01272673 -0.8037294 -0.5948589
vn -0.3840449 -0.8185189 -0.4272428
vn -0.3723464 -0.9225575 -0.1012221
vn 0.1262829 -0.7711265 -0.6240325
vn -0.3840449 -0.8185189 -0.4272428
vn 0.1247301 -0.7038426 -0.6993197
vn 0.3618915 -0.8223829 -0.439
vn 0.2401259 -0.7482761 -0.6184031
vn 0.249388 0.4249329 0.8701941
vn 0.163407 0.8265818 0.538573
vn 0.1432564 0.8370145 0.5280951
vn 0.2366255 0 0.9716009
vn 0.2493878 -0.4249329 0.8701941
vn 0.1432562 -0.8370145 0.5280951
vn 0.07345939 0.8377005 0.5411668
vn 0.09033806 0.644889 0.7589185
vn 0.1634069 -0.8265818 0.538573
vn 0.09033805 -0.6448889 0.7589185
vn 0.07345939 -0.8377005 0.5411669
vn 0.09033806 0.644889 0.7589185
vn -0.03102971 0.8460735 0.5321625
vn -0.02575913 0.654442 0.7556733
vn -0.03102972 -0.8460734 0.5321625
vn -0.02575913 -0.6544419 0.7556733
vn 0.09033805 -0.6448889 0.7589185
vn 0.1182855 -0.3287808 -0.9369695
vn 0.1247301 -0.7038426 -0.6993197
vn 0.2401259 -0.7482761 -0.6184031
vn 0.07754515 -0.2558221 -0.9636087
vn 0.1141188 0.3287216 -0.9375067
vn 0.06984065 0.2490763 -0.9659623
vn 0.03551492 0 -0.9993692
vn 0.03551492 0 -0.9993692
vn 0.03551476 0 -0.9993692
vn 0.03551476 0 -0.9993692
vn 0.2359439 0.7449816 -0.6239656
vn 0.1206576 0.6971012 -0.7067472
vn 0.06984065 0.2490763 -0.9659623
vn 0.1141188 0.3287216 -0.9375067
vn -0.0172447 -0.6256912 -0.7798802
vn -0.01272673 -0.8037294 -0.5948589
vn -0.005001919 -0.6192173 -0.7852037
vn -0.01364627 -0.7652519 -0.6435863
vn 0.03383628 -0.6039492 -0.7963043
vn 0.1247301 -0.7038426 -0.6993197
vn 0.003170676 -0.6200778 -0.7845339
vn 0.06984065 0.2490763 -0.9659623
vn 0.1206576 0.6971012 -0.7067472
vn -0.02730836 0.6043901 -0.7962204
vn -0.0139203 0.7562222 -0.6541668
vn 0.03321841 0.5809464 -0.8132637
vn 0.03321841 0.5809464 -0.8132637
vn -0.01046485 0.7950565 -0.6064452
vn 0.01001261 0.6026138 -0.7979702
vn 0.01030614 0.6140938 -0.7891658
vn 0.3287037 -0.941108 -0.0791809
vn 0.2144848 -0.9763424 -0.0274195
vn 0.2401259 -0.7482761 -0.6184031
vn 0.3618915 -0.8223829 -0.439
vn -0.03273592 0 0.9994641
vn -0.03273593 0 0.9994641
vn 0.0003056923 0 1
vn 0.9589981 0 -0.2834123
vn 0.9589981 0 -0.2834123
vn 0.9878522 0 -0.1553959
vn 0.9878522 0 -0.1553959
vn 0.9990081 0 -0.04453027
vn 0.9878522 0 -0.1553959
vn 0.9878522 0 -0.1553959
vn 0.9990081 0 -0.04453027
vn 0.9984669 0 0.05535157
vn 0.9984669 0 0.05535157
vn 0.9847798 0 0.1738071
vn 0.9847798 0 0.1738071
vn 0.9589983 0 0.2834122
vn 0.9589983 0 0.2834122
vn 0.1822642 0.9259146 -0.33085
vn 0.1822642 0.9259146 -0.33085
vn 0.126615 0.9291512 -0.3473421
vn 0.1355448 0.9288446 -0.3447831
vn 0.08051416 0.9294602 -0.3600295
vn 0.1355448 0.9288446 -0.3447831
vn 0.126615 0.9291512 -0.3473421
vn 0.08051416 0.9294602 -0.3600295
vn 0.03933948 0.6416516 -0.7659867
vn 0.03933948 0.6416516 -0.7659867
vn 0.03861554 0.6312146 -0.7746464
vn 0.03860636 0.6310822 -0.7747546
vn 0.03788006 0.6205976 -0.7832138
vn 0.03860636 0.6310822 -0.7747546
vn 0.03861554 0.6312146 -0.7746464
vn 0.03944755 -0.6327056 -0.773387
vn 0.03954861 -0.6238238 -0.7805638
vn 0.03933954 -0.6416516 -0.7659867
vn -0.851949 0 0.5236248
vn -0.03273593 0 0.9994641
vn -0.03273592 0 0.9994641
vn -0.851949 0 0.5236248
vn -0.9981027 0 0.06157201
vn -0.9981027 0 0.06157201
vn -0.9877185 0 0.156244
vn -0.9981027 0 0.06157201
vn -0.9981027 0 0.06157201
vn -0.9877185 0 0.156244
vn -0.9647898 0 0.2630222
vn -0.9647898 0 0.2630222
vn -0.9938754 0 0.1105061
vn -0.9932464 0 0.1160238
vn -0.8850785 0 -0.4654417
vn -0.8850785 0 -0.4654417
vn -0.9932464 0 0.1160238
vn -0.9938754 0 0.1105061
vn 0.08051413 -0.9294601 -0.3600297
vn 0.1355448 -0.9288445 -0.3447832
vn 0.08051413 -0.9294601 -0.3600297
vn 0.126615 -0.9291512 -0.3473423
vn 0.1822642 -0.9259146 -0.3308502
vn 0.1822642 -0.9259146 -0.3308502
vn -0.6099975 0.7924034 -1.215189E-07
vn 0.6099976 0.3962017 -0.6862414
vn 0.6099975 0.7924034 1.291797E-07
vn -0.6099974 0.3962016 -0.6862415
vn 0.6099977 -0.3962016 -0.6862412
vn -0.6099973 -0.3962017 -0.6862416
vn 0.6099975 -0.7924033 1.215189E-07
vn -0.6099975 -0.7924033 -1.291797E-07
vn 0.6099974 -0.3962016 0.6862415
vn -0.6099975 -0.3962017 0.6862413
vn 0.6099973 0.3962018 0.6862416
vn -0.6099976 0.3962016 0.6862413
vn 0.6099975 0.7924034 1.291797E-07
vn -0.6099975 0.7924034 -1.215189E-07
vn 0.6099977 -0.3962016 -0.6862412
vn 0.6099975 -0.7924033 1.215189E-07
vn 0.6099974 -0.3962016 0.6862415
vn 0.6099976 0.3962017 -0.6862414
vn 0.6099973 0.3962018 0.6862416
vn 0.6099975 0.7924034 1.291797E-07
vn -0.6099975 -0.3962017 0.6862413
vn -0.6099975 -0.7924033 -1.291797E-07
vn -0.6099973 -0.3962017 -0.6862416
vn -0.6099976 0.3962016 0.6862413
vn -0.6099974 0.3962016 -0.6862415
vn -0.6099975 0.7924034 -1.215189E-07
g Sphere.024_0
f 3/3/3 2/2/2 1/1/1
f 6/6/6 5/5/5 4/4/4
f 7/7/7 6/6/6 4/4/4
f 7/7/7 4/4/4 8/8/8
f 9/9/9 6/6/6 7/7/7
f 10/10/10 9/9/9 7/7/7
f 11/11/11 9/9/9 10/10/10
f 12/12/12 11/11/11 10/10/10
f 13/13/13 7/7/7 8/8/8
f 10/10/10 7/7/7 13/13/13
f 13/13/13 8/8/8 14/14/14
f 15/15/15 13/13/13 14/14/14
f 16/16/16 13/13/13 15/15/15
f 16/16/16 10/10/10 13/13/13
f 17/17/17 16/16/16 15/15/15
f 12/12/12 10/10/10 18/18/18
f 18/18/18 10/10/10 19/19/19
f 10/10/10 16/16/16 19/19/19
f 20/20/20 12/12/12 18/18/18
f 21/21/21 12/12/12 20/20/20
f 22/22/22 21/21/21 20/20/20
f 19/19/19 16/16/16 23/23/23
f 16/16/16 17/17/17 23/23/23
f 23/23/23 17/17/17 24/24/24
f 17/17/17 25/25/25 24/24/24
f 24/24/24 25/25/25 26/26/26
f 25/25/25 27/27/27 26/26/26
f 30/30/30 29/29/29 28/28/28
f 29/29/29 31/31/31 28/28/28
f 29/29/29 32/32/32 31/31/31
f 28/28/28 31/31/31 33/33/33
f 32/32/32 34/34/34 31/31/31
f 32/32/32 35/35/35 34/34/34
f 35/35/35 36/36/36 34/34/34
f 31/31/31 34/34/34 37/37/37
f 31/31/31 37/37/37 33/33/33
f 34/34/34 38/38/38 37/37/37
f 37/37/37 38/38/38 39/39/39
f 40/40/40 37/37/37 39/39/39
f 33/33/33 37/37/37 40/40/40
f 41/41/41 33/33/33 40/40/40
f 43/43/43 36/36/36 42/42/42
f 36/36/36 44/44/44 42/42/42
f 42/42/42 44/44/44 45/45/45
f 44/44/44 46/46/46 45/45/45
f 42/42/42 45/45/45 47/47/47
f 48/48/48 42/42/42 47/47/47
f 50/50/50 45/45/45 49/49/49
f 45/45/45 51/51/51 49/49/49
f 49/49/49 51/51/51 52/52/52
f 51/51/51 53/53/53 52/52/52
f 56/56/56 55/55/55 54/54/54
f 55/55/55 57/57/57 54/54/54
f 54/54/54 57/57/57 58/58/58
f 58/58/58 57/57/57 59/59/59
f 55/55/55 60/60/60 57/57/57
f 60/60/60 61/61/61 57/57/57
f 57/57/57 62/62/62 59/59/59
f 57/57/57 63/63/63 62/62/62
f 63/63/63 64/64/64 62/62/62
f 60/60/60 66/66/66 65/65/65
f 66/66/66 67/67/67 65/65/65
f 69/69/69 68/68/68 64/64/64
f 70/70/70 69/69/69 64/64/64
f 73/73/73 72/72/72 71/71/71
f 72/72/72 74/74/74 71/71/71
f 71/71/71 74/74/74 75/75/75
f 74/74/74 76/76/76 75/75/75
f 74/74/74 77/77/77 76/76/76
f 77/77/77 78/78/78 76/76/76
f 77/77/77 79/79/79 78/78/78
f 79/79/79 80/80/80 78/78/78
f 83/83/83 82/82/82 81/81/81
f 84/84/84 83/83/83 81/81/81
f 87/87/87 86/86/86 85/85/85
f 88/88/88 86/86/86 87/87/87
f 89/89/89 88/88/88 87/87/87
f 90/90/90 88/88/88 89/89/89
f 91/91/91 90/90/90 89/89/89
f 94/94/94 93/93/93 92/92/92
f 95/95/95 93/93/93 94/94/94
f 96/96/96 95/95/95 94/94/94
f 98/98/98 95/95/95 97/97/97
f 99/99/99 98/98/98 97/97/97
f 100/100/100 98/98/98 99/99/99
f 103/103/103 102/102/102 101/101/101
f 104/104/104 103/103/103 101/101/101
g Sphere.024_1
f 107/107/107 106/106/106 105/105/105
f 110/110/110 109/109/109 108/108/108
f 111/111/111 110/110/110 108/108/108
f 114/114/114 113/113/113 112/112/112
f 115/115/115 114/114/114 112/112/112
f 116/116/116 115/115/115 112/112/112
f 117/117/117 116/116/116 112/112/112
f 118/118/118 116/116/116 117/117/117
f 119/119/119 118/118/118 117/117/117
f 119/119/119 120/120/120 118/118/118
f 120/120/120 121/121/121 118/118/118
f 124/124/124 123/123/123 122/122/122
f 125/125/125 124/124/124 122/122/122
f 128/128/128 127/127/127 126/126/126
f 129/129/129 128/128/128 126/126/126
f 132/132/132 131/131/131 130/130/130
f 133/133/133 132/132/132 130/130/130
f 135/135/135 134/134/134 99/99/99
f 136/136/136 135/135/135 99/99/99
f 138/138/138 137/137/137 87/87/87
f 137/137/137 89/89/89 87/87/87
f 137/137/137 139/139/139 89/89/89
f 139/139/139 91/91/91 89/89/89
f 142/142/142 141/141/141 140/140/140
f 141/141/141 143/143/143 140/140/140
f 144/144/144 140/140/140 143/143/143
f 145/145/145 144/144/144 143/143/143
f 148/148/148 147/147/147 146/146/146
f 147/147/147 149/149/149 146/146/146
f 146/146/146 149/149/149 150/150/150
f 151/151/151 146/146/146 150/150/150
f 151/151/151 150/150/150 152/152/152
f 150/150/150 153/153/153 152/152/152
f 156/156/156 155/155/155 154/154/154
f 157/157/157 156/156/156 154/154/154
f 160/160/160 159/159/159 158/158/158
f 159/159/159 161/161/161 158/158/158
f 159/159/159 162/162/162 161/161/161
f 162/162/162 163/163/163 161/161/161
g Sphere.024_2
f 166/166/166 165/165/165 164/164/164
f 165/165/165 167/167/167 164/164/164
f 165/165/165 168/168/168 167/167/167
f 168/168/168 169/169/169 167/167/167
f 168/168/168 170/170/170 169/169/169
f 170/170/170 171/171/171 169/169/169
f 170/170/170 172/172/172 171/171/171
f 172/172/172 173/173/173 171/171/171
f 172/172/172 174/174/174 173/173/173
f 174/174/174 175/175/175 173/173/173
f 174/174/174 176/176/176 175/175/175
f 176/176/176 177/177/177 175/175/175
f 180/180/180 179/179/179 178/178/178
f 178/178/178 181/181/181 180/180/180
f 181/181/181 182/182/182 180/180/180
f 181/181/181 183/183/183 182/182/182
f 186/186/186 185/185/185 184/184/184
f 184/184/184 187/187/187 186/186/186
f 187/187/187 188/188/188 186/186/186
f 187/187/187 189/189/189 188/188/188
