g Sphere.026
v 0.0199222 0.03466298 -0.01021406
v -0.02217062 0.02229664 -0.02304409
v 0.01390286 0.02805664 -0.02778898
v -0.02217062 0.02770972 -0.00806285
v 0.02372369 0.03466298 0.007091891
v -0.02217062 0.02770972 0.005534681
v 0.02582937 0.02789664 0.03170292
v -0.02217062 0.02229664 0.02487192
v 0.01390286 -0.02826335 -0.02778898
v -0.02217062 -0.02250336 -0.02304409
v -0.02217062 -0.02791643 -0.00806285
v 0.0199222 -0.03486969 -0.01021406
v -0.02217062 -0.02791643 0.005534681
v 0.02372369 -0.03486969 0.007091891
v -0.02217062 -0.02250336 0.02487192
v 0.02582937 -0.02810336 0.03170292
v 0.02582937 0.009229977 0.04770292
v -0.02217062 0.00736331 0.04087192
v -0.02217062 0.02229664 0.02487192
v 0.02582937 0.02789664 0.03170292
v 0.02167673 -0.01005199 -0.04257168
v -0.02217062 -0.02250336 -0.02304409
v 0.01390286 -0.02826335 -0.02778898
v -0.02217062 -0.007570025 -0.03904409
v 0.02167673 0.01356613 -0.04257168
v -0.02217062 0.007363309 -0.03904409
v 0.01390286 0.02805664 -0.02778898
v -0.02217062 0.02229664 -0.02304409
v 0.02582937 -0.02810336 0.03170292
v -0.02217062 -0.02250336 0.02487192
v -0.02217062 -0.007570023 0.04087192
v 0.02582937 -0.009436689 0.04770292
v -0.02217062 -0.007570023 0.04087192
v 0.02582937 0.009229977 0.04770292
v 0.02582937 -0.009436689 0.04770292
v -0.02217062 0.00736331 0.04087192
v -0.02217062 -0.02250336 0.02487192
v -0.02217062 0.02229664 0.02487192
v 0.02582937 0.009229977 0.04770292
v 0.02582937 0.02789664 0.03170292
v 0.02582937 -0.02810336 0.03170292
v 0.02582937 -0.009436689 0.04770292
v 0.02372369 -0.03486969 0.007091891
v 0.02582937 -0.02810336 0.03170292
v 0.02582937 0.02789664 0.03170292
v 0.02372369 0.03466298 0.007091891
v 0.0199222 0.03466298 -0.01021406
v 0.0199222 -0.03486969 -0.01021406
v 0.01390286 -0.02826335 -0.02778898
v 0.01390286 0.02805664 -0.02778898
v 0.02167673 -0.01005199 -0.04257168
v 0.01390286 -0.02826335 -0.02778898
v 0.01390286 0.02805664 -0.02778898
v 0.02167673 0.01356613 -0.04257168
v -0.02217062 -0.007570025 -0.03904409
v -0.02217062 0.007363309 -0.03904409
v -0.02217062 0.02229664 -0.02304409
v -0.02217062 -0.02250336 -0.02304409
v -0.02217062 -0.02250336 -0.02304409
v -0.02217062 0.02229664 -0.02304409
v -0.02217062 0.02770972 -0.00806285
v -0.02217062 -0.02791643 -0.00806285
v -0.02217062 -0.02791643 0.005534681
v -0.02217062 0.02770972 0.005534681
v -0.02217062 0.02229664 0.02487192
v -0.02217062 -0.02250336 0.02487192
v -0.0256748 0.006396639 -0.001175089
v 0.02638811 0.003146647 -0.006804244
v 0.02638811 0.006396646 -0.001175079
v -0.0256748 0.003146639 -0.006804254
v 0.02638812 -0.003353354 -0.006804244
v -0.0256748 -0.003353361 -0.006804254
v 0.02638811 -0.006603354 -0.001175079
v -0.0256748 -0.006603361 -0.001175089
v 0.02638811 -0.003353354 0.004454087
v -0.0256748 -0.003353361 0.004454076
v 0.02638811 0.003146647 0.004454087
v -0.02567481 0.003146639 0.004454076
v 0.02638811 0.006396646 -0.001175079
v -0.0256748 0.006396639 -0.001175089
v 0.02638812 -0.003353354 -0.006804244
v 0.02638811 -0.006603354 -0.001175079
v 0.02638811 -0.003353354 0.004454087
v 0.02638811 0.003146647 -0.006804244
v 0.02638811 0.003146647 0.004454087
v 0.02638811 0.006396646 -0.001175079
v -0.0256748 -0.003353361 0.004454076
v -0.0256748 -0.006603361 -0.001175089
v -0.0256748 -0.003353361 -0.006804254
v -0.02567481 0.003146639 0.004454076
v -0.0256748 0.003146639 -0.006804254
v -0.0256748 0.006396639 -0.001175089
vt 0.4512256 0.25
vt 0.375 0.25
vt 0.375 0.25
vt 0.4512256 0.25
vt 0.5487744 0.25
vt 0.5487744 0.25
vt 0.625 0.25
vt 0.625 0.25
vt 0.375 1
vt 0.375 1
vt 0.4512256 1
vt 0.4512256 1
vt 0.5487744 1
vt 0.5487744 1
vt 0.625 1
vt 0.625 1
vt 0.875 0.5833333
vt 0.875 0.5833333
vt 0.875 0.5
vt 0.875 0.5
vt 0.125 0.6666666
vt 0.125 0.75
vt 0.125 0.75
vt 0.125 0.6666666
vt 0.125 0.5833333
vt 0.125 0.5833333
vt 0.125 0.5
vt 0.125 0.5
vt 0.875 0.75
vt 0.875 0.75
vt 0.875 0.6666666
vt 0.8749999 0.6666666
vt 0.875 0.6666666
vt 0.875 0.5833333
vt 0.8749999 0.6666666
vt 0.875 0.5833333
vt 0.875 0.75
vt 0.875 0.5
vt 0.875 0.5833333
vt 0.875 0.5
vt 0.875 0.75
vt 0.8749999 0.6666666
vt 0.5487744 1
vt 0.875 0.75
vt 0.625 0.25
vt 0.5487744 0.25
vt 0.4512256 0.25
vt 0.4512256 1
vt 0.375 1
vt 0.375 0.25
vt 0.125 0.6666666
vt 0.375 1
vt 0.125 0.5
vt 0.125 0.5833333
vt 0.125 0.6666666
vt 0.125 0.5833333
vt 0.125 0.5
vt 0.125 0.75
vt 0.125 0.75
vt 0.125 0.5
vt 0.4512256 0.25
vt 0.4512256 1
vt 0.5487744 1
vt 0.5487744 0.25
vt 0.625 0.25
vt 0.875 0.75
vt 1 0.5
vt 0.8333333 1
vt 1 1
vt 0.8333333 0.5
vt 0.6666666 1
vt 0.6666666 0.5
vt 0.4999999 1
vt 0.4999999 0.5
vt 0.3333333 1
vt 0.3333333 0.5
vt 0.1666666 1
vt 0.1666666 0.5
vt -8.940697E-08 1
vt -8.940697E-08 0.5
vt 0.4578461 0.13
vt 0.25 0.01000001
vt 0.04215391 0.13
vt 0.4578461 0.37
vt 0.04215391 0.37
vt 0.25 0.49
vt 0.5421539 0.13
vt 0.75 0.01000001
vt 0.9578461 0.13
vt 0.5421539 0.37
vt 0.9578461 0.37
vt 0.75 0.49
vn -0.168066 0.9782828 -0.1213111
vn -0.1825367 0.835788 -0.5178211
vn -0.1824612 0.8303978 -0.526448
vn -0.1698639 0.9745944 -0.1459866
vn -0.154611 0.9749594 0.1598422
vn -0.1548994 0.9772132 0.1451225
vn -0.1585893 0.8359907 0.5253276
vn -0.1584146 0.8505664 0.5014396
vn -0.1672316 -0.8203089 -0.5469251
vn -0.1677123 -0.8241411 -0.5409844
vn -0.1698639 -0.9745944 -0.1459866
vn -0.168066 -0.9782828 -0.1213111
vn -0.1548994 -0.9772132 0.1451225
vn -0.154611 -0.9749594 0.1598422
vn -0.1584147 -0.8505664 0.5014396
vn -0.1585893 -0.8359907 0.5253276
vn -0.1548048 0.6813415 0.7154085
vn -0.1548048 0.6813415 0.7154085
vn -0.1584146 0.8505664 0.5014396
vn -0.1585893 0.8359907 0.5253276
vn -0.1165602 -0.3157132 -0.9416682
vn -0.1677123 -0.8241411 -0.5409844
vn -0.1672316 -0.8203089 -0.5469251
vn -0.1195903 -0.3460801 -0.9305518
vn -0.1348997 0.3478945 -0.9277776
vn -0.1354294 0.351646 -0.9262851
vn -0.1824612 0.8303978 -0.526448
vn -0.1825367 0.835788 -0.5178211
vn -0.1585893 -0.8359907 0.5253276
vn -0.1584147 -0.8505664 0.5014396
vn -0.1548048 -0.6813415 0.7154085
vn -0.1548048 -0.6813415 0.7154085
vn -0.8479336 0 0.5301024
vn 0.8252813 0 0.5647219
vn 0.8252813 0 0.5647219
vn -0.8479336 0 0.5301024
vn -1 0 0
vn -1 0 0
vn 0.8252813 0 0.5647219
vn 0.9981027 0 -0.06157202
vn 0.9981027 0 -0.06157202
vn 0.8252813 0 0.5647219
vn 0.9877185 0 -0.156244
vn 0.9981027 0 -0.06157202
vn 0.9981027 0 -0.06157202
vn 0.9877185 0 -0.156244
vn 0.9647898 0 -0.2630222
vn 0.9647898 0 -0.2630222
vn 0.9938754 0 -0.1105062
vn 0.9963093 0 -0.08583529
vn 0.8850785 0 0.4654417
vn 0.9938754 0 -0.1105062
vn 0.9963093 0 -0.08583529
vn 0.8850785 0 0.4654417
vn -1 0 0
vn -1 0 0
vn -1 0 0
vn -1 0 0
vn -1 0 0
vn -1 0 0
vn -1 0 0
vn -1 0 0
vn -1 0 0
vn -1 0 0
vn -1 0 0
vn -1 0 0
vn -0.6099975 0.7924033 -1.041591E-07
vn 0.6099975 0.3962017 -0.6862414
vn 0.6099975 0.7924034 3.104389E-07
vn -0.6099975 0.3962014 -0.6862417
vn 0.6099981 -0.3962015 -0.686241
vn -0.6099973 -0.3962018 -0.6862416
vn 0.6099974 -0.7924034 0
vn -0.6099974 -0.7924035 -3.277987E-07
vn 0.6099975 -0.3962015 0.6862416
vn -0.6099975 -0.3962018 0.6862413
vn 0.6099974 0.3962017 0.6862415
vn -0.6099982 0.3962014 0.686241
vn 0.6099975 0.7924034 3.104389E-07
vn -0.6099975 0.7924033 -1.041591E-07
vn 0.6099981 -0.3962015 -0.686241
vn 0.6099974 -0.7924034 0
vn 0.6099975 -0.3962015 0.6862416
vn 0.6099975 0.3962017 -0.6862414
vn 0.6099974 0.3962017 0.6862415
vn 0.6099975 0.7924034 3.104389E-07
vn -0.6099975 -0.3962018 0.6862413
vn -0.6099974 -0.7924035 -3.277987E-07
vn -0.6099973 -0.3962018 -0.6862416
vn -0.6099982 0.3962014 0.686241
vn -0.6099975 0.3962014 -0.6862417
vn -0.6099975 0.7924033 -1.041591E-07
g Sphere.026_0
f 3/3/3 2/2/2 1/1/1
f 2/2/2 4/4/4 1/1/1
f 1/1/1 4/4/4 5/5/5
f 4/4/4 6/6/6 5/5/5
f 5/5/5 6/6/6 7/7/7
f 6/6/6 8/8/8 7/7/7
f 11/11/11 10/10/10 9/9/9
f 12/12/12 11/11/11 9/9/9
f 13/13/13 11/11/11 12/12/12
f 14/14/14 13/13/13 12/12/12
f 15/15/15 13/13/13 14/14/14
f 16/16/16 15/15/15 14/14/14
f 19/19/19 18/18/18 17/17/17
f 20/20/20 19/19/19 17/17/17
f 23/23/23 22/22/22 21/21/21
f 22/22/22 24/24/24 21/21/21
f 21/21/21 24/24/24 25/25/25
f 24/24/24 26/26/26 25/25/25
f 25/25/25 26/26/26 27/27/27
f 26/26/26 28/28/28 27/27/27
f 31/31/31 30/30/30 29/29/29
f 32/32/32 31/31/31 29/29/29
g Sphere.026_1
f 35/35/35 34/34/34 33/33/33
f 34/34/34 36/36/36 33/33/33
f 37/37/37 33/33/33 36/36/36
f 38/38/38 37/37/37 36/36/36
f 41/41/41 40/40/40 39/39/39
f 42/42/42 41/41/41 39/39/39
f 45/45/45 44/44/44 43/43/43
f 46/46/46 45/45/45 43/43/43
f 46/46/46 43/43/43 47/47/47
f 43/43/43 48/48/48 47/47/47
f 47/47/47 48/48/48 49/49/49
f 50/50/50 47/47/47 49/49/49
f 53/53/53 52/52/52 51/51/51
f 54/54/54 53/53/53 51/51/51
f 57/57/57 56/56/56 55/55/55
f 58/58/58 57/57/57 55/55/55
f 61/61/61 60/60/60 59/59/59
f 62/62/62 61/61/61 59/59/59
f 62/62/62 63/63/63 61/61/61
f 63/63/63 64/64/64 61/61/61
f 65/65/65 64/64/64 63/63/63
f 66/66/66 65/65/65 63/63/63
g Sphere.026_2
f 69/69/69 68/68/68 67/67/67
f 68/68/68 70/70/70 67/67/67
f 68/68/68 71/71/71 70/70/70
f 71/71/71 72/72/72 70/70/70
f 71/71/71 73/73/73 72/72/72
f 73/73/73 74/74/74 72/72/72
f 73/73/73 75/75/75 74/74/74
f 75/75/75 76/76/76 74/74/74
f 75/75/75 77/77/77 76/76/76
f 77/77/77 78/78/78 76/76/76
f 77/77/77 79/79/79 78/78/78
f 79/79/79 80/80/80 78/78/78
f 83/83/83 82/82/82 81/81/81
f 81/81/81 84/84/84 83/83/83
f 84/84/84 85/85/85 83/83/83
f 84/84/84 86/86/86 85/85/85
f 89/89/89 88/88/88 87/87/87
f 87/87/87 90/90/90 89/89/89
f 90/90/90 91/91/91 89/89/89
f 90/90/90 92/92/92 91/91/91
