g Tent
v -0.07333333 0.03333333 -0.08
v 0 0.09999999 0.06
v -0.09133333 0.09999999 -0.08
v -0.000537811 0.0327014 0.04819226
v -0.07333333 -0.03333334 -0.08
v -0.000537811 -0.03396526 0.04819226
v -0.09133333 -0.09999999 -0.08
v -0.08333334 -0.03333334 -0.08
v 0 -0.09999999 0.06
v -0.1013333 -0.09999999 -0.08
v 0 -0.09999999 0.08
v 0.07333333 -0.03333333 -0.08
v 0 -0.09999999 0.06
v 0.09133333 -0.09999999 -0.08
v -0.000537811 -0.03396526 0.04819226
v 0.07333333 0.03333334 -0.08
v -0.000537811 0.0327014 0.04819226
v 0.09133333 0.09999999 -0.08
v 0.08433335 0.03333334 -0.08
v 0 0.09999999 0.06
v 0.1023333 0.09999999 -0.08
v 0 0.09999999 0.08
v 0 -0.09999999 0.08
v 0.09133333 -0.09999999 -0.08
v 0 -0.09999999 0.06
v 0.1023333 -0.09999999 -0.08
v 0.07333333 -0.03333333 -0.08
v 0.08433335 -0.03333333 -0.08
v 0.07333333 0.03333334 -0.08
v -0.000537811 -0.03396526 0.06819226
v 0.08433335 0.03333334 -0.08
v -0.000537811 0.0327014 0.06819226
v 0.1023333 0.09999999 -0.08
v 0 0.09999999 0.08
v 0 0.09999999 0.08
v -0.09133333 0.09999999 -0.08
v 0 0.09999999 0.06
v -0.1013333 0.09999999 -0.08
v -0.07333333 0.03333333 -0.08
v -0.08333334 0.03333333 -0.08
v -0.07333333 -0.03333334 -0.08
v -0.000537811 0.0327014 0.06819226
v -0.08333334 -0.03333334 -0.08
v -0.000537811 -0.03396526 0.06819226
v -0.1013333 -0.09999999 -0.08
v 0 -0.09999999 0.08
v -7.629394E-08 -0.06133332 -0.08633332
v 0.004618725 -0.064 0.05633332
v -7.629394E-08 -0.06133332 0.05633332
v 0.004618725 -0.064 -0.08633332
v 0.004618725 -0.06933332 0.05633332
v 0.004618725 -0.06933332 -0.08633332
v -7.629394E-08 -0.07199999 0.05633332
v -7.629394E-08 -0.07199999 -0.08633332
v -0.004618878 -0.06933332 0.05633332
v -0.004618878 -0.06933332 -0.08633332
v -0.004618878 -0.064 0.05633332
v -0.004618878 -0.064 -0.08633332
v -7.629394E-08 -0.06133332 0.05633332
v -7.629394E-08 -0.06133332 -0.08633332
v -7.629394E-08 -0.06133332 0.05633332
v 0.004618725 -0.064 0.05633332
v 0.004618725 -0.06933332 0.05633332
v -7.629394E-08 -0.07199999 0.05633332
v -0.004618878 -0.064 0.05633332
v -0.004618878 -0.06933332 0.05633332
v -7.629394E-08 -0.07199999 -0.08633332
v 0.004618725 -0.06933332 -0.08633332
v 0.004618725 -0.064 -0.08633332
v -7.629394E-08 -0.06133332 -0.08633332
v -0.004618878 -0.06933332 -0.08633332
v -0.004618878 -0.064 -0.08633332
v -7.629394E-08 0.07199997 -0.08633331
v 0.004618725 0.06933331 0.05633333
v -7.629394E-08 0.07199997 0.05633333
v 0.004618725 0.06933331 -0.08633331
v 0.004618725 0.06399999 0.05633333
v 0.004618725 0.06399999 -0.08633331
v -7.629394E-08 0.06133331 0.05633333
v -7.629394E-08 0.06133331 -0.08633331
v -0.004618878 0.06399999 0.05633333
v -0.004618878 0.06399999 -0.08633331
v -0.004618878 0.06933331 0.05633333
v -0.004618878 0.06933331 -0.08633331
v -7.629394E-08 0.07199997 0.05633333
v -7.629394E-08 0.07199997 -0.08633331
v -7.629394E-08 0.07199997 0.05633333
v 0.004618725 0.06933331 0.05633333
v 0.004618725 0.06399999 0.05633333
v -7.629394E-08 0.06133331 0.05633333
v -0.004618878 0.06933331 0.05633333
v -0.004618878 0.06399999 0.05633333
v -7.629394E-08 0.06133331 -0.08633331
v 0.004618725 0.06399999 -0.08633331
v 0.004618725 0.06933331 -0.08633331
v -7.629394E-08 0.07199997 -0.08633331
v -0.004618878 0.06399999 -0.08633331
v -0.004618878 0.06933331 -0.08633331
v 0.02031144 -0.06521099 -0.08499999
v 0.01324842 0.05744622 -0.07063404
v 0.02271667 -0.06107548 -0.07063404
v 0.009240016 0.061336 -0.08499999
v 0.05112631 0.06107548 -0.07063404
v 0.05353146 0.06521099 -0.08499999
v 0.06059455 -0.05744622 -0.07063404
v 0.02271667 -0.06107548 -0.07063404
v 0.01324842 0.05744622 -0.07063404
v 0.0646029 -0.061336 -0.08499999
v 0.009240016 0.061336 -0.08499999
v 0.02031144 -0.06521099 -0.08499999
v 0.02271667 -0.06107548 -0.07063404
v 0.02031144 -0.06521099 -0.08499999
vt 0.375 0.1666667
vt 0.625 0.25
vt 0.375 0.25
vt 0.625 0.1666667
vt 0.375 0.08333333
vt 0.625 0.08333333
vt 0.375 0
vt 0.375 0.08333333
vt 0.625 0
vt 0.375 0
vt 0.625 0
vt 0.375 0.6666666
vt 0.625 0.75
vt 0.375 0.75
vt 0.625 0.6666666
vt 0.375 0.5833333
vt 0.625 0.5833333
vt 0.375 0.5
vt 0.375 0.5833333
vt 0.625 0.5
vt 0.375 0.5
vt 0.625 0.5
vt 0.625 0.75
vt 0.375 0.75
vt 0.625 0.75
vt 0.375 0.75
vt 0.375 0.6666666
vt 0.375 0.6666666
vt 0.375 0.5833333
vt 0.625 0.6666666
vt 0.375 0.5833333
vt 0.625 0.5833333
vt 0.375 0.5
vt 0.625 0.5
vt 0.625 0.25
vt 0.375 0.25
vt 0.625 0.25
vt 0.375 0.25
vt 0.375 0.1666667
vt 0.375 0.1666667
vt 0.375 0.08333333
vt 0.625 0.1666667
vt 0.375 0.08333333
vt 0.625 0.08333333
vt 0.375 0
vt 0.625 0
vt 1 0.5
vt 0.8333333 1
vt 1 1
vt 0.8333333 0.5
vt 0.6666666 1
vt 0.6666666 0.5
vt 0.4999999 1
vt 0.4999999 0.5
vt 0.3333333 1
vt 0.3333333 0.5
vt 0.1666666 1
vt 0.1666666 0.5
vt -8.940697E-08 1
vt -8.940697E-08 0.5
vt 0.25 0.49
vt 0.4578461 0.37
vt 0.4578461 0.13
vt 0.25 0.01000001
vt 0.04215391 0.37
vt 0.04215391 0.13
vt 0.75 0.01000001
vt 0.9578461 0.13
vt 0.9578461 0.37
vt 0.75 0.49
vt 0.5421539 0.13
vt 0.5421539 0.37
vt 1 0.5
vt 0.8333333 1
vt 1 1
vt 0.8333333 0.5
vt 0.6666666 1
vt 0.6666666 0.5
vt 0.4999999 1
vt 0.4999999 0.5
vt 0.3333333 1
vt 0.3333333 0.5
vt 0.1666666 1
vt 0.1666666 0.5
vt -8.940697E-08 1
vt -8.940697E-08 0.5
vt 0.25 0.49
vt 0.4578461 0.37
vt 0.4578461 0.13
vt 0.25 0.01000001
vt 0.04215391 0.37
vt 0.04215391 0.13
vt 0.75 0.01000001
vt 0.9578461 0.13
vt 0.9578461 0.37
vt 0.75 0.49
vt 0.5421539 0.13
vt 0.5421539 0.37
vt 0.375 0
vt 0.625 0.25
vt 0.625 0
vt 0.375 0.25
vt 0.625 0.5
vt 0.375 0.5
vt 0.625 0.75
vt 0.875 0.75
vt 0.875 0.5
vt 0.375 0.75
vt 0.125 0.5
vt 0.125 0.75
vt 0.625 1
vt 0.375 1
vn 0.524923 0.04963551 -0.8497013
vn -0.0006752149 0.9669057 -0.2551332
vn 0.3254208 0.641044 -0.6950999
vn 0.004784981 0.1610398 -0.9869363
vn 0.5247999 -0.04984941 -0.8497647
vn 0.004833472 -0.1633198 -0.9865614
vn 0.3250878 -0.6413435 -0.6949794
vn -0.8423856 0.07954726 -0.5329714
vn -0.0006916114 -0.9670118 -0.2547304
vn -0.779486 -0.5025705 -0.3739312
vn 0.0006764464 -0.4240782 0.9056253
vn -0.5226212 -0.05194101 -0.8509814
vn -0.0006916114 -0.9670118 -0.2547304
vn -0.3235495 -0.6427213 -0.6944243
vn 0.004833472 -0.1633198 -0.9865614
vn -0.5227572 0.05171917 -0.8509113
vn 0.004784981 0.1610398 -0.9869363
vn -0.3238977 0.6424103 -0.6945497
vn 0.8443264 -0.08325768 -0.5293213
vn -0.0006752149 0.9669057 -0.2551332
vn 0.7820685 0.4994536 -0.3727129
vn 0.000606838 0.4253553 0.9050263
vn 0.0006764464 -0.4240782 0.9056253
vn -0.3235495 -0.6427213 -0.6944243
vn -0.0006916114 -0.9670118 -0.2547304
vn 0.782527 -0.4986525 -0.3728233
vn -0.5226212 -0.05194101 -0.8509814
vn 0.844331 0.08369142 -0.5292456
vn -0.5227572 0.05171917 -0.8509113
vn -0.007104771 0.1650524 0.9862592
vn 0.8443264 -0.08325768 -0.5293213
vn -0.00705576 -0.1628389 0.9866275
vn 0.7820685 0.4994536 -0.3727129
vn 0.000606838 0.4253553 0.9050263
vn 0.000606838 0.4253553 0.9050263
vn 0.3254208 0.641044 -0.6950999
vn -0.0006752149 0.9669057 -0.2551332
vn -0.7790425 0.5033304 -0.3738332
vn 0.524923 0.04963551 -0.8497013
vn -0.8423781 -0.07913586 -0.5330448
vn 0.5247999 -0.04984941 -0.8497647
vn -0.00705576 -0.1628389 0.9866275
vn -0.8423856 0.07954726 -0.5329714
vn -0.007104771 0.1650524 0.9862592
vn -0.779486 -0.5025705 -0.3739312
vn 0.0006764464 -0.4240782 0.9056253
vn 3.935947E-07 0.7924034 -0.6099975
vn 0.6862413 0.3962016 0.6099976
vn -1.909584E-07 0.7924034 0.6099975
vn 0.6862417 0.3962014 -0.6099974
vn 0.6862413 -0.3962016 0.6099976
vn 0.6862417 -0.3962014 -0.6099974
vn -1.967974E-07 -0.7924034 0.6099975
vn 3.935947E-07 -0.7924034 -0.6099975
vn -0.6862416 -0.3962015 0.6099975
vn -0.6862412 -0.3962016 -0.6099977
vn -0.6862416 0.3962015 0.6099975
vn -0.6862412 0.3962016 -0.6099977
vn -1.909584E-07 0.7924034 0.6099975
vn 3.935947E-07 0.7924034 -0.6099975
vn -1.909584E-07 0.7924034 0.6099975
vn 0.6862413 0.3962016 0.6099976
vn 0.6862413 -0.3962016 0.6099976
vn -1.967974E-07 -0.7924034 0.6099975
vn -0.6862416 0.3962015 0.6099975
vn -0.6862416 -0.3962015 0.6099975
vn 3.935947E-07 -0.7924034 -0.6099975
vn 0.6862417 -0.3962014 -0.6099974
vn 0.6862417 0.3962014 -0.6099974
vn 3.935947E-07 0.7924034 -0.6099975
vn -0.6862412 -0.3962016 -0.6099977
vn -0.6862412 0.3962016 -0.6099977
vn 0 0.7924033 -0.6099976
vn 0.6862412 0.3962018 0.6099976
vn -1.909582E-07 0.7924033 0.6099976
vn 0.6862413 0.3962017 -0.6099975
vn 0.6862415 -0.3962012 0.6099977
vn 0.6862416 -0.3962012 -0.6099976
vn -1.967972E-07 -0.7924034 0.6099974
vn 0 -0.7924034 -0.6099974
vn -0.6862417 -0.3962011 0.6099976
vn -0.6862415 -0.3962012 -0.6099976
vn -0.6862414 0.3962018 0.6099975
vn -0.6862413 0.3962018 -0.6099975
vn -1.909582E-07 0.7924033 0.6099976
vn 0 0.7924033 -0.6099976
vn -1.909582E-07 0.7924033 0.6099976
vn 0.6862412 0.3962018 0.6099976
vn 0.6862415 -0.3962012 0.6099977
vn -1.967972E-07 -0.7924034 0.6099974
vn -0.6862414 0.3962018 0.6099975
vn -0.6862417 -0.3962011 0.6099976
vn 0 -0.7924034 -0.6099974
vn 0.6862416 -0.3962012 -0.6099976
vn 0.6862413 0.3962017 -0.6099975
vn 0 0.7924033 -0.6099976
vn -0.6862415 -0.3962012 -0.6099976
vn -0.6862413 0.3962018 -0.6099975
vn -0.5612755 -0.6997129 -0.4420086
vn -0.5532057 0.4477614 0.7024765
vn -0.4717683 -0.5303949 0.7043549
vn -0.6773388 0.5768452 -0.4565761
vn 0.4717698 0.5303947 0.704354
vn 0.5612746 0.6997134 -0.4420092
vn 0.5532072 -0.4477614 0.7024753
vn -0.4717683 -0.5303949 0.7043549
vn -0.5532057 0.4477614 0.7024765
vn 0.6773378 -0.5768454 -0.4565774
vn -0.6773388 0.5768452 -0.4565761
vn -0.5612755 -0.6997129 -0.4420086
vn -0.4717683 -0.5303949 0.7043549
vn -0.5612755 -0.6997129 -0.4420086
g Tent_0
f 3/3/3 2/2/2 1/1/1
f 2/2/2 4/4/4 1/1/1
f 1/1/1 4/4/4 5/5/5
f 4/4/4 6/6/6 5/5/5
f 5/5/5 6/6/6 7/7/7
f 5/5/5 7/7/7 8/8/8
f 6/6/6 9/9/9 7/7/7
f 7/7/7 10/10/10 8/8/8
f 7/7/7 9/9/9 10/10/10
f 9/9/9 11/11/11 10/10/10
f 14/14/14 13/13/13 12/12/12
f 13/13/13 15/15/15 12/12/12
f 12/12/12 15/15/15 16/16/16
f 15/15/15 17/17/17 16/16/16
f 16/16/16 17/17/17 18/18/18
f 16/16/16 18/18/18 19/19/19
f 17/17/17 20/20/20 18/18/18
f 18/18/18 21/21/21 19/19/19
f 18/18/18 20/20/20 21/21/21
f 20/20/20 22/22/22 21/21/21
f 25/25/25 24/24/24 23/23/23
f 24/24/24 26/26/26 23/23/23
f 24/24/24 27/27/27 26/26/26
f 23/23/23 26/26/26 28/28/28
f 27/27/27 28/28/28 26/26/26
f 27/27/27 29/29/29 28/28/28
f 30/30/30 23/23/23 28/28/28
f 29/29/29 31/31/31 28/28/28
f 30/30/30 28/28/28 31/31/31
f 32/32/32 30/30/30 31/31/31
f 32/32/32 31/31/31 33/33/33
f 34/34/34 32/32/32 33/33/33
f 37/37/37 36/36/36 35/35/35
f 36/36/36 38/38/38 35/35/35
f 36/36/36 39/39/39 38/38/38
f 35/35/35 38/38/38 40/40/40
f 39/39/39 40/40/40 38/38/38
f 39/39/39 41/41/41 40/40/40
f 42/42/42 35/35/35 40/40/40
f 41/41/41 43/43/43 40/40/40
f 42/42/42 40/40/40 43/43/43
f 44/44/44 42/42/42 43/43/43
f 44/44/44 43/43/43 45/45/45
f 46/46/46 44/44/44 45/45/45
g Tent_1
f 49/49/49 48/48/48 47/47/47
f 48/48/48 50/50/50 47/47/47
f 48/48/48 51/51/51 50/50/50
f 51/51/51 52/52/52 50/50/50
f 51/51/51 53/53/53 52/52/52
f 53/53/53 54/54/54 52/52/52
f 53/53/53 55/55/55 54/54/54
f 55/55/55 56/56/56 54/54/54
f 55/55/55 57/57/57 56/56/56
f 57/57/57 58/58/58 56/56/56
f 57/57/57 59/59/59 58/58/58
f 59/59/59 60/60/60 58/58/58
f 63/63/63 62/62/62 61/61/61
f 61/61/61 64/64/64 63/63/63
f 61/61/61 65/65/65 64/64/64
f 65/65/65 66/66/66 64/64/64
f 69/69/69 68/68/68 67/67/67
f 67/67/67 70/70/70 69/69/69
f 67/67/67 71/71/71 70/70/70
f 71/71/71 72/72/72 70/70/70
f 75/75/75 74/74/74 73/73/73
f 74/74/74 76/76/76 73/73/73
f 74/74/74 77/77/77 76/76/76
f 77/77/77 78/78/78 76/76/76
f 77/77/77 79/79/79 78/78/78
f 79/79/79 80/80/80 78/78/78
f 79/79/79 81/81/81 80/80/80
f 81/81/81 82/82/82 80/80/80
f 81/81/81 83/83/83 82/82/82
f 83/83/83 84/84/84 82/82/82
f 83/83/83 85/85/85 84/84/84
f 85/85/85 86/86/86 84/84/84
f 89/89/89 88/88/88 87/87/87
f 87/87/87 90/90/90 89/89/89
f 87/87/87 91/91/91 90/90/90
f 91/91/91 92/92/92 90/90/90
f 95/95/95 94/94/94 93/93/93
f 93/93/93 96/96/96 95/95/95
f 93/93/93 97/97/97 96/96/96
f 97/97/97 98/98/98 96/96/96
g Tent_2
f 101/101/101 100/100/100 99/99/99
f 100/100/100 102/102/102 99/99/99
f 100/100/100 103/103/103 102/102/102
f 103/103/103 104/104/104 102/102/102
f 103/103/103 105/105/105 104/104/104
f 106/106/106 105/105/105 103/103/103
f 107/107/107 106/106/106 103/103/103
f 105/105/105 108/108/108 104/104/104
f 104/104/104 108/108/108 109/109/109
f 108/108/108 110/110/110 109/109/109
f 105/105/105 111/111/111 108/108/108
f 111/111/111 112/112/112 108/108/108
