g Wing R.001
v 0.008401998 -0.004393212 -0.002187619
v -0.005915033 -0.01757259 -0.00790837
v 0.005565691 -0.01316973 -0.004899964
v -0.001501481 -0.005582173 -0.004473222
v -0.01287641 -0.009997888 -0.002671176
v 0.009484942 0.004132842 0.001542149
v -0.01055184 -0.001849689 -0.0009319091
v 0.001631328 0.003094985 8.355856E-05
v 0.008080845 0.01240208 0.006186525
v -0.005992851 0.006078522 0.002377769
v 0.003605929 0.01307646 0.005727238
v 6.688416E-05 0.0137804 0.007155037
vt 0.6688177 0
vt 1 0.5
vt 1 0
vt 0.6688175 0.5
vt 1 1
vt 0.3354842 0
vt 0.6688175 1
vt 0.3354842 0.5
vt 0 0
vt 0.3354842 1
vt 0 0.5
vt 0 1
vn 0.1555302 0.3364619 -0.9287646
vn -0.07217057 0.2855709 -0.9556363
vn 0.1794984 0.2211009 -0.95859
vn -0.01595042 0.3429244 -0.9392275
vn -0.2691837 0.3231737 -0.907248
vn 0.1293696 0.4487684 -0.8842344
vn -0.1899298 0.4026674 -0.8954249
vn 0.01691226 0.4681961 -0.8834628
vn 0.1204907 0.4846212 -0.8663857
vn -0.1097259 0.5023185 -0.8576925
vn 0.006867489 0.5158262 -0.8566658
vn -0.1009101 0.538747 -0.8364024
g Wing R.001_0
f 3/3/3 2/2/2 1/1/1
f 2/2/2 4/4/4 1/1/1
f 2/2/2 5/5/5 4/4/4
f 1/1/1 4/4/4 6/6/6
f 5/5/5 7/7/7 4/4/4
f 4/4/4 8/8/8 6/6/6
f 4/4/4 7/7/7 8/8/8
f 6/6/6 8/8/8 9/9/9
f 7/7/7 10/10/10 8/8/8
f 8/8/8 11/11/11 9/9/9
f 8/8/8 10/10/10 11/11/11
f 10/10/10 12/12/12 11/11/11
